<?xml version="1.0" encoding="utf-8" standalone="no"?>
<!DOCTYPE svg PUBLIC "-//W3C//DTD SVG 1.1//EN"
  "http://www.w3.org/Graphics/SVG/1.1/DTD/svg11.dtd">
<!-- Created with matplotlib (https://matplotlib.org/) -->
<svg height="231.84pt" version="1.1" viewBox="0 0 349.2 231.84" width="349.2pt" xmlns="http://www.w3.org/2000/svg" xmlns:xlink="http://www.w3.org/1999/xlink">
 <defs>
  <style type="text/css">
*{stroke-linecap:butt;stroke-linejoin:round;}
  </style>
 </defs>
 <g id="figure_1">
  <g id="patch_1">
   <path d="M 0 231.84 
L 349.2 231.84 
L 349.2 0 
L 0 0 
z
" style="fill:none;"/>
  </g>
  <g id="patch_2">
   <path d="M 7.2 224.64 
L 342 224.64 
L 342 7.2 
L 7.2 7.2 
z
" style="fill:#ffffff;"/>
  </g>
  <g id="pane3d_1">
   <g id="patch_3">
    <path d="M 60.670166 179.044189 
L 127.097862 93.812894 
L 122.958809 13.826146 
L 50.615622 100.938588 
" style="fill:#f2f2f2;opacity:0.5;stroke:#f2f2f2;stroke-linejoin:miter;"/>
   </g>
  </g>
  <g id="pane3d_2">
   <g id="patch_4">
    <path d="M 127.097862 93.812894 
L 293.10607 123.66328 
L 302.385958 44.237898 
L 122.958809 13.826146 
" style="fill:#e6e6e6;opacity:0.5;stroke:#e6e6e6;stroke-linejoin:miter;"/>
   </g>
  </g>
  <g id="pane3d_3">
   <g id="patch_5">
    <path d="M 60.670166 179.044189 
L 235.629169 212.736155 
L 293.10607 123.66328 
L 127.097862 93.812894 
" style="fill:#ececec;opacity:0.5;stroke:#ececec;stroke-linejoin:miter;"/>
   </g>
  </g>
  <g id="axis3d_1">
   <g id="line2d_1">
    <path d="M 60.670166 179.044189 
L 235.629169 212.736155 
" style="fill:none;stroke:#000000;stroke-linecap:square;stroke-width:0.8;"/>
   </g>
   <g id="text_1">
    <!-- x -->
    <defs>
     <path d="M 54.890625 54.6875 
L 35.109375 28.078125 
L 55.90625 0 
L 45.3125 0 
L 29.390625 21.484375 
L 13.484375 0 
L 2.875 0 
L 24.125 28.609375 
L 4.6875 54.6875 
L 15.28125 54.6875 
L 29.78125 35.203125 
L 44.28125 54.6875 
z
" id="DejaVuSans-120"/>
    </defs>
    <g transform="translate(133.207531 226.893609)scale(0.1 -0.1)">
     <use xlink:href="#DejaVuSans-120"/>
    </g>
   </g>
   <g id="Line3DCollection_1">
    <path d="M 64.092312 179.703194 
L 130.349182 94.397523 
L 126.46702 14.420765 
" style="fill:none;stroke:#b0b0b0;stroke-width:0.8;"/>
    <path d="M 84.689938 183.669692 
L 149.915036 97.915712 
L 147.58379 17.999922 
" style="fill:none;stroke:#b0b0b0;stroke-width:0.8;"/>
    <path d="M 105.399217 187.657691 
L 169.580752 101.451857 
L 168.816963 21.598809 
" style="fill:none;stroke:#b0b0b0;stroke-width:0.8;"/>
    <path d="M 126.221057 191.667366 
L 189.347097 105.006097 
L 190.167505 25.217589 
" style="fill:none;stroke:#b0b0b0;stroke-width:0.8;"/>
    <path d="M 147.15638 195.698894 
L 209.214844 108.578571 
L 211.636391 28.856428 
" style="fill:none;stroke:#b0b0b0;stroke-width:0.8;"/>
    <path d="M 168.206116 199.752455 
L 229.184778 112.169419 
L 233.224609 32.515492 
" style="fill:none;stroke:#b0b0b0;stroke-width:0.8;"/>
    <path d="M 189.371206 203.828229 
L 249.257686 115.778783 
L 254.933155 36.194952 
" style="fill:none;stroke:#b0b0b0;stroke-width:0.8;"/>
    <path d="M 210.652599 207.926401 
L 269.43437 119.406807 
L 276.76304 39.894977 
" style="fill:none;stroke:#b0b0b0;stroke-width:0.8;"/>
    <path d="M 232.051257 212.047154 
L 289.715634 123.053636 
L 298.715283 43.615742 
" style="fill:none;stroke:#b0b0b0;stroke-width:0.8;"/>
   </g>
   <g id="xtick_1">
    <g id="line2d_2">
     <path d="M 64.654804 178.978986 
L 62.96566 181.153758 
" style="fill:none;stroke:#000000;stroke-linecap:square;stroke-width:0.8;"/>
    </g>
    <g id="text_2">
     <!-- −0.50 -->
     <defs>
      <path d="M 10.59375 35.5 
L 73.1875 35.5 
L 73.1875 27.203125 
L 10.59375 27.203125 
z
" id="DejaVuSans-8722"/>
      <path d="M 31.78125 66.40625 
Q 24.171875 66.40625 20.328125 58.90625 
Q 16.5 51.421875 16.5 36.375 
Q 16.5 21.390625 20.328125 13.890625 
Q 24.171875 6.390625 31.78125 6.390625 
Q 39.453125 6.390625 43.28125 13.890625 
Q 47.125 21.390625 47.125 36.375 
Q 47.125 51.421875 43.28125 58.90625 
Q 39.453125 66.40625 31.78125 66.40625 
z
M 31.78125 74.21875 
Q 44.046875 74.21875 50.515625 64.515625 
Q 56.984375 54.828125 56.984375 36.375 
Q 56.984375 17.96875 50.515625 8.265625 
Q 44.046875 -1.421875 31.78125 -1.421875 
Q 19.53125 -1.421875 13.0625 8.265625 
Q 6.59375 17.96875 6.59375 36.375 
Q 6.59375 54.828125 13.0625 64.515625 
Q 19.53125 74.21875 31.78125 74.21875 
z
" id="DejaVuSans-48"/>
      <path d="M 10.6875 12.40625 
L 21 12.40625 
L 21 0 
L 10.6875 0 
z
" id="DejaVuSans-46"/>
      <path d="M 10.796875 72.90625 
L 49.515625 72.90625 
L 49.515625 64.59375 
L 19.828125 64.59375 
L 19.828125 46.734375 
Q 21.96875 47.46875 24.109375 47.828125 
Q 26.265625 48.1875 28.421875 48.1875 
Q 40.625 48.1875 47.75 41.5 
Q 54.890625 34.8125 54.890625 23.390625 
Q 54.890625 11.625 47.5625 5.09375 
Q 40.234375 -1.421875 26.90625 -1.421875 
Q 22.3125 -1.421875 17.546875 -0.640625 
Q 12.796875 0.140625 7.71875 1.703125 
L 7.71875 11.625 
Q 12.109375 9.234375 16.796875 8.0625 
Q 21.484375 6.890625 26.703125 6.890625 
Q 35.15625 6.890625 40.078125 11.328125 
Q 45.015625 15.765625 45.015625 23.390625 
Q 45.015625 31 40.078125 35.4375 
Q 35.15625 39.890625 26.703125 39.890625 
Q 22.75 39.890625 18.8125 39.015625 
Q 14.890625 38.140625 10.796875 36.28125 
z
" id="DejaVuSans-53"/>
     </defs>
     <g transform="translate(43.870909 200.282482)scale(0.1 -0.1)">
      <use xlink:href="#DejaVuSans-8722"/>
      <use x="83.789062" xlink:href="#DejaVuSans-48"/>
      <use x="147.412109" xlink:href="#DejaVuSans-46"/>
      <use x="179.199219" xlink:href="#DejaVuSans-53"/>
      <use x="242.822266" xlink:href="#DejaVuSans-48"/>
     </g>
    </g>
   </g>
   <g id="xtick_2">
    <g id="line2d_3">
     <path d="M 85.243757 182.941564 
L 83.580653 185.128112 
" style="fill:none;stroke:#000000;stroke-linecap:square;stroke-width:0.8;"/>
    </g>
    <g id="text_3">
     <!-- −0.25 -->
     <defs>
      <path d="M 19.1875 8.296875 
L 53.609375 8.296875 
L 53.609375 0 
L 7.328125 0 
L 7.328125 8.296875 
Q 12.9375 14.109375 22.625 23.890625 
Q 32.328125 33.6875 34.8125 36.53125 
Q 39.546875 41.84375 41.421875 45.53125 
Q 43.3125 49.21875 43.3125 52.78125 
Q 43.3125 58.59375 39.234375 62.25 
Q 35.15625 65.921875 28.609375 65.921875 
Q 23.96875 65.921875 18.8125 64.3125 
Q 13.671875 62.703125 7.8125 59.421875 
L 7.8125 69.390625 
Q 13.765625 71.78125 18.9375 73 
Q 24.125 74.21875 28.421875 74.21875 
Q 39.75 74.21875 46.484375 68.546875 
Q 53.21875 62.890625 53.21875 53.421875 
Q 53.21875 48.921875 51.53125 44.890625 
Q 49.859375 40.875 45.40625 35.40625 
Q 44.1875 33.984375 37.640625 27.21875 
Q 31.109375 20.453125 19.1875 8.296875 
z
" id="DejaVuSans-50"/>
     </defs>
     <g transform="translate(64.428006 204.278762)scale(0.1 -0.1)">
      <use xlink:href="#DejaVuSans-8722"/>
      <use x="83.789062" xlink:href="#DejaVuSans-48"/>
      <use x="147.412109" xlink:href="#DejaVuSans-46"/>
      <use x="179.199219" xlink:href="#DejaVuSans-50"/>
      <use x="242.822266" xlink:href="#DejaVuSans-53"/>
     </g>
    </g>
   </g>
   <g id="xtick_3">
    <g id="line2d_4">
     <path d="M 105.94426 186.925612 
L 104.307504 189.124031 
" style="fill:none;stroke:#000000;stroke-linecap:square;stroke-width:0.8;"/>
    </g>
    <g id="text_4">
     <!-- 0.00 -->
     <g transform="translate(89.28623 208.296676)scale(0.1 -0.1)">
      <use xlink:href="#DejaVuSans-48"/>
      <use x="63.623047" xlink:href="#DejaVuSans-46"/>
      <use x="95.410156" xlink:href="#DejaVuSans-48"/>
      <use x="159.033203" xlink:href="#DejaVuSans-48"/>
     </g>
    </g>
   </g>
   <g id="xtick_4">
    <g id="line2d_5">
     <path d="M 126.757222 190.931303 
L 125.147125 193.141691 
" style="fill:none;stroke:#000000;stroke-linecap:square;stroke-width:0.8;"/>
    </g>
    <g id="text_5">
     <!-- 0.25 -->
     <g transform="translate(110.066801 212.336399)scale(0.1 -0.1)">
      <use xlink:href="#DejaVuSans-48"/>
      <use x="63.623047" xlink:href="#DejaVuSans-46"/>
      <use x="95.410156" xlink:href="#DejaVuSans-50"/>
      <use x="159.033203" xlink:href="#DejaVuSans-53"/>
     </g>
    </g>
   </g>
   <g id="xtick_5">
    <g id="line2d_6">
     <path d="M 147.683561 194.958816 
L 146.100439 197.181269 
" style="fill:none;stroke:#000000;stroke-linecap:square;stroke-width:0.8;"/>
    </g>
    <g id="text_6">
     <!-- 0.50 -->
     <g transform="translate(130.960478 216.39811)scale(0.1 -0.1)">
      <use xlink:href="#DejaVuSans-48"/>
      <use x="63.623047" xlink:href="#DejaVuSans-46"/>
      <use x="95.410156" xlink:href="#DejaVuSans-53"/>
      <use x="159.033203" xlink:href="#DejaVuSans-48"/>
     </g>
    </g>
   </g>
   <g id="xtick_6">
    <g id="line2d_7">
     <path d="M 168.724206 199.008327 
L 167.168379 201.242947 
" style="fill:none;stroke:#000000;stroke-linecap:square;stroke-width:0.8;"/>
    </g>
    <g id="text_7">
     <!-- 0.75 -->
     <defs>
      <path d="M 8.203125 72.90625 
L 55.078125 72.90625 
L 55.078125 68.703125 
L 28.609375 0 
L 18.3125 0 
L 43.21875 64.59375 
L 8.203125 64.59375 
z
" id="DejaVuSans-55"/>
     </defs>
     <g transform="translate(151.968188 220.481989)scale(0.1 -0.1)">
      <use xlink:href="#DejaVuSans-48"/>
      <use x="63.623047" xlink:href="#DejaVuSans-46"/>
      <use x="95.410156" xlink:href="#DejaVuSans-55"/>
      <use x="159.033203" xlink:href="#DejaVuSans-53"/>
     </g>
    </g>
   </g>
   <g id="xtick_7">
    <g id="line2d_8">
     <path d="M 189.880098 203.08002 
L 188.351888 205.326905 
" style="fill:none;stroke:#000000;stroke-linecap:square;stroke-width:0.8;"/>
    </g>
    <g id="text_8">
     <!-- 1.00 -->
     <defs>
      <path d="M 12.40625 8.296875 
L 28.515625 8.296875 
L 28.515625 63.921875 
L 10.984375 60.40625 
L 10.984375 69.390625 
L 28.421875 72.90625 
L 38.28125 72.90625 
L 38.28125 8.296875 
L 54.390625 8.296875 
L 54.390625 0 
L 12.40625 0 
z
" id="DejaVuSans-49"/>
     </defs>
     <g transform="translate(173.090866 224.588217)scale(0.1 -0.1)">
      <use xlink:href="#DejaVuSans-49"/>
      <use x="63.623047" xlink:href="#DejaVuSans-46"/>
      <use x="95.410156" xlink:href="#DejaVuSans-48"/>
      <use x="159.033203" xlink:href="#DejaVuSans-48"/>
     </g>
    </g>
   </g>
   <g id="xtick_8">
    <g id="line2d_9">
     <path d="M 211.152184 207.174075 
L 209.651919 209.433327 
" style="fill:none;stroke:#000000;stroke-linecap:square;stroke-width:0.8;"/>
    </g>
    <g id="text_9">
     <!-- 1.25 -->
     <g transform="translate(194.329458 228.716979)scale(0.1 -0.1)">
      <use xlink:href="#DejaVuSans-49"/>
      <use x="63.623047" xlink:href="#DejaVuSans-46"/>
      <use x="95.410156" xlink:href="#DejaVuSans-50"/>
      <use x="159.033203" xlink:href="#DejaVuSans-53"/>
     </g>
    </g>
   </g>
   <g id="xtick_9">
    <g id="line2d_10">
     <path d="M 232.541425 211.290678 
L 231.069437 213.562399 
" style="fill:none;stroke:#000000;stroke-linecap:square;stroke-width:0.8;"/>
    </g>
    <g id="text_10">
     <!-- 1.50 -->
     <g transform="translate(215.684921 232.868461)scale(0.1 -0.1)">
      <use xlink:href="#DejaVuSans-49"/>
      <use x="63.623047" xlink:href="#DejaVuSans-46"/>
      <use x="95.410156" xlink:href="#DejaVuSans-53"/>
      <use x="159.033203" xlink:href="#DejaVuSans-48"/>
     </g>
    </g>
   </g>
  </g>
  <g id="axis3d_2">
   <g id="line2d_11">
    <path d="M 293.10607 123.66328 
L 235.629169 212.736155 
" style="fill:none;stroke:#000000;stroke-linecap:square;stroke-width:0.8;"/>
   </g>
   <g id="text_11">
    <!-- y -->
    <defs>
     <path d="M 32.171875 -5.078125 
Q 28.375 -14.84375 24.75 -17.8125 
Q 21.140625 -20.796875 15.09375 -20.796875 
L 7.90625 -20.796875 
L 7.90625 -13.28125 
L 13.1875 -13.28125 
Q 16.890625 -13.28125 18.9375 -11.515625 
Q 21 -9.765625 23.484375 -3.21875 
L 25.09375 0.875 
L 2.984375 54.6875 
L 12.5 54.6875 
L 29.59375 11.921875 
L 46.6875 54.6875 
L 56.203125 54.6875 
z
" id="DejaVuSans-121"/>
    </defs>
    <g transform="translate(291.124362 187.629694)scale(0.1 -0.1)">
     <use xlink:href="#DejaVuSans-121"/>
    </g>
   </g>
   <g id="Line3DCollection_2">
    <path d="M 52.157258 99.082218 
L 62.078943 177.236632 
L 236.849713 210.844658 
" style="fill:none;stroke:#b0b0b0;stroke-width:0.8;"/>
    <path d="M 61.321212 88.047393 
L 70.459225 166.484154 
L 244.108839 199.595074 
" style="fill:none;stroke:#b0b0b0;stroke-width:0.8;"/>
    <path d="M 70.340484 77.186788 
L 78.717386 155.888366 
L 251.259792 188.513127 
" style="fill:none;stroke:#b0b0b0;stroke-width:0.8;"/>
    <path d="M 79.218474 66.496308 
L 86.856078 145.445866 
L 258.304972 177.595098 
" style="fill:none;stroke:#b0b0b0;stroke-width:0.8;"/>
    <path d="M 87.958476 55.971987 
L 94.877873 135.153353 
L 265.246709 166.837378 
" style="fill:none;stroke:#b0b0b0;stroke-width:0.8;"/>
    <path d="M 96.563682 45.609981 
L 102.785271 125.007617 
L 272.087264 156.23646 
" style="fill:none;stroke:#b0b0b0;stroke-width:0.8;"/>
    <path d="M 105.037187 35.406565 
L 110.580704 115.005541 
L 278.828833 145.788942 
" style="fill:none;stroke:#b0b0b0;stroke-width:0.8;"/>
    <path d="M 113.38199 25.358124 
L 118.266532 105.144096 
L 285.47355 135.491518 
" style="fill:none;stroke:#b0b0b0;stroke-width:0.8;"/>
    <path d="M 121.601003 15.461154 
L 125.845051 95.420337 
L 292.023486 125.340977 
" style="fill:none;stroke:#b0b0b0;stroke-width:0.8;"/>
   </g>
   <g id="xtick_10">
    <g id="line2d_12">
     <path d="M 235.419734 210.569677 
L 239.711246 211.394925 
" style="fill:none;stroke:#000000;stroke-linecap:square;stroke-width:0.8;"/>
    </g>
    <g id="text_12">
     <!-- −0.50 -->
     <g transform="translate(235.391078 226.832593)scale(0.1 -0.1)">
      <use xlink:href="#DejaVuSans-8722"/>
      <use x="83.789062" xlink:href="#DejaVuSans-48"/>
      <use x="147.412109" xlink:href="#DejaVuSans-46"/>
      <use x="179.199219" xlink:href="#DejaVuSans-53"/>
      <use x="242.822266" xlink:href="#DejaVuSans-48"/>
     </g>
    </g>
   </g>
   <g id="xtick_11">
    <g id="line2d_13">
     <path d="M 242.688271 199.324205 
L 246.951529 200.137108 
" style="fill:none;stroke:#000000;stroke-linecap:square;stroke-width:0.8;"/>
    </g>
    <g id="text_13">
     <!-- −0.25 -->
     <g transform="translate(242.513911 215.570972)scale(0.1 -0.1)">
      <use xlink:href="#DejaVuSans-8722"/>
      <use x="83.789062" xlink:href="#DejaVuSans-48"/>
      <use x="147.412109" xlink:href="#DejaVuSans-46"/>
      <use x="179.199219" xlink:href="#DejaVuSans-50"/>
      <use x="242.822266" xlink:href="#DejaVuSans-53"/>
     </g>
    </g>
   </g>
   <g id="xtick_12">
    <g id="line2d_14">
     <path d="M 249.848514 188.246279 
L 254.083881 189.047113 
" style="fill:none;stroke:#000000;stroke-linecap:square;stroke-width:0.8;"/>
    </g>
    <g id="text_14">
     <!-- 0.00 -->
     <g transform="translate(253.720919 204.476418)scale(0.1 -0.1)">
      <use xlink:href="#DejaVuSans-48"/>
      <use x="63.623047" xlink:href="#DejaVuSans-46"/>
      <use x="95.410156" xlink:href="#DejaVuSans-48"/>
      <use x="159.033203" xlink:href="#DejaVuSans-48"/>
     </g>
    </g>
   </g>
   <g id="xtick_13">
    <g id="line2d_15">
     <path d="M 256.902866 177.332182 
L 261.110697 178.121214 
" style="fill:none;stroke:#000000;stroke-linecap:square;stroke-width:0.8;"/>
    </g>
    <g id="text_15">
     <!-- 0.25 -->
     <g transform="translate(260.63475 193.54524)scale(0.1 -0.1)">
      <use xlink:href="#DejaVuSans-48"/>
      <use x="63.623047" xlink:href="#DejaVuSans-46"/>
      <use x="95.410156" xlink:href="#DejaVuSans-50"/>
      <use x="159.033203" xlink:href="#DejaVuSans-53"/>
     </g>
    </g>
   </g>
   <g id="xtick_14">
    <g id="line2d_16">
     <path d="M 263.853657 166.578308 
L 268.034302 167.355795 
" style="fill:none;stroke:#000000;stroke-linecap:square;stroke-width:0.8;"/>
    </g>
    <g id="text_16">
     <!-- 0.50 -->
     <g transform="translate(267.447514 182.773857)scale(0.1 -0.1)">
      <use xlink:href="#DejaVuSans-48"/>
      <use x="63.623047" xlink:href="#DejaVuSans-46"/>
      <use x="95.410156" xlink:href="#DejaVuSans-53"/>
      <use x="159.033203" xlink:href="#DejaVuSans-48"/>
     </g>
    </g>
   </g>
   <g id="xtick_15">
    <g id="line2d_17">
     <path d="M 270.703153 155.981152 
L 274.856954 156.747347 
" style="fill:none;stroke:#000000;stroke-linecap:square;stroke-width:0.8;"/>
    </g>
    <g id="text_17">
     <!-- 0.75 -->
     <g transform="translate(274.161409 172.158789)scale(0.1 -0.1)">
      <use xlink:href="#DejaVuSans-48"/>
      <use x="63.623047" xlink:href="#DejaVuSans-46"/>
      <use x="95.410156" xlink:href="#DejaVuSans-55"/>
      <use x="159.033203" xlink:href="#DejaVuSans-53"/>
     </g>
    </g>
   </g>
   <g id="xtick_16">
    <g id="line2d_18">
     <path d="M 277.453552 145.537315 
L 281.580845 146.292462 
" style="fill:none;stroke:#000000;stroke-linecap:square;stroke-width:0.8;"/>
    </g>
    <g id="text_18">
     <!-- 1.00 -->
     <g transform="translate(280.778574 161.696659)scale(0.1 -0.1)">
      <use xlink:href="#DejaVuSans-49"/>
      <use x="63.623047" xlink:href="#DejaVuSans-46"/>
      <use x="95.410156" xlink:href="#DejaVuSans-48"/>
      <use x="159.033203" xlink:href="#DejaVuSans-48"/>
     </g>
    </g>
   </g>
   <g id="xtick_17">
    <g id="line2d_19">
     <path d="M 284.106988 135.243493 
L 288.208103 135.987829 
" style="fill:none;stroke:#000000;stroke-linecap:square;stroke-width:0.8;"/>
    </g>
    <g id="text_19">
     <!-- 1.25 -->
     <g transform="translate(287.301083 151.384185)scale(0.1 -0.1)">
      <use xlink:href="#DejaVuSans-49"/>
      <use x="63.623047" xlink:href="#DejaVuSans-46"/>
      <use x="95.410156" xlink:href="#DejaVuSans-50"/>
      <use x="159.033203" xlink:href="#DejaVuSans-53"/>
     </g>
    </g>
   </g>
   <g id="xtick_18">
    <g id="line2d_20">
     <path d="M 290.665535 125.096476 
L 294.740798 125.830232 
" style="fill:none;stroke:#000000;stroke-linecap:square;stroke-width:0.8;"/>
    </g>
    <g id="text_20">
     <!-- 1.50 -->
     <g transform="translate(293.730953 141.218179)scale(0.1 -0.1)">
      <use xlink:href="#DejaVuSans-49"/>
      <use x="63.623047" xlink:href="#DejaVuSans-46"/>
      <use x="95.410156" xlink:href="#DejaVuSans-53"/>
      <use x="159.033203" xlink:href="#DejaVuSans-48"/>
     </g>
    </g>
   </g>
  </g>
  <g id="axis3d_3">
   <g id="line2d_21">
    <path d="M 293.10607 123.66328 
L 302.385958 44.237898 
" style="fill:none;stroke:#000000;stroke-linecap:square;stroke-width:0.8;"/>
   </g>
   <g id="text_21">
    <!-- z -->
    <defs>
     <path d="M 5.515625 54.6875 
L 48.1875 54.6875 
L 48.1875 46.484375 
L 14.40625 7.171875 
L 48.1875 7.171875 
L 48.1875 0 
L 4.296875 0 
L 4.296875 8.203125 
L 38.09375 47.515625 
L 5.515625 47.515625 
z
" id="DejaVuSans-122"/>
    </defs>
    <g transform="translate(335.037725 78.960902)scale(0.1 -0.1)">
     <use xlink:href="#DejaVuSans-122"/>
    </g>
   </g>
   <g id="Line3DCollection_3">
    <path d="M 293.277953 122.192149 
L 127.021068 92.328862 
L 60.484518 177.60204 
" style="fill:none;stroke:#b0b0b0;stroke-width:0.8;"/>
    <path d="M 294.320241 113.271342 
L 126.555502 83.331849 
L 59.358294 168.853317 
" style="fill:none;stroke:#b0b0b0;stroke-width:0.8;"/>
    <path d="M 295.381737 104.18613 
L 126.081541 74.172602 
L 58.210482 159.936903 
" style="fill:none;stroke:#b0b0b0;stroke-width:0.8;"/>
    <path d="M 296.462978 94.931926 
L 125.598956 64.846692 
L 57.040458 150.847929 
" style="fill:none;stroke:#b0b0b0;stroke-width:0.8;"/>
    <path d="M 297.56452 85.503969 
L 125.107508 55.349529 
L 55.847568 141.581336 
" style="fill:none;stroke:#b0b0b0;stroke-width:0.8;"/>
    <path d="M 298.68694 75.897322 
L 124.606953 45.676352 
L 54.631137 132.131868 
" style="fill:none;stroke:#b0b0b0;stroke-width:0.8;"/>
    <path d="M 299.830837 66.106854 
L 124.097034 35.822222 
L 53.39046 122.494057 
" style="fill:none;stroke:#b0b0b0;stroke-width:0.8;"/>
    <path d="M 300.996833 56.127239 
L 123.577486 25.782014 
L 52.124806 112.662215 
" style="fill:none;stroke:#b0b0b0;stroke-width:0.8;"/>
    <path d="M 302.185576 45.952942 
L 123.048034 15.550407 
L 50.833412 102.630422 
" style="fill:none;stroke:#b0b0b0;stroke-width:0.8;"/>
   </g>
   <g id="xtick_19">
    <g id="line2d_22">
     <path d="M 291.919352 121.948116 
L 295.996566 122.68047 
" style="fill:none;stroke:#000000;stroke-linecap:square;stroke-width:0.8;"/>
    </g>
    <g id="text_22">
     <!-- −0.50 -->
     <g transform="translate(295.81277 125.540121)scale(0.1 -0.1)">
      <use xlink:href="#DejaVuSans-8722"/>
      <use x="83.789062" xlink:href="#DejaVuSans-48"/>
      <use x="147.412109" xlink:href="#DejaVuSans-46"/>
      <use x="179.199219" xlink:href="#DejaVuSans-53"/>
      <use x="242.822266" xlink:href="#DejaVuSans-48"/>
     </g>
    </g>
   </g>
   <g id="xtick_20">
    <g id="line2d_23">
     <path d="M 292.949055 113.026639 
L 297.064049 113.761006 
" style="fill:none;stroke:#000000;stroke-linecap:square;stroke-width:0.8;"/>
    </g>
    <g id="text_23">
     <!-- −0.25 -->
     <g transform="translate(297.01444 116.60776)scale(0.1 -0.1)">
      <use xlink:href="#DejaVuSans-8722"/>
      <use x="83.789062" xlink:href="#DejaVuSans-48"/>
      <use x="147.412109" xlink:href="#DejaVuSans-46"/>
      <use x="179.199219" xlink:href="#DejaVuSans-50"/>
      <use x="242.822266" xlink:href="#DejaVuSans-53"/>
     </g>
    </g>
   </g>
   <g id="xtick_21">
    <g id="line2d_24">
     <path d="M 293.997732 103.940774 
L 298.151213 104.677103 
" style="fill:none;stroke:#000000;stroke-linecap:square;stroke-width:0.8;"/>
    </g>
    <g id="text_24">
     <!-- 0.00 -->
     <g transform="translate(302.428031 107.511287)scale(0.1 -0.1)">
      <use xlink:href="#DejaVuSans-48"/>
      <use x="63.623047" xlink:href="#DejaVuSans-46"/>
      <use x="95.410156" xlink:href="#DejaVuSans-48"/>
      <use x="159.033203" xlink:href="#DejaVuSans-48"/>
     </g>
    </g>
   </g>
   <g id="xtick_22">
    <g id="line2d_25">
     <path d="M 295.065911 94.685934 
L 299.258605 95.424171 
" style="fill:none;stroke:#000000;stroke-linecap:square;stroke-width:0.8;"/>
    </g>
    <g id="text_25">
     <!-- 0.25 -->
     <g transform="translate(303.674471 98.246137)scale(0.1 -0.1)">
      <use xlink:href="#DejaVuSans-48"/>
      <use x="63.623047" xlink:href="#DejaVuSans-46"/>
      <use x="95.410156" xlink:href="#DejaVuSans-50"/>
      <use x="159.033203" xlink:href="#DejaVuSans-53"/>
     </g>
    </g>
   </g>
   <g id="xtick_23">
    <g id="line2d_26">
     <path d="M 296.154142 85.257362 
L 300.386797 85.99745 
" style="fill:none;stroke:#000000;stroke-linecap:square;stroke-width:0.8;"/>
    </g>
    <g id="text_26">
     <!-- 0.50 -->
     <g transform="translate(304.944241 88.807573)scale(0.1 -0.1)">
      <use xlink:href="#DejaVuSans-48"/>
      <use x="63.623047" xlink:href="#DejaVuSans-46"/>
      <use x="95.410156" xlink:href="#DejaVuSans-53"/>
      <use x="159.033203" xlink:href="#DejaVuSans-48"/>
     </g>
    </g>
   </g>
   <g id="xtick_24">
    <g id="line2d_27">
     <path d="M 297.262995 75.650119 
L 301.536379 76.391996 
" style="fill:none;stroke:#000000;stroke-linecap:square;stroke-width:0.8;"/>
    </g>
    <g id="text_27">
     <!-- 0.75 -->
     <g transform="translate(306.238001 79.190682)scale(0.1 -0.1)">
      <use xlink:href="#DejaVuSans-48"/>
      <use x="63.623047" xlink:href="#DejaVuSans-46"/>
      <use x="95.410156" xlink:href="#DejaVuSans-55"/>
      <use x="159.033203" xlink:href="#DejaVuSans-53"/>
     </g>
    </g>
   </g>
   <g id="xtick_25">
    <g id="line2d_28">
     <path d="M 298.393062 65.859079 
L 302.707966 66.602677 
" style="fill:none;stroke:#000000;stroke-linecap:square;stroke-width:0.8;"/>
    </g>
    <g id="text_28">
     <!-- 1.00 -->
     <g transform="translate(307.556437 69.390361)scale(0.1 -0.1)">
      <use xlink:href="#DejaVuSans-49"/>
      <use x="63.623047" xlink:href="#DejaVuSans-46"/>
      <use x="95.410156" xlink:href="#DejaVuSans-48"/>
      <use x="159.033203" xlink:href="#DejaVuSans-48"/>
     </g>
    </g>
   </g>
   <g id="xtick_26">
    <g id="line2d_29">
     <path d="M 299.544957 55.878915 
L 303.902197 56.624163 
" style="fill:none;stroke:#000000;stroke-linecap:square;stroke-width:0.8;"/>
    </g>
    <g id="text_29">
     <!-- 1.25 -->
     <g transform="translate(308.900263 59.401311)scale(0.1 -0.1)">
      <use xlink:href="#DejaVuSans-49"/>
      <use x="63.623047" xlink:href="#DejaVuSans-46"/>
      <use x="95.410156" xlink:href="#DejaVuSans-50"/>
      <use x="159.033203" xlink:href="#DejaVuSans-53"/>
     </g>
    </g>
   </g>
   <g id="xtick_27">
    <g id="line2d_30">
     <path d="M 300.719319 45.704094 
L 305.119733 46.450916 
" style="fill:none;stroke:#000000;stroke-linecap:square;stroke-width:0.8;"/>
    </g>
    <g id="text_30">
     <!-- 1.50 -->
     <g transform="translate(310.270219 49.218029)scale(0.1 -0.1)">
      <use xlink:href="#DejaVuSans-49"/>
      <use x="63.623047" xlink:href="#DejaVuSans-46"/>
      <use x="95.410156" xlink:href="#DejaVuSans-53"/>
      <use x="159.033203" xlink:href="#DejaVuSans-48"/>
     </g>
    </g>
   </g>
  </g>
  <g id="axes_1">
   <g id="Poly3DCollection_1">
    <path clip-path="url(#pdfb6980be9)" d="M 121.683849 145.016506 
L 153.117402 103.399582 
L 235.492277 118.264074 
z
" style="fill:#1f77b4;stroke:#000000;"/>
    <path clip-path="url(#pdfb6980be9)" d="M 153.117402 103.399582 
L 237.672105 80.329187 
L 235.492277 118.264074 
z
" style="fill:#1f77b4;stroke:#000000;"/>
    <path clip-path="url(#pdfb6980be9)" d="M 121.683849 145.016506 
L 152.122717 65.312564 
L 153.117402 103.399582 
z
" style="fill:#1f77b4;stroke:#000000;"/>
    <path clip-path="url(#pdfb6980be9)" d="M 121.683849 145.016506 
L 235.492277 118.264074 
L 206.204113 160.788701 
z
" style="fill:#1f77b4;stroke:#000000;"/>
    <path clip-path="url(#pdfb6980be9)" d="M 153.117402 103.399582 
L 152.122717 65.312564 
L 237.672105 80.329187 
z
" style="fill:#1f77b4;stroke:#000000;"/>
    <path clip-path="url(#pdfb6980be9)" d="M 206.204113 160.788701 
L 235.492277 118.264074 
L 237.672105 80.329187 
z
" style="fill:#1f77b4;stroke:#000000;"/>
    <path clip-path="url(#pdfb6980be9)" d="M 121.683849 145.016506 
L 119.418613 107.386375 
L 152.122717 65.312564 
z
" style="fill:#1f77b4;stroke:#000000;"/>
    <path clip-path="url(#pdfb6980be9)" d="M 121.683849 145.016506 
L 206.204113 160.788701 
L 207.284262 123.356922 
z
" style="fill:#1f77b4;stroke:#000000;"/>
    <path clip-path="url(#pdfb6980be9)" d="M 119.418613 107.386375 
L 237.672105 80.329187 
L 152.122717 65.312564 
z
" style="fill:#1f77b4;stroke:#000000;"/>
    <path clip-path="url(#pdfb6980be9)" d="M 206.204113 160.788701 
L 237.672105 80.329187 
L 207.284262 123.356922 
z
" style="fill:#1f77b4;stroke:#000000;"/>
    <path clip-path="url(#pdfb6980be9)" d="M 121.683849 145.016506 
L 207.284262 123.356922 
L 119.418613 107.386375 
z
" style="fill:#1f77b4;stroke:#000000;"/>
    <path clip-path="url(#pdfb6980be9)" d="M 119.418613 107.386375 
L 207.284262 123.356922 
L 237.672105 80.329187 
z
" style="fill:#1f77b4;stroke:#000000;"/>
   </g>
  </g>
 </g>
 <defs>
  <clipPath id="pdfb6980be9">
   <rect height="217.44" width="334.8" x="7.2" y="7.2"/>
  </clipPath>
 </defs>
</svg>
