<?xml version="1.0" encoding="utf-8" standalone="no"?>
<!DOCTYPE svg PUBLIC "-//W3C//DTD SVG 1.1//EN"
  "http://www.w3.org/Graphics/SVG/1.1/DTD/svg11.dtd">
<svg xmlns:xlink="http://www.w3.org/1999/xlink" width="607.820312pt" height="267.84163pt" viewBox="0 0 607.820312 267.84163" xmlns="http://www.w3.org/2000/svg" version="1.1">
 <metadata>
  <rdf:RDF xmlns:dc="http://purl.org/dc/elements/1.1/" xmlns:cc="http://creativecommons.org/ns#" xmlns:rdf="http://www.w3.org/1999/02/22-rdf-syntax-ns#">
   <cc:Work>
    <dc:type rdf:resource="http://purl.org/dc/dcmitype/StillImage"/>
    <dc:date>2023-10-05T16:29:49.037708</dc:date>
    <dc:format>image/svg+xml</dc:format>
    <dc:creator>
     <cc:Agent>
      <dc:title>Matplotlib v3.7.1, https://matplotlib.org/</dc:title>
     </cc:Agent>
    </dc:creator>
   </cc:Work>
  </rdf:RDF>
 </metadata>
 <defs>
  <style type="text/css">*{stroke-linejoin: round; stroke-linecap: butt}</style>
 </defs>
 <g id="figure_1">
  <g id="patch_1">
   <path d="M 0 267.84163 
L 607.820312 267.84163 
L 607.820312 0 
L 0 0 
z
" style="fill: #ffffff"/>
  </g>
  <g id="axes_1">
   <g id="patch_2">
    <path d="M 42.620312 230.28538 
L 296.256676 230.28538 
L 296.256676 8.52538 
L 42.620312 8.52538 
z
" style="fill: #ffffff"/>
   </g>
   <g id="matplotlib.axis_1">
    <g id="xtick_1">
     <g id="line2d_1">
      <defs>
       <path id="m336a903026" d="M 0 0 
L 0 3.5 
" style="stroke: #000000; stroke-width: 0.8"/>
      </defs>
      <g>
       <use xlink:href="#m336a903026" x="89.616785" y="230.28538" style="stroke: #000000; stroke-width: 0.8"/>
      </g>
     </g>
     <g id="text_1">
      <!-- −0.1 -->
      <g transform="translate(77.475378 244.883818) scale(0.1 -0.1)">
       <defs>
        <path id="DejaVuSans-2212" d="M 678 2272 
L 4684 2272 
L 4684 1741 
L 678 1741 
L 678 2272 
z
" transform="scale(0.015625)"/>
        <path id="DejaVuSans-30" d="M 2034 4250 
Q 1547 4250 1301 3770 
Q 1056 3291 1056 2328 
Q 1056 1369 1301 889 
Q 1547 409 2034 409 
Q 2525 409 2770 889 
Q 3016 1369 3016 2328 
Q 3016 3291 2770 3770 
Q 2525 4250 2034 4250 
z
M 2034 4750 
Q 2819 4750 3233 4129 
Q 3647 3509 3647 2328 
Q 3647 1150 3233 529 
Q 2819 -91 2034 -91 
Q 1250 -91 836 529 
Q 422 1150 422 2328 
Q 422 3509 836 4129 
Q 1250 4750 2034 4750 
z
" transform="scale(0.015625)"/>
        <path id="DejaVuSans-2e" d="M 684 794 
L 1344 794 
L 1344 0 
L 684 0 
L 684 794 
z
" transform="scale(0.015625)"/>
        <path id="DejaVuSans-31" d="M 794 531 
L 1825 531 
L 1825 4091 
L 703 3866 
L 703 4441 
L 1819 4666 
L 2450 4666 
L 2450 531 
L 3481 531 
L 3481 0 
L 794 0 
L 794 531 
z
" transform="scale(0.015625)"/>
       </defs>
       <use xlink:href="#DejaVuSans-2212"/>
       <use xlink:href="#DejaVuSans-30" x="83.789062"/>
       <use xlink:href="#DejaVuSans-2e" x="147.412109"/>
       <use xlink:href="#DejaVuSans-31" x="179.199219"/>
      </g>
     </g>
    </g>
    <g id="xtick_2">
     <g id="line2d_2">
      <g>
       <use xlink:href="#m336a903026" x="148.615432" y="230.28538" style="stroke: #000000; stroke-width: 0.8"/>
      </g>
     </g>
     <g id="text_2">
      <!-- 0.0 -->
      <g transform="translate(140.663869 244.883818) scale(0.1 -0.1)">
       <use xlink:href="#DejaVuSans-30"/>
       <use xlink:href="#DejaVuSans-2e" x="63.623047"/>
       <use xlink:href="#DejaVuSans-30" x="95.410156"/>
      </g>
     </g>
    </g>
    <g id="xtick_3">
     <g id="line2d_3">
      <g>
       <use xlink:href="#m336a903026" x="207.614079" y="230.28538" style="stroke: #000000; stroke-width: 0.8"/>
      </g>
     </g>
     <g id="text_3">
      <!-- 0.1 -->
      <g transform="translate(199.662516 244.883818) scale(0.1 -0.1)">
       <use xlink:href="#DejaVuSans-30"/>
       <use xlink:href="#DejaVuSans-2e" x="63.623047"/>
       <use xlink:href="#DejaVuSans-31" x="95.410156"/>
      </g>
     </g>
    </g>
    <g id="xtick_4">
     <g id="line2d_4">
      <g>
       <use xlink:href="#m336a903026" x="266.612726" y="230.28538" style="stroke: #000000; stroke-width: 0.8"/>
      </g>
     </g>
     <g id="text_4">
      <!-- 0.2 -->
      <g transform="translate(258.661163 244.883818) scale(0.1 -0.1)">
       <defs>
        <path id="DejaVuSans-32" d="M 1228 531 
L 3431 531 
L 3431 0 
L 469 0 
L 469 531 
Q 828 903 1448 1529 
Q 2069 2156 2228 2338 
Q 2531 2678 2651 2914 
Q 2772 3150 2772 3378 
Q 2772 3750 2511 3984 
Q 2250 4219 1831 4219 
Q 1534 4219 1204 4116 
Q 875 4013 500 3803 
L 500 4441 
Q 881 4594 1212 4672 
Q 1544 4750 1819 4750 
Q 2544 4750 2975 4387 
Q 3406 4025 3406 3419 
Q 3406 3131 3298 2873 
Q 3191 2616 2906 2266 
Q 2828 2175 2409 1742 
Q 1991 1309 1228 531 
z
" transform="scale(0.015625)"/>
       </defs>
       <use xlink:href="#DejaVuSans-30"/>
       <use xlink:href="#DejaVuSans-2e" x="63.623047"/>
       <use xlink:href="#DejaVuSans-32" x="95.410156"/>
      </g>
     </g>
    </g>
    <g id="text_5">
     <!-- x -->
     <g transform="translate(166.479119 258.561943) scale(0.1 -0.1)">
      <defs>
       <path id="DejaVuSans-78" d="M 3513 3500 
L 2247 1797 
L 3578 0 
L 2900 0 
L 1881 1375 
L 863 0 
L 184 0 
L 1544 1831 
L 300 3500 
L 978 3500 
L 1906 2253 
L 2834 3500 
L 3513 3500 
z
" transform="scale(0.015625)"/>
      </defs>
      <use xlink:href="#DejaVuSans-78"/>
     </g>
    </g>
   </g>
   <g id="matplotlib.axis_2">
    <g id="ytick_1">
     <g id="line2d_5">
      <defs>
       <path id="m0366678036" d="M 0 0 
L -3.5 0 
" style="stroke: #000000; stroke-width: 0.8"/>
      </defs>
      <g>
       <use xlink:href="#m0366678036" x="42.620312" y="193.611116" style="stroke: #000000; stroke-width: 0.8"/>
      </g>
     </g>
     <g id="text_6">
      <!-- −2 -->
      <g transform="translate(20.878125 197.410334) scale(0.1 -0.1)">
       <use xlink:href="#DejaVuSans-2212"/>
       <use xlink:href="#DejaVuSans-32" x="83.789062"/>
      </g>
     </g>
    </g>
    <g id="ytick_2">
     <g id="line2d_6">
      <g>
       <use xlink:href="#m0366678036" x="42.620312" y="147.958141" style="stroke: #000000; stroke-width: 0.8"/>
      </g>
     </g>
     <g id="text_7">
      <!-- −1 -->
      <g transform="translate(20.878125 151.75736) scale(0.1 -0.1)">
       <use xlink:href="#DejaVuSans-2212"/>
       <use xlink:href="#DejaVuSans-31" x="83.789062"/>
      </g>
     </g>
    </g>
    <g id="ytick_3">
     <g id="line2d_7">
      <g>
       <use xlink:href="#m0366678036" x="42.620312" y="102.305167" style="stroke: #000000; stroke-width: 0.8"/>
      </g>
     </g>
     <g id="text_8">
      <!-- 0 -->
      <g transform="translate(29.257812 106.104386) scale(0.1 -0.1)">
       <use xlink:href="#DejaVuSans-30"/>
      </g>
     </g>
    </g>
    <g id="ytick_4">
     <g id="line2d_8">
      <g>
       <use xlink:href="#m0366678036" x="42.620312" y="56.652193" style="stroke: #000000; stroke-width: 0.8"/>
      </g>
     </g>
     <g id="text_9">
      <!-- 1 -->
      <g transform="translate(29.257812 60.451412) scale(0.1 -0.1)">
       <use xlink:href="#DejaVuSans-31"/>
      </g>
     </g>
    </g>
    <g id="ytick_5">
     <g id="line2d_9">
      <g>
       <use xlink:href="#m0366678036" x="42.620312" y="10.999219" style="stroke: #000000; stroke-width: 0.8"/>
      </g>
     </g>
     <g id="text_10">
      <!-- 2 -->
      <g transform="translate(29.257812 14.798437) scale(0.1 -0.1)">
       <use xlink:href="#DejaVuSans-32"/>
      </g>
     </g>
    </g>
    <g id="text_11">
     <!-- y -->
     <g transform="translate(14.798437 122.364755) rotate(-90) scale(0.1 -0.1)">
      <defs>
       <path id="DejaVuSans-79" d="M 2059 -325 
Q 1816 -950 1584 -1140 
Q 1353 -1331 966 -1331 
L 506 -1331 
L 506 -850 
L 844 -850 
Q 1081 -850 1212 -737 
Q 1344 -625 1503 -206 
L 1606 56 
L 191 3500 
L 800 3500 
L 1894 763 
L 2988 3500 
L 3597 3500 
L 2059 -325 
z
" transform="scale(0.015625)"/>
      </defs>
      <use xlink:href="#DejaVuSans-79"/>
     </g>
    </g>
   </g>
   <g id="line2d_10">
    <path d="M 148.615432 102.305167 
L 178.114755 79.47868 
L 204.664146 60.05334 
L 227.821115 44.259693 
L 247.250107 32.228765 
L 262.723977 23.994968 
L 274.122811 19.501131 
L 281.430277 18.60538 
L 284.727751 21.08962 
L 284.186479 26.669296 
L 280.058094 35.004146 
L 272.663798 45.709617 
L 262.382551 58.368639 
L 249.638615 72.543458 
L 234.888772 87.787242 
L 218.609549 103.6552 
L 201.284745 119.714981 
L 183.393548 135.556148 
L 165.399468 150.798561 
L 147.740323 165.099538 
L 130.819429 178.159694 
L 114.998147 189.7274 
L 100.589865 199.60185 
L 87.855489 207.634732 
L 77.000442 213.730557 
L 68.173159 217.845724 
L 61.465027 219.986403 
L 56.911667 220.20538 
L 54.495471 218.597981 
L 54.149238 215.297237 
L 55.760766 210.468457 
L 59.17823 204.303351 
L 64.216172 197.013901 
L 70.661929 188.826108 
L 78.282309 179.973792 
L 86.830356 170.692584 
L 96.052027 161.214237 
L 105.692632 151.761369 
L 115.502906 142.542746 
L 125.244579 133.749173 
L 134.695349 125.550065 
L 143.653182 118.090727 
L 151.939867 111.490366 
L 159.403792 105.840853 
L 165.921928 101.206191 
L 171.401009 97.622689 
L 175.77794 95.099772 
L 179.019471 93.621381 
L 181.121172 93.147891 
L 182.105804 93.618476 
L 182.021128 94.95382 
L 180.937271 97.059118 
L 178.943708 99.827247 
L 176.145979 103.14205 
L 172.662219 106.881622 
L 168.619601 110.921547 
L 164.150782 115.137985 
L 159.390429 119.410571 
L 154.471914 123.625048 
L 149.524237 127.6756 
L 144.669237 131.466843 
L 140.019141 134.915449 
L 135.674492 137.951387 
L 131.72248 140.518773 
L 128.235679 142.576335 
L 125.271222 144.097503 
L 122.870379 145.070148 
L 121.058543 145.49599 
L 119.845588 145.389723 
L 119.226577 144.777873 
L 119.182772 143.69746 
L 119.682917 142.194479 
L 120.684733 140.32227 
L 122.136587 138.139808 
L 123.979278 135.709966 
L 126.147902 133.097786 
L 128.573726 130.36881 
L 131.186055 127.587496 
L 133.914016 124.815754 
L 136.688255 122.111637 
L 139.442481 119.528195 
L 142.114851 117.11252 
L 144.649169 114.904997 
L 146.99587 112.938741 
L 149.112796 111.239263 
L 150.965744 109.824315 
L 152.528796 108.703945 
L 153.784432 107.880717 
L 154.723435 107.350107 
L 155.344611 107.101035 
L 155.654328 107.116521 
L 155.665912 107.374444 
L 155.398911 107.848375 
L 154.878254 108.50846 
L 154.133338 109.322336 
L 153.19706 110.256042 
L 152.104832 111.274922 
L 150.893587 112.344484 
L 149.600813 113.431208 
L 148.263636 114.503273 
L 146.917961 115.531213 
" clip-path="url(#pc3e786c110)" style="fill: none; stroke: #1f77b4; stroke-width: 1.5; stroke-linecap: square"/>
   </g>
   <g id="patch_3">
    <path d="M 42.620312 230.28538 
L 42.620312 8.52538 
" style="fill: none; stroke: #000000; stroke-width: 0.8; stroke-linejoin: miter; stroke-linecap: square"/>
   </g>
   <g id="patch_4">
    <path d="M 296.256676 230.28538 
L 296.256676 8.52538 
" style="fill: none; stroke: #000000; stroke-width: 0.8; stroke-linejoin: miter; stroke-linecap: square"/>
   </g>
   <g id="patch_5">
    <path d="M 42.620313 230.28538 
L 296.256676 230.28538 
" style="fill: none; stroke: #000000; stroke-width: 0.8; stroke-linejoin: miter; stroke-linecap: square"/>
   </g>
   <g id="patch_6">
    <path d="M 42.620313 8.52538 
L 296.256676 8.52538 
" style="fill: none; stroke: #000000; stroke-width: 0.8; stroke-linejoin: miter; stroke-linecap: square"/>
   </g>
   <g id="legend_1">
    <g id="patch_7">
     <path d="M 49.620312 31.203505 
L 217.234375 31.203505 
Q 219.234375 31.203505 219.234375 29.203505 
L 219.234375 15.52538 
Q 219.234375 13.52538 217.234375 13.52538 
L 49.620312 13.52538 
Q 47.620312 13.52538 47.620312 15.52538 
L 47.620312 29.203505 
Q 47.620312 31.203505 49.620312 31.203505 
z
" style="fill: #ffffff; opacity: 0.8; stroke: #cccccc; stroke-linejoin: miter"/>
    </g>
    <g id="line2d_11">
     <path d="M 51.620312 21.623818 
L 61.620312 21.623818 
L 71.620312 21.623818 
" style="fill: none; stroke: #1f77b4; stroke-width: 1.5; stroke-linecap: square"/>
    </g>
    <g id="text_12">
     <!-- Euler, PID(10,3,2), dt=0.05 -->
     <g transform="translate(79.620312 25.123818) scale(0.1 -0.1)">
      <defs>
       <path id="DejaVuSans-45" d="M 628 4666 
L 3578 4666 
L 3578 4134 
L 1259 4134 
L 1259 2753 
L 3481 2753 
L 3481 2222 
L 1259 2222 
L 1259 531 
L 3634 531 
L 3634 0 
L 628 0 
L 628 4666 
z
" transform="scale(0.015625)"/>
       <path id="DejaVuSans-75" d="M 544 1381 
L 544 3500 
L 1119 3500 
L 1119 1403 
Q 1119 906 1312 657 
Q 1506 409 1894 409 
Q 2359 409 2629 706 
Q 2900 1003 2900 1516 
L 2900 3500 
L 3475 3500 
L 3475 0 
L 2900 0 
L 2900 538 
Q 2691 219 2414 64 
Q 2138 -91 1772 -91 
Q 1169 -91 856 284 
Q 544 659 544 1381 
z
M 1991 3584 
L 1991 3584 
z
" transform="scale(0.015625)"/>
       <path id="DejaVuSans-6c" d="M 603 4863 
L 1178 4863 
L 1178 0 
L 603 0 
L 603 4863 
z
" transform="scale(0.015625)"/>
       <path id="DejaVuSans-65" d="M 3597 1894 
L 3597 1613 
L 953 1613 
Q 991 1019 1311 708 
Q 1631 397 2203 397 
Q 2534 397 2845 478 
Q 3156 559 3463 722 
L 3463 178 
Q 3153 47 2828 -22 
Q 2503 -91 2169 -91 
Q 1331 -91 842 396 
Q 353 884 353 1716 
Q 353 2575 817 3079 
Q 1281 3584 2069 3584 
Q 2775 3584 3186 3129 
Q 3597 2675 3597 1894 
z
M 3022 2063 
Q 3016 2534 2758 2815 
Q 2500 3097 2075 3097 
Q 1594 3097 1305 2825 
Q 1016 2553 972 2059 
L 3022 2063 
z
" transform="scale(0.015625)"/>
       <path id="DejaVuSans-72" d="M 2631 2963 
Q 2534 3019 2420 3045 
Q 2306 3072 2169 3072 
Q 1681 3072 1420 2755 
Q 1159 2438 1159 1844 
L 1159 0 
L 581 0 
L 581 3500 
L 1159 3500 
L 1159 2956 
Q 1341 3275 1631 3429 
Q 1922 3584 2338 3584 
Q 2397 3584 2469 3576 
Q 2541 3569 2628 3553 
L 2631 2963 
z
" transform="scale(0.015625)"/>
       <path id="DejaVuSans-2c" d="M 750 794 
L 1409 794 
L 1409 256 
L 897 -744 
L 494 -744 
L 750 256 
L 750 794 
z
" transform="scale(0.015625)"/>
       <path id="DejaVuSans-20" transform="scale(0.015625)"/>
       <path id="DejaVuSans-50" d="M 1259 4147 
L 1259 2394 
L 2053 2394 
Q 2494 2394 2734 2622 
Q 2975 2850 2975 3272 
Q 2975 3691 2734 3919 
Q 2494 4147 2053 4147 
L 1259 4147 
z
M 628 4666 
L 2053 4666 
Q 2838 4666 3239 4311 
Q 3641 3956 3641 3272 
Q 3641 2581 3239 2228 
Q 2838 1875 2053 1875 
L 1259 1875 
L 1259 0 
L 628 0 
L 628 4666 
z
" transform="scale(0.015625)"/>
       <path id="DejaVuSans-49" d="M 628 4666 
L 1259 4666 
L 1259 0 
L 628 0 
L 628 4666 
z
" transform="scale(0.015625)"/>
       <path id="DejaVuSans-44" d="M 1259 4147 
L 1259 519 
L 2022 519 
Q 2988 519 3436 956 
Q 3884 1394 3884 2338 
Q 3884 3275 3436 3711 
Q 2988 4147 2022 4147 
L 1259 4147 
z
M 628 4666 
L 1925 4666 
Q 3281 4666 3915 4102 
Q 4550 3538 4550 2338 
Q 4550 1131 3912 565 
Q 3275 0 1925 0 
L 628 0 
L 628 4666 
z
" transform="scale(0.015625)"/>
       <path id="DejaVuSans-28" d="M 1984 4856 
Q 1566 4138 1362 3434 
Q 1159 2731 1159 2009 
Q 1159 1288 1364 580 
Q 1569 -128 1984 -844 
L 1484 -844 
Q 1016 -109 783 600 
Q 550 1309 550 2009 
Q 550 2706 781 3412 
Q 1013 4119 1484 4856 
L 1984 4856 
z
" transform="scale(0.015625)"/>
       <path id="DejaVuSans-33" d="M 2597 2516 
Q 3050 2419 3304 2112 
Q 3559 1806 3559 1356 
Q 3559 666 3084 287 
Q 2609 -91 1734 -91 
Q 1441 -91 1130 -33 
Q 819 25 488 141 
L 488 750 
Q 750 597 1062 519 
Q 1375 441 1716 441 
Q 2309 441 2620 675 
Q 2931 909 2931 1356 
Q 2931 1769 2642 2001 
Q 2353 2234 1838 2234 
L 1294 2234 
L 1294 2753 
L 1863 2753 
Q 2328 2753 2575 2939 
Q 2822 3125 2822 3475 
Q 2822 3834 2567 4026 
Q 2313 4219 1838 4219 
Q 1578 4219 1281 4162 
Q 984 4106 628 3988 
L 628 4550 
Q 988 4650 1302 4700 
Q 1616 4750 1894 4750 
Q 2613 4750 3031 4423 
Q 3450 4097 3450 3541 
Q 3450 3153 3228 2886 
Q 3006 2619 2597 2516 
z
" transform="scale(0.015625)"/>
       <path id="DejaVuSans-29" d="M 513 4856 
L 1013 4856 
Q 1481 4119 1714 3412 
Q 1947 2706 1947 2009 
Q 1947 1309 1714 600 
Q 1481 -109 1013 -844 
L 513 -844 
Q 928 -128 1133 580 
Q 1338 1288 1338 2009 
Q 1338 2731 1133 3434 
Q 928 4138 513 4856 
z
" transform="scale(0.015625)"/>
       <path id="DejaVuSans-64" d="M 2906 2969 
L 2906 4863 
L 3481 4863 
L 3481 0 
L 2906 0 
L 2906 525 
Q 2725 213 2448 61 
Q 2172 -91 1784 -91 
Q 1150 -91 751 415 
Q 353 922 353 1747 
Q 353 2572 751 3078 
Q 1150 3584 1784 3584 
Q 2172 3584 2448 3432 
Q 2725 3281 2906 2969 
z
M 947 1747 
Q 947 1113 1208 752 
Q 1469 391 1925 391 
Q 2381 391 2643 752 
Q 2906 1113 2906 1747 
Q 2906 2381 2643 2742 
Q 2381 3103 1925 3103 
Q 1469 3103 1208 2742 
Q 947 2381 947 1747 
z
" transform="scale(0.015625)"/>
       <path id="DejaVuSans-74" d="M 1172 4494 
L 1172 3500 
L 2356 3500 
L 2356 3053 
L 1172 3053 
L 1172 1153 
Q 1172 725 1289 603 
Q 1406 481 1766 481 
L 2356 481 
L 2356 0 
L 1766 0 
Q 1100 0 847 248 
Q 594 497 594 1153 
L 594 3053 
L 172 3053 
L 172 3500 
L 594 3500 
L 594 4494 
L 1172 4494 
z
" transform="scale(0.015625)"/>
       <path id="DejaVuSans-3d" d="M 678 2906 
L 4684 2906 
L 4684 2381 
L 678 2381 
L 678 2906 
z
M 678 1631 
L 4684 1631 
L 4684 1100 
L 678 1100 
L 678 1631 
z
" transform="scale(0.015625)"/>
       <path id="DejaVuSans-35" d="M 691 4666 
L 3169 4666 
L 3169 4134 
L 1269 4134 
L 1269 2991 
Q 1406 3038 1543 3061 
Q 1681 3084 1819 3084 
Q 2600 3084 3056 2656 
Q 3513 2228 3513 1497 
Q 3513 744 3044 326 
Q 2575 -91 1722 -91 
Q 1428 -91 1123 -41 
Q 819 9 494 109 
L 494 744 
Q 775 591 1075 516 
Q 1375 441 1709 441 
Q 2250 441 2565 725 
Q 2881 1009 2881 1497 
Q 2881 1984 2565 2268 
Q 2250 2553 1709 2553 
Q 1456 2553 1204 2497 
Q 953 2441 691 2322 
L 691 4666 
z
" transform="scale(0.015625)"/>
      </defs>
      <use xlink:href="#DejaVuSans-45"/>
      <use xlink:href="#DejaVuSans-75" x="63.183594"/>
      <use xlink:href="#DejaVuSans-6c" x="126.5625"/>
      <use xlink:href="#DejaVuSans-65" x="154.345703"/>
      <use xlink:href="#DejaVuSans-72" x="215.869141"/>
      <use xlink:href="#DejaVuSans-2c" x="256.982422"/>
      <use xlink:href="#DejaVuSans-20" x="288.769531"/>
      <use xlink:href="#DejaVuSans-50" x="320.556641"/>
      <use xlink:href="#DejaVuSans-49" x="380.859375"/>
      <use xlink:href="#DejaVuSans-44" x="410.351562"/>
      <use xlink:href="#DejaVuSans-28" x="487.353516"/>
      <use xlink:href="#DejaVuSans-31" x="526.367188"/>
      <use xlink:href="#DejaVuSans-30" x="589.990234"/>
      <use xlink:href="#DejaVuSans-2c" x="653.613281"/>
      <use xlink:href="#DejaVuSans-33" x="685.400391"/>
      <use xlink:href="#DejaVuSans-2c" x="749.023438"/>
      <use xlink:href="#DejaVuSans-32" x="780.810547"/>
      <use xlink:href="#DejaVuSans-29" x="844.433594"/>
      <use xlink:href="#DejaVuSans-2c" x="883.447266"/>
      <use xlink:href="#DejaVuSans-20" x="915.234375"/>
      <use xlink:href="#DejaVuSans-64" x="947.021484"/>
      <use xlink:href="#DejaVuSans-74" x="1010.498047"/>
      <use xlink:href="#DejaVuSans-3d" x="1049.707031"/>
      <use xlink:href="#DejaVuSans-30" x="1133.496094"/>
      <use xlink:href="#DejaVuSans-2e" x="1197.119141"/>
      <use xlink:href="#DejaVuSans-30" x="1228.90625"/>
      <use xlink:href="#DejaVuSans-35" x="1292.529297"/>
     </g>
    </g>
   </g>
  </g>
  <g id="axes_2">
   <g id="patch_8">
    <path d="M 346.983949 230.28538 
L 600.620312 230.28538 
L 600.620312 8.52538 
L 346.983949 8.52538 
z
" style="fill: #ffffff"/>
   </g>
   <g id="matplotlib.axis_3">
    <g id="xtick_5">
     <g id="line2d_12">
      <g>
       <use xlink:href="#m336a903026" x="358.512874" y="230.28538" style="stroke: #000000; stroke-width: 0.8"/>
      </g>
     </g>
     <g id="text_13">
      <!-- 0 -->
      <g transform="translate(355.331624 244.883818) scale(0.1 -0.1)">
       <use xlink:href="#DejaVuSans-30"/>
      </g>
     </g>
    </g>
    <g id="xtick_6">
     <g id="line2d_13">
      <g>
       <use xlink:href="#m336a903026" x="405.094392" y="230.28538" style="stroke: #000000; stroke-width: 0.8"/>
      </g>
     </g>
     <g id="text_14">
      <!-- 1 -->
      <g transform="translate(401.913142 244.883818) scale(0.1 -0.1)">
       <use xlink:href="#DejaVuSans-31"/>
      </g>
     </g>
    </g>
    <g id="xtick_7">
     <g id="line2d_14">
      <g>
       <use xlink:href="#m336a903026" x="451.67591" y="230.28538" style="stroke: #000000; stroke-width: 0.8"/>
      </g>
     </g>
     <g id="text_15">
      <!-- 2 -->
      <g transform="translate(448.49466 244.883818) scale(0.1 -0.1)">
       <use xlink:href="#DejaVuSans-32"/>
      </g>
     </g>
    </g>
    <g id="xtick_8">
     <g id="line2d_15">
      <g>
       <use xlink:href="#m336a903026" x="498.257427" y="230.28538" style="stroke: #000000; stroke-width: 0.8"/>
      </g>
     </g>
     <g id="text_16">
      <!-- 3 -->
      <g transform="translate(495.076177 244.883818) scale(0.1 -0.1)">
       <use xlink:href="#DejaVuSans-33"/>
      </g>
     </g>
    </g>
    <g id="xtick_9">
     <g id="line2d_16">
      <g>
       <use xlink:href="#m336a903026" x="544.838945" y="230.28538" style="stroke: #000000; stroke-width: 0.8"/>
      </g>
     </g>
     <g id="text_17">
      <!-- 4 -->
      <g transform="translate(541.657695 244.883818) scale(0.1 -0.1)">
       <defs>
        <path id="DejaVuSans-34" d="M 2419 4116 
L 825 1625 
L 2419 1625 
L 2419 4116 
z
M 2253 4666 
L 3047 4666 
L 3047 1625 
L 3713 1625 
L 3713 1100 
L 3047 1100 
L 3047 0 
L 2419 0 
L 2419 1100 
L 313 1100 
L 313 1709 
L 2253 4666 
z
" transform="scale(0.015625)"/>
       </defs>
       <use xlink:href="#DejaVuSans-34"/>
      </g>
     </g>
    </g>
    <g id="xtick_10">
     <g id="line2d_17">
      <g>
       <use xlink:href="#m336a903026" x="591.420463" y="230.28538" style="stroke: #000000; stroke-width: 0.8"/>
      </g>
     </g>
     <g id="text_18">
      <!-- 5 -->
      <g transform="translate(588.239213 244.883818) scale(0.1 -0.1)">
       <use xlink:href="#DejaVuSans-35"/>
      </g>
     </g>
    </g>
    <g id="text_19">
     <!-- t -->
     <g transform="translate(471.841974 258.561943) scale(0.1 -0.1)">
      <use xlink:href="#DejaVuSans-74"/>
     </g>
    </g>
   </g>
   <g id="matplotlib.axis_4">
    <g id="ytick_6">
     <g id="line2d_18">
      <g>
       <use xlink:href="#m0366678036" x="346.983949" y="206.388569" style="stroke: #000000; stroke-width: 0.8"/>
      </g>
     </g>
     <g id="text_20">
      <!-- −20 -->
      <g transform="translate(318.879261 210.187788) scale(0.1 -0.1)">
       <use xlink:href="#DejaVuSans-2212"/>
       <use xlink:href="#DejaVuSans-32" x="83.789062"/>
       <use xlink:href="#DejaVuSans-30" x="147.412109"/>
      </g>
     </g>
    </g>
    <g id="ytick_7">
     <g id="line2d_19">
      <g>
       <use xlink:href="#m0366678036" x="346.983949" y="166.565219" style="stroke: #000000; stroke-width: 0.8"/>
      </g>
     </g>
     <g id="text_21">
      <!-- −10 -->
      <g transform="translate(318.879261 170.364437) scale(0.1 -0.1)">
       <use xlink:href="#DejaVuSans-2212"/>
       <use xlink:href="#DejaVuSans-31" x="83.789062"/>
       <use xlink:href="#DejaVuSans-30" x="147.412109"/>
      </g>
     </g>
    </g>
    <g id="ytick_8">
     <g id="line2d_20">
      <g>
       <use xlink:href="#m0366678036" x="346.983949" y="126.741868" style="stroke: #000000; stroke-width: 0.8"/>
      </g>
     </g>
     <g id="text_22">
      <!-- 0 -->
      <g transform="translate(333.621449 130.541087) scale(0.1 -0.1)">
       <use xlink:href="#DejaVuSans-30"/>
      </g>
     </g>
    </g>
    <g id="ytick_9">
     <g id="line2d_21">
      <g>
       <use xlink:href="#m0366678036" x="346.983949" y="86.918518" style="stroke: #000000; stroke-width: 0.8"/>
      </g>
     </g>
     <g id="text_23">
      <!-- 10 -->
      <g transform="translate(327.258949 90.717736) scale(0.1 -0.1)">
       <use xlink:href="#DejaVuSans-31"/>
       <use xlink:href="#DejaVuSans-30" x="63.623047"/>
      </g>
     </g>
    </g>
    <g id="ytick_10">
     <g id="line2d_22">
      <g>
       <use xlink:href="#m0366678036" x="346.983949" y="47.095167" style="stroke: #000000; stroke-width: 0.8"/>
      </g>
     </g>
     <g id="text_24">
      <!-- 20 -->
      <g transform="translate(327.258949 50.894386) scale(0.1 -0.1)">
       <use xlink:href="#DejaVuSans-32"/>
       <use xlink:href="#DejaVuSans-30" x="63.623047"/>
      </g>
     </g>
    </g>
    <g id="text_25">
     <!-- control -->
     <g transform="translate(312.799574 136.734287) rotate(-90) scale(0.1 -0.1)">
      <defs>
       <path id="DejaVuSans-63" d="M 3122 3366 
L 3122 2828 
Q 2878 2963 2633 3030 
Q 2388 3097 2138 3097 
Q 1578 3097 1268 2742 
Q 959 2388 959 1747 
Q 959 1106 1268 751 
Q 1578 397 2138 397 
Q 2388 397 2633 464 
Q 2878 531 3122 666 
L 3122 134 
Q 2881 22 2623 -34 
Q 2366 -91 2075 -91 
Q 1284 -91 818 406 
Q 353 903 353 1747 
Q 353 2603 823 3093 
Q 1294 3584 2113 3584 
Q 2378 3584 2631 3529 
Q 2884 3475 3122 3366 
z
" transform="scale(0.015625)"/>
       <path id="DejaVuSans-6f" d="M 1959 3097 
Q 1497 3097 1228 2736 
Q 959 2375 959 1747 
Q 959 1119 1226 758 
Q 1494 397 1959 397 
Q 2419 397 2687 759 
Q 2956 1122 2956 1747 
Q 2956 2369 2687 2733 
Q 2419 3097 1959 3097 
z
M 1959 3584 
Q 2709 3584 3137 3096 
Q 3566 2609 3566 1747 
Q 3566 888 3137 398 
Q 2709 -91 1959 -91 
Q 1206 -91 779 398 
Q 353 888 353 1747 
Q 353 2609 779 3096 
Q 1206 3584 1959 3584 
z
" transform="scale(0.015625)"/>
       <path id="DejaVuSans-6e" d="M 3513 2113 
L 3513 0 
L 2938 0 
L 2938 2094 
Q 2938 2591 2744 2837 
Q 2550 3084 2163 3084 
Q 1697 3084 1428 2787 
Q 1159 2491 1159 1978 
L 1159 0 
L 581 0 
L 581 3500 
L 1159 3500 
L 1159 2956 
Q 1366 3272 1645 3428 
Q 1925 3584 2291 3584 
Q 2894 3584 3203 3211 
Q 3513 2838 3513 2113 
z
" transform="scale(0.015625)"/>
      </defs>
      <use xlink:href="#DejaVuSans-63"/>
      <use xlink:href="#DejaVuSans-6f" x="54.980469"/>
      <use xlink:href="#DejaVuSans-6e" x="116.162109"/>
      <use xlink:href="#DejaVuSans-74" x="179.541016"/>
      <use xlink:href="#DejaVuSans-72" x="218.75"/>
      <use xlink:href="#DejaVuSans-6f" x="257.613281"/>
      <use xlink:href="#DejaVuSans-6c" x="318.794922"/>
     </g>
    </g>
   </g>
   <g id="line2d_23">
    <path d="M 358.512874 134.706538 
L 360.84195 135.901239 
L 363.171026 136.80722 
L 365.500102 137.4205 
L 367.829178 137.744263 
L 370.158254 137.788357 
L 372.48733 137.568648 
L 374.816406 137.106288 
L 377.145482 136.426894 
L 379.474557 135.559668 
L 381.803633 134.53649 
L 384.132709 133.391005 
L 386.461785 132.157717 
L 388.790861 130.871119 
L 391.119937 129.564882 
L 393.449013 128.271104 
L 395.778089 127.019645 
L 398.107164 125.837561 
L 400.43624 124.748626 
L 402.765316 123.772973 
L 405.094392 122.926838 
L 407.423468 122.222406 
L 409.752544 121.667774 
L 412.08162 121.267004 
L 414.410696 121.02027 
L 416.739772 120.92409 
L 419.068847 120.971631 
L 421.397923 121.153071 
L 423.726999 121.456012 
L 426.056075 121.865933 
L 428.385151 122.366657 
L 430.714227 122.940839 
L 433.043303 123.570443 
L 435.372379 124.237214 
L 437.701454 124.923119 
L 440.03053 125.610765 
L 442.359606 126.283771 
L 444.688682 126.92709 
L 447.017758 127.52729 
L 449.346834 128.072773 
L 451.67591 128.553935 
L 454.004986 128.963277 
L 456.334062 129.295453 
L 458.663137 129.547266 
L 460.992213 129.717615 
L 463.321289 129.807394 
L 465.650365 129.819349 
L 467.979441 129.757902 
L 470.308517 129.628944 
L 472.637593 129.439609 
L 474.966669 129.198028 
L 477.295745 128.913076 
L 479.62482 128.594117 
L 481.953896 128.250756 
L 484.282972 127.892592 
L 486.612048 127.528995 
L 488.941124 127.168896 
L 491.2702 126.820605 
L 493.599276 126.491647 
L 495.928352 126.188637 
L 498.257427 125.917174 
L 500.586503 125.681772 
L 502.915579 125.48582 
L 505.244655 125.331566 
L 507.573731 125.220138 
L 509.902807 125.15158 
L 512.231883 125.124919 
L 514.560959 125.138251 
L 516.890035 125.188839 
L 519.21911 125.27323 
L 521.548186 125.387382 
L 523.877262 125.526789 
L 526.206338 125.686625 
L 528.535414 125.861868 
L 530.86449 126.047438 
L 533.193566 126.238317 
L 535.522642 126.429664 
L 537.851717 126.616922 
L 540.180793 126.795904 
L 542.509869 126.962873 
L 544.838945 127.114603 
L 547.168021 127.248424 
L 549.497097 127.36225 
L 551.826173 127.454595 
L 554.155249 127.524573 
L 556.484325 127.571877 
L 558.8134 127.59676 
L 561.142476 127.599987 
L 563.471552 127.58279 
L 565.800628 127.546811 
L 568.129704 127.494035 
L 570.45878 127.426727 
L 572.787856 127.347358 
L 575.116932 127.258533 
L 577.446007 127.162927 
L 579.775083 127.06321 
L 582.104159 126.961991 
L 584.433235 126.861754 
L 586.762311 126.764811 
L 589.091387 126.673257 
" clip-path="url(#p1543dd1a13)" style="fill: none; stroke: #1f77b4; stroke-width: 1.5; stroke-linecap: square"/>
   </g>
   <g id="line2d_24">
    <path d="M 358.512874 206.388569 
L 360.84195 214.432886 
L 363.171026 219.004607 
L 365.500102 220.20538 
L 367.829178 218.210489 
L 370.158254 213.260247 
L 372.48733 205.650378 
L 374.816406 195.721663 
L 377.145482 183.849156 
L 379.474557 170.431227 
L 381.803633 155.87873 
L 384.132709 140.604517 
L 386.461785 125.013556 
L 388.790861 109.493815 
L 391.119937 94.408112 
L 393.449013 80.087049 
L 395.778089 66.823139 
L 398.107164 54.866183 
L 400.43624 44.419944 
L 402.765316 35.640108 
L 405.094392 28.633509 
L 407.423468 23.458555 
L 409.752544 20.126775 
L 412.08162 18.60538 
L 414.410696 18.820724 
L 416.739772 20.662511 
L 419.068847 23.988631 
L 421.397923 28.630442 
L 423.726999 34.398364 
L 426.056075 41.087641 
L 428.385151 48.484093 
L 430.714227 56.369767 
L 433.043303 64.528314 
L 435.372379 72.750016 
L 437.701454 80.836348 
L 440.03053 88.604 
L 442.359606 95.888294 
L 444.688682 102.545953 
L 447.017758 108.4572 
L 449.346834 113.52717 
L 451.67591 117.686648 
L 454.004986 120.892156 
L 456.334062 123.125424 
L 458.663137 124.392298 
L 460.992213 124.721146 
L 463.321289 124.160818 
L 465.650365 122.778258 
L 467.979441 120.65582 
L 470.308517 117.888388 
L 472.637593 114.580373 
L 474.966669 110.842667 
L 477.295745 106.789625 
L 479.62482 102.536148 
L 481.953896 98.194933 
L 484.282972 93.873938 
L 486.612048 89.674112 
L 488.941124 85.687435 
L 491.2702 81.995276 
L 493.599276 78.667118 
L 495.928352 75.759623 
L 498.257427 73.316074 
L 500.586503 71.366158 
L 502.915579 69.926082 
L 505.244655 68.999011 
L 507.573731 68.575776 
L 509.902807 68.635842 
L 512.231883 69.148477 
L 514.560959 70.074101 
L 516.890035 71.365753 
L 519.21911 72.970653 
L 521.548186 74.831799 
L 523.877262 76.889575 
L 526.206338 79.08332 
L 528.535414 81.352822 
L 530.86449 83.639722 
L 533.193566 85.88878 
L 535.522642 88.048993 
L 537.851717 90.074547 
L 540.180793 91.925588 
L 542.509869 93.568803 
L 544.838945 94.977814 
L 547.168021 96.133381 
L 549.497097 97.023429 
L 551.826173 97.642897 
L 554.155249 97.993434 
L 556.484325 98.082957 
L 558.8134 97.925081 
L 561.142476 97.538452 
L 563.471552 96.946005 
L 565.800628 96.174159 
L 568.129704 95.251982 
L 570.45878 94.21034 
L 572.787856 93.081062 
L 575.116932 91.896127 
L 577.446007 90.686897 
L 579.775083 89.483412 
L 582.104159 88.313761 
L 584.433235 87.203532 
L 586.762311 86.175362 
L 589.091387 85.248576 
" clip-path="url(#p1543dd1a13)" style="fill: none; stroke: #ff7f0e; stroke-width: 1.5; stroke-linecap: square"/>
   </g>
   <g id="patch_9">
    <path d="M 346.983949 230.28538 
L 346.983949 8.52538 
" style="fill: none; stroke: #000000; stroke-width: 0.8; stroke-linejoin: miter; stroke-linecap: square"/>
   </g>
   <g id="patch_10">
    <path d="M 600.620312 230.28538 
L 600.620312 8.52538 
" style="fill: none; stroke: #000000; stroke-width: 0.8; stroke-linejoin: miter; stroke-linecap: square"/>
   </g>
   <g id="patch_11">
    <path d="M 346.983949 230.28538 
L 600.620312 230.28538 
" style="fill: none; stroke: #000000; stroke-width: 0.8; stroke-linejoin: miter; stroke-linecap: square"/>
   </g>
   <g id="patch_12">
    <path d="M 346.983949 8.52538 
L 600.620312 8.52538 
" style="fill: none; stroke: #000000; stroke-width: 0.8; stroke-linejoin: miter; stroke-linecap: square"/>
   </g>
   <g id="legend_2">
    <g id="patch_13">
     <path d="M 549.364062 45.88163 
L 593.620312 45.88163 
Q 595.620312 45.88163 595.620312 43.88163 
L 595.620312 15.52538 
Q 595.620312 13.52538 593.620312 13.52538 
L 549.364062 13.52538 
Q 547.364062 13.52538 547.364062 15.52538 
L 547.364062 43.88163 
Q 547.364062 45.88163 549.364062 45.88163 
z
" style="fill: #ffffff; opacity: 0.8; stroke: #cccccc; stroke-linejoin: miter"/>
    </g>
    <g id="line2d_25">
     <path d="M 551.364062 21.623818 
L 561.364062 21.623818 
L 571.364062 21.623818 
" style="fill: none; stroke: #1f77b4; stroke-width: 1.5; stroke-linecap: square"/>
    </g>
    <g id="text_26">
     <!-- ux -->
     <g transform="translate(579.364062 25.123818) scale(0.1 -0.1)">
      <use xlink:href="#DejaVuSans-75"/>
      <use xlink:href="#DejaVuSans-78" x="63.378906"/>
     </g>
    </g>
    <g id="line2d_26">
     <path d="M 551.364062 36.301943 
L 561.364062 36.301943 
L 571.364062 36.301943 
" style="fill: none; stroke: #ff7f0e; stroke-width: 1.5; stroke-linecap: square"/>
    </g>
    <g id="text_27">
     <!-- uy -->
     <g transform="translate(579.364062 39.801943) scale(0.1 -0.1)">
      <use xlink:href="#DejaVuSans-75"/>
      <use xlink:href="#DejaVuSans-79" x="63.378906"/>
     </g>
    </g>
   </g>
  </g>
 </g>
 <defs>
  <clipPath id="pc3e786c110">
   <rect x="42.620312" y="8.52538" width="253.636364" height="221.76"/>
  </clipPath>
  <clipPath id="p1543dd1a13">
   <rect x="346.983949" y="8.52538" width="253.636364" height="221.76"/>
  </clipPath>
 </defs>
</svg>
