<?xml version="1.0" encoding="utf-8" standalone="no"?>
<!DOCTYPE svg PUBLIC "-//W3C//DTD SVG 1.1//EN"
  "http://www.w3.org/Graphics/SVG/1.1/DTD/svg11.dtd">
<!-- Created with matplotlib (https://matplotlib.org/) -->
<svg height="248.518125pt" version="1.1" viewBox="0 0 370.942187 248.518125" width="370.942187pt" xmlns="http://www.w3.org/2000/svg" xmlns:xlink="http://www.w3.org/1999/xlink">
 <defs>
  <style type="text/css">
*{stroke-linecap:butt;stroke-linejoin:round;}
  </style>
 </defs>
 <g id="figure_1">
  <g id="patch_1">
   <path d="M 0 248.518125 
L 370.942187 248.518125 
L 370.942187 0 
L 0 0 
z
" style="fill:none;"/>
  </g>
  <g id="axes_1">
   <g id="patch_2">
    <path d="M 28.942188 224.64 
L 363.742188 224.64 
L 363.742188 7.2 
L 28.942188 7.2 
z
" style="fill:#ffffff;"/>
   </g>
   <g id="Quiver_1">
    <path clip-path="url(#p4930e25588)" d="M 44.752218 214.164515 
L 59.581363 228.99366 
L 60.173211 227.218115 
L 64.31615 234.912144 
L 56.622121 230.769205 
L 58.397666 230.177357 
L 43.568521 215.348212 
L 44.752218 214.164515 
"/>
    <path clip-path="url(#p4930e25588)" d="M 72.365625 214.113362 
L 86.734395 226.087337 
L 87.163062 224.2655 
L 91.985571 231.552847 
L 83.948056 228.123507 
L 85.662726 227.373339 
L 71.293956 215.399365 
L 72.365625 214.113362 
"/>
    <path clip-path="url(#p4930e25588)" d="M 99.963496 214.059938 
L 113.851442 223.318568 
L 114.083584 221.461432 
L 119.654993 228.193551 
L 111.29788 225.639988 
L 112.922874 224.71142 
L 99.034928 215.45279 
L 99.963496 214.059938 
"/>
    <path clip-path="url(#p4930e25588)" d="M 127.542952 214.007728 
L 140.961012 220.716758 
L 140.961012 218.845169 
L 147.324414 224.834254 
L 138.715105 223.336983 
L 140.212376 222.214029 
L 126.794316 215.504999 
L 127.542952 214.007728 
"/>
    <path clip-path="url(#p4930e25588)" d="M 155.102738 213.962316 
L 168.112087 218.298765 
L 167.847404 216.445987 
L 174.993836 221.474957 
L 166.259309 221.210274 
L 167.582722 219.886861 
L 154.573373 215.550412 
L 155.102738 213.962316 
"/>
    <path clip-path="url(#p4930e25588)" d="M 182.645079 213.930752 
L 195.370354 216.051631 
L 194.819946 214.262806 
L 202.663257 218.11566 
L 193.994334 219.216476 
L 195.09515 217.702855 
L 182.369875 215.581975 
L 182.645079 213.930752 
"/>
    <path clip-path="url(#p4930e25588)" d="M 210.176898 213.919364 
L 222.799679 213.919364 
L 221.962679 212.245364 
L 230.332679 214.756364 
L 221.962679 217.267364 
L 222.799679 215.593364 
L 210.176898 215.593364 
L 210.176898 213.919364 
"/>
    <path clip-path="url(#p4930e25588)" d="M 237.708718 213.930752 
L 250.433993 211.809873 
L 249.333177 210.296251 
L 258.0021 211.397067 
L 250.158789 215.249922 
L 250.709197 213.461096 
L 237.983922 215.581975 
L 237.708718 213.930752 
"/>
    <path clip-path="url(#p4930e25588)" d="M 265.251059 213.962316 
L 278.260408 209.625866 
L 276.936994 208.302453 
L 285.671522 208.03777 
L 278.52509 213.06674 
L 278.789773 211.213962 
L 265.780424 215.550412 
L 265.251059 213.962316 
"/>
    <path clip-path="url(#p4930e25588)" d="M 292.810845 214.007728 
L 306.228905 207.298698 
L 304.731634 206.175745 
L 313.340943 204.678473 
L 306.977541 210.667558 
L 306.977541 208.795969 
L 293.55948 215.504999 
L 292.810845 214.007728 
"/>
    <path clip-path="url(#p4930e25588)" d="M 320.3903 214.059938 
L 334.278246 204.801307 
L 332.653251 203.872739 
L 341.010365 201.319177 
L 335.438956 208.051296 
L 335.206814 206.194159 
L 321.318868 215.45279 
L 320.3903 214.059938 
"/>
    <path clip-path="url(#p4930e25588)" d="M 347.988171 214.113362 
L 362.356941 202.139388 
L 360.642271 201.38922 
L 368.679786 197.95988 
L 363.857277 205.247227 
L 363.42861 203.42539 
L 349.05984 215.399365 
L 347.988171 214.113362 
"/>
    <path clip-path="url(#p4930e25588)" d="M 44.803371 196.689031 
L 56.777345 211.0578 
L 57.527513 209.34313 
L 60.956853 217.380645 
L 53.669506 212.558136 
L 55.491343 212.129469 
L 43.517368 197.760699 
L 44.803371 196.689031 
"/>
    <path clip-path="url(#p4930e25588)" d="M 72.421639 196.633017 
L 83.891487 208.102865 
L 84.483336 206.32732 
L 88.626274 214.021349 
L 80.932246 209.87841 
L 82.707791 209.286562 
L 71.237942 197.816713 
L 72.421639 196.633017 
"/>
    <path clip-path="url(#p4930e25588)" d="M 100.022082 196.571278 
L 110.936281 205.302637 
L 111.328433 203.472593 
L 116.295696 210.662052 
L 108.191215 207.394116 
L 109.890541 206.609811 
L 98.976343 197.878452 
L 100.022082 196.571278 
"/>
    <path clip-path="url(#p4930e25588)" d="M 127.599267 196.507143 
L 137.936256 202.709337 
L 138.0798 200.843261 
L 143.965117 207.302755 
L 135.496003 205.14959 
L 137.07499 204.14478 
L 126.738001 197.942587 
L 127.599267 196.507143 
"/>
    <path clip-path="url(#p4930e25588)" d="M 155.148909 196.44773 
L 164.951178 200.368637 
L 164.795751 198.503513 
L 171.634539 203.943458 
L 162.930627 203.166323 
L 164.32947 201.922907 
L 154.527201 198.002 
L 155.148909 196.44773 
"/>
    <path clip-path="url(#p4930e25588)" d="M 182.671626 196.404119 
L 192.081395 198.286073 
L 191.588948 196.480432 
L 199.30396 200.584162 
L 190.604053 201.404908 
L 191.753097 199.927565 
L 182.343328 198.045611 
L 182.671626 196.404119 
"/>
    <path clip-path="url(#p4930e25588)" d="M 210.176898 196.387865 
L 219.440382 196.387865 
L 218.603382 194.713865 
L 226.973382 197.224865 
L 218.603382 199.735865 
L 219.440382 198.061865 
L 210.176898 198.061865 
L 210.176898 196.387865 
"/>
    <path clip-path="url(#p4930e25588)" d="M 237.682171 196.404119 
L 247.09194 194.522165 
L 245.942896 193.044822 
L 254.642803 193.865568 
L 246.927791 197.969298 
L 247.420238 196.163657 
L 238.010469 198.045611 
L 237.682171 196.404119 
"/>
    <path clip-path="url(#p4930e25588)" d="M 265.204887 196.44773 
L 275.007156 192.526822 
L 273.608313 191.283406 
L 282.312225 190.506271 
L 275.473437 195.946216 
L 275.628864 194.081092 
L 265.826595 198.002 
L 265.204887 196.44773 
"/>
    <path clip-path="url(#p4930e25588)" d="M 292.75453 196.507143 
L 303.091519 190.30495 
L 301.512532 189.300139 
L 309.981646 187.146975 
L 304.096329 193.606469 
L 303.952785 191.740393 
L 293.615796 197.942587 
L 292.75453 196.507143 
"/>
    <path clip-path="url(#p4930e25588)" d="M 320.331714 196.571278 
L 331.245913 187.839919 
L 329.546587 187.055614 
L 337.651068 183.787678 
L 332.683805 190.977137 
L 332.291653 189.147093 
L 321.377454 197.878452 
L 320.331714 196.571278 
"/>
    <path clip-path="url(#p4930e25588)" d="M 347.932157 196.633017 
L 359.402006 185.163168 
L 357.62646 184.57132 
L 365.320489 180.428381 
L 361.177551 188.12241 
L 360.585702 186.346865 
L 349.115854 197.816713 
L 347.932157 196.633017 
"/>
    <path clip-path="url(#p4930e25588)" d="M 44.856795 179.229082 
L 54.115426 193.117028 
L 55.043994 191.492033 
L 57.597556 199.849147 
L 50.865437 194.277738 
L 52.722574 194.045596 
L 43.463943 180.15765 
L 44.856795 179.229082 
"/>
    <path clip-path="url(#p4930e25588)" d="M 72.483378 179.170496 
L 81.214737 190.084695 
L 81.999042 188.385369 
L 85.266978 196.48985 
L 78.077519 191.522587 
L 79.907563 191.130435 
L 71.176204 180.216236 
L 72.483378 179.170496 
"/>
    <path clip-path="url(#p4930e25588)" d="M 100.091061 179.101518 
L 108.201612 187.212069 
L 108.793461 185.436524 
L 112.936399 193.130553 
L 105.24237 188.987615 
L 107.017915 188.395766 
L 98.907364 180.285215 
L 100.091061 179.101518 
"/>
    <path clip-path="url(#p4930e25588)" d="M 127.670834 179.023766 
L 135.081621 184.581856 
L 135.416421 182.740456 
L 140.605821 189.771256 
L 132.403221 186.758056 
L 134.077221 185.921056 
L 126.666434 180.362966 
L 127.670834 179.023766 
"/>
    <path clip-path="url(#p4930e25588)" d="M 155.212373 178.944731 
L 161.91184 182.294464 
L 161.91184 180.422875 
L 168.275242 186.41196 
L 159.665933 184.914689 
L 161.163204 183.791735 
L 154.463737 180.442002 
L 155.212373 178.944731 
"/>
    <path clip-path="url(#p4930e25588)" d="M 182.710479 178.881357 
L 188.839583 180.413633 
L 188.433578 178.586612 
L 195.944664 183.052663 
L 187.215564 183.458668 
L 188.433578 182.037651 
L 182.304474 180.505376 
L 182.710479 178.881357 
"/>
    <path clip-path="url(#p4930e25588)" d="M 210.176898 178.856366 
L 216.081085 178.856366 
L 215.244085 177.182366 
L 223.614085 179.693366 
L 215.244085 182.204366 
L 216.081085 180.530366 
L 210.176898 180.530366 
L 210.176898 178.856366 
"/>
    <path clip-path="url(#p4930e25588)" d="M 237.643317 178.881357 
L 243.772421 177.349081 
L 242.554407 175.928065 
L 251.283507 176.33407 
L 243.772421 180.800121 
L 244.178426 178.9731 
L 238.049322 180.505376 
L 237.643317 178.881357 
"/>
    <path clip-path="url(#p4930e25588)" d="M 265.141423 178.944731 
L 271.84089 175.594997 
L 270.343619 174.472044 
L 278.952928 172.974773 
L 272.589526 178.963857 
L 272.589526 177.092268 
L 265.890059 180.442002 
L 265.141423 178.944731 
"/>
    <path clip-path="url(#p4930e25588)" d="M 292.682963 179.023766 
L 300.09375 173.465676 
L 298.41975 172.628676 
L 306.62235 169.615476 
L 301.43295 176.646276 
L 301.09815 174.804876 
L 293.687363 180.362966 
L 292.682963 179.023766 
"/>
    <path clip-path="url(#p4930e25588)" d="M 320.262736 179.101518 
L 328.373287 170.990966 
L 326.597742 170.399118 
L 334.291771 166.256179 
L 330.148832 173.950208 
L 329.556984 172.174663 
L 321.446433 180.285215 
L 320.262736 179.101518 
"/>
    <path clip-path="url(#p4930e25588)" d="M 347.870418 179.170496 
L 356.601778 168.256298 
L 354.771733 167.864145 
L 361.961193 162.896883 
L 358.693257 171.001364 
L 357.908952 169.302037 
L 349.177593 180.216236 
L 347.870418 179.170496 
"/>
    <path clip-path="url(#p4930e25588)" d="M 44.909005 161.78755 
L 51.618035 175.20561 
L 52.740988 173.708339 
L 54.23826 182.317648 
L 48.249175 175.954246 
L 50.120764 175.954246 
L 43.411734 162.536185 
L 44.909005 161.78755 
"/>
    <path clip-path="url(#p4930e25588)" d="M 72.547512 161.731235 
L 78.749706 172.068224 
L 79.754516 170.489237 
L 81.907681 178.958351 
L 75.448187 173.073034 
L 77.314263 172.92949 
L 71.112069 162.5925 
L 72.547512 161.731235 
"/>
    <path clip-path="url(#p4930e25588)" d="M 100.168812 161.659668 
L 105.726902 169.070454 
L 106.563902 167.396454 
L 109.577102 175.599054 
L 102.546302 170.409654 
L 104.387702 170.074854 
L 98.829612 162.664068 
L 100.168812 161.659668 
"/>
    <path clip-path="url(#p4930e25588)" d="M 127.760482 161.570019 
L 132.511737 166.321274 
L 133.103585 164.545729 
L 137.246524 172.239758 
L 129.552495 168.096819 
L 131.32804 167.504971 
L 126.576785 162.753716 
L 127.760482 161.570019 
"/>
    <path clip-path="url(#p4930e25588)" d="M 155.302339 161.465441 
L 159.112395 164.005478 
L 159.344537 162.148342 
L 164.915945 168.880461 
L 156.558832 166.326899 
L 158.183827 165.398331 
L 154.373771 162.858294 
L 155.302339 161.465441 
"/>
    <path clip-path="url(#p4930e25588)" d="M 182.772159 161.36782 
L 185.703618 162.344973 
L 185.438936 160.492194 
L 192.585367 165.521164 
L 183.85084 165.256482 
L 185.174253 163.933068 
L 182.242794 162.955915 
L 182.772159 161.36782 
"/>
    <path clip-path="url(#p4930e25588)" d="M 210.176898 161.324868 
L 212.721788 161.324868 
L 211.884788 159.650868 
L 220.254788 162.161868 
L 211.884788 164.672868 
L 212.721788 162.998868 
L 210.176898 162.998868 
L 210.176898 161.324868 
"/>
    <path clip-path="url(#p4930e25588)" d="M 237.581637 161.36782 
L 240.513096 160.390667 
L 239.189683 159.067253 
L 247.92421 158.802571 
L 240.777779 163.831541 
L 241.042461 161.978762 
L 238.111002 162.955915 
L 237.581637 161.36782 
"/>
    <path clip-path="url(#p4930e25588)" d="M 265.051457 161.465441 
L 268.861512 158.925405 
L 267.236518 157.996836 
L 275.593631 155.443274 
L 270.022223 162.175393 
L 269.790081 160.318257 
L 265.980025 162.858294 
L 265.051457 161.465441 
"/>
    <path clip-path="url(#p4930e25588)" d="M 292.593314 161.570019 
L 297.344569 156.818764 
L 295.569024 156.226916 
L 303.263053 152.083977 
L 299.120114 159.778006 
L 298.528266 158.002461 
L 293.777011 162.753716 
L 292.593314 161.570019 
"/>
    <path clip-path="url(#p4930e25588)" d="M 320.184984 161.659668 
L 325.743074 154.248881 
L 323.901674 153.914081 
L 330.932474 148.724681 
L 327.919274 156.927281 
L 327.082274 155.253281 
L 321.524184 162.664068 
L 320.184984 161.659668 
"/>
    <path clip-path="url(#p4930e25588)" d="M 347.806284 161.731235 
L 354.008478 151.394245 
L 352.142402 151.250701 
L 358.601896 145.365384 
L 356.448731 153.834499 
L 355.443921 152.255511 
L 349.241727 162.5925 
L 347.806284 161.731235 
"/>
    <path clip-path="url(#p4930e25588)" d="M 44.954417 144.365686 
L 49.290867 157.375035 
L 50.61428 156.051622 
L 50.878963 164.786149 
L 45.849993 157.639718 
L 47.702771 157.904401 
L 43.366321 144.895051 
L 44.954417 144.365686 
"/>
    <path clip-path="url(#p4930e25588)" d="M 72.606926 144.319515 
L 76.527833 154.121784 
L 77.771249 152.722941 
L 78.548384 161.426852 
L 73.108439 154.588065 
L 74.973563 154.743492 
L 71.052656 144.941223 
L 72.606926 144.319515 
"/>
    <path clip-path="url(#p4930e25588)" d="M 100.247848 144.256051 
L 103.597581 150.955518 
L 104.720535 149.458247 
L 106.217806 158.067556 
L 100.228721 151.704154 
L 102.10031 151.704154 
L 98.750577 145.004687 
L 100.247848 144.256051 
"/>
    <path clip-path="url(#p4930e25588)" d="M 127.86506 144.166085 
L 130.405097 147.97614 
L 131.333665 146.351146 
L 133.887227 154.708259 
L 127.155108 149.13685 
L 129.012245 148.904708 
L 126.472208 145.094653 
L 127.86506 144.166085 
"/>
    <path clip-path="url(#p4930e25588)" d="M 155.429904 144.03852 
L 156.821862 145.430479 
L 157.41371 143.654933 
L 161.556649 151.348962 
L 153.86262 147.206024 
L 155.638165 146.614175 
L 154.246207 145.222217 
L 155.429904 144.03852 
"/>
    <path clip-path="url(#p4930e25588)" d="M 182.843406 143.958509 
L 183.515266 144.294439 
L 183.515266 142.614791 
L 189.22607 147.989666 
L 181.499688 146.645947 
L 182.843406 145.638158 
L 182.171547 145.302228 
L 182.843406 143.958509 
"/>
    <path clip-path="url(#p4930e25588)" d="M 210.176898 143.958509 
L 210.848758 143.958509 
L 210.176898 142.614791 
L 216.895492 144.630369 
L 210.176898 146.645947 
L 210.848758 145.302228 
L 210.176898 145.302228 
L 210.176898 143.958509 
"/>
    <path clip-path="url(#p4930e25588)" d="M 237.51039 143.958509 
L 238.182249 143.62258 
L 236.838531 142.614791 
L 244.564913 141.271072 
L 238.854109 146.645947 
L 238.854109 144.966299 
L 238.182249 145.302228 
L 237.51039 143.958509 
"/>
    <path clip-path="url(#p4930e25588)" d="M 264.923893 144.03852 
L 266.315851 142.646562 
L 264.540306 142.054714 
L 272.234335 137.911775 
L 268.091396 145.605804 
L 267.499548 143.830259 
L 266.10759 145.222217 
L 264.923893 144.03852 
"/>
    <path clip-path="url(#p4930e25588)" d="M 292.488737 144.166085 
L 295.028773 140.356029 
L 293.171637 140.123887 
L 299.903756 134.552479 
L 297.350194 142.909592 
L 296.421626 141.284598 
L 293.881589 145.094653 
L 292.488737 144.166085 
"/>
    <path clip-path="url(#p4930e25588)" d="M 320.105949 144.256051 
L 323.455682 137.556584 
L 321.584093 137.556584 
L 327.573178 131.193182 
L 326.075907 139.802491 
L 324.952953 138.30522 
L 321.60322 145.004687 
L 320.105949 144.256051 
"/>
    <path clip-path="url(#p4930e25588)" d="M 347.746871 144.319515 
L 351.667778 134.517246 
L 349.802654 134.672673 
L 355.242599 127.833885 
L 354.465464 136.537797 
L 353.222048 135.138954 
L 349.301141 144.941223 
L 347.746871 144.319515 
"/>
    <path clip-path="url(#p4930e25588)" d="M 44.985981 126.961268 
L 47.10686 139.686543 
L 48.620482 138.585728 
L 47.519666 147.254651 
L 43.666811 139.411339 
L 45.455637 139.961747 
L 43.334758 127.236472 
L 44.985981 126.961268 
"/>
    <path clip-path="url(#p4930e25588)" d="M 72.650537 126.934721 
L 74.532491 136.34449 
L 76.009834 135.195446 
L 75.189088 143.895354 
L 71.085357 136.180341 
L 72.890999 136.672789 
L 71.009045 127.263019 
L 72.650537 126.934721 
"/>
    <path clip-path="url(#p4930e25588)" d="M 100.311222 126.895868 
L 101.843497 133.024971 
L 103.264514 131.806957 
L 102.858509 140.536057 
L 98.392458 133.024971 
L 100.219479 133.430976 
L 98.687203 127.301872 
L 100.311222 126.895868 
"/>
    <path clip-path="url(#p4930e25588)" d="M 127.962682 126.834187 
L 128.939835 129.765646 
L 130.263248 128.442233 
L 130.527931 137.17676 
L 125.49896 130.030329 
L 127.351739 130.295012 
L 126.374586 127.363553 
L 127.962682 126.834187 
"/>
    <path clip-path="url(#p4930e25588)" d="M 155.509915 126.76294 
L 155.845844 127.4348 
L 156.853633 126.091081 
L 158.197352 133.817464 
L 152.822477 128.106659 
L 154.502126 128.106659 
L 154.166196 127.4348 
L 155.509915 126.76294 
"/>
    <path clip-path="url(#p4930e25588)" d="M 182.843406 126.76294 
L 183.179336 127.09887 
L 183.515266 126.091081 
L 185.866773 130.458167 
L 181.499688 128.106659 
L 182.507477 127.770729 
L 182.171547 127.4348 
L 182.843406 126.76294 
"/>
    <path clip-path="url(#p4930e25588)" d="M 210.176898 126.76294 
L 210.512828 126.76294 
L 210.176898 126.091081 
L 213.536195 127.09887 
L 210.176898 128.106659 
L 210.512828 127.4348 
L 210.176898 127.4348 
L 210.176898 126.76294 
"/>
    <path clip-path="url(#p4930e25588)" d="M 237.51039 126.76294 
L 237.84632 126.427011 
L 236.838531 126.091081 
L 241.205616 123.739573 
L 238.854109 128.106659 
L 238.518179 127.09887 
L 238.182249 127.4348 
L 237.51039 126.76294 
"/>
    <path clip-path="url(#p4930e25588)" d="M 264.843882 126.76294 
L 265.179812 126.091081 
L 263.500163 126.091081 
L 268.875038 120.380277 
L 267.531319 128.106659 
L 266.52353 126.76294 
L 266.187601 127.4348 
L 264.843882 126.76294 
"/>
    <path clip-path="url(#p4930e25588)" d="M 292.391115 126.834187 
L 293.368268 123.902729 
L 291.515489 124.167411 
L 296.544459 117.02098 
L 296.279777 125.755507 
L 294.956364 124.432094 
L 293.979211 127.363553 
L 292.391115 126.834187 
"/>
    <path clip-path="url(#p4930e25588)" d="M 320.042575 126.895868 
L 321.574851 120.766764 
L 319.74783 121.172769 
L 324.213881 113.661683 
L 324.619886 122.390783 
L 323.198869 121.172769 
L 321.666593 127.301872 
L 320.042575 126.895868 
"/>
    <path clip-path="url(#p4930e25588)" d="M 347.70326 126.934721 
L 349.585214 117.524952 
L 347.779572 118.017399 
L 351.883302 110.302386 
L 352.704048 119.002294 
L 351.226706 117.85325 
L 349.344752 127.263019 
L 347.70326 126.934721 
"/>
    <path clip-path="url(#p4930e25588)" d="M 44.997369 109.567371 
L 44.997369 122.190152 
L 46.671369 121.353152 
L 44.160369 129.723152 
L 41.649369 121.353152 
L 43.323369 122.190152 
L 43.323369 109.567371 
L 44.997369 109.567371 
"/>
    <path clip-path="url(#p4930e25588)" d="M 72.666791 109.567371 
L 72.666791 118.830855 
L 74.340791 117.993855 
L 71.829791 126.363855 
L 69.318791 117.993855 
L 70.992791 118.830855 
L 70.992791 109.567371 
L 72.666791 109.567371 
"/>
    <path clip-path="url(#p4930e25588)" d="M 100.336212 109.567371 
L 100.336212 115.471558 
L 102.010212 114.634558 
L 99.499212 123.004558 
L 96.988212 114.634558 
L 98.662212 115.471558 
L 98.662212 109.567371 
L 100.336212 109.567371 
"/>
    <path clip-path="url(#p4930e25588)" d="M 128.005634 109.567371 
L 128.005634 112.112262 
L 129.679634 111.275262 
L 127.168634 119.645262 
L 124.657634 111.275262 
L 126.331634 112.112262 
L 126.331634 109.567371 
L 128.005634 109.567371 
"/>
    <path clip-path="url(#p4930e25588)" d="M 155.509915 109.567371 
L 155.509915 110.239231 
L 156.853633 109.567371 
L 154.838055 116.285965 
L 152.822477 109.567371 
L 154.166196 110.239231 
L 154.166196 109.567371 
L 155.509915 109.567371 
"/>
    <path clip-path="url(#p4930e25588)" d="M 182.843406 109.567371 
L 182.843406 109.903301 
L 183.515266 109.567371 
L 182.507477 112.926668 
L 181.499688 109.567371 
L 182.171547 109.903301 
L 182.171547 109.567371 
L 182.843406 109.567371 
"/>
    <path clip-path="url(#p4930e25588)" d="M 211.013898 109.567371 
L 210.595398 108.842508 
L 209.758398 108.842508 
L 209.339898 109.567371 
L 209.758398 110.292235 
L 210.595398 110.292235 
L 211.013898 109.567371 
L 210.595398 108.842508 
"/>
    <path clip-path="url(#p4930e25588)" d="M 237.51039 109.567371 
L 237.51039 109.231442 
L 236.838531 109.567371 
L 237.84632 106.208075 
L 238.854109 109.567371 
L 238.182249 109.231442 
L 238.182249 109.567371 
L 237.51039 109.567371 
"/>
    <path clip-path="url(#p4930e25588)" d="M 264.843882 109.567371 
L 264.843882 108.895512 
L 263.500163 109.567371 
L 265.515741 102.848778 
L 267.531319 109.567371 
L 266.187601 108.895512 
L 266.187601 109.567371 
L 264.843882 109.567371 
"/>
    <path clip-path="url(#p4930e25588)" d="M 292.348163 109.567371 
L 292.348163 107.022481 
L 290.674163 107.859481 
L 293.185163 99.489481 
L 295.696163 107.859481 
L 294.022163 107.022481 
L 294.022163 109.567371 
L 292.348163 109.567371 
"/>
    <path clip-path="url(#p4930e25588)" d="M 320.017584 109.567371 
L 320.017584 103.663185 
L 318.343584 104.500185 
L 320.854584 96.130185 
L 323.365584 104.500185 
L 321.691584 103.663185 
L 321.691584 109.567371 
L 320.017584 109.567371 
"/>
    <path clip-path="url(#p4930e25588)" d="M 347.687006 109.567371 
L 347.687006 100.303888 
L 346.013006 101.140888 
L 348.524006 92.770888 
L 351.035006 101.140888 
L 349.361006 100.303888 
L 349.361006 109.567371 
L 347.687006 109.567371 
"/>
    <path clip-path="url(#p4930e25588)" d="M 44.985981 92.173475 
L 42.865102 104.89875 
L 44.653927 104.348342 
L 40.801073 112.191653 
L 39.700257 103.52273 
L 41.213878 104.623546 
L 43.334758 91.898271 
L 44.985981 92.173475 
"/>
    <path clip-path="url(#p4930e25588)" d="M 72.650537 92.200022 
L 70.768583 101.609791 
L 72.574224 101.117344 
L 68.470494 108.832356 
L 67.649748 100.132449 
L 69.127091 101.281493 
L 71.009045 91.871724 
L 72.650537 92.200022 
"/>
    <path clip-path="url(#p4930e25588)" d="M 100.311222 92.238875 
L 98.778946 98.367979 
L 100.605967 97.961974 
L 96.139916 105.47306 
L 95.733911 96.74396 
L 97.154927 97.961974 
L 98.687203 91.83287 
L 100.311222 92.238875 
"/>
    <path clip-path="url(#p4930e25588)" d="M 127.962682 92.300555 
L 126.985529 95.232014 
L 128.838307 94.967332 
L 123.809337 102.113763 
L 124.07402 93.379236 
L 125.397433 94.702649 
L 126.374586 91.77119 
L 127.962682 92.300555 
"/>
    <path clip-path="url(#p4930e25588)" d="M 155.509915 92.371802 
L 155.173985 93.043662 
L 156.853633 93.043662 
L 151.478759 98.754466 
L 152.822477 91.028084 
L 153.830266 92.371802 
L 154.166196 91.699943 
L 155.509915 92.371802 
"/>
    <path clip-path="url(#p4930e25588)" d="M 182.843406 92.371802 
L 182.507477 92.707732 
L 183.515266 93.043662 
L 179.14818 95.395169 
L 181.499688 91.028084 
L 181.835617 92.035873 
L 182.171547 91.699943 
L 182.843406 92.371802 
"/>
    <path clip-path="url(#p4930e25588)" d="M 210.176898 92.371802 
L 209.840969 92.371802 
L 210.176898 93.043662 
L 206.817602 92.035873 
L 210.176898 91.028084 
L 209.840969 91.699943 
L 210.176898 91.699943 
L 210.176898 92.371802 
"/>
    <path clip-path="url(#p4930e25588)" d="M 237.51039 92.371802 
L 237.17446 92.035873 
L 236.838531 93.043662 
L 234.487023 88.676576 
L 238.854109 91.028084 
L 237.84632 91.364013 
L 238.182249 91.699943 
L 237.51039 92.371802 
"/>
    <path clip-path="url(#p4930e25588)" d="M 264.843882 92.371802 
L 264.507952 91.699943 
L 263.500163 93.043662 
L 262.156444 85.317279 
L 267.531319 91.028084 
L 265.851671 91.028084 
L 266.187601 91.699943 
L 264.843882 92.371802 
"/>
    <path clip-path="url(#p4930e25588)" d="M 292.391115 92.300555 
L 291.413962 89.369096 
L 290.090549 90.69251 
L 289.825866 81.957983 
L 294.854836 89.104414 
L 293.002058 88.839731 
L 293.979211 91.77119 
L 292.391115 92.300555 
"/>
    <path clip-path="url(#p4930e25588)" d="M 320.042575 92.238875 
L 318.510299 86.109772 
L 317.089283 87.327785 
L 317.495287 78.598686 
L 321.961338 86.109772 
L 320.134318 85.703767 
L 321.666593 91.83287 
L 320.042575 92.238875 
"/>
    <path clip-path="url(#p4930e25588)" d="M 347.70326 92.200022 
L 345.821306 82.790253 
L 344.343963 83.939297 
L 345.164709 75.239389 
L 349.268439 82.954402 
L 347.462798 82.461954 
L 349.344752 91.871724 
L 347.70326 92.200022 
"/>
    <path clip-path="url(#p4930e25588)" d="M 44.954417 74.769057 
L 40.617968 87.778406 
L 42.470746 87.513723 
L 37.441776 94.660154 
L 37.706458 85.925627 
L 39.029872 87.24904 
L 43.366321 74.239691 
L 44.954417 74.769057 
"/>
    <path clip-path="url(#p4930e25588)" d="M 72.606926 74.815228 
L 68.686018 84.617497 
L 70.551142 84.46207 
L 65.111197 91.300858 
L 65.888332 82.596946 
L 67.131748 83.995789 
L 71.052656 74.19352 
L 72.606926 74.815228 
"/>
    <path clip-path="url(#p4930e25588)" d="M 100.247848 74.878692 
L 96.898114 81.578159 
L 98.769703 81.578159 
L 92.780619 87.941561 
L 94.27789 79.332252 
L 95.400843 80.829523 
L 98.750577 74.130056 
L 100.247848 74.878692 
"/>
    <path clip-path="url(#p4930e25588)" d="M 127.86506 74.968658 
L 125.325023 78.778713 
L 127.182159 79.010855 
L 120.45004 84.582264 
L 123.003603 76.225151 
L 123.932171 77.850145 
L 126.472208 74.04009 
L 127.86506 74.968658 
"/>
    <path clip-path="url(#p4930e25588)" d="M 155.429904 75.096222 
L 154.037946 76.48818 
L 155.813491 77.080029 
L 148.119462 81.222967 
L 152.2624 73.528939 
L 152.854249 75.304484 
L 154.246207 73.912526 
L 155.429904 75.096222 
"/>
    <path clip-path="url(#p4930e25588)" d="M 182.843406 75.176233 
L 182.171547 75.512163 
L 183.515266 76.519952 
L 175.788883 77.863671 
L 181.499688 72.488796 
L 181.499688 74.168444 
L 182.171547 73.832515 
L 182.843406 75.176233 
"/>
    <path clip-path="url(#p4930e25588)" d="M 210.176898 75.176233 
L 209.505039 75.176233 
L 210.176898 76.519952 
L 203.458305 74.504374 
L 210.176898 72.488796 
L 209.505039 73.832515 
L 210.176898 73.832515 
L 210.176898 75.176233 
"/>
    <path clip-path="url(#p4930e25588)" d="M 237.51039 75.176233 
L 236.838531 74.840304 
L 236.838531 76.519952 
L 231.127726 71.145077 
L 238.854109 72.488796 
L 237.51039 73.496585 
L 238.182249 73.832515 
L 237.51039 75.176233 
"/>
    <path clip-path="url(#p4930e25588)" d="M 264.923893 75.096222 
L 263.531935 73.704264 
L 262.940086 75.479809 
L 258.797148 67.785781 
L 266.491177 71.928719 
L 264.715632 72.520568 
L 266.10759 73.912526 
L 264.923893 75.096222 
"/>
    <path clip-path="url(#p4930e25588)" d="M 292.488737 74.968658 
L 289.9487 71.158603 
L 289.020132 72.783597 
L 286.466569 64.426484 
L 293.198688 69.997893 
L 291.341552 70.230035 
L 293.881589 74.04009 
L 292.488737 74.968658 
"/>
    <path clip-path="url(#p4930e25588)" d="M 320.105949 74.878692 
L 316.756215 68.179225 
L 315.633262 69.676496 
L 314.135991 61.067187 
L 320.125075 67.430589 
L 318.253486 67.430589 
L 321.60322 74.130056 
L 320.105949 74.878692 
"/>
    <path clip-path="url(#p4930e25588)" d="M 347.746871 74.815228 
L 343.825963 65.012959 
L 342.582547 66.411802 
L 341.805412 57.70789 
L 347.245357 64.546678 
L 345.380233 64.391251 
L 349.301141 74.19352 
L 347.746871 74.815228 
"/>
    <path clip-path="url(#p4930e25588)" d="M 44.909005 57.347193 
L 38.199975 70.765253 
L 40.071564 70.765253 
L 34.082479 77.128656 
L 35.57975 68.519347 
L 36.702704 70.016618 
L 43.411734 56.598558 
L 44.909005 57.347193 
"/>
    <path clip-path="url(#p4930e25588)" d="M 72.547512 57.403508 
L 66.345319 67.740498 
L 68.211395 67.884042 
L 61.751901 73.769359 
L 63.905065 65.300244 
L 64.909876 66.879232 
L 71.112069 56.542242 
L 72.547512 57.403508 
"/>
    <path clip-path="url(#p4930e25588)" d="M 100.168812 57.475075 
L 94.610722 64.885862 
L 96.452122 65.220662 
L 89.421322 70.410062 
L 92.434522 62.207462 
L 93.271522 63.881462 
L 98.829612 56.470675 
L 100.168812 57.475075 
"/>
    <path clip-path="url(#p4930e25588)" d="M 127.760482 57.564724 
L 123.009227 62.315979 
L 124.784772 62.907827 
L 117.090744 67.050766 
L 121.233682 59.356737 
L 121.825531 61.132282 
L 126.576785 56.381027 
L 127.760482 57.564724 
"/>
    <path clip-path="url(#p4930e25588)" d="M 155.302339 57.669301 
L 151.492284 60.209338 
L 153.117278 61.137906 
L 144.760165 63.691469 
L 150.331574 56.95935 
L 150.563716 58.816486 
L 154.373771 56.276449 
L 155.302339 57.669301 
"/>
    <path clip-path="url(#p4930e25588)" d="M 182.772159 57.766923 
L 179.8407 58.744076 
L 181.164114 60.067489 
L 172.429587 60.332172 
L 179.576018 55.303202 
L 179.311335 57.15598 
L 182.242794 56.178827 
L 182.772159 57.766923 
"/>
    <path clip-path="url(#p4930e25588)" d="M 210.176898 57.809875 
L 207.632008 57.809875 
L 208.469008 59.483875 
L 200.099008 56.972875 
L 208.469008 54.461875 
L 207.632008 56.135875 
L 210.176898 56.135875 
L 210.176898 57.809875 
"/>
    <path clip-path="url(#p4930e25588)" d="M 237.581637 57.766923 
L 234.650178 56.78977 
L 234.914861 58.642549 
L 227.76843 53.613579 
L 236.502957 53.878261 
L 235.179543 55.201674 
L 238.111002 56.178827 
L 237.581637 57.766923 
"/>
    <path clip-path="url(#p4930e25588)" d="M 265.051457 57.669301 
L 261.241402 55.129265 
L 261.00926 56.986401 
L 255.437851 50.254282 
L 263.794964 52.807844 
L 262.16997 53.736412 
L 265.980025 56.276449 
L 265.051457 57.669301 
"/>
    <path clip-path="url(#p4930e25588)" d="M 292.593314 57.564724 
L 287.84206 52.813469 
L 287.250211 54.589014 
L 283.107273 46.894985 
L 290.801301 51.037924 
L 289.025756 51.629772 
L 293.777011 56.381027 
L 292.593314 57.564724 
"/>
    <path clip-path="url(#p4930e25588)" d="M 320.184984 57.475075 
L 314.626894 50.064288 
L 313.789894 51.738288 
L 310.776694 43.535688 
L 317.807494 48.725088 
L 315.966094 49.059888 
L 321.524184 56.470675 
L 320.184984 57.475075 
"/>
    <path clip-path="url(#p4930e25588)" d="M 347.806284 57.403508 
L 341.60409 47.066519 
L 340.59928 48.645506 
L 338.446115 40.176392 
L 344.90561 46.061709 
L 343.039534 46.205253 
L 349.241727 56.542242 
L 347.806284 57.403508 
"/>
    <path clip-path="url(#p4930e25588)" d="M 44.856795 39.905661 
L 35.598165 53.793606 
L 37.455301 54.025748 
L 30.723182 59.597157 
L 33.276745 51.240044 
L 34.205313 52.865038 
L 43.463943 38.977093 
L 44.856795 39.905661 
"/>
    <path clip-path="url(#p4930e25588)" d="M 72.483378 39.964246 
L 63.752019 50.878445 
L 65.582063 51.270598 
L 58.392604 56.23786 
L 61.66054 48.133379 
L 62.444844 49.832706 
L 71.176204 38.918507 
L 72.483378 39.964246 
"/>
    <path clip-path="url(#p4930e25588)" d="M 100.091061 40.033225 
L 91.980509 48.143777 
L 93.756054 48.735625 
L 86.062025 52.878564 
L 90.204964 45.184535 
L 90.796812 46.96008 
L 98.907364 38.849528 
L 100.091061 40.033225 
"/>
    <path clip-path="url(#p4930e25588)" d="M 127.670834 40.110977 
L 120.260047 45.669067 
L 121.934047 46.506067 
L 113.731447 49.519267 
L 118.920847 42.488467 
L 119.255647 44.329867 
L 126.666434 38.771777 
L 127.670834 40.110977 
"/>
    <path clip-path="url(#p4930e25588)" d="M 155.212373 40.190012 
L 148.512906 43.539746 
L 150.010177 44.662699 
L 141.400868 46.15997 
L 147.764271 40.170886 
L 147.764271 42.042475 
L 154.463737 38.692741 
L 155.212373 40.190012 
"/>
    <path clip-path="url(#p4930e25588)" d="M 182.710479 40.253386 
L 176.581376 41.785662 
L 177.79939 43.206678 
L 169.07029 42.800673 
L 176.581376 38.334622 
L 176.175371 40.161643 
L 182.304474 38.629367 
L 182.710479 40.253386 
"/>
    <path clip-path="url(#p4930e25588)" d="M 210.176898 40.278377 
L 204.272711 40.278377 
L 205.109711 41.952377 
L 196.739711 39.441377 
L 205.109711 36.930377 
L 204.272711 38.604377 
L 210.176898 38.604377 
L 210.176898 40.278377 
"/>
    <path clip-path="url(#p4930e25588)" d="M 237.643317 40.253386 
L 231.514214 38.72111 
L 231.920219 40.548131 
L 224.409133 36.08208 
L 233.138232 35.676075 
L 231.920219 37.097091 
L 238.049322 38.629367 
L 237.643317 40.253386 
"/>
    <path clip-path="url(#p4930e25588)" d="M 265.141423 40.190012 
L 258.441957 36.840279 
L 258.441957 38.711868 
L 252.078554 32.722783 
L 260.687863 34.220054 
L 259.190592 35.343008 
L 265.890059 38.692741 
L 265.141423 40.190012 
"/>
    <path clip-path="url(#p4930e25588)" d="M 292.682963 40.110977 
L 285.272176 34.552886 
L 284.937376 36.394286 
L 279.747976 29.363486 
L 287.950576 32.376686 
L 286.276576 33.213686 
L 293.687363 38.771777 
L 292.682963 40.110977 
"/>
    <path clip-path="url(#p4930e25588)" d="M 320.262736 40.033225 
L 312.152184 31.922673 
L 311.560336 33.698219 
L 307.417397 26.00419 
L 315.111426 30.147128 
L 313.335881 30.738977 
L 321.446433 38.849528 
L 320.262736 40.033225 
"/>
    <path clip-path="url(#p4930e25588)" d="M 347.870418 39.964246 
L 339.139059 29.050047 
L 338.354755 30.749374 
L 335.086819 22.644893 
L 342.276278 27.612156 
L 340.446234 28.004308 
L 349.177593 38.918507 
L 347.870418 39.964246 
"/>
    <path clip-path="url(#p4930e25588)" d="M 44.803371 22.445712 
L 32.829396 36.814482 
L 34.651233 37.243149 
L 27.363886 42.065658 
L 30.793225 34.028143 
L 31.543394 35.742813 
L 43.517368 21.374044 
L 44.803371 22.445712 
"/>
    <path clip-path="url(#p4930e25588)" d="M 72.421639 22.501726 
L 60.951791 33.971575 
L 62.727336 34.563423 
L 55.033307 38.706362 
L 59.176246 31.012333 
L 59.768094 32.787878 
L 71.237942 21.31803 
L 72.421639 22.501726 
"/>
    <path clip-path="url(#p4930e25588)" d="M 100.022082 22.563465 
L 89.107883 31.294824 
L 90.80721 32.079129 
L 82.702729 35.347065 
L 87.669991 28.157606 
L 88.062144 29.98765 
L 98.976343 21.256291 
L 100.022082 22.563465 
"/>
    <path clip-path="url(#p4930e25588)" d="M 127.599267 22.6276 
L 117.262277 28.829793 
L 118.841265 29.834603 
L 110.37215 31.987768 
L 116.257467 25.528274 
L 116.401011 27.39435 
L 126.738001 21.192156 
L 127.599267 22.6276 
"/>
    <path clip-path="url(#p4930e25588)" d="M 155.148909 22.687013 
L 145.346641 26.60792 
L 146.745484 27.851336 
L 138.041572 28.628471 
L 144.88036 23.188526 
L 144.724933 25.05365 
L 154.527201 21.132743 
L 155.148909 22.687013 
"/>
    <path clip-path="url(#p4930e25588)" d="M 182.671626 22.730624 
L 173.261857 24.612578 
L 174.410901 26.089921 
L 165.710993 25.269175 
L 173.426006 21.165445 
L 172.933558 22.971086 
L 182.343328 21.089132 
L 182.671626 22.730624 
"/>
    <path clip-path="url(#p4930e25588)" d="M 210.176898 22.746878 
L 200.913415 22.746878 
L 201.750415 24.420878 
L 193.380415 21.909878 
L 201.750415 19.398878 
L 200.913415 21.072878 
L 210.176898 21.072878 
L 210.176898 22.746878 
"/>
    <path clip-path="url(#p4930e25588)" d="M 237.682171 22.730624 
L 228.272401 20.84867 
L 228.764849 22.654311 
L 221.049836 18.550581 
L 229.749744 17.729835 
L 228.6007 19.207178 
L 238.010469 21.089132 
L 237.682171 22.730624 
"/>
    <path clip-path="url(#p4930e25588)" d="M 265.204887 22.687013 
L 255.402618 18.766105 
L 255.558045 20.631229 
L 248.719258 15.191284 
L 257.423169 15.968419 
L 256.024326 17.211835 
L 265.826595 21.132743 
L 265.204887 22.687013 
"/>
    <path clip-path="url(#p4930e25588)" d="M 292.75453 22.6276 
L 282.41754 16.425406 
L 282.273996 18.291482 
L 276.388679 11.831988 
L 284.857794 13.985152 
L 283.278806 14.989963 
L 293.615796 21.192156 
L 292.75453 22.6276 
"/>
    <path clip-path="url(#p4930e25588)" d="M 320.331714 22.563465 
L 309.417516 13.832106 
L 309.025363 15.66215 
L 304.058101 8.472691 
L 312.162582 11.740627 
L 310.463255 12.524932 
L 321.377454 21.256291 
L 320.331714 22.563465 
"/>
    <path clip-path="url(#p4930e25588)" d="M 347.932157 22.501726 
L 336.462309 11.031878 
L 335.870461 12.807423 
L 331.727522 5.113394 
L 339.421551 9.256333 
L 337.646006 9.848181 
L 349.115854 21.31803 
L 347.932157 22.501726 
"/>
   </g>
   <g id="matplotlib.axis_1">
    <g id="xtick_1">
     <g id="line2d_1">
      <defs>
       <path d="M 0 0 
L 0 3.5 
" id="m568eae32a0" style="stroke:#000000;stroke-width:0.8;"/>
      </defs>
      <g>
       <use style="stroke:#000000;stroke-width:0.8;" x="44.160369" xlink:href="#m568eae32a0" y="224.64"/>
      </g>
     </g>
     <g id="text_1">
      <!-- −3 -->
      <defs>
       <path d="M 10.59375 35.5 
L 73.1875 35.5 
L 73.1875 27.203125 
L 10.59375 27.203125 
z
" id="DejaVuSans-8722"/>
       <path d="M 40.578125 39.3125 
Q 47.65625 37.796875 51.625 33 
Q 55.609375 28.21875 55.609375 21.1875 
Q 55.609375 10.40625 48.1875 4.484375 
Q 40.765625 -1.421875 27.09375 -1.421875 
Q 22.515625 -1.421875 17.65625 -0.515625 
Q 12.796875 0.390625 7.625 2.203125 
L 7.625 11.71875 
Q 11.71875 9.328125 16.59375 8.109375 
Q 21.484375 6.890625 26.8125 6.890625 
Q 36.078125 6.890625 40.9375 10.546875 
Q 45.796875 14.203125 45.796875 21.1875 
Q 45.796875 27.640625 41.28125 31.265625 
Q 36.765625 34.90625 28.71875 34.90625 
L 20.21875 34.90625 
L 20.21875 43.015625 
L 29.109375 43.015625 
Q 36.375 43.015625 40.234375 45.921875 
Q 44.09375 48.828125 44.09375 54.296875 
Q 44.09375 59.90625 40.109375 62.90625 
Q 36.140625 65.921875 28.71875 65.921875 
Q 24.65625 65.921875 20.015625 65.03125 
Q 15.375 64.15625 9.8125 62.3125 
L 9.8125 71.09375 
Q 15.4375 72.65625 20.34375 73.4375 
Q 25.25 74.21875 29.59375 74.21875 
Q 40.828125 74.21875 47.359375 69.109375 
Q 53.90625 64.015625 53.90625 55.328125 
Q 53.90625 49.265625 50.4375 45.09375 
Q 46.96875 40.921875 40.578125 39.3125 
z
" id="DejaVuSans-51"/>
      </defs>
      <g transform="translate(36.789276 239.238437)scale(0.1 -0.1)">
       <use xlink:href="#DejaVuSans-8722"/>
       <use x="83.789062" xlink:href="#DejaVuSans-51"/>
      </g>
     </g>
    </g>
    <g id="xtick_2">
     <g id="line2d_2">
      <g>
       <use style="stroke:#000000;stroke-width:0.8;" x="99.499212" xlink:href="#m568eae32a0" y="224.64"/>
      </g>
     </g>
     <g id="text_2">
      <!-- −2 -->
      <defs>
       <path d="M 19.1875 8.296875 
L 53.609375 8.296875 
L 53.609375 0 
L 7.328125 0 
L 7.328125 8.296875 
Q 12.9375 14.109375 22.625 23.890625 
Q 32.328125 33.6875 34.8125 36.53125 
Q 39.546875 41.84375 41.421875 45.53125 
Q 43.3125 49.21875 43.3125 52.78125 
Q 43.3125 58.59375 39.234375 62.25 
Q 35.15625 65.921875 28.609375 65.921875 
Q 23.96875 65.921875 18.8125 64.3125 
Q 13.671875 62.703125 7.8125 59.421875 
L 7.8125 69.390625 
Q 13.765625 71.78125 18.9375 73 
Q 24.125 74.21875 28.421875 74.21875 
Q 39.75 74.21875 46.484375 68.546875 
Q 53.21875 62.890625 53.21875 53.421875 
Q 53.21875 48.921875 51.53125 44.890625 
Q 49.859375 40.875 45.40625 35.40625 
Q 44.1875 33.984375 37.640625 27.21875 
Q 31.109375 20.453125 19.1875 8.296875 
z
" id="DejaVuSans-50"/>
      </defs>
      <g transform="translate(92.128119 239.238437)scale(0.1 -0.1)">
       <use xlink:href="#DejaVuSans-8722"/>
       <use x="83.789062" xlink:href="#DejaVuSans-50"/>
      </g>
     </g>
    </g>
    <g id="xtick_3">
     <g id="line2d_3">
      <g>
       <use style="stroke:#000000;stroke-width:0.8;" x="154.838055" xlink:href="#m568eae32a0" y="224.64"/>
      </g>
     </g>
     <g id="text_3">
      <!-- −1 -->
      <defs>
       <path d="M 12.40625 8.296875 
L 28.515625 8.296875 
L 28.515625 63.921875 
L 10.984375 60.40625 
L 10.984375 69.390625 
L 28.421875 72.90625 
L 38.28125 72.90625 
L 38.28125 8.296875 
L 54.390625 8.296875 
L 54.390625 0 
L 12.40625 0 
z
" id="DejaVuSans-49"/>
      </defs>
      <g transform="translate(147.466962 239.238437)scale(0.1 -0.1)">
       <use xlink:href="#DejaVuSans-8722"/>
       <use x="83.789062" xlink:href="#DejaVuSans-49"/>
      </g>
     </g>
    </g>
    <g id="xtick_4">
     <g id="line2d_4">
      <g>
       <use style="stroke:#000000;stroke-width:0.8;" x="210.176898" xlink:href="#m568eae32a0" y="224.64"/>
      </g>
     </g>
     <g id="text_4">
      <!-- 0 -->
      <defs>
       <path d="M 31.78125 66.40625 
Q 24.171875 66.40625 20.328125 58.90625 
Q 16.5 51.421875 16.5 36.375 
Q 16.5 21.390625 20.328125 13.890625 
Q 24.171875 6.390625 31.78125 6.390625 
Q 39.453125 6.390625 43.28125 13.890625 
Q 47.125 21.390625 47.125 36.375 
Q 47.125 51.421875 43.28125 58.90625 
Q 39.453125 66.40625 31.78125 66.40625 
z
M 31.78125 74.21875 
Q 44.046875 74.21875 50.515625 64.515625 
Q 56.984375 54.828125 56.984375 36.375 
Q 56.984375 17.96875 50.515625 8.265625 
Q 44.046875 -1.421875 31.78125 -1.421875 
Q 19.53125 -1.421875 13.0625 8.265625 
Q 6.59375 17.96875 6.59375 36.375 
Q 6.59375 54.828125 13.0625 64.515625 
Q 19.53125 74.21875 31.78125 74.21875 
z
" id="DejaVuSans-48"/>
      </defs>
      <g transform="translate(206.995648 239.238437)scale(0.1 -0.1)">
       <use xlink:href="#DejaVuSans-48"/>
      </g>
     </g>
    </g>
    <g id="xtick_5">
     <g id="line2d_5">
      <g>
       <use style="stroke:#000000;stroke-width:0.8;" x="265.515741" xlink:href="#m568eae32a0" y="224.64"/>
      </g>
     </g>
     <g id="text_5">
      <!-- 1 -->
      <g transform="translate(262.334491 239.238437)scale(0.1 -0.1)">
       <use xlink:href="#DejaVuSans-49"/>
      </g>
     </g>
    </g>
    <g id="xtick_6">
     <g id="line2d_6">
      <g>
       <use style="stroke:#000000;stroke-width:0.8;" x="320.854584" xlink:href="#m568eae32a0" y="224.64"/>
      </g>
     </g>
     <g id="text_6">
      <!-- 2 -->
      <g transform="translate(317.673334 239.238437)scale(0.1 -0.1)">
       <use xlink:href="#DejaVuSans-50"/>
      </g>
     </g>
    </g>
   </g>
   <g id="matplotlib.axis_2">
    <g id="ytick_1">
     <g id="line2d_7">
      <defs>
       <path d="M 0 0 
L -3.5 0 
" id="m504ddedb53" style="stroke:#000000;stroke-width:0.8;"/>
      </defs>
      <g>
       <use style="stroke:#000000;stroke-width:0.8;" x="28.942188" xlink:href="#m504ddedb53" y="214.756364"/>
      </g>
     </g>
     <g id="text_7">
      <!-- −3 -->
      <g transform="translate(7.2 218.555582)scale(0.1 -0.1)">
       <use xlink:href="#DejaVuSans-8722"/>
       <use x="83.789062" xlink:href="#DejaVuSans-51"/>
      </g>
     </g>
    </g>
    <g id="ytick_2">
     <g id="line2d_8">
      <g>
       <use style="stroke:#000000;stroke-width:0.8;" x="28.942188" xlink:href="#m504ddedb53" y="179.693366"/>
      </g>
     </g>
     <g id="text_8">
      <!-- −2 -->
      <g transform="translate(7.2 183.492585)scale(0.1 -0.1)">
       <use xlink:href="#DejaVuSans-8722"/>
       <use x="83.789062" xlink:href="#DejaVuSans-50"/>
      </g>
     </g>
    </g>
    <g id="ytick_3">
     <g id="line2d_9">
      <g>
       <use style="stroke:#000000;stroke-width:0.8;" x="28.942188" xlink:href="#m504ddedb53" y="144.630369"/>
      </g>
     </g>
     <g id="text_9">
      <!-- −1 -->
      <g transform="translate(7.2 148.429588)scale(0.1 -0.1)">
       <use xlink:href="#DejaVuSans-8722"/>
       <use x="83.789062" xlink:href="#DejaVuSans-49"/>
      </g>
     </g>
    </g>
    <g id="ytick_4">
     <g id="line2d_10">
      <g>
       <use style="stroke:#000000;stroke-width:0.8;" x="28.942188" xlink:href="#m504ddedb53" y="109.567371"/>
      </g>
     </g>
     <g id="text_10">
      <!-- 0 -->
      <g transform="translate(15.579688 113.36659)scale(0.1 -0.1)">
       <use xlink:href="#DejaVuSans-48"/>
      </g>
     </g>
    </g>
    <g id="ytick_5">
     <g id="line2d_11">
      <g>
       <use style="stroke:#000000;stroke-width:0.8;" x="28.942188" xlink:href="#m504ddedb53" y="74.504374"/>
      </g>
     </g>
     <g id="text_11">
      <!-- 1 -->
      <g transform="translate(15.579688 78.303593)scale(0.1 -0.1)">
       <use xlink:href="#DejaVuSans-49"/>
      </g>
     </g>
    </g>
    <g id="ytick_6">
     <g id="line2d_12">
      <g>
       <use style="stroke:#000000;stroke-width:0.8;" x="28.942188" xlink:href="#m504ddedb53" y="39.441377"/>
      </g>
     </g>
     <g id="text_12">
      <!-- 2 -->
      <g transform="translate(15.579688 43.240595)scale(0.1 -0.1)">
       <use xlink:href="#DejaVuSans-50"/>
      </g>
     </g>
    </g>
   </g>
   <g id="line2d_13">
    <path clip-path="url(#p4930e25588)" d="M 265.515741 109.567371 
L 265.411981 106.938194 
L 264.997264 104.318877 
L 264.27334 101.724174 
L 263.243702 99.16873 
L 261.913569 96.666997 
L 260.289861 94.233149 
L 258.381163 91.881008 
L 256.197678 89.62396 
L 253.751176 87.474883 
L 251.054927 85.44607 
L 248.123633 83.549162 
L 244.973344 81.795077 
L 241.621374 80.193953 
L 238.086203 78.755085 
L 234.387378 77.486872 
L 230.5454 76.396771 
L 226.581617 75.491248 
L 222.518101 74.775744 
L 218.377529 74.254641 
L 214.183049 73.931236 
L 209.958161 73.80772 
L 205.726576 73.885161 
L 201.512091 74.163503 
L 197.338448 74.641554 
L 193.229207 75.317002 
L 189.207606 76.186415 
L 185.296437 77.245266 
L 181.517911 78.487953 
L 177.893537 79.90783 
L 174.443995 81.497241 
L 171.18902 83.247561 
L 168.147291 85.149245 
L 165.33632 87.191878 
L 162.772357 89.364231 
L 160.470289 91.654326 
L 158.443561 94.049499 
L 156.70409 96.536473 
L 155.262203 99.101426 
L 154.12657 101.730075 
L 153.304156 104.40775 
L 152.800174 107.119478 
L 152.618058 109.850065 
L 152.759437 112.584186 
L 153.224121 115.306462 
L 154.010103 118.001557 
L 155.113564 120.654256 
L 156.528891 123.249556 
L 158.248706 125.772746 
L 160.263905 128.209496 
L 162.563704 130.545934 
L 165.135697 132.768727 
L 167.965926 134.865155 
L 171.038951 136.823187 
L 174.337938 138.631546 
L 177.844751 140.279778 
L 181.540049 141.75831 
L 185.403397 143.058503 
L 189.413372 144.172709 
L 193.54769 145.09431 
L 197.783324 145.817759 
L 202.096633 146.338615 
L 206.463495 146.653566 
L 210.859443 146.760455 
L 215.259798 146.65829 
L 219.639811 146.347254 
L 223.974802 145.828703 
L 228.240297 145.105168 
L 232.412167 144.180333 
L 236.466765 143.059025 
L 240.381059 141.747183 
L 244.132762 140.25183 
L 247.700463 138.581036 
L 251.063744 136.743872 
L 254.203298 134.750361 
L 257.101042 132.611426 
L 259.74022 130.338828 
L 262.105497 127.945102 
L 264.183053 125.44349 
L 265.960659 122.847862 
L 267.427751 120.172646 
L 268.575493 117.432743 
L 269.396827 114.643448 
L 269.88652 111.820361 
L 270.026993 109.927336 
L 270.017993 108.031043 
L 269.859355 106.136221 
L 269.55129 104.247609 
L 268.810393 101.436675 
L 267.738223 98.666213 
L 266.340193 95.951884 
L 264.623555 93.309066 
L 262.59737 90.752762 
L 260.272456 88.297516 
L 257.661335 85.957331 
L 254.778159 83.74559 
L 251.63864 81.674977 
L 248.259959 79.757406 
L 244.660678 78.003954 
L 240.860632 76.424793 
L 236.880824 75.029136 
L 232.743309 73.825178 
L 228.471069 72.820052 
L 224.087887 72.019788 
L 219.618215 71.429272 
L 215.08704 71.052219 
L 210.519738 70.891151 
L 205.941937 70.947381 
L 201.379375 71.220998 
L 201.379375 71.220998 
" style="fill:none;stroke:#1f77b4;stroke-linecap:square;stroke-width:1.5;"/>
   </g>
   <g id="line2d_14">
    <path clip-path="url(#p4930e25588)" d="M 265.515741 109.567371 
L 265.515741 106.061072 
L 264.962353 102.554772 
L 263.855576 99.083535 
L 262.200945 95.682424 
L 260.009526 92.386152 
L 257.297868 89.228729 
L 254.087883 86.243118 
L 250.406688 83.460894 
L 246.286384 80.911912 
L 241.763781 78.623995 
L 236.880084 76.622633 
L 231.680518 74.930704 
L 226.21392 73.568223 
L 220.532286 72.552108 
L 214.690282 71.895985 
L 208.744724 71.610015 
L 202.754031 71.700758 
L 196.777661 72.171075 
L 190.87552 73.020058 
L 185.10737 74.243004 
L 179.532235 75.831424 
L 174.207795 77.773086 
L 169.189801 80.052109 
L 164.531499 82.649074 
L 160.283067 85.541192 
L 156.491089 88.702492 
L 153.19805 92.104055 
L 150.441869 95.714266 
L 148.255476 99.499111 
L 146.666434 103.422487 
L 145.696606 107.446545 
L 145.361882 111.532052 
L 145.671962 115.638767 
L 146.630191 119.725836 
L 148.23347 123.75219 
L 150.472216 127.67696 
L 153.330397 131.459882 
L 156.785624 135.061708 
L 160.809316 138.444608 
L 165.366921 141.572566 
L 170.418201 144.411751 
L 175.917582 146.930884 
L 181.814549 149.101573 
L 188.05411 150.898627 
L 194.577294 152.300339 
L 201.321706 153.288739 
L 208.222114 153.849809 
L 215.211074 153.973665 
L 222.219582 153.654697 
L 229.177748 152.891666 
L 236.015487 151.687761 
L 242.663218 150.050614 
L 249.052562 147.992263 
L 255.117044 145.529079 
L 260.792769 142.681647 
L 266.019092 139.474597 
L 270.739257 135.936405 
L 274.901 132.09914 
L 278.457119 127.998185 
L 281.365998 123.671913 
L 283.592074 119.161332 
L 285.106259 114.509706 
L 285.886292 109.76214 
L 285.917032 104.965151 
L 285.190678 100.166214 
L 283.706922 95.413299 
L 281.473029 90.754396 
L 278.503835 86.237034 
L 274.82168 81.907801 
L 270.456256 77.811872 
L 265.444384 73.992539 
L 259.829718 70.49076 
L 253.662378 67.34473 
L 246.998509 64.589466 
L 239.899785 62.256428 
L 232.432846 60.37317 
L 224.668677 58.963021 
L 216.681949 58.044814 
L 208.550303 57.63265 
L 200.353607 57.735712 
" style="fill:none;stroke:#ff7f0e;stroke-linecap:square;stroke-width:1.5;"/>
   </g>
   <g id="line2d_15">
    <path clip-path="url(#p4930e25588)" d="M 265.515741 109.567371 
L 265.515741 100.801622 
L 262.057064 92.035873 
L 255.139708 83.817983 
L 244.979842 76.695811 
L 232.009801 71.182977 
L 216.864576 67.724615 
L 200.354794 66.665277 
L 183.427032 68.221112 
L 167.113152 72.458328 
L 152.471139 79.279685 
L 140.520609 88.420357 
L 132.17669 99.45401 
L 128.186289 111.809351 
L 129.0709 124.796777 
L 135.079925 137.644079 
L 146.158075 149.539544 
L 161.929785 159.680214 
L 181.702672 167.322624 
L 204.491004 171.83298 
L 229.058974 172.733634 
L 253.982313 169.742687 
L 277.725522 162.803849 
L 298.730893 152.104053 
L 315.514475 138.076978 
L 326.763432 121.39136 
L 331.428791 102.923891 
L 328.807491 83.717423 
L 318.607948 64.926173 
L 300.993993 47.750545 
L 276.603097 33.364991 
L 246.536133 22.842989 
L 212.317531 17.083636 
" style="fill:none;stroke:#2ca02c;stroke-linecap:square;stroke-width:1.5;"/>
   </g>
   <g id="patch_3">
    <path d="M 28.942188 224.64 
L 28.942188 7.2 
" style="fill:none;stroke:#000000;stroke-linecap:square;stroke-linejoin:miter;stroke-width:0.8;"/>
   </g>
   <g id="patch_4">
    <path d="M 363.742188 224.64 
L 363.742188 7.2 
" style="fill:none;stroke:#000000;stroke-linecap:square;stroke-linejoin:miter;stroke-width:0.8;"/>
   </g>
   <g id="patch_5">
    <path d="M 28.942187 224.64 
L 363.742188 224.64 
" style="fill:none;stroke:#000000;stroke-linecap:square;stroke-linejoin:miter;stroke-width:0.8;"/>
   </g>
   <g id="patch_6">
    <path d="M 28.942187 7.2 
L 363.742188 7.2 
" style="fill:none;stroke:#000000;stroke-linecap:square;stroke-linejoin:miter;stroke-width:0.8;"/>
   </g>
   <g id="legend_1">
    <g id="patch_7">
     <path d="M 35.942188 59.234375 
L 147.273438 59.234375 
Q 149.273438 59.234375 149.273438 57.234375 
L 149.273438 14.2 
Q 149.273438 12.2 147.273438 12.2 
L 35.942188 12.2 
Q 33.942188 12.2 33.942188 14.2 
L 33.942188 57.234375 
Q 33.942188 59.234375 35.942188 59.234375 
z
" style="fill:#ffffff;opacity:0.8;stroke:#cccccc;stroke-linejoin:miter;"/>
    </g>
    <g id="line2d_16">
     <path d="M 37.942188 20.298437 
L 57.942188 20.298437 
" style="fill:none;stroke:#1f77b4;stroke-linecap:square;stroke-width:1.5;"/>
    </g>
    <g id="line2d_17"/>
    <g id="text_13">
     <!-- Euler, dt=0.025 -->
     <defs>
      <path d="M 9.8125 72.90625 
L 55.90625 72.90625 
L 55.90625 64.59375 
L 19.671875 64.59375 
L 19.671875 43.015625 
L 54.390625 43.015625 
L 54.390625 34.71875 
L 19.671875 34.71875 
L 19.671875 8.296875 
L 56.78125 8.296875 
L 56.78125 0 
L 9.8125 0 
z
" id="DejaVuSans-69"/>
      <path d="M 8.5 21.578125 
L 8.5 54.6875 
L 17.484375 54.6875 
L 17.484375 21.921875 
Q 17.484375 14.15625 20.5 10.265625 
Q 23.53125 6.390625 29.59375 6.390625 
Q 36.859375 6.390625 41.078125 11.03125 
Q 45.3125 15.671875 45.3125 23.6875 
L 45.3125 54.6875 
L 54.296875 54.6875 
L 54.296875 0 
L 45.3125 0 
L 45.3125 8.40625 
Q 42.046875 3.421875 37.71875 1 
Q 33.40625 -1.421875 27.6875 -1.421875 
Q 18.265625 -1.421875 13.375 4.4375 
Q 8.5 10.296875 8.5 21.578125 
z
M 31.109375 56 
z
" id="DejaVuSans-117"/>
      <path d="M 9.421875 75.984375 
L 18.40625 75.984375 
L 18.40625 0 
L 9.421875 0 
z
" id="DejaVuSans-108"/>
      <path d="M 56.203125 29.59375 
L 56.203125 25.203125 
L 14.890625 25.203125 
Q 15.484375 15.921875 20.484375 11.0625 
Q 25.484375 6.203125 34.421875 6.203125 
Q 39.59375 6.203125 44.453125 7.46875 
Q 49.3125 8.734375 54.109375 11.28125 
L 54.109375 2.78125 
Q 49.265625 0.734375 44.1875 -0.34375 
Q 39.109375 -1.421875 33.890625 -1.421875 
Q 20.796875 -1.421875 13.15625 6.1875 
Q 5.515625 13.8125 5.515625 26.8125 
Q 5.515625 40.234375 12.765625 48.109375 
Q 20.015625 56 32.328125 56 
Q 43.359375 56 49.78125 48.890625 
Q 56.203125 41.796875 56.203125 29.59375 
z
M 47.21875 32.234375 
Q 47.125 39.59375 43.09375 43.984375 
Q 39.0625 48.390625 32.421875 48.390625 
Q 24.90625 48.390625 20.390625 44.140625 
Q 15.875 39.890625 15.1875 32.171875 
z
" id="DejaVuSans-101"/>
      <path d="M 41.109375 46.296875 
Q 39.59375 47.171875 37.8125 47.578125 
Q 36.03125 48 33.890625 48 
Q 26.265625 48 22.1875 43.046875 
Q 18.109375 38.09375 18.109375 28.8125 
L 18.109375 0 
L 9.078125 0 
L 9.078125 54.6875 
L 18.109375 54.6875 
L 18.109375 46.1875 
Q 20.953125 51.171875 25.484375 53.578125 
Q 30.03125 56 36.53125 56 
Q 37.453125 56 38.578125 55.875 
Q 39.703125 55.765625 41.0625 55.515625 
z
" id="DejaVuSans-114"/>
      <path d="M 11.71875 12.40625 
L 22.015625 12.40625 
L 22.015625 4 
L 14.015625 -11.625 
L 7.71875 -11.625 
L 11.71875 4 
z
" id="DejaVuSans-44"/>
      <path id="DejaVuSans-32"/>
      <path d="M 45.40625 46.390625 
L 45.40625 75.984375 
L 54.390625 75.984375 
L 54.390625 0 
L 45.40625 0 
L 45.40625 8.203125 
Q 42.578125 3.328125 38.25 0.953125 
Q 33.9375 -1.421875 27.875 -1.421875 
Q 17.96875 -1.421875 11.734375 6.484375 
Q 5.515625 14.40625 5.515625 27.296875 
Q 5.515625 40.1875 11.734375 48.09375 
Q 17.96875 56 27.875 56 
Q 33.9375 56 38.25 53.625 
Q 42.578125 51.265625 45.40625 46.390625 
z
M 14.796875 27.296875 
Q 14.796875 17.390625 18.875 11.75 
Q 22.953125 6.109375 30.078125 6.109375 
Q 37.203125 6.109375 41.296875 11.75 
Q 45.40625 17.390625 45.40625 27.296875 
Q 45.40625 37.203125 41.296875 42.84375 
Q 37.203125 48.484375 30.078125 48.484375 
Q 22.953125 48.484375 18.875 42.84375 
Q 14.796875 37.203125 14.796875 27.296875 
z
" id="DejaVuSans-100"/>
      <path d="M 18.3125 70.21875 
L 18.3125 54.6875 
L 36.8125 54.6875 
L 36.8125 47.703125 
L 18.3125 47.703125 
L 18.3125 18.015625 
Q 18.3125 11.328125 20.140625 9.421875 
Q 21.96875 7.515625 27.59375 7.515625 
L 36.8125 7.515625 
L 36.8125 0 
L 27.59375 0 
Q 17.1875 0 13.234375 3.875 
Q 9.28125 7.765625 9.28125 18.015625 
L 9.28125 47.703125 
L 2.6875 47.703125 
L 2.6875 54.6875 
L 9.28125 54.6875 
L 9.28125 70.21875 
z
" id="DejaVuSans-116"/>
      <path d="M 10.59375 45.40625 
L 73.1875 45.40625 
L 73.1875 37.203125 
L 10.59375 37.203125 
z
M 10.59375 25.484375 
L 73.1875 25.484375 
L 73.1875 17.1875 
L 10.59375 17.1875 
z
" id="DejaVuSans-61"/>
      <path d="M 10.6875 12.40625 
L 21 12.40625 
L 21 0 
L 10.6875 0 
z
" id="DejaVuSans-46"/>
      <path d="M 10.796875 72.90625 
L 49.515625 72.90625 
L 49.515625 64.59375 
L 19.828125 64.59375 
L 19.828125 46.734375 
Q 21.96875 47.46875 24.109375 47.828125 
Q 26.265625 48.1875 28.421875 48.1875 
Q 40.625 48.1875 47.75 41.5 
Q 54.890625 34.8125 54.890625 23.390625 
Q 54.890625 11.625 47.5625 5.09375 
Q 40.234375 -1.421875 26.90625 -1.421875 
Q 22.3125 -1.421875 17.546875 -0.640625 
Q 12.796875 0.140625 7.71875 1.703125 
L 7.71875 11.625 
Q 12.109375 9.234375 16.796875 8.0625 
Q 21.484375 6.890625 26.703125 6.890625 
Q 35.15625 6.890625 40.078125 11.328125 
Q 45.015625 15.765625 45.015625 23.390625 
Q 45.015625 31 40.078125 35.4375 
Q 35.15625 39.890625 26.703125 39.890625 
Q 22.75 39.890625 18.8125 39.015625 
Q 14.890625 38.140625 10.796875 36.28125 
z
" id="DejaVuSans-53"/>
     </defs>
     <g transform="translate(65.942188 23.798437)scale(0.1 -0.1)">
      <use xlink:href="#DejaVuSans-69"/>
      <use x="63.183594" xlink:href="#DejaVuSans-117"/>
      <use x="126.5625" xlink:href="#DejaVuSans-108"/>
      <use x="154.345703" xlink:href="#DejaVuSans-101"/>
      <use x="215.869141" xlink:href="#DejaVuSans-114"/>
      <use x="256.982422" xlink:href="#DejaVuSans-44"/>
      <use x="288.769531" xlink:href="#DejaVuSans-32"/>
      <use x="320.556641" xlink:href="#DejaVuSans-100"/>
      <use x="384.033203" xlink:href="#DejaVuSans-116"/>
      <use x="423.242188" xlink:href="#DejaVuSans-61"/>
      <use x="507.03125" xlink:href="#DejaVuSans-48"/>
      <use x="570.654297" xlink:href="#DejaVuSans-46"/>
      <use x="602.441406" xlink:href="#DejaVuSans-48"/>
      <use x="666.064453" xlink:href="#DejaVuSans-50"/>
      <use x="729.6875" xlink:href="#DejaVuSans-53"/>
     </g>
    </g>
    <g id="line2d_18">
     <path d="M 37.942188 34.976562 
L 57.942188 34.976562 
" style="fill:none;stroke:#ff7f0e;stroke-linecap:square;stroke-width:1.5;"/>
    </g>
    <g id="line2d_19"/>
    <g id="text_14">
     <!-- Euler, dt=0.1 -->
     <g transform="translate(65.942188 38.476562)scale(0.1 -0.1)">
      <use xlink:href="#DejaVuSans-69"/>
      <use x="63.183594" xlink:href="#DejaVuSans-117"/>
      <use x="126.5625" xlink:href="#DejaVuSans-108"/>
      <use x="154.345703" xlink:href="#DejaVuSans-101"/>
      <use x="215.869141" xlink:href="#DejaVuSans-114"/>
      <use x="256.982422" xlink:href="#DejaVuSans-44"/>
      <use x="288.769531" xlink:href="#DejaVuSans-32"/>
      <use x="320.556641" xlink:href="#DejaVuSans-100"/>
      <use x="384.033203" xlink:href="#DejaVuSans-116"/>
      <use x="423.242188" xlink:href="#DejaVuSans-61"/>
      <use x="507.03125" xlink:href="#DejaVuSans-48"/>
      <use x="570.654297" xlink:href="#DejaVuSans-46"/>
      <use x="602.441406" xlink:href="#DejaVuSans-49"/>
     </g>
    </g>
    <g id="line2d_20">
     <path d="M 37.942188 49.654687 
L 57.942188 49.654687 
" style="fill:none;stroke:#2ca02c;stroke-linecap:square;stroke-width:1.5;"/>
    </g>
    <g id="line2d_21"/>
    <g id="text_15">
     <!-- Euler, dt=0.25 -->
     <g transform="translate(65.942188 53.154687)scale(0.1 -0.1)">
      <use xlink:href="#DejaVuSans-69"/>
      <use x="63.183594" xlink:href="#DejaVuSans-117"/>
      <use x="126.5625" xlink:href="#DejaVuSans-108"/>
      <use x="154.345703" xlink:href="#DejaVuSans-101"/>
      <use x="215.869141" xlink:href="#DejaVuSans-114"/>
      <use x="256.982422" xlink:href="#DejaVuSans-44"/>
      <use x="288.769531" xlink:href="#DejaVuSans-32"/>
      <use x="320.556641" xlink:href="#DejaVuSans-100"/>
      <use x="384.033203" xlink:href="#DejaVuSans-116"/>
      <use x="423.242188" xlink:href="#DejaVuSans-61"/>
      <use x="507.03125" xlink:href="#DejaVuSans-48"/>
      <use x="570.654297" xlink:href="#DejaVuSans-46"/>
      <use x="602.441406" xlink:href="#DejaVuSans-50"/>
      <use x="666.064453" xlink:href="#DejaVuSans-53"/>
     </g>
    </g>
   </g>
  </g>
 </g>
 <defs>
  <clipPath id="p4930e25588">
   <rect height="217.44" width="334.8" x="28.942188" y="7.2"/>
  </clipPath>
 </defs>
</svg>
