<?xml version="1.0" encoding="utf-8" standalone="no"?>
<!DOCTYPE svg PUBLIC "-//W3C//DTD SVG 1.1//EN"
  "http://www.w3.org/Graphics/SVG/1.1/DTD/svg11.dtd">
<svg xmlns:xlink="http://www.w3.org/1999/xlink" width="406.940312pt" height="310.86825pt" viewBox="0 0 406.940312 310.86825" xmlns="http://www.w3.org/2000/svg" version="1.1">
 <metadata>
  <rdf:RDF xmlns:dc="http://purl.org/dc/elements/1.1/" xmlns:cc="http://creativecommons.org/ns#" xmlns:rdf="http://www.w3.org/1999/02/22-rdf-syntax-ns#">
   <cc:Work>
    <dc:type rdf:resource="http://purl.org/dc/dcmitype/StillImage"/>
    <dc:date>2023-09-22T23:55:49.657685</dc:date>
    <dc:format>image/svg+xml</dc:format>
    <dc:creator>
     <cc:Agent>
      <dc:title>Matplotlib v3.7.1, https://matplotlib.org/</dc:title>
     </cc:Agent>
    </dc:creator>
   </cc:Work>
  </rdf:RDF>
 </metadata>
 <defs>
  <style type="text/css">*{stroke-linejoin: round; stroke-linecap: butt}</style>
 </defs>
 <g id="figure_1">
  <g id="patch_1">
   <path d="M 0 310.86825 
L 406.940312 310.86825 
L 406.940312 0 
L 0 0 
z
" style="fill: #ffffff"/>
  </g>
  <g id="axes_1">
   <g id="patch_2">
    <path d="M 42.620313 273.312 
L 399.740313 273.312 
L 399.740313 7.2 
L 42.620313 7.2 
z
" style="fill: #ffffff"/>
   </g>
   <g id="matplotlib.axis_1">
    <g id="xtick_1">
     <g id="line2d_1">
      <defs>
       <path id="m73b5925525" d="M 0 0 
L 0 3.5 
" style="stroke: #000000; stroke-width: 0.8"/>
      </defs>
      <g>
       <use xlink:href="#m73b5925525" x="58.85304" y="273.312" style="stroke: #000000; stroke-width: 0.8"/>
      </g>
     </g>
     <g id="text_1">
      <!-- 0.0 -->
      <g transform="translate(50.901477 287.910438) scale(0.1 -0.1)">
       <defs>
        <path id="DejaVuSans-30" d="M 2034 4250 
Q 1547 4250 1301 3770 
Q 1056 3291 1056 2328 
Q 1056 1369 1301 889 
Q 1547 409 2034 409 
Q 2525 409 2770 889 
Q 3016 1369 3016 2328 
Q 3016 3291 2770 3770 
Q 2525 4250 2034 4250 
z
M 2034 4750 
Q 2819 4750 3233 4129 
Q 3647 3509 3647 2328 
Q 3647 1150 3233 529 
Q 2819 -91 2034 -91 
Q 1250 -91 836 529 
Q 422 1150 422 2328 
Q 422 3509 836 4129 
Q 1250 4750 2034 4750 
z
" transform="scale(0.015625)"/>
        <path id="DejaVuSans-2e" d="M 684 794 
L 1344 794 
L 1344 0 
L 684 0 
L 684 794 
z
" transform="scale(0.015625)"/>
       </defs>
       <use xlink:href="#DejaVuSans-30"/>
       <use xlink:href="#DejaVuSans-2e" x="63.623047"/>
       <use xlink:href="#DejaVuSans-30" x="95.410156"/>
      </g>
     </g>
    </g>
    <g id="xtick_2">
     <g id="line2d_2">
      <g>
       <use xlink:href="#m73b5925525" x="99.434858" y="273.312" style="stroke: #000000; stroke-width: 0.8"/>
      </g>
     </g>
     <g id="text_2">
      <!-- 0.5 -->
      <g transform="translate(91.483295 287.910438) scale(0.1 -0.1)">
       <defs>
        <path id="DejaVuSans-35" d="M 691 4666 
L 3169 4666 
L 3169 4134 
L 1269 4134 
L 1269 2991 
Q 1406 3038 1543 3061 
Q 1681 3084 1819 3084 
Q 2600 3084 3056 2656 
Q 3513 2228 3513 1497 
Q 3513 744 3044 326 
Q 2575 -91 1722 -91 
Q 1428 -91 1123 -41 
Q 819 9 494 109 
L 494 744 
Q 775 591 1075 516 
Q 1375 441 1709 441 
Q 2250 441 2565 725 
Q 2881 1009 2881 1497 
Q 2881 1984 2565 2268 
Q 2250 2553 1709 2553 
Q 1456 2553 1204 2497 
Q 953 2441 691 2322 
L 691 4666 
z
" transform="scale(0.015625)"/>
       </defs>
       <use xlink:href="#DejaVuSans-30"/>
       <use xlink:href="#DejaVuSans-2e" x="63.623047"/>
       <use xlink:href="#DejaVuSans-35" x="95.410156"/>
      </g>
     </g>
    </g>
    <g id="xtick_3">
     <g id="line2d_3">
      <g>
       <use xlink:href="#m73b5925525" x="140.016676" y="273.312" style="stroke: #000000; stroke-width: 0.8"/>
      </g>
     </g>
     <g id="text_3">
      <!-- 1.0 -->
      <g transform="translate(132.065114 287.910438) scale(0.1 -0.1)">
       <defs>
        <path id="DejaVuSans-31" d="M 794 531 
L 1825 531 
L 1825 4091 
L 703 3866 
L 703 4441 
L 1819 4666 
L 2450 4666 
L 2450 531 
L 3481 531 
L 3481 0 
L 794 0 
L 794 531 
z
" transform="scale(0.015625)"/>
       </defs>
       <use xlink:href="#DejaVuSans-31"/>
       <use xlink:href="#DejaVuSans-2e" x="63.623047"/>
       <use xlink:href="#DejaVuSans-30" x="95.410156"/>
      </g>
     </g>
    </g>
    <g id="xtick_4">
     <g id="line2d_4">
      <g>
       <use xlink:href="#m73b5925525" x="180.598494" y="273.312" style="stroke: #000000; stroke-width: 0.8"/>
      </g>
     </g>
     <g id="text_4">
      <!-- 1.5 -->
      <g transform="translate(172.646932 287.910438) scale(0.1 -0.1)">
       <use xlink:href="#DejaVuSans-31"/>
       <use xlink:href="#DejaVuSans-2e" x="63.623047"/>
       <use xlink:href="#DejaVuSans-35" x="95.410156"/>
      </g>
     </g>
    </g>
    <g id="xtick_5">
     <g id="line2d_5">
      <g>
       <use xlink:href="#m73b5925525" x="221.180312" y="273.312" style="stroke: #000000; stroke-width: 0.8"/>
      </g>
     </g>
     <g id="text_5">
      <!-- 2.0 -->
      <g transform="translate(213.22875 287.910438) scale(0.1 -0.1)">
       <defs>
        <path id="DejaVuSans-32" d="M 1228 531 
L 3431 531 
L 3431 0 
L 469 0 
L 469 531 
Q 828 903 1448 1529 
Q 2069 2156 2228 2338 
Q 2531 2678 2651 2914 
Q 2772 3150 2772 3378 
Q 2772 3750 2511 3984 
Q 2250 4219 1831 4219 
Q 1534 4219 1204 4116 
Q 875 4013 500 3803 
L 500 4441 
Q 881 4594 1212 4672 
Q 1544 4750 1819 4750 
Q 2544 4750 2975 4387 
Q 3406 4025 3406 3419 
Q 3406 3131 3298 2873 
Q 3191 2616 2906 2266 
Q 2828 2175 2409 1742 
Q 1991 1309 1228 531 
z
" transform="scale(0.015625)"/>
       </defs>
       <use xlink:href="#DejaVuSans-32"/>
       <use xlink:href="#DejaVuSans-2e" x="63.623047"/>
       <use xlink:href="#DejaVuSans-30" x="95.410156"/>
      </g>
     </g>
    </g>
    <g id="xtick_6">
     <g id="line2d_6">
      <g>
       <use xlink:href="#m73b5925525" x="261.762131" y="273.312" style="stroke: #000000; stroke-width: 0.8"/>
      </g>
     </g>
     <g id="text_6">
      <!-- 2.5 -->
      <g transform="translate(253.810568 287.910438) scale(0.1 -0.1)">
       <use xlink:href="#DejaVuSans-32"/>
       <use xlink:href="#DejaVuSans-2e" x="63.623047"/>
       <use xlink:href="#DejaVuSans-35" x="95.410156"/>
      </g>
     </g>
    </g>
    <g id="xtick_7">
     <g id="line2d_7">
      <g>
       <use xlink:href="#m73b5925525" x="302.343949" y="273.312" style="stroke: #000000; stroke-width: 0.8"/>
      </g>
     </g>
     <g id="text_7">
      <!-- 3.0 -->
      <g transform="translate(294.392386 287.910438) scale(0.1 -0.1)">
       <defs>
        <path id="DejaVuSans-33" d="M 2597 2516 
Q 3050 2419 3304 2112 
Q 3559 1806 3559 1356 
Q 3559 666 3084 287 
Q 2609 -91 1734 -91 
Q 1441 -91 1130 -33 
Q 819 25 488 141 
L 488 750 
Q 750 597 1062 519 
Q 1375 441 1716 441 
Q 2309 441 2620 675 
Q 2931 909 2931 1356 
Q 2931 1769 2642 2001 
Q 2353 2234 1838 2234 
L 1294 2234 
L 1294 2753 
L 1863 2753 
Q 2328 2753 2575 2939 
Q 2822 3125 2822 3475 
Q 2822 3834 2567 4026 
Q 2313 4219 1838 4219 
Q 1578 4219 1281 4162 
Q 984 4106 628 3988 
L 628 4550 
Q 988 4650 1302 4700 
Q 1616 4750 1894 4750 
Q 2613 4750 3031 4423 
Q 3450 4097 3450 3541 
Q 3450 3153 3228 2886 
Q 3006 2619 2597 2516 
z
" transform="scale(0.015625)"/>
       </defs>
       <use xlink:href="#DejaVuSans-33"/>
       <use xlink:href="#DejaVuSans-2e" x="63.623047"/>
       <use xlink:href="#DejaVuSans-30" x="95.410156"/>
      </g>
     </g>
    </g>
    <g id="xtick_8">
     <g id="line2d_8">
      <g>
       <use xlink:href="#m73b5925525" x="342.925767" y="273.312" style="stroke: #000000; stroke-width: 0.8"/>
      </g>
     </g>
     <g id="text_8">
      <!-- 3.5 -->
      <g transform="translate(334.974205 287.910438) scale(0.1 -0.1)">
       <use xlink:href="#DejaVuSans-33"/>
       <use xlink:href="#DejaVuSans-2e" x="63.623047"/>
       <use xlink:href="#DejaVuSans-35" x="95.410156"/>
      </g>
     </g>
    </g>
    <g id="xtick_9">
     <g id="line2d_9">
      <g>
       <use xlink:href="#m73b5925525" x="383.507585" y="273.312" style="stroke: #000000; stroke-width: 0.8"/>
      </g>
     </g>
     <g id="text_9">
      <!-- 4.0 -->
      <g transform="translate(375.556023 287.910438) scale(0.1 -0.1)">
       <defs>
        <path id="DejaVuSans-34" d="M 2419 4116 
L 825 1625 
L 2419 1625 
L 2419 4116 
z
M 2253 4666 
L 3047 4666 
L 3047 1625 
L 3713 1625 
L 3713 1100 
L 3047 1100 
L 3047 0 
L 2419 0 
L 2419 1100 
L 313 1100 
L 313 1709 
L 2253 4666 
z
" transform="scale(0.015625)"/>
       </defs>
       <use xlink:href="#DejaVuSans-34"/>
       <use xlink:href="#DejaVuSans-2e" x="63.623047"/>
       <use xlink:href="#DejaVuSans-30" x="95.410156"/>
      </g>
     </g>
    </g>
    <g id="text_10">
     <!-- t -->
     <g transform="translate(219.220156 301.588562) scale(0.1 -0.1)">
      <defs>
       <path id="DejaVuSans-74" d="M 1172 4494 
L 1172 3500 
L 2356 3500 
L 2356 3053 
L 1172 3053 
L 1172 1153 
Q 1172 725 1289 603 
Q 1406 481 1766 481 
L 2356 481 
L 2356 0 
L 1766 0 
Q 1100 0 847 248 
Q 594 497 594 1153 
L 594 3053 
L 172 3053 
L 172 3500 
L 594 3500 
L 594 4494 
L 1172 4494 
z
" transform="scale(0.015625)"/>
      </defs>
      <use xlink:href="#DejaVuSans-74"/>
     </g>
    </g>
   </g>
   <g id="matplotlib.axis_2">
    <g id="ytick_1">
     <g id="line2d_10">
      <defs>
       <path id="md0c785c84b" d="M 0 0 
L -3.5 0 
" style="stroke: #000000; stroke-width: 0.8"/>
      </defs>
      <g>
       <use xlink:href="#md0c785c84b" x="42.620313" y="253.033048" style="stroke: #000000; stroke-width: 0.8"/>
      </g>
     </g>
     <g id="text_11">
      <!-- −4 -->
      <g transform="translate(20.878125 256.832267) scale(0.1 -0.1)">
       <defs>
        <path id="DejaVuSans-2212" d="M 678 2272 
L 4684 2272 
L 4684 1741 
L 678 1741 
L 678 2272 
z
" transform="scale(0.015625)"/>
       </defs>
       <use xlink:href="#DejaVuSans-2212"/>
       <use xlink:href="#DejaVuSans-34" x="83.789062"/>
      </g>
     </g>
    </g>
    <g id="ytick_2">
     <g id="line2d_11">
      <g>
       <use xlink:href="#md0c785c84b" x="42.620313" y="202.222717" style="stroke: #000000; stroke-width: 0.8"/>
      </g>
     </g>
     <g id="text_12">
      <!-- −2 -->
      <g transform="translate(20.878125 206.021936) scale(0.1 -0.1)">
       <use xlink:href="#DejaVuSans-2212"/>
       <use xlink:href="#DejaVuSans-32" x="83.789062"/>
      </g>
     </g>
    </g>
    <g id="ytick_3">
     <g id="line2d_12">
      <g>
       <use xlink:href="#md0c785c84b" x="42.620313" y="151.412386" style="stroke: #000000; stroke-width: 0.8"/>
      </g>
     </g>
     <g id="text_13">
      <!-- 0 -->
      <g transform="translate(29.257813 155.211605) scale(0.1 -0.1)">
       <use xlink:href="#DejaVuSans-30"/>
      </g>
     </g>
    </g>
    <g id="ytick_4">
     <g id="line2d_13">
      <g>
       <use xlink:href="#md0c785c84b" x="42.620313" y="100.602056" style="stroke: #000000; stroke-width: 0.8"/>
      </g>
     </g>
     <g id="text_14">
      <!-- 2 -->
      <g transform="translate(29.257813 104.401274) scale(0.1 -0.1)">
       <use xlink:href="#DejaVuSans-32"/>
      </g>
     </g>
    </g>
    <g id="ytick_5">
     <g id="line2d_14">
      <g>
       <use xlink:href="#md0c785c84b" x="42.620313" y="49.791725" style="stroke: #000000; stroke-width: 0.8"/>
      </g>
     </g>
     <g id="text_15">
      <!-- 4 -->
      <g transform="translate(29.257813 53.590944) scale(0.1 -0.1)">
       <use xlink:href="#DejaVuSans-34"/>
      </g>
     </g>
    </g>
    <g id="text_16">
     <!-- x -->
     <g transform="translate(14.798438 143.215375) rotate(-90) scale(0.1 -0.1)">
      <defs>
       <path id="DejaVuSans-78" d="M 3513 3500 
L 2247 1797 
L 3578 0 
L 2900 0 
L 1881 1375 
L 863 0 
L 184 0 
L 1544 1831 
L 300 3500 
L 978 3500 
L 1906 2253 
L 2834 3500 
L 3513 3500 
z
" transform="scale(0.015625)"/>
      </defs>
      <use xlink:href="#DejaVuSans-78"/>
     </g>
    </g>
   </g>
   <g id="line2d_15">
    <path d="M 58.85304 126.007221 
L 60.882131 126.007221 
L 62.911222 126.166003 
L 64.940312 126.479598 
L 66.969403 126.943143 
L 68.998494 127.55093 
L 71.027585 128.296454 
L 73.056676 129.172475 
L 77.114858 131.283698 
L 81.17304 133.814206 
L 85.231222 136.685853 
L 89.289403 139.814958 
L 95.376676 144.800849 
L 105.522131 153.165598 
L 109.580312 156.290658 
L 113.638494 159.179003 
L 117.696676 161.768009 
L 121.754858 164.004779 
L 125.81304 165.847089 
L 129.871222 167.26404 
L 133.929403 168.236397 
L 135.958494 168.553048 
L 137.987585 168.756632 
L 142.045767 168.828678 
L 146.103949 168.467402 
L 150.162131 167.697835 
L 154.220312 166.554173 
L 158.278494 165.078593 
L 162.336676 163.319909 
L 166.394858 161.332125 
L 172.482131 158.04764 
L 188.714858 148.932364 
L 192.77304 146.878522 
L 196.831222 145.013084 
L 200.889403 143.375177 
L 204.947585 141.996848 
L 209.005767 140.902536 
L 213.063949 140.108748 
L 217.122131 139.623948 
L 221.180312 139.448645 
L 225.238494 139.575677 
L 229.296676 139.990671 
L 233.354858 140.672668 
L 237.41304 141.594887 
L 241.471222 142.725599 
L 247.558494 144.733658 
L 253.645767 146.997997 
L 269.878494 153.241919 
L 275.965767 155.29237 
L 280.023949 156.483223 
L 284.082131 157.504454 
L 288.140312 158.337112 
L 292.198494 158.967613 
L 296.256676 159.387878 
L 300.314858 159.595324 
L 304.37304 159.592727 
L 308.431222 159.387955 
L 312.489403 158.993582 
L 316.547585 158.426403 
L 322.634858 157.297183 
L 328.722131 155.906811 
L 336.838494 153.804494 
L 351.042131 150.069897 
L 357.129403 148.674687 
L 363.216676 147.506986 
L 369.303949 146.618424 
L 375.391222 146.042437 
L 381.478494 145.793431 
L 383.507585 145.782859 
L 383.507585 145.782859 
" clip-path="url(#p8cc455fc07)" style="fill: none; stroke: #1f77b4; stroke-width: 1.5; stroke-linecap: square"/>
   </g>
   <g id="line2d_16">
    <path d="M 58.85304 126.007221 
L 66.969403 126.007221 
L 75.085767 128.547738 
L 83.202131 133.374719 
L 91.318494 140.005467 
L 99.434858 147.776907 
L 107.551222 155.911895 
L 115.667585 163.596932 
L 123.783949 170.063515 
L 131.900312 174.664985 
L 140.016676 176.941194 
L 148.13304 176.664524 
L 156.249403 173.862639 
L 164.365767 168.815729 
L 172.482131 162.028485 
L 180.598494 154.179631 
L 188.714858 146.054052 
L 196.831222 138.464307 
L 204.947585 132.16937 
L 213.063949 127.798735 
L 221.180312 125.789464 
L 229.296676 126.342486 
L 237.41304 129.402498 
L 245.529403 134.663499 
L 253.645767 141.599388 
L 261.762131 149.516578 
L 269.878494 157.623348 
L 277.994858 165.109022 
L 286.111222 171.225032 
L 294.227585 175.359778 
L 302.343949 177.099785 
L 310.460312 176.271052 
L 318.576676 172.956452 
L 326.69304 167.487446 
L 334.809403 160.410934 
L 342.925767 152.434567 
L 351.042131 144.355982 
L 359.158494 136.983037 
L 367.274858 131.053028 
L 375.391222 127.158954 
L 383.507585 125.690224 
" clip-path="url(#p8cc455fc07)" style="fill: none; stroke: #ff7f0e; stroke-width: 1.5; stroke-linecap: square"/>
   </g>
   <g id="line2d_17">
    <path d="M 58.85304 126.007221 
L 75.085767 126.007221 
L 91.318494 136.169287 
L 107.551222 154.461006 
L 123.783949 175.191621 
L 140.016676 190.556665 
L 156.249403 193.337007 
L 172.482131 179.903568 
L 188.714858 152.386969 
L 204.947585 118.977218 
L 221.180312 91.859583 
L 237.41304 83.139543 
L 253.645767 99.984632 
L 269.878494 140.769841 
L 286.111222 193.96911 
L 302.343949 240.785543 
L 318.576676 261.216 
L 334.809403 241.811103 
L 351.042131 182.36574 
L 367.274858 98.649963 
L 383.507585 19.296 
" clip-path="url(#p8cc455fc07)" style="fill: none; stroke: #2ca02c; stroke-width: 1.5; stroke-linecap: square"/>
   </g>
   <g id="line2d_18">
    <path d="M 58.85304 126.007221 
L 62.132379 126.713185 
L 65.411717 127.78583 
L 68.691056 129.193498 
L 71.970395 130.900432 
L 75.249734 132.867507 
L 78.529073 135.052994 
L 81.808412 137.413323 
L 85.087751 139.90386 
L 88.367089 142.479655 
L 91.646428 145.096177 
L 94.925767 147.710006 
L 98.205106 150.279486 
L 101.484445 152.76532 
L 104.763784 155.131101 
L 108.043122 157.343784 
L 111.322461 159.374077 
L 114.6018 161.196764 
L 117.881139 162.790943 
L 121.160478 164.140191 
L 124.439817 165.232649 
L 127.719155 166.061032 
L 130.998494 166.622559 
L 134.277833 166.918827 
L 137.557172 166.955606 
L 140.836511 166.742584 
L 144.11585 166.293055 
L 147.395189 165.623568 
L 150.674527 164.753529 
L 153.953866 163.704782 
L 157.233205 162.50116 
L 160.512544 161.168026 
L 163.791883 159.73181 
L 167.071222 158.21954 
L 170.35056 156.658392 
L 173.629899 155.075244 
L 176.909238 153.496262 
L 180.188577 151.946511 
L 183.467916 150.449593 
L 186.747255 149.027335 
L 190.026593 147.699504 
L 193.305932 146.483577 
L 196.585271 145.39455 
L 199.86461 144.444798 
L 203.143949 143.643981 
L 206.423288 142.998997 
L 209.702627 142.51398 
L 212.981965 142.190345 
L 216.261304 142.026873 
L 219.540643 142.019834 
L 222.819982 142.163144 
L 226.099321 142.448562 
L 229.37866 142.865898 
L 232.657998 143.403262 
L 235.937337 144.047315 
L 239.216676 144.783541 
L 242.496015 145.596527 
L 245.775354 146.470244 
L 249.054693 147.388328 
L 252.334032 148.334351 
L 255.61337 149.292093 
L 258.892709 150.245788 
L 262.172048 151.180357 
L 265.451387 152.081625 
L 268.730726 152.936512 
L 272.010065 153.733194 
L 275.289403 154.461248 
L 278.568742 155.111757 
L 281.848081 155.6774 
L 285.12742 156.152499 
L 288.406759 156.533048 
L 291.686098 156.816712 
L 294.965436 157.002794 
L 298.244775 157.092186 
L 301.524114 157.087288 
L 304.803453 156.991912 
L 308.082792 156.811164 
L 311.362131 156.551314 
L 314.64147 156.219645 
L 317.920808 155.824301 
L 321.200147 155.374119 
L 324.479486 154.878465 
L 327.758825 154.347058 
L 331.038164 153.789805 
L 334.317503 153.216632 
L 337.596841 152.637329 
L 340.87618 152.061393 
L 344.155519 151.497894 
L 347.434858 150.955343 
L 350.714197 150.441579 
L 353.993536 149.96367 
L 357.272874 149.527833 
L 360.552213 149.139365 
L 363.831552 148.802598 
L 367.110891 148.520865 
L 370.39023 148.296488 
L 373.669569 148.130781 
L 376.948908 148.024068 
L 380.228246 147.975719 
L 383.507585 147.984194 
" clip-path="url(#p8cc455fc07)" style="fill: none; stroke: #d62728; stroke-width: 1.5; stroke-linecap: square"/>
   </g>
   <g id="patch_3">
    <path d="M 42.620313 273.312 
L 42.620313 7.2 
" style="fill: none; stroke: #000000; stroke-width: 0.8; stroke-linejoin: miter; stroke-linecap: square"/>
   </g>
   <g id="patch_4">
    <path d="M 399.740313 273.312 
L 399.740313 7.2 
" style="fill: none; stroke: #000000; stroke-width: 0.8; stroke-linejoin: miter; stroke-linecap: square"/>
   </g>
   <g id="patch_5">
    <path d="M 42.620312 273.312 
L 399.740312 273.312 
" style="fill: none; stroke: #000000; stroke-width: 0.8; stroke-linejoin: miter; stroke-linecap: square"/>
   </g>
   <g id="patch_6">
    <path d="M 42.620312 7.2 
L 399.740312 7.2 
" style="fill: none; stroke: #000000; stroke-width: 0.8; stroke-linejoin: miter; stroke-linecap: square"/>
   </g>
   <g id="legend_1">
    <g id="patch_7">
     <path d="M 49.620313 73.9125 
L 160.951563 73.9125 
Q 162.951563 73.9125 162.951563 71.9125 
L 162.951563 14.2 
Q 162.951563 12.2 160.951563 12.2 
L 49.620313 12.2 
Q 47.620313 12.2 47.620313 14.2 
L 47.620313 71.9125 
Q 47.620313 73.9125 49.620313 73.9125 
z
" style="fill: #ffffff; opacity: 0.8; stroke: #cccccc; stroke-linejoin: miter"/>
    </g>
    <g id="line2d_19">
     <path d="M 51.620313 20.298438 
L 61.620313 20.298438 
L 71.620313 20.298438 
" style="fill: none; stroke: #1f77b4; stroke-width: 1.5; stroke-linecap: square"/>
    </g>
    <g id="text_17">
     <!-- Euler, dt=0.025 -->
     <g transform="translate(79.620313 23.798438) scale(0.1 -0.1)">
      <defs>
       <path id="DejaVuSans-45" d="M 628 4666 
L 3578 4666 
L 3578 4134 
L 1259 4134 
L 1259 2753 
L 3481 2753 
L 3481 2222 
L 1259 2222 
L 1259 531 
L 3634 531 
L 3634 0 
L 628 0 
L 628 4666 
z
" transform="scale(0.015625)"/>
       <path id="DejaVuSans-75" d="M 544 1381 
L 544 3500 
L 1119 3500 
L 1119 1403 
Q 1119 906 1312 657 
Q 1506 409 1894 409 
Q 2359 409 2629 706 
Q 2900 1003 2900 1516 
L 2900 3500 
L 3475 3500 
L 3475 0 
L 2900 0 
L 2900 538 
Q 2691 219 2414 64 
Q 2138 -91 1772 -91 
Q 1169 -91 856 284 
Q 544 659 544 1381 
z
M 1991 3584 
L 1991 3584 
z
" transform="scale(0.015625)"/>
       <path id="DejaVuSans-6c" d="M 603 4863 
L 1178 4863 
L 1178 0 
L 603 0 
L 603 4863 
z
" transform="scale(0.015625)"/>
       <path id="DejaVuSans-65" d="M 3597 1894 
L 3597 1613 
L 953 1613 
Q 991 1019 1311 708 
Q 1631 397 2203 397 
Q 2534 397 2845 478 
Q 3156 559 3463 722 
L 3463 178 
Q 3153 47 2828 -22 
Q 2503 -91 2169 -91 
Q 1331 -91 842 396 
Q 353 884 353 1716 
Q 353 2575 817 3079 
Q 1281 3584 2069 3584 
Q 2775 3584 3186 3129 
Q 3597 2675 3597 1894 
z
M 3022 2063 
Q 3016 2534 2758 2815 
Q 2500 3097 2075 3097 
Q 1594 3097 1305 2825 
Q 1016 2553 972 2059 
L 3022 2063 
z
" transform="scale(0.015625)"/>
       <path id="DejaVuSans-72" d="M 2631 2963 
Q 2534 3019 2420 3045 
Q 2306 3072 2169 3072 
Q 1681 3072 1420 2755 
Q 1159 2438 1159 1844 
L 1159 0 
L 581 0 
L 581 3500 
L 1159 3500 
L 1159 2956 
Q 1341 3275 1631 3429 
Q 1922 3584 2338 3584 
Q 2397 3584 2469 3576 
Q 2541 3569 2628 3553 
L 2631 2963 
z
" transform="scale(0.015625)"/>
       <path id="DejaVuSans-2c" d="M 750 794 
L 1409 794 
L 1409 256 
L 897 -744 
L 494 -744 
L 750 256 
L 750 794 
z
" transform="scale(0.015625)"/>
       <path id="DejaVuSans-20" transform="scale(0.015625)"/>
       <path id="DejaVuSans-64" d="M 2906 2969 
L 2906 4863 
L 3481 4863 
L 3481 0 
L 2906 0 
L 2906 525 
Q 2725 213 2448 61 
Q 2172 -91 1784 -91 
Q 1150 -91 751 415 
Q 353 922 353 1747 
Q 353 2572 751 3078 
Q 1150 3584 1784 3584 
Q 2172 3584 2448 3432 
Q 2725 3281 2906 2969 
z
M 947 1747 
Q 947 1113 1208 752 
Q 1469 391 1925 391 
Q 2381 391 2643 752 
Q 2906 1113 2906 1747 
Q 2906 2381 2643 2742 
Q 2381 3103 1925 3103 
Q 1469 3103 1208 2742 
Q 947 2381 947 1747 
z
" transform="scale(0.015625)"/>
       <path id="DejaVuSans-3d" d="M 678 2906 
L 4684 2906 
L 4684 2381 
L 678 2381 
L 678 2906 
z
M 678 1631 
L 4684 1631 
L 4684 1100 
L 678 1100 
L 678 1631 
z
" transform="scale(0.015625)"/>
      </defs>
      <use xlink:href="#DejaVuSans-45"/>
      <use xlink:href="#DejaVuSans-75" x="63.183594"/>
      <use xlink:href="#DejaVuSans-6c" x="126.5625"/>
      <use xlink:href="#DejaVuSans-65" x="154.345703"/>
      <use xlink:href="#DejaVuSans-72" x="215.869141"/>
      <use xlink:href="#DejaVuSans-2c" x="256.982422"/>
      <use xlink:href="#DejaVuSans-20" x="288.769531"/>
      <use xlink:href="#DejaVuSans-64" x="320.556641"/>
      <use xlink:href="#DejaVuSans-74" x="384.033203"/>
      <use xlink:href="#DejaVuSans-3d" x="423.242188"/>
      <use xlink:href="#DejaVuSans-30" x="507.03125"/>
      <use xlink:href="#DejaVuSans-2e" x="570.654297"/>
      <use xlink:href="#DejaVuSans-30" x="602.441406"/>
      <use xlink:href="#DejaVuSans-32" x="666.064453"/>
      <use xlink:href="#DejaVuSans-35" x="729.6875"/>
     </g>
    </g>
    <g id="line2d_20">
     <path d="M 51.620313 34.976563 
L 61.620313 34.976563 
L 71.620313 34.976563 
" style="fill: none; stroke: #ff7f0e; stroke-width: 1.5; stroke-linecap: square"/>
    </g>
    <g id="text_18">
     <!-- Euler, dt=0.1 -->
     <g transform="translate(79.620313 38.476563) scale(0.1 -0.1)">
      <use xlink:href="#DejaVuSans-45"/>
      <use xlink:href="#DejaVuSans-75" x="63.183594"/>
      <use xlink:href="#DejaVuSans-6c" x="126.5625"/>
      <use xlink:href="#DejaVuSans-65" x="154.345703"/>
      <use xlink:href="#DejaVuSans-72" x="215.869141"/>
      <use xlink:href="#DejaVuSans-2c" x="256.982422"/>
      <use xlink:href="#DejaVuSans-20" x="288.769531"/>
      <use xlink:href="#DejaVuSans-64" x="320.556641"/>
      <use xlink:href="#DejaVuSans-74" x="384.033203"/>
      <use xlink:href="#DejaVuSans-3d" x="423.242188"/>
      <use xlink:href="#DejaVuSans-30" x="507.03125"/>
      <use xlink:href="#DejaVuSans-2e" x="570.654297"/>
      <use xlink:href="#DejaVuSans-31" x="602.441406"/>
     </g>
    </g>
    <g id="line2d_21">
     <path d="M 51.620313 49.654688 
L 61.620313 49.654688 
L 71.620313 49.654688 
" style="fill: none; stroke: #2ca02c; stroke-width: 1.5; stroke-linecap: square"/>
    </g>
    <g id="text_19">
     <!-- Euler, dt=0.2 -->
     <g transform="translate(79.620313 53.154688) scale(0.1 -0.1)">
      <use xlink:href="#DejaVuSans-45"/>
      <use xlink:href="#DejaVuSans-75" x="63.183594"/>
      <use xlink:href="#DejaVuSans-6c" x="126.5625"/>
      <use xlink:href="#DejaVuSans-65" x="154.345703"/>
      <use xlink:href="#DejaVuSans-72" x="215.869141"/>
      <use xlink:href="#DejaVuSans-2c" x="256.982422"/>
      <use xlink:href="#DejaVuSans-20" x="288.769531"/>
      <use xlink:href="#DejaVuSans-64" x="320.556641"/>
      <use xlink:href="#DejaVuSans-74" x="384.033203"/>
      <use xlink:href="#DejaVuSans-3d" x="423.242188"/>
      <use xlink:href="#DejaVuSans-30" x="507.03125"/>
      <use xlink:href="#DejaVuSans-2e" x="570.654297"/>
      <use xlink:href="#DejaVuSans-32" x="602.441406"/>
     </g>
    </g>
    <g id="line2d_22">
     <path d="M 51.620313 64.332813 
L 61.620313 64.332813 
L 71.620313 64.332813 
" style="fill: none; stroke: #d62728; stroke-width: 1.5; stroke-linecap: square"/>
    </g>
    <g id="text_20">
     <!-- Exact -->
     <g transform="translate(79.620313 67.832813) scale(0.1 -0.1)">
      <defs>
       <path id="DejaVuSans-61" d="M 2194 1759 
Q 1497 1759 1228 1600 
Q 959 1441 959 1056 
Q 959 750 1161 570 
Q 1363 391 1709 391 
Q 2188 391 2477 730 
Q 2766 1069 2766 1631 
L 2766 1759 
L 2194 1759 
z
M 3341 1997 
L 3341 0 
L 2766 0 
L 2766 531 
Q 2569 213 2275 61 
Q 1981 -91 1556 -91 
Q 1019 -91 701 211 
Q 384 513 384 1019 
Q 384 1609 779 1909 
Q 1175 2209 1959 2209 
L 2766 2209 
L 2766 2266 
Q 2766 2663 2505 2880 
Q 2244 3097 1772 3097 
Q 1472 3097 1187 3025 
Q 903 2953 641 2809 
L 641 3341 
Q 956 3463 1253 3523 
Q 1550 3584 1831 3584 
Q 2591 3584 2966 3190 
Q 3341 2797 3341 1997 
z
" transform="scale(0.015625)"/>
       <path id="DejaVuSans-63" d="M 3122 3366 
L 3122 2828 
Q 2878 2963 2633 3030 
Q 2388 3097 2138 3097 
Q 1578 3097 1268 2742 
Q 959 2388 959 1747 
Q 959 1106 1268 751 
Q 1578 397 2138 397 
Q 2388 397 2633 464 
Q 2878 531 3122 666 
L 3122 134 
Q 2881 22 2623 -34 
Q 2366 -91 2075 -91 
Q 1284 -91 818 406 
Q 353 903 353 1747 
Q 353 2603 823 3093 
Q 1294 3584 2113 3584 
Q 2378 3584 2631 3529 
Q 2884 3475 3122 3366 
z
" transform="scale(0.015625)"/>
      </defs>
      <use xlink:href="#DejaVuSans-45"/>
      <use xlink:href="#DejaVuSans-78" x="63.183594"/>
      <use xlink:href="#DejaVuSans-61" x="122.363281"/>
      <use xlink:href="#DejaVuSans-63" x="183.642578"/>
      <use xlink:href="#DejaVuSans-74" x="238.623047"/>
     </g>
    </g>
   </g>
  </g>
 </g>
 <defs>
  <clipPath id="p8cc455fc07">
   <rect x="42.620313" y="7.2" width="357.12" height="266.112"/>
  </clipPath>
 </defs>
</svg>
