<?xml version="1.0" encoding="utf-8" standalone="no"?>
<!DOCTYPE svg PUBLIC "-//W3C//DTD SVG 1.1//EN"
  "http://www.w3.org/Graphics/SVG/1.1/DTD/svg11.dtd">
<svg xmlns:xlink="http://www.w3.org/1999/xlink" width="393.262187pt" height="297.190125pt" viewBox="0 0 393.262187 297.190125" xmlns="http://www.w3.org/2000/svg" version="1.1">
 <metadata>
  <rdf:RDF xmlns:dc="http://purl.org/dc/elements/1.1/" xmlns:cc="http://creativecommons.org/ns#" xmlns:rdf="http://www.w3.org/1999/02/22-rdf-syntax-ns#">
   <cc:Work>
    <dc:type rdf:resource="http://purl.org/dc/dcmitype/StillImage"/>
    <dc:date>2023-09-22T23:55:50.885203</dc:date>
    <dc:format>image/svg+xml</dc:format>
    <dc:creator>
     <cc:Agent>
      <dc:title>Matplotlib v3.7.1, https://matplotlib.org/</dc:title>
     </cc:Agent>
    </dc:creator>
   </cc:Work>
  </rdf:RDF>
 </metadata>
 <defs>
  <style type="text/css">*{stroke-linejoin: round; stroke-linecap: butt}</style>
 </defs>
 <g id="figure_1">
  <g id="patch_1">
   <path d="M 0 297.190125 
L 393.262187 297.190125 
L 393.262187 0 
L 0 0 
z
" style="fill: #ffffff"/>
  </g>
  <g id="axes_1">
   <g id="patch_2">
    <path d="M 28.942188 273.312 
L 386.062188 273.312 
L 386.062188 7.2 
L 28.942188 7.2 
z
" style="fill: #ffffff"/>
   </g>
   <g id="Quiver_1">
    <path d="M 45.80622 260.584695 
L 61.623974 276.40245 
L 62.255279 274.508535 
L 66.674414 282.715499 
L 58.46745 278.296365 
L 60.361365 277.66506 
L 44.54361 261.847305 
L 45.80622 260.584695 
" clip-path="url(#p5d7e72f5c9)"/>
    <path d="M 75.260521 260.530132 
L 90.587208 273.302372 
L 91.044454 271.359079 
L 96.188463 279.132249 
L 87.615114 275.474287 
L 89.444095 274.674107 
L 74.117408 261.901868 
L 75.260521 260.530132 
" clip-path="url(#p5d7e72f5c9)"/>
    <path d="M 104.69825 260.473145 
L 119.512059 270.349018 
L 119.759677 268.368073 
L 125.702513 275.548999 
L 116.788259 272.8252 
L 118.521586 271.834727 
L 103.707778 261.958855 
L 104.69825 260.473145 
" clip-path="url(#p5d7e72f5c9)"/>
    <path d="M 134.116336 260.417455 
L 148.428934 267.573754 
L 148.428934 265.577393 
L 155.216563 271.96575 
L 146.0333 270.36866 
L 147.630389 269.170843 
L 133.317791 262.014545 
L 134.116336 260.417455 
" clip-path="url(#p5d7e72f5c9)"/>
    <path d="M 163.513441 260.369016 
L 177.39008 264.994562 
L 177.107752 263.018265 
L 184.730612 268.3825 
L 175.413783 268.100172 
L 176.825424 266.688531 
L 162.948785 262.062984 
L 163.513441 260.369016 
" clip-path="url(#p5d7e72f5c9)"/>
    <path d="M 192.891938 260.335348 
L 206.465565 262.597619 
L 205.878463 260.689538 
L 214.244662 264.79925 
L 204.997811 265.973453 
L 206.172014 264.358924 
L 192.598387 262.096652 
L 192.891938 260.335348 
" clip-path="url(#p5d7e72f5c9)"/>
    <path d="M 222.259212 260.3232 
L 235.723511 260.3232 
L 234.830711 258.5376 
L 243.758711 261.216 
L 234.830711 263.8944 
L 235.723511 262.1088 
L 222.259212 262.1088 
L 222.259212 260.3232 
" clip-path="url(#p5d7e72f5c9)"/>
    <path d="M 251.626486 260.335348 
L 265.200113 258.073076 
L 264.02591 256.458547 
L 273.272761 257.63275 
L 264.906562 261.742462 
L 265.493664 259.834381 
L 251.920037 262.096652 
L 251.626486 260.335348 
" clip-path="url(#p5d7e72f5c9)"/>
    <path d="M 281.004983 260.369016 
L 294.881622 255.743469 
L 293.469982 254.331828 
L 302.786811 254.0495 
L 295.163951 259.413735 
L 295.446279 257.437438 
L 281.56964 262.062984 
L 281.004983 260.369016 
" clip-path="url(#p5d7e72f5c9)"/>
    <path d="M 310.402089 260.417455 
L 324.714686 253.261157 
L 323.117597 252.06334 
L 332.30086 250.46625 
L 325.513231 256.854607 
L 325.513231 254.858246 
L 311.200633 262.014545 
L 310.402089 260.417455 
" clip-path="url(#p5d7e72f5c9)"/>
    <path d="M 339.820174 260.473145 
L 354.633983 250.597273 
L 352.900656 249.6068 
L 361.81491 246.883001 
L 355.872074 254.063927 
L 355.624456 252.082982 
L 340.810647 261.958855 
L 339.820174 260.473145 
" clip-path="url(#p5d7e72f5c9)"/>
    <path d="M 369.257904 260.530132 
L 384.584591 247.757893 
L 382.75561 246.957713 
L 391.328959 243.299751 
L 386.18495 251.072921 
L 385.727704 249.129628 
L 370.401017 261.901868 
L 369.257904 260.530132 
" clip-path="url(#p5d7e72f5c9)"/>
    <path d="M 45.860783 239.188675 
L 58.633022 254.515363 
L 59.433202 252.686382 
L 63.091164 261.259731 
L 55.317994 256.115721 
L 57.261286 255.658476 
L 44.489047 240.331789 
L 45.860783 239.188675 
" clip-path="url(#p5d7e72f5c9)"/>
    <path d="M 75.320269 239.128927 
L 87.554774 251.363432 
L 88.186079 249.469517 
L 92.605214 257.676481 
L 84.398249 253.257347 
L 86.292164 252.626042 
L 74.057659 240.391537 
L 75.320269 239.128927 
" clip-path="url(#p5d7e72f5c9)"/>
    <path d="M 104.760742 239.063072 
L 116.402554 248.376522 
L 116.82085 246.424475 
L 122.119263 254.093231 
L 113.474483 250.607433 
L 115.287098 249.770841 
L 103.645286 240.457392 
L 104.760742 239.063072 
" clip-path="url(#p5d7e72f5c9)"/>
    <path d="M 134.176405 238.994662 
L 145.202527 245.610336 
L 145.355641 243.619854 
L 151.633313 250.509982 
L 142.59959 248.213273 
L 144.283844 247.141475 
L 133.257722 240.525802 
L 134.176405 238.994662 
" clip-path="url(#p5d7e72f5c9)"/>
    <path d="M 163.562691 238.931288 
L 174.018444 243.113589 
L 173.852655 241.124124 
L 181.147362 246.926732 
L 171.86319 246.097788 
L 173.355289 244.771477 
L 162.899536 240.589176 
L 163.562691 238.931288 
" clip-path="url(#p5d7e72f5c9)"/>
    <path d="M 192.920255 238.88477 
L 202.957343 240.892187 
L 202.432065 238.96617 
L 210.661412 243.343482 
L 201.38151 244.218944 
L 202.607158 242.643112 
L 192.57007 240.635694 
L 192.920255 238.88477 
" clip-path="url(#p5d7e72f5c9)"/>
    <path d="M 222.259212 238.867432 
L 232.140262 238.867432 
L 231.247462 237.081832 
L 240.175462 239.760232 
L 231.247462 242.438632 
L 232.140262 240.653032 
L 222.259212 240.653032 
L 222.259212 238.867432 
" clip-path="url(#p5d7e72f5c9)"/>
    <path d="M 251.598169 238.88477 
L 261.635257 236.877352 
L 260.409609 235.30152 
L 269.689511 236.176982 
L 261.460164 240.554294 
L 261.985442 238.628277 
L 251.948354 240.635694 
L 251.598169 238.88477 
" clip-path="url(#p5d7e72f5c9)"/>
    <path d="M 280.955734 238.931288 
L 291.411487 234.748987 
L 289.919388 233.422676 
L 299.203561 232.593732 
L 291.908854 238.39634 
L 292.074642 236.406875 
L 281.618889 240.589176 
L 280.955734 238.931288 
" clip-path="url(#p5d7e72f5c9)"/>
    <path d="M 310.342019 238.994662 
L 321.368141 232.378989 
L 319.683888 231.307192 
L 328.71761 229.010483 
L 322.439939 235.90061 
L 322.286825 233.910128 
L 311.260703 240.525802 
L 310.342019 238.994662 
" clip-path="url(#p5d7e72f5c9)"/>
    <path d="M 339.757683 239.063072 
L 351.399495 229.749623 
L 349.58688 228.913031 
L 358.23166 225.427233 
L 352.933246 233.095989 
L 352.514951 231.143942 
L 340.873138 240.457392 
L 339.757683 239.063072 
" clip-path="url(#p5d7e72f5c9)"/>
    <path d="M 369.198155 239.128927 
L 381.43266 226.894422 
L 379.538745 226.263117 
L 387.745709 221.843983 
L 383.326575 230.050947 
L 382.69527 228.157032 
L 370.460765 240.391537 
L 369.198155 239.128927 
" clip-path="url(#p5d7e72f5c9)"/>
    <path d="M 45.917769 217.809228 
L 55.793642 232.623036 
L 56.784114 230.889709 
L 59.507914 239.803963 
L 52.326987 233.861127 
L 54.307933 233.613509 
L 44.43206 218.7997 
L 45.917769 217.809228 
" clip-path="url(#p5d7e72f5c9)"/>
    <path d="M 75.386124 217.746736 
L 84.699574 229.388549 
L 85.536165 227.575933 
L 89.021964 236.220713 
L 81.353207 230.9223 
L 83.305254 230.504004 
L 73.991805 218.862192 
L 75.386124 217.746736 
" clip-path="url(#p5d7e72f5c9)"/>
    <path d="M 104.834319 217.673159 
L 113.485574 226.324414 
L 114.116879 224.430499 
L 118.536013 232.637463 
L 110.329049 228.218329 
L 112.222964 227.587024 
L 103.571709 218.935769 
L 104.834319 217.673159 
" clip-path="url(#p5d7e72f5c9)"/>
    <path d="M 134.252744 217.590224 
L 142.157583 223.518854 
L 142.514703 221.554694 
L 148.050063 229.054214 
L 139.300623 225.840134 
L 141.086223 224.947334 
L 133.181384 219.018704 
L 134.252744 217.590224 
" clip-path="url(#p5d7e72f5c9)"/>
    <path d="M 163.630385 217.50592 
L 170.776483 221.078969 
L 170.776483 219.082607 
L 177.564113 225.470964 
L 168.38085 223.873875 
L 169.977939 222.676058 
L 162.831841 219.103009 
L 163.630385 217.50592 
" clip-path="url(#p5d7e72f5c9)"/>
    <path d="M 192.961699 217.438321 
L 199.499409 219.072748 
L 199.066337 217.123926 
L 207.078162 221.887714 
L 197.767122 222.320786 
L 199.066337 220.805035 
L 192.528627 219.170607 
L 192.961699 217.438321 
" clip-path="url(#p5d7e72f5c9)"/>
    <path d="M 222.259212 217.411664 
L 228.557012 217.411664 
L 227.664212 215.626064 
L 236.592212 218.304464 
L 227.664212 220.982864 
L 228.557012 219.197264 
L 222.259212 219.197264 
L 222.259212 217.411664 
" clip-path="url(#p5d7e72f5c9)"/>
    <path d="M 251.556726 217.438321 
L 258.094436 215.803893 
L 256.795222 214.288143 
L 266.106261 214.721214 
L 258.094436 219.485002 
L 258.527508 217.53618 
L 251.989798 219.170607 
L 251.556726 217.438321 
" clip-path="url(#p5d7e72f5c9)"/>
    <path d="M 280.888039 217.50592 
L 288.034137 213.932871 
L 286.437048 212.735054 
L 295.620311 211.137964 
L 288.832682 217.526321 
L 288.832682 215.52996 
L 281.686584 219.103009 
L 280.888039 217.50592 
" clip-path="url(#p5d7e72f5c9)"/>
    <path d="M 310.265681 217.590224 
L 318.17052 211.661595 
L 316.38492 210.768795 
L 325.13436 207.554715 
L 319.599 215.054235 
L 319.24188 213.090075 
L 311.337041 219.018704 
L 310.265681 217.590224 
" clip-path="url(#p5d7e72f5c9)"/>
    <path d="M 339.684106 217.673159 
L 348.335361 209.021904 
L 346.441446 208.390599 
L 354.64841 203.971465 
L 350.229275 212.178429 
L 349.597971 210.284514 
L 340.946716 218.935769 
L 339.684106 217.673159 
" clip-path="url(#p5d7e72f5c9)"/>
    <path d="M 369.132301 217.746736 
L 378.44575 206.104924 
L 376.493703 205.686628 
L 384.16246 200.388215 
L 380.676661 209.032995 
L 379.84007 207.22038 
L 370.52662 218.862192 
L 369.132301 217.746736 
" clip-path="url(#p5d7e72f5c9)"/>
    <path d="M 45.973459 196.449424 
L 53.129758 210.762022 
L 54.327575 209.164932 
L 55.924664 218.348195 
L 49.536308 211.560566 
L 51.532669 211.560566 
L 44.37637 197.247968 
L 45.973459 196.449424 
" clip-path="url(#p5d7e72f5c9)"/>
    <path d="M 75.454534 196.389354 
L 82.070207 207.415476 
L 83.142005 205.731223 
L 85.438714 214.764945 
L 78.548587 208.487274 
L 80.539068 208.33416 
L 73.923395 197.308038 
L 75.454534 196.389354 
" clip-path="url(#p5d7e72f5c9)"/>
    <path d="M 104.917254 196.313016 
L 110.845883 204.217856 
L 111.738683 202.432256 
L 114.952763 211.181696 
L 107.453243 205.646336 
L 109.417403 205.289216 
L 103.488774 197.384376 
L 104.917254 196.313016 
" clip-path="url(#p5d7e72f5c9)"/>
    <path d="M 134.348368 196.217391 
L 139.416374 201.285396 
L 140.047679 199.391482 
L 144.466813 207.598446 
L 136.259849 203.179311 
L 138.153764 202.548006 
L 133.085759 197.480001 
L 134.348368 196.217391 
" clip-path="url(#p5d7e72f5c9)"/>
    <path d="M 163.726349 196.105842 
L 167.790408 198.815214 
L 168.038027 196.834269 
L 173.980863 204.015196 
L 165.066609 201.291396 
L 166.799936 200.300923 
L 162.735877 197.591551 
L 163.726349 196.105842 
" clip-path="url(#p5d7e72f5c9)"/>
    <path d="M 193.027491 196.001712 
L 196.15438 197.044008 
L 195.872052 195.067711 
L 203.494912 200.431946 
L 194.178083 200.149618 
L 195.589724 198.737977 
L 192.462835 197.695681 
L 193.027491 196.001712 
" clip-path="url(#p5d7e72f5c9)"/>
    <path d="M 222.259212 195.955896 
L 224.973762 195.955896 
L 224.080962 194.170296 
L 233.008962 196.848696 
L 224.080962 199.527096 
L 224.973762 197.741496 
L 222.259212 197.741496 
L 222.259212 195.955896 
" clip-path="url(#p5d7e72f5c9)"/>
    <path d="M 251.490934 196.001712 
L 254.617823 194.959415 
L 253.206182 193.547774 
L 262.523011 193.265446 
L 254.900151 198.629681 
L 255.18248 196.653384 
L 252.05559 197.695681 
L 251.490934 196.001712 
" clip-path="url(#p5d7e72f5c9)"/>
    <path d="M 280.792075 196.105842 
L 284.856134 193.396469 
L 283.122807 192.405996 
L 292.037061 189.682196 
L 286.094225 196.863123 
L 285.846607 194.882178 
L 281.782548 197.591551 
L 280.792075 196.105842 
" clip-path="url(#p5d7e72f5c9)"/>
    <path d="M 310.170056 196.217391 
L 315.238061 191.149386 
L 313.344146 190.518081 
L 321.551111 186.098947 
L 317.131976 194.305911 
L 316.500671 192.411996 
L 311.432666 197.480001 
L 310.170056 196.217391 
" clip-path="url(#p5d7e72f5c9)"/>
    <path d="M 339.601171 196.313016 
L 345.5298 188.408177 
L 343.56564 188.051057 
L 351.06516 182.515697 
L 347.85108 191.265137 
L 346.95828 189.479537 
L 341.029651 197.384376 
L 339.601171 196.313016 
" clip-path="url(#p5d7e72f5c9)"/>
    <path d="M 369.063891 196.389354 
L 375.679564 185.363232 
L 373.689083 185.210118 
L 380.57921 178.932447 
L 378.282501 187.966169 
L 377.210703 186.281916 
L 370.59503 197.308038 
L 369.063891 196.389354 
" clip-path="url(#p5d7e72f5c9)"/>
    <path d="M 46.021899 175.1106 
L 50.647446 188.987239 
L 52.059086 187.575598 
L 52.341414 196.892427 
L 46.97718 189.269567 
L 48.953477 189.551895 
L 44.32793 175.675256 
L 46.021899 175.1106 
" clip-path="url(#p5d7e72f5c9)"/>
    <path d="M 75.517908 175.061351 
L 79.70021 185.517104 
L 81.02652 184.025005 
L 81.855464 193.309177 
L 76.052856 186.01447 
L 78.042322 186.180259 
L 73.86002 175.724506 
L 75.517908 175.061351 
" clip-path="url(#p5d7e72f5c9)"/>
    <path d="M 105.001559 174.993656 
L 108.574608 182.139754 
L 109.772424 180.542665 
L 111.369514 189.725928 
L 104.981157 182.938299 
L 106.977518 182.938299 
L 103.404469 175.792201 
L 105.001559 174.993656 
" clip-path="url(#p5d7e72f5c9)"/>
    <path d="M 134.459918 174.897692 
L 137.169291 178.961751 
L 138.159763 177.228424 
L 140.883563 186.142678 
L 133.702636 180.199842 
L 135.683582 179.952224 
L 132.974209 175.888165 
L 134.459918 174.897692 
" clip-path="url(#p5d7e72f5c9)"/>
    <path d="M 163.862418 174.761623 
L 165.347173 176.246379 
L 165.978478 174.352464 
L 170.397613 182.559428 
L 162.190649 178.140293 
L 164.084563 177.508988 
L 162.599808 176.024233 
L 163.862418 174.761623 
" clip-path="url(#p5d7e72f5c9)"/>
    <path d="M 193.103488 174.676278 
L 193.820138 175.034603 
L 193.820138 173.242978 
L 199.911662 178.976178 
L 191.670188 177.542878 
L 193.103488 176.467903 
L 192.386838 176.109578 
L 193.103488 174.676278 
" clip-path="url(#p5d7e72f5c9)"/>
    <path d="M 222.259212 174.676278 
L 222.975862 174.676278 
L 222.259212 173.242978 
L 229.425712 175.392928 
L 222.259212 177.542878 
L 222.975862 176.109578 
L 222.259212 176.109578 
L 222.259212 174.676278 
" clip-path="url(#p5d7e72f5c9)"/>
    <path d="M 251.414937 174.676278 
L 252.131587 174.317953 
L 250.698287 173.242978 
L 258.939762 171.809678 
L 252.848237 177.542878 
L 252.848237 175.751253 
L 252.131587 176.109578 
L 251.414937 174.676278 
" clip-path="url(#p5d7e72f5c9)"/>
    <path d="M 280.656007 174.761623 
L 282.140762 173.276868 
L 280.246847 172.645563 
L 288.453811 168.226429 
L 284.034677 176.433393 
L 283.403372 174.539478 
L 281.918616 176.024233 
L 280.656007 174.761623 
" clip-path="url(#p5d7e72f5c9)"/>
    <path d="M 310.058507 174.897692 
L 312.767879 170.833633 
L 310.786934 170.586015 
L 317.967861 164.643179 
L 315.244061 173.557433 
L 314.253588 171.824106 
L 311.544216 175.888165 
L 310.058507 174.897692 
" clip-path="url(#p5d7e72f5c9)"/>
    <path d="M 339.516866 174.993656 
L 343.089915 167.847558 
L 341.093554 167.847558 
L 347.48191 161.059929 
L 345.884821 170.243192 
L 344.687004 168.646102 
L 341.113955 175.792201 
L 339.516866 174.993656 
" clip-path="url(#p5d7e72f5c9)"/>
    <path d="M 369.000516 175.061351 
L 373.182818 164.605597 
L 371.193352 164.771386 
L 376.99596 157.476679 
L 376.167016 166.760852 
L 374.840706 165.268752 
L 370.658404 175.724506 
L 369.000516 175.061351 
" clip-path="url(#p5d7e72f5c9)"/>
    <path d="M 46.055567 153.790385 
L 48.317838 167.364011 
L 49.932368 166.189808 
L 48.758165 175.436659 
L 44.648453 167.070461 
L 46.556533 167.657562 
L 44.294262 154.083936 
L 46.055567 153.790385 
" clip-path="url(#p5d7e72f5c9)"/>
    <path d="M 75.564427 153.762068 
L 77.571844 163.799155 
L 79.147677 162.573508 
L 78.272214 171.853409 
L 73.894902 163.624063 
L 75.820919 164.14934 
L 73.813502 154.112253 
L 75.564427 153.762068 
" clip-path="url(#p5d7e72f5c9)"/>
    <path d="M 105.069157 153.720624 
L 106.703585 160.258335 
L 108.219335 158.95912 
L 107.786264 168.27016 
L 103.022476 160.258335 
L 104.971298 160.691406 
L 103.336871 154.153696 
L 105.069157 153.720624 
" clip-path="url(#p5d7e72f5c9)"/>
    <path d="M 134.564048 153.654832 
L 135.606344 156.781722 
L 137.017985 155.370081 
L 137.300313 164.68691 
L 131.936079 157.06405 
L 133.912376 157.346378 
L 132.870079 154.219488 
L 134.564048 153.654832 
" clip-path="url(#p5d7e72f5c9)"/>
    <path d="M 163.947763 153.578835 
L 164.306088 154.295485 
L 165.381063 152.862185 
L 166.814363 161.10366 
L 161.081163 155.012135 
L 162.872788 155.012135 
L 162.514463 154.295485 
L 163.947763 153.578835 
" clip-path="url(#p5d7e72f5c9)"/>
    <path d="M 193.103488 153.578835 
L 193.461813 153.93716 
L 193.820138 152.862185 
L 196.328413 157.52041 
L 191.670188 155.012135 
L 192.745163 154.65381 
L 192.386838 154.295485 
L 193.103488 153.578835 
" clip-path="url(#p5d7e72f5c9)"/>
    <path d="M 222.259212 153.578835 
L 222.617537 153.578835 
L 222.259212 152.862185 
L 225.842462 153.93716 
L 222.259212 155.012135 
L 222.617537 154.295485 
L 222.259212 154.295485 
L 222.259212 153.578835 
" clip-path="url(#p5d7e72f5c9)"/>
    <path d="M 251.414937 153.578835 
L 251.773262 153.22051 
L 250.698287 152.862185 
L 255.356512 150.35391 
L 252.848237 155.012135 
L 252.489912 153.93716 
L 252.131587 154.295485 
L 251.414937 153.578835 
" clip-path="url(#p5d7e72f5c9)"/>
    <path d="M 280.570661 153.578835 
L 280.928986 152.862185 
L 279.137362 152.862185 
L 284.870561 146.770661 
L 283.437261 155.012135 
L 282.362286 153.578835 
L 282.003961 154.295485 
L 280.570661 153.578835 
" clip-path="url(#p5d7e72f5c9)"/>
    <path d="M 309.954377 153.654832 
L 310.996673 150.527943 
L 309.020376 150.810271 
L 314.384611 143.187411 
L 314.102283 152.50424 
L 312.690642 151.092599 
L 311.648346 154.219488 
L 309.954377 153.654832 
" clip-path="url(#p5d7e72f5c9)"/>
    <path d="M 339.449267 153.720624 
L 341.083695 147.182914 
L 339.134873 147.615986 
L 343.89866 139.604161 
L 344.331732 148.915201 
L 342.815981 147.615986 
L 341.181554 154.153696 
L 339.449267 153.720624 
" clip-path="url(#p5d7e72f5c9)"/>
    <path d="M 368.953998 153.762068 
L 370.961415 143.72498 
L 369.035398 144.250258 
L 373.41271 136.020911 
L 374.288172 145.300813 
L 372.71234 144.075165 
L 370.704923 154.112253 
L 368.953998 153.762068 
" clip-path="url(#p5d7e72f5c9)"/>
    <path d="M 46.067715 132.481392 
L 46.067715 145.945691 
L 47.853315 145.052891 
L 45.174915 153.980891 
L 42.496515 145.052891 
L 44.282115 145.945691 
L 44.282115 132.481392 
L 46.067715 132.481392 
" clip-path="url(#p5d7e72f5c9)"/>
    <path d="M 75.581764 132.481392 
L 75.581764 142.362442 
L 77.367364 141.469642 
L 74.688964 150.397642 
L 72.010564 141.469642 
L 73.796164 142.362442 
L 73.796164 132.481392 
L 75.581764 132.481392 
" clip-path="url(#p5d7e72f5c9)"/>
    <path d="M 105.095814 132.481392 
L 105.095814 138.779192 
L 106.881414 137.886392 
L 104.203014 146.814392 
L 101.524614 137.886392 
L 103.310214 138.779192 
L 103.310214 132.481392 
L 105.095814 132.481392 
" clip-path="url(#p5d7e72f5c9)"/>
    <path d="M 134.609864 132.481392 
L 134.609864 135.195942 
L 136.395464 134.303142 
L 133.717064 143.231142 
L 131.038664 134.303142 
L 132.824264 135.195942 
L 132.824264 132.481392 
L 134.609864 132.481392 
" clip-path="url(#p5d7e72f5c9)"/>
    <path d="M 163.947763 132.481392 
L 163.947763 133.198042 
L 165.381063 132.481392 
L 163.231113 139.647892 
L 161.081163 132.481392 
L 162.514463 133.198042 
L 162.514463 132.481392 
L 163.947763 132.481392 
" clip-path="url(#p5d7e72f5c9)"/>
    <path d="M 193.103488 132.481392 
L 193.103488 132.839717 
L 193.820138 132.481392 
L 192.745163 136.064642 
L 191.670188 132.481392 
L 192.386838 132.839717 
L 192.386838 132.481392 
L 193.103488 132.481392 
" clip-path="url(#p5d7e72f5c9)"/>
    <path d="M 223.152012 132.481392 
L 222.705612 131.708205 
L 221.812812 131.708205 
L 221.366412 132.481392 
L 221.812812 133.25458 
L 222.705612 133.25458 
L 223.152012 132.481392 
L 222.705612 131.708205 
" clip-path="url(#p5d7e72f5c9)"/>
    <path d="M 251.414937 132.481392 
L 251.414937 132.123067 
L 250.698287 132.481392 
L 251.773262 128.898142 
L 252.848237 132.481392 
L 252.131587 132.123067 
L 252.131587 132.481392 
L 251.414937 132.481392 
" clip-path="url(#p5d7e72f5c9)"/>
    <path d="M 280.570661 132.481392 
L 280.570661 131.764742 
L 279.137362 132.481392 
L 281.287311 125.314893 
L 283.437261 132.481392 
L 282.003961 131.764742 
L 282.003961 132.481392 
L 280.570661 132.481392 
" clip-path="url(#p5d7e72f5c9)"/>
    <path d="M 309.908561 132.481392 
L 309.908561 129.766843 
L 308.122961 130.659643 
L 310.801361 121.731643 
L 313.479761 130.659643 
L 311.694161 129.766843 
L 311.694161 132.481392 
L 309.908561 132.481392 
" clip-path="url(#p5d7e72f5c9)"/>
    <path d="M 339.422611 132.481392 
L 339.422611 126.183593 
L 337.637011 127.076393 
L 340.315411 118.148393 
L 342.993811 127.076393 
L 341.208211 126.183593 
L 341.208211 132.481392 
L 339.422611 132.481392 
" clip-path="url(#p5d7e72f5c9)"/>
    <path d="M 368.93666 132.481392 
L 368.93666 122.600343 
L 367.15106 123.493143 
L 369.82946 114.565143 
L 372.50786 123.493143 
L 370.72226 122.600343 
L 370.72226 132.481392 
L 368.93666 132.481392 
" clip-path="url(#p5d7e72f5c9)"/>
    <path d="M 46.055567 111.1724 
L 43.793296 124.746026 
L 45.701377 124.158925 
L 41.591665 132.525123 
L 40.417462 123.278272 
L 42.031991 124.452476 
L 44.294262 110.878849 
L 46.055567 111.1724 
" clip-path="url(#p5d7e72f5c9)"/>
    <path d="M 75.564427 111.200717 
L 73.557009 121.237804 
L 75.483027 120.712527 
L 71.105715 128.941874 
L 70.230252 119.661972 
L 71.806084 120.887619 
L 73.813502 110.850532 
L 75.564427 111.200717 
" clip-path="url(#p5d7e72f5c9)"/>
    <path d="M 105.069157 111.24216 
L 103.43473 117.779871 
L 105.383552 117.346799 
L 100.619764 125.358624 
L 100.186692 116.047584 
L 101.702443 117.346799 
L 103.336871 110.809089 
L 105.069157 111.24216 
" clip-path="url(#p5d7e72f5c9)"/>
    <path d="M 134.564048 111.307953 
L 133.521751 114.434842 
L 135.498049 114.152514 
L 130.133814 121.775374 
L 130.416142 112.458545 
L 131.827783 113.870186 
L 132.870079 110.743296 
L 134.564048 111.307953 
" clip-path="url(#p5d7e72f5c9)"/>
    <path d="M 163.947763 111.383949 
L 163.589438 112.100599 
L 165.381063 112.100599 
L 159.647863 118.192124 
L 161.081163 109.950649 
L 162.156138 111.383949 
L 162.514463 110.667299 
L 163.947763 111.383949 
" clip-path="url(#p5d7e72f5c9)"/>
    <path d="M 193.103488 111.383949 
L 192.745163 111.742274 
L 193.820138 112.100599 
L 189.161913 114.608874 
L 191.670188 109.950649 
L 192.028513 111.025624 
L 192.386838 110.667299 
L 193.103488 111.383949 
" clip-path="url(#p5d7e72f5c9)"/>
    <path d="M 222.259212 111.383949 
L 221.900887 111.383949 
L 222.259212 112.100599 
L 218.675962 111.025624 
L 222.259212 109.950649 
L 221.900887 110.667299 
L 222.259212 110.667299 
L 222.259212 111.383949 
" clip-path="url(#p5d7e72f5c9)"/>
    <path d="M 251.414937 111.383949 
L 251.056612 111.025624 
L 250.698287 112.100599 
L 248.190012 107.442375 
L 252.848237 109.950649 
L 251.773262 110.308974 
L 252.131587 110.667299 
L 251.414937 111.383949 
" clip-path="url(#p5d7e72f5c9)"/>
    <path d="M 280.570661 111.383949 
L 280.212337 110.667299 
L 279.137362 112.100599 
L 277.704062 103.859125 
L 283.437261 109.950649 
L 281.645636 109.950649 
L 282.003961 110.667299 
L 280.570661 111.383949 
" clip-path="url(#p5d7e72f5c9)"/>
    <path d="M 309.954377 111.307953 
L 308.91208 108.181063 
L 307.500439 109.592704 
L 307.218111 100.275875 
L 312.582346 107.898735 
L 310.606049 107.616407 
L 311.648346 110.743296 
L 309.954377 111.307953 
" clip-path="url(#p5d7e72f5c9)"/>
    <path d="M 339.449267 111.24216 
L 337.81484 104.70445 
L 336.299089 106.003665 
L 336.732161 96.692625 
L 341.495949 104.70445 
L 339.547126 104.271378 
L 341.181554 110.809089 
L 339.449267 111.24216 
" clip-path="url(#p5d7e72f5c9)"/>
    <path d="M 368.953998 111.200717 
L 366.94658 101.163629 
L 365.370748 102.389277 
L 366.24621 93.109375 
L 370.623523 101.338722 
L 368.697505 100.813445 
L 370.704923 110.850532 
L 368.953998 111.200717 
" clip-path="url(#p5d7e72f5c9)"/>
    <path d="M 46.021899 89.852185 
L 41.396353 103.728824 
L 43.37265 103.446495 
L 38.008415 111.069356 
L 38.290743 101.752527 
L 39.702384 103.164167 
L 44.32793 89.287528 
L 46.021899 89.852185 
" clip-path="url(#p5d7e72f5c9)"/>
    <path d="M 75.517908 89.901434 
L 71.335607 100.357187 
L 73.325073 100.191399 
L 67.522465 107.486106 
L 68.351409 98.201933 
L 69.677719 99.694032 
L 73.86002 89.238279 
L 75.517908 89.901434 
" clip-path="url(#p5d7e72f5c9)"/>
    <path d="M 105.001559 89.969129 
L 101.42851 97.115227 
L 103.424871 97.115227 
L 97.036514 103.902856 
L 98.633603 94.719593 
L 99.83142 96.316682 
L 103.404469 89.170584 
L 105.001559 89.969129 
" clip-path="url(#p5d7e72f5c9)"/>
    <path d="M 134.459918 90.065093 
L 131.750545 94.129152 
L 133.731491 94.37677 
L 126.550564 100.319606 
L 129.274364 91.405352 
L 130.264836 93.138679 
L 132.974209 89.07462 
L 134.459918 90.065093 
" clip-path="url(#p5d7e72f5c9)"/>
    <path d="M 163.862418 90.201161 
L 162.377663 91.685917 
L 164.271578 92.317222 
L 156.064613 96.736356 
L 160.483748 88.529392 
L 161.115053 90.423307 
L 162.599808 88.938551 
L 163.862418 90.201161 
" clip-path="url(#p5d7e72f5c9)"/>
    <path d="M 193.103488 90.286506 
L 192.386838 90.644831 
L 193.820138 91.719806 
L 185.578663 93.153106 
L 191.670188 87.419907 
L 191.670188 89.211531 
L 192.386838 88.853206 
L 193.103488 90.286506 
" clip-path="url(#p5d7e72f5c9)"/>
    <path d="M 222.259212 90.286506 
L 221.542562 90.286506 
L 222.259212 91.719806 
L 215.092713 89.569856 
L 222.259212 87.419907 
L 221.542562 88.853206 
L 222.259212 88.853206 
L 222.259212 90.286506 
" clip-path="url(#p5d7e72f5c9)"/>
    <path d="M 251.414937 90.286506 
L 250.698287 89.928181 
L 250.698287 91.719806 
L 244.606762 85.986607 
L 252.848237 87.419907 
L 251.414937 88.494881 
L 252.131587 88.853206 
L 251.414937 90.286506 
" clip-path="url(#p5d7e72f5c9)"/>
    <path d="M 280.656007 90.201161 
L 279.171251 88.716406 
L 278.539946 90.610321 
L 274.120812 82.403357 
L 282.327776 86.822491 
L 280.433861 87.453796 
L 281.918616 88.938551 
L 280.656007 90.201161 
" clip-path="url(#p5d7e72f5c9)"/>
    <path d="M 310.058507 90.065093 
L 307.349134 86.001034 
L 306.358661 87.734361 
L 303.634861 78.820107 
L 310.815788 84.762943 
L 308.834843 85.010561 
L 311.544216 89.07462 
L 310.058507 90.065093 
" clip-path="url(#p5d7e72f5c9)"/>
    <path d="M 339.516866 89.969129 
L 335.943817 82.823031 
L 334.746 84.42012 
L 333.148911 75.236857 
L 339.537268 82.024486 
L 337.540906 82.024486 
L 341.113955 89.170584 
L 339.516866 89.969129 
" clip-path="url(#p5d7e72f5c9)"/>
    <path d="M 369.000516 89.901434 
L 364.818215 79.445681 
L 363.491905 80.93778 
L 362.662961 71.653607 
L 368.465568 78.948314 
L 366.476103 78.782526 
L 370.658404 89.238279 
L 369.000516 89.901434 
" clip-path="url(#p5d7e72f5c9)"/>
    <path d="M 45.973459 68.513361 
L 38.817161 82.825958 
L 40.813522 82.825958 
L 34.425165 89.613588 
L 36.022254 80.430325 
L 37.220071 82.027414 
L 44.37637 67.714816 
L 45.973459 68.513361 
" clip-path="url(#p5d7e72f5c9)"/>
    <path d="M 75.454534 68.57343 
L 68.838861 79.599552 
L 70.829342 79.752666 
L 63.939215 86.030338 
L 66.235924 76.996615 
L 67.307721 78.680869 
L 73.923395 67.654747 
L 75.454534 68.57343 
" clip-path="url(#p5d7e72f5c9)"/>
    <path d="M 104.917254 68.649768 
L 98.988624 76.554608 
L 100.952784 76.911728 
L 93.453264 82.447088 
L 96.667344 73.697648 
L 97.560144 75.483248 
L 103.488774 67.578408 
L 104.917254 68.649768 
" clip-path="url(#p5d7e72f5c9)"/>
    <path d="M 134.348368 68.745393 
L 129.280363 73.813399 
L 131.174278 74.444703 
L 122.967314 78.863838 
L 127.386449 70.656874 
L 128.017753 72.550789 
L 133.085759 67.482784 
L 134.348368 68.745393 
" clip-path="url(#p5d7e72f5c9)"/>
    <path d="M 163.726349 68.856943 
L 159.66229 71.566316 
L 161.395618 72.556788 
L 152.481364 75.280588 
L 158.4242 68.099661 
L 158.671818 70.080607 
L 162.735877 67.371234 
L 163.726349 68.856943 
" clip-path="url(#p5d7e72f5c9)"/>
    <path d="M 193.027491 68.961073 
L 189.900601 70.003369 
L 191.312242 71.41501 
L 181.995413 71.697338 
L 189.618273 66.333103 
L 189.335945 68.309401 
L 192.462835 67.267104 
L 193.027491 68.961073 
" clip-path="url(#p5d7e72f5c9)"/>
    <path d="M 222.259212 69.006888 
L 219.544663 69.006888 
L 220.437463 70.792488 
L 211.509463 68.114088 
L 220.437463 65.435688 
L 219.544663 67.221288 
L 222.259212 67.221288 
L 222.259212 69.006888 
" clip-path="url(#p5d7e72f5c9)"/>
    <path d="M 251.490934 68.961073 
L 248.364044 67.918776 
L 248.646372 69.895073 
L 241.023512 64.530839 
L 250.340341 64.813167 
L 248.928701 66.224808 
L 252.05559 67.267104 
L 251.490934 68.961073 
" clip-path="url(#p5d7e72f5c9)"/>
    <path d="M 280.792075 68.856943 
L 276.728016 66.14757 
L 276.480398 68.128516 
L 270.537562 60.947589 
L 279.451816 63.671389 
L 277.718489 64.661861 
L 281.782548 67.371234 
L 280.792075 68.856943 
" clip-path="url(#p5d7e72f5c9)"/>
    <path d="M 310.170056 68.745393 
L 305.102051 63.677388 
L 304.470746 65.571303 
L 300.051612 57.364339 
L 308.258576 61.783473 
L 306.364661 62.414778 
L 311.432666 67.482784 
L 310.170056 68.745393 
" clip-path="url(#p5d7e72f5c9)"/>
    <path d="M 339.601171 68.649768 
L 333.672541 60.744929 
L 332.779741 62.530529 
L 329.565661 53.781089 
L 337.065181 59.316449 
L 335.101021 59.673569 
L 341.029651 67.578408 
L 339.601171 68.649768 
" clip-path="url(#p5d7e72f5c9)"/>
    <path d="M 369.063891 68.57343 
L 362.448217 57.547308 
L 361.37642 59.231562 
L 359.079711 50.197839 
L 365.969838 56.475511 
L 363.979357 56.628625 
L 370.59503 67.654747 
L 369.063891 68.57343 
" clip-path="url(#p5d7e72f5c9)"/>
    <path d="M 45.917769 47.153557 
L 36.041897 61.967365 
L 38.022842 62.214984 
L 30.841915 68.15782 
L 33.565715 59.243566 
L 34.556188 60.976893 
L 44.43206 46.163084 
L 45.917769 47.153557 
" clip-path="url(#p5d7e72f5c9)"/>
    <path d="M 75.386124 47.216048 
L 66.072674 58.85786 
L 68.024721 59.276156 
L 60.355965 64.57457 
L 63.841763 55.92979 
L 64.678355 57.742405 
L 73.991805 46.100593 
L 75.386124 47.216048 
" clip-path="url(#p5d7e72f5c9)"/>
    <path d="M 104.834319 47.289625 
L 96.183064 55.94088 
L 98.076979 56.572185 
L 89.870015 60.99132 
L 94.289149 52.784356 
L 94.920454 54.678271 
L 103.571709 46.027016 
L 104.834319 47.289625 
" clip-path="url(#p5d7e72f5c9)"/>
    <path d="M 134.252744 47.372561 
L 126.347904 53.30119 
L 128.133504 54.19399 
L 119.384064 57.40807 
L 124.919424 49.90855 
L 125.276544 51.87271 
L 133.181384 45.944081 
L 134.252744 47.372561 
" clip-path="url(#p5d7e72f5c9)"/>
    <path d="M 163.630385 47.456865 
L 156.484287 51.029914 
L 158.081377 52.227731 
L 148.898114 53.82482 
L 155.685743 47.436463 
L 155.685743 49.432825 
L 162.831841 45.859776 
L 163.630385 47.456865 
" clip-path="url(#p5d7e72f5c9)"/>
    <path d="M 192.961699 47.524464 
L 186.423988 49.158891 
L 187.723203 50.674642 
L 178.412163 50.24157 
L 186.423988 45.477783 
L 185.990917 47.426605 
L 192.528627 45.792177 
L 192.961699 47.524464 
" clip-path="url(#p5d7e72f5c9)"/>
    <path d="M 222.259212 47.551121 
L 215.961413 47.551121 
L 216.854213 49.336721 
L 207.926213 46.658321 
L 216.854213 43.979921 
L 215.961413 45.765521 
L 222.259212 45.765521 
L 222.259212 47.551121 
" clip-path="url(#p5d7e72f5c9)"/>
    <path d="M 251.556726 47.524464 
L 245.019016 45.890036 
L 245.452087 47.838858 
L 237.440262 43.075071 
L 246.751302 42.641999 
L 245.452087 44.15775 
L 251.989798 45.792177 
L 251.556726 47.524464 
" clip-path="url(#p5d7e72f5c9)"/>
    <path d="M 280.888039 47.456865 
L 273.741941 43.883816 
L 273.741941 45.880178 
L 266.954312 39.491821 
L 276.137575 41.08891 
L 274.540486 42.286727 
L 281.686584 45.859776 
L 280.888039 47.456865 
" clip-path="url(#p5d7e72f5c9)"/>
    <path d="M 310.265681 47.372561 
L 302.360842 41.443931 
L 302.003722 43.408091 
L 296.468362 35.908571 
L 305.217802 39.122651 
L 303.432202 40.015451 
L 311.337041 45.944081 
L 310.265681 47.372561 
" clip-path="url(#p5d7e72f5c9)"/>
    <path d="M 339.684106 47.289625 
L 331.032851 38.638371 
L 330.401546 40.532285 
L 325.982411 32.325321 
L 334.189375 36.744456 
L 332.295461 37.375761 
L 340.946716 46.027016 
L 339.684106 47.289625 
" clip-path="url(#p5d7e72f5c9)"/>
    <path d="M 369.132301 47.216048 
L 359.818851 35.574236 
L 358.982259 37.386851 
L 355.496461 28.742071 
L 363.165217 34.040485 
L 361.21317 34.458781 
L 370.52662 46.100593 
L 369.132301 47.216048 
" clip-path="url(#p5d7e72f5c9)"/>
    <path d="M 45.860783 25.774109 
L 33.088543 41.100797 
L 35.031836 41.558042 
L 27.258666 46.702052 
L 30.916628 38.128702 
L 31.716807 39.957683 
L 44.489047 24.630996 
L 45.860783 25.774109 
" clip-path="url(#p5d7e72f5c9)"/>
    <path d="M 75.320269 25.833858 
L 63.085764 38.068362 
L 64.979679 38.699667 
L 56.772715 43.118802 
L 61.19185 34.911838 
L 61.823155 36.805752 
L 74.057659 24.571248 
L 75.320269 25.833858 
" clip-path="url(#p5d7e72f5c9)"/>
    <path d="M 104.760742 25.899712 
L 93.11893 35.213162 
L 94.931545 36.049754 
L 86.286765 39.535552 
L 91.585178 31.866796 
L 92.003474 33.818843 
L 103.645286 24.505393 
L 104.760742 25.899712 
" clip-path="url(#p5d7e72f5c9)"/>
    <path d="M 134.176405 25.968122 
L 123.150283 32.583796 
L 124.834537 33.655593 
L 115.800814 35.952302 
L 122.078486 29.062175 
L 122.2316 31.052656 
L 133.257722 24.436983 
L 134.176405 25.968122 
" clip-path="url(#p5d7e72f5c9)"/>
    <path d="M 163.562691 26.031497 
L 153.106937 30.213798 
L 154.599037 31.540108 
L 145.314864 32.369052 
L 152.609571 26.566444 
L 152.443782 28.55591 
L 162.899536 24.373609 
L 163.562691 26.031497 
" clip-path="url(#p5d7e72f5c9)"/>
    <path d="M 192.920255 26.078015 
L 182.883168 28.085432 
L 184.108815 29.661265 
L 174.828913 28.785802 
L 183.05826 24.40849 
L 182.532983 26.334508 
L 192.57007 24.32709 
L 192.920255 26.078015 
" clip-path="url(#p5d7e72f5c9)"/>
    <path d="M 222.259212 26.095353 
L 212.378163 26.095353 
L 213.270963 27.880953 
L 204.342963 25.202553 
L 213.270963 22.524153 
L 212.378163 24.309753 
L 222.259212 24.309753 
L 222.259212 26.095353 
" clip-path="url(#p5d7e72f5c9)"/>
    <path d="M 251.598169 26.078015 
L 241.561082 24.070598 
L 242.086359 25.996615 
L 233.857013 21.619303 
L 243.136914 20.74384 
L 241.911267 22.319673 
L 251.948354 24.32709 
L 251.598169 26.078015 
" clip-path="url(#p5d7e72f5c9)"/>
    <path d="M 280.955734 26.031497 
L 270.499981 21.849195 
L 270.665769 23.838661 
L 263.371062 18.036053 
L 272.655235 18.864997 
L 271.163136 20.191307 
L 281.618889 24.373609 
L 280.955734 26.031497 
" clip-path="url(#p5d7e72f5c9)"/>
    <path d="M 310.342019 25.968122 
L 299.315897 19.352449 
L 299.162783 21.34293 
L 292.885112 14.452803 
L 301.918834 16.749512 
L 300.234581 17.82131 
L 311.260703 24.436983 
L 310.342019 25.968122 
" clip-path="url(#p5d7e72f5c9)"/>
    <path d="M 339.757683 25.899712 
L 328.115871 16.586263 
L 327.697575 18.53831 
L 322.399161 10.869553 
L 331.043941 14.355352 
L 329.231326 15.191943 
L 340.873138 24.505393 
L 339.757683 25.899712 
" clip-path="url(#p5d7e72f5c9)"/>
    <path d="M 369.198155 25.833858 
L 356.96365 13.599353 
L 356.332346 15.493268 
L 351.913211 7.286303 
L 360.120175 11.705438 
L 358.22626 12.336743 
L 370.460765 24.571248 
L 369.198155 25.833858 
" clip-path="url(#p5d7e72f5c9)"/>
   </g>
   <g id="matplotlib.axis_1">
    <g id="xtick_1">
     <g id="line2d_1">
      <defs>
       <path id="m2ec3ed922f" d="M 0 0 
L 0 3.5 
" style="stroke: #000000; stroke-width: 0.8"/>
      </defs>
      <g>
       <use xlink:href="#m2ec3ed922f" x="45.174915" y="273.312" style="stroke: #000000; stroke-width: 0.8"/>
      </g>
     </g>
     <g id="text_1">
      <!-- −3 -->
      <g transform="translate(37.803821 287.910437) scale(0.1 -0.1)">
       <defs>
        <path id="DejaVuSans-2212" d="M 678 2272 
L 4684 2272 
L 4684 1741 
L 678 1741 
L 678 2272 
z
" transform="scale(0.015625)"/>
        <path id="DejaVuSans-33" d="M 2597 2516 
Q 3050 2419 3304 2112 
Q 3559 1806 3559 1356 
Q 3559 666 3084 287 
Q 2609 -91 1734 -91 
Q 1441 -91 1130 -33 
Q 819 25 488 141 
L 488 750 
Q 750 597 1062 519 
Q 1375 441 1716 441 
Q 2309 441 2620 675 
Q 2931 909 2931 1356 
Q 2931 1769 2642 2001 
Q 2353 2234 1838 2234 
L 1294 2234 
L 1294 2753 
L 1863 2753 
Q 2328 2753 2575 2939 
Q 2822 3125 2822 3475 
Q 2822 3834 2567 4026 
Q 2313 4219 1838 4219 
Q 1578 4219 1281 4162 
Q 984 4106 628 3988 
L 628 4550 
Q 988 4650 1302 4700 
Q 1616 4750 1894 4750 
Q 2613 4750 3031 4423 
Q 3450 4097 3450 3541 
Q 3450 3153 3228 2886 
Q 3006 2619 2597 2516 
z
" transform="scale(0.015625)"/>
       </defs>
       <use xlink:href="#DejaVuSans-2212"/>
       <use xlink:href="#DejaVuSans-33" x="83.789062"/>
      </g>
     </g>
    </g>
    <g id="xtick_2">
     <g id="line2d_2">
      <g>
       <use xlink:href="#m2ec3ed922f" x="104.203014" y="273.312" style="stroke: #000000; stroke-width: 0.8"/>
      </g>
     </g>
     <g id="text_2">
      <!-- −2 -->
      <g transform="translate(96.83192 287.910437) scale(0.1 -0.1)">
       <defs>
        <path id="DejaVuSans-32" d="M 1228 531 
L 3431 531 
L 3431 0 
L 469 0 
L 469 531 
Q 828 903 1448 1529 
Q 2069 2156 2228 2338 
Q 2531 2678 2651 2914 
Q 2772 3150 2772 3378 
Q 2772 3750 2511 3984 
Q 2250 4219 1831 4219 
Q 1534 4219 1204 4116 
Q 875 4013 500 3803 
L 500 4441 
Q 881 4594 1212 4672 
Q 1544 4750 1819 4750 
Q 2544 4750 2975 4387 
Q 3406 4025 3406 3419 
Q 3406 3131 3298 2873 
Q 3191 2616 2906 2266 
Q 2828 2175 2409 1742 
Q 1991 1309 1228 531 
z
" transform="scale(0.015625)"/>
       </defs>
       <use xlink:href="#DejaVuSans-2212"/>
       <use xlink:href="#DejaVuSans-32" x="83.789062"/>
      </g>
     </g>
    </g>
    <g id="xtick_3">
     <g id="line2d_3">
      <g>
       <use xlink:href="#m2ec3ed922f" x="163.231113" y="273.312" style="stroke: #000000; stroke-width: 0.8"/>
      </g>
     </g>
     <g id="text_3">
      <!-- −1 -->
      <g transform="translate(155.860019 287.910437) scale(0.1 -0.1)">
       <defs>
        <path id="DejaVuSans-31" d="M 794 531 
L 1825 531 
L 1825 4091 
L 703 3866 
L 703 4441 
L 1819 4666 
L 2450 4666 
L 2450 531 
L 3481 531 
L 3481 0 
L 794 0 
L 794 531 
z
" transform="scale(0.015625)"/>
       </defs>
       <use xlink:href="#DejaVuSans-2212"/>
       <use xlink:href="#DejaVuSans-31" x="83.789062"/>
      </g>
     </g>
    </g>
    <g id="xtick_4">
     <g id="line2d_4">
      <g>
       <use xlink:href="#m2ec3ed922f" x="222.259212" y="273.312" style="stroke: #000000; stroke-width: 0.8"/>
      </g>
     </g>
     <g id="text_4">
      <!-- 0 -->
      <g transform="translate(219.077962 287.910437) scale(0.1 -0.1)">
       <defs>
        <path id="DejaVuSans-30" d="M 2034 4250 
Q 1547 4250 1301 3770 
Q 1056 3291 1056 2328 
Q 1056 1369 1301 889 
Q 1547 409 2034 409 
Q 2525 409 2770 889 
Q 3016 1369 3016 2328 
Q 3016 3291 2770 3770 
Q 2525 4250 2034 4250 
z
M 2034 4750 
Q 2819 4750 3233 4129 
Q 3647 3509 3647 2328 
Q 3647 1150 3233 529 
Q 2819 -91 2034 -91 
Q 1250 -91 836 529 
Q 422 1150 422 2328 
Q 422 3509 836 4129 
Q 1250 4750 2034 4750 
z
" transform="scale(0.015625)"/>
       </defs>
       <use xlink:href="#DejaVuSans-30"/>
      </g>
     </g>
    </g>
    <g id="xtick_5">
     <g id="line2d_5">
      <g>
       <use xlink:href="#m2ec3ed922f" x="281.287311" y="273.312" style="stroke: #000000; stroke-width: 0.8"/>
      </g>
     </g>
     <g id="text_5">
      <!-- 1 -->
      <g transform="translate(278.106061 287.910437) scale(0.1 -0.1)">
       <use xlink:href="#DejaVuSans-31"/>
      </g>
     </g>
    </g>
    <g id="xtick_6">
     <g id="line2d_6">
      <g>
       <use xlink:href="#m2ec3ed922f" x="340.315411" y="273.312" style="stroke: #000000; stroke-width: 0.8"/>
      </g>
     </g>
     <g id="text_6">
      <!-- 2 -->
      <g transform="translate(337.134161 287.910437) scale(0.1 -0.1)">
       <use xlink:href="#DejaVuSans-32"/>
      </g>
     </g>
    </g>
   </g>
   <g id="matplotlib.axis_2">
    <g id="ytick_1">
     <g id="line2d_7">
      <defs>
       <path id="m96f13d99b4" d="M 0 0 
L -3.5 0 
" style="stroke: #000000; stroke-width: 0.8"/>
      </defs>
      <g>
       <use xlink:href="#m96f13d99b4" x="28.942188" y="261.216" style="stroke: #000000; stroke-width: 0.8"/>
      </g>
     </g>
     <g id="text_7">
      <!-- −3 -->
      <g transform="translate(7.2 265.015219) scale(0.1 -0.1)">
       <use xlink:href="#DejaVuSans-2212"/>
       <use xlink:href="#DejaVuSans-33" x="83.789062"/>
      </g>
     </g>
    </g>
    <g id="ytick_2">
     <g id="line2d_8">
      <g>
       <use xlink:href="#m96f13d99b4" x="28.942188" y="218.304464" style="stroke: #000000; stroke-width: 0.8"/>
      </g>
     </g>
     <g id="text_8">
      <!-- −2 -->
      <g transform="translate(7.2 222.103683) scale(0.1 -0.1)">
       <use xlink:href="#DejaVuSans-2212"/>
       <use xlink:href="#DejaVuSans-32" x="83.789062"/>
      </g>
     </g>
    </g>
    <g id="ytick_3">
     <g id="line2d_9">
      <g>
       <use xlink:href="#m96f13d99b4" x="28.942188" y="175.392928" style="stroke: #000000; stroke-width: 0.8"/>
      </g>
     </g>
     <g id="text_9">
      <!-- −1 -->
      <g transform="translate(7.2 179.192147) scale(0.1 -0.1)">
       <use xlink:href="#DejaVuSans-2212"/>
       <use xlink:href="#DejaVuSans-31" x="83.789062"/>
      </g>
     </g>
    </g>
    <g id="ytick_4">
     <g id="line2d_10">
      <g>
       <use xlink:href="#m96f13d99b4" x="28.942188" y="132.481392" style="stroke: #000000; stroke-width: 0.8"/>
      </g>
     </g>
     <g id="text_10">
      <!-- 0 -->
      <g transform="translate(15.579688 136.280611) scale(0.1 -0.1)">
       <use xlink:href="#DejaVuSans-30"/>
      </g>
     </g>
    </g>
    <g id="ytick_5">
     <g id="line2d_11">
      <g>
       <use xlink:href="#m96f13d99b4" x="28.942188" y="89.569856" style="stroke: #000000; stroke-width: 0.8"/>
      </g>
     </g>
     <g id="text_11">
      <!-- 1 -->
      <g transform="translate(15.579688 93.369075) scale(0.1 -0.1)">
       <use xlink:href="#DejaVuSans-31"/>
      </g>
     </g>
    </g>
    <g id="ytick_6">
     <g id="line2d_12">
      <g>
       <use xlink:href="#m96f13d99b4" x="28.942188" y="46.658321" style="stroke: #000000; stroke-width: 0.8"/>
      </g>
     </g>
     <g id="text_12">
      <!-- 2 -->
      <g transform="translate(15.579688 50.457539) scale(0.1 -0.1)">
       <use xlink:href="#DejaVuSans-32"/>
      </g>
     </g>
    </g>
   </g>
   <g id="line2d_13">
    <path d="M 281.287311 132.481392 
L 281.176634 129.263698 
L 280.734269 126.058069 
L 279.962083 122.882565 
L 278.863803 119.755108 
L 277.444994 116.693384 
L 275.713039 113.714741 
L 273.677095 110.836094 
L 271.348044 108.073827 
L 268.738442 105.443698 
L 265.862443 102.960754 
L 262.735729 100.639239 
L 259.375421 98.492518 
L 255.799987 96.532996 
L 252.029138 94.772051 
L 248.083724 93.21996 
L 243.985614 91.885849 
L 239.757579 90.777633 
L 235.423162 89.90197 
L 231.006551 89.264223 
L 226.53244 88.868427 
L 222.025892 88.717262 
L 217.512202 88.812039 
L 213.016751 89.152684 
L 208.564866 89.737743 
L 204.181675 90.564384 
L 199.891967 91.628407 
L 195.720053 92.924272 
L 191.689626 94.445124 
L 187.823627 96.182828 
L 184.144115 98.128014 
L 180.672142 100.270128 
L 177.427631 102.597487 
L 174.429263 105.097344 
L 171.694368 107.755959 
L 169.23883 110.558671 
L 167.076985 113.489983 
L 165.22155 116.533643 
L 163.683537 119.672739 
L 162.472196 122.889788 
L 161.849864 125.068945 
L 161.3778 127.26936 
L 161.057373 129.48556 
L 160.889575 131.712021 
L 160.875014 133.94319 
L 161.01392 136.173493 
L 161.306137 138.397354 
L 161.751125 140.609203 
L 162.347964 142.803495 
L 163.095351 144.974722 
L 163.991605 147.117425 
L 165.610516 150.266222 
L 167.551179 153.320866 
L 169.80328 156.263994 
L 172.354733 159.07884 
L 175.191744 161.749324 
L 178.298887 164.260153 
L 181.659189 166.596899 
L 185.254217 168.74609 
L 189.064187 170.695282 
L 193.068066 172.433133 
L 197.243691 173.949469 
L 201.567892 175.235343 
L 206.016619 176.283089 
L 210.565076 177.086365 
L 215.18786 177.640192 
L 219.859102 177.940988 
L 224.552612 177.986584 
L 229.242024 177.776245 
L 233.900947 177.310676 
L 238.503114 176.592016 
L 243.022524 175.623833 
L 247.433595 174.411107 
L 251.711306 172.960202 
L 255.831341 171.278834 
L 259.770223 169.376031 
L 263.505451 167.262082 
L 267.01563 164.948485 
L 270.280586 162.447881 
L 273.281492 159.77399 
L 276.000967 156.941528 
L 278.423185 153.966136 
L 280.533959 150.864285 
L 281.761891 148.734602 
L 282.842578 146.561616 
L 283.773135 144.350708 
L 284.551046 142.107357 
L 285.174176 139.837133 
L 285.640774 137.545677 
L 285.949476 135.238694 
L 286.099313 132.921932 
L 286.089713 130.601171 
L 285.9205 128.28221 
L 285.591896 125.970848 
L 285.104526 123.672876 
L 284.459408 121.394055 
L 283.657959 119.140107 
L 282.701987 116.916699 
L 281.593689 114.729429 
L 280.335646 112.583811 
L 278.930816 110.485262 
L 276.555727 107.437265 
L 273.870701 104.524453 
L 270.890262 101.763466 
L 267.630625 99.170123 
L 264.109605 96.75933 
L 260.346521 94.544992 
L 256.362091 92.539937 
L 252.178317 90.755837 
L 247.818364 89.203145 
L 243.30643 87.891031 
L 238.667616 86.827328 
L 233.927782 86.018487 
L 229.113407 85.469536 
L 224.251435 85.184053 
L 219.369133 85.164137 
L 214.493932 85.410399 
L 212.875188 85.551526 
L 212.875188 85.551526 
" clip-path="url(#p5d7e72f5c9)" style="fill: none; stroke: #1f77b4; stroke-width: 1.5; stroke-linecap: square"/>
   </g>
   <g id="line2d_14">
    <path d="M 281.287311 132.481392 
L 281.287311 128.190239 
L 280.69703 123.899085 
L 279.516468 119.650843 
L 277.751528 115.488424 
L 275.414016 111.454311 
L 272.52158 107.590127 
L 269.097596 103.936214 
L 265.170988 100.531213 
L 260.775997 97.411665 
L 255.951888 94.611618 
L 250.742611 92.162269 
L 245.196407 90.091617 
L 239.365369 88.424156 
L 233.304959 87.180594 
L 227.073488 86.377603 
L 220.731559 86.027621 
L 214.341488 86.138676 
L 207.966693 86.71427 
L 201.671075 87.75329 
L 195.518382 89.249981 
L 189.571571 91.193954 
L 183.892168 93.570241 
L 178.539642 96.359402 
L 173.570786 99.537675 
L 169.039126 103.077167 
L 164.99435 106.946097 
L 161.481774 111.109069 
L 158.541848 115.527394 
L 156.209696 120.159442 
L 154.514717 124.96103 
L 153.480234 129.885837 
L 153.123195 134.885849 
L 153.453947 139.911816 
L 154.476058 144.913738 
L 156.186222 149.841356 
L 158.574218 154.64465 
L 161.622944 159.274345 
L 165.308519 163.682408 
L 169.600458 167.82254 
L 174.461903 171.650663 
L 179.849936 175.125374 
L 185.715941 178.208393 
L 192.00604 180.864971 
L 198.661571 183.06428 
L 205.619634 184.779753 
L 212.813674 185.989397 
L 220.174109 186.676057 
L 227.629 186.827638 
L 235.104741 186.437271 
L 242.526785 185.503442 
L 249.820373 184.030055 
L 256.911286 182.026447 
L 263.726587 179.507352 
L 270.195368 176.492807 
L 276.249474 173.008002 
L 281.824219 169.083083 
L 286.859062 164.752898 
L 291.298254 160.056696 
L 295.091448 155.037779 
L 298.194252 149.743109 
L 300.568733 144.222875 
L 302.183864 138.530024 
L 303.015899 132.719758 
L 303.048688 126.849006 
L 302.27391 120.97587 
L 300.691238 115.159058 
L 298.308418 109.457301 
L 295.141278 103.928767 
L 291.213646 98.630475 
L 286.557194 93.617709 
L 281.211197 88.943451 
L 275.22222 84.657831 
L 268.643724 80.80759 
L 261.535597 77.435585 
L 253.963625 74.580318 
L 245.99889 72.275509 
L 237.71711 70.54971 
L 229.197933 69.425971 
L 220.524178 68.921548 
L 211.781035 69.047679 
" clip-path="url(#p5d7e72f5c9)" style="fill: none; stroke: #ff7f0e; stroke-width: 1.5; stroke-linecap: square"/>
   </g>
   <g id="line2d_15">
    <path d="M 281.287311 132.481392 
L 281.287311 121.753508 
L 277.598055 111.025624 
L 270.219543 100.968233 
L 259.382353 92.251827 
L 245.547642 85.504994 
L 229.392735 81.272509 
L 211.782301 79.976048 
L 193.726022 81.880143 
L 176.32455 87.065821 
L 160.706402 95.414078 
L 147.959171 106.600808 
L 139.05899 120.104245 
L 134.802562 135.225219 
L 135.746148 151.119764 
L 142.155774 166.84282 
L 153.972467 181.400978 
L 170.795625 193.811547 
L 191.886704 203.164641 
L 216.194258 208.684601 
L 242.400093 209.786858 
L 268.984988 206.126414 
L 294.311078 197.634379 
L 316.716807 184.53953 
L 334.619294 167.372619 
L 346.618182 146.952075 
L 351.594564 124.350828 
L 348.798511 100.845165 
L 337.918999 77.847661 
L 319.13078 56.827422 
L 293.113824 39.221791 
L 261.042396 26.344533 
L 224.542554 19.296 
" clip-path="url(#p5d7e72f5c9)" style="fill: none; stroke: #2ca02c; stroke-width: 1.5; stroke-linecap: square"/>
   </g>
   <g id="patch_3">
    <path d="M 28.942188 273.312 
L 28.942188 7.2 
" style="fill: none; stroke: #000000; stroke-width: 0.8; stroke-linejoin: miter; stroke-linecap: square"/>
   </g>
   <g id="patch_4">
    <path d="M 386.062188 273.312 
L 386.062188 7.2 
" style="fill: none; stroke: #000000; stroke-width: 0.8; stroke-linejoin: miter; stroke-linecap: square"/>
   </g>
   <g id="patch_5">
    <path d="M 28.942187 273.312 
L 386.062188 273.312 
" style="fill: none; stroke: #000000; stroke-width: 0.8; stroke-linejoin: miter; stroke-linecap: square"/>
   </g>
   <g id="patch_6">
    <path d="M 28.942187 7.2 
L 386.062188 7.2 
" style="fill: none; stroke: #000000; stroke-width: 0.8; stroke-linejoin: miter; stroke-linecap: square"/>
   </g>
   <g id="legend_1">
    <g id="patch_7">
     <path d="M 35.942188 59.234375 
L 147.273438 59.234375 
Q 149.273438 59.234375 149.273438 57.234375 
L 149.273438 14.2 
Q 149.273438 12.2 147.273438 12.2 
L 35.942188 12.2 
Q 33.942188 12.2 33.942188 14.2 
L 33.942188 57.234375 
Q 33.942188 59.234375 35.942188 59.234375 
z
" style="fill: #ffffff; opacity: 0.8; stroke: #cccccc; stroke-linejoin: miter"/>
    </g>
    <g id="line2d_16">
     <path d="M 37.942188 20.298437 
L 47.942188 20.298437 
L 57.942188 20.298437 
" style="fill: none; stroke: #1f77b4; stroke-width: 1.5; stroke-linecap: square"/>
    </g>
    <g id="text_13">
     <!-- Euler, dt=0.025 -->
     <g transform="translate(65.942188 23.798437) scale(0.1 -0.1)">
      <defs>
       <path id="DejaVuSans-45" d="M 628 4666 
L 3578 4666 
L 3578 4134 
L 1259 4134 
L 1259 2753 
L 3481 2753 
L 3481 2222 
L 1259 2222 
L 1259 531 
L 3634 531 
L 3634 0 
L 628 0 
L 628 4666 
z
" transform="scale(0.015625)"/>
       <path id="DejaVuSans-75" d="M 544 1381 
L 544 3500 
L 1119 3500 
L 1119 1403 
Q 1119 906 1312 657 
Q 1506 409 1894 409 
Q 2359 409 2629 706 
Q 2900 1003 2900 1516 
L 2900 3500 
L 3475 3500 
L 3475 0 
L 2900 0 
L 2900 538 
Q 2691 219 2414 64 
Q 2138 -91 1772 -91 
Q 1169 -91 856 284 
Q 544 659 544 1381 
z
M 1991 3584 
L 1991 3584 
z
" transform="scale(0.015625)"/>
       <path id="DejaVuSans-6c" d="M 603 4863 
L 1178 4863 
L 1178 0 
L 603 0 
L 603 4863 
z
" transform="scale(0.015625)"/>
       <path id="DejaVuSans-65" d="M 3597 1894 
L 3597 1613 
L 953 1613 
Q 991 1019 1311 708 
Q 1631 397 2203 397 
Q 2534 397 2845 478 
Q 3156 559 3463 722 
L 3463 178 
Q 3153 47 2828 -22 
Q 2503 -91 2169 -91 
Q 1331 -91 842 396 
Q 353 884 353 1716 
Q 353 2575 817 3079 
Q 1281 3584 2069 3584 
Q 2775 3584 3186 3129 
Q 3597 2675 3597 1894 
z
M 3022 2063 
Q 3016 2534 2758 2815 
Q 2500 3097 2075 3097 
Q 1594 3097 1305 2825 
Q 1016 2553 972 2059 
L 3022 2063 
z
" transform="scale(0.015625)"/>
       <path id="DejaVuSans-72" d="M 2631 2963 
Q 2534 3019 2420 3045 
Q 2306 3072 2169 3072 
Q 1681 3072 1420 2755 
Q 1159 2438 1159 1844 
L 1159 0 
L 581 0 
L 581 3500 
L 1159 3500 
L 1159 2956 
Q 1341 3275 1631 3429 
Q 1922 3584 2338 3584 
Q 2397 3584 2469 3576 
Q 2541 3569 2628 3553 
L 2631 2963 
z
" transform="scale(0.015625)"/>
       <path id="DejaVuSans-2c" d="M 750 794 
L 1409 794 
L 1409 256 
L 897 -744 
L 494 -744 
L 750 256 
L 750 794 
z
" transform="scale(0.015625)"/>
       <path id="DejaVuSans-20" transform="scale(0.015625)"/>
       <path id="DejaVuSans-64" d="M 2906 2969 
L 2906 4863 
L 3481 4863 
L 3481 0 
L 2906 0 
L 2906 525 
Q 2725 213 2448 61 
Q 2172 -91 1784 -91 
Q 1150 -91 751 415 
Q 353 922 353 1747 
Q 353 2572 751 3078 
Q 1150 3584 1784 3584 
Q 2172 3584 2448 3432 
Q 2725 3281 2906 2969 
z
M 947 1747 
Q 947 1113 1208 752 
Q 1469 391 1925 391 
Q 2381 391 2643 752 
Q 2906 1113 2906 1747 
Q 2906 2381 2643 2742 
Q 2381 3103 1925 3103 
Q 1469 3103 1208 2742 
Q 947 2381 947 1747 
z
" transform="scale(0.015625)"/>
       <path id="DejaVuSans-74" d="M 1172 4494 
L 1172 3500 
L 2356 3500 
L 2356 3053 
L 1172 3053 
L 1172 1153 
Q 1172 725 1289 603 
Q 1406 481 1766 481 
L 2356 481 
L 2356 0 
L 1766 0 
Q 1100 0 847 248 
Q 594 497 594 1153 
L 594 3053 
L 172 3053 
L 172 3500 
L 594 3500 
L 594 4494 
L 1172 4494 
z
" transform="scale(0.015625)"/>
       <path id="DejaVuSans-3d" d="M 678 2906 
L 4684 2906 
L 4684 2381 
L 678 2381 
L 678 2906 
z
M 678 1631 
L 4684 1631 
L 4684 1100 
L 678 1100 
L 678 1631 
z
" transform="scale(0.015625)"/>
       <path id="DejaVuSans-2e" d="M 684 794 
L 1344 794 
L 1344 0 
L 684 0 
L 684 794 
z
" transform="scale(0.015625)"/>
       <path id="DejaVuSans-35" d="M 691 4666 
L 3169 4666 
L 3169 4134 
L 1269 4134 
L 1269 2991 
Q 1406 3038 1543 3061 
Q 1681 3084 1819 3084 
Q 2600 3084 3056 2656 
Q 3513 2228 3513 1497 
Q 3513 744 3044 326 
Q 2575 -91 1722 -91 
Q 1428 -91 1123 -41 
Q 819 9 494 109 
L 494 744 
Q 775 591 1075 516 
Q 1375 441 1709 441 
Q 2250 441 2565 725 
Q 2881 1009 2881 1497 
Q 2881 1984 2565 2268 
Q 2250 2553 1709 2553 
Q 1456 2553 1204 2497 
Q 953 2441 691 2322 
L 691 4666 
z
" transform="scale(0.015625)"/>
      </defs>
      <use xlink:href="#DejaVuSans-45"/>
      <use xlink:href="#DejaVuSans-75" x="63.183594"/>
      <use xlink:href="#DejaVuSans-6c" x="126.5625"/>
      <use xlink:href="#DejaVuSans-65" x="154.345703"/>
      <use xlink:href="#DejaVuSans-72" x="215.869141"/>
      <use xlink:href="#DejaVuSans-2c" x="256.982422"/>
      <use xlink:href="#DejaVuSans-20" x="288.769531"/>
      <use xlink:href="#DejaVuSans-64" x="320.556641"/>
      <use xlink:href="#DejaVuSans-74" x="384.033203"/>
      <use xlink:href="#DejaVuSans-3d" x="423.242188"/>
      <use xlink:href="#DejaVuSans-30" x="507.03125"/>
      <use xlink:href="#DejaVuSans-2e" x="570.654297"/>
      <use xlink:href="#DejaVuSans-30" x="602.441406"/>
      <use xlink:href="#DejaVuSans-32" x="666.064453"/>
      <use xlink:href="#DejaVuSans-35" x="729.6875"/>
     </g>
    </g>
    <g id="line2d_17">
     <path d="M 37.942188 34.976562 
L 47.942188 34.976562 
L 57.942188 34.976562 
" style="fill: none; stroke: #ff7f0e; stroke-width: 1.5; stroke-linecap: square"/>
    </g>
    <g id="text_14">
     <!-- Euler, dt=0.1 -->
     <g transform="translate(65.942188 38.476562) scale(0.1 -0.1)">
      <use xlink:href="#DejaVuSans-45"/>
      <use xlink:href="#DejaVuSans-75" x="63.183594"/>
      <use xlink:href="#DejaVuSans-6c" x="126.5625"/>
      <use xlink:href="#DejaVuSans-65" x="154.345703"/>
      <use xlink:href="#DejaVuSans-72" x="215.869141"/>
      <use xlink:href="#DejaVuSans-2c" x="256.982422"/>
      <use xlink:href="#DejaVuSans-20" x="288.769531"/>
      <use xlink:href="#DejaVuSans-64" x="320.556641"/>
      <use xlink:href="#DejaVuSans-74" x="384.033203"/>
      <use xlink:href="#DejaVuSans-3d" x="423.242188"/>
      <use xlink:href="#DejaVuSans-30" x="507.03125"/>
      <use xlink:href="#DejaVuSans-2e" x="570.654297"/>
      <use xlink:href="#DejaVuSans-31" x="602.441406"/>
     </g>
    </g>
    <g id="line2d_18">
     <path d="M 37.942188 49.654687 
L 47.942188 49.654687 
L 57.942188 49.654687 
" style="fill: none; stroke: #2ca02c; stroke-width: 1.5; stroke-linecap: square"/>
    </g>
    <g id="text_15">
     <!-- Euler, dt=0.25 -->
     <g transform="translate(65.942188 53.154687) scale(0.1 -0.1)">
      <use xlink:href="#DejaVuSans-45"/>
      <use xlink:href="#DejaVuSans-75" x="63.183594"/>
      <use xlink:href="#DejaVuSans-6c" x="126.5625"/>
      <use xlink:href="#DejaVuSans-65" x="154.345703"/>
      <use xlink:href="#DejaVuSans-72" x="215.869141"/>
      <use xlink:href="#DejaVuSans-2c" x="256.982422"/>
      <use xlink:href="#DejaVuSans-20" x="288.769531"/>
      <use xlink:href="#DejaVuSans-64" x="320.556641"/>
      <use xlink:href="#DejaVuSans-74" x="384.033203"/>
      <use xlink:href="#DejaVuSans-3d" x="423.242188"/>
      <use xlink:href="#DejaVuSans-30" x="507.03125"/>
      <use xlink:href="#DejaVuSans-2e" x="570.654297"/>
      <use xlink:href="#DejaVuSans-32" x="602.441406"/>
      <use xlink:href="#DejaVuSans-35" x="666.064453"/>
     </g>
    </g>
   </g>
  </g>
 </g>
 <defs>
  <clipPath id="p5d7e72f5c9">
   <rect x="28.942188" y="7.2" width="357.12" height="266.112"/>
  </clipPath>
 </defs>
</svg>
