<?xml version="1.0" encoding="utf-8" standalone="no"?>
<!DOCTYPE svg PUBLIC "-//W3C//DTD SVG 1.1//EN"
  "http://www.w3.org/Graphics/SVG/1.1/DTD/svg11.dtd">
<svg xmlns:xlink="http://www.w3.org/1999/xlink" width="595.928091pt" height="308.278125pt" viewBox="0 0 595.928091 308.278125" xmlns="http://www.w3.org/2000/svg" version="1.1">
 <metadata>
  <rdf:RDF xmlns:dc="http://purl.org/dc/elements/1.1/" xmlns:cc="http://creativecommons.org/ns#" xmlns:rdf="http://www.w3.org/1999/02/22-rdf-syntax-ns#">
   <cc:Work>
    <dc:type rdf:resource="http://purl.org/dc/dcmitype/StillImage"/>
    <dc:date>2023-08-27T23:46:30.311582</dc:date>
    <dc:format>image/svg+xml</dc:format>
    <dc:creator>
     <cc:Agent>
      <dc:title>Matplotlib v3.7.1, https://matplotlib.org/</dc:title>
     </cc:Agent>
    </dc:creator>
   </cc:Work>
  </rdf:RDF>
 </metadata>
 <defs>
  <style type="text/css">*{stroke-linejoin: round; stroke-linecap: butt}</style>
 </defs>
 <g id="figure_1">
  <g id="patch_1">
   <path d="M 0 308.278125 
L 595.928091 308.278125 
L 595.928091 0 
L 0 0 
z
" style="fill: #ffffff"/>
  </g>
  <g id="axes_1">
   <g id="patch_2">
    <path d="M 28.942188 284.4 
L 282.578551 284.4 
L 282.578551 7.2 
L 28.942188 7.2 
z
" style="fill: #ffffff"/>
   </g>
   <g id="PathCollection_1">
    <defs>
     <path id="m8152d2cc88" d="M 0 3 
C 0.795609 3 1.55874 2.683901 2.12132 2.12132 
C 2.683901 1.55874 3 0.795609 3 0 
C 3 -0.795609 2.683901 -1.55874 2.12132 -2.12132 
C 1.55874 -2.683901 0.795609 -3 0 -3 
C -0.795609 -3 -1.55874 -2.683901 -2.12132 -2.12132 
C -2.683901 -1.55874 -3 -0.795609 -3 0 
C -3 0.795609 -2.683901 1.55874 -2.12132 2.12132 
C -1.55874 2.683901 -0.795609 3 0 3 
z
" style="stroke: #000000"/>
    </defs>
    <g clip-path="url(#p0d04d6844a)">
     <use xlink:href="#m8152d2cc88" x="69.293427" y="203.444628" style="stroke: #000000"/>
    </g>
   </g>
   <g id="matplotlib.axis_1">
    <g id="xtick_1">
     <g id="line2d_1">
      <defs>
       <path id="m338f2c6537" d="M 0 0 
L 0 3.5 
" style="stroke: #000000; stroke-width: 0.8"/>
      </defs>
      <g>
       <use xlink:href="#m338f2c6537" x="69.293427" y="284.4" style="stroke: #000000; stroke-width: 0.8"/>
      </g>
     </g>
     <g id="text_1">
      <!-- 0 -->
      <g transform="translate(66.112177 298.998438) scale(0.1 -0.1)">
       <defs>
        <path id="DejaVuSans-30" d="M 2034 4250 
Q 1547 4250 1301 3770 
Q 1056 3291 1056 2328 
Q 1056 1369 1301 889 
Q 1547 409 2034 409 
Q 2525 409 2770 889 
Q 3016 1369 3016 2328 
Q 3016 3291 2770 3770 
Q 2525 4250 2034 4250 
z
M 2034 4750 
Q 2819 4750 3233 4129 
Q 3647 3509 3647 2328 
Q 3647 1150 3233 529 
Q 2819 -91 2034 -91 
Q 1250 -91 836 529 
Q 422 1150 422 2328 
Q 422 3509 836 4129 
Q 1250 4750 2034 4750 
z
" transform="scale(0.015625)"/>
       </defs>
       <use xlink:href="#DejaVuSans-30"/>
      </g>
     </g>
    </g>
    <g id="xtick_2">
     <g id="line2d_2">
      <g>
       <use xlink:href="#m338f2c6537" x="126.938055" y="284.4" style="stroke: #000000; stroke-width: 0.8"/>
      </g>
     </g>
     <g id="text_2">
      <!-- 2 -->
      <g transform="translate(123.756805 298.998438) scale(0.1 -0.1)">
       <defs>
        <path id="DejaVuSans-32" d="M 1228 531 
L 3431 531 
L 3431 0 
L 469 0 
L 469 531 
Q 828 903 1448 1529 
Q 2069 2156 2228 2338 
Q 2531 2678 2651 2914 
Q 2772 3150 2772 3378 
Q 2772 3750 2511 3984 
Q 2250 4219 1831 4219 
Q 1534 4219 1204 4116 
Q 875 4013 500 3803 
L 500 4441 
Q 881 4594 1212 4672 
Q 1544 4750 1819 4750 
Q 2544 4750 2975 4387 
Q 3406 4025 3406 3419 
Q 3406 3131 3298 2873 
Q 3191 2616 2906 2266 
Q 2828 2175 2409 1742 
Q 1991 1309 1228 531 
z
" transform="scale(0.015625)"/>
       </defs>
       <use xlink:href="#DejaVuSans-32"/>
      </g>
     </g>
    </g>
    <g id="xtick_3">
     <g id="line2d_3">
      <g>
       <use xlink:href="#m338f2c6537" x="184.582683" y="284.4" style="stroke: #000000; stroke-width: 0.8"/>
      </g>
     </g>
     <g id="text_3">
      <!-- 4 -->
      <g transform="translate(181.401433 298.998438) scale(0.1 -0.1)">
       <defs>
        <path id="DejaVuSans-34" d="M 2419 4116 
L 825 1625 
L 2419 1625 
L 2419 4116 
z
M 2253 4666 
L 3047 4666 
L 3047 1625 
L 3713 1625 
L 3713 1100 
L 3047 1100 
L 3047 0 
L 2419 0 
L 2419 1100 
L 313 1100 
L 313 1709 
L 2253 4666 
z
" transform="scale(0.015625)"/>
       </defs>
       <use xlink:href="#DejaVuSans-34"/>
      </g>
     </g>
    </g>
    <g id="xtick_4">
     <g id="line2d_4">
      <g>
       <use xlink:href="#m338f2c6537" x="242.227311" y="284.4" style="stroke: #000000; stroke-width: 0.8"/>
      </g>
     </g>
     <g id="text_4">
      <!-- 6 -->
      <g transform="translate(239.046061 298.998438) scale(0.1 -0.1)">
       <defs>
        <path id="DejaVuSans-36" d="M 2113 2584 
Q 1688 2584 1439 2293 
Q 1191 2003 1191 1497 
Q 1191 994 1439 701 
Q 1688 409 2113 409 
Q 2538 409 2786 701 
Q 3034 994 3034 1497 
Q 3034 2003 2786 2293 
Q 2538 2584 2113 2584 
z
M 3366 4563 
L 3366 3988 
Q 3128 4100 2886 4159 
Q 2644 4219 2406 4219 
Q 1781 4219 1451 3797 
Q 1122 3375 1075 2522 
Q 1259 2794 1537 2939 
Q 1816 3084 2150 3084 
Q 2853 3084 3261 2657 
Q 3669 2231 3669 1497 
Q 3669 778 3244 343 
Q 2819 -91 2113 -91 
Q 1303 -91 875 529 
Q 447 1150 447 2328 
Q 447 3434 972 4092 
Q 1497 4750 2381 4750 
Q 2619 4750 2861 4703 
Q 3103 4656 3366 4563 
z
" transform="scale(0.015625)"/>
       </defs>
       <use xlink:href="#DejaVuSans-36"/>
      </g>
     </g>
    </g>
   </g>
   <g id="matplotlib.axis_2">
    <g id="ytick_1">
     <g id="line2d_5">
      <defs>
       <path id="m670ef368e1" d="M 0 0 
L -3.5 0 
" style="stroke: #000000; stroke-width: 0.8"/>
      </defs>
      <g>
       <use xlink:href="#m670ef368e1" x="28.942188" y="261.089256" style="stroke: #000000; stroke-width: 0.8"/>
      </g>
     </g>
     <g id="text_5">
      <!-- −2 -->
      <g transform="translate(7.2 264.888475) scale(0.1 -0.1)">
       <defs>
        <path id="DejaVuSans-2212" d="M 678 2272 
L 4684 2272 
L 4684 1741 
L 678 1741 
L 678 2272 
z
" transform="scale(0.015625)"/>
       </defs>
       <use xlink:href="#DejaVuSans-2212"/>
       <use xlink:href="#DejaVuSans-32" x="83.789062"/>
      </g>
     </g>
    </g>
    <g id="ytick_2">
     <g id="line2d_6">
      <g>
       <use xlink:href="#m670ef368e1" x="28.942188" y="203.444628" style="stroke: #000000; stroke-width: 0.8"/>
      </g>
     </g>
     <g id="text_6">
      <!-- 0 -->
      <g transform="translate(15.579688 207.243847) scale(0.1 -0.1)">
       <use xlink:href="#DejaVuSans-30"/>
      </g>
     </g>
    </g>
    <g id="ytick_3">
     <g id="line2d_7">
      <g>
       <use xlink:href="#m670ef368e1" x="28.942188" y="145.8" style="stroke: #000000; stroke-width: 0.8"/>
      </g>
     </g>
     <g id="text_7">
      <!-- 2 -->
      <g transform="translate(15.579688 149.599219) scale(0.1 -0.1)">
       <use xlink:href="#DejaVuSans-32"/>
      </g>
     </g>
    </g>
    <g id="ytick_4">
     <g id="line2d_8">
      <g>
       <use xlink:href="#m670ef368e1" x="28.942188" y="88.155372" style="stroke: #000000; stroke-width: 0.8"/>
      </g>
     </g>
     <g id="text_8">
      <!-- 4 -->
      <g transform="translate(15.579688 91.954591) scale(0.1 -0.1)">
       <use xlink:href="#DejaVuSans-34"/>
      </g>
     </g>
    </g>
    <g id="ytick_5">
     <g id="line2d_9">
      <g>
       <use xlink:href="#m670ef368e1" x="28.942188" y="30.510744" style="stroke: #000000; stroke-width: 0.8"/>
      </g>
     </g>
     <g id="text_9">
      <!-- 6 -->
      <g transform="translate(15.579688 34.309963) scale(0.1 -0.1)">
       <use xlink:href="#DejaVuSans-36"/>
      </g>
     </g>
    </g>
   </g>
   <g id="line2d_10">
    <path d="M 40.471113 203.444628 
L 98.115741 203.444628 
L 69.293427 160.211157 
L 40.471113 203.444628 
" clip-path="url(#p0d04d6844a)" style="fill: none; stroke: #1f77b4; stroke-width: 1.5; stroke-linecap: square"/>
   </g>
   <g id="line2d_11">
    <path d="M 155.760369 145.8 
L 242.227311 145.8 
L 242.227311 88.155372 
L 155.760369 88.155372 
L 155.760369 145.8 
" clip-path="url(#p0d04d6844a)" style="fill: none; stroke: #ff7f0e; stroke-width: 1.5; stroke-linecap: square"/>
   </g>
   <g id="line2d_12">
    <path d="M 155.760369 189.033471 
L 242.227311 189.033471 
L 271.049626 145.8 
L 271.049626 88.155372 
L 184.582683 88.155372 
L 126.938055 88.155372 
L 126.938055 145.8 
L 155.760369 189.033471 
L 155.760369 189.033471 
" clip-path="url(#p0d04d6844a)" style="fill: none; stroke: #2ca02c; stroke-width: 1.5; stroke-linecap: square"/>
   </g>
   <g id="patch_3">
    <path d="M 28.942188 284.4 
L 28.942188 7.2 
" style="fill: none; stroke: #000000; stroke-width: 0.8; stroke-linejoin: miter; stroke-linecap: square"/>
   </g>
   <g id="patch_4">
    <path d="M 282.578551 284.4 
L 282.578551 7.2 
" style="fill: none; stroke: #000000; stroke-width: 0.8; stroke-linejoin: miter; stroke-linecap: square"/>
   </g>
   <g id="patch_5">
    <path d="M 28.942188 284.4 
L 282.578551 284.4 
" style="fill: none; stroke: #000000; stroke-width: 0.8; stroke-linejoin: miter; stroke-linecap: square"/>
   </g>
   <g id="patch_6">
    <path d="M 28.942188 7.2 
L 282.578551 7.2 
" style="fill: none; stroke: #000000; stroke-width: 0.8; stroke-linejoin: miter; stroke-linecap: square"/>
   </g>
   <g id="legend_1">
    <g id="patch_7">
     <path d="M 164.544176 73.9125 
L 275.578551 73.9125 
Q 277.578551 73.9125 277.578551 71.9125 
L 277.578551 14.2 
Q 277.578551 12.2 275.578551 12.2 
L 164.544176 12.2 
Q 162.544176 12.2 162.544176 14.2 
L 162.544176 71.9125 
Q 162.544176 73.9125 164.544176 73.9125 
z
" style="fill: #ffffff; opacity: 0.8; stroke: #cccccc; stroke-linejoin: miter"/>
    </g>
    <g id="PathCollection_2">
     <g>
      <use xlink:href="#m8152d2cc88" x="176.544176" y="21.173438" style="stroke: #000000"/>
     </g>
    </g>
    <g id="text_10">
     <!-- Reference point -->
     <g transform="translate(194.544176 23.798438) scale(0.1 -0.1)">
      <defs>
       <path id="DejaVuSans-52" d="M 2841 2188 
Q 3044 2119 3236 1894 
Q 3428 1669 3622 1275 
L 4263 0 
L 3584 0 
L 2988 1197 
Q 2756 1666 2539 1819 
Q 2322 1972 1947 1972 
L 1259 1972 
L 1259 0 
L 628 0 
L 628 4666 
L 2053 4666 
Q 2853 4666 3247 4331 
Q 3641 3997 3641 3322 
Q 3641 2881 3436 2590 
Q 3231 2300 2841 2188 
z
M 1259 4147 
L 1259 2491 
L 2053 2491 
Q 2509 2491 2742 2702 
Q 2975 2913 2975 3322 
Q 2975 3731 2742 3939 
Q 2509 4147 2053 4147 
L 1259 4147 
z
" transform="scale(0.015625)"/>
       <path id="DejaVuSans-65" d="M 3597 1894 
L 3597 1613 
L 953 1613 
Q 991 1019 1311 708 
Q 1631 397 2203 397 
Q 2534 397 2845 478 
Q 3156 559 3463 722 
L 3463 178 
Q 3153 47 2828 -22 
Q 2503 -91 2169 -91 
Q 1331 -91 842 396 
Q 353 884 353 1716 
Q 353 2575 817 3079 
Q 1281 3584 2069 3584 
Q 2775 3584 3186 3129 
Q 3597 2675 3597 1894 
z
M 3022 2063 
Q 3016 2534 2758 2815 
Q 2500 3097 2075 3097 
Q 1594 3097 1305 2825 
Q 1016 2553 972 2059 
L 3022 2063 
z
" transform="scale(0.015625)"/>
       <path id="DejaVuSans-66" d="M 2375 4863 
L 2375 4384 
L 1825 4384 
Q 1516 4384 1395 4259 
Q 1275 4134 1275 3809 
L 1275 3500 
L 2222 3500 
L 2222 3053 
L 1275 3053 
L 1275 0 
L 697 0 
L 697 3053 
L 147 3053 
L 147 3500 
L 697 3500 
L 697 3744 
Q 697 4328 969 4595 
Q 1241 4863 1831 4863 
L 2375 4863 
z
" transform="scale(0.015625)"/>
       <path id="DejaVuSans-72" d="M 2631 2963 
Q 2534 3019 2420 3045 
Q 2306 3072 2169 3072 
Q 1681 3072 1420 2755 
Q 1159 2438 1159 1844 
L 1159 0 
L 581 0 
L 581 3500 
L 1159 3500 
L 1159 2956 
Q 1341 3275 1631 3429 
Q 1922 3584 2338 3584 
Q 2397 3584 2469 3576 
Q 2541 3569 2628 3553 
L 2631 2963 
z
" transform="scale(0.015625)"/>
       <path id="DejaVuSans-6e" d="M 3513 2113 
L 3513 0 
L 2938 0 
L 2938 2094 
Q 2938 2591 2744 2837 
Q 2550 3084 2163 3084 
Q 1697 3084 1428 2787 
Q 1159 2491 1159 1978 
L 1159 0 
L 581 0 
L 581 3500 
L 1159 3500 
L 1159 2956 
Q 1366 3272 1645 3428 
Q 1925 3584 2291 3584 
Q 2894 3584 3203 3211 
Q 3513 2838 3513 2113 
z
" transform="scale(0.015625)"/>
       <path id="DejaVuSans-63" d="M 3122 3366 
L 3122 2828 
Q 2878 2963 2633 3030 
Q 2388 3097 2138 3097 
Q 1578 3097 1268 2742 
Q 959 2388 959 1747 
Q 959 1106 1268 751 
Q 1578 397 2138 397 
Q 2388 397 2633 464 
Q 2878 531 3122 666 
L 3122 134 
Q 2881 22 2623 -34 
Q 2366 -91 2075 -91 
Q 1284 -91 818 406 
Q 353 903 353 1747 
Q 353 2603 823 3093 
Q 1294 3584 2113 3584 
Q 2378 3584 2631 3529 
Q 2884 3475 3122 3366 
z
" transform="scale(0.015625)"/>
       <path id="DejaVuSans-20" transform="scale(0.015625)"/>
       <path id="DejaVuSans-70" d="M 1159 525 
L 1159 -1331 
L 581 -1331 
L 581 3500 
L 1159 3500 
L 1159 2969 
Q 1341 3281 1617 3432 
Q 1894 3584 2278 3584 
Q 2916 3584 3314 3078 
Q 3713 2572 3713 1747 
Q 3713 922 3314 415 
Q 2916 -91 2278 -91 
Q 1894 -91 1617 61 
Q 1341 213 1159 525 
z
M 3116 1747 
Q 3116 2381 2855 2742 
Q 2594 3103 2138 3103 
Q 1681 3103 1420 2742 
Q 1159 2381 1159 1747 
Q 1159 1113 1420 752 
Q 1681 391 2138 391 
Q 2594 391 2855 752 
Q 3116 1113 3116 1747 
z
" transform="scale(0.015625)"/>
       <path id="DejaVuSans-6f" d="M 1959 3097 
Q 1497 3097 1228 2736 
Q 959 2375 959 1747 
Q 959 1119 1226 758 
Q 1494 397 1959 397 
Q 2419 397 2687 759 
Q 2956 1122 2956 1747 
Q 2956 2369 2687 2733 
Q 2419 3097 1959 3097 
z
M 1959 3584 
Q 2709 3584 3137 3096 
Q 3566 2609 3566 1747 
Q 3566 888 3137 398 
Q 2709 -91 1959 -91 
Q 1206 -91 779 398 
Q 353 888 353 1747 
Q 353 2609 779 3096 
Q 1206 3584 1959 3584 
z
" transform="scale(0.015625)"/>
       <path id="DejaVuSans-69" d="M 603 3500 
L 1178 3500 
L 1178 0 
L 603 0 
L 603 3500 
z
M 603 4863 
L 1178 4863 
L 1178 4134 
L 603 4134 
L 603 4863 
z
" transform="scale(0.015625)"/>
       <path id="DejaVuSans-74" d="M 1172 4494 
L 1172 3500 
L 2356 3500 
L 2356 3053 
L 1172 3053 
L 1172 1153 
Q 1172 725 1289 603 
Q 1406 481 1766 481 
L 2356 481 
L 2356 0 
L 1766 0 
Q 1100 0 847 248 
Q 594 497 594 1153 
L 594 3053 
L 172 3053 
L 172 3500 
L 594 3500 
L 594 4494 
L 1172 4494 
z
" transform="scale(0.015625)"/>
      </defs>
      <use xlink:href="#DejaVuSans-52"/>
      <use xlink:href="#DejaVuSans-65" x="64.982422"/>
      <use xlink:href="#DejaVuSans-66" x="126.505859"/>
      <use xlink:href="#DejaVuSans-65" x="161.710938"/>
      <use xlink:href="#DejaVuSans-72" x="223.234375"/>
      <use xlink:href="#DejaVuSans-65" x="262.097656"/>
      <use xlink:href="#DejaVuSans-6e" x="323.621094"/>
      <use xlink:href="#DejaVuSans-63" x="387"/>
      <use xlink:href="#DejaVuSans-65" x="441.980469"/>
      <use xlink:href="#DejaVuSans-20" x="503.503906"/>
      <use xlink:href="#DejaVuSans-70" x="535.291016"/>
      <use xlink:href="#DejaVuSans-6f" x="598.767578"/>
      <use xlink:href="#DejaVuSans-69" x="659.949219"/>
      <use xlink:href="#DejaVuSans-6e" x="687.732422"/>
      <use xlink:href="#DejaVuSans-74" x="751.111328"/>
     </g>
    </g>
    <g id="line2d_13">
     <path d="M 166.544176 34.976563 
L 176.544176 34.976563 
L 186.544176 34.976563 
" style="fill: none; stroke: #1f77b4; stroke-width: 1.5; stroke-linecap: square"/>
    </g>
    <g id="text_11">
     <!-- A -->
     <g transform="translate(194.544176 38.476563) scale(0.1 -0.1)">
      <defs>
       <path id="DejaVuSans-41" d="M 2188 4044 
L 1331 1722 
L 3047 1722 
L 2188 4044 
z
M 1831 4666 
L 2547 4666 
L 4325 0 
L 3669 0 
L 3244 1197 
L 1141 1197 
L 716 0 
L 50 0 
L 1831 4666 
z
" transform="scale(0.015625)"/>
      </defs>
      <use xlink:href="#DejaVuSans-41"/>
     </g>
    </g>
    <g id="line2d_14">
     <path d="M 166.544176 49.654688 
L 176.544176 49.654688 
L 186.544176 49.654688 
" style="fill: none; stroke: #ff7f0e; stroke-width: 1.5; stroke-linecap: square"/>
    </g>
    <g id="text_12">
     <!-- B -->
     <g transform="translate(194.544176 53.154688) scale(0.1 -0.1)">
      <defs>
       <path id="DejaVuSans-42" d="M 1259 2228 
L 1259 519 
L 2272 519 
Q 2781 519 3026 730 
Q 3272 941 3272 1375 
Q 3272 1813 3026 2020 
Q 2781 2228 2272 2228 
L 1259 2228 
z
M 1259 4147 
L 1259 2741 
L 2194 2741 
Q 2656 2741 2882 2914 
Q 3109 3088 3109 3444 
Q 3109 3797 2882 3972 
Q 2656 4147 2194 4147 
L 1259 4147 
z
M 628 4666 
L 2241 4666 
Q 2963 4666 3353 4366 
Q 3744 4066 3744 3513 
Q 3744 3084 3544 2831 
Q 3344 2578 2956 2516 
Q 3422 2416 3680 2098 
Q 3938 1781 3938 1306 
Q 3938 681 3513 340 
Q 3088 0 2303 0 
L 628 0 
L 628 4666 
z
" transform="scale(0.015625)"/>
      </defs>
      <use xlink:href="#DejaVuSans-42"/>
     </g>
    </g>
    <g id="line2d_15">
     <path d="M 166.544176 64.332813 
L 176.544176 64.332813 
L 186.544176 64.332813 
" style="fill: none; stroke: #2ca02c; stroke-width: 1.5; stroke-linecap: square"/>
    </g>
    <g id="text_13">
     <!-- A - B -->
     <g transform="translate(194.544176 67.832813) scale(0.1 -0.1)">
      <defs>
       <path id="DejaVuSans-2d" d="M 313 2009 
L 1997 2009 
L 1997 1497 
L 313 1497 
L 313 2009 
z
" transform="scale(0.015625)"/>
      </defs>
      <use xlink:href="#DejaVuSans-41"/>
      <use xlink:href="#DejaVuSans-20" x="68.408203"/>
      <use xlink:href="#DejaVuSans-2d" x="100.195312"/>
      <use xlink:href="#DejaVuSans-20" x="136.279297"/>
      <use xlink:href="#DejaVuSans-42" x="168.066406"/>
     </g>
    </g>
   </g>
  </g>
  <g id="patch_8">
   <path d="M 333.305824 272.618182 
L 586.942187 272.618182 
L 586.942187 18.981818 
L 333.305824 18.981818 
z
" style="fill: #ffffff"/>
  </g>
  <g id="pane3d_1">
   <g id="patch_9">
    <path d="M 463.551524 158.858473 
L 577.226399 199.022045 
L 580.751572 83.966158 
L 463.551524 51.204813 
" style="fill: #f2f2f2; opacity: 0.5; stroke: #f2f2f2; stroke-linejoin: miter"/>
   </g>
  </g>
  <g id="pane3d_2">
   <g id="patch_10">
    <path d="M 463.551524 158.858473 
L 349.876649 199.022045 
L 346.351476 83.966158 
L 463.551524 51.204813 
" style="fill: #e6e6e6; opacity: 0.5; stroke: #e6e6e6; stroke-linejoin: miter"/>
   </g>
  </g>
  <g id="pane3d_3">
   <g id="patch_11">
    <path d="M 463.551524 158.858473 
L 349.876649 199.022045 
L 463.551524 245.972978 
L 577.226399 199.022045 
" style="fill: #ececec; opacity: 0.5; stroke: #ececec; stroke-linejoin: miter"/>
   </g>
  </g>
  <g id="axis3d_1">
   <g id="line2d_16">
    <path d="M 577.226399 199.022045 
L 463.551524 245.972978 
" style="fill: none; stroke: #000000; stroke-width: 0.8; stroke-linecap: square"/>
   </g>
   <g id="text_14">
    <!-- x -->
    <g transform="translate(542.893469 255.309842) scale(0.1 -0.1)">
     <defs>
      <path id="DejaVuSans-78" d="M 3513 3500 
L 2247 1797 
L 3578 0 
L 2900 0 
L 1881 1375 
L 863 0 
L 184 0 
L 1544 1831 
L 300 3500 
L 978 3500 
L 1906 2253 
L 2834 3500 
L 3513 3500 
z
" transform="scale(0.015625)"/>
     </defs>
     <use xlink:href="#DejaVuSans-78"/>
    </g>
   </g>
   <g id="Line3DCollection_1">
    <path d="M 575.126765 199.889253 
L 461.439305 159.604762 
L 461.378583 51.812223 
" style="fill: none; stroke: #b0b0b0; stroke-width: 0.8"/>
    <path d="M 558.090774 206.925599 
L 444.318801 165.653773 
L 443.759234 56.737422 
" style="fill: none; stroke: #b0b0b0; stroke-width: 0.8"/>
    <path d="M 540.61848 214.142149 
L 426.792322 171.846223 
L 425.709776 61.782851 
" style="fill: none; stroke: #b0b0b0; stroke-width: 0.8"/>
    <path d="M 522.692906 221.545918 
L 408.845254 178.187276 
L 407.214266 66.952966 
" style="fill: none; stroke: #b0b0b0; stroke-width: 0.8"/>
    <path d="M 504.29618 229.144285 
L 390.462274 184.682344 
L 388.255961 72.252449 
" style="fill: none; stroke: #b0b0b0; stroke-width: 0.8"/>
    <path d="M 485.409479 236.945026 
L 371.627305 191.33711 
L 368.817273 77.686214 
" style="fill: none; stroke: #b0b0b0; stroke-width: 0.8"/>
    <path d="M 466.012965 244.956334 
L 352.323469 198.157535 
L 348.879707 83.259432 
" style="fill: none; stroke: #b0b0b0; stroke-width: 0.8"/>
   </g>
   <g id="xtick_5">
    <g id="line2d_17">
     <path d="M 574.146905 199.542045 
L 577.090161 200.584971 
" style="fill: none; stroke: #000000; stroke-width: 0.8; stroke-linecap: square"/>
    </g>
    <g id="text_15">
     <!-- 1 -->
     <g transform="translate(582.365591 221.052514) scale(0.1 -0.1)">
      <defs>
       <path id="DejaVuSans-31" d="M 794 531 
L 1825 531 
L 1825 4091 
L 703 3866 
L 703 4441 
L 1819 4666 
L 2450 4666 
L 2450 531 
L 3481 531 
L 3481 0 
L 794 0 
L 794 531 
z
" transform="scale(0.015625)"/>
      </defs>
      <use xlink:href="#DejaVuSans-31"/>
     </g>
    </g>
   </g>
   <g id="xtick_6">
    <g id="line2d_18">
     <path d="M 557.109295 206.569558 
L 560.057459 207.639031 
" style="fill: none; stroke: #000000; stroke-width: 0.8; stroke-linecap: square"/>
    </g>
    <g id="text_16">
     <!-- 2 -->
     <g transform="translate(565.389649 228.290936) scale(0.1 -0.1)">
      <use xlink:href="#DejaVuSans-32"/>
     </g>
    </g>
   </g>
   <g id="xtick_7">
    <g id="line2d_19">
     <path d="M 539.635621 213.776935 
L 542.587979 214.873982 
" style="fill: none; stroke: #000000; stroke-width: 0.8; stroke-linecap: square"/>
    </g>
    <g id="text_17">
     <!-- 3 -->
     <g transform="translate(547.977074 235.715535) scale(0.1 -0.1)">
      <defs>
       <path id="DejaVuSans-33" d="M 2597 2516 
Q 3050 2419 3304 2112 
Q 3559 1806 3559 1356 
Q 3559 666 3084 287 
Q 2609 -91 1734 -91 
Q 1441 -91 1130 -33 
Q 819 25 488 141 
L 488 750 
Q 750 597 1062 519 
Q 1375 441 1716 441 
Q 2309 441 2620 675 
Q 2931 909 2931 1356 
Q 2931 1769 2642 2001 
Q 2353 2234 1838 2234 
L 1294 2234 
L 1294 2753 
L 1863 2753 
Q 2328 2753 2575 2939 
Q 2822 3125 2822 3475 
Q 2822 3834 2567 4026 
Q 2313 4219 1838 4219 
Q 1578 4219 1281 4162 
Q 984 4106 628 3988 
L 628 4550 
Q 988 4650 1302 4700 
Q 1616 4750 1894 4750 
Q 2613 4750 3031 4423 
Q 3450 4097 3450 3541 
Q 3450 3153 3228 2886 
Q 3006 2619 2597 2516 
z
" transform="scale(0.015625)"/>
      </defs>
      <use xlink:href="#DejaVuSans-33"/>
     </g>
    </g>
   </g>
   <g id="xtick_8">
    <g id="line2d_20">
     <path d="M 521.708925 221.17117 
L 524.664703 222.296872 
" style="fill: none; stroke: #000000; stroke-width: 0.8; stroke-linecap: square"/>
    </g>
    <g id="text_18">
     <!-- 4 -->
     <g transform="translate(530.110802 243.333587) scale(0.1 -0.1)">
      <use xlink:href="#DejaVuSans-34"/>
     </g>
    </g>
   </g>
   <g id="xtick_9">
    <g id="line2d_21">
     <path d="M 503.311356 228.759627 
L 506.269715 229.915121 
" style="fill: none; stroke: #000000; stroke-width: 0.8; stroke-linecap: square"/>
    </g>
    <g id="text_19">
     <!-- 5 -->
     <g transform="translate(511.772866 251.152753) scale(0.1 -0.1)">
      <defs>
       <path id="DejaVuSans-35" d="M 691 4666 
L 3169 4666 
L 3169 4134 
L 1269 4134 
L 1269 2991 
Q 1406 3038 1543 3061 
Q 1681 3084 1819 3084 
Q 2600 3084 3056 2656 
Q 3513 2228 3513 1497 
Q 3513 744 3044 326 
Q 2575 -91 1722 -91 
Q 1428 -91 1123 -41 
Q 819 9 494 109 
L 494 744 
Q 775 591 1075 516 
Q 1375 441 1709 441 
Q 2250 441 2565 725 
Q 2881 1009 2881 1497 
Q 2881 1984 2565 2268 
Q 2250 2553 1709 2553 
Q 1456 2553 1204 2497 
Q 953 2441 691 2322 
L 691 4666 
z
" transform="scale(0.015625)"/>
      </defs>
      <use xlink:href="#DejaVuSans-35"/>
     </g>
    </g>
   </g>
   <g id="xtick_10">
    <g id="line2d_22">
     <path d="M 484.424116 236.550058 
L 487.384146 237.736542 
" style="fill: none; stroke: #000000; stroke-width: 0.8; stroke-linecap: square"/>
    </g>
    <g id="text_20">
     <!-- 6 -->
     <g transform="translate(492.944338 259.181104) scale(0.1 -0.1)">
      <use xlink:href="#DejaVuSans-36"/>
     </g>
    </g>
   </g>
   <g id="xtick_11">
    <g id="line2d_23">
     <path d="M 465.027392 244.550636 
L 467.988105 245.769375 
" style="fill: none; stroke: #000000; stroke-width: 0.8; stroke-linecap: square"/>
    </g>
    <g id="text_21">
     <!-- 7 -->
     <g transform="translate(473.605266 267.427148) scale(0.1 -0.1)">
      <defs>
       <path id="DejaVuSans-37" d="M 525 4666 
L 3525 4666 
L 3525 4397 
L 1831 0 
L 1172 0 
L 2766 4134 
L 525 4134 
L 525 4666 
z
" transform="scale(0.015625)"/>
      </defs>
      <use xlink:href="#DejaVuSans-37"/>
     </g>
    </g>
   </g>
  </g>
  <g id="axis3d_2">
   <g id="line2d_24">
    <path d="M 349.876649 199.022045 
L 463.551524 245.972978 
" style="fill: none; stroke: #000000; stroke-width: 0.8; stroke-linecap: square"/>
   </g>
   <g id="text_22">
    <!-- y -->
    <g transform="translate(378.290829 255.309842) scale(0.1 -0.1)">
     <defs>
      <path id="DejaVuSans-79" d="M 2059 -325 
Q 1816 -950 1584 -1140 
Q 1353 -1331 966 -1331 
L 506 -1331 
L 506 -850 
L 844 -850 
Q 1081 -850 1212 -737 
Q 1344 -625 1503 -206 
L 1606 56 
L 191 3500 
L 800 3500 
L 1894 763 
L 2988 3500 
L 3597 3500 
L 2059 -325 
z
" transform="scale(0.015625)"/>
     </defs>
     <use xlink:href="#DejaVuSans-79"/>
    </g>
   </g>
   <g id="Line3DCollection_2">
    <path d="M 465.724465 51.812223 
L 465.663743 159.604762 
L 351.976283 199.889253 
" style="fill: none; stroke: #b0b0b0; stroke-width: 0.8"/>
    <path d="M 483.343815 56.737422 
L 482.784247 165.653773 
L 369.012274 206.925599 
" style="fill: none; stroke: #b0b0b0; stroke-width: 0.8"/>
    <path d="M 501.393272 61.782851 
L 500.310726 171.846223 
L 386.484568 214.142149 
" style="fill: none; stroke: #b0b0b0; stroke-width: 0.8"/>
    <path d="M 519.888783 66.952966 
L 518.257794 178.187276 
L 404.410142 221.545918 
" style="fill: none; stroke: #b0b0b0; stroke-width: 0.8"/>
    <path d="M 538.847087 72.252449 
L 536.640774 184.682344 
L 422.806868 229.144285 
" style="fill: none; stroke: #b0b0b0; stroke-width: 0.8"/>
    <path d="M 558.285775 77.686214 
L 555.475743 191.33711 
L 441.693569 236.945026 
" style="fill: none; stroke: #b0b0b0; stroke-width: 0.8"/>
    <path d="M 578.223341 83.259432 
L 574.779579 198.157535 
L 461.090084 244.956334 
" style="fill: none; stroke: #b0b0b0; stroke-width: 0.8"/>
   </g>
   <g id="xtick_12">
    <g id="line2d_25">
     <path d="M 352.956144 199.542045 
L 350.012887 200.584971 
" style="fill: none; stroke: #000000; stroke-width: 0.8; stroke-linecap: square"/>
    </g>
    <g id="text_23">
     <!-- 0 -->
     <g transform="translate(338.374957 221.052514) scale(0.1 -0.1)">
      <use xlink:href="#DejaVuSans-30"/>
     </g>
    </g>
   </g>
   <g id="xtick_13">
    <g id="line2d_26">
     <path d="M 369.993753 206.569558 
L 367.04559 207.639031 
" style="fill: none; stroke: #000000; stroke-width: 0.8; stroke-linecap: square"/>
    </g>
    <g id="text_24">
     <!-- 1 -->
     <g transform="translate(355.350899 228.290936) scale(0.1 -0.1)">
      <use xlink:href="#DejaVuSans-31"/>
     </g>
    </g>
   </g>
   <g id="xtick_14">
    <g id="line2d_27">
     <path d="M 387.467427 213.776935 
L 384.515069 214.873982 
" style="fill: none; stroke: #000000; stroke-width: 0.8; stroke-linecap: square"/>
    </g>
    <g id="text_25">
     <!-- 2 -->
     <g transform="translate(372.763474 235.715535) scale(0.1 -0.1)">
      <use xlink:href="#DejaVuSans-32"/>
     </g>
    </g>
   </g>
   <g id="xtick_15">
    <g id="line2d_28">
     <path d="M 405.394124 221.17117 
L 402.438346 222.296872 
" style="fill: none; stroke: #000000; stroke-width: 0.8; stroke-linecap: square"/>
    </g>
    <g id="text_26">
     <!-- 3 -->
     <g transform="translate(390.629747 243.333587) scale(0.1 -0.1)">
      <use xlink:href="#DejaVuSans-33"/>
     </g>
    </g>
   </g>
   <g id="xtick_16">
    <g id="line2d_29">
     <path d="M 423.791692 228.759627 
L 420.833333 229.915121 
" style="fill: none; stroke: #000000; stroke-width: 0.8; stroke-linecap: square"/>
    </g>
    <g id="text_27">
     <!-- 4 -->
     <g transform="translate(408.967683 251.152753) scale(0.1 -0.1)">
      <use xlink:href="#DejaVuSans-34"/>
     </g>
    </g>
   </g>
   <g id="xtick_17">
    <g id="line2d_30">
     <path d="M 442.678932 236.550058 
L 439.718902 237.736542 
" style="fill: none; stroke: #000000; stroke-width: 0.8; stroke-linecap: square"/>
    </g>
    <g id="text_28">
     <!-- 5 -->
     <g transform="translate(427.79621 259.181104) scale(0.1 -0.1)">
      <use xlink:href="#DejaVuSans-35"/>
     </g>
    </g>
   </g>
   <g id="xtick_18">
    <g id="line2d_31">
     <path d="M 462.075656 244.550636 
L 459.114944 245.769375 
" style="fill: none; stroke: #000000; stroke-width: 0.8; stroke-linecap: square"/>
    </g>
    <g id="text_29">
     <!-- 6 -->
     <g transform="translate(447.135282 267.427148) scale(0.1 -0.1)">
      <use xlink:href="#DejaVuSans-36"/>
     </g>
    </g>
   </g>
  </g>
  <g id="axis3d_3">
   <g id="line2d_32">
    <path d="M 349.876649 199.022045 
L 346.351476 83.966158 
" style="fill: none; stroke: #000000; stroke-width: 0.8; stroke-linecap: square"/>
   </g>
   <g id="text_30">
    <!-- $\theta$ -->
    <g transform="translate(301.605686 139.35844) rotate(-271.754924) scale(0.1 -0.1)">
     <defs>
      <path id="DejaVuSans-Oblique-3b8" d="M 2913 2219 
L 925 2219 
Q 791 1284 928 888 
Q 1100 400 1566 400 
Q 2034 400 2391 891 
Q 2703 1322 2913 2219 
z
M 3009 2750 
Q 3094 3638 2984 3950 
Q 2813 4444 2353 4444 
Q 1875 4444 1525 3956 
Q 1250 3563 1034 2750 
L 3009 2750 
z
M 2444 4913 
Q 3194 4913 3494 4250 
Q 3794 3591 3566 2422 
Q 3341 1256 2781 594 
Q 2225 -72 1475 -72 
Q 722 -72 425 594 
Q 128 1256 353 2422 
Q 581 3591 1134 4250 
Q 1691 4913 2444 4913 
z
" transform="scale(0.015625)"/>
     </defs>
     <use xlink:href="#DejaVuSans-Oblique-3b8" transform="translate(0 0.234375)"/>
    </g>
   </g>
   <g id="Line3DCollection_3">
    <path d="M 349.808225 196.788797 
L 463.551524 156.764311 
L 577.294823 196.788797 
" style="fill: none; stroke: #b0b0b0; stroke-width: 0.8"/>
    <path d="M 349.282773 179.638912 
L 463.551524 140.68858 
L 577.820275 179.638912 
" style="fill: none; stroke: #b0b0b0; stroke-width: 0.8"/>
    <path d="M 348.752444 162.329838 
L 463.551524 124.474517 
L 578.350604 162.329838 
" style="fill: none; stroke: #b0b0b0; stroke-width: 0.8"/>
    <path d="M 348.21717 144.85935 
L 463.551524 108.120328 
L 578.885878 144.85935 
" style="fill: none; stroke: #b0b0b0; stroke-width: 0.8"/>
    <path d="M 347.67688 127.22518 
L 463.551524 91.624189 
L 579.426168 127.22518 
" style="fill: none; stroke: #b0b0b0; stroke-width: 0.8"/>
    <path d="M 347.131505 109.425015 
L 463.551524 74.984243 
L 579.971544 109.425015 
" style="fill: none; stroke: #b0b0b0; stroke-width: 0.8"/>
    <path d="M 346.580971 91.456502 
L 463.551524 58.198603 
L 580.522077 91.456502 
" style="fill: none; stroke: #b0b0b0; stroke-width: 0.8"/>
   </g>
   <g id="xtick_19">
    <g id="line2d_33">
     <path d="M 350.7885 196.443854 
L 347.844003 197.479976 
" style="fill: none; stroke: #000000; stroke-width: 0.8; stroke-linecap: square"/>
    </g>
    <g id="text_31">
     <!-- 0 -->
     <g transform="translate(326.823411 204.387235) scale(0.1 -0.1)">
      <use xlink:href="#DejaVuSans-30"/>
     </g>
    </g>
   </g>
   <g id="xtick_20">
    <g id="line2d_34">
     <path d="M 350.267903 179.303114 
L 347.308807 180.31177 
" style="fill: none; stroke: #000000; stroke-width: 0.8; stroke-linecap: square"/>
    </g>
    <g id="text_32">
     <!-- 1 -->
     <g transform="translate(326.206474 187.237349) scale(0.1 -0.1)">
      <use xlink:href="#DejaVuSans-31"/>
     </g>
    </g>
   </g>
   <g id="xtick_21">
    <g id="line2d_35">
     <path d="M 349.742476 162.003372 
L 346.768637 162.984004 
" style="fill: none; stroke: #000000; stroke-width: 0.8; stroke-linecap: square"/>
    </g>
    <g id="text_33">
     <!-- 2 -->
     <g transform="translate(325.58381 169.928276) scale(0.1 -0.1)">
      <use xlink:href="#DejaVuSans-32"/>
     </g>
    </g>
   </g>
   <g id="xtick_22">
    <g id="line2d_36">
     <path d="M 349.212153 144.542405 
L 346.223423 145.494446 
" style="fill: none; stroke: #000000; stroke-width: 0.8; stroke-linecap: square"/>
    </g>
    <g id="text_34">
     <!-- 3 -->
     <g transform="translate(324.955341 152.457788) scale(0.1 -0.1)">
      <use xlink:href="#DejaVuSans-33"/>
     </g>
    </g>
   </g>
   <g id="xtick_23">
    <g id="line2d_37">
     <path d="M 348.676865 126.917947 
L 345.673094 127.840817 
" style="fill: none; stroke: #000000; stroke-width: 0.8; stroke-linecap: square"/>
    </g>
    <g id="text_35">
     <!-- 4 -->
     <g transform="translate(324.320982 134.823617) scale(0.1 -0.1)">
      <use xlink:href="#DejaVuSans-34"/>
     </g>
    </g>
   </g>
   <g id="xtick_24">
    <g id="line2d_38">
     <path d="M 348.136541 109.127693 
L 345.117578 110.020799 
" style="fill: none; stroke: #000000; stroke-width: 0.8; stroke-linecap: square"/>
    </g>
    <g id="text_36">
     <!-- 5 -->
     <g transform="translate(323.680653 117.023453) scale(0.1 -0.1)">
      <use xlink:href="#DejaVuSans-35"/>
     </g>
    </g>
   </g>
   <g id="xtick_25">
    <g id="line2d_39">
     <path d="M 347.59111 91.169292 
L 344.556802 92.032028 
" style="fill: none; stroke: #000000; stroke-width: 0.8; stroke-linecap: square"/>
    </g>
    <g id="text_37">
     <!-- 6 -->
     <g transform="translate(323.034268 99.054939) scale(0.1 -0.1)">
      <use xlink:href="#DejaVuSans-36"/>
     </g>
    </g>
   </g>
  </g>
  <g id="axes_2">
   <g id="Poly3DCollection_1">
    <defs>
     <path id="m3633629afe" d="M 437.395061 -134.639722 
L 382.163947 -114.919518 
L 388.893299 -97.329751 
L 425.24225 -82.426591 
L 481.980325 -104.498965 
L 517.475679 -118.307448 
L 481.093998 -131.451817 
L 437.395061 -134.639722 
z
" style="stroke: #000000"/>
    </defs>
    <g clip-path="url(#p287c95b996)">
     <use xlink:href="#m3633629afe" x="0" y="308.278125" style="fill: #808080; stroke: #000000"/>
    </g>
   </g>
   <g id="Poly3DCollection_2">
    <defs>
     <path id="mc106039d9e" d="M 434.734125 -135.319166 
L 379.264043 -115.574392 
L 390.818441 -98.438926 
L 427.283842 -83.53796 
L 484.043245 -105.606593 
L 515.459687 -120.741545 
L 479.152872 -133.817877 
L 434.734125 -135.319166 
z
" style="stroke: #000000"/>
    </defs>
    <g clip-path="url(#p287c95b996)">
     <use xlink:href="#mc106039d9e" x="0" y="308.278125" style="fill: #828282; stroke: #000000"/>
    </g>
   </g>
   <g id="Poly3DCollection_3">
    <defs>
     <path id="me04e0788a4" d="M 432.371198 -135.909003 
L 376.661924 -116.132582 
L 392.943942 -99.639405 
L 429.525692 -84.74541 
L 486.290217 -106.803268 
L 513.279049 -123.091763 
L 477.045707 -136.104052 
L 432.371198 -135.909003 
z
" style="stroke: #000000"/>
    </defs>
    <g clip-path="url(#p287c95b996)">
     <use xlink:href="#me04e0788a4" x="0" y="308.278125" style="fill: #848484; stroke: #000000"/>
    </g>
   </g>
   <g id="Poly3DCollection_4">
    <defs>
     <path id="m43c72dda66" d="M 430.333302 -136.421371 
L 374.386865 -116.607091 
L 395.246016 -100.937984 
L 431.942867 -86.056125 
L 488.696494 -108.095606 
L 510.957188 -125.35297 
L 474.794984 -138.305446 
L 430.333302 -136.421371 
z
" style="stroke: #000000"/>
    </defs>
    <g clip-path="url(#p287c95b996)">
     <use xlink:href="#m43c72dda66" x="0" y="308.278125" style="fill: #868686; stroke: #000000"/>
    </g>
   </g>
   <g id="Poly3DCollection_5">
    <defs>
     <path id="m77275a6a34" d="M 428.644549 -136.869294 
L 372.465276 -117.011889 
L 397.698586 -102.34031 
L 434.508144 -87.476076 
L 491.23524 -109.489099 
L 508.51882 -127.521009 
L 472.42451 -140.418096 
L 428.644549 -136.869294 
z
" style="stroke: #000000"/>
    </defs>
    <g clip-path="url(#p287c95b996)">
     <use xlink:href="#m77275a6a34" x="0" y="308.278125" style="fill: #888888; stroke: #000000"/>
    </g>
   </g>
   <g id="Poly3DCollection_6">
    <defs>
     <path id="mebf5725055" d="M 427.325827 -137.26659 
L 370.920354 -117.361802 
L 400.273604 -103.8508 
L 437.192338 -89.009939 
L 493.877865 -110.988045 
L 505.989713 -129.592716 
L 469.959187 -142.438983 
L 427.325827 -137.26659 
z
" style="stroke: #000000"/>
    </defs>
    <g clip-path="url(#p287c95b996)">
     <use xlink:href="#mebf5725055" x="0" y="308.278125" style="fill: #8a8a8a; stroke: #000000"/>
    </g>
   </g>
   <g id="Poly3DCollection_7">
    <defs>
     <path id="m3cccf5878d" d="M 426.394483 -137.627747 
L 369.771747 -117.672396 
L 405.108205 -103.507975 
L 439.964671 -90.661022 
L 496.594379 -112.595477 
L 503.396458 -131.565936 
L 467.424784 -144.366053 
L 426.394483 -137.627747 
z
" style="stroke: #000000"/>
    </defs>
    <g clip-path="url(#p287c95b996)">
     <use xlink:href="#m3cccf5878d" x="0" y="308.278125" style="fill: #8c8c8c; stroke: #000000"/>
    </g>
   </g>
   <g id="Poly3DCollection_8">
    <defs>
     <path id="m2934c5ce56" d="M 425.864028 -137.967797 
L 369.035229 -117.959834 
L 404.4716 -103.75516 
L 442.793168 -92.431225 
L 499.353781 -114.313131 
L 500.766222 -133.439527 
L 464.847703 -146.198219 
L 425.864028 -137.967797 
z
" style="stroke: #000000"/>
    </defs>
    <g clip-path="url(#p287c95b996)">
     <use xlink:href="#m2934c5ce56" x="0" y="308.278125" style="fill: #8e8e8e; stroke: #000000"/>
    </g>
   </g>
   <g id="Poly3DCollection_9">
    <defs>
     <path id="m4069547c9b" d="M 425.743866 -138.302169 
L 368.722396 -118.240722 
L 404.27096 -103.995127 
L 445.645078 -94.32101 
L 502.124462 -116.141415 
L 498.126516 -135.213355 
L 462.254744 -147.93536 
L 425.743866 -138.302169 
z
" style="stroke: #000000"/>
    </defs>
    <g clip-path="url(#p287c95b996)">
     <use xlink:href="#m4069547c9b" x="0" y="308.278125" style="fill: #909090; stroke: #000000"/>
    </g>
   </g>
   <g id="Poly3DCollection_10">
    <defs>
     <path id="m63aa06fe11" d="M 426.039049 -138.646536 
L 368.840389 -118.531942 
L 404.512609 -104.245646 
L 448.487309 -96.329395 
L 504.874628 -118.07941 
L 495.504952 -136.888294 
L 459.672874 -149.578312 
L 426.039049 -138.646536 
z
" style="stroke: #000000"/>
    </defs>
    <g clip-path="url(#p287c95b996)">
     <use xlink:href="#m63aa06fe11" x="0" y="308.278125" style="fill: #939393; stroke: #000000"/>
    </g>
   </g>
   <g id="Poly3DCollection_11">
    <defs>
     <path id="ma81cfdfbe3" d="M 457.128987 -151.128856 
L 402.278167 -131.897894 
L 369.39166 -118.850473 
L 405.198036 -104.524597 
L 451.286873 -98.453982 
L 507.572718 -120.124888 
L 492.929004 -138.466203 
L 457.128987 -151.128856 
z
" style="stroke: #000000"/>
    </defs>
    <g clip-path="url(#p287c95b996)">
     <use xlink:href="#ma81cfdfbe3" x="0" y="308.278125" style="fill: #959595; stroke: #000000"/>
    </g>
   </g>
   <g id="Poly3DCollection_12">
    <defs>
     <path id="mfeecabca29" d="M 454.649672 -152.589698 
L 399.648169 -133.393213 
L 370.373775 -119.213189 
L 406.323706 -104.849767 
L 454.011323 -100.690991 
L 510.187825 -122.27435 
L 490.425771 -139.94991 
L 454.649672 -152.589698 
z
" style="stroke: #000000"/>
    </defs>
    <g clip-path="url(#p287c95b996)">
     <use xlink:href="#mfeecabca29" x="0" y="308.278125" style="fill: #979797; stroke: #000000"/>
    </g>
   </g>
   <g id="Poly3DCollection_13">
    <defs>
     <path id="m624648ba06" d="M 452.260979 -153.96444 
L 397.101897 -134.795809 
L 371.779281 -119.636661 
L 407.880924 -105.238634 
L 456.629184 -103.035325 
L 512.690101 -124.523087 
L 488.021736 -141.343185 
L 452.260979 -153.96444 
z
" style="stroke: #000000"/>
    </defs>
    <g clip-path="url(#p287c95b996)">
     <use xlink:href="#m624648ba06" x="0" y="308.278125" style="fill: #999999; stroke: #000000"/>
    </g>
   </g>
   <g id="Poly3DCollection_14">
    <defs>
     <path id="ma6c69d0cce" d="M 449.988179 -155.257553 
L 394.665918 -136.110469 
L 373.595636 -120.13694 
L 409.855777 -105.708137 
L 459.110366 -105.480656 
L 515.051145 -126.865249 
L 485.742525 -142.650705 
L 449.988179 -155.257553 
z
" style="stroke: #000000"/>
    </defs>
    <g clip-path="url(#p287c95b996)">
     <use xlink:href="#ma6c69d0cce" x="0" y="308.278125" style="fill: #9b9b9b; stroke: #000000"/>
    </g>
   </g>
   <g id="Poly3DCollection_15">
    <defs>
     <path id="mb6705bcdc5" d="M 447.855531 -156.474335 
L 392.365861 -137.342869 
L 375.805208 -120.729343 
L 412.229143 -106.274454 
L 461.426547 -108.019523 
L 517.244362 -129.293944 
L 483.612677 -143.878015 
L 447.855531 -156.474335 
z
" style="stroke: #000000"/>
    </defs>
    <g clip-path="url(#p287c95b996)">
     <use xlink:href="#mb6705bcdc5" x="0" y="308.278125" style="fill: #9d9d9d; stroke: #000000"/>
    </g>
   </g>
   <g id="Poly3DCollection_16">
    <defs>
     <path id="mfe1471dc1d" d="M 445.886052 -157.620866 
L 390.226174 -138.499528 
L 378.385361 -121.428236 
L 414.976784 -106.952766 
L 463.551524 -110.643446 
L 519.245293 -131.801342 
L 481.655398 -145.031485 
L 445.886052 -157.620866 
z
" style="stroke: #000000"/>
    </defs>
    <g clip-path="url(#p287c95b996)">
     <use xlink:href="#mfe1471dc1d" x="0" y="308.278125" style="fill: #9f9f9f; stroke: #000000"/>
    </g>
   </g>
   <g id="Poly3DCollection_17">
    <defs>
     <path id="m0c5a7ecb73" d="M 444.101283 -158.703962 
L 388.269883 -139.587754 
L 381.308615 -122.246824 
L 418.069534 -107.757038 
L 465.461528 -113.343057 
L 521.031899 -134.378791 
L 483.43098 -147.533314 
L 444.101283 -158.703962 
z
" style="stroke: #000000"/>
    </defs>
    <g clip-path="url(#p287c95b996)">
     <use xlink:href="#m0c5a7ecb73" x="0" y="308.278125" style="fill: #a2a2a2; stroke: #000000"/>
    </g>
   </g>
   <g id="Poly3DCollection_18">
    <defs>
     <path id="m24d159a12d" d="M 442.521061 -159.73111 
L 386.518347 -140.615586 
L 384.542905 -123.196949 
L 421.473566 -108.6998 
L 467.135491 -116.108239 
L 522.584815 -137.016943 
L 484.983223 -150.092898 
L 442.521061 -159.73111 
z
" style="stroke: #000000"/>
    </defs>
    <g clip-path="url(#p287c95b996)">
     <use xlink:href="#m24d159a12d" x="0" y="308.278125" style="fill: #a4a4a4; stroke: #000000"/>
    </g>
   </g>
   <g id="Poly3DCollection_19">
    <defs>
     <path id="m1960b726f7" d="M 441.163302 -160.710409 
L 384.991034 -141.591718 
L 388.051915 -124.288905 
L 425.150759 -109.791953 
L 468.555271 -118.928267 
L 523.887548 -139.705892 
L 486.295399 -152.700822 
L 441.163302 -160.710409 
z
" style="stroke: #000000"/>
    </defs>
    <g clip-path="url(#p287c95b996)">
     <use xlink:href="#m1960b726f7" x="0" y="308.278125" style="fill: #a6a6a6; stroke: #000000"/>
    </g>
   </g>
   <g id="Poly3DCollection_20">
    <defs>
     <path id="mf58d94f305" d="M 440.043788 -161.650497 
L 383.705282 -142.525431 
L 391.795513 -125.531269 
L 429.059152 -111.042589 
L 469.705827 -121.791961 
L 524.926634 -142.435303 
L 487.353689 -155.347266 
L 440.043788 -161.650497 
z
" style="stroke: #000000"/>
    </defs>
    <g clip-path="url(#p287c95b996)">
     <use xlink:href="#mf58d94f305" x="0" y="308.278125" style="fill: #a8a8a8; stroke: #000000"/>
    </g>
   </g>
   <g id="Poly3DCollection_21">
    <defs>
     <path id="m8ad9e83b5b" d="M 439.175962 -162.560469 
L 382.676086 -143.426503 
L 395.730249 -126.930767 
L 433.153473 -112.458839 
L 470.575345 -124.687831 
L 525.691751 -145.194558 
L 488.1473 -158.022136 
L 439.175962 -162.560469 
z
" style="stroke: #000000"/>
    </defs>
    <g clip-path="url(#p287c95b996)">
     <use xlink:href="#m8ad9e83b5b" x="0" y="308.278125" style="fill: #aaaaaa; stroke: #000000"/>
    </g>
   </g>
   <g id="Poly3DCollection_22">
    <defs>
     <path id="me2bda0b159" d="M 438.570742 -163.449792 
L 381.915895 -144.305123 
L 399.809934 -128.492153 
L 437.385747 -114.045756 
L 495.051907 -135.434888 
L 526.175778 -147.972885 
L 488.668533 -160.71519 
L 438.570742 -163.449792 
z
" style="stroke: #000000"/>
    </defs>
    <g clip-path="url(#p287c95b996)">
     <use xlink:href="#me2bda0b159" x="0" y="308.278125" style="fill: #acacac; stroke: #000000"/>
    </g>
   </g>
   <g id="Poly3DCollection_23">
    <defs>
     <path id="m0d0abe1299" d="M 438.236353 -164.328217 
L 381.434416 -145.171783 
L 403.986283 -130.218138 
L 441.705967 -115.806227 
L 499.250418 -137.144075 
L 526.374823 -150.759491 
L 488.912819 -163.416165 
L 438.236353 -164.328217 
z
" style="stroke: #000000"/>
    </defs>
    <g clip-path="url(#p287c95b996)">
     <use xlink:href="#m0d0abe1299" x="0" y="308.278125" style="fill: #aeaeae; stroke: #000000"/>
    </g>
   </g>
   <g id="Poly3DCollection_24">
    <defs>
     <path id="mf9882f1110" d="M 438.178173 -165.205672 
L 381.238453 -146.037182 
L 408.209591 -132.10934 
L 446.062802 -117.740928 
L 503.466654 -139.014233 
L 526.288196 -153.543696 
L 488.878708 -166.114901 
L 438.178173 -165.205672 
z
" style="stroke: #000000"/>
    </defs>
    <g clip-path="url(#p287c95b996)">
     <use xlink:href="#mf9882f1110" x="0" y="308.278125" style="fill: #b0b0b0; stroke: #000000"/>
    </g>
   </g>
   <g id="Poly3DCollection_25">
    <defs>
     <path id="m4d1ffdf070" d="M 438.398612 -166.092162 
L 381.331757 -146.912106 
L 412.429456 -134.164281 
L 450.404349 -119.848314 
L 507.65083 -141.043915 
L 525.918352 -156.315042 
L 488.56782 -168.801448 
L 438.398612 -166.092162 
z
" style="stroke: #000000"/>
    </defs>
    <g clip-path="url(#p287c95b996)">
     <use xlink:href="#m4d1ffdf070" x="0" y="308.278125" style="fill: #b2b2b2; stroke: #000000"/>
    </g>
   </g>
   <g id="Poly3DCollection_26">
    <defs>
     <path id="mdb9cd9fa4b" d="M 438.897019 -166.997658 
L 381.714914 -147.807309 
L 418.033275 -134.170265 
L 454.678892 -122.124653 
L 511.753557 -143.229666 
L 525.270799 -159.063415 
L 487.984768 -171.466179 
L 438.897019 -166.997658 
z
" style="stroke: #000000"/>
    </defs>
    <g clip-path="url(#p287c95b996)">
     <use xlink:href="#mdb9cd9fa4b" x="0" y="308.278125" style="fill: #b5b5b5; stroke: #000000"/>
    </g>
   </g>
   <g id="Poly3DCollection_27">
    <defs>
     <path id="m7215f7ca55" d="M 439.669614 -167.931982 
L 382.385267 -148.733398 
L 418.807459 -135.088501 
L 458.835651 -124.564095 
L 515.726562 -145.566088 
L 524.353974 -161.779138 
L 487.137042 -174.099883 
L 439.669614 -167.931982 
z
" style="stroke: #000000"/>
    </defs>
    <g clip-path="url(#p287c95b996)">
     <use xlink:href="#m7215f7ca55" x="0" y="308.278125" style="fill: #b7b7b7; stroke: #000000"/>
    </g>
   </g>
   <g id="Poly3DCollection_28">
    <defs>
     <path id="m68a119fee4" d="M 440.709467 -168.904694 
L 383.336864 -149.700699 
L 419.868147 -136.050008 
L 462.825519 -127.158785 
L 519.52337 -148.045935 
L 523.179092 -164.45307 
L 486.034876 -176.693853 
L 440.709467 -168.904694 
z
" style="stroke: #000000"/>
    </defs>
    <g clip-path="url(#p287c95b996)">
     <use xlink:href="#m68a119fee4" x="0" y="308.278125" style="fill: #b9b9b9; stroke: #000000"/>
    </g>
   </g>
   <g id="Poly3DCollection_29">
    <defs>
     <path id="m37041bfb9a" d="M 442.006513 -169.924971 
L 384.560465 -150.719134 
L 421.205142 -137.065255 
L 466.601756 -129.899001 
L 523.099961 -150.660251 
L 521.759977 -167.076684 
L 484.691086 -179.239969 
L 442.006513 -169.924971 
z
" style="stroke: #000000"/>
    </defs>
    <g clip-path="url(#p287c95b996)">
     <use xlink:href="#m37041bfb9a" x="0" y="308.278125" style="fill: #bbbbbb; stroke: #000000"/>
    </g>
   </g>
   <g id="Poly3DCollection_30">
    <defs>
     <path id="m9b42243e14" d="M 443.547607 -171.001497 
L 386.043575 -151.798098 
L 422.804928 -138.144162 
L 470.120627 -132.77333 
L 526.415356 -153.398522 
L 520.112869 -169.64214 
L 483.120894 -181.730761 
L 443.547607 -171.001497 
z
" style="stroke: #000000"/>
    </defs>
    <g clip-path="url(#p287c95b996)">
     <use xlink:href="#m9b42243e14" x="0" y="308.278125" style="fill: #bdbdbd; stroke: #000000"/>
    </g>
   </g>
   <g id="Poly3DCollection_31">
    <defs>
     <path id="m08981537a0" d="M 445.316625 -172.142346 
L 387.770538 -152.946332 
L 424.650768 -139.295959 
L 473.341973 -135.768867 
L 529.432153 -156.248857 
L 518.256221 -172.142346 
L 481.34173 -184.15947 
L 445.316625 -172.142346 
z
" style="stroke: #000000"/>
    </defs>
    <g clip-path="url(#p287c95b996)">
     <use xlink:href="#m08981537a0" x="0" y="308.278125" style="fill: #bfbfbf; stroke: #000000"/>
    </g>
   </g>
   <g id="Poly3DCollection_32">
    <defs>
     <path id="mb08d3a2044" d="M 479.373029 -186.520099 
L 424.618586 -168.369789 
L 389.722673 -154.171808 
L 426.722852 -140.529074 
L 476.229707 -138.871428 
L 532.116979 -159.198187 
L 516.21048 -174.57101 
L 479.373029 -186.520099 
z
" style="stroke: #000000"/>
    </defs>
    <g clip-path="url(#p287c95b996)">
     <use xlink:href="#mb08d3a2044" x="0" y="308.278125" style="fill: #c1c1c1; stroke: #000000"/>
    </g>
   </g>
   <g id="Poly3DCollection_33">
    <defs>
     <path id="m9248a2b645" d="M 477.236017 -188.807451 
L 422.434042 -170.754976 
L 391.878455 -155.481621 
L 428.998495 -141.851006 
L 478.752226 -142.065784 
L 534.440865 -162.232477 
L 513.997867 -176.92268 
L 477.236017 -188.807451 
z
" style="stroke: #000000"/>
    </defs>
    <g clip-path="url(#p287c95b996)">
     <use xlink:href="#m9248a2b645" x="0" y="308.278125" style="fill: #c3c3c3; stroke: #000000"/>
    </g>
   </g>
   <g id="Poly3DCollection_34">
    <defs>
     <path id="mf59e898f28" d="M 474.953483 -191.017164 
L 420.089515 -173.056512 
L 394.213753 -156.881887 
L 431.452383 -143.268228 
L 480.882729 -145.335901 
L 536.379531 -165.33694 
L 511.642141 -179.192778 
L 474.953483 -191.017164 
z
" style="stroke: #000000"/>
    </defs>
    <g clip-path="url(#p287c95b996)">
     <use xlink:href="#mf59e898f28" x="0" y="308.278125" style="fill: #c6c6c6; stroke: #000000"/>
    </g>
   </g>
   <g id="Poly3DCollection_35">
    <defs>
     <path id="m1e32a730c9" d="M 472.549559 -193.14573 
L 417.609477 -175.27063 
L 396.702103 -158.37766 
L 434.056869 -144.786089 
L 482.599447 -148.665177 
L 537.91359 -168.496262 
L 509.168366 -181.377627 
L 472.549559 -193.14573 
z
" style="stroke: #000000"/>
    </defs>
    <g clip-path="url(#p287c95b996)">
     <use xlink:href="#m1e32a730c9" x="0" y="308.278125" style="fill: #c8c8c8; stroke: #000000"/>
    </g>
   </g>
   <g id="Poly3DCollection_36">
    <defs>
     <path id="mcf2d92529e" d="M 470.049484 -195.190516 
L 415.019636 -177.394496 
L 399.315029 -159.972857 
L 436.782306 -146.408739 
L 483.885789 -152.036681 
L 539.028669 -171.694814 
L 506.602673 -183.474462 
L 470.049484 -195.190516 
z
" style="stroke: #000000"/>
    </defs>
    <g clip-path="url(#p287c95b996)">
     <use xlink:href="#mcf2d92529e" x="0" y="308.278125" style="fill: #cacaca; stroke: #000000"/>
    </g>
   </g>
   <g id="Poly3DCollection_37">
    <defs>
     <path id="mbd4f88b993" d="M 467.479372 -197.14977 
L 412.346701 -179.426228 
L 402.022401 -161.670201 
L 439.597422 -148.139069 
L 484.730394 -155.433384 
L 539.715443 -174.916869 
L 501.550034 -187.098565 
L 467.479372 -197.14977 
z
" style="stroke: #000000"/>
    </defs>
    <g clip-path="url(#p287c95b996)">
     <use xlink:href="#mbd4f88b993" x="0" y="308.278125" style="fill: #cccccc; stroke: #000000"/>
    </g>
   </g>
   <g id="Poly3DCollection_38">
    <defs>
     <path id="mfcee5c3602" d="M 464.865976 -199.022627 
L 409.618142 -181.364889 
L 404.792819 -163.47119 
L 442.469723 -149.978673 
L 485.127112 -158.838375 
L 539.969599 -178.146796 
L 501.884139 -190.220844 
L 464.865976 -199.022627 
z
" style="stroke: #000000"/>
    </defs>
    <g clip-path="url(#p287c95b996)">
     <use xlink:href="#mfcee5c3602" x="0" y="308.278125" style="fill: #cecece; stroke: #000000"/>
    </g>
   </g>
   <g id="Poly3DCollection_39">
    <defs>
     <path id="m9edb77265c" d="M 462.236455 -200.809103 
L 406.861952 -183.210491 
L 407.594029 -165.376069 
L 445.365925 -151.927823 
L 485.074908 -162.235063 
L 539.791736 -181.36925 
L 501.797128 -193.33614 
L 462.236455 -200.809103 
z
" style="stroke: #000000"/>
    </defs>
    <g clip-path="url(#p287c95b996)">
     <use xlink:href="#m9edb77265c" x="0" y="308.278125" style="fill: #d0d0d0; stroke: #000000"/>
    </g>
   </g>
   <g id="Poly3DCollection_40">
    <defs>
     <path id="m08624a863b" d="M 459.618133 -202.510087 
L 404.1064 -184.963982 
L 410.393347 -167.383836 
L 448.252392 -153.985471 
L 484.577708 -165.607362 
L 539.187201 -184.569342 
L 501.293 -196.430291 
L 459.618133 -202.510087 
z
" style="stroke: #000000"/>
    </defs>
    <g clip-path="url(#p287c95b996)">
     <use xlink:href="#m08624a863b" x="0" y="308.278125" style="fill: #d2d2d2; stroke: #000000"/>
    </g>
   </g>
   <g id="Poly3DCollection_41">
    <defs>
     <path id="me1c043f35b" d="M 457.038267 -204.127324 
L 401.379794 -186.627229 
L 413.158095 -169.492263 
L 451.095593 -156.149271 
L 508.232615 -175.904702 
L 538.165878 -187.732793 
L 500.38021 -199.489705 
L 457.038267 -204.127324 
z
" style="stroke: #000000"/>
    </defs>
    <g clip-path="url(#p287c95b996)">
     <use xlink:href="#me1c043f35b" x="0" y="308.278125" style="fill: #d4d4d4; stroke: #000000"/>
    </g>
   </g>
   <g id="Poly3DCollection_42">
    <defs>
     <path id="madd07859fc" d="M 454.523802 -205.6634 
L 398.710234 -188.202998 
L 415.85604 -171.697929 
L 453.862548 -158.415618 
L 510.886858 -178.08123 
L 536.741937 -190.846068 
L 499.071436 -202.501495 
L 454.523802 -205.6634 
z
" style="stroke: #000000"/>
    </defs>
    <g clip-path="url(#p287c95b996)">
     <use xlink:href="#madd07859fc" x="0" y="308.278125" style="fill: #d7d7d7; stroke: #000000"/>
    </g>
   </g>
   <g id="Poly3DCollection_43">
    <defs>
     <path id="mdd02f8c028" d="M 452.10114 -207.12171 
L 396.125366 -189.69493 
L 418.455817 -173.996285 
L 456.521265 -160.779714 
L 513.426435 -180.348064 
L 534.933545 -193.896495 
L 497.38332 -205.45359 
L 452.10114 -207.12171 
z
" style="stroke: #000000"/>
    </defs>
    <g clip-path="url(#p287c95b996)">
     <use xlink:href="#mdd02f8c028" x="0" y="308.278125" style="fill: #d9d9d9; stroke: #000000"/>
    </g>
   </g>
   <g id="Poly3DCollection_44">
    <defs>
     <path id="mc5cc899d57" d="M 449.795899 -208.506434 
L 393.65214 -191.107502 
L 420.927342 -176.381723 
L 459.041161 -163.235639 
L 515.822505 -182.699742 
L 532.762566 -196.872363 
L 495.336178 -208.334828 
L 449.795899 -208.506434 
z
" style="stroke: #000000"/>
    </defs>
    <g clip-path="url(#p287c95b996)">
     <use xlink:href="#mc5cc899d57" x="0" y="308.278125" style="fill: #dbdbdb; stroke: #000000"/>
    </g>
   </g>
   <g id="Poly3DCollection_45">
    <defs>
     <path id="me2ec68f2ee" d="M 447.632676 -209.822492 
L 391.316559 -192.445995 
L 423.242191 -178.847666 
L 461.393456 -165.776453 
L 518.048069 -185.129862 
L 530.254231 -199.763004 
L 492.953689 -211.135037 
L 447.632676 -209.822492 
z
" style="stroke: #000000"/>
    </defs>
    <g clip-path="url(#p287c95b996)">
     <use xlink:href="#me2ec68f2ee" x="0" y="308.278125" style="fill: #dddddd; stroke: #000000"/>
    </g>
   </g>
   <g id="Poly3DCollection_46">
    <defs>
     <path id="m13051b0fd1" d="M 445.63481 -211.075511 
L 389.143436 -193.716444 
L 425.373961 -181.386674 
L 463.551524 -168.394299 
L 520.0783 -187.631176 
L 527.436807 -202.558857 
L 490.262587 -213.845098 
L 445.63481 -211.075511 
z
" style="stroke: #000000"/>
    </defs>
    <g clip-path="url(#p287c95b996)">
     <use xlink:href="#m13051b0fd1" x="0" y="308.278125" style="fill: #dfdfdf; stroke: #000000"/>
    </g>
   </g>
   <g id="Poly3DCollection_47">
    <defs>
     <path id="mb323fddc61" d="M 443.824151 -212.271771 
L 387.156146 -194.925593 
L 423.405151 -182.603504 
L 465.491219 -171.080529 
L 521.890837 -190.195705 
L 524.341258 -205.251524 
L 487.292329 -216.456995 
L 443.824151 -212.271771 
z
" style="stroke: #000000"/>
    </defs>
    <g clip-path="url(#p287c95b996)">
     <use xlink:href="#mb323fddc61" x="0" y="308.278125" style="fill: #e1e1e1; stroke: #000000"/>
    </g>
   </g>
   <g id="Poly3DCollection_48">
    <defs>
     <path id="mdbdaeed86d" d="M 442.220829 -213.418151 
L 385.376388 -196.080833 
L 421.654043 -183.763462 
L 467.191143 -173.825827 
L 523.466036 -192.814854 
L 521.000906 -207.833799 
L 484.074775 -218.963852 
L 442.220829 -213.418151 
z
" style="stroke: #000000"/>
    </defs>
    <g clip-path="url(#p287c95b996)">
     <use xlink:href="#mdbdaeed86d" x="0" y="308.278125" style="fill: #e3e3e3; stroke: #000000"/>
    </g>
   </g>
   <g id="Poly3DCollection_49">
    <defs>
     <path id="mde1f2e399d" d="M 440.843028 -214.522073 
L 383.823942 -197.190141 
L 420.140385 -184.87493 
L 468.632876 -176.620344 
L 524.787176 -195.479537 
L 517.451099 -210.299704 
L 480.64386 -221.359959 
L 440.843028 -214.522073 
z
" style="stroke: #000000"/>
    </defs>
    <g clip-path="url(#p287c95b996)">
     <use xlink:href="#mde1f2e399d" x="0" y="308.278125" style="fill: #e6e6e6; stroke: #000000"/>
    </g>
   </g>
   <g id="Poly3DCollection_50">
    <defs>
     <path id="m8b3cbe0051" d="M 439.706775 -215.591432 
L 382.516437 -198.262009 
L 418.881677 -185.946837 
L 469.801153 -179.453839 
L 525.840619 -198.180299 
L 513.728876 -212.644494 
L 477.035275 -223.640786 
L 439.706775 -215.591432 
z
" style="stroke: #000000"/>
    </defs>
    <g clip-path="url(#p287c95b996)">
     <use xlink:href="#m8b3cbe0051" x="0" y="308.278125" style="fill: #e8e8e8; stroke: #000000"/>
    </g>
   </g>
   <g id="Poly3DCollection_51">
    <defs>
     <path id="m518b7a78c7" d="M 438.82573 -216.634525 
L 381.469135 -199.305367 
L 417.892954 -186.988574 
L 470.68399 -182.315813 
L 526.615915 -200.907446 
L 509.872646 -214.864673 
L 473.286153 -225.802993 
L 438.82573 -216.634525 
z
" style="stroke: #000000"/>
    </defs>
    <g clip-path="url(#p287c95b996)">
     <use xlink:href="#m518b7a78c7" x="0" y="308.278125" style="fill: #eaeaea; stroke: #000000"/>
    </g>
   </g>
   <g id="Poly3DCollection_52">
    <defs>
     <path id="m3044e7cf6d" d="M 469.434752 -227.844427 
L 414.459026 -211.30883 
L 380.694713 -200.329497 
L 417.186566 -188.009912 
L 471.272765 -185.195645 
L 527.105873 -203.651169 
L 505.921871 -216.957985 
L 469.434752 -227.844427 
z
" style="stroke: #000000"/>
    </defs>
    <g clip-path="url(#p287c95b996)">
     <use xlink:href="#m3044e7cf6d" x="0" y="308.278125" style="fill: #ececec; stroke: #000000"/>
    </g>
   </g>
   <g id="Poly3DCollection_53">
    <defs>
     <path id="ma0c2a2d123" d="M 465.520157 -229.764118 
L 410.385625 -213.297951 
L 380.203077 -201.343943 
L 416.77199 -189.020897 
L 471.562248 -188.082724 
L 527.306576 -206.401662 
L 501.916749 -218.923412 
L 465.520157 -229.764118 
z
" style="stroke: #000000"/>
    </defs>
    <g clip-path="url(#p287c95b996)">
     <use xlink:href="#ma0c2a2d123" x="0" y="308.278125" style="fill: #eeeeee; stroke: #000000"/>
    </g>
   </g>
   <g id="Poly3DCollection_54">
    <defs>
     <path id="m69d7806c1f" d="M 461.581967 -231.562264 
L 406.27148 -215.156151 
L 380.001185 -202.358413 
L 416.655658 -190.031757 
L 471.550591 -190.966574 
L 527.217362 -209.14924 
L 497.897912 -220.761161 
L 461.581967 -231.562264 
z
" style="stroke: #000000"/>
    </defs>
    <g clip-path="url(#p287c95b996)">
     <use xlink:href="#m69d7806c1f" x="0" y="308.278125" style="fill: #f0f0f0; stroke: #000000"/>
    </g>
   </g>
   <g id="Poly3DCollection_55">
    <defs>
     <path id="mc2f1b318ec" d="M 457.660005 -233.240218 
L 402.15774 -216.884872 
L 380.092903 -203.38268 
L 416.840809 -191.052791 
L 471.239273 -193.836971 
L 526.840759 -211.884448 
L 493.906118 -222.472643 
L 457.660005 -233.240218 
z
" style="stroke: #000000"/>
    </defs>
    <g clip-path="url(#p287c95b996)">
     <use xlink:href="#mc2f1b318ec" x="0" y="308.278125" style="fill: #f2f2f2; stroke: #000000"/>
    </g>
   </g>
   <g id="Poly3DCollection_56">
    <defs>
     <path id="m41ac8064a8" d="M 453.794007 -234.800463 
L 398.085624 -218.486768 
L 380.478885 -204.426467 
L 417.327373 -192.094252 
L 470.633009 -196.684051 
L 526.182392 -214.59816 
L 488.336671 -225.798303 
L 453.794007 -234.800463 
z
" style="stroke: #000000"/>
    </defs>
    <g clip-path="url(#p287c95b996)">
     <use xlink:href="#m41ac8064a8" x="0" y="308.278125" style="fill: #f4f4f4; stroke: #000000"/>
    </g>
   </g>
   <g id="Poly3DCollection_57">
    <defs>
     <path id="m5d034af387" d="M 450.02333 -236.246591 
L 394.096115 -219.965675 
L 381.156487 -205.499344 
L 418.111893 -193.166236 
L 469.73963 -199.498409 
L 525.250857 -217.281669 
L 487.476304 -228.400939 
L 450.02333 -236.246591 
z
" style="stroke: #000000"/>
    </defs>
    <g clip-path="url(#p287c95b996)">
     <use xlink:href="#m5d034af387" x="0" y="308.278125" style="fill: #f6f6f6; stroke: #000000"/>
    </g>
   </g>
   <g id="Poly3DCollection_58">
    <defs>
     <path id="m639229fe8f" d="M 446.386641 -237.583266 
L 390.229648 -221.326585 
L 382.119726 -206.610607 
L 419.187481 -194.278556 
L 468.56993 -202.271189 
L 524.057564 -219.926773 
L 486.357897 -230.967089 
L 446.386641 -237.583266 
z
" style="stroke: #000000"/>
    </defs>
    <g clip-path="url(#p287c95b996)">
     <use xlink:href="#m639229fe8f" x="0" y="308.278125" style="fill: #f9f9f9; stroke: #000000"/>
    </g>
   </g>
   <g id="Poly3DCollection_59">
    <defs>
     <path id="mf28a5a778b" d="M 442.921611 -238.816196 
L 386.525794 -222.575604 
L 383.359267 -207.76917 
L 420.543825 -195.440627 
L 467.137495 -204.994157 
L 522.616566 -222.525846 
L 484.994464 -233.489491 
L 442.921611 -238.816196 
z
" style="stroke: #000000"/>
    </defs>
    <g clip-path="url(#p287c95b996)">
     <use xlink:href="#mf28a5a778b" x="0" y="308.278125" style="fill: #fbfbfb; stroke: #000000"/>
    </g>
   </g>
   <g id="Poly3DCollection_60">
    <defs>
     <path id="m264160e827" d="M 439.664599 -239.952088 
L 383.022939 -223.719913 
L 384.862475 -208.983449 
L 422.167233 -196.661341 
L 465.458504 -207.659775 
L 520.944362 -225.071898 
L 483.401455 -235.961494 
L 439.664599 -239.952088 
z
" style="stroke: #000000"/>
    </defs>
    <g clip-path="url(#p287c95b996)">
     <use xlink:href="#m264160e827" x="0" y="308.278125" style="fill: #fdfdfd; stroke: #000000"/>
    </g>
   </g>
  </g>
 </g>
 <defs>
  <clipPath id="p0d04d6844a">
   <rect x="28.942188" y="7.2" width="253.636364" height="277.2"/>
  </clipPath>
  <clipPath id="p287c95b996">
   <rect x="333.305824" y="18.981818" width="253.636364" height="253.636364"/>
  </clipPath>
 </defs>
</svg>
