<?xml version="1.0" encoding="utf-8" standalone="no"?>
<!DOCTYPE svg PUBLIC "-//W3C//DTD SVG 1.1//EN"
  "http://www.w3.org/Graphics/SVG/1.1/DTD/svg11.dtd">
<!-- Created with matplotlib (https://matplotlib.org/) -->
<svg height="302.878125pt" version="1.1" viewBox="0 0 594.142187 302.878125" width="594.142187pt" xmlns="http://www.w3.org/2000/svg" xmlns:xlink="http://www.w3.org/1999/xlink">
 <defs>
  <style type="text/css">
*{stroke-linecap:butt;stroke-linejoin:round;}
  </style>
 </defs>
 <g id="figure_1">
  <g id="patch_1">
   <path d="M 0 302.878125 
L 594.142187 302.878125 
L 594.142187 0 
L 0 0 
z
" style="fill:none;"/>
  </g>
  <g id="axes_1">
   <g id="patch_2">
    <path d="M 28.942188 279 
L 282.578551 279 
L 282.578551 7.2 
L 28.942188 7.2 
z
" style="fill:#ffffff;"/>
   </g>
   <g id="PathCollection_1">
    <defs>
     <path d="M 0 3 
C 0.795609 3 1.55874 2.683901 2.12132 2.12132 
C 2.683901 1.55874 3 0.795609 3 0 
C 3 -0.795609 2.683901 -1.55874 2.12132 -2.12132 
C 1.55874 -2.683901 0.795609 -3 0 -3 
C -0.795609 -3 -1.55874 -2.683901 -2.12132 -2.12132 
C -2.683901 -1.55874 -3 -0.795609 -3 0 
C -3 0.795609 -2.683901 1.55874 -2.12132 2.12132 
C -1.55874 2.683901 -0.795609 3 0 3 
z
" id="m956b3beccc" style="stroke:#000000;"/>
    </defs>
    <g clip-path="url(#pa5b6728778)">
     <use style="stroke:#000000;" x="69.293427" xlink:href="#m956b3beccc" y="200.569658"/>
    </g>
   </g>
   <g id="matplotlib.axis_1">
    <g id="xtick_1">
     <g id="line2d_1">
      <defs>
       <path d="M 0 0 
L 0 3.5 
" id="ma1c7144486" style="stroke:#000000;stroke-width:0.8;"/>
      </defs>
      <g>
       <use style="stroke:#000000;stroke-width:0.8;" x="69.293427" xlink:href="#ma1c7144486" y="279"/>
      </g>
     </g>
     <g id="text_1">
      <!-- 0 -->
      <defs>
       <path d="M 31.78125 66.40625 
Q 24.171875 66.40625 20.328125 58.90625 
Q 16.5 51.421875 16.5 36.375 
Q 16.5 21.390625 20.328125 13.890625 
Q 24.171875 6.390625 31.78125 6.390625 
Q 39.453125 6.390625 43.28125 13.890625 
Q 47.125 21.390625 47.125 36.375 
Q 47.125 51.421875 43.28125 58.90625 
Q 39.453125 66.40625 31.78125 66.40625 
z
M 31.78125 74.21875 
Q 44.046875 74.21875 50.515625 64.515625 
Q 56.984375 54.828125 56.984375 36.375 
Q 56.984375 17.96875 50.515625 8.265625 
Q 44.046875 -1.421875 31.78125 -1.421875 
Q 19.53125 -1.421875 13.0625 8.265625 
Q 6.59375 17.96875 6.59375 36.375 
Q 6.59375 54.828125 13.0625 64.515625 
Q 19.53125 74.21875 31.78125 74.21875 
z
" id="DejaVuSans-48"/>
      </defs>
      <g transform="translate(66.112177 293.598437)scale(0.1 -0.1)">
       <use xlink:href="#DejaVuSans-48"/>
      </g>
     </g>
    </g>
    <g id="xtick_2">
     <g id="line2d_2">
      <g>
       <use style="stroke:#000000;stroke-width:0.8;" x="126.938055" xlink:href="#ma1c7144486" y="279"/>
      </g>
     </g>
     <g id="text_2">
      <!-- 2 -->
      <defs>
       <path d="M 19.1875 8.296875 
L 53.609375 8.296875 
L 53.609375 0 
L 7.328125 0 
L 7.328125 8.296875 
Q 12.9375 14.109375 22.625 23.890625 
Q 32.328125 33.6875 34.8125 36.53125 
Q 39.546875 41.84375 41.421875 45.53125 
Q 43.3125 49.21875 43.3125 52.78125 
Q 43.3125 58.59375 39.234375 62.25 
Q 35.15625 65.921875 28.609375 65.921875 
Q 23.96875 65.921875 18.8125 64.3125 
Q 13.671875 62.703125 7.8125 59.421875 
L 7.8125 69.390625 
Q 13.765625 71.78125 18.9375 73 
Q 24.125 74.21875 28.421875 74.21875 
Q 39.75 74.21875 46.484375 68.546875 
Q 53.21875 62.890625 53.21875 53.421875 
Q 53.21875 48.921875 51.53125 44.890625 
Q 49.859375 40.875 45.40625 35.40625 
Q 44.1875 33.984375 37.640625 27.21875 
Q 31.109375 20.453125 19.1875 8.296875 
z
" id="DejaVuSans-50"/>
      </defs>
      <g transform="translate(123.756805 293.598437)scale(0.1 -0.1)">
       <use xlink:href="#DejaVuSans-50"/>
      </g>
     </g>
    </g>
    <g id="xtick_3">
     <g id="line2d_3">
      <g>
       <use style="stroke:#000000;stroke-width:0.8;" x="184.582683" xlink:href="#ma1c7144486" y="279"/>
      </g>
     </g>
     <g id="text_3">
      <!-- 4 -->
      <defs>
       <path d="M 37.796875 64.3125 
L 12.890625 25.390625 
L 37.796875 25.390625 
z
M 35.203125 72.90625 
L 47.609375 72.90625 
L 47.609375 25.390625 
L 58.015625 25.390625 
L 58.015625 17.1875 
L 47.609375 17.1875 
L 47.609375 0 
L 37.796875 0 
L 37.796875 17.1875 
L 4.890625 17.1875 
L 4.890625 26.703125 
z
" id="DejaVuSans-52"/>
      </defs>
      <g transform="translate(181.401433 293.598437)scale(0.1 -0.1)">
       <use xlink:href="#DejaVuSans-52"/>
      </g>
     </g>
    </g>
    <g id="xtick_4">
     <g id="line2d_4">
      <g>
       <use style="stroke:#000000;stroke-width:0.8;" x="242.227311" xlink:href="#ma1c7144486" y="279"/>
      </g>
     </g>
     <g id="text_4">
      <!-- 6 -->
      <defs>
       <path d="M 33.015625 40.375 
Q 26.375 40.375 22.484375 35.828125 
Q 18.609375 31.296875 18.609375 23.390625 
Q 18.609375 15.53125 22.484375 10.953125 
Q 26.375 6.390625 33.015625 6.390625 
Q 39.65625 6.390625 43.53125 10.953125 
Q 47.40625 15.53125 47.40625 23.390625 
Q 47.40625 31.296875 43.53125 35.828125 
Q 39.65625 40.375 33.015625 40.375 
z
M 52.59375 71.296875 
L 52.59375 62.3125 
Q 48.875 64.0625 45.09375 64.984375 
Q 41.3125 65.921875 37.59375 65.921875 
Q 27.828125 65.921875 22.671875 59.328125 
Q 17.53125 52.734375 16.796875 39.40625 
Q 19.671875 43.65625 24.015625 45.921875 
Q 28.375 48.1875 33.59375 48.1875 
Q 44.578125 48.1875 50.953125 41.515625 
Q 57.328125 34.859375 57.328125 23.390625 
Q 57.328125 12.15625 50.6875 5.359375 
Q 44.046875 -1.421875 33.015625 -1.421875 
Q 20.359375 -1.421875 13.671875 8.265625 
Q 6.984375 17.96875 6.984375 36.375 
Q 6.984375 53.65625 15.1875 63.9375 
Q 23.390625 74.21875 37.203125 74.21875 
Q 40.921875 74.21875 44.703125 73.484375 
Q 48.484375 72.75 52.59375 71.296875 
z
" id="DejaVuSans-54"/>
      </defs>
      <g transform="translate(239.046061 293.598437)scale(0.1 -0.1)">
       <use xlink:href="#DejaVuSans-54"/>
      </g>
     </g>
    </g>
   </g>
   <g id="matplotlib.axis_2">
    <g id="ytick_1">
     <g id="line2d_5">
      <defs>
       <path d="M 0 0 
L -3.5 0 
" id="m068110f778" style="stroke:#000000;stroke-width:0.8;"/>
      </defs>
      <g>
       <use style="stroke:#000000;stroke-width:0.8;" x="28.942188" xlink:href="#m068110f778" y="258.214286"/>
      </g>
     </g>
     <g id="text_5">
      <!-- −2 -->
      <defs>
       <path d="M 10.59375 35.5 
L 73.1875 35.5 
L 73.1875 27.203125 
L 10.59375 27.203125 
z
" id="DejaVuSans-8722"/>
      </defs>
      <g transform="translate(7.2 262.013505)scale(0.1 -0.1)">
       <use xlink:href="#DejaVuSans-8722"/>
       <use x="83.789062" xlink:href="#DejaVuSans-50"/>
      </g>
     </g>
    </g>
    <g id="ytick_2">
     <g id="line2d_6">
      <g>
       <use style="stroke:#000000;stroke-width:0.8;" x="28.942188" xlink:href="#m068110f778" y="200.569658"/>
      </g>
     </g>
     <g id="text_6">
      <!-- 0 -->
      <g transform="translate(15.579688 204.368877)scale(0.1 -0.1)">
       <use xlink:href="#DejaVuSans-48"/>
      </g>
     </g>
    </g>
    <g id="ytick_3">
     <g id="line2d_7">
      <g>
       <use style="stroke:#000000;stroke-width:0.8;" x="28.942188" xlink:href="#m068110f778" y="142.92503"/>
      </g>
     </g>
     <g id="text_7">
      <!-- 2 -->
      <g transform="translate(15.579688 146.724249)scale(0.1 -0.1)">
       <use xlink:href="#DejaVuSans-50"/>
      </g>
     </g>
    </g>
    <g id="ytick_4">
     <g id="line2d_8">
      <g>
       <use style="stroke:#000000;stroke-width:0.8;" x="28.942188" xlink:href="#m068110f778" y="85.280402"/>
      </g>
     </g>
     <g id="text_8">
      <!-- 4 -->
      <g transform="translate(15.579688 89.079621)scale(0.1 -0.1)">
       <use xlink:href="#DejaVuSans-52"/>
      </g>
     </g>
    </g>
    <g id="ytick_5">
     <g id="line2d_9">
      <g>
       <use style="stroke:#000000;stroke-width:0.8;" x="28.942188" xlink:href="#m068110f778" y="27.635774"/>
      </g>
     </g>
     <g id="text_9">
      <!-- 6 -->
      <g transform="translate(15.579688 31.434993)scale(0.1 -0.1)">
       <use xlink:href="#DejaVuSans-54"/>
      </g>
     </g>
    </g>
   </g>
   <g id="line2d_10">
    <path clip-path="url(#pa5b6728778)" d="M 40.471113 200.569658 
L 98.115741 200.569658 
L 69.293427 157.336187 
L 40.471113 200.569658 
" style="fill:none;stroke:#1f77b4;stroke-linecap:square;stroke-width:1.5;"/>
   </g>
   <g id="line2d_11">
    <path clip-path="url(#pa5b6728778)" d="M 155.760369 142.92503 
L 242.227311 142.92503 
L 242.227311 85.280402 
L 155.760369 85.280402 
L 155.760369 142.92503 
" style="fill:none;stroke:#ff7f0e;stroke-linecap:square;stroke-width:1.5;"/>
   </g>
   <g id="line2d_12">
    <path clip-path="url(#pa5b6728778)" d="M 155.760369 186.158501 
L 242.227311 186.158501 
L 271.049626 142.92503 
L 271.049626 85.280402 
L 184.582683 85.280402 
L 126.938055 85.280402 
L 126.938055 142.92503 
L 155.760369 186.158501 
L 155.760369 186.158501 
" style="fill:none;stroke:#2ca02c;stroke-linecap:square;stroke-width:1.5;"/>
   </g>
   <g id="patch_3">
    <path d="M 28.942188 279 
L 28.942188 7.2 
" style="fill:none;stroke:#000000;stroke-linecap:square;stroke-linejoin:miter;stroke-width:0.8;"/>
   </g>
   <g id="patch_4">
    <path d="M 282.578551 279 
L 282.578551 7.2 
" style="fill:none;stroke:#000000;stroke-linecap:square;stroke-linejoin:miter;stroke-width:0.8;"/>
   </g>
   <g id="patch_5">
    <path d="M 28.942188 279 
L 282.578551 279 
" style="fill:none;stroke:#000000;stroke-linecap:square;stroke-linejoin:miter;stroke-width:0.8;"/>
   </g>
   <g id="patch_6">
    <path d="M 28.942188 7.2 
L 282.578551 7.2 
" style="fill:none;stroke:#000000;stroke-linecap:square;stroke-linejoin:miter;stroke-width:0.8;"/>
   </g>
   <g id="legend_1">
    <g id="patch_7">
     <path d="M 163.878551 73.9125 
L 275.578551 73.9125 
Q 277.578551 73.9125 277.578551 71.9125 
L 277.578551 14.2 
Q 277.578551 12.2 275.578551 12.2 
L 163.878551 12.2 
Q 161.878551 12.2 161.878551 14.2 
L 161.878551 71.9125 
Q 161.878551 73.9125 163.878551 73.9125 
z
" style="fill:#ffffff;opacity:0.8;stroke:#cccccc;stroke-linejoin:miter;"/>
    </g>
    <g id="line2d_13">
     <path d="M 165.878551 20.298437 
L 185.878551 20.298437 
" style="fill:none;stroke:#1f77b4;stroke-linecap:square;stroke-width:1.5;"/>
    </g>
    <g id="line2d_14"/>
    <g id="text_10">
     <!-- A -->
     <defs>
      <path d="M 34.1875 63.1875 
L 20.796875 26.90625 
L 47.609375 26.90625 
z
M 28.609375 72.90625 
L 39.796875 72.90625 
L 67.578125 0 
L 57.328125 0 
L 50.6875 18.703125 
L 17.828125 18.703125 
L 11.1875 0 
L 0.78125 0 
z
" id="DejaVuSans-65"/>
     </defs>
     <g transform="translate(193.878551 23.798437)scale(0.1 -0.1)">
      <use xlink:href="#DejaVuSans-65"/>
     </g>
    </g>
    <g id="line2d_15">
     <path d="M 165.878551 34.976562 
L 185.878551 34.976562 
" style="fill:none;stroke:#ff7f0e;stroke-linecap:square;stroke-width:1.5;"/>
    </g>
    <g id="line2d_16"/>
    <g id="text_11">
     <!-- B -->
     <defs>
      <path d="M 19.671875 34.8125 
L 19.671875 8.109375 
L 35.5 8.109375 
Q 43.453125 8.109375 47.28125 11.40625 
Q 51.125 14.703125 51.125 21.484375 
Q 51.125 28.328125 47.28125 31.5625 
Q 43.453125 34.8125 35.5 34.8125 
z
M 19.671875 64.796875 
L 19.671875 42.828125 
L 34.28125 42.828125 
Q 41.5 42.828125 45.03125 45.53125 
Q 48.578125 48.25 48.578125 53.8125 
Q 48.578125 59.328125 45.03125 62.0625 
Q 41.5 64.796875 34.28125 64.796875 
z
M 9.8125 72.90625 
L 35.015625 72.90625 
Q 46.296875 72.90625 52.390625 68.21875 
Q 58.5 63.53125 58.5 54.890625 
Q 58.5 48.1875 55.375 44.234375 
Q 52.25 40.28125 46.1875 39.3125 
Q 53.46875 37.75 57.5 32.78125 
Q 61.53125 27.828125 61.53125 20.40625 
Q 61.53125 10.640625 54.890625 5.3125 
Q 48.25 0 35.984375 0 
L 9.8125 0 
z
" id="DejaVuSans-66"/>
     </defs>
     <g transform="translate(193.878551 38.476562)scale(0.1 -0.1)">
      <use xlink:href="#DejaVuSans-66"/>
     </g>
    </g>
    <g id="line2d_17">
     <path d="M 165.878551 49.654687 
L 185.878551 49.654687 
" style="fill:none;stroke:#2ca02c;stroke-linecap:square;stroke-width:1.5;"/>
    </g>
    <g id="line2d_18"/>
    <g id="text_12">
     <!-- A - B -->
     <defs>
      <path id="DejaVuSans-32"/>
      <path d="M 4.890625 31.390625 
L 31.203125 31.390625 
L 31.203125 23.390625 
L 4.890625 23.390625 
z
" id="DejaVuSans-45"/>
     </defs>
     <g transform="translate(193.878551 53.154687)scale(0.1 -0.1)">
      <use xlink:href="#DejaVuSans-65"/>
      <use x="68.408203" xlink:href="#DejaVuSans-32"/>
      <use x="100.195312" xlink:href="#DejaVuSans-45"/>
      <use x="136.279297" xlink:href="#DejaVuSans-32"/>
      <use x="168.066406" xlink:href="#DejaVuSans-66"/>
     </g>
    </g>
    <g id="PathCollection_2">
     <g>
      <use style="stroke:#000000;" x="175.878551" xlink:href="#m956b3beccc" y="65.207812"/>
     </g>
    </g>
    <g id="text_13">
     <!-- Reference point -->
     <defs>
      <path d="M 44.390625 34.1875 
Q 47.5625 33.109375 50.5625 29.59375 
Q 53.5625 26.078125 56.59375 19.921875 
L 66.609375 0 
L 56 0 
L 46.6875 18.703125 
Q 43.0625 26.03125 39.671875 28.421875 
Q 36.28125 30.8125 30.421875 30.8125 
L 19.671875 30.8125 
L 19.671875 0 
L 9.8125 0 
L 9.8125 72.90625 
L 32.078125 72.90625 
Q 44.578125 72.90625 50.734375 67.671875 
Q 56.890625 62.453125 56.890625 51.90625 
Q 56.890625 45.015625 53.6875 40.46875 
Q 50.484375 35.9375 44.390625 34.1875 
z
M 19.671875 64.796875 
L 19.671875 38.921875 
L 32.078125 38.921875 
Q 39.203125 38.921875 42.84375 42.21875 
Q 46.484375 45.515625 46.484375 51.90625 
Q 46.484375 58.296875 42.84375 61.546875 
Q 39.203125 64.796875 32.078125 64.796875 
z
" id="DejaVuSans-82"/>
      <path d="M 56.203125 29.59375 
L 56.203125 25.203125 
L 14.890625 25.203125 
Q 15.484375 15.921875 20.484375 11.0625 
Q 25.484375 6.203125 34.421875 6.203125 
Q 39.59375 6.203125 44.453125 7.46875 
Q 49.3125 8.734375 54.109375 11.28125 
L 54.109375 2.78125 
Q 49.265625 0.734375 44.1875 -0.34375 
Q 39.109375 -1.421875 33.890625 -1.421875 
Q 20.796875 -1.421875 13.15625 6.1875 
Q 5.515625 13.8125 5.515625 26.8125 
Q 5.515625 40.234375 12.765625 48.109375 
Q 20.015625 56 32.328125 56 
Q 43.359375 56 49.78125 48.890625 
Q 56.203125 41.796875 56.203125 29.59375 
z
M 47.21875 32.234375 
Q 47.125 39.59375 43.09375 43.984375 
Q 39.0625 48.390625 32.421875 48.390625 
Q 24.90625 48.390625 20.390625 44.140625 
Q 15.875 39.890625 15.1875 32.171875 
z
" id="DejaVuSans-101"/>
      <path d="M 37.109375 75.984375 
L 37.109375 68.5 
L 28.515625 68.5 
Q 23.6875 68.5 21.796875 66.546875 
Q 19.921875 64.59375 19.921875 59.515625 
L 19.921875 54.6875 
L 34.71875 54.6875 
L 34.71875 47.703125 
L 19.921875 47.703125 
L 19.921875 0 
L 10.890625 0 
L 10.890625 47.703125 
L 2.296875 47.703125 
L 2.296875 54.6875 
L 10.890625 54.6875 
L 10.890625 58.5 
Q 10.890625 67.625 15.140625 71.796875 
Q 19.390625 75.984375 28.609375 75.984375 
z
" id="DejaVuSans-102"/>
      <path d="M 41.109375 46.296875 
Q 39.59375 47.171875 37.8125 47.578125 
Q 36.03125 48 33.890625 48 
Q 26.265625 48 22.1875 43.046875 
Q 18.109375 38.09375 18.109375 28.8125 
L 18.109375 0 
L 9.078125 0 
L 9.078125 54.6875 
L 18.109375 54.6875 
L 18.109375 46.1875 
Q 20.953125 51.171875 25.484375 53.578125 
Q 30.03125 56 36.53125 56 
Q 37.453125 56 38.578125 55.875 
Q 39.703125 55.765625 41.0625 55.515625 
z
" id="DejaVuSans-114"/>
      <path d="M 54.890625 33.015625 
L 54.890625 0 
L 45.90625 0 
L 45.90625 32.71875 
Q 45.90625 40.484375 42.875 44.328125 
Q 39.84375 48.1875 33.796875 48.1875 
Q 26.515625 48.1875 22.3125 43.546875 
Q 18.109375 38.921875 18.109375 30.90625 
L 18.109375 0 
L 9.078125 0 
L 9.078125 54.6875 
L 18.109375 54.6875 
L 18.109375 46.1875 
Q 21.34375 51.125 25.703125 53.5625 
Q 30.078125 56 35.796875 56 
Q 45.21875 56 50.046875 50.171875 
Q 54.890625 44.34375 54.890625 33.015625 
z
" id="DejaVuSans-110"/>
      <path d="M 48.78125 52.59375 
L 48.78125 44.1875 
Q 44.96875 46.296875 41.140625 47.34375 
Q 37.3125 48.390625 33.40625 48.390625 
Q 24.65625 48.390625 19.8125 42.84375 
Q 14.984375 37.3125 14.984375 27.296875 
Q 14.984375 17.28125 19.8125 11.734375 
Q 24.65625 6.203125 33.40625 6.203125 
Q 37.3125 6.203125 41.140625 7.25 
Q 44.96875 8.296875 48.78125 10.40625 
L 48.78125 2.09375 
Q 45.015625 0.34375 40.984375 -0.53125 
Q 36.96875 -1.421875 32.421875 -1.421875 
Q 20.0625 -1.421875 12.78125 6.34375 
Q 5.515625 14.109375 5.515625 27.296875 
Q 5.515625 40.671875 12.859375 48.328125 
Q 20.21875 56 33.015625 56 
Q 37.15625 56 41.109375 55.140625 
Q 45.0625 54.296875 48.78125 52.59375 
z
" id="DejaVuSans-99"/>
      <path d="M 18.109375 8.203125 
L 18.109375 -20.796875 
L 9.078125 -20.796875 
L 9.078125 54.6875 
L 18.109375 54.6875 
L 18.109375 46.390625 
Q 20.953125 51.265625 25.265625 53.625 
Q 29.59375 56 35.59375 56 
Q 45.5625 56 51.78125 48.09375 
Q 58.015625 40.1875 58.015625 27.296875 
Q 58.015625 14.40625 51.78125 6.484375 
Q 45.5625 -1.421875 35.59375 -1.421875 
Q 29.59375 -1.421875 25.265625 0.953125 
Q 20.953125 3.328125 18.109375 8.203125 
z
M 48.6875 27.296875 
Q 48.6875 37.203125 44.609375 42.84375 
Q 40.53125 48.484375 33.40625 48.484375 
Q 26.265625 48.484375 22.1875 42.84375 
Q 18.109375 37.203125 18.109375 27.296875 
Q 18.109375 17.390625 22.1875 11.75 
Q 26.265625 6.109375 33.40625 6.109375 
Q 40.53125 6.109375 44.609375 11.75 
Q 48.6875 17.390625 48.6875 27.296875 
z
" id="DejaVuSans-112"/>
      <path d="M 30.609375 48.390625 
Q 23.390625 48.390625 19.1875 42.75 
Q 14.984375 37.109375 14.984375 27.296875 
Q 14.984375 17.484375 19.15625 11.84375 
Q 23.34375 6.203125 30.609375 6.203125 
Q 37.796875 6.203125 41.984375 11.859375 
Q 46.1875 17.53125 46.1875 27.296875 
Q 46.1875 37.015625 41.984375 42.703125 
Q 37.796875 48.390625 30.609375 48.390625 
z
M 30.609375 56 
Q 42.328125 56 49.015625 48.375 
Q 55.71875 40.765625 55.71875 27.296875 
Q 55.71875 13.875 49.015625 6.21875 
Q 42.328125 -1.421875 30.609375 -1.421875 
Q 18.84375 -1.421875 12.171875 6.21875 
Q 5.515625 13.875 5.515625 27.296875 
Q 5.515625 40.765625 12.171875 48.375 
Q 18.84375 56 30.609375 56 
z
" id="DejaVuSans-111"/>
      <path d="M 9.421875 54.6875 
L 18.40625 54.6875 
L 18.40625 0 
L 9.421875 0 
z
M 9.421875 75.984375 
L 18.40625 75.984375 
L 18.40625 64.59375 
L 9.421875 64.59375 
z
" id="DejaVuSans-105"/>
      <path d="M 18.3125 70.21875 
L 18.3125 54.6875 
L 36.8125 54.6875 
L 36.8125 47.703125 
L 18.3125 47.703125 
L 18.3125 18.015625 
Q 18.3125 11.328125 20.140625 9.421875 
Q 21.96875 7.515625 27.59375 7.515625 
L 36.8125 7.515625 
L 36.8125 0 
L 27.59375 0 
Q 17.1875 0 13.234375 3.875 
Q 9.28125 7.765625 9.28125 18.015625 
L 9.28125 47.703125 
L 2.6875 47.703125 
L 2.6875 54.6875 
L 9.28125 54.6875 
L 9.28125 70.21875 
z
" id="DejaVuSans-116"/>
     </defs>
     <g transform="translate(193.878551 67.832812)scale(0.1 -0.1)">
      <use xlink:href="#DejaVuSans-82"/>
      <use x="69.419922" xlink:href="#DejaVuSans-101"/>
      <use x="130.943359" xlink:href="#DejaVuSans-102"/>
      <use x="166.148438" xlink:href="#DejaVuSans-101"/>
      <use x="227.671875" xlink:href="#DejaVuSans-114"/>
      <use x="268.753906" xlink:href="#DejaVuSans-101"/>
      <use x="330.277344" xlink:href="#DejaVuSans-110"/>
      <use x="393.65625" xlink:href="#DejaVuSans-99"/>
      <use x="448.636719" xlink:href="#DejaVuSans-101"/>
      <use x="510.160156" xlink:href="#DejaVuSans-32"/>
      <use x="541.947266" xlink:href="#DejaVuSans-112"/>
      <use x="605.423828" xlink:href="#DejaVuSans-111"/>
      <use x="666.605469" xlink:href="#DejaVuSans-105"/>
      <use x="694.388672" xlink:href="#DejaVuSans-110"/>
      <use x="757.767578" xlink:href="#DejaVuSans-116"/>
     </g>
    </g>
   </g>
  </g>
  <g id="patch_8">
   <path d="M 333.305824 279 
L 586.942187 279 
L 586.942187 7.2 
L 333.305824 7.2 
z
" style="fill:#ffffff;"/>
  </g>
  <g id="pane3d_1">
   <g id="patch_9">
    <path d="M 463.551524 171.526905 
L 562.76835 210.074085 
L 566.367268 66.21737 
L 463.551524 35.834249 
" style="fill:#f2f2f2;opacity:0.5;stroke:#f2f2f2;stroke-linejoin:miter;"/>
   </g>
  </g>
  <g id="pane3d_2">
   <g id="patch_10">
    <path d="M 463.551524 171.526905 
L 364.334698 210.074085 
L 360.735781 66.21737 
L 463.551524 35.834249 
" style="fill:#e6e6e6;opacity:0.5;stroke:#e6e6e6;stroke-linejoin:miter;"/>
   </g>
  </g>
  <g id="pane3d_3">
   <g id="patch_11">
    <path d="M 463.551524 171.526905 
L 364.334698 210.074085 
L 463.551524 254.246489 
L 562.76835 210.074085 
" style="fill:#ececec;opacity:0.5;stroke:#ececec;stroke-linejoin:miter;"/>
   </g>
  </g>
  <g id="axis3d_1">
   <g id="line2d_19">
    <path d="M 562.76835 210.074085 
L 463.551524 254.246489 
" style="fill:none;stroke:#000000;stroke-linecap:square;stroke-width:0.8;"/>
   </g>
   <g id="text_14">
    <!-- x -->
    <defs>
     <path d="M 54.890625 54.6875 
L 35.109375 28.078125 
L 55.90625 0 
L 45.3125 0 
L 29.390625 21.484375 
L 13.484375 0 
L 2.875 0 
L 24.125 28.609375 
L 4.6875 54.6875 
L 15.28125 54.6875 
L 29.78125 35.203125 
L 44.28125 54.6875 
z
" id="DejaVuSans-120"/>
    </defs>
    <g transform="translate(531.152608 268.532489)scale(0.1 -0.1)">
     <use xlink:href="#DejaVuSans-120"/>
    </g>
   </g>
   <g id="Line3DCollection_1">
    <path d="M 560.916437 210.898577 
L 461.691168 172.24968 
L 461.628046 36.402657 
" style="fill:none;stroke:#b0b0b0;stroke-width:0.8;"/>
    <path d="M 545.917534 217.576251 
L 446.635767 178.098923 
L 446.055697 41.004448 
" style="fill:none;stroke:#b0b0b0;stroke-width:0.8;"/>
    <path d="M 530.584512 224.402678 
L 431.266816 184.069984 
L 430.147791 45.7054 
" style="fill:none;stroke:#b0b0b0;stroke-width:0.8;"/>
    <path d="M 514.906082 231.382884 
L 415.574417 190.166709 
L 413.893363 50.508752 
" style="fill:none;stroke:#b0b0b0;stroke-width:0.8;"/>
    <path d="M 498.87044 238.522126 
L 399.548251 196.393108 
L 397.280968 55.417887 
" style="fill:none;stroke:#b0b0b0;stroke-width:0.8;"/>
    <path d="M 482.465236 245.8259 
L 383.177555 202.753361 
L 380.298647 60.436339 
" style="fill:none;stroke:#b0b0b0;stroke-width:0.8;"/>
    <path d="M 465.677546 253.299961 
L 366.451098 209.251833 
L 362.933906 65.567801 
" style="fill:none;stroke:#b0b0b0;stroke-width:0.8;"/>
   </g>
   <g id="xtick_5">
    <g id="line2d_20">
     <path d="M 560.069042 210.568511 
L 562.614001 211.55979 
" style="fill:none;stroke:#000000;stroke-linecap:square;stroke-width:0.8;"/>
    </g>
    <g id="text_15">
     <!-- 1 -->
     <defs>
      <path d="M 12.40625 8.296875 
L 28.515625 8.296875 
L 28.515625 63.921875 
L 10.984375 60.40625 
L 10.984375 69.390625 
L 28.421875 72.90625 
L 38.28125 72.90625 
L 38.28125 8.296875 
L 54.390625 8.296875 
L 54.390625 0 
L 12.40625 0 
z
" id="DejaVuSans-49"/>
     </defs>
     <g transform="translate(566.379578 233.689235)scale(0.1 -0.1)">
      <use xlink:href="#DejaVuSans-49"/>
     </g>
    </g>
   </g>
   <g id="xtick_6">
    <g id="line2d_21">
     <path d="M 545.069066 217.238875 
L 547.617277 218.252119 
" style="fill:none;stroke:#000000;stroke-linecap:square;stroke-width:0.8;"/>
    </g>
    <g id="text_16">
     <!-- 2 -->
     <g transform="translate(551.433932 240.553531)scale(0.1 -0.1)">
      <use xlink:href="#DejaVuSans-50"/>
     </g>
    </g>
   </g>
   <g id="xtick_7">
    <g id="line2d_22">
     <path d="M 529.735133 224.057747 
L 532.286112 225.093694 
" style="fill:none;stroke:#000000;stroke-linecap:square;stroke-width:0.8;"/>
    </g>
    <g id="text_17">
     <!-- 3 -->
     <defs>
      <path d="M 40.578125 39.3125 
Q 47.65625 37.796875 51.625 33 
Q 55.609375 28.21875 55.609375 21.1875 
Q 55.609375 10.40625 48.1875 4.484375 
Q 40.765625 -1.421875 27.09375 -1.421875 
Q 22.515625 -1.421875 17.65625 -0.515625 
Q 12.796875 0.390625 7.625 2.203125 
L 7.625 11.71875 
Q 11.71875 9.328125 16.59375 8.109375 
Q 21.484375 6.890625 26.8125 6.890625 
Q 36.078125 6.890625 40.9375 10.546875 
Q 45.796875 14.203125 45.796875 21.1875 
Q 45.796875 27.640625 41.28125 31.265625 
Q 36.765625 34.90625 28.71875 34.90625 
L 20.21875 34.90625 
L 20.21875 43.015625 
L 29.109375 43.015625 
Q 36.375 43.015625 40.234375 45.921875 
Q 44.09375 48.828125 44.09375 54.296875 
Q 44.09375 59.90625 40.109375 62.90625 
Q 36.140625 65.921875 28.71875 65.921875 
Q 24.65625 65.921875 20.015625 65.03125 
Q 15.375 64.15625 9.8125 62.3125 
L 9.8125 71.09375 
Q 15.4375 72.65625 20.34375 73.4375 
Q 25.25 74.21875 29.59375 74.21875 
Q 40.828125 74.21875 47.359375 69.109375 
Q 53.90625 64.015625 53.90625 55.328125 
Q 53.90625 49.265625 50.4375 45.09375 
Q 46.96875 40.921875 40.578125 39.3125 
z
" id="DejaVuSans-51"/>
     </defs>
     <g transform="translate(536.154405 247.571172)scale(0.1 -0.1)">
      <use xlink:href="#DejaVuSans-51"/>
     </g>
    </g>
   </g>
   <g id="xtick_8">
    <g id="line2d_23">
     <path d="M 514.055967 231.030142 
L 516.60919 232.089563 
" style="fill:none;stroke:#000000;stroke-linecap:square;stroke-width:0.8;"/>
    </g>
    <g id="text_18">
     <!-- 4 -->
     <g transform="translate(520.529684 254.747356)scale(0.1 -0.1)">
      <use xlink:href="#DejaVuSans-52"/>
     </g>
    </g>
   </g>
   <g id="xtick_9">
    <g id="line2d_24">
     <path d="M 498.019774 238.161303 
L 500.574683 239.245006 
" style="fill:none;stroke:#000000;stroke-linecap:square;stroke-width:0.8;"/>
    </g>
    <g id="text_19">
     <!-- 5 -->
     <defs>
      <path d="M 10.796875 72.90625 
L 49.515625 72.90625 
L 49.515625 64.59375 
L 19.828125 64.59375 
L 19.828125 46.734375 
Q 21.96875 47.46875 24.109375 47.828125 
Q 26.265625 48.1875 28.421875 48.1875 
Q 40.625 48.1875 47.75 41.5 
Q 54.890625 34.8125 54.890625 23.390625 
Q 54.890625 11.625 47.5625 5.09375 
Q 40.234375 -1.421875 26.90625 -1.421875 
Q 22.3125 -1.421875 17.546875 -0.640625 
Q 12.796875 0.140625 7.71875 1.703125 
L 7.71875 11.625 
Q 12.109375 9.234375 16.796875 8.0625 
Q 21.484375 6.890625 26.703125 6.890625 
Q 35.15625 6.890625 40.078125 11.328125 
Q 45.015625 15.765625 45.015625 23.390625 
Q 45.015625 31 40.078125 35.4375 
Q 35.15625 39.890625 26.703125 39.890625 
Q 22.75 39.890625 18.8125 39.015625 
Q 14.890625 38.140625 10.796875 36.28125 
z
" id="DejaVuSans-53"/>
     </defs>
     <g transform="translate(504.547938 262.087516)scale(0.1 -0.1)">
      <use xlink:href="#DejaVuSans-53"/>
     </g>
    </g>
   </g>
   <g id="xtick_10">
    <g id="line2d_25">
     <path d="M 481.61422 245.456716 
L 484.170214 246.565546 
" style="fill:none;stroke:#000000;stroke-linecap:square;stroke-width:0.8;"/>
    </g>
    <g id="text_20">
     <!-- 6 -->
     <g transform="translate(488.196787 269.597337)scale(0.1 -0.1)">
      <use xlink:href="#DejaVuSans-54"/>
     </g>
    </g>
   </g>
   <g id="xtick_11">
    <g id="line2d_26">
     <path d="M 464.826394 252.922122 
L 467.38283 254.056962 
" style="fill:none;stroke:#000000;stroke-linecap:square;stroke-width:0.8;"/>
    </g>
    <g id="text_21">
     <!-- 7 -->
     <defs>
      <path d="M 8.203125 72.90625 
L 55.078125 72.90625 
L 55.078125 68.703125 
L 28.609375 0 
L 18.3125 0 
L 43.21875 64.59375 
L 8.203125 64.59375 
z
" id="DejaVuSans-55"/>
     </defs>
     <g transform="translate(471.463274 277.282772)scale(0.1 -0.1)">
      <use xlink:href="#DejaVuSans-55"/>
     </g>
    </g>
   </g>
  </g>
  <g id="axis3d_2">
   <g id="line2d_27">
    <path d="M 364.334698 210.074085 
L 463.551524 254.246489 
" style="fill:none;stroke:#000000;stroke-linecap:square;stroke-width:0.8;"/>
   </g>
   <g id="text_22">
    <!-- y -->
    <defs>
     <path d="M 32.171875 -5.078125 
Q 28.375 -14.84375 24.75 -17.8125 
Q 21.140625 -20.796875 15.09375 -20.796875 
L 7.90625 -20.796875 
L 7.90625 -13.28125 
L 13.1875 -13.28125 
Q 16.890625 -13.28125 18.9375 -11.515625 
Q 21 -9.765625 23.484375 -3.21875 
L 25.09375 0.875 
L 2.984375 54.6875 
L 12.5 54.6875 
L 29.59375 11.921875 
L 46.6875 54.6875 
L 56.203125 54.6875 
z
" id="DejaVuSans-121"/>
    </defs>
    <g transform="translate(390.03169 268.532489)scale(0.1 -0.1)">
     <use xlink:href="#DejaVuSans-121"/>
    </g>
   </g>
   <g id="Line3DCollection_2">
    <path d="M 465.475002 36.402657 
L 465.41188 172.24968 
L 366.186611 210.898577 
" style="fill:none;stroke:#b0b0b0;stroke-width:0.8;"/>
    <path d="M 481.047351 41.004448 
L 480.467281 178.098923 
L 381.185514 217.576251 
" style="fill:none;stroke:#b0b0b0;stroke-width:0.8;"/>
    <path d="M 496.955258 45.7054 
L 495.836232 184.069984 
L 396.518536 224.402678 
" style="fill:none;stroke:#b0b0b0;stroke-width:0.8;"/>
    <path d="M 513.209685 50.508752 
L 511.528631 190.166709 
L 412.196966 231.382884 
" style="fill:none;stroke:#b0b0b0;stroke-width:0.8;"/>
    <path d="M 529.82208 55.417887 
L 527.554797 196.393108 
L 428.232608 238.522126 
" style="fill:none;stroke:#b0b0b0;stroke-width:0.8;"/>
    <path d="M 546.804401 60.436339 
L 543.925493 202.753361 
L 444.637812 245.8259 
" style="fill:none;stroke:#b0b0b0;stroke-width:0.8;"/>
    <path d="M 564.169142 65.567801 
L 560.65195 209.251833 
L 461.425502 253.299961 
" style="fill:none;stroke:#b0b0b0;stroke-width:0.8;"/>
   </g>
   <g id="xtick_12">
    <g id="line2d_28">
     <path d="M 367.034007 210.568511 
L 364.489048 211.55979 
" style="fill:none;stroke:#000000;stroke-linecap:square;stroke-width:0.8;"/>
    </g>
    <g id="text_23">
     <!-- 0 -->
     <g transform="translate(354.36097 233.689235)scale(0.1 -0.1)">
      <use xlink:href="#DejaVuSans-48"/>
     </g>
    </g>
   </g>
   <g id="xtick_13">
    <g id="line2d_29">
     <path d="M 382.033983 217.238875 
L 379.485771 218.252119 
" style="fill:none;stroke:#000000;stroke-linecap:square;stroke-width:0.8;"/>
    </g>
    <g id="text_24">
     <!-- 1 -->
     <g transform="translate(369.306616 240.553531)scale(0.1 -0.1)">
      <use xlink:href="#DejaVuSans-49"/>
     </g>
    </g>
   </g>
   <g id="xtick_14">
    <g id="line2d_30">
     <path d="M 397.367915 224.057747 
L 394.816937 225.093694 
" style="fill:none;stroke:#000000;stroke-linecap:square;stroke-width:0.8;"/>
    </g>
    <g id="text_25">
     <!-- 2 -->
     <g transform="translate(384.586143 247.571172)scale(0.1 -0.1)">
      <use xlink:href="#DejaVuSans-50"/>
     </g>
    </g>
   </g>
   <g id="xtick_15">
    <g id="line2d_31">
     <path d="M 413.047082 231.030142 
L 410.493858 232.089563 
" style="fill:none;stroke:#000000;stroke-linecap:square;stroke-width:0.8;"/>
    </g>
    <g id="text_26">
     <!-- 3 -->
     <g transform="translate(400.210864 254.747356)scale(0.1 -0.1)">
      <use xlink:href="#DejaVuSans-51"/>
     </g>
    </g>
   </g>
   <g id="xtick_16">
    <g id="line2d_32">
     <path d="M 429.083274 238.161303 
L 426.528365 239.245006 
" style="fill:none;stroke:#000000;stroke-linecap:square;stroke-width:0.8;"/>
    </g>
    <g id="text_27">
     <!-- 4 -->
     <g transform="translate(416.19261 262.087516)scale(0.1 -0.1)">
      <use xlink:href="#DejaVuSans-52"/>
     </g>
    </g>
   </g>
   <g id="xtick_17">
    <g id="line2d_33">
     <path d="M 445.488829 245.456716 
L 442.932834 246.565546 
" style="fill:none;stroke:#000000;stroke-linecap:square;stroke-width:0.8;"/>
    </g>
    <g id="text_28">
     <!-- 5 -->
     <g transform="translate(432.543761 269.597337)scale(0.1 -0.1)">
      <use xlink:href="#DejaVuSans-53"/>
     </g>
    </g>
   </g>
   <g id="xtick_18">
    <g id="line2d_34">
     <path d="M 462.276654 252.922122 
L 459.720218 254.056962 
" style="fill:none;stroke:#000000;stroke-linecap:square;stroke-width:0.8;"/>
    </g>
    <g id="text_29">
     <!-- 6 -->
     <g transform="translate(449.277274 277.282772)scale(0.1 -0.1)">
      <use xlink:href="#DejaVuSans-54"/>
     </g>
    </g>
   </g>
  </g>
  <g id="axis3d_3">
   <g id="line2d_35">
    <path d="M 364.334698 210.074085 
L 360.735781 66.21737 
" style="fill:none;stroke:#000000;stroke-linecap:square;stroke-width:0.8;"/>
   </g>
   <g id="text_30">
    <!-- $\theta$ -->
    <defs>
     <path d="M 45.515625 34.671875 
L 14.453125 34.671875 
Q 12.359375 20.0625 14.5 13.875 
Q 17.1875 6.25 24.46875 6.25 
Q 31.78125 6.25 37.359375 13.921875 
Q 42.234375 20.65625 45.515625 34.671875 
z
M 47.015625 42.96875 
Q 48.34375 56.84375 46.625 61.71875 
Q 43.953125 69.4375 36.765625 69.4375 
Q 29.296875 69.4375 23.828125 61.8125 
Q 19.53125 55.671875 16.15625 42.96875 
z
M 38.1875 76.765625 
Q 49.90625 76.765625 54.59375 66.40625 
Q 59.28125 56.109375 55.71875 37.84375 
Q 52.203125 19.625 43.453125 9.28125 
Q 34.765625 -1.125 23.046875 -1.125 
Q 11.28125 -1.125 6.640625 9.28125 
Q 2 19.625 5.515625 37.84375 
Q 9.078125 56.109375 17.71875 66.40625 
Q 26.421875 76.765625 38.1875 76.765625 
z
" id="DejaVuSans-Oblique-952"/>
    </defs>
    <g transform="translate(322.830548 136.397007)rotate(-271.433091)scale(0.1 -0.1)">
     <use transform="translate(0 0.234375)" xlink:href="#DejaVuSans-Oblique-952"/>
    </g>
   </g>
   <g id="Line3DCollection_3">
    <path d="M 364.26519 207.295716 
L 463.551524 168.900276 
L 562.837858 207.295716 
" style="fill:none;stroke:#b0b0b0;stroke-width:0.8;"/>
    <path d="M 363.730961 185.941381 
L 463.551524 148.720025 
L 563.372087 185.941381 
" style="fill:none;stroke:#b0b0b0;stroke-width:0.8;"/>
    <path d="M 363.190951 164.356001 
L 463.551524 128.335486 
L 563.912097 164.356001 
" style="fill:none;stroke:#b0b0b0;stroke-width:0.8;"/>
    <path d="M 362.645067 142.535806 
L 463.551524 107.743538 
L 564.457981 142.535806 
" style="fill:none;stroke:#b0b0b0;stroke-width:0.8;"/>
    <path d="M 362.093213 120.476942 
L 463.551524 86.941001 
L 565.009836 120.476942 
" style="fill:none;stroke:#b0b0b0;stroke-width:0.8;"/>
    <path d="M 361.535288 98.175472 
L 463.551524 65.924628 
L 565.56776 98.175472 
" style="fill:none;stroke:#b0b0b0;stroke-width:0.8;"/>
    <path d="M 360.971194 75.627373 
L 463.551524 44.691104 
L 566.131854 75.627373 
" style="fill:none;stroke:#b0b0b0;stroke-width:0.8;"/>
   </g>
   <g id="xtick_19">
    <g id="line2d_36">
     <path d="M 365.113072 206.967828 
L 362.566655 207.952564 
" style="fill:none;stroke:#000000;stroke-linecap:square;stroke-width:0.8;"/>
    </g>
    <g id="text_31">
     <!-- 0 -->
     <g transform="translate(344.395014 214.894154)scale(0.1 -0.1)">
      <use xlink:href="#DejaVuSans-48"/>
     </g>
    </g>
   </g>
   <g id="xtick_20">
    <g id="line2d_37">
     <path d="M 364.583694 185.623412 
L 362.022691 186.578366 
" style="fill:none;stroke:#000000;stroke-linecap:square;stroke-width:0.8;"/>
    </g>
    <g id="text_32">
     <!-- 1 -->
     <g transform="translate(343.770986 193.539819)scale(0.1 -0.1)">
      <use xlink:href="#DejaVuSans-49"/>
     </g>
    </g>
   </g>
   <g id="xtick_21">
    <g id="line2d_38">
     <path d="M 364.048592 164.048184 
L 361.472835 164.972652 
" style="fill:none;stroke:#000000;stroke-linecap:square;stroke-width:0.8;"/>
    </g>
    <g id="text_33">
     <!-- 2 -->
     <g transform="translate(343.140207 171.954439)scale(0.1 -0.1)">
      <use xlink:href="#DejaVuSans-50"/>
     </g>
    </g>
   </g>
   <g id="xtick_22">
    <g id="line2d_39">
     <path d="M 363.507673 142.238382 
L 360.91699 143.131642 
" style="fill:none;stroke:#000000;stroke-linecap:square;stroke-width:0.8;"/>
    </g>
    <g id="text_34">
     <!-- 3 -->
     <g transform="translate(342.502566 150.134243)scale(0.1 -0.1)">
      <use xlink:href="#DejaVuSans-51"/>
     </g>
    </g>
   </g>
   <g id="xtick_23">
    <g id="line2d_40">
     <path d="M 362.96084 120.190157 
L 360.355059 121.051469 
" style="fill:none;stroke:#000000;stroke-linecap:square;stroke-width:0.8;"/>
    </g>
    <g id="text_35">
     <!-- 4 -->
     <g transform="translate(341.857951 128.075379)scale(0.1 -0.1)">
      <use xlink:href="#DejaVuSans-52"/>
     </g>
    </g>
   </g>
   <g id="xtick_24">
    <g id="line2d_41">
     <path d="M 362.407996 97.899579 
L 359.786941 98.728185 
" style="fill:none;stroke:#000000;stroke-linecap:square;stroke-width:0.8;"/>
    </g>
    <g id="text_36">
     <!-- 5 -->
     <g transform="translate(341.206246 105.77391)scale(0.1 -0.1)">
      <use xlink:href="#DejaVuSans-53"/>
     </g>
    </g>
   </g>
   <g id="xtick_25">
    <g id="line2d_42">
     <path d="M 361.849042 75.362631 
L 359.212534 76.157751 
" style="fill:none;stroke:#000000;stroke-linecap:square;stroke-width:0.8;"/>
    </g>
    <g id="text_37">
     <!-- 6 -->
     <g transform="translate(340.547333 83.22581)scale(0.1 -0.1)">
      <use xlink:href="#DejaVuSans-54"/>
     </g>
    </g>
   </g>
  </g>
  <g id="axes_2">
   <g id="Poly3DCollection_1">
    <defs>
     <path d="M 440.597549 -117.704029 
L 392.452434 -98.845309 
L 398.593725 -82.16763 
L 430.333146 -68.141995 
L 479.612209 -88.948854 
L 510.69565 -102.073065 
L 478.934848 -114.64376 
L 440.597549 -117.704029 
z
" id="ma11bcd627d" style="stroke:#000000;"/>
    </defs>
    <g clip-path="url(#p9c49891a84)">
     <use style="fill:#808080;stroke:#000000;" x="0" xlink:href="#ma11bcd627d" y="302.878125"/>
    </g>
   </g>
   <g id="Poly3DCollection_2">
    <defs>
     <path d="M 438.266538 -118.856537 
L 389.932382 -99.991032 
L 400.274156 -83.757215 
L 432.106383 -69.74376 
L 481.408579 -90.532168 
L 508.943668 -104.911481 
L 477.235717 -117.416048 
L 438.266538 -118.856537 
z
" id="mb74518e187" style="stroke:#000000;"/>
    </defs>
    <g clip-path="url(#p9c49891a84)">
     <use style="fill:#828282;stroke:#000000;" x="0" xlink:href="#mb74518e187" y="302.878125"/>
    </g>
   </g>
   <g id="Poly3DCollection_3">
    <defs>
     <path d="M 436.198337 -119.925187 
L 387.675106 -101.047124 
L 402.127379 -85.434548 
L 434.052288 -71.437243 
L 483.365414 -92.201338 
L 507.046038 -107.670481 
L 475.389938 -120.112237 
L 436.198337 -119.925187 
z
" id="me0d9a46ccb" style="stroke:#000000;"/>
    </defs>
    <g clip-path="url(#p9c49891a84)">
     <use style="fill:#848484;stroke:#000000;" x="0" xlink:href="#me0d9a46ccb" y="302.878125"/>
    </g>
   </g>
   <g id="Poly3DCollection_4">
    <defs>
     <path d="M 434.416561 -120.921863 
L 385.705949 -102.026213 
L 404.132675 -87.205871 
L 436.149279 -73.228996 
L 485.461269 -93.962463 
L 505.023211 -110.345199 
L 473.417236 -122.727661 
L 434.416561 -120.921863 
z
" id="m8f3c6f3d7a" style="stroke:#000000;"/>
    </defs>
    <g clip-path="url(#p9c49891a84)">
     <use style="fill:#868686;stroke:#000000;" x="0" xlink:href="#m8f3c6f3d7a" y="302.878125"/>
    </g>
   </g>
   <g id="Poly3DCollection_5">
    <defs>
     <path d="M 432.942195 -121.859272 
L 384.047648 -102.941813 
L 406.267387 -89.076337 
L 438.373838 -75.124429 
L 487.672912 -95.820575 
L 502.896818 -112.931712 
L 471.338536 -125.258557 
L 432.942195 -121.859272 
z
" id="me71957d50a" style="stroke:#000000;"/>
    </defs>
    <g clip-path="url(#p9c49891a84)">
     <use style="fill:#888888;stroke:#000000;" x="0" xlink:href="#me71957d50a" y="302.878125"/>
    </g>
   </g>
   <g id="Poly3DCollection_6">
    <defs>
     <path d="M 431.793323 -122.750834 
L 382.720042 -103.808204 
L 408.507188 -91.04994 
L 440.700786 -77.127737 
L 489.975606 -97.779569 
L 500.689459 -115.427061 
L 469.175768 -127.70209 
L 431.793323 -122.750834 
z
" id="mc55e3ae086" style="stroke:#000000;"/>
    </defs>
    <g clip-path="url(#p9c49891a84)">
     <use style="fill:#8a8a8a;stroke:#000000;" x="0" xlink:href="#mc55e3ae086" y="302.878125"/>
    </g>
   </g>
   <g id="Poly3DCollection_7">
    <defs>
     <path d="M 430.984857 -123.610567 
L 381.739788 -104.640314 
L 412.734517 -91.281908 
L 443.103597 -79.241844 
L 492.343409 -99.842158 
L 498.424494 -117.829266 
L 466.95165 -130.056362 
L 430.984857 -123.610567 
z
" id="mda9c46b7a4" style="stroke:#000000;"/>
    </defs>
    <g clip-path="url(#p9c49891a84)">
     <use style="fill:#8c8c8c;stroke:#000000;" x="0" xlink:href="#mda9c46b7a4" y="302.878125"/>
    </g>
   </g>
   <g id="Poly3DCollection_8">
    <defs>
     <path d="M 430.528298 -124.452948 
L 381.120094 -105.45357 
L 412.196097 -92.072466 
L 445.554735 -81.468361 
L 494.749504 -102.009827 
L 496.125822 -120.137327 
L 464.689485 -132.320416 
L 430.528298 -124.452948 
z
" id="md8ab43b0b5" style="stroke:#000000;"/>
    </defs>
    <g clip-path="url(#p9c49891a84)">
     <use style="fill:#8e8e8e;stroke:#000000;" x="0" xlink:href="#md8ab43b0b5" y="302.878125"/>
    </g>
   </g>
   <g id="Poly3DCollection_9">
    <defs>
     <path d="M 430.431509 -125.292777 
L 380.870466 -106.263759 
L 412.037056 -92.859562 
L 448.026005 -83.807571 
L 497.166545 -104.282826 
L 493.81767 -122.351225 
L 462.412945 -134.49424 
L 430.431509 -125.292777 
z
" id="m42396f598f" style="stroke:#000000;"/>
    </defs>
    <g clip-path="url(#p9c49891a84)">
     <use style="fill:#909090;stroke:#000000;" x="0" xlink:href="#m42396f598f" y="302.878125"/>
    </g>
   </g>
   <g id="Poly3DCollection_10">
    <defs>
     <path d="M 430.698516 -126.145022 
L 380.996499 -107.086855 
L 412.262339 -93.659899 
L 450.48892 -86.258426 
L 499.567007 -106.660161 
L 491.524372 -124.471909 
L 460.145858 -136.578751 
L 430.698516 -126.145022 
z
" id="mabe7c86666" style="stroke:#000000;"/>
    </defs>
    <g clip-path="url(#p9c49891a84)">
     <use style="fill:#939393;stroke:#000000;" x="0" xlink:href="#mabe7c86666" y="302.878125"/>
    </g>
   </g>
   <g id="Poly3DCollection_11">
    <defs>
     <path d="M 457.911994 -138.575782 
L 409.992753 -120.266515 
L 381.499684 -107.938848 
L 412.872683 -94.490209 
L 452.915073 -88.818567 
L 501.923546 -109.139621 
L 489.270153 -126.501287 
L 457.911994 -138.575782 
z
" id="m73544e764a" style="stroke:#000000;"/>
    </defs>
    <g clip-path="url(#p9c49891a84)">
     <use style="fill:#959595;stroke:#000000;" x="0" xlink:href="#m73544e764a" y="302.878125"/>
    </g>
   </g>
   <g id="Poly3DCollection_12">
    <defs>
     <path d="M 455.734852 -140.488064 
L 407.693445 -122.221996 
L 382.377269 -108.835562 
L 413.864478 -95.367055 
L 455.276509 -91.484368 
L 504.20935 -111.717814 
L 487.078908 -128.442195 
L 455.734852 -140.488064 
z
" id="m92190d5299" style="stroke:#000000;"/>
    </defs>
    <g clip-path="url(#p9c49891a84)">
     <use style="fill:#979797;stroke:#000000;" x="0" xlink:href="#m92190d5299" y="302.878125"/>
    </g>
   </g>
   <g id="Poly3DCollection_13">
    <defs>
     <path d="M 453.637441 -142.319191 
L 405.468609 -124.090871 
L 383.622166 -109.792463 
L 415.229675 -96.306634 
L 457.546083 -94.250994 
L 506.39849 -114.390218 
L 484.973991 -130.298374 
L 453.637441 -142.319191 
z
" id="me3a279935a" style="stroke:#000000;"/>
    </defs>
    <g clip-path="url(#p9c49891a84)">
     <use style="fill:#999999;stroke:#000000;" x="0" xlink:href="#me3a279935a" y="302.878125"/>
    </g>
   </g>
   <g id="Poly3DCollection_14">
    <defs>
     <path d="M 451.642073 -144.073591 
L 403.341556 -125.877843 
L 385.222912 -110.824462 
L 416.955755 -97.324574 
L 459.69781 -97.112475 
L 508.466247 -117.151259 
L 482.977991 -132.074433 
L 451.642073 -144.073591 
z
" id="m8f8cd759fd" style="stroke:#000000;"/>
    </defs>
    <g clip-path="url(#p9c49891a84)">
     <use style="fill:#9b9b9b;stroke:#000000;" x="0" xlink:href="#m8f8cd759fd" y="302.878125"/>
    </g>
   </g>
   <g id="Poly3DCollection_15">
    <defs>
     <path d="M 449.770147 -145.756484 
L 401.334743 -127.588459 
L 387.16369 -111.945721 
L 419.025762 -98.435723 
L 461.707194 -100.061804 
L 510.389418 -119.994391 
L 481.112523 -133.775804 
L 449.770147 -145.756484 
z
" id="m4c413edbcc" style="stroke:#000000;"/>
    </defs>
    <g clip-path="url(#p9c49891a84)">
     <use style="fill:#9d9d9d;stroke:#000000;" x="0" xlink:href="#m4c413edbcc" y="302.878125"/>
    </g>
   </g>
   <g id="Poly3DCollection_16">
    <defs>
     <path d="M 448.041939 -147.373834 
L 399.46955 -129.229058 
L 389.424423 -113.169459 
L 421.418399 -99.653948 
L 463.551524 -103.091035 
L 512.146603 -122.912198 
L 479.398015 -135.408699 
L 448.041939 -147.373834 
z
" id="m0998f39fb2" style="stroke:#000000;"/>
    </defs>
    <g clip-path="url(#p9c49891a84)">
     <use style="fill:#9f9f9f;stroke:#000000;" x="0" xlink:href="#m0998f39fb2" y="302.878125"/>
    </g>
   </g>
   <g id="Poly3DCollection_17">
    <defs>
     <path d="M 446.476399 -148.932293 
L 397.766068 -130.806716 
L 391.980927 -114.507761 
L 424.108205 -100.991936 
L 465.210144 -106.191409 
L 513.718454 -125.896502 
L 480.956551 -138.320278 
L 446.476399 -148.932293 
z
" id="m5992afacbd" style="stroke:#000000;"/>
    </defs>
    <g clip-path="url(#p9c49891a84)">
     <use style="fill:#a2a2a2;stroke:#000000;" x="0" xlink:href="#m5992afacbd" y="302.878125"/>
    </g>
   </g>
   <g id="Poly3DCollection_18">
    <defs>
     <path d="M 445.090945 -150.439148 
L 396.242888 -132.329187 
L 394.805145 -115.971407 
L 427.065795 -102.461007 
L 466.664687 -109.353475 
L 515.087896 -128.938479 
L 482.32055 -141.287066 
L 445.090945 -150.439148 
z
" id="me3e5d60506" style="stroke:#000000;"/>
    </defs>
    <g clip-path="url(#p9c49891a84)">
     <use style="fill:#a4a4a4;stroke:#000000;" x="0" xlink:href="#me3e5d60506" y="302.878125"/>
    </g>
   </g>
   <g id="Poly3DCollection_19">
    <defs>
     <path d="M 443.901277 -151.902248 
L 394.916893 -133.804826 
L 397.865444 -117.569705 
L 430.258179 -104.070944 
L 467.899275 -112.567225 
L 516.240301 -132.028784 
L 483.475222 -144.300122 
L 443.901277 -151.902248 
z
" id="mb45173c5fe" style="stroke:#000000;"/>
    </defs>
    <g clip-path="url(#p9c49891a84)">
     <use style="fill:#a6a6a6;stroke:#000000;" x="0" xlink:href="#mb45173c5fe" y="302.878125"/>
    </g>
   </g>
   <g id="Poly3DCollection_20">
    <defs>
     <path d="M 442.921183 -153.329934 
L 393.803063 -135.242516 
L 401.126985 -119.310351 
L 433.64915 -105.82984 
L 468.900672 -115.822227 
L 517.163641 -135.157675 
L 484.408281 -147.350129 
L 442.921183 -153.329934 
z
" id="m9b7a06c5fa" style="stroke:#000000;"/>
    </defs>
    <g clip-path="url(#p9c49891a84)">
     <use style="fill:#a8a8a8;stroke:#000000;" x="0" xlink:href="#m9b7a06c5fa" y="302.878125"/>
    </g>
   </g>
   <g id="Poly3DCollection_21">
    <defs>
     <path d="M 442.16237 -154.730956 
L 392.91429 -136.651585 
L 404.552154 -121.199308 
L 437.199731 -107.743971 
L 469.658404 -119.107766 
L 517.848584 -138.315146 
L 485.11005 -150.427512 
L 442.16237 -154.730956 
z
" id="mf1dda4b941" style="stroke:#000000;"/>
    </defs>
    <g clip-path="url(#p9c49891a84)">
     <use style="fill:#aaaaaa;stroke:#000000;" x="0" xlink:href="#mf1dda4b941" y="302.878125"/>
    </g>
   </g>
   <g id="Poly3DCollection_22">
    <defs>
     <path d="M 441.634303 -156.114393 
L 392.2612 -138.041712 
L 408.101049 -123.240712 
L 440.86869 -109.817699 
L 491.000741 -129.725138 
L 518.288566 -141.491045 
L 485.573538 -153.522559 
L 441.634303 -156.114393 
z
" id="mb59a5dec0f" style="stroke:#000000;"/>
    </defs>
    <g clip-path="url(#p9c49891a84)">
     <use style="fill:#acacac;stroke:#000000;" x="0" xlink:href="#mb59a5dec0f" y="302.878125"/>
    </g>
   </g>
   <g id="Poly3DCollection_23">
    <defs>
     <path d="M 441.344059 -157.489559 
L 391.851996 -139.422832 
L 411.732019 -125.436813 
L 444.613095 -112.053402 
L 494.66061 -131.901915 
L 518.47982 -144.675208 
L 485.794476 -156.625541 
L 441.344059 -157.489559 
z
" id="m66bad2c1c7" style="stroke:#000000;"/>
    </defs>
    <g clip-path="url(#p9c49891a84)">
     <use style="fill:#aeaeae;stroke:#000000;" x="0" xlink:href="#m66bad2c1c7" y="302.878125"/>
    </g>
   </g>
   <g id="Poly3DCollection_24">
    <defs>
     <path d="M 441.296207 -158.865903 
L 391.692325 -140.805033 
L 415.402233 -127.787933 
L 448.388908 -114.451441 
L 498.337583 -134.230241 
L 518.421367 -147.857569 
L 485.771316 -159.726824 
L 441.296207 -158.865903 
z
" id="mcdbe0b1367" style="stroke:#000000;"/>
    </defs>
    <g clip-path="url(#p9c49891a84)">
     <use style="fill:#b0b0b0;stroke:#000000;" x="0" xlink:href="#mcdbe0b1367" y="302.878125"/>
    </g>
   </g>
   <g id="Poly3DCollection_25">
    <defs>
     <path d="M 441.492701 -160.252913 
L 391.785153 -142.198448 
L 419.068282 -130.292478 
L 452.151603 -117.010155 
L 501.988696 -136.708546 
L 518.114979 -151.028279 
L 485.505204 -162.816979 
L 441.492701 -160.252913 
z
" id="maeef3dd279" style="stroke:#000000;"/>
    </defs>
    <g clip-path="url(#p9c49891a84)">
     <use style="fill:#b2b2b2;stroke:#000000;" x="0" xlink:href="#maeef3dd279" y="302.878125"/>
    </g>
   </g>
   <g id="Poly3DCollection_26">
    <defs>
     <path d="M 441.932813 -161.660009 
L 392.130685 -143.613143 
L 423.959509 -130.891954 
L 455.856799 -119.7259 
L 505.57129 -139.333421 
L 517.565109 -154.177809 
L 484.99992 -165.886881 
L 441.932813 -161.660009 
z
" id="m825be942f3" style="stroke:#000000;"/>
    </defs>
    <g clip-path="url(#p9c49891a84)">
     <use style="fill:#b5b5b5;stroke:#000000;" x="0" xlink:href="#m825be942f3" y="302.878125"/>
    </g>
   </g>
   <g id="Poly3DCollection_27">
    <defs>
     <path d="M 442.613081 -163.096435 
L 392.726298 -145.059004 
L 424.639154 -132.342941 
L 459.460882 -122.593115 
L 509.043608 -142.099671 
L 516.778797 -157.297048 
L 484.261784 -168.927804 
L 442.613081 -163.096435 
z
" id="m6be9b87c01" style="stroke:#000000;"/>
    </defs>
    <g clip-path="url(#p9c49891a84)">
     <use style="fill:#b7b7b7;stroke:#000000;" x="0" xlink:href="#m6be9b87c01" y="302.878125"/>
    </g>
   </g>
   <g id="Poly3DCollection_28">
    <defs>
     <path d="M 443.527295 -164.571152 
L 393.566519 -146.545617 
L 425.567367 -133.836456 
L 462.92162 -125.60442 
L 512.365371 -145.000415 
L 515.765543 -160.37739 
L 483.299555 -171.931506 
L 443.527295 -164.571152 
z
" id="m748b6bf5ec" style="stroke:#000000;"/>
    </defs>
    <g clip-path="url(#p9c49891a84)">
     <use style="fill:#b9b9b9;stroke:#000000;" x="0" xlink:href="#m748b6bf5ec" y="302.878125"/>
    </g>
   </g>
   <g id="Poly3DCollection_29">
    <defs>
     <path d="M 444.666521 -166.092731 
L 394.643028 -148.082158 
L 426.735097 -135.382111 
L 466.198738 -128.750749 
L 515.49833 -148.027204 
L 514.537174 -163.410815 
L 482.124288 -174.890302 
L 444.666521 -166.092731 
z
" id="mc94c2ac787" style="stroke:#000000;"/>
    </defs>
    <g clip-path="url(#p9c49891a84)">
     <use style="fill:#bbbbbb;stroke:#000000;" x="0" xlink:href="#mc94c2ac787" y="302.878125"/>
    </g>
   </g>
   <g id="Poly3DCollection_30">
    <defs>
     <path d="M 446.019157 -167.669244 
L 395.944706 -149.677273 
L 428.130443 -136.988973 
L 469.254456 -132.021506 
L 518.406771 -151.170162 
L 513.107678 -166.389957 
L 480.749192 -177.797134 
L 446.019157 -167.669244 
z
" id="m80a98efca7" style="stroke:#000000;"/>
    </defs>
    <g clip-path="url(#p9c49891a84)">
     <use style="fill:#bdbdbd;stroke:#000000;" x="0" xlink:href="#m80a98efca7" y="302.878125"/>
    </g>
   </g>
   <g id="Poly3DCollection_31">
    <defs>
     <path d="M 447.571022 -169.308163 
L 397.457721 -151.338972 
L 429.738748 -138.66544 
L 472.05398 -135.404737 
L 521.057966 -154.418154 
L 511.493032 -169.308163 
L 479.189459 -180.645627 
L 447.571022 -169.308163 
z
" id="m99cda82d72" style="stroke:#000000;"/>
    </defs>
    <g clip-path="url(#p9c49891a84)">
     <use style="fill:#bfbfbf;stroke:#000000;" x="0" xlink:href="#m99cda82d72" y="302.878125"/>
    </g>
   </g>
   <g id="Poly3DCollection_32">
    <defs>
     <path d="M 477.46209 -183.430136 
L 429.477095 -166.337124 
L 399.165649 -153.074523 
L 431.542731 -140.41914 
L 474.565919 -138.88733 
L 523.422572 -157.75896 
L 509.711017 -172.159544 
L 477.46209 -183.430136 
z
" id="mc130cd31d1" style="stroke:#000000;"/>
    </defs>
    <g clip-path="url(#p9c49891a84)">
     <use style="fill:#c1c1c1;stroke:#000000;" x="0" xlink:href="#mc130cd31d1" y="302.878125"/>
    </g>
   </g>
   <g id="Poly3DCollection_33">
    <defs>
     <path d="M 475.585703 -186.14579 
L 427.557292 -169.149637 
L 401.049644 -154.890356 
L 433.522665 -142.25682 
L 476.762646 -142.455219 
L 525.474963 -161.179474 
L 507.781022 -174.939015 
L 475.585703 -186.14579 
z
" id="mff4cd85717" style="stroke:#000000;"/>
    </defs>
    <g clip-path="url(#p9c49891a84)">
     <use style="fill:#c3c3c3;stroke:#000000;" x="0" xlink:href="#mff4cd85717" y="302.878125"/>
    </g>
   </g>
   <g id="Poly3DCollection_34">
    <defs>
     <path d="M 473.58034 -188.788516 
L 425.497358 -171.884299 
L 403.088636 -156.791977 
L 435.656587 -144.184266 
L 478.620587 -146.093599 
L 527.193485 -164.665895 
L 505.72384 -177.642331 
L 473.58034 -188.788516 
z
" id="ma782822bec" style="stroke:#000000;"/>
    </defs>
    <g clip-path="url(#p9c49891a84)">
     <use style="fill:#c6c6c6;stroke:#000000;" x="0" xlink:href="#ma782822bec" y="302.878125"/>
    </g>
   </g>
   <g id="Poly3DCollection_35">
    <defs>
     <path d="M 471.467262 -191.355073 
L 423.318812 -174.53765 
L 405.259576 -158.783893 
L 437.920554 -146.206212 
L 480.120431 -149.787142 
L 528.560653 -168.203929 
L 503.56146 -180.266105 
L 471.467262 -191.355073 
z
" id="mc8a3c42932" style="stroke:#000000;"/>
    </defs>
    <g clip-path="url(#p9c49891a84)">
     <use style="fill:#c8c8c8;stroke:#000000;" x="0" xlink:href="#mc8a3c42932" y="302.878125"/>
    </g>
   </g>
   <g id="Poly3DCollection_36">
    <defs>
     <path d="M 469.268747 -193.843057 
L 421.044291 -177.107127 
L 407.537709 -160.86955 
L 440.288927 -148.326284 
L 481.247272 -153.520211 
L 529.563277 -171.778991 
L 501.316853 -182.807832 
L 469.268747 -193.843057 
z
" id="m105d4d5a2f" style="stroke:#000000;"/>
    </defs>
    <g clip-path="url(#p9c49891a84)">
     <use style="fill:#cacaca;stroke:#000000;" x="0" xlink:href="#m105d4d5a2f" y="302.878125"/>
    </g>
   </g>
   <g id="Poly3DCollection_37">
    <defs>
     <path d="M 467.007873 -196.250916 
L 418.697335 -179.591072 
L 409.896876 -163.051289 
L 442.734692 -150.54695 
L 481.990684 -157.27707 
L 530.192509 -175.376395 
L 496.902671 -186.78439 
L 467.007873 -196.250916 
z
" id="m1ac8da4727" style="stroke:#000000;"/>
    </defs>
    <g clip-path="url(#p9c49891a84)">
     <use style="fill:#cccccc;stroke:#000000;" x="0" xlink:href="#m1ac8da4727" y="302.878125"/>
    </g>
   </g>
   <g id="Poly3DCollection_38">
    <defs>
     <path d="M 464.708309 -198.57795 
L 416.302167 -181.988735 
L 412.30985 -165.330316 
L 445.229798 -152.869483 
L 482.344723 -161.042082 
L 530.443849 -178.981542 
L 497.209931 -190.289978 
L 464.708309 -198.57795 
z
" id="m6102096057" style="stroke:#000000;"/>
    </defs>
    <g clip-path="url(#p9c49891a84)">
     <use style="fill:#cecece;stroke:#000000;" x="0" xlink:href="#m6102096057" y="302.878125"/>
    </g>
   </g>
   <g id="Poly3DCollection_39">
    <defs>
     <path d="M 462.394101 -200.824307 
L 413.88348 -184.300267 
L 414.748681 -167.706684 
L 447.745518 -155.293952 
L 482.307877 -164.799893 
L 530.31707 -182.580089 
L 497.147526 -193.789327 
L 462.394101 -200.824307 
z
" id="mf7c7ea478d" style="stroke:#000000;"/>
    </defs>
    <g clip-path="url(#p9c49891a84)">
     <use style="fill:#d0d0d0;stroke:#000000;" x="0" xlink:href="#mf7c7ea478d" y="302.878125"/>
    </g>
   </g>
   <g id="Poly3DCollection_40">
    <defs>
     <path d="M 460.08945 -202.990972 
L 411.466214 -186.526709 
L 417.185056 -170.179305 
L 450.252829 -157.819223 
L 481.882953 -168.535607 
L 529.816112 -186.158115 
L 496.718386 -197.269114 
L 460.08945 -202.990972 
z
" id="m7ae77bb959" style="stroke:#000000;"/>
    </defs>
    <g clip-path="url(#p9c49891a84)">
     <use style="fill:#d2d2d2;stroke:#000000;" x="0" xlink:href="#m7ae77bb959" y="302.878125"/>
    </g>
   </g>
   <g id="Poly3DCollection_41">
    <defs>
     <path d="M 457.818505 -205.079751 
L 409.075334 -188.669976 
L 419.590675 -172.745966 
L 452.722786 -160.442986 
L 502.593704 -178.688737 
L 528.948917 -189.70226 
L 495.929379 -200.716548 
L 457.818505 -205.079751 
z
" id="m582ec180f0" style="stroke:#000000;"/>
    </defs>
    <g clip-path="url(#p9c49891a84)">
     <use style="fill:#d4d4d4;stroke:#000000;" x="0" xlink:href="#m582ec180f0" y="302.878125"/>
    </g>
   </g>
   <g id="Poly3DCollection_42">
    <defs>
     <path d="M 455.605135 -207.093246 
L 406.735607 -190.732834 
L 421.937612 -175.403368 
L 455.126902 -163.161788 
L 504.919475 -181.316467 
L 527.727236 -193.199858 
L 494.791128 -204.119499 
L 455.605135 -207.093246 
z
" id="maaa8876e45" style="stroke:#000000;"/>
    </defs>
    <g clip-path="url(#p9c49891a84)">
     <use style="fill:#d7d7d7;stroke:#000000;" x="0" xlink:href="#maaa8876e45" y="302.878125"/>
    </g>
   </g>
   <g id="Poly3DCollection_43">
    <defs>
     <path d="M 453.47272 -209.034833 
L 404.471383 -192.718867 
L 424.198684 -178.147183 
L 457.437519 -165.971098 
L 507.146777 -184.028667 
L 526.166396 -196.639051 
L 493.317798 -207.466605 
L 453.47272 -209.034833 
z
" id="mb27d939753" style="stroke:#000000;"/>
    </defs>
    <g clip-path="url(#p9c49891a84)">
     <use style="fill:#d9d9d9;stroke:#000000;" x="0" xlink:href="#mb27d939753" y="302.878125"/>
    </g>
   </g>
   <g id="Poly3DCollection_44">
    <defs>
     <path d="M 451.443933 -210.908622 
L 402.306367 -194.632448 
L 426.347792 -180.972122 
L 459.628163 -168.865373 
L 509.250445 -186.820166 
L 524.285053 -200.008881 
L 491.526863 -210.747364 
L 451.443933 -210.908622 
z
" id="mcc7ee9daf7" style="stroke:#000000;"/>
    </defs>
    <g clip-path="url(#p9c49891a84)">
     <use style="fill:#dbdbdb;stroke:#000000;" x="0" xlink:href="#mcc7ee9daf7" y="302.878125"/>
    </g>
   </g>
   <g id="Poly3DCollection_45">
    <defs>
     <path d="M 449.54052 -212.719423 
L 400.263399 -196.478693 
L 428.360254 -183.872018 
L 461.673876 -171.838152 
L 511.206866 -189.684938 
L 522.104918 -203.299376 
L 489.438843 -213.952217 
L 449.54052 -212.719423 
z
" id="m3e486c9867" style="stroke:#000000;"/>
    </defs>
    <g clip-path="url(#p9c49891a84)">
     <use style="fill:#dddddd;stroke:#000000;" x="0" xlink:href="#m3e486c9867" y="302.878125"/>
    </g>
   </g>
   <g id="Poly3DCollection_46">
    <defs>
     <path d="M 447.783096 -214.472701 
L 398.364233 -198.263417 
L 430.213105 -186.839917 
L 463.551524 -174.882149 
L 512.994263 -192.616187 
L 519.650475 -206.501613 
L 487.077037 -217.072607 
L 447.783096 -214.472701 
z
" id="m6364e62043" style="stroke:#000000;"/>
    </defs>
    <g clip-path="url(#p9c49891a84)">
     <use style="fill:#dfdfdf;stroke:#000000;" x="0" xlink:href="#m6364e62043" y="302.878125"/>
    </g>
   </g>
   <g id="Poly3DCollection_47">
    <defs>
     <path d="M 446.190929 -216.174524 
L 396.629318 -199.99308 
L 428.497342 -188.588062 
L 465.24007 -177.989363 
L 514.592955 -195.606455 
L 516.948691 -209.607771 
L 484.467244 -220.101031 
L 446.190929 -216.174524 
z
" id="m8e92e0a062" style="stroke:#000000;"/>
    </defs>
    <g clip-path="url(#p9c49891a84)">
     <use style="fill:#e1e1e1;stroke:#000000;" x="0" xlink:href="#m8e92e0a062" y="302.878125"/>
    </g>
   </g>
   <g id="Poly3DCollection_48">
    <defs>
     <path d="M 444.78174 -217.831506 
L 395.077585 -201.67473 
L 426.972598 -190.285888 
L 466.720812 -181.151198 
L 515.985576 -198.647725 
L 514.028716 -212.611168 
L 481.637474 -223.03108 
L 444.78174 -217.831506 
z
" id="m29a3018cea" style="stroke:#000000;"/>
    </defs>
    <g clip-path="url(#p9c49891a84)">
     <use style="fill:#e3e3e3;stroke:#000000;" x="0" xlink:href="#m29a3018cea" y="302.878125"/>
    </g>
   </g>
   <g id="Poly3DCollection_49">
    <defs>
     <path d="M 443.571503 -219.450753 
L 393.726235 -203.315938 
L 425.656045 -191.941302 
L 467.977588 -184.358579 
L 517.157261 -201.731535 
L 510.92159 -215.506292 
L 478.617662 -225.857465 
L 443.571503 -219.450753 
z
" id="mc1d1cd9773" style="stroke:#000000;"/>
    </defs>
    <g clip-path="url(#p9c49891a84)">
     <use style="fill:#e6e6e6;stroke:#000000;" x="0" xlink:href="#mc1d1cd9773" y="302.878125"/>
    </g>
   </g>
   <g id="Poly3DCollection_50">
    <defs>
     <path d="M 442.574257 -221.039787 
L 392.59054 -204.924725 
L 424.562849 -193.562688 
L 468.996928 -187.602083 
L 518.095789 -204.849094 
L 507.659943 -218.288815 
L 475.439379 -228.576033 
L 442.574257 -221.039787 
z
" id="m6fd7072da4" style="stroke:#000000;"/>
    </defs>
    <g clip-path="url(#p9c49891a84)">
     <use style="fill:#e8e8e8;stroke:#000000;" x="0" xlink:href="#m6fd7072da4" y="302.878125"/>
    </g>
   </g>
   <g id="Poly3DCollection_51">
    <defs>
     <path d="M 441.801929 -222.606478 
L 391.683652 -206.509489 
L 423.705977 -195.158822 
L 469.768181 -190.872056 
L 518.791693 -207.991397 
L 504.277702 -220.955604 
L 472.135545 -231.183777 
L 441.801929 -222.606478 
z
" id="mddd4e95b86" style="stroke:#000000;"/>
    </defs>
    <g clip-path="url(#p9c49891a84)">
     <use style="fill:#eaeaea;stroke:#000000;" x="0" xlink:href="#mddd4e95b86" y="302.878125"/>
    </g>
   </g>
   <g id="Poly3DCollection_52">
    <defs>
     <path d="M 468.740142 -233.678835 
L 420.447724 -218.248675 
L 391.016427 -208.07892 
L 423.096023 -196.738794 
L 470.283589 -194.158743 
L 519.238321 -211.14934 
L 500.809799 -223.504716 
L 468.740142 -233.678835 
z
" id="mf541b88fc9" style="stroke:#000000;"/>
    </defs>
    <g clip-path="url(#p9c49891a84)">
     <use style="fill:#ececec;stroke:#000000;" x="0" xlink:href="#mf541b88fc9" y="302.878125"/>
    </g>
   </g>
   <g id="Poly3DCollection_53">
    <defs>
     <path d="M 465.287929 -236.060484 
L 416.865682 -220.704631 
L 390.59726 -209.641913 
L 422.741044 -198.311907 
L 470.538325 -197.452403 
L 519.431869 -214.313833 
L 497.291878 -225.935395 
L 465.287929 -236.060484 
z
" id="m76ac0034b8" style="stroke:#000000;"/>
    </defs>
    <g clip-path="url(#p9c49891a84)">
     <use style="fill:#eeeeee;stroke:#000000;" x="0" xlink:href="#m76ac0034b8" y="302.878125"/>
    </g>
   </g>
   <g id="Poly3DCollection_54">
    <defs>
     <path d="M 461.814161 -238.329124 
L 413.248798 -223.039937 
L 390.431944 -211.207475 
L 422.646417 -199.887589 
L 470.530498 -200.743425 
L 519.371373 -217.475902 
L 493.760015 -228.248055 
L 461.814161 -238.329124 
z
" id="mc8683c35b0" style="stroke:#000000;"/>
    </defs>
    <g clip-path="url(#p9c49891a84)">
     <use style="fill:#f0f0f0;stroke:#000000;" x="0" xlink:href="#mc8683c35b0" y="302.878125"/>
    </g>
   </g>
   <g id="Poly3DCollection_55">
    <defs>
     <path d="M 458.354305 -240.486265 
L 409.633587 -225.256192 
L 390.523554 -212.784629 
L 422.814725 -201.475288 
L 470.261115 -204.022437 
L 519.058667 -220.626795 
L 490.250423 -230.444264 
L 458.354305 -240.486265 
z
" id="m199f4176b8" style="stroke:#000000;"/>
    </defs>
    <g clip-path="url(#p9c49891a84)">
     <use style="fill:#f2f2f2;stroke:#000000;" x="0" xlink:href="#m199f4176b8" y="302.878125"/>
    </g>
   </g>
   <g id="Poly3DCollection_56">
    <defs>
     <path d="M 454.943763 -242.534496 
L 406.056617 -227.35614 
L 390.872348 -214.382314 
L 423.245663 -203.084366 
L 469.734018 -207.280405 
L 518.498312 -223.758071 
L 485.362377 -234.142099 
L 454.943763 -242.534496 
z
" id="mf79c0e9172" style="stroke:#000000;"/>
    </defs>
    <g clip-path="url(#p9c49891a84)">
     <use style="fill:#f4f4f4;stroke:#000000;" x="0" xlink:href="#mf79c0e9172" y="302.878125"/>
    </g>
   </g>
   <g id="Poly3DCollection_57">
    <defs>
     <path d="M 451.617582 -244.477463 
L 402.554216 -229.343649 
L 391.475712 -216.009283 
L 423.935984 -204.723995 
L 468.955785 -210.508724 
L 517.697496 -226.86169 
L 484.611426 -237.167715 
L 451.617582 -244.477463 
z
" id="mc3bdff761e" style="stroke:#000000;"/>
    </defs>
    <g clip-path="url(#p9c49891a84)">
     <use style="fill:#f6f6f6;stroke:#000000;" x="0" xlink:href="#mc3bdff761e" y="302.878125"/>
    </g>
   </g>
   <g id="Poly3DCollection_58">
    <defs>
     <path d="M 448.410175 -246.319826 
L 399.162188 -231.223667 
L 392.328125 -217.673998 
L 424.879467 -206.403046 
L 467.935612 -213.6993 
L 516.665911 -229.930084 
L 483.632647 -240.15965 
L 448.410175 -246.319826 
z
" id="m7f80d95691" style="stroke:#000000;"/>
    </defs>
    <g clip-path="url(#p9c49891a84)">
     <use style="fill:#f9f9f9;stroke:#000000;" x="0" xlink:href="#m7f80d95691" y="302.878125"/>
    </g>
   </g>
   <g id="Poly3DCollection_59">
    <defs>
     <path d="M 445.355031 -248.067227 
L 395.915515 -233.002184 
L 393.421167 -219.38453 
L 426.066937 -208.129985 
L 466.685169 -216.844624 
L 515.415608 -232.956234 
L 482.437294 -243.11118 
L 445.355031 -248.067227 
z
" id="m101bb5a340" style="stroke:#000000;"/>
    </defs>
    <g clip-path="url(#p9c49891a84)">
     <use style="fill:#fbfbfb;stroke:#000000;" x="0" xlink:href="#m101bb5a340" y="302.878125"/>
    </g>
   </g>
   <g id="Poly3DCollection_60">
    <defs>
     <path d="M 442.484424 -249.726239 
L 392.848057 -234.686185 
L 394.743565 -221.148456 
L 427.48631 -209.912761 
L 465.218434 -219.937832 
L 513.960833 -235.933721 
L 481.038808 -246.016162 
L 442.484424 -249.726239 
z
" id="m16dd3454fc" style="stroke:#000000;"/>
    </defs>
    <g clip-path="url(#p9c49891a84)">
     <use style="fill:#fdfdfd;stroke:#000000;" x="0" xlink:href="#m16dd3454fc" y="302.878125"/>
    </g>
   </g>
  </g>
 </g>
 <defs>
  <clipPath id="pa5b6728778">
   <rect height="271.8" width="253.636364" x="28.942188" y="7.2"/>
  </clipPath>
  <clipPath id="p9c49891a84">
   <rect height="271.8" width="253.636364" x="333.305824" y="7.2"/>
  </clipPath>
 </defs>
</svg>
