<?xml version="1.0" encoding="utf-8" standalone="no"?>
<!DOCTYPE svg PUBLIC "-//W3C//DTD SVG 1.1//EN"
  "http://www.w3.org/Graphics/SVG/1.1/DTD/svg11.dtd">
<!-- Created with matplotlib (https://matplotlib.org/) -->
<svg height="189.207062pt" version="1.1" viewBox="0 0 711.928052 189.207062" width="711.928052pt" xmlns="http://www.w3.org/2000/svg" xmlns:xlink="http://www.w3.org/1999/xlink">
 <defs>
  <style type="text/css">
*{stroke-linecap:butt;stroke-linejoin:round;}
  </style>
 </defs>
 <g id="figure_1">
  <g id="patch_1">
   <path d="M 0 189.207062 
L 711.928052 189.207062 
L 711.928052 0 
L 0 0 
z
" style="fill:none;"/>
  </g>
  <g id="axes_1">
   <g id="patch_2">
    <path d="M 42.620313 151.650812 
L 231.172892 151.650812 
L 231.172892 17.827312 
L 42.620313 17.827312 
z
" style="fill:#ffffff;"/>
   </g>
   <g id="PathCollection_1">
    <defs>
     <path d="M 0 3 
C 0.795609 3 1.55874 2.683901 2.12132 2.12132 
C 2.683901 1.55874 3 0.795609 3 0 
C 3 -0.795609 2.683901 -1.55874 2.12132 -2.12132 
C 1.55874 -2.683901 0.795609 -3 0 -3 
C -0.795609 -3 -1.55874 -2.683901 -2.12132 -2.12132 
C -2.683901 -1.55874 -3 -0.795609 -3 0 
C -3 0.795609 -2.683901 1.55874 -2.12132 2.12132 
C -1.55874 2.683901 -0.795609 3 0 3 
z
" id="mba4b31e49a" style="stroke:#0000ff;"/>
    </defs>
    <g clip-path="url(#p2e15082495)">
     <use style="fill:#0000ff;stroke:#0000ff;" x="63.18837" xlink:href="#mba4b31e49a" y="73.947647"/>
     <use style="fill:#0000ff;stroke:#0000ff;" x="75.185856" xlink:href="#mba4b31e49a" y="89.262023"/>
     <use style="fill:#0000ff;stroke:#0000ff;" x="87.183342" xlink:href="#mba4b31e49a" y="63.877564"/>
     <use style="fill:#0000ff;stroke:#0000ff;" x="99.180828" xlink:href="#mba4b31e49a" y="61.475197"/>
     <use style="fill:#0000ff;stroke:#0000ff;" x="111.178314" xlink:href="#mba4b31e49a" y="71.824207"/>
     <use style="fill:#0000ff;stroke:#0000ff;" x="123.1758" xlink:href="#mba4b31e49a" y="79.429106"/>
     <use style="fill:#0000ff;stroke:#0000ff;" x="135.173286" xlink:href="#mba4b31e49a" y="68.094939"/>
     <use style="fill:#0000ff;stroke:#0000ff;" x="147.170772" xlink:href="#mba4b31e49a" y="71.771004"/>
     <use style="fill:#0000ff;stroke:#0000ff;" x="159.168258" xlink:href="#mba4b31e49a" y="73.396853"/>
     <use style="fill:#0000ff;stroke:#0000ff;" x="171.165744" xlink:href="#mba4b31e49a" y="70.506212"/>
     <use style="fill:#0000ff;stroke:#0000ff;" x="183.16323" xlink:href="#mba4b31e49a" y="66.084045"/>
     <use style="fill:#0000ff;stroke:#0000ff;" x="195.160716" xlink:href="#mba4b31e49a" y="73.242733"/>
     <use style="fill:#0000ff;stroke:#0000ff;" x="207.158202" xlink:href="#mba4b31e49a" y="70.178734"/>
     <use style="fill:#0000ff;stroke:#0000ff;" x="219.155688" xlink:href="#mba4b31e49a" y="76.59426"/>
    </g>
   </g>
   <g id="PathCollection_2">
    <defs>
     <path d="M 0 3 
C 0.795609 3 1.55874 2.683901 2.12132 2.12132 
C 2.683901 1.55874 3 0.795609 3 0 
C 3 -0.795609 2.683901 -1.55874 2.12132 -2.12132 
C 1.55874 -2.683901 0.795609 -3 0 -3 
C -0.795609 -3 -1.55874 -2.683901 -2.12132 -2.12132 
C -2.683901 -1.55874 -3 -0.795609 -3 0 
C -3 0.795609 -2.683901 1.55874 -2.12132 2.12132 
C -1.55874 2.683901 -0.795609 3 0 3 
z
" id="m904d36c1ca" style="stroke:#8080ff;"/>
    </defs>
    <g clip-path="url(#p2e15082495)">
     <use style="fill:#8080ff;stroke:#8080ff;" x="63.18837" xlink:href="#m904d36c1ca" y="53.565836"/>
     <use style="fill:#8080ff;stroke:#8080ff;" x="75.185856" xlink:href="#m904d36c1ca" y="42.961961"/>
     <use style="fill:#8080ff;stroke:#8080ff;" x="87.183342" xlink:href="#m904d36c1ca" y="90.144935"/>
     <use style="fill:#8080ff;stroke:#8080ff;" x="99.180828" xlink:href="#m904d36c1ca" y="90.337723"/>
     <use style="fill:#8080ff;stroke:#8080ff;" x="111.178314" xlink:href="#m904d36c1ca" y="54.732171"/>
     <use style="fill:#8080ff;stroke:#8080ff;" x="123.1758" xlink:href="#m904d36c1ca" y="67.34158"/>
     <use style="fill:#8080ff;stroke:#8080ff;" x="135.173286" xlink:href="#m904d36c1ca" y="80.157454"/>
     <use style="fill:#8080ff;stroke:#8080ff;" x="147.170772" xlink:href="#m904d36c1ca" y="71.615663"/>
     <use style="fill:#8080ff;stroke:#8080ff;" x="159.168258" xlink:href="#m904d36c1ca" y="62.453041"/>
     <use style="fill:#8080ff;stroke:#8080ff;" x="171.165744" xlink:href="#m904d36c1ca" y="76.771362"/>
     <use style="fill:#8080ff;stroke:#8080ff;" x="183.16323" xlink:href="#m904d36c1ca" y="78.845397"/>
     <use style="fill:#8080ff;stroke:#8080ff;" x="195.160716" xlink:href="#m904d36c1ca" y="69.621424"/>
     <use style="fill:#8080ff;stroke:#8080ff;" x="207.158202" xlink:href="#m904d36c1ca" y="71.455239"/>
     <use style="fill:#8080ff;stroke:#8080ff;" x="219.155688" xlink:href="#m904d36c1ca" y="73.13331"/>
    </g>
   </g>
   <g id="PathCollection_3">
    <defs>
     <path d="M 0 3 
C 0.795609 3 1.55874 2.683901 2.12132 2.12132 
C 2.683901 1.55874 3 0.795609 3 0 
C 3 -0.795609 2.683901 -1.55874 2.12132 -2.12132 
C 1.55874 -2.683901 0.795609 -3 0 -3 
C -0.795609 -3 -1.55874 -2.683901 -2.12132 -2.12132 
C -2.683901 -1.55874 -3 -0.795609 -3 0 
C -3 0.795609 -2.683901 1.55874 -2.12132 2.12132 
C -1.55874 2.683901 -0.795609 3 0 3 
z
" id="md765d64046" style="stroke:#404080;"/>
    </defs>
    <g clip-path="url(#p2e15082495)">
     <use style="fill:#404080;stroke:#404080;" x="63.18837" xlink:href="#md765d64046" y="109.568502"/>
     <use style="fill:#404080;stroke:#404080;" x="75.185856" xlink:href="#md765d64046" y="55.830834"/>
     <use style="fill:#404080;stroke:#404080;" x="87.183342" xlink:href="#md765d64046" y="52.833258"/>
     <use style="fill:#404080;stroke:#404080;" x="99.180828" xlink:href="#md765d64046" y="84.154431"/>
     <use style="fill:#404080;stroke:#404080;" x="111.178314" xlink:href="#md765d64046" y="82.684834"/>
     <use style="fill:#404080;stroke:#404080;" x="123.1758" xlink:href="#md765d64046" y="56.314831"/>
     <use style="fill:#404080;stroke:#404080;" x="135.173286" xlink:href="#md765d64046" y="69.23164"/>
     <use style="fill:#404080;stroke:#404080;" x="147.170772" xlink:href="#md765d64046" y="80.661139"/>
     <use style="fill:#404080;stroke:#404080;" x="159.168258" xlink:href="#md765d64046" y="68.638688"/>
     <use style="fill:#404080;stroke:#404080;" x="171.165744" xlink:href="#md765d64046" y="67.787275"/>
     <use style="fill:#404080;stroke:#404080;" x="183.16323" xlink:href="#md765d64046" y="71.589738"/>
     <use style="fill:#404080;stroke:#404080;" x="195.160716" xlink:href="#md765d64046" y="83.814624"/>
     <use style="fill:#404080;stroke:#404080;" x="207.158202" xlink:href="#md765d64046" y="66.477995"/>
     <use style="fill:#404080;stroke:#404080;" x="219.155688" xlink:href="#md765d64046" y="70.375777"/>
    </g>
   </g>
   <g id="matplotlib.axis_1">
    <g id="xtick_1">
     <g id="line2d_1">
      <defs>
       <path d="M 0 0 
L 0 3.5 
" id="mbeefd536e7" style="stroke:#000000;stroke-width:0.8;"/>
      </defs>
      <g>
       <use style="stroke:#000000;stroke-width:0.8;" x="51.190884" xlink:href="#mbeefd536e7" y="151.650812"/>
      </g>
     </g>
     <g id="text_1">
      <!-- 0 -->
      <defs>
       <path d="M 31.78125 66.40625 
Q 24.171875 66.40625 20.328125 58.90625 
Q 16.5 51.421875 16.5 36.375 
Q 16.5 21.390625 20.328125 13.890625 
Q 24.171875 6.390625 31.78125 6.390625 
Q 39.453125 6.390625 43.28125 13.890625 
Q 47.125 21.390625 47.125 36.375 
Q 47.125 51.421875 43.28125 58.90625 
Q 39.453125 66.40625 31.78125 66.40625 
z
M 31.78125 74.21875 
Q 44.046875 74.21875 50.515625 64.515625 
Q 56.984375 54.828125 56.984375 36.375 
Q 56.984375 17.96875 50.515625 8.265625 
Q 44.046875 -1.421875 31.78125 -1.421875 
Q 19.53125 -1.421875 13.0625 8.265625 
Q 6.59375 17.96875 6.59375 36.375 
Q 6.59375 54.828125 13.0625 64.515625 
Q 19.53125 74.21875 31.78125 74.21875 
z
" id="DejaVuSans-48"/>
      </defs>
      <g transform="translate(48.009634 166.24925)scale(0.1 -0.1)">
       <use xlink:href="#DejaVuSans-48"/>
      </g>
     </g>
    </g>
    <g id="xtick_2">
     <g id="line2d_2">
      <g>
       <use style="stroke:#000000;stroke-width:0.8;" x="84.783845" xlink:href="#mbeefd536e7" y="151.650812"/>
      </g>
     </g>
     <g id="text_2">
      <!-- 2 -->
      <defs>
       <path d="M 19.1875 8.296875 
L 53.609375 8.296875 
L 53.609375 0 
L 7.328125 0 
L 7.328125 8.296875 
Q 12.9375 14.109375 22.625 23.890625 
Q 32.328125 33.6875 34.8125 36.53125 
Q 39.546875 41.84375 41.421875 45.53125 
Q 43.3125 49.21875 43.3125 52.78125 
Q 43.3125 58.59375 39.234375 62.25 
Q 35.15625 65.921875 28.609375 65.921875 
Q 23.96875 65.921875 18.8125 64.3125 
Q 13.671875 62.703125 7.8125 59.421875 
L 7.8125 69.390625 
Q 13.765625 71.78125 18.9375 73 
Q 24.125 74.21875 28.421875 74.21875 
Q 39.75 74.21875 46.484375 68.546875 
Q 53.21875 62.890625 53.21875 53.421875 
Q 53.21875 48.921875 51.53125 44.890625 
Q 49.859375 40.875 45.40625 35.40625 
Q 44.1875 33.984375 37.640625 27.21875 
Q 31.109375 20.453125 19.1875 8.296875 
z
" id="DejaVuSans-50"/>
      </defs>
      <g transform="translate(81.602595 166.24925)scale(0.1 -0.1)">
       <use xlink:href="#DejaVuSans-50"/>
      </g>
     </g>
    </g>
    <g id="xtick_3">
     <g id="line2d_3">
      <g>
       <use style="stroke:#000000;stroke-width:0.8;" x="118.376806" xlink:href="#mbeefd536e7" y="151.650812"/>
      </g>
     </g>
     <g id="text_3">
      <!-- 4 -->
      <defs>
       <path d="M 37.796875 64.3125 
L 12.890625 25.390625 
L 37.796875 25.390625 
z
M 35.203125 72.90625 
L 47.609375 72.90625 
L 47.609375 25.390625 
L 58.015625 25.390625 
L 58.015625 17.1875 
L 47.609375 17.1875 
L 47.609375 0 
L 37.796875 0 
L 37.796875 17.1875 
L 4.890625 17.1875 
L 4.890625 26.703125 
z
" id="DejaVuSans-52"/>
      </defs>
      <g transform="translate(115.195556 166.24925)scale(0.1 -0.1)">
       <use xlink:href="#DejaVuSans-52"/>
      </g>
     </g>
    </g>
    <g id="xtick_4">
     <g id="line2d_4">
      <g>
       <use style="stroke:#000000;stroke-width:0.8;" x="151.969767" xlink:href="#mbeefd536e7" y="151.650812"/>
      </g>
     </g>
     <g id="text_4">
      <!-- 6 -->
      <defs>
       <path d="M 33.015625 40.375 
Q 26.375 40.375 22.484375 35.828125 
Q 18.609375 31.296875 18.609375 23.390625 
Q 18.609375 15.53125 22.484375 10.953125 
Q 26.375 6.390625 33.015625 6.390625 
Q 39.65625 6.390625 43.53125 10.953125 
Q 47.40625 15.53125 47.40625 23.390625 
Q 47.40625 31.296875 43.53125 35.828125 
Q 39.65625 40.375 33.015625 40.375 
z
M 52.59375 71.296875 
L 52.59375 62.3125 
Q 48.875 64.0625 45.09375 64.984375 
Q 41.3125 65.921875 37.59375 65.921875 
Q 27.828125 65.921875 22.671875 59.328125 
Q 17.53125 52.734375 16.796875 39.40625 
Q 19.671875 43.65625 24.015625 45.921875 
Q 28.375 48.1875 33.59375 48.1875 
Q 44.578125 48.1875 50.953125 41.515625 
Q 57.328125 34.859375 57.328125 23.390625 
Q 57.328125 12.15625 50.6875 5.359375 
Q 44.046875 -1.421875 33.015625 -1.421875 
Q 20.359375 -1.421875 13.671875 8.265625 
Q 6.984375 17.96875 6.984375 36.375 
Q 6.984375 53.65625 15.1875 63.9375 
Q 23.390625 74.21875 37.203125 74.21875 
Q 40.921875 74.21875 44.703125 73.484375 
Q 48.484375 72.75 52.59375 71.296875 
z
" id="DejaVuSans-54"/>
      </defs>
      <g transform="translate(148.788517 166.24925)scale(0.1 -0.1)">
       <use xlink:href="#DejaVuSans-54"/>
      </g>
     </g>
    </g>
    <g id="xtick_5">
     <g id="line2d_5">
      <g>
       <use style="stroke:#000000;stroke-width:0.8;" x="185.562727" xlink:href="#mbeefd536e7" y="151.650812"/>
      </g>
     </g>
     <g id="text_5">
      <!-- 8 -->
      <defs>
       <path d="M 31.78125 34.625 
Q 24.75 34.625 20.71875 30.859375 
Q 16.703125 27.09375 16.703125 20.515625 
Q 16.703125 13.921875 20.71875 10.15625 
Q 24.75 6.390625 31.78125 6.390625 
Q 38.8125 6.390625 42.859375 10.171875 
Q 46.921875 13.96875 46.921875 20.515625 
Q 46.921875 27.09375 42.890625 30.859375 
Q 38.875 34.625 31.78125 34.625 
z
M 21.921875 38.8125 
Q 15.578125 40.375 12.03125 44.71875 
Q 8.5 49.078125 8.5 55.328125 
Q 8.5 64.0625 14.71875 69.140625 
Q 20.953125 74.21875 31.78125 74.21875 
Q 42.671875 74.21875 48.875 69.140625 
Q 55.078125 64.0625 55.078125 55.328125 
Q 55.078125 49.078125 51.53125 44.71875 
Q 48 40.375 41.703125 38.8125 
Q 48.828125 37.15625 52.796875 32.3125 
Q 56.78125 27.484375 56.78125 20.515625 
Q 56.78125 9.90625 50.3125 4.234375 
Q 43.84375 -1.421875 31.78125 -1.421875 
Q 19.734375 -1.421875 13.25 4.234375 
Q 6.78125 9.90625 6.78125 20.515625 
Q 6.78125 27.484375 10.78125 32.3125 
Q 14.796875 37.15625 21.921875 38.8125 
z
M 18.3125 54.390625 
Q 18.3125 48.734375 21.84375 45.5625 
Q 25.390625 42.390625 31.78125 42.390625 
Q 38.140625 42.390625 41.71875 45.5625 
Q 45.3125 48.734375 45.3125 54.390625 
Q 45.3125 60.0625 41.71875 63.234375 
Q 38.140625 66.40625 31.78125 66.40625 
Q 25.390625 66.40625 21.84375 63.234375 
Q 18.3125 60.0625 18.3125 54.390625 
z
" id="DejaVuSans-56"/>
      </defs>
      <g transform="translate(182.381477 166.24925)scale(0.1 -0.1)">
       <use xlink:href="#DejaVuSans-56"/>
      </g>
     </g>
    </g>
    <g id="xtick_6">
     <g id="line2d_6">
      <g>
       <use style="stroke:#000000;stroke-width:0.8;" x="219.155688" xlink:href="#mbeefd536e7" y="151.650812"/>
      </g>
     </g>
     <g id="text_6">
      <!-- 10 -->
      <defs>
       <path d="M 12.40625 8.296875 
L 28.515625 8.296875 
L 28.515625 63.921875 
L 10.984375 60.40625 
L 10.984375 69.390625 
L 28.421875 72.90625 
L 38.28125 72.90625 
L 38.28125 8.296875 
L 54.390625 8.296875 
L 54.390625 0 
L 12.40625 0 
z
" id="DejaVuSans-49"/>
      </defs>
      <g transform="translate(212.793188 166.24925)scale(0.1 -0.1)">
       <use xlink:href="#DejaVuSans-49"/>
       <use x="63.623047" xlink:href="#DejaVuSans-48"/>
      </g>
     </g>
    </g>
    <g id="text_7">
     <!-- Time -->
     <defs>
      <path d="M -0.296875 72.90625 
L 61.375 72.90625 
L 61.375 64.59375 
L 35.5 64.59375 
L 35.5 0 
L 25.59375 0 
L 25.59375 64.59375 
L -0.296875 64.59375 
z
" id="DejaVuSans-84"/>
      <path d="M 9.421875 54.6875 
L 18.40625 54.6875 
L 18.40625 0 
L 9.421875 0 
z
M 9.421875 75.984375 
L 18.40625 75.984375 
L 18.40625 64.59375 
L 9.421875 64.59375 
z
" id="DejaVuSans-105"/>
      <path d="M 52 44.1875 
Q 55.375 50.25 60.0625 53.125 
Q 64.75 56 71.09375 56 
Q 79.640625 56 84.28125 50.015625 
Q 88.921875 44.046875 88.921875 33.015625 
L 88.921875 0 
L 79.890625 0 
L 79.890625 32.71875 
Q 79.890625 40.578125 77.09375 44.375 
Q 74.3125 48.1875 68.609375 48.1875 
Q 61.625 48.1875 57.5625 43.546875 
Q 53.515625 38.921875 53.515625 30.90625 
L 53.515625 0 
L 44.484375 0 
L 44.484375 32.71875 
Q 44.484375 40.625 41.703125 44.40625 
Q 38.921875 48.1875 33.109375 48.1875 
Q 26.21875 48.1875 22.15625 43.53125 
Q 18.109375 38.875 18.109375 30.90625 
L 18.109375 0 
L 9.078125 0 
L 9.078125 54.6875 
L 18.109375 54.6875 
L 18.109375 46.1875 
Q 21.1875 51.21875 25.484375 53.609375 
Q 29.78125 56 35.6875 56 
Q 41.65625 56 45.828125 52.96875 
Q 50 49.953125 52 44.1875 
z
" id="DejaVuSans-109"/>
      <path d="M 56.203125 29.59375 
L 56.203125 25.203125 
L 14.890625 25.203125 
Q 15.484375 15.921875 20.484375 11.0625 
Q 25.484375 6.203125 34.421875 6.203125 
Q 39.59375 6.203125 44.453125 7.46875 
Q 49.3125 8.734375 54.109375 11.28125 
L 54.109375 2.78125 
Q 49.265625 0.734375 44.1875 -0.34375 
Q 39.109375 -1.421875 33.890625 -1.421875 
Q 20.796875 -1.421875 13.15625 6.1875 
Q 5.515625 13.8125 5.515625 26.8125 
Q 5.515625 40.234375 12.765625 48.109375 
Q 20.015625 56 32.328125 56 
Q 43.359375 56 49.78125 48.890625 
Q 56.203125 41.796875 56.203125 29.59375 
z
M 47.21875 32.234375 
Q 47.125 39.59375 43.09375 43.984375 
Q 39.0625 48.390625 32.421875 48.390625 
Q 24.90625 48.390625 20.390625 44.140625 
Q 15.875 39.890625 15.1875 32.171875 
z
" id="DejaVuSans-101"/>
     </defs>
     <g transform="translate(124.509102 179.927375)scale(0.1 -0.1)">
      <use xlink:href="#DejaVuSans-84"/>
      <use x="61.037109" xlink:href="#DejaVuSans-105"/>
      <use x="88.820312" xlink:href="#DejaVuSans-109"/>
      <use x="186.232422" xlink:href="#DejaVuSans-101"/>
     </g>
    </g>
   </g>
   <g id="matplotlib.axis_2">
    <g id="ytick_1">
     <g id="line2d_7">
      <defs>
       <path d="M 0 0 
L -3.5 0 
" id="mc8de9f9ff7" style="stroke:#000000;stroke-width:0.8;"/>
      </defs>
      <g>
       <use style="stroke:#000000;stroke-width:0.8;" x="42.620313" xlink:href="#mc8de9f9ff7" y="130.741799"/>
      </g>
     </g>
     <g id="text_8">
      <!-- −2 -->
      <defs>
       <path d="M 10.59375 35.5 
L 73.1875 35.5 
L 73.1875 27.203125 
L 10.59375 27.203125 
z
" id="DejaVuSans-8722"/>
      </defs>
      <g transform="translate(20.878125 134.541018)scale(0.1 -0.1)">
       <use xlink:href="#DejaVuSans-8722"/>
       <use x="83.789062" xlink:href="#DejaVuSans-50"/>
      </g>
     </g>
    </g>
    <g id="ytick_2">
     <g id="line2d_8">
      <g>
       <use style="stroke:#000000;stroke-width:0.8;" x="42.620313" xlink:href="#mc8de9f9ff7" y="101.089546"/>
      </g>
     </g>
     <g id="text_9">
      <!-- −1 -->
      <g transform="translate(20.878125 104.888765)scale(0.1 -0.1)">
       <use xlink:href="#DejaVuSans-8722"/>
       <use x="83.789062" xlink:href="#DejaVuSans-49"/>
      </g>
     </g>
    </g>
    <g id="ytick_3">
     <g id="line2d_9">
      <g>
       <use style="stroke:#000000;stroke-width:0.8;" x="42.620313" xlink:href="#mc8de9f9ff7" y="71.437293"/>
      </g>
     </g>
     <g id="text_10">
      <!-- 0 -->
      <g transform="translate(29.257813 75.236511)scale(0.1 -0.1)">
       <use xlink:href="#DejaVuSans-48"/>
      </g>
     </g>
    </g>
    <g id="ytick_4">
     <g id="line2d_10">
      <g>
       <use style="stroke:#000000;stroke-width:0.8;" x="42.620313" xlink:href="#mc8de9f9ff7" y="41.785039"/>
      </g>
     </g>
     <g id="text_11">
      <!-- 1 -->
      <g transform="translate(29.257813 45.584258)scale(0.1 -0.1)">
       <use xlink:href="#DejaVuSans-49"/>
      </g>
     </g>
    </g>
    <g id="text_12">
     <!-- Displacement from equilibrium -->
     <defs>
      <path d="M 19.671875 64.796875 
L 19.671875 8.109375 
L 31.59375 8.109375 
Q 46.6875 8.109375 53.6875 14.9375 
Q 60.6875 21.78125 60.6875 36.53125 
Q 60.6875 51.171875 53.6875 57.984375 
Q 46.6875 64.796875 31.59375 64.796875 
z
M 9.8125 72.90625 
L 30.078125 72.90625 
Q 51.265625 72.90625 61.171875 64.09375 
Q 71.09375 55.28125 71.09375 36.53125 
Q 71.09375 17.671875 61.125 8.828125 
Q 51.171875 0 30.078125 0 
L 9.8125 0 
z
" id="DejaVuSans-68"/>
      <path d="M 44.28125 53.078125 
L 44.28125 44.578125 
Q 40.484375 46.53125 36.375 47.5 
Q 32.28125 48.484375 27.875 48.484375 
Q 21.1875 48.484375 17.84375 46.4375 
Q 14.5 44.390625 14.5 40.28125 
Q 14.5 37.15625 16.890625 35.375 
Q 19.28125 33.59375 26.515625 31.984375 
L 29.59375 31.296875 
Q 39.15625 29.25 43.1875 25.515625 
Q 47.21875 21.78125 47.21875 15.09375 
Q 47.21875 7.46875 41.1875 3.015625 
Q 35.15625 -1.421875 24.609375 -1.421875 
Q 20.21875 -1.421875 15.453125 -0.5625 
Q 10.6875 0.296875 5.421875 2 
L 5.421875 11.28125 
Q 10.40625 8.6875 15.234375 7.390625 
Q 20.0625 6.109375 24.8125 6.109375 
Q 31.15625 6.109375 34.5625 8.28125 
Q 37.984375 10.453125 37.984375 14.40625 
Q 37.984375 18.0625 35.515625 20.015625 
Q 33.0625 21.96875 24.703125 23.78125 
L 21.578125 24.515625 
Q 13.234375 26.265625 9.515625 29.90625 
Q 5.8125 33.546875 5.8125 39.890625 
Q 5.8125 47.609375 11.28125 51.796875 
Q 16.75 56 26.8125 56 
Q 31.78125 56 36.171875 55.265625 
Q 40.578125 54.546875 44.28125 53.078125 
z
" id="DejaVuSans-115"/>
      <path d="M 18.109375 8.203125 
L 18.109375 -20.796875 
L 9.078125 -20.796875 
L 9.078125 54.6875 
L 18.109375 54.6875 
L 18.109375 46.390625 
Q 20.953125 51.265625 25.265625 53.625 
Q 29.59375 56 35.59375 56 
Q 45.5625 56 51.78125 48.09375 
Q 58.015625 40.1875 58.015625 27.296875 
Q 58.015625 14.40625 51.78125 6.484375 
Q 45.5625 -1.421875 35.59375 -1.421875 
Q 29.59375 -1.421875 25.265625 0.953125 
Q 20.953125 3.328125 18.109375 8.203125 
z
M 48.6875 27.296875 
Q 48.6875 37.203125 44.609375 42.84375 
Q 40.53125 48.484375 33.40625 48.484375 
Q 26.265625 48.484375 22.1875 42.84375 
Q 18.109375 37.203125 18.109375 27.296875 
Q 18.109375 17.390625 22.1875 11.75 
Q 26.265625 6.109375 33.40625 6.109375 
Q 40.53125 6.109375 44.609375 11.75 
Q 48.6875 17.390625 48.6875 27.296875 
z
" id="DejaVuSans-112"/>
      <path d="M 9.421875 75.984375 
L 18.40625 75.984375 
L 18.40625 0 
L 9.421875 0 
z
" id="DejaVuSans-108"/>
      <path d="M 34.28125 27.484375 
Q 23.390625 27.484375 19.1875 25 
Q 14.984375 22.515625 14.984375 16.5 
Q 14.984375 11.71875 18.140625 8.90625 
Q 21.296875 6.109375 26.703125 6.109375 
Q 34.1875 6.109375 38.703125 11.40625 
Q 43.21875 16.703125 43.21875 25.484375 
L 43.21875 27.484375 
z
M 52.203125 31.203125 
L 52.203125 0 
L 43.21875 0 
L 43.21875 8.296875 
Q 40.140625 3.328125 35.546875 0.953125 
Q 30.953125 -1.421875 24.3125 -1.421875 
Q 15.921875 -1.421875 10.953125 3.296875 
Q 6 8.015625 6 15.921875 
Q 6 25.140625 12.171875 29.828125 
Q 18.359375 34.515625 30.609375 34.515625 
L 43.21875 34.515625 
L 43.21875 35.40625 
Q 43.21875 41.609375 39.140625 45 
Q 35.0625 48.390625 27.6875 48.390625 
Q 23 48.390625 18.546875 47.265625 
Q 14.109375 46.140625 10.015625 43.890625 
L 10.015625 52.203125 
Q 14.9375 54.109375 19.578125 55.046875 
Q 24.21875 56 28.609375 56 
Q 40.484375 56 46.34375 49.84375 
Q 52.203125 43.703125 52.203125 31.203125 
z
" id="DejaVuSans-97"/>
      <path d="M 48.78125 52.59375 
L 48.78125 44.1875 
Q 44.96875 46.296875 41.140625 47.34375 
Q 37.3125 48.390625 33.40625 48.390625 
Q 24.65625 48.390625 19.8125 42.84375 
Q 14.984375 37.3125 14.984375 27.296875 
Q 14.984375 17.28125 19.8125 11.734375 
Q 24.65625 6.203125 33.40625 6.203125 
Q 37.3125 6.203125 41.140625 7.25 
Q 44.96875 8.296875 48.78125 10.40625 
L 48.78125 2.09375 
Q 45.015625 0.34375 40.984375 -0.53125 
Q 36.96875 -1.421875 32.421875 -1.421875 
Q 20.0625 -1.421875 12.78125 6.34375 
Q 5.515625 14.109375 5.515625 27.296875 
Q 5.515625 40.671875 12.859375 48.328125 
Q 20.21875 56 33.015625 56 
Q 37.15625 56 41.109375 55.140625 
Q 45.0625 54.296875 48.78125 52.59375 
z
" id="DejaVuSans-99"/>
      <path d="M 54.890625 33.015625 
L 54.890625 0 
L 45.90625 0 
L 45.90625 32.71875 
Q 45.90625 40.484375 42.875 44.328125 
Q 39.84375 48.1875 33.796875 48.1875 
Q 26.515625 48.1875 22.3125 43.546875 
Q 18.109375 38.921875 18.109375 30.90625 
L 18.109375 0 
L 9.078125 0 
L 9.078125 54.6875 
L 18.109375 54.6875 
L 18.109375 46.1875 
Q 21.34375 51.125 25.703125 53.5625 
Q 30.078125 56 35.796875 56 
Q 45.21875 56 50.046875 50.171875 
Q 54.890625 44.34375 54.890625 33.015625 
z
" id="DejaVuSans-110"/>
      <path d="M 18.3125 70.21875 
L 18.3125 54.6875 
L 36.8125 54.6875 
L 36.8125 47.703125 
L 18.3125 47.703125 
L 18.3125 18.015625 
Q 18.3125 11.328125 20.140625 9.421875 
Q 21.96875 7.515625 27.59375 7.515625 
L 36.8125 7.515625 
L 36.8125 0 
L 27.59375 0 
Q 17.1875 0 13.234375 3.875 
Q 9.28125 7.765625 9.28125 18.015625 
L 9.28125 47.703125 
L 2.6875 47.703125 
L 2.6875 54.6875 
L 9.28125 54.6875 
L 9.28125 70.21875 
z
" id="DejaVuSans-116"/>
      <path id="DejaVuSans-32"/>
      <path d="M 37.109375 75.984375 
L 37.109375 68.5 
L 28.515625 68.5 
Q 23.6875 68.5 21.796875 66.546875 
Q 19.921875 64.59375 19.921875 59.515625 
L 19.921875 54.6875 
L 34.71875 54.6875 
L 34.71875 47.703125 
L 19.921875 47.703125 
L 19.921875 0 
L 10.890625 0 
L 10.890625 47.703125 
L 2.296875 47.703125 
L 2.296875 54.6875 
L 10.890625 54.6875 
L 10.890625 58.5 
Q 10.890625 67.625 15.140625 71.796875 
Q 19.390625 75.984375 28.609375 75.984375 
z
" id="DejaVuSans-102"/>
      <path d="M 41.109375 46.296875 
Q 39.59375 47.171875 37.8125 47.578125 
Q 36.03125 48 33.890625 48 
Q 26.265625 48 22.1875 43.046875 
Q 18.109375 38.09375 18.109375 28.8125 
L 18.109375 0 
L 9.078125 0 
L 9.078125 54.6875 
L 18.109375 54.6875 
L 18.109375 46.1875 
Q 20.953125 51.171875 25.484375 53.578125 
Q 30.03125 56 36.53125 56 
Q 37.453125 56 38.578125 55.875 
Q 39.703125 55.765625 41.0625 55.515625 
z
" id="DejaVuSans-114"/>
      <path d="M 30.609375 48.390625 
Q 23.390625 48.390625 19.1875 42.75 
Q 14.984375 37.109375 14.984375 27.296875 
Q 14.984375 17.484375 19.15625 11.84375 
Q 23.34375 6.203125 30.609375 6.203125 
Q 37.796875 6.203125 41.984375 11.859375 
Q 46.1875 17.53125 46.1875 27.296875 
Q 46.1875 37.015625 41.984375 42.703125 
Q 37.796875 48.390625 30.609375 48.390625 
z
M 30.609375 56 
Q 42.328125 56 49.015625 48.375 
Q 55.71875 40.765625 55.71875 27.296875 
Q 55.71875 13.875 49.015625 6.21875 
Q 42.328125 -1.421875 30.609375 -1.421875 
Q 18.84375 -1.421875 12.171875 6.21875 
Q 5.515625 13.875 5.515625 27.296875 
Q 5.515625 40.765625 12.171875 48.375 
Q 18.84375 56 30.609375 56 
z
" id="DejaVuSans-111"/>
      <path d="M 14.796875 27.296875 
Q 14.796875 17.390625 18.875 11.75 
Q 22.953125 6.109375 30.078125 6.109375 
Q 37.203125 6.109375 41.296875 11.75 
Q 45.40625 17.390625 45.40625 27.296875 
Q 45.40625 37.203125 41.296875 42.84375 
Q 37.203125 48.484375 30.078125 48.484375 
Q 22.953125 48.484375 18.875 42.84375 
Q 14.796875 37.203125 14.796875 27.296875 
z
M 45.40625 8.203125 
Q 42.578125 3.328125 38.25 0.953125 
Q 33.9375 -1.421875 27.875 -1.421875 
Q 17.96875 -1.421875 11.734375 6.484375 
Q 5.515625 14.40625 5.515625 27.296875 
Q 5.515625 40.1875 11.734375 48.09375 
Q 17.96875 56 27.875 56 
Q 33.9375 56 38.25 53.625 
Q 42.578125 51.265625 45.40625 46.390625 
L 45.40625 54.6875 
L 54.390625 54.6875 
L 54.390625 -20.796875 
L 45.40625 -20.796875 
z
" id="DejaVuSans-113"/>
      <path d="M 8.5 21.578125 
L 8.5 54.6875 
L 17.484375 54.6875 
L 17.484375 21.921875 
Q 17.484375 14.15625 20.5 10.265625 
Q 23.53125 6.390625 29.59375 6.390625 
Q 36.859375 6.390625 41.078125 11.03125 
Q 45.3125 15.671875 45.3125 23.6875 
L 45.3125 54.6875 
L 54.296875 54.6875 
L 54.296875 0 
L 45.3125 0 
L 45.3125 8.40625 
Q 42.046875 3.421875 37.71875 1 
Q 33.40625 -1.421875 27.6875 -1.421875 
Q 18.265625 -1.421875 13.375 4.4375 
Q 8.5 10.296875 8.5 21.578125 
z
M 31.109375 56 
z
" id="DejaVuSans-117"/>
      <path d="M 48.6875 27.296875 
Q 48.6875 37.203125 44.609375 42.84375 
Q 40.53125 48.484375 33.40625 48.484375 
Q 26.265625 48.484375 22.1875 42.84375 
Q 18.109375 37.203125 18.109375 27.296875 
Q 18.109375 17.390625 22.1875 11.75 
Q 26.265625 6.109375 33.40625 6.109375 
Q 40.53125 6.109375 44.609375 11.75 
Q 48.6875 17.390625 48.6875 27.296875 
z
M 18.109375 46.390625 
Q 20.953125 51.265625 25.265625 53.625 
Q 29.59375 56 35.59375 56 
Q 45.5625 56 51.78125 48.09375 
Q 58.015625 40.1875 58.015625 27.296875 
Q 58.015625 14.40625 51.78125 6.484375 
Q 45.5625 -1.421875 35.59375 -1.421875 
Q 29.59375 -1.421875 25.265625 0.953125 
Q 20.953125 3.328125 18.109375 8.203125 
L 18.109375 0 
L 9.078125 0 
L 9.078125 75.984375 
L 18.109375 75.984375 
z
" id="DejaVuSans-98"/>
     </defs>
     <g transform="translate(14.798438 162.278125)rotate(-90)scale(0.1 -0.1)">
      <use xlink:href="#DejaVuSans-68"/>
      <use x="77.001953" xlink:href="#DejaVuSans-105"/>
      <use x="104.785156" xlink:href="#DejaVuSans-115"/>
      <use x="156.884766" xlink:href="#DejaVuSans-112"/>
      <use x="220.361328" xlink:href="#DejaVuSans-108"/>
      <use x="248.144531" xlink:href="#DejaVuSans-97"/>
      <use x="309.423828" xlink:href="#DejaVuSans-99"/>
      <use x="364.404297" xlink:href="#DejaVuSans-101"/>
      <use x="425.927734" xlink:href="#DejaVuSans-109"/>
      <use x="523.339844" xlink:href="#DejaVuSans-101"/>
      <use x="584.863281" xlink:href="#DejaVuSans-110"/>
      <use x="648.242188" xlink:href="#DejaVuSans-116"/>
      <use x="687.451172" xlink:href="#DejaVuSans-32"/>
      <use x="719.238281" xlink:href="#DejaVuSans-102"/>
      <use x="754.443359" xlink:href="#DejaVuSans-114"/>
      <use x="795.525391" xlink:href="#DejaVuSans-111"/>
      <use x="856.707031" xlink:href="#DejaVuSans-109"/>
      <use x="954.119141" xlink:href="#DejaVuSans-32"/>
      <use x="985.90625" xlink:href="#DejaVuSans-101"/>
      <use x="1047.429688" xlink:href="#DejaVuSans-113"/>
      <use x="1110.90625" xlink:href="#DejaVuSans-117"/>
      <use x="1174.285156" xlink:href="#DejaVuSans-105"/>
      <use x="1202.068359" xlink:href="#DejaVuSans-108"/>
      <use x="1229.851562" xlink:href="#DejaVuSans-105"/>
      <use x="1257.634766" xlink:href="#DejaVuSans-98"/>
      <use x="1321.111328" xlink:href="#DejaVuSans-114"/>
      <use x="1362.224609" xlink:href="#DejaVuSans-105"/>
      <use x="1390.007812" xlink:href="#DejaVuSans-117"/>
      <use x="1453.386719" xlink:href="#DejaVuSans-109"/>
     </g>
    </g>
   </g>
   <g id="line2d_11">
    <path clip-path="url(#p2e15082495)" d="M 51.190884 41.785039 
L 52.887498 42.672597 
L 54.584113 45.194755 
L 56.280727 49.081649 
L 57.977341 54.002689 
L 59.673955 59.59059 
L 61.370569 65.465793 
L 63.067184 71.259804 
L 64.763798 76.636157 
L 66.460412 81.307936 
L 68.157026 85.051073 
L 69.85364 87.712945 
L 71.550254 89.216118 
L 73.246869 89.557366 
L 74.943483 88.802379 
L 76.640097 87.076789 
L 78.336711 84.554313 
L 80.033325 81.442931 
L 81.72994 77.970064 
L 83.426554 74.367694 
L 85.123168 70.858315 
L 86.819782 67.642483 
L 88.516396 64.888584 
L 90.21301 62.725257 
L 91.909625 61.236728 
L 93.606239 60.461117 
L 95.302853 60.391584 
L 96.999467 60.980066 
L 98.696081 62.143154 
L 100.392695 63.769641 
L 102.08931 65.729149 
L 103.785924 67.881248 
L 105.482538 70.084504 
L 107.179152 72.20491 
L 108.875766 74.123257 
L 110.572381 75.741088 
L 112.268995 76.984988 
L 113.965609 77.809063 
L 115.662223 78.195628 
L 117.358837 78.154166 
L 119.055451 77.718755 
L 120.752066 76.944242 
L 122.44868 75.901464 
L 124.145294 74.67188 
L 125.841908 73.34197 
L 127.538522 71.997755 
L 129.235137 70.719743 
L 130.931751 69.578582 
L 132.628365 68.63161 
L 134.324979 67.920448 
L 136.021593 67.469707 
L 137.718207 67.286785 
L 139.414822 67.362702 
L 141.111436 67.673845 
L 142.80805 68.184442 
L 144.504664 68.849573 
L 146.201278 69.618505 
L 147.897893 70.43812 
L 149.594507 71.256228 
L 151.291121 72.024583 
L 152.987735 72.701448 
L 154.684349 73.253576 
L 156.380963 73.65755 
L 158.077578 73.90044 
L 159.774192 73.979794 
L 161.470806 73.903004 
L 163.16742 73.686149 
L 164.864034 73.352396 
L 166.560648 72.93011 
L 168.257263 72.450793 
L 169.953877 71.946991 
L 171.650491 71.450291 
L 173.347105 70.989526 
L 175.043719 70.589275 
L 176.740334 70.268725 
L 178.436948 70.040932 
L 180.133562 69.912505 
L 181.830176 69.883694 
L 183.52679 69.94884 
L 185.223404 70.09715 
L 186.920019 70.313712 
L 188.616633 70.580682 
L 190.313247 70.878556 
L 192.009861 71.187443 
L 193.706475 71.488273 
L 195.40309 71.76386 
L 197.099704 71.99978 
L 198.796318 72.18502 
L 200.492932 72.312376 
L 202.189546 72.378598 
L 203.88616 72.384289 
L 205.582775 72.333585 
L 207.279389 72.233651 
L 208.976003 72.094032 
L 210.672617 71.925912 
L 212.369231 71.741335 
L 214.065845 71.552426 
L 215.76246 71.370672 
L 217.459074 71.206286 
L 219.155688 71.067701 
" style="fill:none;stroke:#0000ff;stroke-linecap:square;stroke-width:1.5;"/>
   </g>
   <g id="line2d_12">
    <path clip-path="url(#p2e15082495)" d="M 51.190884 145.567926 
L 52.887498 137.641965 
L 54.584113 126.388553 
L 56.280727 112.718723 
L 57.977341 97.619017 
L 59.673955 82.087587 
L 61.370569 67.07435 
L 63.067184 53.428394 
L 64.763798 41.855254 
L 66.460412 32.885808 
L 68.157026 26.857811 
L 69.85364 23.910199 
L 71.550254 23.989571 
L 73.246869 26.867557 
L 74.943483 32.167244 
L 76.640097 39.396434 
L 78.336711 47.985253 
L 80.033325 57.325574 
L 81.72994 66.809789 
L 83.426554 75.866684 
L 85.123168 83.992513 
L 86.819782 90.775786 
L 88.516396 95.914775 
L 90.21301 99.227234 
L 91.909625 100.652347 
L 93.606239 100.245345 
L 95.302853 98.16567 
L 96.999467 94.659846 
L 98.696081 90.040476 
L 100.392695 84.662882 
L 102.08931 78.900944 
L 103.785924 73.123632 
L 105.482538 67.673561 
L 107.179152 62.848685 
L 108.875766 58.887988 
L 110.572381 55.961715 
L 112.268995 54.166389 
L 113.965609 53.524555 
L 115.662223 53.988912 
L 117.358837 55.450272 
L 119.055451 57.748585 
L 120.752066 60.686159 
L 122.44868 64.042124 
L 124.145294 67.587205 
L 125.841908 71.097888 
L 127.538522 74.36921 
L 129.235137 77.225502 
L 130.931751 79.528606 
L 132.628365 81.183271 
L 134.324979 82.139612 
L 136.021593 82.392705 
L 137.718207 81.979558 
L 139.414822 80.973821 
L 141.111436 79.478731 
L 142.80805 77.618817 
L 144.504664 75.530972 
L 146.201278 73.355445 
L 147.897893 71.227302 
L 149.594507 69.268831 
L 151.291121 67.583251 
L 152.987735 66.250027 
L 154.684349 65.321924 
L 156.380963 64.823863 
L 158.077578 64.753503 
L 159.774192 65.0834 
L 161.470806 65.764477 
L 163.16742 66.730527 
L 164.864034 67.903392 
L 166.560648 69.198465 
L 168.257263 70.530169 
L 169.953877 71.817084 
L 171.650491 72.986454 
L 173.347105 73.977847 
L 175.043719 74.745818 
L 176.740334 75.261483 
L 178.436948 75.513008 
L 180.133562 75.505044 
L 181.830176 75.257238 
L 183.52679 74.801958 
L 185.223404 74.181448 
L 186.920019 73.444592 
L 188.616633 72.643541 
L 190.313247 71.830386 
L 192.009861 71.054085 
L 193.706475 70.357799 
L 195.40309 69.776771 
L 197.099704 69.336825 
L 198.796318 69.053541 
L 200.492932 68.932086 
L 202.189546 68.96768 
L 203.88616 69.146615 
L 205.582775 69.447722 
L 207.279389 69.844176 
L 208.976003 70.305497 
L 210.672617 70.799626 
L 212.369231 71.294932 
L 214.065845 71.762051 
L 215.76246 72.175457 
L 217.459074 72.514684 
L 219.155688 72.765163 
" style="fill:none;stroke:#8080ff;stroke-linecap:square;stroke-width:1.5;"/>
   </g>
   <g id="line2d_13">
    <path clip-path="url(#p2e15082495)" d="M 51.190884 80.332969 
L 52.887498 91.480834 
L 54.584113 100.62022 
L 56.280727 107.359345 
L 57.977341 111.477247 
L 59.673955 112.924227 
L 61.370569 111.812126 
L 63.067184 108.39578 
L 64.763798 103.047391 
L 66.460412 96.225852 
L 68.157026 88.44322 
L 69.85364 80.230522 
L 71.550254 72.104962 
L 73.246869 64.540378 
L 74.943483 57.942432 
L 76.640097 52.629678 
L 78.336711 48.821166 
L 80.033325 46.63085 
L 81.72994 46.068614 
L 83.426554 47.047384 
L 85.123168 49.395434 
L 86.819782 52.872797 
L 88.516396 57.190487 
L 90.21301 62.031203 
L 91.909625 67.070177 
L 93.606239 71.994922 
L 95.302853 76.522793 
L 96.999467 80.415489 
L 98.696081 83.489864 
L 100.392695 85.624669 
L 102.08931 86.763154 
L 103.785924 86.911649 
L 105.482538 86.134533 
L 107.179152 84.546137 
L 108.875766 82.300294 
L 110.572381 79.578332 
L 112.268995 76.576319 
L 113.965609 73.492389 
L 115.662223 70.514876 
L 117.358837 67.811907 
L 119.055451 65.522959 
L 120.752066 63.75273 
L 122.44868 62.567521 
L 124.145294 61.994156 
L 125.841908 62.021312 
L 127.538522 62.60301 
L 129.235137 63.663888 
L 130.931751 65.105833 
L 132.628365 66.815458 
L 134.324979 68.671931 
L 136.021593 70.554671 
L 137.718207 72.350455 
L 139.414822 73.959566 
L 141.111436 75.300688 
L 142.80805 76.314355 
L 144.504664 76.96485 
L 146.201278 77.240561 
L 147.897893 77.152887 
L 149.594507 76.733861 
L 151.291121 76.032736 
L 152.987735 75.111799 
L 154.684349 74.041728 
L 156.380963 72.896789 
L 158.077578 71.75019 
L 159.774192 70.669824 
L 161.470806 69.714654 
L 163.16742 68.931887 
L 164.864034 68.355048 
L 166.560648 68.003016 
L 168.257263 67.879986 
L 169.953877 67.976309 
L 171.650491 68.27008 
L 173.347105 68.729348 
L 175.043719 69.314735 
L 176.740334 69.982322 
L 178.436948 70.686577 
L 180.133562 71.383163 
L 181.830176 72.031474 
L 183.52679 72.596758 
L 185.223404 73.051739 
L 186.920019 73.377674 
L 188.616633 73.564834 
L 190.313247 73.612412 
L 192.009861 73.527911 
L 193.706475 73.326084 
L 195.40309 73.02753 
L 197.099704 72.657045 
L 198.796318 72.241841 
L 200.492932 71.809765 
L 202.189546 71.387601 
L 203.88616 70.99957 
L 205.582775 70.666085 
L 207.279389 70.402826 
L 208.976003 70.220165 
L 210.672617 70.122942 
L 212.369231 70.11059 
L 214.065845 70.177568 
L 215.76246 70.314055 
L 217.459074 70.506847 
L 219.155688 70.740388 
" style="fill:none;stroke:#404080;stroke-linecap:square;stroke-width:1.5;"/>
   </g>
   <g id="patch_3">
    <path d="M 42.620313 151.650812 
L 42.620313 17.827312 
" style="fill:none;stroke:#000000;stroke-linecap:square;stroke-linejoin:miter;stroke-width:0.8;"/>
   </g>
   <g id="patch_4">
    <path d="M 231.172892 151.650812 
L 231.172892 17.827312 
" style="fill:none;stroke:#000000;stroke-linecap:square;stroke-linejoin:miter;stroke-width:0.8;"/>
   </g>
   <g id="patch_5">
    <path d="M 42.620313 151.650812 
L 231.172892 151.650812 
" style="fill:none;stroke:#000000;stroke-linecap:square;stroke-linejoin:miter;stroke-width:0.8;"/>
   </g>
   <g id="patch_6">
    <path d="M 42.620313 17.827312 
L 231.172892 17.827312 
" style="fill:none;stroke:#000000;stroke-linecap:square;stroke-linejoin:miter;stroke-width:0.8;"/>
   </g>
  </g>
  <g id="axes_2">
   <g id="patch_7">
    <path d="M 279.397892 151.650812 
L 467.950472 151.650812 
L 467.950472 17.827312 
L 279.397892 17.827312 
z
" style="fill:#ffffff;"/>
   </g>
   <g id="matplotlib.axis_3">
    <g id="xtick_7">
     <g id="line2d_14">
      <g>
       <use style="stroke:#000000;stroke-width:0.8;" x="279.397892" xlink:href="#mbeefd536e7" y="151.650812"/>
      </g>
     </g>
     <g id="text_13">
      <!-- 0 -->
      <g transform="translate(276.216642 166.24925)scale(0.1 -0.1)">
       <use xlink:href="#DejaVuSans-48"/>
      </g>
     </g>
    </g>
    <g id="xtick_8">
     <g id="line2d_15">
      <g>
       <use style="stroke:#000000;stroke-width:0.8;" x="310.823322" xlink:href="#mbeefd536e7" y="151.650812"/>
      </g>
     </g>
     <g id="text_14">
      <!-- 5 -->
      <defs>
       <path d="M 10.796875 72.90625 
L 49.515625 72.90625 
L 49.515625 64.59375 
L 19.828125 64.59375 
L 19.828125 46.734375 
Q 21.96875 47.46875 24.109375 47.828125 
Q 26.265625 48.1875 28.421875 48.1875 
Q 40.625 48.1875 47.75 41.5 
Q 54.890625 34.8125 54.890625 23.390625 
Q 54.890625 11.625 47.5625 5.09375 
Q 40.234375 -1.421875 26.90625 -1.421875 
Q 22.3125 -1.421875 17.546875 -0.640625 
Q 12.796875 0.140625 7.71875 1.703125 
L 7.71875 11.625 
Q 12.109375 9.234375 16.796875 8.0625 
Q 21.484375 6.890625 26.703125 6.890625 
Q 35.15625 6.890625 40.078125 11.328125 
Q 45.015625 15.765625 45.015625 23.390625 
Q 45.015625 31 40.078125 35.4375 
Q 35.15625 39.890625 26.703125 39.890625 
Q 22.75 39.890625 18.8125 39.015625 
Q 14.890625 38.140625 10.796875 36.28125 
z
" id="DejaVuSans-53"/>
      </defs>
      <g transform="translate(307.642072 166.24925)scale(0.1 -0.1)">
       <use xlink:href="#DejaVuSans-53"/>
      </g>
     </g>
    </g>
    <g id="xtick_9">
     <g id="line2d_16">
      <g>
       <use style="stroke:#000000;stroke-width:0.8;" x="342.248752" xlink:href="#mbeefd536e7" y="151.650812"/>
      </g>
     </g>
     <g id="text_15">
      <!-- 10 -->
      <g transform="translate(335.886252 166.24925)scale(0.1 -0.1)">
       <use xlink:href="#DejaVuSans-49"/>
       <use x="63.623047" xlink:href="#DejaVuSans-48"/>
      </g>
     </g>
    </g>
    <g id="xtick_10">
     <g id="line2d_17">
      <g>
       <use style="stroke:#000000;stroke-width:0.8;" x="373.674182" xlink:href="#mbeefd536e7" y="151.650812"/>
      </g>
     </g>
     <g id="text_16">
      <!-- 15 -->
      <g transform="translate(367.311682 166.24925)scale(0.1 -0.1)">
       <use xlink:href="#DejaVuSans-49"/>
       <use x="63.623047" xlink:href="#DejaVuSans-53"/>
      </g>
     </g>
    </g>
    <g id="xtick_11">
     <g id="line2d_18">
      <g>
       <use style="stroke:#000000;stroke-width:0.8;" x="405.099612" xlink:href="#mbeefd536e7" y="151.650812"/>
      </g>
     </g>
     <g id="text_17">
      <!-- 20 -->
      <g transform="translate(398.737112 166.24925)scale(0.1 -0.1)">
       <use xlink:href="#DejaVuSans-50"/>
       <use x="63.623047" xlink:href="#DejaVuSans-48"/>
      </g>
     </g>
    </g>
    <g id="xtick_12">
     <g id="line2d_19">
      <g>
       <use style="stroke:#000000;stroke-width:0.8;" x="436.525042" xlink:href="#mbeefd536e7" y="151.650812"/>
      </g>
     </g>
     <g id="text_18">
      <!-- 25 -->
      <g transform="translate(430.162542 166.24925)scale(0.1 -0.1)">
       <use xlink:href="#DejaVuSans-50"/>
       <use x="63.623047" xlink:href="#DejaVuSans-53"/>
      </g>
     </g>
    </g>
    <g id="xtick_13">
     <g id="line2d_20">
      <g>
       <use style="stroke:#000000;stroke-width:0.8;" x="467.950472" xlink:href="#mbeefd536e7" y="151.650812"/>
      </g>
     </g>
     <g id="text_19">
      <!-- 30 -->
      <defs>
       <path d="M 40.578125 39.3125 
Q 47.65625 37.796875 51.625 33 
Q 55.609375 28.21875 55.609375 21.1875 
Q 55.609375 10.40625 48.1875 4.484375 
Q 40.765625 -1.421875 27.09375 -1.421875 
Q 22.515625 -1.421875 17.65625 -0.515625 
Q 12.796875 0.390625 7.625 2.203125 
L 7.625 11.71875 
Q 11.71875 9.328125 16.59375 8.109375 
Q 21.484375 6.890625 26.8125 6.890625 
Q 36.078125 6.890625 40.9375 10.546875 
Q 45.796875 14.203125 45.796875 21.1875 
Q 45.796875 27.640625 41.28125 31.265625 
Q 36.765625 34.90625 28.71875 34.90625 
L 20.21875 34.90625 
L 20.21875 43.015625 
L 29.109375 43.015625 
Q 36.375 43.015625 40.234375 45.921875 
Q 44.09375 48.828125 44.09375 54.296875 
Q 44.09375 59.90625 40.109375 62.90625 
Q 36.140625 65.921875 28.71875 65.921875 
Q 24.65625 65.921875 20.015625 65.03125 
Q 15.375 64.15625 9.8125 62.3125 
L 9.8125 71.09375 
Q 15.4375 72.65625 20.34375 73.4375 
Q 25.25 74.21875 29.59375 74.21875 
Q 40.828125 74.21875 47.359375 69.109375 
Q 53.90625 64.015625 53.90625 55.328125 
Q 53.90625 49.265625 50.4375 45.09375 
Q 46.96875 40.921875 40.578125 39.3125 
z
" id="DejaVuSans-51"/>
      </defs>
      <g transform="translate(461.587972 166.24925)scale(0.1 -0.1)">
       <use xlink:href="#DejaVuSans-51"/>
       <use x="63.623047" xlink:href="#DejaVuSans-48"/>
      </g>
     </g>
    </g>
    <g id="text_20">
     <!-- Iteration -->
     <defs>
      <path d="M 9.8125 72.90625 
L 19.671875 72.90625 
L 19.671875 0 
L 9.8125 0 
z
" id="DejaVuSans-73"/>
     </defs>
     <g transform="translate(352.465589 179.927375)scale(0.1 -0.1)">
      <use xlink:href="#DejaVuSans-73"/>
      <use x="29.492188" xlink:href="#DejaVuSans-116"/>
      <use x="68.701172" xlink:href="#DejaVuSans-101"/>
      <use x="130.224609" xlink:href="#DejaVuSans-114"/>
      <use x="171.337891" xlink:href="#DejaVuSans-97"/>
      <use x="232.617188" xlink:href="#DejaVuSans-116"/>
      <use x="271.826172" xlink:href="#DejaVuSans-105"/>
      <use x="299.609375" xlink:href="#DejaVuSans-111"/>
      <use x="360.791016" xlink:href="#DejaVuSans-110"/>
     </g>
    </g>
   </g>
   <g id="matplotlib.axis_4">
    <g id="ytick_5">
     <g id="line2d_21">
      <g>
       <use style="stroke:#000000;stroke-width:0.8;" x="279.397892" xlink:href="#mc8de9f9ff7" y="151.650812"/>
      </g>
     </g>
     <g id="text_21">
      <!-- 0 -->
      <g transform="translate(266.035392 155.450031)scale(0.1 -0.1)">
       <use xlink:href="#DejaVuSans-48"/>
      </g>
     </g>
    </g>
    <g id="ytick_6">
     <g id="line2d_22">
      <g>
       <use style="stroke:#000000;stroke-width:0.8;" x="279.397892" xlink:href="#mc8de9f9ff7" y="118.194937"/>
      </g>
     </g>
     <g id="text_22">
      <!-- 5 -->
      <g transform="translate(266.035392 121.994156)scale(0.1 -0.1)">
       <use xlink:href="#DejaVuSans-53"/>
      </g>
     </g>
    </g>
    <g id="ytick_7">
     <g id="line2d_23">
      <g>
       <use style="stroke:#000000;stroke-width:0.8;" x="279.397892" xlink:href="#mc8de9f9ff7" y="84.739062"/>
      </g>
     </g>
     <g id="text_23">
      <!-- 10 -->
      <g transform="translate(259.672892 88.538281)scale(0.1 -0.1)">
       <use xlink:href="#DejaVuSans-49"/>
       <use x="63.623047" xlink:href="#DejaVuSans-48"/>
      </g>
     </g>
    </g>
    <g id="ytick_8">
     <g id="line2d_24">
      <g>
       <use style="stroke:#000000;stroke-width:0.8;" x="279.397892" xlink:href="#mc8de9f9ff7" y="51.283187"/>
      </g>
     </g>
     <g id="text_24">
      <!-- 15 -->
      <g transform="translate(259.672892 55.082406)scale(0.1 -0.1)">
       <use xlink:href="#DejaVuSans-49"/>
       <use x="63.623047" xlink:href="#DejaVuSans-53"/>
      </g>
     </g>
    </g>
    <g id="ytick_9">
     <g id="line2d_25">
      <g>
       <use style="stroke:#000000;stroke-width:0.8;" x="279.397892" xlink:href="#mc8de9f9ff7" y="17.827312"/>
      </g>
     </g>
     <g id="text_25">
      <!-- 20 -->
      <g transform="translate(259.672892 21.626531)scale(0.1 -0.1)">
       <use xlink:href="#DejaVuSans-50"/>
       <use x="63.623047" xlink:href="#DejaVuSans-48"/>
      </g>
     </g>
    </g>
    <g id="text_26">
     <!-- Err -->
     <defs>
      <path d="M 9.8125 72.90625 
L 55.90625 72.90625 
L 55.90625 64.59375 
L 19.671875 64.59375 
L 19.671875 43.015625 
L 54.390625 43.015625 
L 54.390625 34.71875 
L 19.671875 34.71875 
L 19.671875 8.296875 
L 56.78125 8.296875 
L 56.78125 0 
L 9.8125 0 
z
" id="DejaVuSans-69"/>
     </defs>
     <g transform="translate(253.593205 92.008594)rotate(-90)scale(0.1 -0.1)">
      <use xlink:href="#DejaVuSans-69"/>
      <use x="63.183594" xlink:href="#DejaVuSans-114"/>
      <use x="104.28125" xlink:href="#DejaVuSans-114"/>
     </g>
    </g>
   </g>
   <g id="line2d_26">
    <path clip-path="url(#paa121db58e)" d="M 285.275569 -1 
L 285.682978 79.04959 
L 288.04076 -1 
M 295.359054 -1 
L 298.25315 112.798575 
L 304.538236 129.026725 
L 310.823322 66.43141 
L 317.108408 135.29955 
L 323.393494 135.423688 
L 329.67858 135.522367 
L 335.963666 135.811495 
L 342.248752 136.535404 
L 348.533838 137.918248 
L 354.818924 140.425506 
L 361.10401 142.771422 
L 367.389096 146.223937 
L 373.674182 143.229624 
L 379.959268 148.017794 
L 386.244354 148.104297 
L 392.52944 148.106903 
L 398.814526 148.107225 
L 405.099612 148.107225 
L 411.384698 148.107225 
L 417.669784 148.107225 
L 423.95487 148.107225 
L 430.239956 148.107225 
L 436.525042 148.107225 
L 442.810128 148.107225 
L 449.095214 148.107225 
L 455.3803 148.107225 
L 461.665386 148.107225 
L 467.950472 148.107225 
L 474.235558 148.107225 
L 480.520644 148.107225 
L 486.80573 148.107225 
L 493.090816 148.107225 
L 499.375902 148.107225 
L 505.660988 148.107225 
L 511.946074 148.107225 
L 518.23116 148.107225 
L 524.516246 148.107225 
L 530.801332 148.107225 
L 537.086418 148.107225 
L 543.371504 148.107225 
L 549.65659 148.107225 
L 555.941676 148.107225 
L 562.226762 148.107225 
L 568.511848 148.107225 
L 574.796934 148.107225 
L 581.08202 148.107225 
L 587.367106 148.107225 
L 593.652192 148.107225 
L 599.937278 148.107225 
L 606.222364 148.107225 
L 612.50745 148.107225 
L 618.792536 148.107225 
L 625.077622 148.107225 
L 631.362708 148.107225 
L 637.647794 148.107225 
L 643.93288 148.107225 
L 650.217966 148.107225 
L 656.503052 148.107225 
L 662.788138 148.107225 
L 669.073224 148.107225 
L 675.35831 148.107225 
L 681.643396 148.107225 
L 687.928482 148.107225 
L 694.213568 148.107225 
L 700.498654 148.107225 
L 706.78374 148.107225 
L 712.928052 148.107225 
" style="fill:none;stroke:#1f77b4;stroke-linecap:square;stroke-width:1.5;"/>
   </g>
   <g id="line2d_27">
    <path clip-path="url(#paa121db58e)" d="M 284.375916 -1 
L 285.682978 70.040248 
L 291.968064 84.632407 
L 298.25315 101.23309 
L 304.538236 124.643532 
L 310.823322 111.444448 
L 317.108408 119.882837 
L 323.393494 124.787071 
L 329.67858 124.960239 
L 335.963666 125.662663 
L 342.248752 128.597653 
L 348.533838 130.716203 
L 354.818924 131.496429 
L 361.10401 135.055915 
L 361.104397 -1 
M 373.673816 -1 
L 373.674182 127.938797 
L 379.959268 136.853327 
L 386.244354 140.353383 
L 392.52944 144.369812 
L 398.814526 148.045979 
L 405.099612 148.094442 
L 411.384698 148.106842 
L 417.669784 148.107226 
L 423.95487 148.107225 
L 430.239956 148.107226 
L 436.525042 148.107226 
L 442.810128 148.107226 
L 449.095214 148.107226 
L 455.3803 148.107226 
L 461.665386 148.107226 
L 467.950472 148.107226 
L 474.235558 148.107226 
L 480.520644 148.107226 
L 486.80573 148.107226 
L 493.090816 148.107226 
L 499.375902 148.107226 
L 505.660988 148.107226 
L 511.946074 148.107226 
L 518.23116 148.107226 
L 524.516246 148.107226 
L 530.801332 148.107226 
L 537.086418 148.107226 
L 543.371504 148.107226 
L 549.65659 148.107226 
L 555.941676 148.107226 
L 562.226762 148.107226 
L 568.511848 148.107226 
L 574.796934 148.107226 
L 581.08202 148.107226 
L 587.367106 148.107226 
L 593.652192 148.107226 
L 599.937278 148.107226 
L 606.222364 148.107226 
L 612.50745 148.107226 
L 618.792536 148.107226 
L 625.077622 148.107226 
L 631.362708 148.107226 
L 637.647794 148.107226 
L 643.93288 148.107226 
L 650.217966 148.107226 
L 656.503052 148.107226 
L 662.788138 148.107226 
L 669.073224 148.107226 
L 675.35831 148.107226 
L 681.643396 148.107226 
L 687.928482 148.107226 
L 694.213568 148.107226 
L 700.498654 148.107226 
L 706.78374 148.107226 
L 712.928052 148.107226 
" style="fill:none;stroke:#ff7f0e;stroke-linecap:square;stroke-width:1.5;"/>
   </g>
   <g id="line2d_28">
    <path clip-path="url(#paa121db58e)" d="M 279.397892 13.208864 
L 285.682978 95.625125 
L 291.968064 109.132368 
L 298.25315 103.411302 
L 304.538236 109.336429 
L 310.823322 109.383132 
L 317.108408 109.475203 
L 323.393494 109.779989 
L 329.67858 110.302377 
L 335.963666 111.10467 
L 342.248752 111.601941 
L 348.533838 111.732735 
L 354.818924 112.110895 
L 361.10401 112.173805 
L 367.389096 112.189435 
L 373.674182 112.189615 
L 379.959268 112.189618 
L 386.244354 112.189618 
L 392.52944 112.189618 
L 398.814526 112.189618 
L 405.099612 112.189618 
L 411.384698 112.189618 
L 417.669784 112.189618 
L 423.95487 112.189618 
L 430.239956 112.189618 
L 436.525042 112.189618 
L 442.810128 112.189618 
L 449.095214 112.189618 
L 455.3803 112.189618 
L 461.665386 112.189618 
L 467.950472 112.189618 
L 474.235558 112.189618 
L 480.520644 112.189618 
L 486.80573 112.189618 
L 493.090816 112.189618 
L 499.375902 112.189618 
L 505.660988 112.189618 
L 511.946074 112.189618 
L 518.23116 112.189618 
L 524.516246 112.189618 
L 530.801332 112.189618 
L 537.086418 112.189618 
L 543.371504 112.189618 
L 549.65659 112.189618 
L 555.941676 112.189618 
L 562.226762 112.189618 
L 568.511848 112.189618 
L 574.796934 112.189618 
L 581.08202 112.189618 
L 587.367106 112.189618 
L 593.652192 112.189618 
L 599.937278 112.189618 
L 606.222364 112.189618 
L 612.50745 112.189618 
L 618.792536 112.189618 
L 625.077622 112.189618 
L 631.362708 112.189618 
L 637.647794 112.189618 
L 643.93288 112.189618 
L 650.217966 112.189618 
L 656.503052 112.189618 
L 662.788138 112.189618 
L 669.073224 112.189618 
L 675.35831 112.189618 
L 681.643396 112.189618 
L 687.928482 112.189618 
L 694.213568 112.189618 
L 700.498654 112.189618 
L 706.78374 112.189618 
L 712.928052 112.189618 
" style="fill:none;stroke:#2ca02c;stroke-linecap:square;stroke-width:1.5;"/>
   </g>
   <g id="patch_8">
    <path d="M 279.397892 151.650812 
L 279.397892 17.827312 
" style="fill:none;stroke:#000000;stroke-linecap:square;stroke-linejoin:miter;stroke-width:0.8;"/>
   </g>
   <g id="patch_9">
    <path d="M 467.950472 151.650812 
L 467.950472 17.827312 
" style="fill:none;stroke:#000000;stroke-linecap:square;stroke-linejoin:miter;stroke-width:0.8;"/>
   </g>
   <g id="patch_10">
    <path d="M 279.397892 151.650812 
L 467.950472 151.650812 
" style="fill:none;stroke:#000000;stroke-linecap:square;stroke-linejoin:miter;stroke-width:0.8;"/>
   </g>
   <g id="patch_11">
    <path d="M 279.397892 17.827312 
L 467.950472 17.827312 
" style="fill:none;stroke:#000000;stroke-linecap:square;stroke-linejoin:miter;stroke-width:0.8;"/>
   </g>
   <g id="legend_1">
    <g id="patch_12">
     <path d="M 363.820785 69.861687 
L 460.950472 69.861687 
Q 462.950472 69.861687 462.950472 67.861687 
L 462.950472 24.827312 
Q 462.950472 22.827312 460.950472 22.827312 
L 363.820785 22.827312 
Q 361.820785 22.827312 361.820785 24.827312 
L 361.820785 67.861687 
Q 361.820785 69.861687 363.820785 69.861687 
z
" style="fill:#ffffff;opacity:0.8;stroke:#cccccc;stroke-linejoin:miter;"/>
    </g>
    <g id="line2d_29">
     <path d="M 365.820785 30.92575 
L 385.820785 30.92575 
" style="fill:none;stroke:#1f77b4;stroke-linecap:square;stroke-width:1.5;"/>
    </g>
    <g id="line2d_30"/>
    <g id="text_27">
     <!-- Init (0.0, 1.0) -->
     <defs>
      <path d="M 31 75.875 
Q 24.46875 64.65625 21.28125 53.65625 
Q 18.109375 42.671875 18.109375 31.390625 
Q 18.109375 20.125 21.3125 9.0625 
Q 24.515625 -2 31 -13.1875 
L 23.1875 -13.1875 
Q 15.875 -1.703125 12.234375 9.375 
Q 8.59375 20.453125 8.59375 31.390625 
Q 8.59375 42.28125 12.203125 53.3125 
Q 15.828125 64.359375 23.1875 75.875 
z
" id="DejaVuSans-40"/>
      <path d="M 10.6875 12.40625 
L 21 12.40625 
L 21 0 
L 10.6875 0 
z
" id="DejaVuSans-46"/>
      <path d="M 11.71875 12.40625 
L 22.015625 12.40625 
L 22.015625 4 
L 14.015625 -11.625 
L 7.71875 -11.625 
L 11.71875 4 
z
" id="DejaVuSans-44"/>
      <path d="M 8.015625 75.875 
L 15.828125 75.875 
Q 23.140625 64.359375 26.78125 53.3125 
Q 30.421875 42.28125 30.421875 31.390625 
Q 30.421875 20.453125 26.78125 9.375 
Q 23.140625 -1.703125 15.828125 -13.1875 
L 8.015625 -13.1875 
Q 14.5 -2 17.703125 9.0625 
Q 20.90625 20.125 20.90625 31.390625 
Q 20.90625 42.671875 17.703125 53.65625 
Q 14.5 64.65625 8.015625 75.875 
z
" id="DejaVuSans-41"/>
     </defs>
     <g transform="translate(393.820785 34.42575)scale(0.1 -0.1)">
      <use xlink:href="#DejaVuSans-73"/>
      <use x="29.492188" xlink:href="#DejaVuSans-110"/>
      <use x="92.871094" xlink:href="#DejaVuSans-105"/>
      <use x="120.654297" xlink:href="#DejaVuSans-116"/>
      <use x="159.863281" xlink:href="#DejaVuSans-32"/>
      <use x="191.650391" xlink:href="#DejaVuSans-40"/>
      <use x="230.664062" xlink:href="#DejaVuSans-48"/>
      <use x="294.287109" xlink:href="#DejaVuSans-46"/>
      <use x="326.074219" xlink:href="#DejaVuSans-48"/>
      <use x="389.697266" xlink:href="#DejaVuSans-44"/>
      <use x="421.484375" xlink:href="#DejaVuSans-32"/>
      <use x="453.271484" xlink:href="#DejaVuSans-49"/>
      <use x="516.894531" xlink:href="#DejaVuSans-46"/>
      <use x="548.681641" xlink:href="#DejaVuSans-48"/>
      <use x="612.304688" xlink:href="#DejaVuSans-41"/>
     </g>
    </g>
    <g id="line2d_31">
     <path d="M 365.820785 45.603875 
L 385.820785 45.603875 
" style="fill:none;stroke:#ff7f0e;stroke-linecap:square;stroke-width:1.5;"/>
    </g>
    <g id="line2d_32"/>
    <g id="text_28">
     <!-- Init (0.5, 0.1) -->
     <g transform="translate(393.820785 49.103875)scale(0.1 -0.1)">
      <use xlink:href="#DejaVuSans-73"/>
      <use x="29.492188" xlink:href="#DejaVuSans-110"/>
      <use x="92.871094" xlink:href="#DejaVuSans-105"/>
      <use x="120.654297" xlink:href="#DejaVuSans-116"/>
      <use x="159.863281" xlink:href="#DejaVuSans-32"/>
      <use x="191.650391" xlink:href="#DejaVuSans-40"/>
      <use x="230.664062" xlink:href="#DejaVuSans-48"/>
      <use x="294.287109" xlink:href="#DejaVuSans-46"/>
      <use x="326.074219" xlink:href="#DejaVuSans-53"/>
      <use x="389.697266" xlink:href="#DejaVuSans-44"/>
      <use x="421.484375" xlink:href="#DejaVuSans-32"/>
      <use x="453.271484" xlink:href="#DejaVuSans-48"/>
      <use x="516.894531" xlink:href="#DejaVuSans-46"/>
      <use x="548.681641" xlink:href="#DejaVuSans-49"/>
      <use x="612.304688" xlink:href="#DejaVuSans-41"/>
     </g>
    </g>
    <g id="line2d_33">
     <path d="M 365.820785 60.282 
L 385.820785 60.282 
" style="fill:none;stroke:#2ca02c;stroke-linecap:square;stroke-width:1.5;"/>
    </g>
    <g id="line2d_34"/>
    <g id="text_29">
     <!-- Init (0.2, 5.0) -->
     <g transform="translate(393.820785 63.782)scale(0.1 -0.1)">
      <use xlink:href="#DejaVuSans-73"/>
      <use x="29.492188" xlink:href="#DejaVuSans-110"/>
      <use x="92.871094" xlink:href="#DejaVuSans-105"/>
      <use x="120.654297" xlink:href="#DejaVuSans-116"/>
      <use x="159.863281" xlink:href="#DejaVuSans-32"/>
      <use x="191.650391" xlink:href="#DejaVuSans-40"/>
      <use x="230.664062" xlink:href="#DejaVuSans-48"/>
      <use x="294.287109" xlink:href="#DejaVuSans-46"/>
      <use x="326.074219" xlink:href="#DejaVuSans-50"/>
      <use x="389.697266" xlink:href="#DejaVuSans-44"/>
      <use x="421.484375" xlink:href="#DejaVuSans-32"/>
      <use x="453.271484" xlink:href="#DejaVuSans-53"/>
      <use x="516.894531" xlink:href="#DejaVuSans-46"/>
      <use x="548.681641" xlink:href="#DejaVuSans-48"/>
      <use x="612.304688" xlink:href="#DejaVuSans-41"/>
     </g>
    </g>
   </g>
  </g>
  <g id="axes_3">
   <g id="patch_13">
    <path d="M 516.175472 151.650812 
L 704.728052 151.650812 
L 704.728052 17.827312 
L 516.175472 17.827312 
z
" style="fill:#ffffff;"/>
   </g>
   <g id="matplotlib.axis_5">
    <g id="xtick_14">
     <g id="line2d_35">
      <g>
       <use style="stroke:#000000;stroke-width:0.8;" x="525.162311" xlink:href="#mbeefd536e7" y="151.650812"/>
      </g>
     </g>
     <g id="text_30">
      <!-- −0.5 -->
      <g transform="translate(513.020904 166.24925)scale(0.1 -0.1)">
       <use xlink:href="#DejaVuSans-8722"/>
       <use x="83.789062" xlink:href="#DejaVuSans-48"/>
       <use x="147.412109" xlink:href="#DejaVuSans-46"/>
       <use x="179.199219" xlink:href="#DejaVuSans-53"/>
      </g>
     </g>
    </g>
    <g id="xtick_15">
     <g id="line2d_36">
      <g>
       <use style="stroke:#000000;stroke-width:0.8;" x="567.911722" xlink:href="#mbeefd536e7" y="151.650812"/>
      </g>
     </g>
     <g id="text_31">
      <!-- 0.0 -->
      <g transform="translate(559.960159 166.24925)scale(0.1 -0.1)">
       <use xlink:href="#DejaVuSans-48"/>
       <use x="63.623047" xlink:href="#DejaVuSans-46"/>
       <use x="95.410156" xlink:href="#DejaVuSans-48"/>
      </g>
     </g>
    </g>
    <g id="xtick_16">
     <g id="line2d_37">
      <g>
       <use style="stroke:#000000;stroke-width:0.8;" x="610.661133" xlink:href="#mbeefd536e7" y="151.650812"/>
      </g>
     </g>
     <g id="text_32">
      <!-- 0.5 -->
      <g transform="translate(602.70957 166.24925)scale(0.1 -0.1)">
       <use xlink:href="#DejaVuSans-48"/>
       <use x="63.623047" xlink:href="#DejaVuSans-46"/>
       <use x="95.410156" xlink:href="#DejaVuSans-53"/>
      </g>
     </g>
    </g>
    <g id="xtick_17">
     <g id="line2d_38">
      <g>
       <use style="stroke:#000000;stroke-width:0.8;" x="653.410543" xlink:href="#mbeefd536e7" y="151.650812"/>
      </g>
     </g>
     <g id="text_33">
      <!-- 1.0 -->
      <g transform="translate(645.458981 166.24925)scale(0.1 -0.1)">
       <use xlink:href="#DejaVuSans-49"/>
       <use x="63.623047" xlink:href="#DejaVuSans-46"/>
       <use x="95.410156" xlink:href="#DejaVuSans-48"/>
      </g>
     </g>
    </g>
    <g id="xtick_18">
     <g id="line2d_39">
      <g>
       <use style="stroke:#000000;stroke-width:0.8;" x="696.159954" xlink:href="#mbeefd536e7" y="151.650812"/>
      </g>
     </g>
     <g id="text_34">
      <!-- 1.5 -->
      <g transform="translate(688.208392 166.24925)scale(0.1 -0.1)">
       <use xlink:href="#DejaVuSans-49"/>
       <use x="63.623047" xlink:href="#DejaVuSans-46"/>
       <use x="95.410156" xlink:href="#DejaVuSans-53"/>
      </g>
     </g>
    </g>
    <g id="text_35">
     <!-- $\theta_d$ -->
     <defs>
      <path d="M 45.515625 34.671875 
L 14.453125 34.671875 
Q 12.359375 20.0625 14.5 13.875 
Q 17.1875 6.25 24.46875 6.25 
Q 31.78125 6.25 37.359375 13.921875 
Q 42.234375 20.65625 45.515625 34.671875 
z
M 47.015625 42.96875 
Q 48.34375 56.84375 46.625 61.71875 
Q 43.953125 69.4375 36.765625 69.4375 
Q 29.296875 69.4375 23.828125 61.8125 
Q 19.53125 55.671875 16.15625 42.96875 
z
M 38.1875 76.765625 
Q 49.90625 76.765625 54.59375 66.40625 
Q 59.28125 56.109375 55.71875 37.84375 
Q 52.203125 19.625 43.453125 9.28125 
Q 34.765625 -1.125 23.046875 -1.125 
Q 11.28125 -1.125 6.640625 9.28125 
Q 2 19.625 5.515625 37.84375 
Q 9.078125 56.109375 17.71875 66.40625 
Q 26.421875 76.765625 38.1875 76.765625 
z
" id="DejaVuSans-Oblique-952"/>
      <path d="M 41.796875 8.203125 
Q 38.1875 3.46875 33.25 1.015625 
Q 28.328125 -1.421875 22.3125 -1.421875 
Q 14.109375 -1.421875 9.34375 4.171875 
Q 4.59375 9.765625 4.59375 19.484375 
Q 4.59375 27.59375 7.46875 34.9375 
Q 10.359375 42.28125 15.828125 48.09375 
Q 19.4375 51.953125 23.96875 53.96875 
Q 28.515625 56 33.5 56 
Q 38.765625 56 42.796875 53.453125 
Q 46.828125 50.921875 49.03125 46.1875 
L 54.890625 75.984375 
L 63.921875 75.984375 
L 49.125 0 
L 40.09375 0 
z
M 13.921875 21.09375 
Q 13.921875 14.015625 17.109375 10.0625 
Q 20.3125 6.109375 25.984375 6.109375 
Q 30.171875 6.109375 33.765625 8.125 
Q 37.359375 10.15625 40.09375 14.109375 
Q 42.96875 18.21875 44.625 23.578125 
Q 46.296875 28.953125 46.296875 34.1875 
Q 46.296875 40.96875 43.09375 44.765625 
Q 39.890625 48.578125 34.28125 48.578125 
Q 30.03125 48.578125 26.359375 46.578125 
Q 22.703125 44.578125 20.125 40.828125 
Q 17.28125 36.765625 15.59375 31.390625 
Q 13.921875 26.03125 13.921875 21.09375 
z
" id="DejaVuSans-Oblique-100"/>
     </defs>
     <g transform="translate(605.001762 179.927375)scale(0.1 -0.1)">
      <use transform="translate(0 0.234375)" xlink:href="#DejaVuSans-Oblique-952"/>
      <use transform="translate(61.181641 -16.171875)scale(0.7)" xlink:href="#DejaVuSans-Oblique-100"/>
     </g>
    </g>
   </g>
   <g id="matplotlib.axis_6">
    <g id="ytick_10">
     <g id="line2d_40">
      <g>
       <use style="stroke:#000000;stroke-width:0.8;" x="516.175472" xlink:href="#mc8de9f9ff7" y="147.073349"/>
      </g>
     </g>
     <g id="text_36">
      <!-- 0 -->
      <g transform="translate(502.812972 150.872568)scale(0.1 -0.1)">
       <use xlink:href="#DejaVuSans-48"/>
      </g>
     </g>
    </g>
    <g id="ytick_11">
     <g id="line2d_41">
      <g>
       <use style="stroke:#000000;stroke-width:0.8;" x="516.175472" xlink:href="#mc8de9f9ff7" y="116.964891"/>
      </g>
     </g>
     <g id="text_37">
      <!-- 2 -->
      <g transform="translate(502.812972 120.76411)scale(0.1 -0.1)">
       <use xlink:href="#DejaVuSans-50"/>
      </g>
     </g>
    </g>
    <g id="ytick_12">
     <g id="line2d_42">
      <g>
       <use style="stroke:#000000;stroke-width:0.8;" x="516.175472" xlink:href="#mc8de9f9ff7" y="86.856434"/>
      </g>
     </g>
     <g id="text_38">
      <!-- 4 -->
      <g transform="translate(502.812972 90.655652)scale(0.1 -0.1)">
       <use xlink:href="#DejaVuSans-52"/>
      </g>
     </g>
    </g>
    <g id="ytick_13">
     <g id="line2d_43">
      <g>
       <use style="stroke:#000000;stroke-width:0.8;" x="516.175472" xlink:href="#mc8de9f9ff7" y="56.747976"/>
      </g>
     </g>
     <g id="text_39">
      <!-- 6 -->
      <g transform="translate(502.812972 60.547195)scale(0.1 -0.1)">
       <use xlink:href="#DejaVuSans-54"/>
      </g>
     </g>
    </g>
    <g id="ytick_14">
     <g id="line2d_44">
      <g>
       <use style="stroke:#000000;stroke-width:0.8;" x="516.175472" xlink:href="#mc8de9f9ff7" y="26.639518"/>
      </g>
     </g>
     <g id="text_40">
      <!-- 8 -->
      <g transform="translate(502.812972 30.438737)scale(0.1 -0.1)">
       <use xlink:href="#DejaVuSans-56"/>
      </g>
     </g>
    </g>
    <g id="text_41">
     <!-- $\theta_\omega$ -->
     <defs>
      <path d="M 21.390625 -1.421875 
Q 1.125 -1.421875 6.78125 27.59375 
Q 8.984375 39.0625 19.625 54.6875 
L 29.296875 54.6875 
Q 19.234375 39.0625 17 27.34375 
Q 12.796875 6.203125 23.734375 6.203125 
Q 33.84375 6.203125 38.71875 32.46875 
L 47.015625 32.46875 
Q 41.703125 6.0625 51.8125 6.203125 
Q 62.703125 6.296875 66.796875 27.34375 
Q 69.046875 39.0625 65.140625 54.6875 
L 74.8125 54.6875 
Q 79.296875 39.0625 77.09375 27.59375 
Q 71.53125 -1.46875 51.21875 -1.421875 
Q 37.9375 -1.375 39.109375 13.1875 
Q 34.28125 -1.421875 21.390625 -1.421875 
z
" id="DejaVuSans-Oblique-969"/>
     </defs>
     <g transform="translate(496.733285 90.889062)rotate(-90)scale(0.1 -0.1)">
      <use transform="translate(0 0.234375)" xlink:href="#DejaVuSans-Oblique-952"/>
      <use transform="translate(61.181641 -16.171875)scale(0.7)" xlink:href="#DejaVuSans-Oblique-969"/>
     </g>
    </g>
   </g>
   <g id="line2d_45">
    <path clip-path="url(#p049af3956c)" d="M 567.911722 132.01912 
L 653.441017 129.92301 
L 572.108447 23.910199 
L 629.373721 98.552531 
L 641.326138 114.131889 
L 606.883101 70.859948 
L 636.947668 108.631071 
L 637.214551 109.190472 
L 637.016463 109.340151 
L 636.224111 109.938864 
L 633.846562 110.479919 
L 629.248034 111.090545 
L 620.382363 111.883306 
L 603.540091 112.701344 
L 604.165904 111.59335 
L 591.370961 109.486309 
L 598.968721 110.73749 
L 599.097372 110.434913 
L 599.42049 110.469176 
L 599.317151 110.467601 
L 599.316549 110.46726 
L 599.316545 110.46727 
L 599.316549 110.46726 
L 599.316549 110.46726 
L 599.316549 110.46726 
L 599.316549 110.46726 
L 599.316549 110.46726 
L 599.316549 110.46726 
L 599.316549 110.46726 
L 599.316549 110.46726 
L 599.316549 110.46726 
L 599.316549 110.46726 
L 599.316549 110.46726 
L 599.316549 110.46726 
L 599.316549 110.46726 
L 599.316549 110.46726 
L 599.316549 110.46726 
L 599.316549 110.46726 
L 599.316549 110.46726 
L 599.316549 110.46726 
L 599.316549 110.46726 
L 599.316549 110.46726 
L 599.316549 110.46726 
L 599.316549 110.46726 
L 599.316549 110.46726 
L 599.316549 110.46726 
L 599.316549 110.46726 
L 599.316549 110.46726 
L 599.316549 110.46726 
L 599.316549 110.46726 
L 599.316549 110.46726 
L 599.316549 110.46726 
L 599.316549 110.46726 
L 599.316549 110.46726 
L 599.316549 110.46726 
L 599.316549 110.46726 
L 599.316549 110.46726 
L 599.316549 110.46726 
L 599.316549 110.46726 
L 599.316549 110.46726 
L 599.316549 110.46726 
L 599.316549 110.46726 
L 599.316549 110.46726 
L 599.316549 110.46726 
L 599.316549 110.46726 
L 599.316549 110.46726 
L 599.316549 110.46726 
L 599.316549 110.46726 
L 599.316549 110.46726 
L 599.316549 110.46726 
L 599.316549 110.46726 
L 599.316549 110.46726 
L 599.316549 110.46726 
L 599.316549 110.46726 
L 599.316549 110.46726 
L 599.316549 110.46726 
L 599.316549 110.46726 
L 599.316549 110.46726 
L 599.316549 110.46726 
L 599.316549 110.46726 
L 599.316549 110.46726 
L 599.316549 110.46726 
L 599.316549 110.46726 
L 599.316549 110.46726 
L 599.316549 110.46726 
L 599.316549 110.46726 
L 599.316549 110.46726 
L 599.316549 110.46726 
L 599.316549 110.46726 
L 599.316545 110.46727 
L 599.316547 110.467265 
L 599.316548 110.467263 
L 599.316548 110.467261 
L 599.316548 110.467261 
L 599.316549 110.46726 
L 599.316549 110.46726 
L 599.316549 110.46726 
L 599.316549 110.46726 
L 599.316549 110.46726 
L 599.316549 110.46726 
L 599.316549 110.46726 
" style="fill:none;stroke:#1f77b4;stroke-linecap:square;stroke-width:1.5;"/>
   </g>
   <g id="line2d_46">
    <path clip-path="url(#p049af3956c)" d="M 610.661133 145.567926 
L 696.15748 143.430551 
L 689.626541 132.426396 
L 663.502785 88.409779 
L 675.482479 108.594686 
L 635.354669 50.328779 
L 669.749645 100.270565 
L 674.720132 107.487753 
L 673.897503 107.465868 
L 670.606984 107.378331 
L 657.444907 107.02818 
L 604.796603 105.627577 
L 644.640356 106.687541 
L 621.180477 106.063437 
L 524.746044 110.096271 
L 590.65633 107.33994 
L 609.906446 106.534911 
L 602.419907 107.574026 
L 592.349221 109.549915 
L 598.358558 110.316914 
L 598.693999 110.48101 
L 599.415253 110.455923 
L 599.320827 110.466871 
L 599.316521 110.467275 
L 599.320268 110.466923 
L 599.320743 110.466879 
L 599.320814 110.466872 
L 599.320825 110.466871 
L 599.320827 110.466871 
L 599.320827 110.466871 
L 599.320827 110.466871 
L 599.320827 110.466871 
L 599.320827 110.466871 
L 599.320827 110.466871 
L 599.320827 110.466871 
L 599.320827 110.466871 
L 599.320827 110.466871 
L 599.320827 110.466871 
L 599.320827 110.466871 
L 599.320827 110.466871 
L 599.320827 110.466871 
L 599.320827 110.466871 
L 599.320827 110.466871 
L 599.320827 110.466871 
L 599.320827 110.466871 
L 599.320827 110.466871 
L 599.320827 110.466871 
L 599.320827 110.466871 
L 599.320827 110.466871 
L 599.320827 110.466871 
L 599.320827 110.466871 
L 599.320827 110.466871 
L 599.320827 110.466871 
L 599.320827 110.466871 
L 599.320827 110.466871 
L 599.320827 110.466871 
L 599.320827 110.466871 
L 599.320827 110.466871 
L 599.320827 110.466871 
L 599.320827 110.466871 
L 599.320827 110.466871 
L 599.320827 110.466871 
L 599.320827 110.466871 
L 599.320827 110.466871 
L 599.320827 110.466871 
L 599.320827 110.466871 
L 599.320827 110.466871 
L 599.320827 110.466871 
L 599.320827 110.466871 
L 599.320827 110.466871 
L 599.320827 110.466871 
L 599.320827 110.466871 
L 599.320827 110.466871 
L 599.320827 110.466871 
L 599.320827 110.466871 
L 599.320827 110.466871 
L 599.320827 110.466871 
L 599.320827 110.466871 
L 599.320827 110.466871 
L 599.320827 110.466871 
L 599.320827 110.466871 
L 599.320827 110.466871 
L 599.320827 110.466871 
L 599.320827 110.466871 
L 599.320827 110.466871 
L 599.320827 110.466871 
L 599.320827 110.466871 
L 599.320827 110.466871 
L 599.320827 110.466871 
L 599.320827 110.466871 
L 599.320827 110.466871 
L 599.320827 110.466871 
L 599.320827 110.466871 
L 599.320827 110.466871 
L 599.320827 110.466871 
L 599.320827 110.466871 
L 599.320827 110.466871 
L 599.320827 110.466871 
L 599.320827 110.466871 
L 599.320827 110.466871 
L 599.320827 110.466871 
L 599.320827 110.466871 
L 599.316521 110.467275 
L 599.319621 110.466984 
L 599.320454 110.466906 
L 599.320705 110.466882 
L 599.320786 110.466875 
L 599.320813 110.466872 
L 599.320822 110.466871 
L 599.320825 110.466871 
L 599.320826 110.466871 
L 599.320827 110.466871 
L 599.320827 110.466871 
L 599.320827 110.466871 
" style="fill:none;stroke:#ff7f0e;stroke-linecap:square;stroke-width:1.5;"/>
   </g>
   <g id="line2d_47">
    <path clip-path="url(#p049af3956c)" d="M 585.011486 71.802205 
L 671.245039 71.000051 
L 671.496724 52.224109 
L 668.060838 39.958019 
L 671.033335 50.569812 
L 670.120024 50.364018 
L 668.242198 50.16452 
L 660.730896 49.366527 
L 641.98507 48.421879 
L 625.375818 49.101753 
L 609.405958 51.129127 
L 617.392429 50.115244 
L 618.019394 51.944406 
L 621.063263 51.317071 
L 619.089255 51.365921 
L 619.032618 51.396023 
L 619.039743 51.393906 
L 619.039347 51.393906 
L 619.039737 51.393906 
L 619.039743 51.393906 
L 619.039743 51.393906 
L 619.039743 51.393906 
L 619.039743 51.393906 
L 619.039743 51.393906 
L 619.039743 51.393906 
L 619.039743 51.393906 
L 619.039743 51.393906 
L 619.039743 51.393906 
L 619.039743 51.393906 
L 619.039743 51.393906 
L 619.039743 51.393906 
L 619.039743 51.393906 
L 619.039743 51.393906 
L 619.039743 51.393906 
L 619.039743 51.393906 
L 619.039743 51.393906 
L 619.039743 51.393906 
L 619.039743 51.393906 
L 619.039743 51.393906 
L 619.039743 51.393906 
L 619.039743 51.393906 
L 619.039743 51.393906 
L 619.039743 51.393906 
L 619.039743 51.393906 
L 619.039743 51.393906 
L 619.039743 51.393906 
L 619.039743 51.393906 
L 619.039743 51.393906 
L 619.039743 51.393906 
L 619.039743 51.393906 
L 619.039743 51.393906 
L 619.039743 51.393906 
L 619.039743 51.393906 
L 619.039743 51.393906 
L 619.039743 51.393906 
L 619.039743 51.393906 
L 619.039743 51.393906 
L 619.039743 51.393906 
L 619.039743 51.393906 
L 619.039743 51.393906 
L 619.039743 51.393906 
L 619.039743 51.393906 
L 619.039743 51.393906 
L 619.039743 51.393906 
L 619.039743 51.393906 
L 619.039743 51.393906 
L 619.039743 51.393906 
L 619.039743 51.393906 
L 619.039743 51.393906 
L 619.039743 51.393906 
L 619.039743 51.393906 
L 619.039743 51.393906 
L 619.039347 51.393906 
L 619.039545 51.393906 
L 619.039644 51.393906 
L 619.039693 51.393906 
L 619.039718 51.393906 
L 619.039731 51.393906 
L 619.039737 51.393906 
L 619.03974 51.393906 
L 619.039741 51.393906 
L 619.039742 51.393906 
L 619.039743 51.393906 
L 619.039743 51.393906 
" style="fill:none;stroke:#2ca02c;stroke-linecap:square;stroke-width:1.5;"/>
   </g>
   <g id="patch_14">
    <path d="M 516.175472 151.650812 
L 516.175472 17.827312 
" style="fill:none;stroke:#000000;stroke-linecap:square;stroke-linejoin:miter;stroke-width:0.8;"/>
   </g>
   <g id="patch_15">
    <path d="M 704.728052 151.650812 
L 704.728052 17.827312 
" style="fill:none;stroke:#000000;stroke-linecap:square;stroke-linejoin:miter;stroke-width:0.8;"/>
   </g>
   <g id="patch_16">
    <path d="M 516.175472 151.650812 
L 704.728052 151.650812 
" style="fill:none;stroke:#000000;stroke-linecap:square;stroke-linejoin:miter;stroke-width:0.8;"/>
   </g>
   <g id="patch_17">
    <path d="M 516.175472 17.827312 
L 704.728052 17.827312 
" style="fill:none;stroke:#000000;stroke-linecap:square;stroke-linejoin:miter;stroke-width:0.8;"/>
   </g>
   <g id="PathCollection_4">
    <defs>
     <path d="M 0 3 
C 0.795609 3 1.55874 2.683901 2.12132 2.12132 
C 2.683901 1.55874 3 0.795609 3 0 
C 3 -0.795609 2.683901 -1.55874 2.12132 -2.12132 
C 1.55874 -2.683901 0.795609 -3 0 -3 
C -0.795609 -3 -1.55874 -2.683901 -2.12132 -2.12132 
C -2.683901 -1.55874 -3 -0.795609 -3 0 
C -3 0.795609 -2.683901 1.55874 -2.12132 2.12132 
C -1.55874 2.683901 -0.795609 3 0 3 
z
" id="m35025f2c3a" style="stroke:#1f77b4;"/>
    </defs>
    <g clip-path="url(#p049af3956c)">
     <use style="fill:#1f77b4;stroke:#1f77b4;" x="599.316549" xlink:href="#m35025f2c3a" y="110.46726"/>
    </g>
   </g>
   <g id="PathCollection_5">
    <defs>
     <path d="M 0 3 
C 0.795609 3 1.55874 2.683901 2.12132 2.12132 
C 2.683901 1.55874 3 0.795609 3 0 
C 3 -0.795609 2.683901 -1.55874 2.12132 -2.12132 
C 1.55874 -2.683901 0.795609 -3 0 -3 
C -0.795609 -3 -1.55874 -2.683901 -2.12132 -2.12132 
C -2.683901 -1.55874 -3 -0.795609 -3 0 
C -3 0.795609 -2.683901 1.55874 -2.12132 2.12132 
C -1.55874 2.683901 -0.795609 3 0 3 
z
" id="mcd3b46a6ba" style="stroke:#ff7f0e;"/>
    </defs>
    <g clip-path="url(#p049af3956c)">
     <use style="fill:#ff7f0e;stroke:#ff7f0e;" x="599.320827" xlink:href="#mcd3b46a6ba" y="110.466871"/>
    </g>
   </g>
   <g id="PathCollection_6">
    <defs>
     <path d="M 0 3 
C 0.795609 3 1.55874 2.683901 2.12132 2.12132 
C 2.683901 1.55874 3 0.795609 3 0 
C 3 -0.795609 2.683901 -1.55874 2.12132 -2.12132 
C 1.55874 -2.683901 0.795609 -3 0 -3 
C -0.795609 -3 -1.55874 -2.683901 -2.12132 -2.12132 
C -2.683901 -1.55874 -3 -0.795609 -3 0 
C -3 0.795609 -2.683901 1.55874 -2.12132 2.12132 
C -1.55874 2.683901 -0.795609 3 0 3 
z
" id="mea9f3c6751" style="stroke:#2ca02c;"/>
    </defs>
    <g clip-path="url(#p049af3956c)">
     <use style="fill:#2ca02c;stroke:#2ca02c;" x="619.039743" xlink:href="#mea9f3c6751" y="51.393906"/>
    </g>
   </g>
   <g id="PathCollection_7">
    <defs>
     <path d="M 0 3 
C 0.795609 3 1.55874 2.683901 2.12132 2.12132 
C 2.683901 1.55874 3 0.795609 3 0 
C 3 -0.795609 2.683901 -1.55874 2.12132 -2.12132 
C 1.55874 -2.683901 0.795609 -3 0 -3 
C -0.795609 -3 -1.55874 -2.683901 -2.12132 -2.12132 
C -2.683901 -1.55874 -3 -0.795609 -3 0 
C -3 0.795609 -2.683901 1.55874 -2.12132 2.12132 
C -1.55874 2.683901 -0.795609 3 0 3 
z
" id="m4a9acf34a9" style="stroke:#000000;"/>
    </defs>
    <g clip-path="url(#p049af3956c)">
     <use style="stroke:#000000;" x="600.401274" xlink:href="#m4a9acf34a9" y="110.491573"/>
    </g>
   </g>
   <g id="legend_2">
    <g id="patch_18">
     <path d="M 523.175472 84.539812 
L 620.30516 84.539812 
Q 622.30516 84.539812 622.30516 82.539812 
L 622.30516 24.827312 
Q 622.30516 22.827312 620.30516 22.827312 
L 523.175472 22.827312 
Q 521.175472 22.827312 521.175472 24.827312 
L 521.175472 82.539812 
Q 521.175472 84.539812 523.175472 84.539812 
z
" style="fill:#ffffff;opacity:0.8;stroke:#cccccc;stroke-linejoin:miter;"/>
    </g>
    <g id="line2d_48">
     <path d="M 525.175472 30.92575 
L 545.175472 30.92575 
" style="fill:none;stroke:#1f77b4;stroke-linecap:square;stroke-width:1.5;"/>
    </g>
    <g id="line2d_49"/>
    <g id="text_42">
     <!-- Init (0.0, 1.0) -->
     <g transform="translate(553.175472 34.42575)scale(0.1 -0.1)">
      <use xlink:href="#DejaVuSans-73"/>
      <use x="29.492188" xlink:href="#DejaVuSans-110"/>
      <use x="92.871094" xlink:href="#DejaVuSans-105"/>
      <use x="120.654297" xlink:href="#DejaVuSans-116"/>
      <use x="159.863281" xlink:href="#DejaVuSans-32"/>
      <use x="191.650391" xlink:href="#DejaVuSans-40"/>
      <use x="230.664062" xlink:href="#DejaVuSans-48"/>
      <use x="294.287109" xlink:href="#DejaVuSans-46"/>
      <use x="326.074219" xlink:href="#DejaVuSans-48"/>
      <use x="389.697266" xlink:href="#DejaVuSans-44"/>
      <use x="421.484375" xlink:href="#DejaVuSans-32"/>
      <use x="453.271484" xlink:href="#DejaVuSans-49"/>
      <use x="516.894531" xlink:href="#DejaVuSans-46"/>
      <use x="548.681641" xlink:href="#DejaVuSans-48"/>
      <use x="612.304688" xlink:href="#DejaVuSans-41"/>
     </g>
    </g>
    <g id="line2d_50">
     <path d="M 525.175472 45.603875 
L 545.175472 45.603875 
" style="fill:none;stroke:#ff7f0e;stroke-linecap:square;stroke-width:1.5;"/>
    </g>
    <g id="line2d_51"/>
    <g id="text_43">
     <!-- Init (0.5, 0.1) -->
     <g transform="translate(553.175472 49.103875)scale(0.1 -0.1)">
      <use xlink:href="#DejaVuSans-73"/>
      <use x="29.492188" xlink:href="#DejaVuSans-110"/>
      <use x="92.871094" xlink:href="#DejaVuSans-105"/>
      <use x="120.654297" xlink:href="#DejaVuSans-116"/>
      <use x="159.863281" xlink:href="#DejaVuSans-32"/>
      <use x="191.650391" xlink:href="#DejaVuSans-40"/>
      <use x="230.664062" xlink:href="#DejaVuSans-48"/>
      <use x="294.287109" xlink:href="#DejaVuSans-46"/>
      <use x="326.074219" xlink:href="#DejaVuSans-53"/>
      <use x="389.697266" xlink:href="#DejaVuSans-44"/>
      <use x="421.484375" xlink:href="#DejaVuSans-32"/>
      <use x="453.271484" xlink:href="#DejaVuSans-48"/>
      <use x="516.894531" xlink:href="#DejaVuSans-46"/>
      <use x="548.681641" xlink:href="#DejaVuSans-49"/>
      <use x="612.304688" xlink:href="#DejaVuSans-41"/>
     </g>
    </g>
    <g id="line2d_52">
     <path d="M 525.175472 60.282 
L 545.175472 60.282 
" style="fill:none;stroke:#2ca02c;stroke-linecap:square;stroke-width:1.5;"/>
    </g>
    <g id="line2d_53"/>
    <g id="text_44">
     <!-- Init (0.2, 5.0) -->
     <g transform="translate(553.175472 63.782)scale(0.1 -0.1)">
      <use xlink:href="#DejaVuSans-73"/>
      <use x="29.492188" xlink:href="#DejaVuSans-110"/>
      <use x="92.871094" xlink:href="#DejaVuSans-105"/>
      <use x="120.654297" xlink:href="#DejaVuSans-116"/>
      <use x="159.863281" xlink:href="#DejaVuSans-32"/>
      <use x="191.650391" xlink:href="#DejaVuSans-40"/>
      <use x="230.664062" xlink:href="#DejaVuSans-48"/>
      <use x="294.287109" xlink:href="#DejaVuSans-46"/>
      <use x="326.074219" xlink:href="#DejaVuSans-50"/>
      <use x="389.697266" xlink:href="#DejaVuSans-44"/>
      <use x="421.484375" xlink:href="#DejaVuSans-32"/>
      <use x="453.271484" xlink:href="#DejaVuSans-53"/>
      <use x="516.894531" xlink:href="#DejaVuSans-46"/>
      <use x="548.681641" xlink:href="#DejaVuSans-48"/>
      <use x="612.304688" xlink:href="#DejaVuSans-41"/>
     </g>
    </g>
    <g id="PathCollection_8">
     <g>
      <use style="stroke:#000000;" x="535.175472" xlink:href="#m4a9acf34a9" y="75.835125"/>
     </g>
    </g>
    <g id="text_45">
     <!-- Ground truth -->
     <defs>
      <path d="M 59.515625 10.40625 
L 59.515625 29.984375 
L 43.40625 29.984375 
L 43.40625 38.09375 
L 69.28125 38.09375 
L 69.28125 6.78125 
Q 63.578125 2.734375 56.6875 0.65625 
Q 49.8125 -1.421875 42 -1.421875 
Q 24.90625 -1.421875 15.25 8.5625 
Q 5.609375 18.5625 5.609375 36.375 
Q 5.609375 54.25 15.25 64.234375 
Q 24.90625 74.21875 42 74.21875 
Q 49.125 74.21875 55.546875 72.453125 
Q 61.96875 70.703125 67.390625 67.28125 
L 67.390625 56.78125 
Q 61.921875 61.421875 55.765625 63.765625 
Q 49.609375 66.109375 42.828125 66.109375 
Q 29.4375 66.109375 22.71875 58.640625 
Q 16.015625 51.171875 16.015625 36.375 
Q 16.015625 21.625 22.71875 14.15625 
Q 29.4375 6.6875 42.828125 6.6875 
Q 48.046875 6.6875 52.140625 7.59375 
Q 56.25 8.5 59.515625 10.40625 
z
" id="DejaVuSans-71"/>
      <path d="M 45.40625 46.390625 
L 45.40625 75.984375 
L 54.390625 75.984375 
L 54.390625 0 
L 45.40625 0 
L 45.40625 8.203125 
Q 42.578125 3.328125 38.25 0.953125 
Q 33.9375 -1.421875 27.875 -1.421875 
Q 17.96875 -1.421875 11.734375 6.484375 
Q 5.515625 14.40625 5.515625 27.296875 
Q 5.515625 40.1875 11.734375 48.09375 
Q 17.96875 56 27.875 56 
Q 33.9375 56 38.25 53.625 
Q 42.578125 51.265625 45.40625 46.390625 
z
M 14.796875 27.296875 
Q 14.796875 17.390625 18.875 11.75 
Q 22.953125 6.109375 30.078125 6.109375 
Q 37.203125 6.109375 41.296875 11.75 
Q 45.40625 17.390625 45.40625 27.296875 
Q 45.40625 37.203125 41.296875 42.84375 
Q 37.203125 48.484375 30.078125 48.484375 
Q 22.953125 48.484375 18.875 42.84375 
Q 14.796875 37.203125 14.796875 27.296875 
z
" id="DejaVuSans-100"/>
      <path d="M 54.890625 33.015625 
L 54.890625 0 
L 45.90625 0 
L 45.90625 32.71875 
Q 45.90625 40.484375 42.875 44.328125 
Q 39.84375 48.1875 33.796875 48.1875 
Q 26.515625 48.1875 22.3125 43.546875 
Q 18.109375 38.921875 18.109375 30.90625 
L 18.109375 0 
L 9.078125 0 
L 9.078125 75.984375 
L 18.109375 75.984375 
L 18.109375 46.1875 
Q 21.34375 51.125 25.703125 53.5625 
Q 30.078125 56 35.796875 56 
Q 45.21875 56 50.046875 50.171875 
Q 54.890625 44.34375 54.890625 33.015625 
z
" id="DejaVuSans-104"/>
     </defs>
     <g transform="translate(553.175472 78.460125)scale(0.1 -0.1)">
      <use xlink:href="#DejaVuSans-71"/>
      <use x="77.490234" xlink:href="#DejaVuSans-114"/>
      <use x="118.572266" xlink:href="#DejaVuSans-111"/>
      <use x="179.753906" xlink:href="#DejaVuSans-117"/>
      <use x="243.132812" xlink:href="#DejaVuSans-110"/>
      <use x="306.511719" xlink:href="#DejaVuSans-100"/>
      <use x="369.988281" xlink:href="#DejaVuSans-32"/>
      <use x="401.775391" xlink:href="#DejaVuSans-116"/>
      <use x="440.984375" xlink:href="#DejaVuSans-114"/>
      <use x="482.097656" xlink:href="#DejaVuSans-117"/>
      <use x="545.476562" xlink:href="#DejaVuSans-116"/>
      <use x="584.685547" xlink:href="#DejaVuSans-104"/>
     </g>
    </g>
   </g>
  </g>
 </g>
 <defs>
  <clipPath id="p2e15082495">
   <rect height="133.8235" width="188.55258" x="42.620313" y="17.827312"/>
  </clipPath>
  <clipPath id="paa121db58e">
   <rect height="133.8235" width="188.55258" x="279.397892" y="17.827312"/>
  </clipPath>
  <clipPath id="p049af3956c">
   <rect height="133.8235" width="188.55258" x="516.175472" y="17.827312"/>
  </clipPath>
 </defs>
</svg>
