<?xml version="1.0" encoding="utf-8" standalone="no"?>
<!DOCTYPE svg PUBLIC "-//W3C//DTD SVG 1.1//EN"
  "http://www.w3.org/Graphics/SVG/1.1/DTD/svg11.dtd">
<!-- Created with matplotlib (https://matplotlib.org/) -->
<svg height="248.518125pt" version="1.1" viewBox="0 0 442.645312 248.518125" width="442.645312pt" xmlns="http://www.w3.org/2000/svg" xmlns:xlink="http://www.w3.org/1999/xlink">
 <defs>
  <style type="text/css">
*{stroke-linecap:butt;stroke-linejoin:round;}
  </style>
 </defs>
 <g id="figure_1">
  <g id="patch_1">
   <path d="M 0 248.518125 
L 442.645312 248.518125 
L 442.645312 0 
L 0 0 
z
" style="fill:none;"/>
  </g>
  <g id="axes_1">
   <g id="patch_2">
    <path d="M 44.845313 224.64 
L 435.445312 224.64 
L 435.445312 7.2 
L 44.845313 7.2 
z
" style="fill:#ffffff;"/>
   </g>
   <g id="PathCollection_1">
    <defs>
     <path d="M 0 3 
C 0.795609 3 1.55874 2.683901 2.12132 2.12132 
C 2.683901 1.55874 3 0.795609 3 0 
C 3 -0.795609 2.683901 -1.55874 2.12132 -2.12132 
C 1.55874 -2.683901 0.795609 -3 0 -3 
C -0.795609 -3 -1.55874 -2.683901 -2.12132 -2.12132 
C -2.683901 -1.55874 -3 -0.795609 -3 0 
C -3 0.795609 -2.683901 1.55874 -2.12132 2.12132 
C -1.55874 2.683901 -0.795609 3 0 3 
z
" id="m7c572f4993" style="stroke:#000000;"/>
    </defs>
    <g clip-path="url(#p915493081e)">
     <use style="stroke:#000000;" x="63.377732" xlink:href="#m7c572f4993" y="127.825265"/>
     <use style="stroke:#000000;" x="164.656956" xlink:href="#m7c572f4993" y="127.825265"/>
     <use style="stroke:#000000;" x="215.296568" xlink:href="#m7c572f4993" y="75.493464"/>
     <use style="stroke:#000000;" x="164.656956" xlink:href="#m7c572f4993" y="23.161662"/>
     <use style="stroke:#000000;" x="63.377732" xlink:href="#m7c572f4993" y="23.161662"/>
    </g>
   </g>
   <g id="PathCollection_2">
    <defs>
     <path d="M 0 3 
C 0.795609 3 1.55874 2.683901 2.12132 2.12132 
C 2.683901 1.55874 3 0.795609 3 0 
C 3 -0.795609 2.683901 -1.55874 2.12132 -2.12132 
C 1.55874 -2.683901 0.795609 -3 0 -3 
C -0.795609 -3 -1.55874 -2.683901 -2.12132 -2.12132 
C -2.683901 -1.55874 -3 -0.795609 -3 0 
C -3 0.795609 -2.683901 1.55874 -2.12132 2.12132 
C -1.55874 2.683901 -0.795609 3 0 3 
z
" id="m54ffbfb298" style="stroke:#0000ff;"/>
    </defs>
    <g clip-path="url(#p915493081e)">
     <use style="fill:#0000ff;stroke:#0000ff;" x="391.036666" xlink:href="#m54ffbfb298" y="206.268616"/>
     <use style="fill:#0000ff;stroke:#0000ff;" x="414.555571" xlink:href="#m54ffbfb298" y="103.565856"/>
     <use style="fill:#0000ff;stroke:#0000ff;" x="372.577813" xlink:href="#m54ffbfb298" y="53.054135"/>
     <use style="fill:#0000ff;stroke:#0000ff;" x="315.300066" xlink:href="#m54ffbfb298" y="76.955399"/>
     <use style="fill:#0000ff;stroke:#0000ff;" x="293.140389" xlink:href="#m54ffbfb298" y="186.795131"/>
     <use style="fill:#0000ff;stroke:#0000ff;" x="389.41275" xlink:href="#m54ffbfb298" y="204.840476"/>
     <use style="fill:#0000ff;stroke:#0000ff;" x="397.303882" xlink:href="#m54ffbfb298" y="97.750137"/>
     <use style="fill:#0000ff;stroke:#0000ff;" x="392.292425" xlink:href="#m54ffbfb298" y="36.20949"/>
     <use style="fill:#0000ff;stroke:#0000ff;" x="305.073361" xlink:href="#m54ffbfb298" y="64.086396"/>
     <use style="fill:#0000ff;stroke:#0000ff;" x="295.7659" xlink:href="#m54ffbfb298" y="203.562483"/>
     <use style="fill:#0000ff;stroke:#0000ff;" x="382.695434" xlink:href="#m54ffbfb298" y="202.609985"/>
     <use style="fill:#0000ff;stroke:#0000ff;" x="416.394131" xlink:href="#m54ffbfb298" y="102.869316"/>
     <use style="fill:#0000ff;stroke:#0000ff;" x="379.189145" xlink:href="#m54ffbfb298" y="53.905395"/>
     <use style="fill:#0000ff;stroke:#0000ff;" x="309.673221" xlink:href="#m54ffbfb298" y="88.040206"/>
     <use style="fill:#0000ff;stroke:#0000ff;" x="280.828644" xlink:href="#m54ffbfb298" y="179.742592"/>
     <use style="fill:#0000ff;stroke:#0000ff;" x="395.300189" xlink:href="#m54ffbfb298" y="203.185898"/>
     <use style="fill:#0000ff;stroke:#0000ff;" x="388.576063" xlink:href="#m54ffbfb298" y="108.876723"/>
     <use style="fill:#0000ff;stroke:#0000ff;" x="366.767115" xlink:href="#m54ffbfb298" y="33.330659"/>
     <use style="fill:#0000ff;stroke:#0000ff;" x="325.244616" xlink:href="#m54ffbfb298" y="88.606342"/>
     <use style="fill:#0000ff;stroke:#0000ff;" x="290.492539" xlink:href="#m54ffbfb298" y="194.394369"/>
     <use style="fill:#0000ff;stroke:#0000ff;" x="386.61101" xlink:href="#m54ffbfb298" y="201.918815"/>
     <use style="fill:#0000ff;stroke:#0000ff;" x="415.548148" xlink:href="#m54ffbfb298" y="104.890294"/>
     <use style="fill:#0000ff;stroke:#0000ff;" x="377.353818" xlink:href="#m54ffbfb298" y="78.044808"/>
     <use style="fill:#0000ff;stroke:#0000ff;" x="324.159118" xlink:href="#m54ffbfb298" y="89.55933"/>
     <use style="fill:#0000ff;stroke:#0000ff;" x="292.859638" xlink:href="#m54ffbfb298" y="179.474197"/>
     <use style="fill:#0000ff;stroke:#0000ff;" x="387.493157" xlink:href="#m54ffbfb298" y="200.220328"/>
     <use style="fill:#0000ff;stroke:#0000ff;" x="414.62959" xlink:href="#m54ffbfb298" y="84.90759"/>
     <use style="fill:#0000ff;stroke:#0000ff;" x="366.360752" xlink:href="#m54ffbfb298" y="41.922653"/>
     <use style="fill:#0000ff;stroke:#0000ff;" x="325.298493" xlink:href="#m54ffbfb298" y="65.102034"/>
     <use style="fill:#0000ff;stroke:#0000ff;" x="302.68978" xlink:href="#m54ffbfb298" y="187.263183"/>
     <use style="fill:#0000ff;stroke:#0000ff;" x="383.733486" xlink:href="#m54ffbfb298" y="204.854512"/>
     <use style="fill:#0000ff;stroke:#0000ff;" x="405.87886" xlink:href="#m54ffbfb298" y="99.45484"/>
     <use style="fill:#0000ff;stroke:#0000ff;" x="363.322004" xlink:href="#m54ffbfb298" y="18.715905"/>
     <use style="fill:#0000ff;stroke:#0000ff;" x="315.989479" xlink:href="#m54ffbfb298" y="79.431009"/>
     <use style="fill:#0000ff;stroke:#0000ff;" x="295.025702" xlink:href="#m54ffbfb298" y="190.121734"/>
     <use style="fill:#0000ff;stroke:#0000ff;" x="380.603413" xlink:href="#m54ffbfb298" y="200.242816"/>
     <use style="fill:#0000ff;stroke:#0000ff;" x="407.319842" xlink:href="#m54ffbfb298" y="108.631111"/>
     <use style="fill:#0000ff;stroke:#0000ff;" x="402.805021" xlink:href="#m54ffbfb298" y="38.507279"/>
     <use style="fill:#0000ff;stroke:#0000ff;" x="310.048772" xlink:href="#m54ffbfb298" y="75.943298"/>
     <use style="fill:#0000ff;stroke:#0000ff;" x="288.150517" xlink:href="#m54ffbfb298" y="165.04084"/>
     <use style="fill:#0000ff;stroke:#0000ff;" x="384.679235" xlink:href="#m54ffbfb298" y="213.124095"/>
     <use style="fill:#0000ff;stroke:#0000ff;" x="394.951177" xlink:href="#m54ffbfb298" y="89.800388"/>
     <use style="fill:#0000ff;stroke:#0000ff;" x="372.969522" xlink:href="#m54ffbfb298" y="51.679943"/>
     <use style="fill:#0000ff;stroke:#0000ff;" x="295.694491" xlink:href="#m54ffbfb298" y="88.503636"/>
     <use style="fill:#0000ff;stroke:#0000ff;" x="282.657443" xlink:href="#m54ffbfb298" y="179.126006"/>
     <use style="fill:#0000ff;stroke:#0000ff;" x="394.414423" xlink:href="#m54ffbfb298" y="208.997303"/>
     <use style="fill:#0000ff;stroke:#0000ff;" x="415.198035" xlink:href="#m54ffbfb298" y="90.68853"/>
     <use style="fill:#0000ff;stroke:#0000ff;" x="385.592208" xlink:href="#m54ffbfb298" y="29.709714"/>
     <use style="fill:#0000ff;stroke:#0000ff;" x="311.505821" xlink:href="#m54ffbfb298" y="104.563966"/>
     <use style="fill:#0000ff;stroke:#0000ff;" x="285.782296" xlink:href="#m54ffbfb298" y="194.157009"/>
    </g>
   </g>
   <g id="matplotlib.axis_1">
    <g id="xtick_1">
     <g id="line2d_1">
      <defs>
       <path d="M 0 0 
L 0 3.5 
" id="m01e5aa65eb" style="stroke:#000000;stroke-width:0.8;"/>
      </defs>
      <g>
       <use style="stroke:#000000;stroke-width:0.8;" x="63.377732" xlink:href="#m01e5aa65eb" y="224.64"/>
      </g>
     </g>
     <g id="text_1">
      <!-- 0.0 -->
      <defs>
       <path d="M 31.78125 66.40625 
Q 24.171875 66.40625 20.328125 58.90625 
Q 16.5 51.421875 16.5 36.375 
Q 16.5 21.390625 20.328125 13.890625 
Q 24.171875 6.390625 31.78125 6.390625 
Q 39.453125 6.390625 43.28125 13.890625 
Q 47.125 21.390625 47.125 36.375 
Q 47.125 51.421875 43.28125 58.90625 
Q 39.453125 66.40625 31.78125 66.40625 
z
M 31.78125 74.21875 
Q 44.046875 74.21875 50.515625 64.515625 
Q 56.984375 54.828125 56.984375 36.375 
Q 56.984375 17.96875 50.515625 8.265625 
Q 44.046875 -1.421875 31.78125 -1.421875 
Q 19.53125 -1.421875 13.0625 8.265625 
Q 6.59375 17.96875 6.59375 36.375 
Q 6.59375 54.828125 13.0625 64.515625 
Q 19.53125 74.21875 31.78125 74.21875 
z
" id="DejaVuSans-48"/>
       <path d="M 10.6875 12.40625 
L 21 12.40625 
L 21 0 
L 10.6875 0 
z
" id="DejaVuSans-46"/>
      </defs>
      <g transform="translate(55.42617 239.238438)scale(0.1 -0.1)">
       <use xlink:href="#DejaVuSans-48"/>
       <use x="63.623047" xlink:href="#DejaVuSans-46"/>
       <use x="95.410156" xlink:href="#DejaVuSans-48"/>
      </g>
     </g>
    </g>
    <g id="xtick_2">
     <g id="line2d_2">
      <g>
       <use style="stroke:#000000;stroke-width:0.8;" x="114.017344" xlink:href="#m01e5aa65eb" y="224.64"/>
      </g>
     </g>
     <g id="text_2">
      <!-- 0.5 -->
      <defs>
       <path d="M 10.796875 72.90625 
L 49.515625 72.90625 
L 49.515625 64.59375 
L 19.828125 64.59375 
L 19.828125 46.734375 
Q 21.96875 47.46875 24.109375 47.828125 
Q 26.265625 48.1875 28.421875 48.1875 
Q 40.625 48.1875 47.75 41.5 
Q 54.890625 34.8125 54.890625 23.390625 
Q 54.890625 11.625 47.5625 5.09375 
Q 40.234375 -1.421875 26.90625 -1.421875 
Q 22.3125 -1.421875 17.546875 -0.640625 
Q 12.796875 0.140625 7.71875 1.703125 
L 7.71875 11.625 
Q 12.109375 9.234375 16.796875 8.0625 
Q 21.484375 6.890625 26.703125 6.890625 
Q 35.15625 6.890625 40.078125 11.328125 
Q 45.015625 15.765625 45.015625 23.390625 
Q 45.015625 31 40.078125 35.4375 
Q 35.15625 39.890625 26.703125 39.890625 
Q 22.75 39.890625 18.8125 39.015625 
Q 14.890625 38.140625 10.796875 36.28125 
z
" id="DejaVuSans-53"/>
      </defs>
      <g transform="translate(106.065781 239.238438)scale(0.1 -0.1)">
       <use xlink:href="#DejaVuSans-48"/>
       <use x="63.623047" xlink:href="#DejaVuSans-46"/>
       <use x="95.410156" xlink:href="#DejaVuSans-53"/>
      </g>
     </g>
    </g>
    <g id="xtick_3">
     <g id="line2d_3">
      <g>
       <use style="stroke:#000000;stroke-width:0.8;" x="164.656956" xlink:href="#m01e5aa65eb" y="224.64"/>
      </g>
     </g>
     <g id="text_3">
      <!-- 1.0 -->
      <defs>
       <path d="M 12.40625 8.296875 
L 28.515625 8.296875 
L 28.515625 63.921875 
L 10.984375 60.40625 
L 10.984375 69.390625 
L 28.421875 72.90625 
L 38.28125 72.90625 
L 38.28125 8.296875 
L 54.390625 8.296875 
L 54.390625 0 
L 12.40625 0 
z
" id="DejaVuSans-49"/>
      </defs>
      <g transform="translate(156.705393 239.238438)scale(0.1 -0.1)">
       <use xlink:href="#DejaVuSans-49"/>
       <use x="63.623047" xlink:href="#DejaVuSans-46"/>
       <use x="95.410156" xlink:href="#DejaVuSans-48"/>
      </g>
     </g>
    </g>
    <g id="xtick_4">
     <g id="line2d_4">
      <g>
       <use style="stroke:#000000;stroke-width:0.8;" x="215.296568" xlink:href="#m01e5aa65eb" y="224.64"/>
      </g>
     </g>
     <g id="text_4">
      <!-- 1.5 -->
      <g transform="translate(207.345005 239.238438)scale(0.1 -0.1)">
       <use xlink:href="#DejaVuSans-49"/>
       <use x="63.623047" xlink:href="#DejaVuSans-46"/>
       <use x="95.410156" xlink:href="#DejaVuSans-53"/>
      </g>
     </g>
    </g>
    <g id="xtick_5">
     <g id="line2d_5">
      <g>
       <use style="stroke:#000000;stroke-width:0.8;" x="265.936179" xlink:href="#m01e5aa65eb" y="224.64"/>
      </g>
     </g>
     <g id="text_5">
      <!-- 2.0 -->
      <defs>
       <path d="M 19.1875 8.296875 
L 53.609375 8.296875 
L 53.609375 0 
L 7.328125 0 
L 7.328125 8.296875 
Q 12.9375 14.109375 22.625 23.890625 
Q 32.328125 33.6875 34.8125 36.53125 
Q 39.546875 41.84375 41.421875 45.53125 
Q 43.3125 49.21875 43.3125 52.78125 
Q 43.3125 58.59375 39.234375 62.25 
Q 35.15625 65.921875 28.609375 65.921875 
Q 23.96875 65.921875 18.8125 64.3125 
Q 13.671875 62.703125 7.8125 59.421875 
L 7.8125 69.390625 
Q 13.765625 71.78125 18.9375 73 
Q 24.125 74.21875 28.421875 74.21875 
Q 39.75 74.21875 46.484375 68.546875 
Q 53.21875 62.890625 53.21875 53.421875 
Q 53.21875 48.921875 51.53125 44.890625 
Q 49.859375 40.875 45.40625 35.40625 
Q 44.1875 33.984375 37.640625 27.21875 
Q 31.109375 20.453125 19.1875 8.296875 
z
" id="DejaVuSans-50"/>
      </defs>
      <g transform="translate(257.984617 239.238438)scale(0.1 -0.1)">
       <use xlink:href="#DejaVuSans-50"/>
       <use x="63.623047" xlink:href="#DejaVuSans-46"/>
       <use x="95.410156" xlink:href="#DejaVuSans-48"/>
      </g>
     </g>
    </g>
    <g id="xtick_6">
     <g id="line2d_6">
      <g>
       <use style="stroke:#000000;stroke-width:0.8;" x="316.575791" xlink:href="#m01e5aa65eb" y="224.64"/>
      </g>
     </g>
     <g id="text_6">
      <!-- 2.5 -->
      <g transform="translate(308.624229 239.238438)scale(0.1 -0.1)">
       <use xlink:href="#DejaVuSans-50"/>
       <use x="63.623047" xlink:href="#DejaVuSans-46"/>
       <use x="95.410156" xlink:href="#DejaVuSans-53"/>
      </g>
     </g>
    </g>
    <g id="xtick_7">
     <g id="line2d_7">
      <g>
       <use style="stroke:#000000;stroke-width:0.8;" x="367.215403" xlink:href="#m01e5aa65eb" y="224.64"/>
      </g>
     </g>
     <g id="text_7">
      <!-- 3.0 -->
      <defs>
       <path d="M 40.578125 39.3125 
Q 47.65625 37.796875 51.625 33 
Q 55.609375 28.21875 55.609375 21.1875 
Q 55.609375 10.40625 48.1875 4.484375 
Q 40.765625 -1.421875 27.09375 -1.421875 
Q 22.515625 -1.421875 17.65625 -0.515625 
Q 12.796875 0.390625 7.625 2.203125 
L 7.625 11.71875 
Q 11.71875 9.328125 16.59375 8.109375 
Q 21.484375 6.890625 26.8125 6.890625 
Q 36.078125 6.890625 40.9375 10.546875 
Q 45.796875 14.203125 45.796875 21.1875 
Q 45.796875 27.640625 41.28125 31.265625 
Q 36.765625 34.90625 28.71875 34.90625 
L 20.21875 34.90625 
L 20.21875 43.015625 
L 29.109375 43.015625 
Q 36.375 43.015625 40.234375 45.921875 
Q 44.09375 48.828125 44.09375 54.296875 
Q 44.09375 59.90625 40.109375 62.90625 
Q 36.140625 65.921875 28.71875 65.921875 
Q 24.65625 65.921875 20.015625 65.03125 
Q 15.375 64.15625 9.8125 62.3125 
L 9.8125 71.09375 
Q 15.4375 72.65625 20.34375 73.4375 
Q 25.25 74.21875 29.59375 74.21875 
Q 40.828125 74.21875 47.359375 69.109375 
Q 53.90625 64.015625 53.90625 55.328125 
Q 53.90625 49.265625 50.4375 45.09375 
Q 46.96875 40.921875 40.578125 39.3125 
z
" id="DejaVuSans-51"/>
      </defs>
      <g transform="translate(359.26384 239.238438)scale(0.1 -0.1)">
       <use xlink:href="#DejaVuSans-51"/>
       <use x="63.623047" xlink:href="#DejaVuSans-46"/>
       <use x="95.410156" xlink:href="#DejaVuSans-48"/>
      </g>
     </g>
    </g>
    <g id="xtick_8">
     <g id="line2d_8">
      <g>
       <use style="stroke:#000000;stroke-width:0.8;" x="417.855015" xlink:href="#m01e5aa65eb" y="224.64"/>
      </g>
     </g>
     <g id="text_8">
      <!-- 3.5 -->
      <g transform="translate(409.903452 239.238438)scale(0.1 -0.1)">
       <use xlink:href="#DejaVuSans-51"/>
       <use x="63.623047" xlink:href="#DejaVuSans-46"/>
       <use x="95.410156" xlink:href="#DejaVuSans-53"/>
      </g>
     </g>
    </g>
   </g>
   <g id="matplotlib.axis_2">
    <g id="ytick_1">
     <g id="line2d_9">
      <defs>
       <path d="M 0 0 
L -3.5 0 
" id="mabc780538a" style="stroke:#000000;stroke-width:0.8;"/>
      </defs>
      <g>
       <use style="stroke:#000000;stroke-width:0.8;" x="44.845313" xlink:href="#mabc780538a" y="206.322967"/>
      </g>
     </g>
     <g id="text_9">
      <!-- −0.75 -->
      <defs>
       <path d="M 10.59375 35.5 
L 73.1875 35.5 
L 73.1875 27.203125 
L 10.59375 27.203125 
z
" id="DejaVuSans-8722"/>
       <path d="M 8.203125 72.90625 
L 55.078125 72.90625 
L 55.078125 68.703125 
L 28.609375 0 
L 18.3125 0 
L 43.21875 64.59375 
L 8.203125 64.59375 
z
" id="DejaVuSans-55"/>
      </defs>
      <g transform="translate(7.2 210.122186)scale(0.1 -0.1)">
       <use xlink:href="#DejaVuSans-8722"/>
       <use x="83.789062" xlink:href="#DejaVuSans-48"/>
       <use x="147.412109" xlink:href="#DejaVuSans-46"/>
       <use x="179.199219" xlink:href="#DejaVuSans-55"/>
       <use x="242.822266" xlink:href="#DejaVuSans-53"/>
      </g>
     </g>
    </g>
    <g id="ytick_2">
     <g id="line2d_10">
      <g>
       <use style="stroke:#000000;stroke-width:0.8;" x="44.845313" xlink:href="#mabc780538a" y="180.157066"/>
      </g>
     </g>
     <g id="text_10">
      <!-- −0.50 -->
      <g transform="translate(7.2 183.956285)scale(0.1 -0.1)">
       <use xlink:href="#DejaVuSans-8722"/>
       <use x="83.789062" xlink:href="#DejaVuSans-48"/>
       <use x="147.412109" xlink:href="#DejaVuSans-46"/>
       <use x="179.199219" xlink:href="#DejaVuSans-53"/>
       <use x="242.822266" xlink:href="#DejaVuSans-48"/>
      </g>
     </g>
    </g>
    <g id="ytick_3">
     <g id="line2d_11">
      <g>
       <use style="stroke:#000000;stroke-width:0.8;" x="44.845313" xlink:href="#mabc780538a" y="153.991166"/>
      </g>
     </g>
     <g id="text_11">
      <!-- −0.25 -->
      <g transform="translate(7.2 157.790384)scale(0.1 -0.1)">
       <use xlink:href="#DejaVuSans-8722"/>
       <use x="83.789062" xlink:href="#DejaVuSans-48"/>
       <use x="147.412109" xlink:href="#DejaVuSans-46"/>
       <use x="179.199219" xlink:href="#DejaVuSans-50"/>
       <use x="242.822266" xlink:href="#DejaVuSans-53"/>
      </g>
     </g>
    </g>
    <g id="ytick_4">
     <g id="line2d_12">
      <g>
       <use style="stroke:#000000;stroke-width:0.8;" x="44.845313" xlink:href="#mabc780538a" y="127.825265"/>
      </g>
     </g>
     <g id="text_12">
      <!-- 0.00 -->
      <g transform="translate(15.579688 131.624484)scale(0.1 -0.1)">
       <use xlink:href="#DejaVuSans-48"/>
       <use x="63.623047" xlink:href="#DejaVuSans-46"/>
       <use x="95.410156" xlink:href="#DejaVuSans-48"/>
       <use x="159.033203" xlink:href="#DejaVuSans-48"/>
      </g>
     </g>
    </g>
    <g id="ytick_5">
     <g id="line2d_13">
      <g>
       <use style="stroke:#000000;stroke-width:0.8;" x="44.845313" xlink:href="#mabc780538a" y="101.659364"/>
      </g>
     </g>
     <g id="text_13">
      <!-- 0.25 -->
      <g transform="translate(15.579688 105.458583)scale(0.1 -0.1)">
       <use xlink:href="#DejaVuSans-48"/>
       <use x="63.623047" xlink:href="#DejaVuSans-46"/>
       <use x="95.410156" xlink:href="#DejaVuSans-50"/>
       <use x="159.033203" xlink:href="#DejaVuSans-53"/>
      </g>
     </g>
    </g>
    <g id="ytick_6">
     <g id="line2d_14">
      <g>
       <use style="stroke:#000000;stroke-width:0.8;" x="44.845313" xlink:href="#mabc780538a" y="75.493464"/>
      </g>
     </g>
     <g id="text_14">
      <!-- 0.50 -->
      <g transform="translate(15.579688 79.292682)scale(0.1 -0.1)">
       <use xlink:href="#DejaVuSans-48"/>
       <use x="63.623047" xlink:href="#DejaVuSans-46"/>
       <use x="95.410156" xlink:href="#DejaVuSans-53"/>
       <use x="159.033203" xlink:href="#DejaVuSans-48"/>
      </g>
     </g>
    </g>
    <g id="ytick_7">
     <g id="line2d_15">
      <g>
       <use style="stroke:#000000;stroke-width:0.8;" x="44.845313" xlink:href="#mabc780538a" y="49.327563"/>
      </g>
     </g>
     <g id="text_15">
      <!-- 0.75 -->
      <g transform="translate(15.579688 53.126782)scale(0.1 -0.1)">
       <use xlink:href="#DejaVuSans-48"/>
       <use x="63.623047" xlink:href="#DejaVuSans-46"/>
       <use x="95.410156" xlink:href="#DejaVuSans-55"/>
       <use x="159.033203" xlink:href="#DejaVuSans-53"/>
      </g>
     </g>
    </g>
    <g id="ytick_8">
     <g id="line2d_16">
      <g>
       <use style="stroke:#000000;stroke-width:0.8;" x="44.845313" xlink:href="#mabc780538a" y="23.161662"/>
      </g>
     </g>
     <g id="text_16">
      <!-- 1.00 -->
      <g transform="translate(15.579688 26.960881)scale(0.1 -0.1)">
       <use xlink:href="#DejaVuSans-49"/>
       <use x="63.623047" xlink:href="#DejaVuSans-46"/>
       <use x="95.410156" xlink:href="#DejaVuSans-48"/>
       <use x="159.033203" xlink:href="#DejaVuSans-48"/>
      </g>
     </g>
    </g>
   </g>
   <g id="line2d_17">
    <path clip-path="url(#p915493081e)" d="M 63.377732 127.825265 
L 164.656956 127.825265 
L 215.296568 75.493464 
L 164.656956 23.161662 
L 63.377732 23.161662 
L 63.377732 127.825265 
" style="fill:none;stroke:#000000;stroke-linecap:square;stroke-width:1.5;"/>
   </g>
   <g id="line2d_18">
    <path clip-path="url(#p915493081e)" d="M 389.390544 205.97342 
L 411.463029 103.825632 
L 373.076891 41.346705 
L 312.618269 81.015566 
L 290.545784 183.163354 
L 389.390544 205.97342 
" style="fill:none;stroke:#0000ff;stroke-linecap:square;stroke-width:1.5;"/>
   </g>
   <g id="patch_3">
    <path d="M 44.845313 224.64 
L 44.845313 7.2 
" style="fill:none;stroke:#000000;stroke-linecap:square;stroke-linejoin:miter;stroke-width:0.8;"/>
   </g>
   <g id="patch_4">
    <path d="M 435.445312 224.64 
L 435.445312 7.2 
" style="fill:none;stroke:#000000;stroke-linecap:square;stroke-linejoin:miter;stroke-width:0.8;"/>
   </g>
   <g id="patch_5">
    <path d="M 44.845313 224.64 
L 435.445312 224.64 
" style="fill:none;stroke:#000000;stroke-linecap:square;stroke-linejoin:miter;stroke-width:0.8;"/>
   </g>
   <g id="patch_6">
    <path d="M 44.845313 7.2 
L 435.445312 7.2 
" style="fill:none;stroke:#000000;stroke-linecap:square;stroke-linejoin:miter;stroke-width:0.8;"/>
   </g>
   <g id="line2d_19">
    <path clip-path="url(#p915493081e)" d="M 389.390544 205.97342 
L 400.426786 154.899526 
" style="fill:none;stroke:#ff0000;stroke-linecap:square;stroke-width:3;"/>
   </g>
   <g id="line2d_20">
    <path clip-path="url(#p915493081e)" d="M 389.390544 205.97342 
L 339.968164 194.568387 
" style="fill:none;stroke:#008000;stroke-linecap:square;stroke-width:3;"/>
   </g>
   <g id="PathCollection_3">
    <g clip-path="url(#p915493081e)">
     <use style="stroke:#000000;" x="389.390544" xlink:href="#m7c572f4993" y="205.97342"/>
    </g>
   </g>
  </g>
 </g>
 <defs>
  <clipPath id="p915493081e">
   <rect height="217.44" width="390.6" x="44.845313" y="7.2"/>
  </clipPath>
 </defs>
</svg>
