<?xml version="1.0" encoding="utf-8" standalone="no"?>
<!DOCTYPE svg PUBLIC "-//W3C//DTD SVG 1.1//EN"
  "http://www.w3.org/Graphics/SVG/1.1/DTD/svg11.dtd">
<!-- Created with matplotlib (https://matplotlib.org/) -->
<svg height="481.07625pt" version="1.1" viewBox="0 0 471.022187 481.07625" width="471.022187pt" xmlns="http://www.w3.org/2000/svg" xmlns:xlink="http://www.w3.org/1999/xlink">
 <defs>
  <style type="text/css">
*{stroke-linecap:butt;stroke-linejoin:round;}
  </style>
 </defs>
 <g id="figure_1">
  <g id="patch_1">
   <path d="M 0 481.07625 
L 471.022187 481.07625 
L 471.022187 0 
L 0 0 
z
" style="fill:none;"/>
  </g>
  <g id="axes_1">
   <g id="patch_2">
    <path d="M 28.942188 457.198125 
L 463.822187 457.198125 
L 463.822187 22.318125 
L 28.942188 22.318125 
z
" style="fill:#ffffff;"/>
   </g>
   <g id="patch_3">
    <path clip-path="url(#p9c51aac3fc)" d="M 159.406187 326.734125 
L 202.894187 326.734125 
L 202.894187 152.782125 
L 159.406187 152.782125 
z
"/>
   </g>
   <g id="patch_4">
    <path clip-path="url(#p9c51aac3fc)" d="M 289.870187 196.270125 
L 333.358187 196.270125 
L 333.358187 109.294125 
L 289.870187 109.294125 
z
"/>
   </g>
   <g id="patch_5">
    <path clip-path="url(#p9c51aac3fc)" d="M 289.870187 196.270125 
L 411.636587 196.270125 
L 411.636587 174.526125 
L 289.870187 174.526125 
z
"/>
   </g>
   <g id="patch_6">
    <path clip-path="url(#p9c51aac3fc)" d="M 289.870187 304.990125 
L 411.636587 304.990125 
L 411.636587 283.246125 
L 289.870187 283.246125 
z
"/>
   </g>
   <g id="patch_7">
    <path clip-path="url(#p9c51aac3fc)" d="M 389.892587 283.246125 
L 411.636588 283.246125 
L 411.636588 218.014125 
L 389.892587 218.014125 
z
"/>
   </g>
   <g id="matplotlib.axis_1">
    <g id="xtick_1">
     <g id="line2d_1">
      <defs>
       <path d="M 0 0 
L 0 3.5 
" id="m5684587696" style="stroke:#000000;stroke-width:0.8;"/>
      </defs>
      <g>
       <use style="stroke:#000000;stroke-width:0.8;" x="72.430187" xlink:href="#m5684587696" y="457.198125"/>
      </g>
     </g>
     <g id="text_1">
      <!-- −4 -->
      <defs>
       <path d="M 10.59375 35.5 
L 73.1875 35.5 
L 73.1875 27.203125 
L 10.59375 27.203125 
z
" id="DejaVuSans-8722"/>
       <path d="M 37.796875 64.3125 
L 12.890625 25.390625 
L 37.796875 25.390625 
z
M 35.203125 72.90625 
L 47.609375 72.90625 
L 47.609375 25.390625 
L 58.015625 25.390625 
L 58.015625 17.1875 
L 47.609375 17.1875 
L 47.609375 0 
L 37.796875 0 
L 37.796875 17.1875 
L 4.890625 17.1875 
L 4.890625 26.703125 
z
" id="DejaVuSans-52"/>
      </defs>
      <g transform="translate(65.059094 471.796562)scale(0.1 -0.1)">
       <use xlink:href="#DejaVuSans-8722"/>
       <use x="83.789062" xlink:href="#DejaVuSans-52"/>
      </g>
     </g>
    </g>
    <g id="xtick_2">
     <g id="line2d_2">
      <g>
       <use style="stroke:#000000;stroke-width:0.8;" x="159.406187" xlink:href="#m5684587696" y="457.198125"/>
      </g>
     </g>
     <g id="text_2">
      <!-- −2 -->
      <defs>
       <path d="M 19.1875 8.296875 
L 53.609375 8.296875 
L 53.609375 0 
L 7.328125 0 
L 7.328125 8.296875 
Q 12.9375 14.109375 22.625 23.890625 
Q 32.328125 33.6875 34.8125 36.53125 
Q 39.546875 41.84375 41.421875 45.53125 
Q 43.3125 49.21875 43.3125 52.78125 
Q 43.3125 58.59375 39.234375 62.25 
Q 35.15625 65.921875 28.609375 65.921875 
Q 23.96875 65.921875 18.8125 64.3125 
Q 13.671875 62.703125 7.8125 59.421875 
L 7.8125 69.390625 
Q 13.765625 71.78125 18.9375 73 
Q 24.125 74.21875 28.421875 74.21875 
Q 39.75 74.21875 46.484375 68.546875 
Q 53.21875 62.890625 53.21875 53.421875 
Q 53.21875 48.921875 51.53125 44.890625 
Q 49.859375 40.875 45.40625 35.40625 
Q 44.1875 33.984375 37.640625 27.21875 
Q 31.109375 20.453125 19.1875 8.296875 
z
" id="DejaVuSans-50"/>
      </defs>
      <g transform="translate(152.035094 471.796562)scale(0.1 -0.1)">
       <use xlink:href="#DejaVuSans-8722"/>
       <use x="83.789062" xlink:href="#DejaVuSans-50"/>
      </g>
     </g>
    </g>
    <g id="xtick_3">
     <g id="line2d_3">
      <g>
       <use style="stroke:#000000;stroke-width:0.8;" x="246.382187" xlink:href="#m5684587696" y="457.198125"/>
      </g>
     </g>
     <g id="text_3">
      <!-- 0 -->
      <defs>
       <path d="M 31.78125 66.40625 
Q 24.171875 66.40625 20.328125 58.90625 
Q 16.5 51.421875 16.5 36.375 
Q 16.5 21.390625 20.328125 13.890625 
Q 24.171875 6.390625 31.78125 6.390625 
Q 39.453125 6.390625 43.28125 13.890625 
Q 47.125 21.390625 47.125 36.375 
Q 47.125 51.421875 43.28125 58.90625 
Q 39.453125 66.40625 31.78125 66.40625 
z
M 31.78125 74.21875 
Q 44.046875 74.21875 50.515625 64.515625 
Q 56.984375 54.828125 56.984375 36.375 
Q 56.984375 17.96875 50.515625 8.265625 
Q 44.046875 -1.421875 31.78125 -1.421875 
Q 19.53125 -1.421875 13.0625 8.265625 
Q 6.59375 17.96875 6.59375 36.375 
Q 6.59375 54.828125 13.0625 64.515625 
Q 19.53125 74.21875 31.78125 74.21875 
z
" id="DejaVuSans-48"/>
      </defs>
      <g transform="translate(243.200937 471.796562)scale(0.1 -0.1)">
       <use xlink:href="#DejaVuSans-48"/>
      </g>
     </g>
    </g>
    <g id="xtick_4">
     <g id="line2d_4">
      <g>
       <use style="stroke:#000000;stroke-width:0.8;" x="333.358187" xlink:href="#m5684587696" y="457.198125"/>
      </g>
     </g>
     <g id="text_4">
      <!-- 2 -->
      <g transform="translate(330.176938 471.796562)scale(0.1 -0.1)">
       <use xlink:href="#DejaVuSans-50"/>
      </g>
     </g>
    </g>
    <g id="xtick_5">
     <g id="line2d_5">
      <g>
       <use style="stroke:#000000;stroke-width:0.8;" x="420.334187" xlink:href="#m5684587696" y="457.198125"/>
      </g>
     </g>
     <g id="text_5">
      <!-- 4 -->
      <g transform="translate(417.152938 471.796562)scale(0.1 -0.1)">
       <use xlink:href="#DejaVuSans-52"/>
      </g>
     </g>
    </g>
   </g>
   <g id="matplotlib.axis_2">
    <g id="ytick_1">
     <g id="line2d_6">
      <defs>
       <path d="M 0 0 
L -3.5 0 
" id="m79f2804552" style="stroke:#000000;stroke-width:0.8;"/>
      </defs>
      <g>
       <use style="stroke:#000000;stroke-width:0.8;" x="28.942188" xlink:href="#m79f2804552" y="413.710125"/>
      </g>
     </g>
     <g id="text_6">
      <!-- −4 -->
      <g transform="translate(7.2 417.509344)scale(0.1 -0.1)">
       <use xlink:href="#DejaVuSans-8722"/>
       <use x="83.789062" xlink:href="#DejaVuSans-52"/>
      </g>
     </g>
    </g>
    <g id="ytick_2">
     <g id="line2d_7">
      <g>
       <use style="stroke:#000000;stroke-width:0.8;" x="28.942188" xlink:href="#m79f2804552" y="326.734125"/>
      </g>
     </g>
     <g id="text_7">
      <!-- −2 -->
      <g transform="translate(7.2 330.533344)scale(0.1 -0.1)">
       <use xlink:href="#DejaVuSans-8722"/>
       <use x="83.789062" xlink:href="#DejaVuSans-50"/>
      </g>
     </g>
    </g>
    <g id="ytick_3">
     <g id="line2d_8">
      <g>
       <use style="stroke:#000000;stroke-width:0.8;" x="28.942188" xlink:href="#m79f2804552" y="239.758125"/>
      </g>
     </g>
     <g id="text_8">
      <!-- 0 -->
      <g transform="translate(15.579688 243.557344)scale(0.1 -0.1)">
       <use xlink:href="#DejaVuSans-48"/>
      </g>
     </g>
    </g>
    <g id="ytick_4">
     <g id="line2d_9">
      <g>
       <use style="stroke:#000000;stroke-width:0.8;" x="28.942188" xlink:href="#m79f2804552" y="152.782125"/>
      </g>
     </g>
     <g id="text_9">
      <!-- 2 -->
      <g transform="translate(15.579688 156.581344)scale(0.1 -0.1)">
       <use xlink:href="#DejaVuSans-50"/>
      </g>
     </g>
    </g>
    <g id="ytick_5">
     <g id="line2d_10">
      <g>
       <use style="stroke:#000000;stroke-width:0.8;" x="28.942188" xlink:href="#m79f2804552" y="65.806125"/>
      </g>
     </g>
     <g id="text_10">
      <!-- 4 -->
      <g transform="translate(15.579688 69.605344)scale(0.1 -0.1)">
       <use xlink:href="#DejaVuSans-52"/>
      </g>
     </g>
    </g>
   </g>
   <g id="PathCollection_1">
    <defs>
     <path d="M 0 3 
C 0.795609 3 1.55874 2.683901 2.12132 2.12132 
C 2.683901 1.55874 3 0.795609 3 0 
C 3 -0.795609 2.683901 -1.55874 2.12132 -2.12132 
C 1.55874 -2.683901 0.795609 -3 0 -3 
C -0.795609 -3 -1.55874 -2.683901 -2.12132 -2.12132 
C -2.683901 -1.55874 -3 -0.795609 -3 0 
C -3 0.795609 -2.683901 1.55874 -2.12132 2.12132 
C -1.55874 2.683901 -0.795609 3 0 3 
z
" id="ma8edaaeecd" style="stroke:#ff0000;"/>
    </defs>
    <g clip-path="url(#p9c51aac3fc)">
     <use style="fill:#ff0000;stroke:#ff0000;" x="365.539308" xlink:href="#ma8edaaeecd" y="161.479725"/>
    </g>
   </g>
   <g id="line2d_11">
    <path clip-path="url(#p9c51aac3fc)" d="M 424.052709 272.500596 
L 421.228445 262.648525 
L 420.147481 253.479826 
L 422.295996 245.33859 
L 422.369 233.050351 
L 419.151515 222.694991 
L 420.750814 209.003971 
L 419.204726 196.846025 
L 418.209079 189.04085 
L 408.922926 177.741643 
L 408.886375 175.635139 
L 397.936917 165.815976 
L 393.825321 163.98189 
L 384.932539 156.929234 
L 373.918558 155.337224 
L 363.749589 154.556975 
L 362.162813 156.313151 
L 359.689392 157.123659 
L 361.601981 158.091667 
L 363.475388 158.63895 
L 361.732387 160.99413 
L 363.354477 162.918472 
L 363.369108 161.66794 
L 363.317715 160.518804 
L 361.746592 160.561273 
L 361.259834 162.864818 
L 356.845603 164.693324 
L 357.330076 162.662308 
L 356.559996 163.755721 
L 354.086058 165.232516 
L 364.33882 161.524882 
L 365.953857 160.468881 
L 364.821246 159.978601 
L 363.82284 161.672195 
L 365.093197 158.830494 
L 368.463902 156.193043 
L 364.863942 162.057709 
L 363.3396 164.804895 
L 361.74222 164.67932 
L 362.285286 167.577944 
" style="fill:none;stroke:#ff0000;stroke-dasharray:5.55,2.4;stroke-dashoffset:0;stroke-width:1.5;"/>
   </g>
   <g id="line2d_12">
    <path clip-path="url(#p9c51aac3fc)" d="M 233.336793 392.32964 
L 237.927548 380.580634 
L 241.548107 370.67068 
L 248.965209 360.332801 
L 251.634879 351.03003 
L 257.629268 342.402368 
L 266.831693 333.893972 
L 273.719025 326.275982 
L 278.54531 315.565881 
L 280.440501 308.222954 
L 282.765825 300.302537 
L 289.956416 290.287062 
L 283.636997 301.571998 
L 278.085693 300.690631 
L 269.319924 302.109498 
L 259.506348 298.681865 
L 253.854456 294.446538 
L 252.226512 283.607848 
L 252.178262 273.142436 
L 253.340721 264.40122 
L 260.754779 256.290534 
L 260.095905 249.281319 
L 265.691366 240.447139 
L 269.513497 233.197312 
L 276.826845 225.839188 
L 286.854233 218.504893 
L 297.330043 217.773952 
L 307.439088 216.651487 
L 313.999917 214.464789 
L 322.459126 214.753433 
L 333.25463 212.222396 
L 343.130549 209.732938 
L 355.041762 207.463665 
L 366.797387 211.204286 
L 378.097447 209.617272 
L 391.788207 207.175059 
L 402.824288 210.53086 
L 407.011548 205.370921 
L 414.463026 192.905488 
L 417.910173 186.642684 
" style="fill:none;stroke:#ff0000;stroke-dasharray:5.55,2.4;stroke-dashoffset:0;stroke-width:1.5;"/>
   </g>
   <g id="line2d_13">
    <path clip-path="url(#p9c51aac3fc)" d="M 342.363068 115.988351 
L 335.656355 129.811951 
L 336.795196 139.626379 
L 344.253444 149.550867 
L 354.691398 157.142171 
L 366.198827 156.575922 
L 366.758582 156.152497 
L 364.026126 155.302019 
L 365.541361 152.910175 
L 362.805153 153.524428 
L 362.265995 152.941149 
L 361.781621 155.126481 
L 358.969906 151.772012 
L 368.085111 158.458657 
L 367.403536 162.745335 
L 369.492689 163.076676 
L 368.825285 162.854134 
L 371.099842 162.325364 
L 370.576777 161.739143 
L 368.70031 158.096258 
L 368.687695 156.423708 
L 367.574913 153.502678 
L 365.395916 156.779229 
L 367.275556 155.641875 
L 370.049027 157.287544 
L 371.170299 158.504777 
L 373.090482 153.441451 
L 363.172737 160.26533 
L 360.210595 162.302122 
L 363.34878 157.155247 
L 360.549419 158.371046 
L 358.878432 162.128836 
L 360.816104 158.795147 
L 359.323475 161.388267 
L 361.942044 160.368782 
L 364.732497 162.285995 
L 362.228744 163.347085 
L 363.563631 166.785467 
L 365.837175 164.494686 
L 370.982339 166.41065 
" style="fill:none;stroke:#0000ff;stroke-dasharray:5.55,2.4;stroke-dashoffset:0;stroke-width:1.5;"/>
   </g>
   <g id="line2d_14">
    <path clip-path="url(#p9c51aac3fc)" d="M 71.871695 97.004404 
L 85.138864 98.912557 
L 98.822858 106.292227 
L 109.506553 103.094363 
L 120.93102 105.07922 
L 132.050104 107.683558 
L 144.410183 108.547167 
L 156.183188 107.424599 
L 164.985602 107.934651 
L 176.645192 106.84868 
L 190.025235 108.26623 
L 200.316121 113.829652 
L 208.581428 110.663387 
L 221.694256 111.0937 
L 239.024516 113.978795 
L 247.141734 113.543453 
L 259.163024 111.840322 
L 272.117619 111.903246 
L 285.14511 111.338388 
L 276.324336 110.85821 
L 264.131844 104.977221 
L 257.687467 95.514074 
L 259.851683 86.31325 
L 264.395431 78.212848 
L 273.418958 66.71021 
L 280.39924 60.549212 
L 292.597683 55.881423 
L 306.216044 55.124791 
L 314.712737 54.304 
L 322.664161 58.441859 
L 327.896466 68.523122 
L 338.236341 72.838534 
L 346.224944 83.975989 
L 353.350043 91.660937 
L 355.749811 101.562255 
L 359.770006 111.703954 
L 359.784992 123.019682 
L 361.147758 134.620211 
L 358.971507 141.41632 
L 366.592132 153.372819 
" style="fill:none;stroke:#0000ff;stroke-dasharray:5.55,2.4;stroke-dashoffset:0;stroke-width:1.5;"/>
   </g>
   <g id="line2d_15">
    <path clip-path="url(#p9c51aac3fc)" d="M 402.747734 111.741284 
L 399.723642 122.902634 
L 394.425985 131.189029 
L 388.081652 139.313167 
L 382.028598 148.998299 
L 372.39435 154.709407 
L 371.327836 154.730054 
L 369.611375 155.44264 
L 368.89201 152.722262 
L 370.768257 151.847489 
L 361.654299 162.749598 
L 362.301071 161.909263 
L 361.582503 159.569333 
L 362.829368 158.888416 
L 364.79055 158.724018 
L 359.474874 156.867387 
L 361.224072 158.355364 
L 362.095594 159.843837 
L 356.810357 162.529338 
L 358.405325 161.23814 
L 358.057153 163.005263 
L 356.834098 166.508856 
L 358.34224 163.545436 
L 356.668603 168.471894 
L 361.4165 158.327602 
L 362.205589 158.970476 
L 364.238484 160.644142 
L 364.075144 165.032328 
L 362.058077 165.289977 
L 361.551915 168.965081 
L 364.919063 170.056133 
L 364.126309 166.441358 
L 363.123769 164.765745 
L 364.338805 162.690167 
L 366.272428 162.864446 
L 365.557934 161.502969 
L 364.085079 161.248506 
L 363.095317 161.218769 
L 360.955064 161.817303 
L 363.583176 159.523092 
" style="fill:none;stroke:#0000ff;stroke-dasharray:5.55,2.4;stroke-dashoffset:0;stroke-width:1.5;"/>
   </g>
   <g id="line2d_16">
    <path clip-path="url(#p9c51aac3fc)" d="M 41.67975 225.123237 
L 51.284707 222.864491 
L 61.761148 223.155692 
L 69.234078 219.260127 
L 79.953789 214.287526 
L 89.718889 206.808639 
L 97.126682 204.391171 
L 100.866793 201.142337 
L 112.173398 199.031124 
L 121.976007 189.952674 
L 130.895024 183.506 
L 140.780104 176.045143 
L 145.556348 166.391045 
L 151.485912 155.655408 
L 156.815373 149.012098 
L 164.897429 141.825251 
L 171.783273 136.599318 
L 181.261605 132.180099 
L 187.993063 129.215087 
L 199.117863 126.313571 
L 206.77426 122.738523 
L 218.426951 119.482048 
L 230.09319 117.419769 
L 242.870428 113.877628 
L 253.447727 108.203019 
L 265.901598 106.433997 
L 277.197377 101.435205 
L 286.907814 98.550511 
L 300.039215 95.604374 
L 313.531784 87.852527 
L 321.415446 88.623253 
L 331.790728 89.924869 
L 345.362334 96.030989 
L 354.955536 105.577577 
L 362.299234 117.128862 
L 367.579348 128.572991 
L 365.236394 140.906763 
L 367.216424 153.42083 
L 363.418759 151.390893 
L 363.376254 148.199467 
" style="fill:none;stroke:#0000ff;stroke-dasharray:5.55,2.4;stroke-dashoffset:0;stroke-width:1.5;"/>
   </g>
   <g id="line2d_17">
    <path clip-path="url(#p9c51aac3fc)" d="M 256.191049 444.414905 
L 265.389656 451.21232 
L 274.446974 454.236148 
L 285.134034 452.031026 
L 288.739274 445.075786 
L 295.018531 439.245445 
L 301.968633 429.544361 
L 311.029196 419.658241 
L 316.693244 412.619164 
L 321.952641 401.302894 
L 328.473206 392.516749 
L 334.949075 380.993203 
L 341.861403 371.476131 
L 351.219877 362.850013 
L 359.547062 354.906611 
L 367.664449 350.184595 
L 376.42056 345.874181 
L 383.75657 339.79028 
L 390.709495 337.320175 
L 401.809156 328.923218 
L 407.652386 317.749593 
L 409.025541 311.222495 
L 409.906588 300.477834 
L 409.235274 297.990284 
L 412.499589 298.3556 
L 415.968194 286.280812 
L 416.877097 278.276503 
L 420.376532 271.813982 
L 426.126961 259.822783 
L 428.859687 244.211727 
L 424.983761 233.29457 
L 419.035323 221.990155 
L 417.721234 211.580958 
L 419.236111 203.208361 
L 415.906966 193.206142 
L 415.832985 182.023753 
L 414.138754 171.368073 
L 410.611803 164.369421 
L 404.517728 157.549282 
L 390.722085 155.984998 
" style="fill:none;stroke:#ff0000;stroke-dasharray:5.55,2.4;stroke-dashoffset:0;stroke-width:1.5;"/>
   </g>
   <g id="line2d_18">
    <path clip-path="url(#p9c51aac3fc)" d="M 95.439201 222.492879 
L 90.259935 209.514104 
L 85.020766 200.852668 
L 83.026625 192.700541 
L 88.067971 182.06046 
L 91.233424 169.980391 
L 96.238759 158.657261 
L 103.228674 148.849427 
L 113.237513 143.525133 
L 128.209766 140.954607 
L 140.928527 136.888298 
L 145.61642 132.137205 
L 152.025822 128.670167 
L 168.099983 124.638146 
L 175.772687 122.524135 
L 183.735502 118.524549 
L 195.444392 117.092594 
L 206.968671 110.616762 
L 215.80926 110.463396 
L 223.906014 114.543695 
L 234.693289 112.965806 
L 246.431603 111.639378 
L 257.921814 111.780119 
L 269.538023 110.962479 
L 279.304386 107.502722 
L 290.562969 102.909735 
L 300.796662 100.892487 
L 311.992392 102.278857 
L 323.480568 103.836849 
L 336.624457 107.289482 
L 345.94638 114.404052 
L 352.110819 124.282907 
L 360.007318 140.503709 
L 368.804486 150.911577 
L 375.079091 159.40304 
L 374.492004 157.013973 
L 374.121369 156.436979 
L 373.066177 158.556044 
L 372.126944 160.964875 
L 373.043466 161.846877 
" style="fill:none;stroke:#0000ff;stroke-dasharray:5.55,2.4;stroke-dashoffset:0;stroke-width:1.5;"/>
   </g>
   <g id="patch_8">
    <path d="M 28.942188 457.198125 
L 28.942188 22.318125 
" style="fill:none;stroke:#000000;stroke-linecap:square;stroke-linejoin:miter;stroke-width:0.8;"/>
   </g>
   <g id="patch_9">
    <path d="M 463.822187 457.198125 
L 463.822187 22.318125 
" style="fill:none;stroke:#000000;stroke-linecap:square;stroke-linejoin:miter;stroke-width:0.8;"/>
   </g>
   <g id="patch_10">
    <path d="M 28.942187 457.198125 
L 463.822187 457.198125 
" style="fill:none;stroke:#000000;stroke-linecap:square;stroke-linejoin:miter;stroke-width:0.8;"/>
   </g>
   <g id="patch_11">
    <path d="M 28.942187 22.318125 
L 463.822187 22.318125 
" style="fill:none;stroke:#000000;stroke-linecap:square;stroke-linejoin:miter;stroke-width:0.8;"/>
   </g>
   <g id="text_11">
    <!-- Traces of DWA, with perturbations -->
    <defs>
     <path d="M -0.296875 72.90625 
L 61.375 72.90625 
L 61.375 64.59375 
L 35.5 64.59375 
L 35.5 0 
L 25.59375 0 
L 25.59375 64.59375 
L -0.296875 64.59375 
z
" id="DejaVuSans-84"/>
     <path d="M 41.109375 46.296875 
Q 39.59375 47.171875 37.8125 47.578125 
Q 36.03125 48 33.890625 48 
Q 26.265625 48 22.1875 43.046875 
Q 18.109375 38.09375 18.109375 28.8125 
L 18.109375 0 
L 9.078125 0 
L 9.078125 54.6875 
L 18.109375 54.6875 
L 18.109375 46.1875 
Q 20.953125 51.171875 25.484375 53.578125 
Q 30.03125 56 36.53125 56 
Q 37.453125 56 38.578125 55.875 
Q 39.703125 55.765625 41.0625 55.515625 
z
" id="DejaVuSans-114"/>
     <path d="M 34.28125 27.484375 
Q 23.390625 27.484375 19.1875 25 
Q 14.984375 22.515625 14.984375 16.5 
Q 14.984375 11.71875 18.140625 8.90625 
Q 21.296875 6.109375 26.703125 6.109375 
Q 34.1875 6.109375 38.703125 11.40625 
Q 43.21875 16.703125 43.21875 25.484375 
L 43.21875 27.484375 
z
M 52.203125 31.203125 
L 52.203125 0 
L 43.21875 0 
L 43.21875 8.296875 
Q 40.140625 3.328125 35.546875 0.953125 
Q 30.953125 -1.421875 24.3125 -1.421875 
Q 15.921875 -1.421875 10.953125 3.296875 
Q 6 8.015625 6 15.921875 
Q 6 25.140625 12.171875 29.828125 
Q 18.359375 34.515625 30.609375 34.515625 
L 43.21875 34.515625 
L 43.21875 35.40625 
Q 43.21875 41.609375 39.140625 45 
Q 35.0625 48.390625 27.6875 48.390625 
Q 23 48.390625 18.546875 47.265625 
Q 14.109375 46.140625 10.015625 43.890625 
L 10.015625 52.203125 
Q 14.9375 54.109375 19.578125 55.046875 
Q 24.21875 56 28.609375 56 
Q 40.484375 56 46.34375 49.84375 
Q 52.203125 43.703125 52.203125 31.203125 
z
" id="DejaVuSans-97"/>
     <path d="M 48.78125 52.59375 
L 48.78125 44.1875 
Q 44.96875 46.296875 41.140625 47.34375 
Q 37.3125 48.390625 33.40625 48.390625 
Q 24.65625 48.390625 19.8125 42.84375 
Q 14.984375 37.3125 14.984375 27.296875 
Q 14.984375 17.28125 19.8125 11.734375 
Q 24.65625 6.203125 33.40625 6.203125 
Q 37.3125 6.203125 41.140625 7.25 
Q 44.96875 8.296875 48.78125 10.40625 
L 48.78125 2.09375 
Q 45.015625 0.34375 40.984375 -0.53125 
Q 36.96875 -1.421875 32.421875 -1.421875 
Q 20.0625 -1.421875 12.78125 6.34375 
Q 5.515625 14.109375 5.515625 27.296875 
Q 5.515625 40.671875 12.859375 48.328125 
Q 20.21875 56 33.015625 56 
Q 37.15625 56 41.109375 55.140625 
Q 45.0625 54.296875 48.78125 52.59375 
z
" id="DejaVuSans-99"/>
     <path d="M 56.203125 29.59375 
L 56.203125 25.203125 
L 14.890625 25.203125 
Q 15.484375 15.921875 20.484375 11.0625 
Q 25.484375 6.203125 34.421875 6.203125 
Q 39.59375 6.203125 44.453125 7.46875 
Q 49.3125 8.734375 54.109375 11.28125 
L 54.109375 2.78125 
Q 49.265625 0.734375 44.1875 -0.34375 
Q 39.109375 -1.421875 33.890625 -1.421875 
Q 20.796875 -1.421875 13.15625 6.1875 
Q 5.515625 13.8125 5.515625 26.8125 
Q 5.515625 40.234375 12.765625 48.109375 
Q 20.015625 56 32.328125 56 
Q 43.359375 56 49.78125 48.890625 
Q 56.203125 41.796875 56.203125 29.59375 
z
M 47.21875 32.234375 
Q 47.125 39.59375 43.09375 43.984375 
Q 39.0625 48.390625 32.421875 48.390625 
Q 24.90625 48.390625 20.390625 44.140625 
Q 15.875 39.890625 15.1875 32.171875 
z
" id="DejaVuSans-101"/>
     <path d="M 44.28125 53.078125 
L 44.28125 44.578125 
Q 40.484375 46.53125 36.375 47.5 
Q 32.28125 48.484375 27.875 48.484375 
Q 21.1875 48.484375 17.84375 46.4375 
Q 14.5 44.390625 14.5 40.28125 
Q 14.5 37.15625 16.890625 35.375 
Q 19.28125 33.59375 26.515625 31.984375 
L 29.59375 31.296875 
Q 39.15625 29.25 43.1875 25.515625 
Q 47.21875 21.78125 47.21875 15.09375 
Q 47.21875 7.46875 41.1875 3.015625 
Q 35.15625 -1.421875 24.609375 -1.421875 
Q 20.21875 -1.421875 15.453125 -0.5625 
Q 10.6875 0.296875 5.421875 2 
L 5.421875 11.28125 
Q 10.40625 8.6875 15.234375 7.390625 
Q 20.0625 6.109375 24.8125 6.109375 
Q 31.15625 6.109375 34.5625 8.28125 
Q 37.984375 10.453125 37.984375 14.40625 
Q 37.984375 18.0625 35.515625 20.015625 
Q 33.0625 21.96875 24.703125 23.78125 
L 21.578125 24.515625 
Q 13.234375 26.265625 9.515625 29.90625 
Q 5.8125 33.546875 5.8125 39.890625 
Q 5.8125 47.609375 11.28125 51.796875 
Q 16.75 56 26.8125 56 
Q 31.78125 56 36.171875 55.265625 
Q 40.578125 54.546875 44.28125 53.078125 
z
" id="DejaVuSans-115"/>
     <path id="DejaVuSans-32"/>
     <path d="M 30.609375 48.390625 
Q 23.390625 48.390625 19.1875 42.75 
Q 14.984375 37.109375 14.984375 27.296875 
Q 14.984375 17.484375 19.15625 11.84375 
Q 23.34375 6.203125 30.609375 6.203125 
Q 37.796875 6.203125 41.984375 11.859375 
Q 46.1875 17.53125 46.1875 27.296875 
Q 46.1875 37.015625 41.984375 42.703125 
Q 37.796875 48.390625 30.609375 48.390625 
z
M 30.609375 56 
Q 42.328125 56 49.015625 48.375 
Q 55.71875 40.765625 55.71875 27.296875 
Q 55.71875 13.875 49.015625 6.21875 
Q 42.328125 -1.421875 30.609375 -1.421875 
Q 18.84375 -1.421875 12.171875 6.21875 
Q 5.515625 13.875 5.515625 27.296875 
Q 5.515625 40.765625 12.171875 48.375 
Q 18.84375 56 30.609375 56 
z
" id="DejaVuSans-111"/>
     <path d="M 37.109375 75.984375 
L 37.109375 68.5 
L 28.515625 68.5 
Q 23.6875 68.5 21.796875 66.546875 
Q 19.921875 64.59375 19.921875 59.515625 
L 19.921875 54.6875 
L 34.71875 54.6875 
L 34.71875 47.703125 
L 19.921875 47.703125 
L 19.921875 0 
L 10.890625 0 
L 10.890625 47.703125 
L 2.296875 47.703125 
L 2.296875 54.6875 
L 10.890625 54.6875 
L 10.890625 58.5 
Q 10.890625 67.625 15.140625 71.796875 
Q 19.390625 75.984375 28.609375 75.984375 
z
" id="DejaVuSans-102"/>
     <path d="M 19.671875 64.796875 
L 19.671875 8.109375 
L 31.59375 8.109375 
Q 46.6875 8.109375 53.6875 14.9375 
Q 60.6875 21.78125 60.6875 36.53125 
Q 60.6875 51.171875 53.6875 57.984375 
Q 46.6875 64.796875 31.59375 64.796875 
z
M 9.8125 72.90625 
L 30.078125 72.90625 
Q 51.265625 72.90625 61.171875 64.09375 
Q 71.09375 55.28125 71.09375 36.53125 
Q 71.09375 17.671875 61.125 8.828125 
Q 51.171875 0 30.078125 0 
L 9.8125 0 
z
" id="DejaVuSans-68"/>
     <path d="M 3.328125 72.90625 
L 13.28125 72.90625 
L 28.609375 11.28125 
L 43.890625 72.90625 
L 54.984375 72.90625 
L 70.3125 11.28125 
L 85.59375 72.90625 
L 95.609375 72.90625 
L 77.296875 0 
L 64.890625 0 
L 49.515625 63.28125 
L 33.984375 0 
L 21.578125 0 
z
" id="DejaVuSans-87"/>
     <path d="M 34.1875 63.1875 
L 20.796875 26.90625 
L 47.609375 26.90625 
z
M 28.609375 72.90625 
L 39.796875 72.90625 
L 67.578125 0 
L 57.328125 0 
L 50.6875 18.703125 
L 17.828125 18.703125 
L 11.1875 0 
L 0.78125 0 
z
" id="DejaVuSans-65"/>
     <path d="M 11.71875 12.40625 
L 22.015625 12.40625 
L 22.015625 4 
L 14.015625 -11.625 
L 7.71875 -11.625 
L 11.71875 4 
z
" id="DejaVuSans-44"/>
     <path d="M 4.203125 54.6875 
L 13.1875 54.6875 
L 24.421875 12.015625 
L 35.59375 54.6875 
L 46.1875 54.6875 
L 57.421875 12.015625 
L 68.609375 54.6875 
L 77.59375 54.6875 
L 63.28125 0 
L 52.6875 0 
L 40.921875 44.828125 
L 29.109375 0 
L 18.5 0 
z
" id="DejaVuSans-119"/>
     <path d="M 9.421875 54.6875 
L 18.40625 54.6875 
L 18.40625 0 
L 9.421875 0 
z
M 9.421875 75.984375 
L 18.40625 75.984375 
L 18.40625 64.59375 
L 9.421875 64.59375 
z
" id="DejaVuSans-105"/>
     <path d="M 18.3125 70.21875 
L 18.3125 54.6875 
L 36.8125 54.6875 
L 36.8125 47.703125 
L 18.3125 47.703125 
L 18.3125 18.015625 
Q 18.3125 11.328125 20.140625 9.421875 
Q 21.96875 7.515625 27.59375 7.515625 
L 36.8125 7.515625 
L 36.8125 0 
L 27.59375 0 
Q 17.1875 0 13.234375 3.875 
Q 9.28125 7.765625 9.28125 18.015625 
L 9.28125 47.703125 
L 2.6875 47.703125 
L 2.6875 54.6875 
L 9.28125 54.6875 
L 9.28125 70.21875 
z
" id="DejaVuSans-116"/>
     <path d="M 54.890625 33.015625 
L 54.890625 0 
L 45.90625 0 
L 45.90625 32.71875 
Q 45.90625 40.484375 42.875 44.328125 
Q 39.84375 48.1875 33.796875 48.1875 
Q 26.515625 48.1875 22.3125 43.546875 
Q 18.109375 38.921875 18.109375 30.90625 
L 18.109375 0 
L 9.078125 0 
L 9.078125 75.984375 
L 18.109375 75.984375 
L 18.109375 46.1875 
Q 21.34375 51.125 25.703125 53.5625 
Q 30.078125 56 35.796875 56 
Q 45.21875 56 50.046875 50.171875 
Q 54.890625 44.34375 54.890625 33.015625 
z
" id="DejaVuSans-104"/>
     <path d="M 18.109375 8.203125 
L 18.109375 -20.796875 
L 9.078125 -20.796875 
L 9.078125 54.6875 
L 18.109375 54.6875 
L 18.109375 46.390625 
Q 20.953125 51.265625 25.265625 53.625 
Q 29.59375 56 35.59375 56 
Q 45.5625 56 51.78125 48.09375 
Q 58.015625 40.1875 58.015625 27.296875 
Q 58.015625 14.40625 51.78125 6.484375 
Q 45.5625 -1.421875 35.59375 -1.421875 
Q 29.59375 -1.421875 25.265625 0.953125 
Q 20.953125 3.328125 18.109375 8.203125 
z
M 48.6875 27.296875 
Q 48.6875 37.203125 44.609375 42.84375 
Q 40.53125 48.484375 33.40625 48.484375 
Q 26.265625 48.484375 22.1875 42.84375 
Q 18.109375 37.203125 18.109375 27.296875 
Q 18.109375 17.390625 22.1875 11.75 
Q 26.265625 6.109375 33.40625 6.109375 
Q 40.53125 6.109375 44.609375 11.75 
Q 48.6875 17.390625 48.6875 27.296875 
z
" id="DejaVuSans-112"/>
     <path d="M 8.5 21.578125 
L 8.5 54.6875 
L 17.484375 54.6875 
L 17.484375 21.921875 
Q 17.484375 14.15625 20.5 10.265625 
Q 23.53125 6.390625 29.59375 6.390625 
Q 36.859375 6.390625 41.078125 11.03125 
Q 45.3125 15.671875 45.3125 23.6875 
L 45.3125 54.6875 
L 54.296875 54.6875 
L 54.296875 0 
L 45.3125 0 
L 45.3125 8.40625 
Q 42.046875 3.421875 37.71875 1 
Q 33.40625 -1.421875 27.6875 -1.421875 
Q 18.265625 -1.421875 13.375 4.4375 
Q 8.5 10.296875 8.5 21.578125 
z
M 31.109375 56 
z
" id="DejaVuSans-117"/>
     <path d="M 48.6875 27.296875 
Q 48.6875 37.203125 44.609375 42.84375 
Q 40.53125 48.484375 33.40625 48.484375 
Q 26.265625 48.484375 22.1875 42.84375 
Q 18.109375 37.203125 18.109375 27.296875 
Q 18.109375 17.390625 22.1875 11.75 
Q 26.265625 6.109375 33.40625 6.109375 
Q 40.53125 6.109375 44.609375 11.75 
Q 48.6875 17.390625 48.6875 27.296875 
z
M 18.109375 46.390625 
Q 20.953125 51.265625 25.265625 53.625 
Q 29.59375 56 35.59375 56 
Q 45.5625 56 51.78125 48.09375 
Q 58.015625 40.1875 58.015625 27.296875 
Q 58.015625 14.40625 51.78125 6.484375 
Q 45.5625 -1.421875 35.59375 -1.421875 
Q 29.59375 -1.421875 25.265625 0.953125 
Q 20.953125 3.328125 18.109375 8.203125 
L 18.109375 0 
L 9.078125 0 
L 9.078125 75.984375 
L 18.109375 75.984375 
z
" id="DejaVuSans-98"/>
     <path d="M 54.890625 33.015625 
L 54.890625 0 
L 45.90625 0 
L 45.90625 32.71875 
Q 45.90625 40.484375 42.875 44.328125 
Q 39.84375 48.1875 33.796875 48.1875 
Q 26.515625 48.1875 22.3125 43.546875 
Q 18.109375 38.921875 18.109375 30.90625 
L 18.109375 0 
L 9.078125 0 
L 9.078125 54.6875 
L 18.109375 54.6875 
L 18.109375 46.1875 
Q 21.34375 51.125 25.703125 53.5625 
Q 30.078125 56 35.796875 56 
Q 45.21875 56 50.046875 50.171875 
Q 54.890625 44.34375 54.890625 33.015625 
z
" id="DejaVuSans-110"/>
    </defs>
    <g transform="translate(143.079062 16.318125)scale(0.12 -0.12)">
     <use xlink:href="#DejaVuSans-84"/>
     <use x="60.865234" xlink:href="#DejaVuSans-114"/>
     <use x="101.978516" xlink:href="#DejaVuSans-97"/>
     <use x="163.257812" xlink:href="#DejaVuSans-99"/>
     <use x="218.238281" xlink:href="#DejaVuSans-101"/>
     <use x="279.761719" xlink:href="#DejaVuSans-115"/>
     <use x="331.861328" xlink:href="#DejaVuSans-32"/>
     <use x="363.648438" xlink:href="#DejaVuSans-111"/>
     <use x="424.830078" xlink:href="#DejaVuSans-102"/>
     <use x="460.035156" xlink:href="#DejaVuSans-32"/>
     <use x="491.822266" xlink:href="#DejaVuSans-68"/>
     <use x="568.824219" xlink:href="#DejaVuSans-87"/>
     <use x="667.623047" xlink:href="#DejaVuSans-65"/>
     <use x="736.03125" xlink:href="#DejaVuSans-44"/>
     <use x="767.818359" xlink:href="#DejaVuSans-32"/>
     <use x="799.605469" xlink:href="#DejaVuSans-119"/>
     <use x="881.392578" xlink:href="#DejaVuSans-105"/>
     <use x="909.175781" xlink:href="#DejaVuSans-116"/>
     <use x="948.384766" xlink:href="#DejaVuSans-104"/>
     <use x="1011.763672" xlink:href="#DejaVuSans-32"/>
     <use x="1043.550781" xlink:href="#DejaVuSans-112"/>
     <use x="1107.027344" xlink:href="#DejaVuSans-101"/>
     <use x="1168.550781" xlink:href="#DejaVuSans-114"/>
     <use x="1209.664062" xlink:href="#DejaVuSans-116"/>
     <use x="1248.873047" xlink:href="#DejaVuSans-117"/>
     <use x="1312.251953" xlink:href="#DejaVuSans-114"/>
     <use x="1353.365234" xlink:href="#DejaVuSans-98"/>
     <use x="1416.841797" xlink:href="#DejaVuSans-97"/>
     <use x="1478.121094" xlink:href="#DejaVuSans-116"/>
     <use x="1517.330078" xlink:href="#DejaVuSans-105"/>
     <use x="1545.113281" xlink:href="#DejaVuSans-111"/>
     <use x="1606.294922" xlink:href="#DejaVuSans-110"/>
     <use x="1669.673828" xlink:href="#DejaVuSans-115"/>
    </g>
   </g>
  </g>
 </g>
 <defs>
  <clipPath id="p9c51aac3fc">
   <rect height="434.88" width="434.88" x="28.942188" y="22.318125"/>
  </clipPath>
 </defs>
</svg>
