<?xml version="1.0" encoding="utf-8" standalone="no"?>
<!DOCTYPE svg PUBLIC "-//W3C//DTD SVG 1.1//EN"
  "http://www.w3.org/Graphics/SVG/1.1/DTD/svg11.dtd">
<svg xmlns:xlink="http://www.w3.org/1999/xlink" width="479.662187pt" height="489.71625pt" viewBox="0 0 479.662187 489.71625" xmlns="http://www.w3.org/2000/svg" version="1.1">
 <metadata>
  <rdf:RDF xmlns:dc="http://purl.org/dc/elements/1.1/" xmlns:cc="http://creativecommons.org/ns#" xmlns:rdf="http://www.w3.org/1999/02/22-rdf-syntax-ns#">
   <cc:Work>
    <dc:type rdf:resource="http://purl.org/dc/dcmitype/StillImage"/>
    <dc:date>2024-07-24T22:22:24.946027</dc:date>
    <dc:format>image/svg+xml</dc:format>
    <dc:creator>
     <cc:Agent>
      <dc:title>Matplotlib v3.7.1, https://matplotlib.org/</dc:title>
     </cc:Agent>
    </dc:creator>
   </cc:Work>
  </rdf:RDF>
 </metadata>
 <defs>
  <style type="text/css">*{stroke-linejoin: round; stroke-linecap: butt}</style>
 </defs>
 <g id="figure_1">
  <g id="patch_1">
   <path d="M 0 489.71625 
L 479.662187 489.71625 
L 479.662187 0 
L 0 0 
z
" style="fill: #ffffff"/>
  </g>
  <g id="axes_1">
   <g id="patch_2">
    <path d="M 28.942188 465.838125 
L 472.462188 465.838125 
L 472.462188 22.318125 
L 28.942188 22.318125 
z
" style="fill: #ffffff"/>
   </g>
   <g id="patch_3">
    <path d="M 161.998188 332.782125 
L 206.350188 332.782125 
L 206.350188 155.374125 
L 161.998188 155.374125 
z
" clip-path="url(#p90a8e5367e)"/>
   </g>
   <g id="patch_4">
    <path d="M 295.054188 199.726125 
L 339.406187 199.726125 
L 339.406187 111.022125 
L 295.054188 111.022125 
z
" clip-path="url(#p90a8e5367e)"/>
   </g>
   <g id="patch_5">
    <path d="M 295.054188 199.726125 
L 419.239788 199.726125 
L 419.239788 177.550125 
L 295.054188 177.550125 
z
" clip-path="url(#p90a8e5367e)"/>
   </g>
   <g id="patch_6">
    <path d="M 295.054188 310.606125 
L 419.239788 310.606125 
L 419.239788 288.430125 
L 295.054188 288.430125 
z
" clip-path="url(#p90a8e5367e)"/>
   </g>
   <g id="patch_7">
    <path d="M 397.063788 288.430125 
L 419.239788 288.430125 
L 419.239788 221.902125 
L 397.063788 221.902125 
z
" clip-path="url(#p90a8e5367e)"/>
   </g>
   <g id="matplotlib.axis_1">
    <g id="xtick_1">
     <g id="line2d_1">
      <defs>
       <path id="m4014295389" d="M 0 0 
L 0 3.5 
" style="stroke: #000000; stroke-width: 0.8"/>
      </defs>
      <g>
       <use xlink:href="#m4014295389" x="73.294188" y="465.838125" style="stroke: #000000; stroke-width: 0.8"/>
      </g>
     </g>
     <g id="text_1">
      <!-- −4 -->
      <g transform="translate(65.923094 480.436562) scale(0.1 -0.1)">
       <defs>
        <path id="DejaVuSans-2212" d="M 678 2272 
L 4684 2272 
L 4684 1741 
L 678 1741 
L 678 2272 
z
" transform="scale(0.015625)"/>
        <path id="DejaVuSans-34" d="M 2419 4116 
L 825 1625 
L 2419 1625 
L 2419 4116 
z
M 2253 4666 
L 3047 4666 
L 3047 1625 
L 3713 1625 
L 3713 1100 
L 3047 1100 
L 3047 0 
L 2419 0 
L 2419 1100 
L 313 1100 
L 313 1709 
L 2253 4666 
z
" transform="scale(0.015625)"/>
       </defs>
       <use xlink:href="#DejaVuSans-2212"/>
       <use xlink:href="#DejaVuSans-34" x="83.789062"/>
      </g>
     </g>
    </g>
    <g id="xtick_2">
     <g id="line2d_2">
      <g>
       <use xlink:href="#m4014295389" x="161.998188" y="465.838125" style="stroke: #000000; stroke-width: 0.8"/>
      </g>
     </g>
     <g id="text_2">
      <!-- −2 -->
      <g transform="translate(154.627094 480.436562) scale(0.1 -0.1)">
       <defs>
        <path id="DejaVuSans-32" d="M 1228 531 
L 3431 531 
L 3431 0 
L 469 0 
L 469 531 
Q 828 903 1448 1529 
Q 2069 2156 2228 2338 
Q 2531 2678 2651 2914 
Q 2772 3150 2772 3378 
Q 2772 3750 2511 3984 
Q 2250 4219 1831 4219 
Q 1534 4219 1204 4116 
Q 875 4013 500 3803 
L 500 4441 
Q 881 4594 1212 4672 
Q 1544 4750 1819 4750 
Q 2544 4750 2975 4387 
Q 3406 4025 3406 3419 
Q 3406 3131 3298 2873 
Q 3191 2616 2906 2266 
Q 2828 2175 2409 1742 
Q 1991 1309 1228 531 
z
" transform="scale(0.015625)"/>
       </defs>
       <use xlink:href="#DejaVuSans-2212"/>
       <use xlink:href="#DejaVuSans-32" x="83.789062"/>
      </g>
     </g>
    </g>
    <g id="xtick_3">
     <g id="line2d_3">
      <g>
       <use xlink:href="#m4014295389" x="250.702188" y="465.838125" style="stroke: #000000; stroke-width: 0.8"/>
      </g>
     </g>
     <g id="text_3">
      <!-- 0 -->
      <g transform="translate(247.520938 480.436562) scale(0.1 -0.1)">
       <defs>
        <path id="DejaVuSans-30" d="M 2034 4250 
Q 1547 4250 1301 3770 
Q 1056 3291 1056 2328 
Q 1056 1369 1301 889 
Q 1547 409 2034 409 
Q 2525 409 2770 889 
Q 3016 1369 3016 2328 
Q 3016 3291 2770 3770 
Q 2525 4250 2034 4250 
z
M 2034 4750 
Q 2819 4750 3233 4129 
Q 3647 3509 3647 2328 
Q 3647 1150 3233 529 
Q 2819 -91 2034 -91 
Q 1250 -91 836 529 
Q 422 1150 422 2328 
Q 422 3509 836 4129 
Q 1250 4750 2034 4750 
z
" transform="scale(0.015625)"/>
       </defs>
       <use xlink:href="#DejaVuSans-30"/>
      </g>
     </g>
    </g>
    <g id="xtick_4">
     <g id="line2d_4">
      <g>
       <use xlink:href="#m4014295389" x="339.406188" y="465.838125" style="stroke: #000000; stroke-width: 0.8"/>
      </g>
     </g>
     <g id="text_4">
      <!-- 2 -->
      <g transform="translate(336.224938 480.436562) scale(0.1 -0.1)">
       <use xlink:href="#DejaVuSans-32"/>
      </g>
     </g>
    </g>
    <g id="xtick_5">
     <g id="line2d_5">
      <g>
       <use xlink:href="#m4014295389" x="428.110188" y="465.838125" style="stroke: #000000; stroke-width: 0.8"/>
      </g>
     </g>
     <g id="text_5">
      <!-- 4 -->
      <g transform="translate(424.928938 480.436562) scale(0.1 -0.1)">
       <use xlink:href="#DejaVuSans-34"/>
      </g>
     </g>
    </g>
   </g>
   <g id="matplotlib.axis_2">
    <g id="ytick_1">
     <g id="line2d_6">
      <defs>
       <path id="m06ce9bfb09" d="M 0 0 
L -3.5 0 
" style="stroke: #000000; stroke-width: 0.8"/>
      </defs>
      <g>
       <use xlink:href="#m06ce9bfb09" x="28.942188" y="421.486125" style="stroke: #000000; stroke-width: 0.8"/>
      </g>
     </g>
     <g id="text_6">
      <!-- −4 -->
      <g transform="translate(7.2 425.285344) scale(0.1 -0.1)">
       <use xlink:href="#DejaVuSans-2212"/>
       <use xlink:href="#DejaVuSans-34" x="83.789062"/>
      </g>
     </g>
    </g>
    <g id="ytick_2">
     <g id="line2d_7">
      <g>
       <use xlink:href="#m06ce9bfb09" x="28.942188" y="332.782125" style="stroke: #000000; stroke-width: 0.8"/>
      </g>
     </g>
     <g id="text_7">
      <!-- −2 -->
      <g transform="translate(7.2 336.581344) scale(0.1 -0.1)">
       <use xlink:href="#DejaVuSans-2212"/>
       <use xlink:href="#DejaVuSans-32" x="83.789062"/>
      </g>
     </g>
    </g>
    <g id="ytick_3">
     <g id="line2d_8">
      <g>
       <use xlink:href="#m06ce9bfb09" x="28.942188" y="244.078125" style="stroke: #000000; stroke-width: 0.8"/>
      </g>
     </g>
     <g id="text_8">
      <!-- 0 -->
      <g transform="translate(15.579688 247.877344) scale(0.1 -0.1)">
       <use xlink:href="#DejaVuSans-30"/>
      </g>
     </g>
    </g>
    <g id="ytick_4">
     <g id="line2d_9">
      <g>
       <use xlink:href="#m06ce9bfb09" x="28.942188" y="155.374125" style="stroke: #000000; stroke-width: 0.8"/>
      </g>
     </g>
     <g id="text_9">
      <!-- 2 -->
      <g transform="translate(15.579688 159.173344) scale(0.1 -0.1)">
       <use xlink:href="#DejaVuSans-32"/>
      </g>
     </g>
    </g>
    <g id="ytick_5">
     <g id="line2d_10">
      <g>
       <use xlink:href="#m06ce9bfb09" x="28.942188" y="66.670125" style="stroke: #000000; stroke-width: 0.8"/>
      </g>
     </g>
     <g id="text_10">
      <!-- 4 -->
      <g transform="translate(15.579688 70.469344) scale(0.1 -0.1)">
       <use xlink:href="#DejaVuSans-34"/>
      </g>
     </g>
    </g>
   </g>
   <g id="PathCollection_1">
    <defs>
     <path id="m4ea59e9a39" d="M 0 3 
C 0.795609 3 1.55874 2.683901 2.12132 2.12132 
C 2.683901 1.55874 3 0.795609 3 0 
C 3 -0.795609 2.683901 -1.55874 2.12132 -2.12132 
C 1.55874 -2.683901 0.795609 -3 0 -3 
C -0.795609 -3 -1.55874 -2.683901 -2.12132 -2.12132 
C -2.683901 -1.55874 -3 -0.795609 -3 0 
C -3 0.795609 -2.683901 1.55874 -2.12132 2.12132 
C -1.55874 2.683901 -0.795609 3 0 3 
z
" style="stroke: #ff0000"/>
    </defs>
    <g clip-path="url(#p90a8e5367e)">
     <use xlink:href="#m4ea59e9a39" x="372.226668" y="164.244525" style="fill: #ff0000; stroke: #ff0000"/>
    </g>
   </g>
   <g id="line2d_11">
    <path d="M 457.58366 270.364403 
L 457.119459 270.766045 
L 456.045847 271.570813 
L 456.531783 270.510456 
L 456.330784 271.933266 
L 455.249563 270.115939 
L 453.672636 270.800359 
L 453.789423 270.9357 
L 452.175583 270.418845 
L 452.418823 271.464857 
L 453.864047 272.438901 
L 454.446891 274.303376 
L 454.43722 273.025385 
L 454.813772 269.975112 
L 455.376733 269.819301 
L 453.990013 268.670882 
L 441.841726 269.503756 
L 432.969631 264.158614 
L 433.427276 266.055534 
L 431.518943 266.753184 
L 433.7702 266.813812 
L 435.39139 267.570366 
L 436.352722 266.531897 
L 437.994832 267.75187 
L 437.101867 268.219016 
L 439.428003 268.21812 
L 440.092762 267.594329 
L 439.275824 265.290656 
L 439.810382 264.791332 
L 427.814474 260.231425 
L 426.712575 260.805221 
L 426.060274 260.187765 
L 436.767106 264.480812 
L 447.207226 260.863102 
L 453.741499 254.744365 
L 457.152282 244.166933 
L 459.324277 231.410013 
L 460.216365 221.265102 
L 459.25981 219.8437 
L 457.949211 208.859458 
L 455.868553 198.789905 
" clip-path="url(#p90a8e5367e)" style="fill: none; stroke-dasharray: 5.55,2.4; stroke-dashoffset: 0; stroke: #bfbf00; stroke-width: 1.5"/>
   </g>
   <g id="line2d_12">
    <path d="M 432.978246 49.253539 
L 423.961434 53.7952 
L 414.910893 62.471111 
L 407.062254 70.083029 
L 402.169784 81.469627 
L 401.543792 92.273842 
L 400.97133 102.993859 
L 399.865208 113.5643 
L 394.953705 125.146282 
L 391.407911 136.87368 
L 391.642638 125.920198 
L 386.458652 136.18056 
L 382.35065 145.769807 
L 378.352083 157.409923 
L 378.949737 157.114688 
L 380.597251 156.922581 
L 381.360069 166.316015 
L 381.279322 167.185975 
L 380.238964 167.690174 
L 379.646221 166.769955 
L 380.443673 166.116714 
L 380.556468 166.641582 
L 382.128299 168.059652 
L 379.450025 156.368813 
L 376.63262 146.659709 
L 377.799092 160.6627 
L 377.596792 160.966917 
L 377.93635 160.320826 
L 378.605612 160.797221 
L 378.815453 160.264906 
L 378.815246 160.263094 
L 379.018093 161.802166 
L 377.746889 163.245457 
L 377.164254 163.105098 
L 378.424454 163.521526 
L 379.760369 162.642017 
L 378.505113 162.331676 
L 381.047013 162.2408 
L 380.537636 161.326523 
L 380.082186 160.955711 
L 380.328555 160.795505 
" clip-path="url(#p90a8e5367e)" style="fill: none; stroke-dasharray: 5.55,2.4; stroke-dashoffset: 0; stroke: #0000ff; stroke-width: 1.5"/>
   </g>
   <g id="line2d_13">
    <path d="M 326.794023 428.609843 
L 324.048567 415.604364 
L 321.707864 405.10256 
L 315.492177 394.271185 
L 326.991938 399.367402 
L 338.542587 401.278157 
L 348.312337 400.414366 
L 357.972718 395.528746 
L 370.676105 395.032849 
L 381.425923 391.148918 
L 389.320556 383.959136 
L 396.20069 375.954863 
L 403.361943 367.229483 
L 408.791989 359.357605 
L 416.034505 352.557826 
L 423.639036 343.171435 
L 428.508701 336.193899 
L 428.134183 336.211793 
L 437.167218 331.451823 
L 446.895938 324.974539 
L 453.758122 316.104438 
L 456.619213 305.619397 
L 455.580674 318.317637 
L 456.318228 317.150878 
L 452.669906 308.000082 
L 449.073084 298.042946 
L 446.444891 286.486678 
L 445.904151 274.749119 
L 444.858753 263.129839 
L 443.676059 248.977119 
L 442.039936 238.351202 
L 443.433796 226.256231 
L 442.127819 216.63603 
L 446.984504 203.930299 
L 451.462912 193.467341 
L 453.323651 183.436369 
L 451.120952 173.369875 
L 447.249189 164.259628 
L 440.167186 155.963863 
L 430.384731 147.911136 
L 420.175411 142.442719 
" clip-path="url(#p90a8e5367e)" style="fill: none; stroke-dasharray: 5.55,2.4; stroke-dashoffset: 0; stroke: #bfbf00; stroke-width: 1.5"/>
   </g>
   <g id="line2d_14">
    <path d="M 133.972059 452.17149 
L 131.167251 442.711734 
L 126.124118 431.199023 
L 132.902898 439.321629 
L 141.063902 443.558861 
L 150.598695 445.118931 
L 162.730978 442.308413 
L 172.299829 435.693212 
L 180.660285 426.617102 
L 186.576158 419.677282 
L 192.87039 409.690844 
L 197.13033 401.071838 
L 205.348906 393.587071 
L 213.700853 384.13425 
L 218.439216 374.998152 
L 224.237414 365.806573 
L 227.098747 355.217761 
L 231.419162 344.761885 
L 237.40532 336.803335 
L 245.007287 327.11356 
L 252.373931 317.850222 
L 258.421713 309.696767 
L 260.957716 300.421183 
L 268.295458 291.009001 
L 273.918627 283.423349 
L 285.176836 275.154325 
L 293.291596 267.26726 
L 302.363447 260.828609 
L 310.267817 256.101467 
L 320.344877 251.131382 
L 332.489498 246.918561 
L 342.686028 242.187114 
L 352.137572 236.507021 
L 363.22135 231.746273 
L 372.957171 230.526441 
L 374.581458 228.64063 
L 372.995523 227.431937 
L 364.934724 232.340418 
L 375.823369 231.814225 
L 376.320612 231.176109 
L 366.898587 227.084652 
" clip-path="url(#p90a8e5367e)" style="fill: none; stroke-dasharray: 5.55,2.4; stroke-dashoffset: 0; stroke: #bfbf00; stroke-width: 1.5"/>
   </g>
   <g id="line2d_15">
    <path d="M 94.829141 384.633761 
L 103.17959 379.597585 
L 111.902628 372.789216 
L 120.792291 365.901052 
L 132.018206 362.029513 
L 141.77173 358.673248 
L 152.870544 359.241871 
L 164.306322 359.416787 
L 176.903648 360.368237 
L 188.86241 359.153224 
L 198.409717 359.788362 
L 208.976189 355.856469 
L 220.576074 350.135685 
L 231.92216 344.12609 
L 240.404508 336.504642 
L 250.20119 330.428698 
L 259.436843 323.293356 
L 266.12329 314.165879 
L 271.05427 304.708946 
L 274.002885 296.303991 
L 275.928902 283.824464 
L 278.777782 272.876343 
L 282.146695 261.7397 
L 286.564773 252.498417 
L 293.103372 244.144518 
L 299.774812 235.638689 
L 308.295839 229.272015 
L 318.524148 225.702547 
L 330.097597 225.399262 
L 343.308023 225.686827 
L 352.910365 225.407408 
L 365.866442 223.352469 
L 365.949101 223.639724 
L 377.222066 222.071632 
L 367.286152 223.963237 
L 378.672869 226.794711 
L 388.282059 226.361211 
L 375.760966 228.380457 
L 366.724317 224.014392 
L 374.833073 229.664019 
L 370.150062 219.811602 
" clip-path="url(#p90a8e5367e)" style="fill: none; stroke-dasharray: 5.55,2.4; stroke-dashoffset: 0; stroke: #bfbf00; stroke-width: 1.5"/>
   </g>
   <g id="line2d_16">
    <path d="M 35.425909 249.954082 
L 46.11852 255.185923 
L 56.00126 254.904576 
L 68.453967 250.746536 
L 80.31785 246.479522 
L 92.739471 244.353945 
L 102.315455 240.474933 
L 110.591004 233.080477 
L 118.276757 224.145428 
L 119.241532 214.709552 
L 121.384478 203.160955 
L 122.733115 192.066673 
L 120.299259 181.571285 
L 120.515996 168.590563 
L 121.656478 157.939596 
L 123.365541 146.918513 
L 130.53941 137.303517 
L 137.306315 129.496835 
L 145.802394 122.469837 
L 154.449808 115.7929 
L 161.774829 112.251199 
L 170.710566 107.70758 
L 179.426458 104.829132 
L 191.246207 103.36105 
L 203.385327 102.357143 
L 213.872783 102.556641 
L 224.085943 101.180987 
L 234.888491 100.285806 
L 246.239692 100.200051 
L 257.903771 97.857888 
L 269.456646 92.557574 
L 280.681962 90.071868 
L 289.254013 87.23555 
L 300.030154 84.820023 
L 310.489245 85.396411 
L 323.181931 87.805509 
L 332.970199 87.57387 
L 343.212577 91.057846 
L 352.108117 96.129143 
L 361.667928 102.761101 
L 369.448742 112.521245 
" clip-path="url(#p90a8e5367e)" style="fill: none; stroke-dasharray: 5.55,2.4; stroke-dashoffset: 0; stroke: #bfbf00; stroke-width: 1.5"/>
   </g>
   <g id="line2d_17">
    <path d="M 57.57685 225.854693 
L 67.076649 229.095522 
L 74.992733 233.51375 
L 67.995982 224.63071 
L 64.368389 214.726376 
L 63.621604 202.689591 
L 66.556381 191.86993 
L 74.209971 182.258749 
L 80.714663 172.672535 
L 88.829158 165.035895 
L 96.281502 158.310088 
L 105.810963 152.787803 
L 115.476672 146.808063 
L 126.190424 143.349311 
L 134.877276 136.638246 
L 142.227562 130.702681 
L 153.393566 123.618366 
L 164.12301 118.76305 
L 174.009054 116.613622 
L 184.223524 112.108596 
L 195.869271 108.250868 
L 203.569598 104.441277 
L 214.329009 102.714996 
L 226.595188 103.008669 
L 236.029626 103.022909 
L 247.899905 101.255667 
L 259.136576 99.078345 
L 268.168994 95.076413 
L 277.455257 91.077465 
L 286.702538 88.487379 
L 297.811586 84.392192 
L 308.505537 84.554352 
L 319.416362 85.458147 
L 331.284892 82.289412 
L 342.045929 79.187555 
L 353.749413 81.106925 
L 363.972286 84.652449 
L 375.352681 90.667501 
L 383.331752 101.846751 
L 386.629186 113.552514 
L 388.351753 123.904267 
" clip-path="url(#p90a8e5367e)" style="fill: none; stroke-dasharray: 5.55,2.4; stroke-dashoffset: 0; stroke: #0000ff; stroke-width: 1.5"/>
   </g>
   <g id="line2d_18">
    <path d="M 295.703257 426.39641 
L 304.892476 420.693392 
L 313.66474 417.431964 
L 324.077356 415.495311 
L 333.283596 414.231432 
L 344.331349 418.86266 
L 335.752755 411.514528 
L 329.604822 403.223866 
L 327.420564 390.372812 
L 329.188815 380.444676 
L 333.558518 370.198538 
L 337.127485 359.014091 
L 346.214871 349.539818 
L 355.87739 344.63472 
L 364.626267 339.012952 
L 377.746156 337.642741 
L 388.884696 336.779207 
L 400.142432 337.736644 
L 410.260139 334.374797 
L 421.319562 330.129109 
L 432.780345 325.579973 
L 442.237694 320.175318 
L 449.218932 310.361142 
L 452.923703 300.72356 
L 456.332814 289.087162 
L 456.82933 278.024983 
L 456.877128 278.271292 
L 455.695655 278.536721 
L 456.845345 277.697357 
L 461.308381 268.124653 
L 460.763038 267.214187 
L 459.169817 267.329598 
L 461.898675 255.514665 
L 463.645721 244.954895 
L 459.077227 235.323075 
L 456.189323 226.247623 
L 450.735638 215.665928 
L 446.066511 203.843924 
L 443.367248 194.39437 
L 440.358077 183.394248 
L 435.274262 173.732343 
" clip-path="url(#p90a8e5367e)" style="fill: none; stroke-dasharray: 5.55,2.4; stroke-dashoffset: 0; stroke: #bfbf00; stroke-width: 1.5"/>
   </g>
   <g id="line2d_19">
    <path d="M 148.50875 219.049156 
L 148.1876 218.465263 
L 145.230793 218.661111 
L 152.861079 209.570927 
L 152.679988 208.487604 
L 153.201598 209.164986 
L 153.224037 208.836814 
L 141.488531 213.244495 
L 130.175089 211.22648 
L 121.502053 204.224273 
L 114.81284 194.74497 
L 110.007825 183.657411 
L 108.36646 171.123451 
L 110.88682 160.071906 
L 116.82206 149.45913 
L 123.202934 141.746304 
L 131.047817 135.901828 
L 142.467654 130.00074 
L 149.312228 122.464551 
L 156.19402 119.190427 
L 167.4862 114.982506 
L 176.633389 111.727184 
L 188.056477 109.537754 
L 198.630204 107.135948 
L 209.9278 106.241368 
L 220.938601 106.97312 
L 232.318157 110.251735 
L 242.100873 110.112346 
L 253.524014 109.793229 
L 261.846067 106.076679 
L 273.8726 102.557627 
L 282.969138 97.031525 
L 291.806339 90.5094 
L 301.325546 84.873031 
L 311.486793 80.227932 
L 321.913945 77.65004 
L 331.985479 77.14946 
L 342.216866 81.837157 
L 351.183231 86.101806 
L 358.053015 94.629039 
L 364.797744 102.344693 
" clip-path="url(#p90a8e5367e)" style="fill: none; stroke-dasharray: 5.55,2.4; stroke-dashoffset: 0; stroke: #bfbf00; stroke-width: 1.5"/>
   </g>
   <g id="patch_8">
    <path d="M 28.942188 465.838125 
L 28.942188 22.318125 
" style="fill: none; stroke: #000000; stroke-width: 0.8; stroke-linejoin: miter; stroke-linecap: square"/>
   </g>
   <g id="patch_9">
    <path d="M 472.462188 465.838125 
L 472.462188 22.318125 
" style="fill: none; stroke: #000000; stroke-width: 0.8; stroke-linejoin: miter; stroke-linecap: square"/>
   </g>
   <g id="patch_10">
    <path d="M 28.942188 465.838125 
L 472.462188 465.838125 
" style="fill: none; stroke: #000000; stroke-width: 0.8; stroke-linejoin: miter; stroke-linecap: square"/>
   </g>
   <g id="patch_11">
    <path d="M 28.942188 22.318125 
L 472.462188 22.318125 
" style="fill: none; stroke: #000000; stroke-width: 0.8; stroke-linejoin: miter; stroke-linecap: square"/>
   </g>
   <g id="text_11">
    <!-- Traces of robust DWA, with perturbations -->
    <g transform="translate(127.597188 16.318125) scale(0.12 -0.12)">
     <defs>
      <path id="DejaVuSans-54" d="M -19 4666 
L 3928 4666 
L 3928 4134 
L 2272 4134 
L 2272 0 
L 1638 0 
L 1638 4134 
L -19 4134 
L -19 4666 
z
" transform="scale(0.015625)"/>
      <path id="DejaVuSans-72" d="M 2631 2963 
Q 2534 3019 2420 3045 
Q 2306 3072 2169 3072 
Q 1681 3072 1420 2755 
Q 1159 2438 1159 1844 
L 1159 0 
L 581 0 
L 581 3500 
L 1159 3500 
L 1159 2956 
Q 1341 3275 1631 3429 
Q 1922 3584 2338 3584 
Q 2397 3584 2469 3576 
Q 2541 3569 2628 3553 
L 2631 2963 
z
" transform="scale(0.015625)"/>
      <path id="DejaVuSans-61" d="M 2194 1759 
Q 1497 1759 1228 1600 
Q 959 1441 959 1056 
Q 959 750 1161 570 
Q 1363 391 1709 391 
Q 2188 391 2477 730 
Q 2766 1069 2766 1631 
L 2766 1759 
L 2194 1759 
z
M 3341 1997 
L 3341 0 
L 2766 0 
L 2766 531 
Q 2569 213 2275 61 
Q 1981 -91 1556 -91 
Q 1019 -91 701 211 
Q 384 513 384 1019 
Q 384 1609 779 1909 
Q 1175 2209 1959 2209 
L 2766 2209 
L 2766 2266 
Q 2766 2663 2505 2880 
Q 2244 3097 1772 3097 
Q 1472 3097 1187 3025 
Q 903 2953 641 2809 
L 641 3341 
Q 956 3463 1253 3523 
Q 1550 3584 1831 3584 
Q 2591 3584 2966 3190 
Q 3341 2797 3341 1997 
z
" transform="scale(0.015625)"/>
      <path id="DejaVuSans-63" d="M 3122 3366 
L 3122 2828 
Q 2878 2963 2633 3030 
Q 2388 3097 2138 3097 
Q 1578 3097 1268 2742 
Q 959 2388 959 1747 
Q 959 1106 1268 751 
Q 1578 397 2138 397 
Q 2388 397 2633 464 
Q 2878 531 3122 666 
L 3122 134 
Q 2881 22 2623 -34 
Q 2366 -91 2075 -91 
Q 1284 -91 818 406 
Q 353 903 353 1747 
Q 353 2603 823 3093 
Q 1294 3584 2113 3584 
Q 2378 3584 2631 3529 
Q 2884 3475 3122 3366 
z
" transform="scale(0.015625)"/>
      <path id="DejaVuSans-65" d="M 3597 1894 
L 3597 1613 
L 953 1613 
Q 991 1019 1311 708 
Q 1631 397 2203 397 
Q 2534 397 2845 478 
Q 3156 559 3463 722 
L 3463 178 
Q 3153 47 2828 -22 
Q 2503 -91 2169 -91 
Q 1331 -91 842 396 
Q 353 884 353 1716 
Q 353 2575 817 3079 
Q 1281 3584 2069 3584 
Q 2775 3584 3186 3129 
Q 3597 2675 3597 1894 
z
M 3022 2063 
Q 3016 2534 2758 2815 
Q 2500 3097 2075 3097 
Q 1594 3097 1305 2825 
Q 1016 2553 972 2059 
L 3022 2063 
z
" transform="scale(0.015625)"/>
      <path id="DejaVuSans-73" d="M 2834 3397 
L 2834 2853 
Q 2591 2978 2328 3040 
Q 2066 3103 1784 3103 
Q 1356 3103 1142 2972 
Q 928 2841 928 2578 
Q 928 2378 1081 2264 
Q 1234 2150 1697 2047 
L 1894 2003 
Q 2506 1872 2764 1633 
Q 3022 1394 3022 966 
Q 3022 478 2636 193 
Q 2250 -91 1575 -91 
Q 1294 -91 989 -36 
Q 684 19 347 128 
L 347 722 
Q 666 556 975 473 
Q 1284 391 1588 391 
Q 1994 391 2212 530 
Q 2431 669 2431 922 
Q 2431 1156 2273 1281 
Q 2116 1406 1581 1522 
L 1381 1569 
Q 847 1681 609 1914 
Q 372 2147 372 2553 
Q 372 3047 722 3315 
Q 1072 3584 1716 3584 
Q 2034 3584 2315 3537 
Q 2597 3491 2834 3397 
z
" transform="scale(0.015625)"/>
      <path id="DejaVuSans-20" transform="scale(0.015625)"/>
      <path id="DejaVuSans-6f" d="M 1959 3097 
Q 1497 3097 1228 2736 
Q 959 2375 959 1747 
Q 959 1119 1226 758 
Q 1494 397 1959 397 
Q 2419 397 2687 759 
Q 2956 1122 2956 1747 
Q 2956 2369 2687 2733 
Q 2419 3097 1959 3097 
z
M 1959 3584 
Q 2709 3584 3137 3096 
Q 3566 2609 3566 1747 
Q 3566 888 3137 398 
Q 2709 -91 1959 -91 
Q 1206 -91 779 398 
Q 353 888 353 1747 
Q 353 2609 779 3096 
Q 1206 3584 1959 3584 
z
" transform="scale(0.015625)"/>
      <path id="DejaVuSans-66" d="M 2375 4863 
L 2375 4384 
L 1825 4384 
Q 1516 4384 1395 4259 
Q 1275 4134 1275 3809 
L 1275 3500 
L 2222 3500 
L 2222 3053 
L 1275 3053 
L 1275 0 
L 697 0 
L 697 3053 
L 147 3053 
L 147 3500 
L 697 3500 
L 697 3744 
Q 697 4328 969 4595 
Q 1241 4863 1831 4863 
L 2375 4863 
z
" transform="scale(0.015625)"/>
      <path id="DejaVuSans-62" d="M 3116 1747 
Q 3116 2381 2855 2742 
Q 2594 3103 2138 3103 
Q 1681 3103 1420 2742 
Q 1159 2381 1159 1747 
Q 1159 1113 1420 752 
Q 1681 391 2138 391 
Q 2594 391 2855 752 
Q 3116 1113 3116 1747 
z
M 1159 2969 
Q 1341 3281 1617 3432 
Q 1894 3584 2278 3584 
Q 2916 3584 3314 3078 
Q 3713 2572 3713 1747 
Q 3713 922 3314 415 
Q 2916 -91 2278 -91 
Q 1894 -91 1617 61 
Q 1341 213 1159 525 
L 1159 0 
L 581 0 
L 581 4863 
L 1159 4863 
L 1159 2969 
z
" transform="scale(0.015625)"/>
      <path id="DejaVuSans-75" d="M 544 1381 
L 544 3500 
L 1119 3500 
L 1119 1403 
Q 1119 906 1312 657 
Q 1506 409 1894 409 
Q 2359 409 2629 706 
Q 2900 1003 2900 1516 
L 2900 3500 
L 3475 3500 
L 3475 0 
L 2900 0 
L 2900 538 
Q 2691 219 2414 64 
Q 2138 -91 1772 -91 
Q 1169 -91 856 284 
Q 544 659 544 1381 
z
M 1991 3584 
L 1991 3584 
z
" transform="scale(0.015625)"/>
      <path id="DejaVuSans-74" d="M 1172 4494 
L 1172 3500 
L 2356 3500 
L 2356 3053 
L 1172 3053 
L 1172 1153 
Q 1172 725 1289 603 
Q 1406 481 1766 481 
L 2356 481 
L 2356 0 
L 1766 0 
Q 1100 0 847 248 
Q 594 497 594 1153 
L 594 3053 
L 172 3053 
L 172 3500 
L 594 3500 
L 594 4494 
L 1172 4494 
z
" transform="scale(0.015625)"/>
      <path id="DejaVuSans-44" d="M 1259 4147 
L 1259 519 
L 2022 519 
Q 2988 519 3436 956 
Q 3884 1394 3884 2338 
Q 3884 3275 3436 3711 
Q 2988 4147 2022 4147 
L 1259 4147 
z
M 628 4666 
L 1925 4666 
Q 3281 4666 3915 4102 
Q 4550 3538 4550 2338 
Q 4550 1131 3912 565 
Q 3275 0 1925 0 
L 628 0 
L 628 4666 
z
" transform="scale(0.015625)"/>
      <path id="DejaVuSans-57" d="M 213 4666 
L 850 4666 
L 1831 722 
L 2809 4666 
L 3519 4666 
L 4500 722 
L 5478 4666 
L 6119 4666 
L 4947 0 
L 4153 0 
L 3169 4050 
L 2175 0 
L 1381 0 
L 213 4666 
z
" transform="scale(0.015625)"/>
      <path id="DejaVuSans-41" d="M 2188 4044 
L 1331 1722 
L 3047 1722 
L 2188 4044 
z
M 1831 4666 
L 2547 4666 
L 4325 0 
L 3669 0 
L 3244 1197 
L 1141 1197 
L 716 0 
L 50 0 
L 1831 4666 
z
" transform="scale(0.015625)"/>
      <path id="DejaVuSans-2c" d="M 750 794 
L 1409 794 
L 1409 256 
L 897 -744 
L 494 -744 
L 750 256 
L 750 794 
z
" transform="scale(0.015625)"/>
      <path id="DejaVuSans-77" d="M 269 3500 
L 844 3500 
L 1563 769 
L 2278 3500 
L 2956 3500 
L 3675 769 
L 4391 3500 
L 4966 3500 
L 4050 0 
L 3372 0 
L 2619 2869 
L 1863 0 
L 1184 0 
L 269 3500 
z
" transform="scale(0.015625)"/>
      <path id="DejaVuSans-69" d="M 603 3500 
L 1178 3500 
L 1178 0 
L 603 0 
L 603 3500 
z
M 603 4863 
L 1178 4863 
L 1178 4134 
L 603 4134 
L 603 4863 
z
" transform="scale(0.015625)"/>
      <path id="DejaVuSans-68" d="M 3513 2113 
L 3513 0 
L 2938 0 
L 2938 2094 
Q 2938 2591 2744 2837 
Q 2550 3084 2163 3084 
Q 1697 3084 1428 2787 
Q 1159 2491 1159 1978 
L 1159 0 
L 581 0 
L 581 4863 
L 1159 4863 
L 1159 2956 
Q 1366 3272 1645 3428 
Q 1925 3584 2291 3584 
Q 2894 3584 3203 3211 
Q 3513 2838 3513 2113 
z
" transform="scale(0.015625)"/>
      <path id="DejaVuSans-70" d="M 1159 525 
L 1159 -1331 
L 581 -1331 
L 581 3500 
L 1159 3500 
L 1159 2969 
Q 1341 3281 1617 3432 
Q 1894 3584 2278 3584 
Q 2916 3584 3314 3078 
Q 3713 2572 3713 1747 
Q 3713 922 3314 415 
Q 2916 -91 2278 -91 
Q 1894 -91 1617 61 
Q 1341 213 1159 525 
z
M 3116 1747 
Q 3116 2381 2855 2742 
Q 2594 3103 2138 3103 
Q 1681 3103 1420 2742 
Q 1159 2381 1159 1747 
Q 1159 1113 1420 752 
Q 1681 391 2138 391 
Q 2594 391 2855 752 
Q 3116 1113 3116 1747 
z
" transform="scale(0.015625)"/>
      <path id="DejaVuSans-6e" d="M 3513 2113 
L 3513 0 
L 2938 0 
L 2938 2094 
Q 2938 2591 2744 2837 
Q 2550 3084 2163 3084 
Q 1697 3084 1428 2787 
Q 1159 2491 1159 1978 
L 1159 0 
L 581 0 
L 581 3500 
L 1159 3500 
L 1159 2956 
Q 1366 3272 1645 3428 
Q 1925 3584 2291 3584 
Q 2894 3584 3203 3211 
Q 3513 2838 3513 2113 
z
" transform="scale(0.015625)"/>
     </defs>
     <use xlink:href="#DejaVuSans-54"/>
     <use xlink:href="#DejaVuSans-72" x="46.333984"/>
     <use xlink:href="#DejaVuSans-61" x="87.447266"/>
     <use xlink:href="#DejaVuSans-63" x="148.726562"/>
     <use xlink:href="#DejaVuSans-65" x="203.707031"/>
     <use xlink:href="#DejaVuSans-73" x="265.230469"/>
     <use xlink:href="#DejaVuSans-20" x="317.330078"/>
     <use xlink:href="#DejaVuSans-6f" x="349.117188"/>
     <use xlink:href="#DejaVuSans-66" x="410.298828"/>
     <use xlink:href="#DejaVuSans-20" x="445.503906"/>
     <use xlink:href="#DejaVuSans-72" x="477.291016"/>
     <use xlink:href="#DejaVuSans-6f" x="516.154297"/>
     <use xlink:href="#DejaVuSans-62" x="577.335938"/>
     <use xlink:href="#DejaVuSans-75" x="640.8125"/>
     <use xlink:href="#DejaVuSans-73" x="704.191406"/>
     <use xlink:href="#DejaVuSans-74" x="756.291016"/>
     <use xlink:href="#DejaVuSans-20" x="795.5"/>
     <use xlink:href="#DejaVuSans-44" x="827.287109"/>
     <use xlink:href="#DejaVuSans-57" x="904.289062"/>
     <use xlink:href="#DejaVuSans-41" x="997.666016"/>
     <use xlink:href="#DejaVuSans-2c" x="1066.074219"/>
     <use xlink:href="#DejaVuSans-20" x="1097.861328"/>
     <use xlink:href="#DejaVuSans-77" x="1129.648438"/>
     <use xlink:href="#DejaVuSans-69" x="1211.435547"/>
     <use xlink:href="#DejaVuSans-74" x="1239.21875"/>
     <use xlink:href="#DejaVuSans-68" x="1278.427734"/>
     <use xlink:href="#DejaVuSans-20" x="1341.806641"/>
     <use xlink:href="#DejaVuSans-70" x="1373.59375"/>
     <use xlink:href="#DejaVuSans-65" x="1437.070312"/>
     <use xlink:href="#DejaVuSans-72" x="1498.59375"/>
     <use xlink:href="#DejaVuSans-74" x="1539.707031"/>
     <use xlink:href="#DejaVuSans-75" x="1578.916016"/>
     <use xlink:href="#DejaVuSans-72" x="1642.294922"/>
     <use xlink:href="#DejaVuSans-62" x="1683.408203"/>
     <use xlink:href="#DejaVuSans-61" x="1746.884766"/>
     <use xlink:href="#DejaVuSans-74" x="1808.164062"/>
     <use xlink:href="#DejaVuSans-69" x="1847.373047"/>
     <use xlink:href="#DejaVuSans-6f" x="1875.15625"/>
     <use xlink:href="#DejaVuSans-6e" x="1936.337891"/>
     <use xlink:href="#DejaVuSans-73" x="1999.716797"/>
    </g>
   </g>
  </g>
 </g>
 <defs>
  <clipPath id="p90a8e5367e">
   <rect x="28.942188" y="22.318125" width="443.52" height="443.52"/>
  </clipPath>
 </defs>
</svg>
