<?xml version="1.0" encoding="utf-8" standalone="no"?>
<!DOCTYPE svg PUBLIC "-//W3C//DTD SVG 1.1//EN"
  "http://www.w3.org/Graphics/SVG/1.1/DTD/svg11.dtd">
<!-- Created with matplotlib (https://matplotlib.org/) -->
<svg height="481.07625pt" version="1.1" viewBox="0 0 471.022187 481.07625" width="471.022187pt" xmlns="http://www.w3.org/2000/svg" xmlns:xlink="http://www.w3.org/1999/xlink">
 <defs>
  <style type="text/css">
*{stroke-linecap:butt;stroke-linejoin:round;}
  </style>
 </defs>
 <g id="figure_1">
  <g id="patch_1">
   <path d="M 0 481.07625 
L 471.022187 481.07625 
L 471.022187 0 
L 0 0 
z
" style="fill:none;"/>
  </g>
  <g id="axes_1">
   <g id="patch_2">
    <path d="M 28.942188 457.198125 
L 463.822187 457.198125 
L 463.822187 22.318125 
L 28.942188 22.318125 
z
" style="fill:#ffffff;"/>
   </g>
   <g id="patch_3">
    <path clip-path="url(#p7e2dd41c07)" d="M 159.406187 326.734125 
L 202.894187 326.734125 
L 202.894187 152.782125 
L 159.406187 152.782125 
z
"/>
   </g>
   <g id="patch_4">
    <path clip-path="url(#p7e2dd41c07)" d="M 289.870187 196.270125 
L 333.358187 196.270125 
L 333.358187 109.294125 
L 289.870187 109.294125 
z
"/>
   </g>
   <g id="patch_5">
    <path clip-path="url(#p7e2dd41c07)" d="M 289.870187 196.270125 
L 411.636587 196.270125 
L 411.636587 174.526125 
L 289.870187 174.526125 
z
"/>
   </g>
   <g id="patch_6">
    <path clip-path="url(#p7e2dd41c07)" d="M 289.870187 304.990125 
L 411.636587 304.990125 
L 411.636587 283.246125 
L 289.870187 283.246125 
z
"/>
   </g>
   <g id="patch_7">
    <path clip-path="url(#p7e2dd41c07)" d="M 389.892587 283.246125 
L 411.636588 283.246125 
L 411.636588 218.014125 
L 389.892587 218.014125 
z
"/>
   </g>
   <g id="matplotlib.axis_1">
    <g id="xtick_1">
     <g id="line2d_1">
      <defs>
       <path d="M 0 0 
L 0 3.5 
" id="maf34af6ff7" style="stroke:#000000;stroke-width:0.8;"/>
      </defs>
      <g>
       <use style="stroke:#000000;stroke-width:0.8;" x="72.430187" xlink:href="#maf34af6ff7" y="457.198125"/>
      </g>
     </g>
     <g id="text_1">
      <!-- −4 -->
      <defs>
       <path d="M 10.59375 35.5 
L 73.1875 35.5 
L 73.1875 27.203125 
L 10.59375 27.203125 
z
" id="DejaVuSans-8722"/>
       <path d="M 37.796875 64.3125 
L 12.890625 25.390625 
L 37.796875 25.390625 
z
M 35.203125 72.90625 
L 47.609375 72.90625 
L 47.609375 25.390625 
L 58.015625 25.390625 
L 58.015625 17.1875 
L 47.609375 17.1875 
L 47.609375 0 
L 37.796875 0 
L 37.796875 17.1875 
L 4.890625 17.1875 
L 4.890625 26.703125 
z
" id="DejaVuSans-52"/>
      </defs>
      <g transform="translate(65.059094 471.796562)scale(0.1 -0.1)">
       <use xlink:href="#DejaVuSans-8722"/>
       <use x="83.789062" xlink:href="#DejaVuSans-52"/>
      </g>
     </g>
    </g>
    <g id="xtick_2">
     <g id="line2d_2">
      <g>
       <use style="stroke:#000000;stroke-width:0.8;" x="159.406187" xlink:href="#maf34af6ff7" y="457.198125"/>
      </g>
     </g>
     <g id="text_2">
      <!-- −2 -->
      <defs>
       <path d="M 19.1875 8.296875 
L 53.609375 8.296875 
L 53.609375 0 
L 7.328125 0 
L 7.328125 8.296875 
Q 12.9375 14.109375 22.625 23.890625 
Q 32.328125 33.6875 34.8125 36.53125 
Q 39.546875 41.84375 41.421875 45.53125 
Q 43.3125 49.21875 43.3125 52.78125 
Q 43.3125 58.59375 39.234375 62.25 
Q 35.15625 65.921875 28.609375 65.921875 
Q 23.96875 65.921875 18.8125 64.3125 
Q 13.671875 62.703125 7.8125 59.421875 
L 7.8125 69.390625 
Q 13.765625 71.78125 18.9375 73 
Q 24.125 74.21875 28.421875 74.21875 
Q 39.75 74.21875 46.484375 68.546875 
Q 53.21875 62.890625 53.21875 53.421875 
Q 53.21875 48.921875 51.53125 44.890625 
Q 49.859375 40.875 45.40625 35.40625 
Q 44.1875 33.984375 37.640625 27.21875 
Q 31.109375 20.453125 19.1875 8.296875 
z
" id="DejaVuSans-50"/>
      </defs>
      <g transform="translate(152.035094 471.796562)scale(0.1 -0.1)">
       <use xlink:href="#DejaVuSans-8722"/>
       <use x="83.789062" xlink:href="#DejaVuSans-50"/>
      </g>
     </g>
    </g>
    <g id="xtick_3">
     <g id="line2d_3">
      <g>
       <use style="stroke:#000000;stroke-width:0.8;" x="246.382187" xlink:href="#maf34af6ff7" y="457.198125"/>
      </g>
     </g>
     <g id="text_3">
      <!-- 0 -->
      <defs>
       <path d="M 31.78125 66.40625 
Q 24.171875 66.40625 20.328125 58.90625 
Q 16.5 51.421875 16.5 36.375 
Q 16.5 21.390625 20.328125 13.890625 
Q 24.171875 6.390625 31.78125 6.390625 
Q 39.453125 6.390625 43.28125 13.890625 
Q 47.125 21.390625 47.125 36.375 
Q 47.125 51.421875 43.28125 58.90625 
Q 39.453125 66.40625 31.78125 66.40625 
z
M 31.78125 74.21875 
Q 44.046875 74.21875 50.515625 64.515625 
Q 56.984375 54.828125 56.984375 36.375 
Q 56.984375 17.96875 50.515625 8.265625 
Q 44.046875 -1.421875 31.78125 -1.421875 
Q 19.53125 -1.421875 13.0625 8.265625 
Q 6.59375 17.96875 6.59375 36.375 
Q 6.59375 54.828125 13.0625 64.515625 
Q 19.53125 74.21875 31.78125 74.21875 
z
" id="DejaVuSans-48"/>
      </defs>
      <g transform="translate(243.200937 471.796562)scale(0.1 -0.1)">
       <use xlink:href="#DejaVuSans-48"/>
      </g>
     </g>
    </g>
    <g id="xtick_4">
     <g id="line2d_4">
      <g>
       <use style="stroke:#000000;stroke-width:0.8;" x="333.358187" xlink:href="#maf34af6ff7" y="457.198125"/>
      </g>
     </g>
     <g id="text_4">
      <!-- 2 -->
      <g transform="translate(330.176938 471.796562)scale(0.1 -0.1)">
       <use xlink:href="#DejaVuSans-50"/>
      </g>
     </g>
    </g>
    <g id="xtick_5">
     <g id="line2d_5">
      <g>
       <use style="stroke:#000000;stroke-width:0.8;" x="420.334187" xlink:href="#maf34af6ff7" y="457.198125"/>
      </g>
     </g>
     <g id="text_5">
      <!-- 4 -->
      <g transform="translate(417.152938 471.796562)scale(0.1 -0.1)">
       <use xlink:href="#DejaVuSans-52"/>
      </g>
     </g>
    </g>
   </g>
   <g id="matplotlib.axis_2">
    <g id="ytick_1">
     <g id="line2d_6">
      <defs>
       <path d="M 0 0 
L -3.5 0 
" id="m322638a0f7" style="stroke:#000000;stroke-width:0.8;"/>
      </defs>
      <g>
       <use style="stroke:#000000;stroke-width:0.8;" x="28.942188" xlink:href="#m322638a0f7" y="413.710125"/>
      </g>
     </g>
     <g id="text_6">
      <!-- −4 -->
      <g transform="translate(7.2 417.509344)scale(0.1 -0.1)">
       <use xlink:href="#DejaVuSans-8722"/>
       <use x="83.789062" xlink:href="#DejaVuSans-52"/>
      </g>
     </g>
    </g>
    <g id="ytick_2">
     <g id="line2d_7">
      <g>
       <use style="stroke:#000000;stroke-width:0.8;" x="28.942188" xlink:href="#m322638a0f7" y="326.734125"/>
      </g>
     </g>
     <g id="text_7">
      <!-- −2 -->
      <g transform="translate(7.2 330.533344)scale(0.1 -0.1)">
       <use xlink:href="#DejaVuSans-8722"/>
       <use x="83.789062" xlink:href="#DejaVuSans-50"/>
      </g>
     </g>
    </g>
    <g id="ytick_3">
     <g id="line2d_8">
      <g>
       <use style="stroke:#000000;stroke-width:0.8;" x="28.942188" xlink:href="#m322638a0f7" y="239.758125"/>
      </g>
     </g>
     <g id="text_8">
      <!-- 0 -->
      <g transform="translate(15.579688 243.557344)scale(0.1 -0.1)">
       <use xlink:href="#DejaVuSans-48"/>
      </g>
     </g>
    </g>
    <g id="ytick_4">
     <g id="line2d_9">
      <g>
       <use style="stroke:#000000;stroke-width:0.8;" x="28.942188" xlink:href="#m322638a0f7" y="152.782125"/>
      </g>
     </g>
     <g id="text_9">
      <!-- 2 -->
      <g transform="translate(15.579688 156.581344)scale(0.1 -0.1)">
       <use xlink:href="#DejaVuSans-50"/>
      </g>
     </g>
    </g>
    <g id="ytick_5">
     <g id="line2d_10">
      <g>
       <use style="stroke:#000000;stroke-width:0.8;" x="28.942188" xlink:href="#m322638a0f7" y="65.806125"/>
      </g>
     </g>
     <g id="text_10">
      <!-- 4 -->
      <g transform="translate(15.579688 69.605344)scale(0.1 -0.1)">
       <use xlink:href="#DejaVuSans-52"/>
      </g>
     </g>
    </g>
   </g>
   <g id="PathCollection_1">
    <defs>
     <path d="M 0 3 
C 0.795609 3 1.55874 2.683901 2.12132 2.12132 
C 2.683901 1.55874 3 0.795609 3 0 
C 3 -0.795609 2.683901 -1.55874 2.12132 -2.12132 
C 1.55874 -2.683901 0.795609 -3 0 -3 
C -0.795609 -3 -1.55874 -2.683901 -2.12132 -2.12132 
C -2.683901 -1.55874 -3 -0.795609 -3 0 
C -3 0.795609 -2.683901 1.55874 -2.12132 2.12132 
C -1.55874 2.683901 -0.795609 3 0 3 
z
" id="m85caa3db29" style="stroke:#ff0000;"/>
    </defs>
    <g clip-path="url(#p7e2dd41c07)">
     <use style="fill:#ff0000;stroke:#ff0000;" x="365.539308" xlink:href="#m85caa3db29" y="161.479725"/>
    </g>
   </g>
   <g id="line2d_11">
    <path clip-path="url(#p7e2dd41c07)" d="M 424.052709 272.500596 
L 419.135991 264.708934 
L 418.0677 253.273369 
L 418.683739 254.905347 
L 417.806959 244.515024 
L 417.89206 236.763901 
L 418.643614 226.309826 
L 422.951401 218.583979 
L 422.600099 211.080357 
L 420.980946 202.45154 
L 421.599441 192.901373 
L 419.626426 181.280755 
L 416.510843 169.287318 
L 407.898477 160.563044 
L 398.493769 154.497736 
L 391.793523 149.281094 
L 378.064596 146.27138 
L 368.720285 139.10639 
L 370.792842 150.327467 
L 369.048534 158.909589 
L 367.7847 156.487367 
L 369.57457 156.485569 
L 370.954829 160.184279 
L 369.277998 156.950617 
L 369.745488 158.691238 
L 368.045753 156.538653 
L 366.208791 161.522423 
L 368.345572 159.176735 
L 365.782027 159.5817 
L 366.020214 158.178391 
L 368.900461 160.232362 
L 366.759588 157.297939 
L 368.083464 162.350478 
L 369.154739 159.86128 
L 368.548937 160.968767 
L 367.690053 162.584999 
L 372.333105 162.649085 
L 371.834898 159.530037 
L 371.651182 158.018567 
L 375.525477 158.424761 
" style="fill:none;stroke:#0000ff;stroke-dasharray:5.55,2.4;stroke-dashoffset:0;stroke-width:1.5;"/>
   </g>
   <g id="line2d_12">
    <path clip-path="url(#p7e2dd41c07)" d="M 233.336793 392.32964 
L 237.695347 381.418839 
L 241.854949 372.231353 
L 247.38943 363.732538 
L 252.957184 353.982184 
L 256.133911 345.972483 
L 259.783268 337.289749 
L 264.574814 328.796525 
L 269.339314 320.978526 
L 269.490348 308.048615 
L 268.079319 296.665074 
L 273.559493 287.89258 
L 283.514792 280.303576 
L 294.583466 275.652636 
L 302.152676 269.990881 
L 310.853154 262.556558 
L 321.181641 258.390175 
L 328.084627 252.985656 
L 337.487808 244.769168 
L 344.236151 238.669911 
L 357.414742 232.253553 
L 347.497367 240.699638 
L 354.628442 232.694414 
L 364.007872 226.33855 
L 372.504969 221.19968 
L 385.045938 214.537194 
L 397.511927 210.548992 
L 406.598703 207.741165 
L 418.763271 202.546828 
L 422.359299 194.727707 
L 426.195742 185.019044 
L 422.57956 174.232294 
L 421.122003 161.859775 
L 417.175543 149.799577 
L 410.022728 142.559056 
L 398.716442 140.525115 
L 388.575653 136.467775 
L 379.832855 135.823859 
L 368.458534 132.765982 
L 379.42477 134.20348 
" style="fill:none;stroke:#0000ff;stroke-dasharray:5.55,2.4;stroke-dashoffset:0;stroke-width:1.5;"/>
   </g>
   <g id="line2d_13">
    <path clip-path="url(#p7e2dd41c07)" d="M 342.363068 115.988351 
L 343.380996 127.050797 
L 344.630298 134.585351 
L 347.358024 145.108309 
L 357.680255 154.098869 
L 368.334648 160.465605 
L 372.108686 160.917806 
L 370.149332 159.558868 
L 369.420794 159.006937 
L 369.17277 154.835929 
L 369.313898 153.446361 
L 372.002624 157.660377 
L 373.372405 154.542774 
L 360.727947 153.927179 
L 357.960789 153.303699 
L 372.428915 154.299544 
L 368.203433 154.913045 
L 366.759273 153.934173 
L 366.04349 151.476993 
L 376.4331 158.411988 
L 369.193347 153.588602 
L 369.324973 151.9548 
L 367.853015 151.019134 
L 381.299052 147.305228 
L 371.525864 148.111548 
L 360.849863 150.678007 
L 371.760056 147.742154 
L 361.178402 150.7342 
L 373.975903 146.998449 
L 364.240057 156.598673 
L 360.284427 156.748388 
L 364.718011 154.930585 
L 365.632395 152.530423 
L 361.070279 165.540765 
L 362.205634 165.660587 
L 361.114963 165.981701 
L 359.66776 167.918358 
L 361.501165 167.892687 
L 363.943132 163.229828 
L 366.021953 165.257509 
" style="fill:none;stroke:#0000ff;stroke-dasharray:5.55,2.4;stroke-dashoffset:0;stroke-width:1.5;"/>
   </g>
   <g id="line2d_14">
    <path clip-path="url(#p7e2dd41c07)" d="M 71.871695 97.004404 
L 82.947732 98.678385 
L 93.213451 102.802211 
L 105.288881 103.203548 
L 117.709857 102.911464 
L 129.904254 102.34191 
L 142.684271 100.640554 
L 154.261184 101.245906 
L 164.987396 99.029795 
L 173.286322 101.06782 
L 185.879437 101.409123 
L 192.502018 102.751409 
L 200.358811 104.390551 
L 214.051233 104.516733 
L 226.276231 103.309542 
L 234.967634 102.240487 
L 245.942751 100.0547 
L 257.353494 99.257787 
L 267.607182 100.155162 
L 276.061618 97.674132 
L 282.802417 101.882766 
L 289.255116 101.88108 
L 301.193223 98.697905 
L 312.299165 98.983223 
L 319.048466 99.136875 
L 329.900206 103.078524 
L 338.071526 107.100142 
L 347.538661 112.873492 
L 353.101092 120.689651 
L 355.227552 127.3658 
L 362.201761 133.230211 
L 371.111627 135.826345 
L 380.435248 142.908787 
L 389.409136 145.698475 
L 380.403002 147.207939 
L 369.718516 147.598048 
L 358.93462 148.317766 
L 368.880087 147.447197 
L 362.063552 152.031659 
L 371.079743 145.246156 
" style="fill:none;stroke:#0000ff;stroke-dasharray:5.55,2.4;stroke-dashoffset:0;stroke-width:1.5;"/>
   </g>
   <g id="line2d_15">
    <path clip-path="url(#p7e2dd41c07)" d="M 402.747734 111.741284 
L 403.163576 124.06672 
L 399.297294 132.214627 
L 394.289803 141.255191 
L 390.670335 147.299281 
L 383.537024 151.740113 
L 372.950657 156.531721 
L 370.891513 156.291608 
L 369.466575 156.81371 
L 371.420456 153.029219 
L 369.098717 154.053362 
L 367.472698 151.788341 
L 370.294485 151.838059 
L 358.238259 152.209006 
L 364.284585 148.411662 
L 360.002326 161.939156 
L 358.935258 159.999601 
L 360.728491 158.832629 
L 358.077312 158.278532 
L 358.421485 159.488898 
L 355.97702 160.629276 
L 355.617402 157.52932 
L 356.247225 146.145904 
L 356.942547 155.008409 
L 356.508838 166.843342 
L 352.567795 157.019756 
L 351.957643 144.976196 
L 351.845699 155.354781 
L 351.957726 144.077168 
L 355.470684 136.890826 
L 362.298468 127.753487 
L 355.274589 138.270054 
L 361.230257 131.404149 
L 370.020738 126.685356 
L 360.815423 128.779909 
L 370.421433 124.234585 
L 380.328477 127.27154 
L 367.281151 130.121673 
L 376.811729 133.715237 
L 361.321868 131.476933 
" style="fill:none;stroke:#0000ff;stroke-dasharray:5.55,2.4;stroke-dashoffset:0;stroke-width:1.5;"/>
   </g>
   <g id="line2d_16">
    <path clip-path="url(#p7e2dd41c07)" d="M 41.67975 225.123237 
L 51.710878 225.307728 
L 61.956509 223.661936 
L 76.634518 221.981447 
L 85.814343 215.267753 
L 96.040869 210.774624 
L 105.475201 206.653205 
L 115.849082 201.431036 
L 125.830247 192.546888 
L 133.374889 181.378842 
L 137.3559 173.730015 
L 146.055089 162.575912 
L 151.216097 153.407591 
L 157.528673 143.011051 
L 168.50637 141.064943 
L 180.205578 131.16647 
L 191.080495 125.294512 
L 198.082882 122.396118 
L 207.445801 118.614728 
L 213.12799 116.662158 
L 225.922344 111.753083 
L 238.320312 110.086831 
L 244.453698 106.411021 
L 256.521922 105.608099 
L 267.071334 99.833212 
L 280.9062 94.291592 
L 295.374293 92.75016 
L 303.113434 87.129301 
L 313.351158 88.619251 
L 327.546109 87.332576 
L 337.276403 91.819127 
L 344.164804 99.356397 
L 352.747278 105.109519 
L 355.167302 115.247361 
L 355.334023 127.185014 
L 357.388355 140.459067 
L 362.054832 150.273514 
L 367.861504 157.321316 
L 367.749387 155.622274 
L 365.618932 154.830494 
" style="fill:none;stroke:#0000ff;stroke-dasharray:5.55,2.4;stroke-dashoffset:0;stroke-width:1.5;"/>
   </g>
   <g id="line2d_17">
    <path clip-path="url(#p7e2dd41c07)" d="M 256.191049 444.414905 
L 264.792705 451.263735 
L 280.105031 444.942009 
L 292.661067 444.217733 
L 304.566882 443.717364 
L 311.585 436.599069 
L 321.603199 429.763719 
L 330.161855 423.530711 
L 338.962643 414.296073 
L 348.257353 404.368845 
L 354.96066 390.29202 
L 362.484651 382.633019 
L 369.721176 372.482989 
L 375.078243 366.72741 
L 379.184519 364.074631 
L 388.29966 357.013945 
L 395.228088 347.104354 
L 402.439998 341.846211 
L 411.711259 336.839894 
L 417.031994 327.551001 
L 422.255533 316.383821 
L 426.620561 305.922492 
L 428.178365 297.923255 
L 432.463001 285.998355 
L 433.260242 275.03131 
L 437.359404 265.218383 
L 440.794708 255.290714 
L 444.130273 243.311304 
L 443.554137 235.155539 
L 445.146598 218.984174 
L 447.476857 209.27924 
L 444.855646 196.640646 
L 440.784292 184.717249 
L 434.280595 174.099558 
L 430.071101 167.175998 
L 420.606535 159.622878 
L 409.594956 157.04974 
L 400.197677 156.272084 
L 390.103323 151.689187 
L 378.561879 146.420736 
" style="fill:none;stroke:#0000ff;stroke-dasharray:5.55,2.4;stroke-dashoffset:0;stroke-width:1.5;"/>
   </g>
   <g id="line2d_18">
    <path clip-path="url(#p7e2dd41c07)" d="M 95.439201 222.492879 
L 89.889999 213.888972 
L 86.931527 202.363769 
L 88.801027 188.720739 
L 92.547675 176.193287 
L 98.761481 166.315286 
L 102.992116 158.925568 
L 111.797239 152.837644 
L 120.890328 148.144767 
L 129.462512 141.592763 
L 139.177171 133.372349 
L 147.611653 125.039093 
L 156.725107 116.190702 
L 164.536745 108.037172 
L 178.016201 104.975266 
L 186.843097 108.161088 
L 198.100625 107.303924 
L 202.16541 103.582787 
L 213.793992 104.837333 
L 225.344993 103.523353 
L 236.568883 105.998842 
L 248.832991 109.837566 
L 260.878209 111.082577 
L 268.67358 109.967135 
L 279.460408 101.955868 
L 292.397476 98.434834 
L 302.596405 95.075358 
L 313.508563 95.061628 
L 325.152536 99.327705 
L 337.36937 105.189509 
L 344.936693 110.234591 
L 347.665238 117.401576 
L 353.377005 128.62207 
L 359.60652 135.243236 
L 367.232011 144.150395 
L 374.040986 149.623128 
L 379.006529 158.804548 
L 378.068784 148.453361 
L 385.699992 156.988777 
L 382.496563 143.798431 
" style="fill:none;stroke:#0000ff;stroke-dasharray:5.55,2.4;stroke-dashoffset:0;stroke-width:1.5;"/>
   </g>
   <g id="patch_8">
    <path d="M 28.942188 457.198125 
L 28.942188 22.318125 
" style="fill:none;stroke:#000000;stroke-linecap:square;stroke-linejoin:miter;stroke-width:0.8;"/>
   </g>
   <g id="patch_9">
    <path d="M 463.822187 457.198125 
L 463.822187 22.318125 
" style="fill:none;stroke:#000000;stroke-linecap:square;stroke-linejoin:miter;stroke-width:0.8;"/>
   </g>
   <g id="patch_10">
    <path d="M 28.942187 457.198125 
L 463.822187 457.198125 
" style="fill:none;stroke:#000000;stroke-linecap:square;stroke-linejoin:miter;stroke-width:0.8;"/>
   </g>
   <g id="patch_11">
    <path d="M 28.942187 22.318125 
L 463.822187 22.318125 
" style="fill:none;stroke:#000000;stroke-linecap:square;stroke-linejoin:miter;stroke-width:0.8;"/>
   </g>
   <g id="text_11">
    <!-- Traces of robust DWA, with perturbations -->
    <defs>
     <path d="M -0.296875 72.90625 
L 61.375 72.90625 
L 61.375 64.59375 
L 35.5 64.59375 
L 35.5 0 
L 25.59375 0 
L 25.59375 64.59375 
L -0.296875 64.59375 
z
" id="DejaVuSans-84"/>
     <path d="M 41.109375 46.296875 
Q 39.59375 47.171875 37.8125 47.578125 
Q 36.03125 48 33.890625 48 
Q 26.265625 48 22.1875 43.046875 
Q 18.109375 38.09375 18.109375 28.8125 
L 18.109375 0 
L 9.078125 0 
L 9.078125 54.6875 
L 18.109375 54.6875 
L 18.109375 46.1875 
Q 20.953125 51.171875 25.484375 53.578125 
Q 30.03125 56 36.53125 56 
Q 37.453125 56 38.578125 55.875 
Q 39.703125 55.765625 41.0625 55.515625 
z
" id="DejaVuSans-114"/>
     <path d="M 34.28125 27.484375 
Q 23.390625 27.484375 19.1875 25 
Q 14.984375 22.515625 14.984375 16.5 
Q 14.984375 11.71875 18.140625 8.90625 
Q 21.296875 6.109375 26.703125 6.109375 
Q 34.1875 6.109375 38.703125 11.40625 
Q 43.21875 16.703125 43.21875 25.484375 
L 43.21875 27.484375 
z
M 52.203125 31.203125 
L 52.203125 0 
L 43.21875 0 
L 43.21875 8.296875 
Q 40.140625 3.328125 35.546875 0.953125 
Q 30.953125 -1.421875 24.3125 -1.421875 
Q 15.921875 -1.421875 10.953125 3.296875 
Q 6 8.015625 6 15.921875 
Q 6 25.140625 12.171875 29.828125 
Q 18.359375 34.515625 30.609375 34.515625 
L 43.21875 34.515625 
L 43.21875 35.40625 
Q 43.21875 41.609375 39.140625 45 
Q 35.0625 48.390625 27.6875 48.390625 
Q 23 48.390625 18.546875 47.265625 
Q 14.109375 46.140625 10.015625 43.890625 
L 10.015625 52.203125 
Q 14.9375 54.109375 19.578125 55.046875 
Q 24.21875 56 28.609375 56 
Q 40.484375 56 46.34375 49.84375 
Q 52.203125 43.703125 52.203125 31.203125 
z
" id="DejaVuSans-97"/>
     <path d="M 48.78125 52.59375 
L 48.78125 44.1875 
Q 44.96875 46.296875 41.140625 47.34375 
Q 37.3125 48.390625 33.40625 48.390625 
Q 24.65625 48.390625 19.8125 42.84375 
Q 14.984375 37.3125 14.984375 27.296875 
Q 14.984375 17.28125 19.8125 11.734375 
Q 24.65625 6.203125 33.40625 6.203125 
Q 37.3125 6.203125 41.140625 7.25 
Q 44.96875 8.296875 48.78125 10.40625 
L 48.78125 2.09375 
Q 45.015625 0.34375 40.984375 -0.53125 
Q 36.96875 -1.421875 32.421875 -1.421875 
Q 20.0625 -1.421875 12.78125 6.34375 
Q 5.515625 14.109375 5.515625 27.296875 
Q 5.515625 40.671875 12.859375 48.328125 
Q 20.21875 56 33.015625 56 
Q 37.15625 56 41.109375 55.140625 
Q 45.0625 54.296875 48.78125 52.59375 
z
" id="DejaVuSans-99"/>
     <path d="M 56.203125 29.59375 
L 56.203125 25.203125 
L 14.890625 25.203125 
Q 15.484375 15.921875 20.484375 11.0625 
Q 25.484375 6.203125 34.421875 6.203125 
Q 39.59375 6.203125 44.453125 7.46875 
Q 49.3125 8.734375 54.109375 11.28125 
L 54.109375 2.78125 
Q 49.265625 0.734375 44.1875 -0.34375 
Q 39.109375 -1.421875 33.890625 -1.421875 
Q 20.796875 -1.421875 13.15625 6.1875 
Q 5.515625 13.8125 5.515625 26.8125 
Q 5.515625 40.234375 12.765625 48.109375 
Q 20.015625 56 32.328125 56 
Q 43.359375 56 49.78125 48.890625 
Q 56.203125 41.796875 56.203125 29.59375 
z
M 47.21875 32.234375 
Q 47.125 39.59375 43.09375 43.984375 
Q 39.0625 48.390625 32.421875 48.390625 
Q 24.90625 48.390625 20.390625 44.140625 
Q 15.875 39.890625 15.1875 32.171875 
z
" id="DejaVuSans-101"/>
     <path d="M 44.28125 53.078125 
L 44.28125 44.578125 
Q 40.484375 46.53125 36.375 47.5 
Q 32.28125 48.484375 27.875 48.484375 
Q 21.1875 48.484375 17.84375 46.4375 
Q 14.5 44.390625 14.5 40.28125 
Q 14.5 37.15625 16.890625 35.375 
Q 19.28125 33.59375 26.515625 31.984375 
L 29.59375 31.296875 
Q 39.15625 29.25 43.1875 25.515625 
Q 47.21875 21.78125 47.21875 15.09375 
Q 47.21875 7.46875 41.1875 3.015625 
Q 35.15625 -1.421875 24.609375 -1.421875 
Q 20.21875 -1.421875 15.453125 -0.5625 
Q 10.6875 0.296875 5.421875 2 
L 5.421875 11.28125 
Q 10.40625 8.6875 15.234375 7.390625 
Q 20.0625 6.109375 24.8125 6.109375 
Q 31.15625 6.109375 34.5625 8.28125 
Q 37.984375 10.453125 37.984375 14.40625 
Q 37.984375 18.0625 35.515625 20.015625 
Q 33.0625 21.96875 24.703125 23.78125 
L 21.578125 24.515625 
Q 13.234375 26.265625 9.515625 29.90625 
Q 5.8125 33.546875 5.8125 39.890625 
Q 5.8125 47.609375 11.28125 51.796875 
Q 16.75 56 26.8125 56 
Q 31.78125 56 36.171875 55.265625 
Q 40.578125 54.546875 44.28125 53.078125 
z
" id="DejaVuSans-115"/>
     <path id="DejaVuSans-32"/>
     <path d="M 30.609375 48.390625 
Q 23.390625 48.390625 19.1875 42.75 
Q 14.984375 37.109375 14.984375 27.296875 
Q 14.984375 17.484375 19.15625 11.84375 
Q 23.34375 6.203125 30.609375 6.203125 
Q 37.796875 6.203125 41.984375 11.859375 
Q 46.1875 17.53125 46.1875 27.296875 
Q 46.1875 37.015625 41.984375 42.703125 
Q 37.796875 48.390625 30.609375 48.390625 
z
M 30.609375 56 
Q 42.328125 56 49.015625 48.375 
Q 55.71875 40.765625 55.71875 27.296875 
Q 55.71875 13.875 49.015625 6.21875 
Q 42.328125 -1.421875 30.609375 -1.421875 
Q 18.84375 -1.421875 12.171875 6.21875 
Q 5.515625 13.875 5.515625 27.296875 
Q 5.515625 40.765625 12.171875 48.375 
Q 18.84375 56 30.609375 56 
z
" id="DejaVuSans-111"/>
     <path d="M 37.109375 75.984375 
L 37.109375 68.5 
L 28.515625 68.5 
Q 23.6875 68.5 21.796875 66.546875 
Q 19.921875 64.59375 19.921875 59.515625 
L 19.921875 54.6875 
L 34.71875 54.6875 
L 34.71875 47.703125 
L 19.921875 47.703125 
L 19.921875 0 
L 10.890625 0 
L 10.890625 47.703125 
L 2.296875 47.703125 
L 2.296875 54.6875 
L 10.890625 54.6875 
L 10.890625 58.5 
Q 10.890625 67.625 15.140625 71.796875 
Q 19.390625 75.984375 28.609375 75.984375 
z
" id="DejaVuSans-102"/>
     <path d="M 48.6875 27.296875 
Q 48.6875 37.203125 44.609375 42.84375 
Q 40.53125 48.484375 33.40625 48.484375 
Q 26.265625 48.484375 22.1875 42.84375 
Q 18.109375 37.203125 18.109375 27.296875 
Q 18.109375 17.390625 22.1875 11.75 
Q 26.265625 6.109375 33.40625 6.109375 
Q 40.53125 6.109375 44.609375 11.75 
Q 48.6875 17.390625 48.6875 27.296875 
z
M 18.109375 46.390625 
Q 20.953125 51.265625 25.265625 53.625 
Q 29.59375 56 35.59375 56 
Q 45.5625 56 51.78125 48.09375 
Q 58.015625 40.1875 58.015625 27.296875 
Q 58.015625 14.40625 51.78125 6.484375 
Q 45.5625 -1.421875 35.59375 -1.421875 
Q 29.59375 -1.421875 25.265625 0.953125 
Q 20.953125 3.328125 18.109375 8.203125 
L 18.109375 0 
L 9.078125 0 
L 9.078125 75.984375 
L 18.109375 75.984375 
z
" id="DejaVuSans-98"/>
     <path d="M 8.5 21.578125 
L 8.5 54.6875 
L 17.484375 54.6875 
L 17.484375 21.921875 
Q 17.484375 14.15625 20.5 10.265625 
Q 23.53125 6.390625 29.59375 6.390625 
Q 36.859375 6.390625 41.078125 11.03125 
Q 45.3125 15.671875 45.3125 23.6875 
L 45.3125 54.6875 
L 54.296875 54.6875 
L 54.296875 0 
L 45.3125 0 
L 45.3125 8.40625 
Q 42.046875 3.421875 37.71875 1 
Q 33.40625 -1.421875 27.6875 -1.421875 
Q 18.265625 -1.421875 13.375 4.4375 
Q 8.5 10.296875 8.5 21.578125 
z
M 31.109375 56 
z
" id="DejaVuSans-117"/>
     <path d="M 18.3125 70.21875 
L 18.3125 54.6875 
L 36.8125 54.6875 
L 36.8125 47.703125 
L 18.3125 47.703125 
L 18.3125 18.015625 
Q 18.3125 11.328125 20.140625 9.421875 
Q 21.96875 7.515625 27.59375 7.515625 
L 36.8125 7.515625 
L 36.8125 0 
L 27.59375 0 
Q 17.1875 0 13.234375 3.875 
Q 9.28125 7.765625 9.28125 18.015625 
L 9.28125 47.703125 
L 2.6875 47.703125 
L 2.6875 54.6875 
L 9.28125 54.6875 
L 9.28125 70.21875 
z
" id="DejaVuSans-116"/>
     <path d="M 19.671875 64.796875 
L 19.671875 8.109375 
L 31.59375 8.109375 
Q 46.6875 8.109375 53.6875 14.9375 
Q 60.6875 21.78125 60.6875 36.53125 
Q 60.6875 51.171875 53.6875 57.984375 
Q 46.6875 64.796875 31.59375 64.796875 
z
M 9.8125 72.90625 
L 30.078125 72.90625 
Q 51.265625 72.90625 61.171875 64.09375 
Q 71.09375 55.28125 71.09375 36.53125 
Q 71.09375 17.671875 61.125 8.828125 
Q 51.171875 0 30.078125 0 
L 9.8125 0 
z
" id="DejaVuSans-68"/>
     <path d="M 3.328125 72.90625 
L 13.28125 72.90625 
L 28.609375 11.28125 
L 43.890625 72.90625 
L 54.984375 72.90625 
L 70.3125 11.28125 
L 85.59375 72.90625 
L 95.609375 72.90625 
L 77.296875 0 
L 64.890625 0 
L 49.515625 63.28125 
L 33.984375 0 
L 21.578125 0 
z
" id="DejaVuSans-87"/>
     <path d="M 34.1875 63.1875 
L 20.796875 26.90625 
L 47.609375 26.90625 
z
M 28.609375 72.90625 
L 39.796875 72.90625 
L 67.578125 0 
L 57.328125 0 
L 50.6875 18.703125 
L 17.828125 18.703125 
L 11.1875 0 
L 0.78125 0 
z
" id="DejaVuSans-65"/>
     <path d="M 11.71875 12.40625 
L 22.015625 12.40625 
L 22.015625 4 
L 14.015625 -11.625 
L 7.71875 -11.625 
L 11.71875 4 
z
" id="DejaVuSans-44"/>
     <path d="M 4.203125 54.6875 
L 13.1875 54.6875 
L 24.421875 12.015625 
L 35.59375 54.6875 
L 46.1875 54.6875 
L 57.421875 12.015625 
L 68.609375 54.6875 
L 77.59375 54.6875 
L 63.28125 0 
L 52.6875 0 
L 40.921875 44.828125 
L 29.109375 0 
L 18.5 0 
z
" id="DejaVuSans-119"/>
     <path d="M 9.421875 54.6875 
L 18.40625 54.6875 
L 18.40625 0 
L 9.421875 0 
z
M 9.421875 75.984375 
L 18.40625 75.984375 
L 18.40625 64.59375 
L 9.421875 64.59375 
z
" id="DejaVuSans-105"/>
     <path d="M 54.890625 33.015625 
L 54.890625 0 
L 45.90625 0 
L 45.90625 32.71875 
Q 45.90625 40.484375 42.875 44.328125 
Q 39.84375 48.1875 33.796875 48.1875 
Q 26.515625 48.1875 22.3125 43.546875 
Q 18.109375 38.921875 18.109375 30.90625 
L 18.109375 0 
L 9.078125 0 
L 9.078125 75.984375 
L 18.109375 75.984375 
L 18.109375 46.1875 
Q 21.34375 51.125 25.703125 53.5625 
Q 30.078125 56 35.796875 56 
Q 45.21875 56 50.046875 50.171875 
Q 54.890625 44.34375 54.890625 33.015625 
z
" id="DejaVuSans-104"/>
     <path d="M 18.109375 8.203125 
L 18.109375 -20.796875 
L 9.078125 -20.796875 
L 9.078125 54.6875 
L 18.109375 54.6875 
L 18.109375 46.390625 
Q 20.953125 51.265625 25.265625 53.625 
Q 29.59375 56 35.59375 56 
Q 45.5625 56 51.78125 48.09375 
Q 58.015625 40.1875 58.015625 27.296875 
Q 58.015625 14.40625 51.78125 6.484375 
Q 45.5625 -1.421875 35.59375 -1.421875 
Q 29.59375 -1.421875 25.265625 0.953125 
Q 20.953125 3.328125 18.109375 8.203125 
z
M 48.6875 27.296875 
Q 48.6875 37.203125 44.609375 42.84375 
Q 40.53125 48.484375 33.40625 48.484375 
Q 26.265625 48.484375 22.1875 42.84375 
Q 18.109375 37.203125 18.109375 27.296875 
Q 18.109375 17.390625 22.1875 11.75 
Q 26.265625 6.109375 33.40625 6.109375 
Q 40.53125 6.109375 44.609375 11.75 
Q 48.6875 17.390625 48.6875 27.296875 
z
" id="DejaVuSans-112"/>
     <path d="M 54.890625 33.015625 
L 54.890625 0 
L 45.90625 0 
L 45.90625 32.71875 
Q 45.90625 40.484375 42.875 44.328125 
Q 39.84375 48.1875 33.796875 48.1875 
Q 26.515625 48.1875 22.3125 43.546875 
Q 18.109375 38.921875 18.109375 30.90625 
L 18.109375 0 
L 9.078125 0 
L 9.078125 54.6875 
L 18.109375 54.6875 
L 18.109375 46.1875 
Q 21.34375 51.125 25.703125 53.5625 
Q 30.078125 56 35.796875 56 
Q 45.21875 56 50.046875 50.171875 
Q 54.890625 44.34375 54.890625 33.015625 
z
" id="DejaVuSans-110"/>
    </defs>
    <g transform="translate(121.946875 16.318125)scale(0.12 -0.12)">
     <use xlink:href="#DejaVuSans-84"/>
     <use x="60.865234" xlink:href="#DejaVuSans-114"/>
     <use x="101.978516" xlink:href="#DejaVuSans-97"/>
     <use x="163.257812" xlink:href="#DejaVuSans-99"/>
     <use x="218.238281" xlink:href="#DejaVuSans-101"/>
     <use x="279.761719" xlink:href="#DejaVuSans-115"/>
     <use x="331.861328" xlink:href="#DejaVuSans-32"/>
     <use x="363.648438" xlink:href="#DejaVuSans-111"/>
     <use x="424.830078" xlink:href="#DejaVuSans-102"/>
     <use x="460.035156" xlink:href="#DejaVuSans-32"/>
     <use x="491.822266" xlink:href="#DejaVuSans-114"/>
     <use x="532.904297" xlink:href="#DejaVuSans-111"/>
     <use x="594.085938" xlink:href="#DejaVuSans-98"/>
     <use x="657.5625" xlink:href="#DejaVuSans-117"/>
     <use x="720.941406" xlink:href="#DejaVuSans-115"/>
     <use x="773.041016" xlink:href="#DejaVuSans-116"/>
     <use x="812.25" xlink:href="#DejaVuSans-32"/>
     <use x="844.037109" xlink:href="#DejaVuSans-68"/>
     <use x="921.039062" xlink:href="#DejaVuSans-87"/>
     <use x="1019.837891" xlink:href="#DejaVuSans-65"/>
     <use x="1088.246094" xlink:href="#DejaVuSans-44"/>
     <use x="1120.033203" xlink:href="#DejaVuSans-32"/>
     <use x="1151.820312" xlink:href="#DejaVuSans-119"/>
     <use x="1233.607422" xlink:href="#DejaVuSans-105"/>
     <use x="1261.390625" xlink:href="#DejaVuSans-116"/>
     <use x="1300.599609" xlink:href="#DejaVuSans-104"/>
     <use x="1363.978516" xlink:href="#DejaVuSans-32"/>
     <use x="1395.765625" xlink:href="#DejaVuSans-112"/>
     <use x="1459.242188" xlink:href="#DejaVuSans-101"/>
     <use x="1520.765625" xlink:href="#DejaVuSans-114"/>
     <use x="1561.878906" xlink:href="#DejaVuSans-116"/>
     <use x="1601.087891" xlink:href="#DejaVuSans-117"/>
     <use x="1664.466797" xlink:href="#DejaVuSans-114"/>
     <use x="1705.580078" xlink:href="#DejaVuSans-98"/>
     <use x="1769.056641" xlink:href="#DejaVuSans-97"/>
     <use x="1830.335938" xlink:href="#DejaVuSans-116"/>
     <use x="1869.544922" xlink:href="#DejaVuSans-105"/>
     <use x="1897.328125" xlink:href="#DejaVuSans-111"/>
     <use x="1958.509766" xlink:href="#DejaVuSans-110"/>
     <use x="2021.888672" xlink:href="#DejaVuSans-115"/>
    </g>
   </g>
  </g>
 </g>
 <defs>
  <clipPath id="p7e2dd41c07">
   <rect height="434.88" width="434.88" x="28.942188" y="22.318125"/>
  </clipPath>
 </defs>
</svg>
