<?xml version="1.0" encoding="utf-8" standalone="no"?>
<!DOCTYPE svg PUBLIC "-//W3C//DTD SVG 1.1//EN"
  "http://www.w3.org/Graphics/SVG/1.1/DTD/svg11.dtd">
<svg xmlns:xlink="http://www.w3.org/1999/xlink" width="489.82pt" height="489.71625pt" viewBox="0 0 489.82 489.71625" xmlns="http://www.w3.org/2000/svg" version="1.1">
 <metadata>
  <rdf:RDF xmlns:dc="http://purl.org/dc/elements/1.1/" xmlns:cc="http://creativecommons.org/ns#" xmlns:rdf="http://www.w3.org/1999/02/22-rdf-syntax-ns#">
   <cc:Work>
    <dc:type rdf:resource="http://purl.org/dc/dcmitype/StillImage"/>
    <dc:date>2024-07-24T22:17:55.865835</dc:date>
    <dc:format>image/svg+xml</dc:format>
    <dc:creator>
     <cc:Agent>
      <dc:title>Matplotlib v3.7.1, https://matplotlib.org/</dc:title>
     </cc:Agent>
    </dc:creator>
   </cc:Work>
  </rdf:RDF>
 </metadata>
 <defs>
  <style type="text/css">*{stroke-linejoin: round; stroke-linecap: butt}</style>
 </defs>
 <g id="figure_1">
  <g id="patch_1">
   <path d="M 0 489.71625 
L 489.82 489.71625 
L 489.82 0 
L 0 0 
z
" style="fill: #ffffff"/>
  </g>
  <g id="axes_1">
   <g id="patch_2">
    <path d="M 28.942188 465.838125 
L 472.462188 465.838125 
L 472.462188 22.318125 
L 28.942188 22.318125 
z
" style="fill: #ffffff"/>
   </g>
   <g id="patch_3">
    <path d="M 161.998188 332.782125 
L 206.350188 332.782125 
L 206.350188 155.374125 
L 161.998188 155.374125 
z
" clip-path="url(#p5c1bbc7f77)"/>
   </g>
   <g id="patch_4">
    <path d="M 295.054188 199.726125 
L 339.406187 199.726125 
L 339.406187 111.022125 
L 295.054188 111.022125 
z
" clip-path="url(#p5c1bbc7f77)"/>
   </g>
   <g id="patch_5">
    <path d="M 295.054188 199.726125 
L 419.239788 199.726125 
L 419.239788 177.550125 
L 295.054188 177.550125 
z
" clip-path="url(#p5c1bbc7f77)"/>
   </g>
   <g id="patch_6">
    <path d="M 295.054188 310.606125 
L 419.239788 310.606125 
L 419.239788 288.430125 
L 295.054188 288.430125 
z
" clip-path="url(#p5c1bbc7f77)"/>
   </g>
   <g id="patch_7">
    <path d="M 397.063788 288.430125 
L 419.239788 288.430125 
L 419.239788 221.902125 
L 397.063788 221.902125 
z
" clip-path="url(#p5c1bbc7f77)"/>
   </g>
   <g id="matplotlib.axis_1">
    <g id="xtick_1">
     <g id="line2d_1">
      <defs>
       <path id="mdc6bc3c2c0" d="M 0 0 
L 0 3.5 
" style="stroke: #000000; stroke-width: 0.8"/>
      </defs>
      <g>
       <use xlink:href="#mdc6bc3c2c0" x="73.294188" y="465.838125" style="stroke: #000000; stroke-width: 0.8"/>
      </g>
     </g>
     <g id="text_1">
      <!-- −4 -->
      <g transform="translate(65.923094 480.436562) scale(0.1 -0.1)">
       <defs>
        <path id="DejaVuSans-2212" d="M 678 2272 
L 4684 2272 
L 4684 1741 
L 678 1741 
L 678 2272 
z
" transform="scale(0.015625)"/>
        <path id="DejaVuSans-34" d="M 2419 4116 
L 825 1625 
L 2419 1625 
L 2419 4116 
z
M 2253 4666 
L 3047 4666 
L 3047 1625 
L 3713 1625 
L 3713 1100 
L 3047 1100 
L 3047 0 
L 2419 0 
L 2419 1100 
L 313 1100 
L 313 1709 
L 2253 4666 
z
" transform="scale(0.015625)"/>
       </defs>
       <use xlink:href="#DejaVuSans-2212"/>
       <use xlink:href="#DejaVuSans-34" x="83.789062"/>
      </g>
     </g>
    </g>
    <g id="xtick_2">
     <g id="line2d_2">
      <g>
       <use xlink:href="#mdc6bc3c2c0" x="161.998188" y="465.838125" style="stroke: #000000; stroke-width: 0.8"/>
      </g>
     </g>
     <g id="text_2">
      <!-- −2 -->
      <g transform="translate(154.627094 480.436562) scale(0.1 -0.1)">
       <defs>
        <path id="DejaVuSans-32" d="M 1228 531 
L 3431 531 
L 3431 0 
L 469 0 
L 469 531 
Q 828 903 1448 1529 
Q 2069 2156 2228 2338 
Q 2531 2678 2651 2914 
Q 2772 3150 2772 3378 
Q 2772 3750 2511 3984 
Q 2250 4219 1831 4219 
Q 1534 4219 1204 4116 
Q 875 4013 500 3803 
L 500 4441 
Q 881 4594 1212 4672 
Q 1544 4750 1819 4750 
Q 2544 4750 2975 4387 
Q 3406 4025 3406 3419 
Q 3406 3131 3298 2873 
Q 3191 2616 2906 2266 
Q 2828 2175 2409 1742 
Q 1991 1309 1228 531 
z
" transform="scale(0.015625)"/>
       </defs>
       <use xlink:href="#DejaVuSans-2212"/>
       <use xlink:href="#DejaVuSans-32" x="83.789062"/>
      </g>
     </g>
    </g>
    <g id="xtick_3">
     <g id="line2d_3">
      <g>
       <use xlink:href="#mdc6bc3c2c0" x="250.702188" y="465.838125" style="stroke: #000000; stroke-width: 0.8"/>
      </g>
     </g>
     <g id="text_3">
      <!-- 0 -->
      <g transform="translate(247.520938 480.436562) scale(0.1 -0.1)">
       <defs>
        <path id="DejaVuSans-30" d="M 2034 4250 
Q 1547 4250 1301 3770 
Q 1056 3291 1056 2328 
Q 1056 1369 1301 889 
Q 1547 409 2034 409 
Q 2525 409 2770 889 
Q 3016 1369 3016 2328 
Q 3016 3291 2770 3770 
Q 2525 4250 2034 4250 
z
M 2034 4750 
Q 2819 4750 3233 4129 
Q 3647 3509 3647 2328 
Q 3647 1150 3233 529 
Q 2819 -91 2034 -91 
Q 1250 -91 836 529 
Q 422 1150 422 2328 
Q 422 3509 836 4129 
Q 1250 4750 2034 4750 
z
" transform="scale(0.015625)"/>
       </defs>
       <use xlink:href="#DejaVuSans-30"/>
      </g>
     </g>
    </g>
    <g id="xtick_4">
     <g id="line2d_4">
      <g>
       <use xlink:href="#mdc6bc3c2c0" x="339.406188" y="465.838125" style="stroke: #000000; stroke-width: 0.8"/>
      </g>
     </g>
     <g id="text_4">
      <!-- 2 -->
      <g transform="translate(336.224938 480.436562) scale(0.1 -0.1)">
       <use xlink:href="#DejaVuSans-32"/>
      </g>
     </g>
    </g>
    <g id="xtick_5">
     <g id="line2d_5">
      <g>
       <use xlink:href="#mdc6bc3c2c0" x="428.110188" y="465.838125" style="stroke: #000000; stroke-width: 0.8"/>
      </g>
     </g>
     <g id="text_5">
      <!-- 4 -->
      <g transform="translate(424.928938 480.436562) scale(0.1 -0.1)">
       <use xlink:href="#DejaVuSans-34"/>
      </g>
     </g>
    </g>
   </g>
   <g id="matplotlib.axis_2">
    <g id="ytick_1">
     <g id="line2d_6">
      <defs>
       <path id="m2e20b28158" d="M 0 0 
L -3.5 0 
" style="stroke: #000000; stroke-width: 0.8"/>
      </defs>
      <g>
       <use xlink:href="#m2e20b28158" x="28.942188" y="421.486125" style="stroke: #000000; stroke-width: 0.8"/>
      </g>
     </g>
     <g id="text_6">
      <!-- −4 -->
      <g transform="translate(7.2 425.285344) scale(0.1 -0.1)">
       <use xlink:href="#DejaVuSans-2212"/>
       <use xlink:href="#DejaVuSans-34" x="83.789062"/>
      </g>
     </g>
    </g>
    <g id="ytick_2">
     <g id="line2d_7">
      <g>
       <use xlink:href="#m2e20b28158" x="28.942188" y="332.782125" style="stroke: #000000; stroke-width: 0.8"/>
      </g>
     </g>
     <g id="text_7">
      <!-- −2 -->
      <g transform="translate(7.2 336.581344) scale(0.1 -0.1)">
       <use xlink:href="#DejaVuSans-2212"/>
       <use xlink:href="#DejaVuSans-32" x="83.789062"/>
      </g>
     </g>
    </g>
    <g id="ytick_3">
     <g id="line2d_8">
      <g>
       <use xlink:href="#m2e20b28158" x="28.942188" y="244.078125" style="stroke: #000000; stroke-width: 0.8"/>
      </g>
     </g>
     <g id="text_8">
      <!-- 0 -->
      <g transform="translate(15.579688 247.877344) scale(0.1 -0.1)">
       <use xlink:href="#DejaVuSans-30"/>
      </g>
     </g>
    </g>
    <g id="ytick_4">
     <g id="line2d_9">
      <g>
       <use xlink:href="#m2e20b28158" x="28.942188" y="155.374125" style="stroke: #000000; stroke-width: 0.8"/>
      </g>
     </g>
     <g id="text_9">
      <!-- 2 -->
      <g transform="translate(15.579688 159.173344) scale(0.1 -0.1)">
       <use xlink:href="#DejaVuSans-32"/>
      </g>
     </g>
    </g>
    <g id="ytick_5">
     <g id="line2d_10">
      <g>
       <use xlink:href="#m2e20b28158" x="28.942188" y="66.670125" style="stroke: #000000; stroke-width: 0.8"/>
      </g>
     </g>
     <g id="text_10">
      <!-- 4 -->
      <g transform="translate(15.579688 70.469344) scale(0.1 -0.1)">
       <use xlink:href="#DejaVuSans-34"/>
      </g>
     </g>
    </g>
   </g>
   <g id="PathCollection_1">
    <defs>
     <path id="mc1d9727a20" d="M 0 3 
C 0.795609 3 1.55874 2.683901 2.12132 2.12132 
C 2.683901 1.55874 3 0.795609 3 0 
C 3 -0.795609 2.683901 -1.55874 2.12132 -2.12132 
C 1.55874 -2.683901 0.795609 -3 0 -3 
C -0.795609 -3 -1.55874 -2.683901 -2.12132 -2.12132 
C -2.683901 -1.55874 -3 -0.795609 -3 0 
C -3 0.795609 -2.683901 1.55874 -2.12132 2.12132 
C -1.55874 2.683901 -0.795609 3 0 3 
z
" style="stroke: #ff0000"/>
    </defs>
    <g clip-path="url(#p5c1bbc7f77)">
     <use xlink:href="#mc1d9727a20" x="372.226668" y="164.244525" style="fill: #ff0000; stroke: #ff0000"/>
    </g>
   </g>
   <g id="line2d_11">
    <path d="M 457.58366 270.364403 
L 446.507941 270.886125 
L 436.201099 266.798001 
L 427.733406 259.639655 
L 420.897702 250.909426 
L 428.98833 258.491345 
L 439.175181 262.869906 
L 450.262997 262.933774 
L 439.370266 265.005522 
L 447.938881 257.968294 
L 455.358034 249.728153 
L 460.222396 239.764132 
L 460.213382 228.676136 
L 457.520566 217.920092 
L 451.857974 208.387055 
L 447.195112 198.327161 
L 441.349091 188.905495 
L 433.114124 181.4806 
L 423.884107 175.336455 
L 413.524922 171.382845 
L 402.997823 167.900901 
L 392.207655 165.348252 
L 381.194281 166.632515 
L 381.194281 166.632515 
L 381.194281 166.632515 
L 381.194281 166.632515 
L 381.194281 166.632515 
L 381.194281 166.632515 
L 381.194281 166.632515 
L 381.194281 166.632515 
L 381.194281 166.632515 
L 381.194281 166.632515 
L 381.194281 166.632515 
L 381.194281 166.632515 
L 381.194281 166.632515 
L 381.194281 166.632515 
L 381.194281 166.632515 
L 381.194281 166.632515 
L 381.194281 166.632515 
L 381.194281 166.632515 
L 381.194281 166.632515 
" clip-path="url(#p5c1bbc7f77)" style="fill: none; stroke-dasharray: 5.55,2.4; stroke-dashoffset: 0; stroke: #0000ff; stroke-width: 1.5"/>
   </g>
   <g id="line2d_12">
    <path d="M 432.978246 49.253539 
L 423.337471 54.730691 
L 414.777422 61.778337 
L 407.466396 70.114561 
L 402.248613 79.898144 
L 397.751436 90.033189 
L 393.664757 100.340604 
L 391.683114 111.250088 
L 389.494191 122.119879 
L 385.86866 132.598394 
L 381.171408 142.642276 
L 378.126142 153.303893 
L 385.022102 144.621182 
L 383.093977 155.540252 
L 378.904766 165.806422 
L 378.904766 165.806422 
L 378.904766 165.806422 
L 378.904766 165.806422 
L 378.904766 165.806422 
L 378.904766 165.806422 
L 378.904766 165.806422 
L 378.904766 165.806422 
L 378.904766 165.806422 
L 378.904766 165.806422 
L 378.904766 165.806422 
L 378.904766 165.806422 
L 378.904766 165.806422 
L 378.904766 165.806422 
L 378.904766 165.806422 
L 378.904766 165.806422 
L 378.904766 165.806422 
L 378.904766 165.806422 
L 378.904766 165.806422 
L 378.904766 165.806422 
L 378.904766 165.806422 
L 378.904766 165.806422 
L 378.904766 165.806422 
L 378.904766 165.806422 
L 378.904766 165.806422 
L 378.904766 165.806422 
L 378.904766 165.806422 
" clip-path="url(#p5c1bbc7f77)" style="fill: none; stroke-dasharray: 5.55,2.4; stroke-dashoffset: 0; stroke: #0000ff; stroke-width: 1.5"/>
   </g>
   <g id="line2d_13">
    <path d="M 326.794023 428.609843 
L 325.647881 417.581239 
L 329.012824 407.01616 
L 335.738304 398.200738 
L 342.8782 389.717481 
L 353.077877 385.36888 
L 361.353599 377.989438 
L 369.949002 370.984955 
L 378.058695 363.423432 
L 384.643076 354.502128 
L 392.734843 346.921426 
L 400.760277 339.270533 
L 409.614241 332.595875 
L 416.575101 323.965106 
L 423.907603 315.647765 
L 429.474384 306.058464 
L 432.288959 295.333637 
L 434.281982 284.426227 
L 434.847226 273.352644 
L 436.590746 262.402581 
L 437.029986 251.323284 
L 436.197159 240.266605 
L 433.908926 229.417286 
L 432.080336 218.481107 
L 429.663872 207.659626 
L 426.491357 197.035178 
L 422.947308 186.528825 
L 417.263237 177.008579 
L 409.627786 168.968453 
L 400.030463 163.415514 
L 389.824899 159.080746 
L 379.042027 156.497453 
L 379.042027 156.497453 
L 379.042027 156.497453 
L 379.042027 156.497453 
L 379.042027 156.497453 
L 379.042027 156.497453 
L 379.042027 156.497453 
L 379.042027 156.497453 
L 379.042027 156.497453 
L 379.042027 156.497453 
" clip-path="url(#p5c1bbc7f77)" style="fill: none; stroke-dasharray: 5.55,2.4; stroke-dashoffset: 0; stroke: #0000ff; stroke-width: 1.5"/>
   </g>
   <g id="line2d_14">
    <path d="M 133.972059 452.17149 
L 131.297483 441.410896 
L 133.870453 430.625555 
L 139.462212 421.050798 
L 147.475277 413.386953 
L 156.356946 406.749205 
L 165.397017 400.328857 
L 173.253798 392.504873 
L 181.770671 385.405111 
L 190.059202 378.040058 
L 198.203815 370.516161 
L 206.565724 363.234525 
L 214.317472 355.306464 
L 222.611693 347.94782 
L 231.281774 341.035988 
L 239.155546 333.229102 
L 247.51303 325.942387 
L 257.789029 321.777346 
L 266.957617 315.541904 
L 274.62536 307.532567 
L 282.134582 299.374423 
L 288.574095 290.347994 
L 297.115553 283.277828 
L 307.021345 278.295958 
L 317.274979 274.076155 
L 327.806564 270.607804 
L 338.029001 266.312979 
L 347.77917 261.033023 
L 356.884149 254.70506 
L 365.534808 247.768934 
L 373.54751 240.104708 
L 380.426223 231.408327 
L 388.185676 223.487807 
L 396.601912 216.269032 
L 405.504451 209.659301 
L 413.34695 201.821001 
L 419.842735 192.834983 
L 422.177721 181.995629 
L 419.651995 171.199127 
L 413.098105 162.255399 
L 403.145742 157.367228 
" clip-path="url(#p5c1bbc7f77)" style="fill: none; stroke-dasharray: 5.55,2.4; stroke-dashoffset: 0; stroke: #0000ff; stroke-width: 1.5"/>
   </g>
   <g id="line2d_15">
    <path d="M 94.829141 384.633761 
L 103.173362 377.331862 
L 111.978811 370.593332 
L 121.196153 364.430186 
L 130.367671 358.199054 
L 140.104404 352.894362 
L 150.762334 349.836212 
L 161.447805 346.875729 
L 172.185767 344.11169 
L 183.045227 341.872077 
L 193.903677 339.62757 
L 204.559312 336.561433 
L 215.173724 333.355502 
L 225.365966 328.989503 
L 235.343535 324.15299 
L 244.829848 318.412466 
L 253.612639 311.644429 
L 261.886099 304.262451 
L 270.949907 297.875657 
L 280.472582 292.195656 
L 288.755033 284.823768 
L 296.877371 277.275829 
L 306.041051 271.033177 
L 314.845217 264.292969 
L 324.709676 259.22975 
L 334.711413 254.443415 
L 344.718324 249.667907 
L 354.695775 244.831151 
L 364.182744 239.091711 
L 372.939411 232.289907 
L 381.863301 225.709031 
L 391.253466 219.812545 
L 400.446107 213.612619 
L 409.870238 207.770573 
L 409.870238 207.770573 
L 409.870238 207.770573 
L 409.870238 207.770573 
L 409.870238 207.770573 
L 409.870238 207.770573 
L 409.870238 207.770573 
L 409.870238 207.770573 
" clip-path="url(#p5c1bbc7f77)" style="fill: none; stroke-dasharray: 5.55,2.4; stroke-dashoffset: 0; stroke: #bfbf00; stroke-width: 1.5"/>
   </g>
   <g id="line2d_16">
    <path d="M 35.425909 249.954082 
L 46.245376 252.379546 
L 57.269933 251.195114 
L 68.131679 248.966612 
L 77.945443 243.805818 
L 86.784085 237.110884 
L 94.696634 229.343303 
L 102.946556 221.935029 
L 110.781106 214.088783 
L 118.99406 206.639546 
L 126.689204 198.656532 
L 133.467399 189.881579 
L 138.904489 180.218153 
L 144.822503 170.841541 
L 150.299345 161.20059 
L 157.598429 152.853906 
L 162.792366 143.057644 
L 170.558979 135.144145 
L 179.308154 128.332707 
L 189.17031 123.265003 
L 199.260897 118.66894 
L 209.632592 114.748265 
L 220.293112 111.699158 
L 231.044866 108.989264 
L 241.942176 106.941737 
L 252.995177 106.061444 
L 263.88708 103.985343 
L 274.93574 103.052146 
L 286.020848 102.798893 
L 297.105943 102.545103 
L 307.887767 105.132767 
L 318.87208 106.645588 
L 329.583265 109.511641 
L 340.340399 112.200097 
L 349.654958 118.215306 
L 357.559418 125.991119 
L 364.412466 134.707739 
L 369.332598 144.64434 
L 369.725067 155.725392 
L 369.725067 155.725392 
L 369.725067 155.725392 
" clip-path="url(#p5c1bbc7f77)" style="fill: none; stroke-dasharray: 5.55,2.4; stroke-dashoffset: 0; stroke: #0000ff; stroke-width: 1.5"/>
   </g>
   <g id="line2d_17">
    <path d="M 57.57685 225.854693 
L 68.411299 228.212334 
L 79.462386 227.308336 
L 89.721366 223.101546 
L 98.715983 216.617674 
L 107.449674 209.786394 
L 115.14413 201.802717 
L 121.771752 192.913489 
L 130.050391 185.537319 
L 137.890865 177.696994 
L 142.557459 167.63883 
L 149.562483 159.043868 
L 156.447864 150.352765 
L 164.175577 142.401275 
L 173.140699 135.876681 
L 182.148864 129.411644 
L 192.060405 124.44122 
L 202.176537 119.901659 
L 212.253606 115.276032 
L 222.59741 111.282355 
L 233.092863 107.706152 
L 243.987315 105.643474 
L 255.061053 105.08126 
L 266.050739 103.607988 
L 277.058849 102.279354 
L 287.646634 98.986552 
L 298.519188 96.811389 
L 309.582391 96.070267 
L 320.564911 97.596049 
L 330.713216 102.063223 
L 340.391805 107.473276 
L 349.425398 113.902735 
L 356.018365 122.817696 
L 362.004356 132.151058 
L 367.650561 141.69381 
L 370.042774 152.520678 
L 376.82122 161.295438 
L 376.82122 161.295438 
L 376.82122 161.295438 
L 376.82122 161.295438 
L 376.82122 161.295438 
" clip-path="url(#p5c1bbc7f77)" style="fill: none; stroke-dasharray: 5.55,2.4; stroke-dashoffset: 0; stroke: #0000ff; stroke-width: 1.5"/>
   </g>
   <g id="line2d_18">
    <path d="M 295.703257 426.39641 
L 305.453027 421.115717 
L 313.99975 414.051917 
L 322.659349 407.126955 
L 331.006674 399.828605 
L 339.13923 392.291679 
L 347.225505 384.705118 
L 354.882891 376.685879 
L 362.809453 368.932599 
L 370.14134 360.614716 
L 378.167503 352.964589 
L 386.79606 346.000987 
L 395.378242 338.98031 
L 403.469863 331.399452 
L 412.622559 325.140706 
L 420.596301 317.435956 
L 428.188296 309.354783 
L 432.685185 299.21961 
L 436.875868 288.95404 
L 436.941415 277.866234 
L 438.380156 266.871973 
L 439.666801 255.858877 
L 438.801098 244.804724 
L 438.304523 233.727849 
L 437.543184 222.666018 
L 435.681369 211.735446 
L 431.878466 201.319993 
L 430.366668 190.33554 
L 426.371675 179.992243 
L 418.47953 172.203932 
L 409.726689 165.397206 
L 399.179734 161.975879 
L 388.138029 160.963706 
L 377.051687 160.771953 
L 377.051687 160.771953 
L 377.051687 160.771953 
L 377.051687 160.771953 
L 377.051687 160.771953 
L 377.051687 160.771953 
L 377.051687 160.771953 
L 377.051687 160.771953 
" clip-path="url(#p5c1bbc7f77)" style="fill: none; stroke-dasharray: 5.55,2.4; stroke-dashoffset: 0; stroke: #0000ff; stroke-width: 1.5"/>
   </g>
   <g id="line2d_19">
    <path d="M 148.50875 219.049156 
L 155.32478 210.303558 
L 158.79361 199.772131 
L 160.546162 188.82351 
L 161.36959 177.766127 
L 161.36959 177.766127 
L 161.36959 177.766127 
L 161.36959 177.766127 
L 161.36959 177.766127 
L 161.36959 177.766127 
L 161.6953 166.682912 
L 161.674918 155.594931 
L 166.54968 145.635993 
L 174.408912 137.81447 
L 182.608442 130.350459 
L 191.729027 124.045012 
L 201.342463 118.520015 
L 211.7371 114.660575 
L 222.355683 111.468485 
L 233.344371 109.987788 
L 244.262572 108.05475 
L 255.2496 106.56178 
L 266.186897 104.73989 
L 277.253259 104.047518 
L 288.33878 103.813076 
L 299.401798 103.06918 
L 310.466105 102.344723 
L 321.525651 103.138577 
L 331.929728 106.972494 
L 342.266971 110.983123 
L 351.443143 117.207399 
L 358.641971 125.640703 
L 364.693673 134.931594 
L 366.768337 145.823771 
L 368.750999 156.733069 
L 368.750999 156.733069 
L 368.750999 156.733069 
L 368.750999 156.733069 
L 368.750999 156.733069 
L 368.750999 156.733069 
L 368.750999 156.733069 
" clip-path="url(#p5c1bbc7f77)" style="fill: none; stroke-dasharray: 5.55,2.4; stroke-dashoffset: 0; stroke: #0000ff; stroke-width: 1.5"/>
   </g>
   <g id="patch_8">
    <path d="M 28.942188 465.838125 
L 28.942188 22.318125 
" style="fill: none; stroke: #000000; stroke-width: 0.8; stroke-linejoin: miter; stroke-linecap: square"/>
   </g>
   <g id="patch_9">
    <path d="M 472.462188 465.838125 
L 472.462188 22.318125 
" style="fill: none; stroke: #000000; stroke-width: 0.8; stroke-linejoin: miter; stroke-linecap: square"/>
   </g>
   <g id="patch_10">
    <path d="M 28.942188 465.838125 
L 472.462188 465.838125 
" style="fill: none; stroke: #000000; stroke-width: 0.8; stroke-linejoin: miter; stroke-linecap: square"/>
   </g>
   <g id="patch_11">
    <path d="M 28.942188 22.318125 
L 472.462188 22.318125 
" style="fill: none; stroke: #000000; stroke-width: 0.8; stroke-linejoin: miter; stroke-linecap: square"/>
   </g>
   <g id="text_11">
    <!-- Traces of Dynamic Window Approach for a Dubins car, using random controls -->
    <g transform="translate(18.784375 16.318125) scale(0.12 -0.12)">
     <defs>
      <path id="DejaVuSans-54" d="M -19 4666 
L 3928 4666 
L 3928 4134 
L 2272 4134 
L 2272 0 
L 1638 0 
L 1638 4134 
L -19 4134 
L -19 4666 
z
" transform="scale(0.015625)"/>
      <path id="DejaVuSans-72" d="M 2631 2963 
Q 2534 3019 2420 3045 
Q 2306 3072 2169 3072 
Q 1681 3072 1420 2755 
Q 1159 2438 1159 1844 
L 1159 0 
L 581 0 
L 581 3500 
L 1159 3500 
L 1159 2956 
Q 1341 3275 1631 3429 
Q 1922 3584 2338 3584 
Q 2397 3584 2469 3576 
Q 2541 3569 2628 3553 
L 2631 2963 
z
" transform="scale(0.015625)"/>
      <path id="DejaVuSans-61" d="M 2194 1759 
Q 1497 1759 1228 1600 
Q 959 1441 959 1056 
Q 959 750 1161 570 
Q 1363 391 1709 391 
Q 2188 391 2477 730 
Q 2766 1069 2766 1631 
L 2766 1759 
L 2194 1759 
z
M 3341 1997 
L 3341 0 
L 2766 0 
L 2766 531 
Q 2569 213 2275 61 
Q 1981 -91 1556 -91 
Q 1019 -91 701 211 
Q 384 513 384 1019 
Q 384 1609 779 1909 
Q 1175 2209 1959 2209 
L 2766 2209 
L 2766 2266 
Q 2766 2663 2505 2880 
Q 2244 3097 1772 3097 
Q 1472 3097 1187 3025 
Q 903 2953 641 2809 
L 641 3341 
Q 956 3463 1253 3523 
Q 1550 3584 1831 3584 
Q 2591 3584 2966 3190 
Q 3341 2797 3341 1997 
z
" transform="scale(0.015625)"/>
      <path id="DejaVuSans-63" d="M 3122 3366 
L 3122 2828 
Q 2878 2963 2633 3030 
Q 2388 3097 2138 3097 
Q 1578 3097 1268 2742 
Q 959 2388 959 1747 
Q 959 1106 1268 751 
Q 1578 397 2138 397 
Q 2388 397 2633 464 
Q 2878 531 3122 666 
L 3122 134 
Q 2881 22 2623 -34 
Q 2366 -91 2075 -91 
Q 1284 -91 818 406 
Q 353 903 353 1747 
Q 353 2603 823 3093 
Q 1294 3584 2113 3584 
Q 2378 3584 2631 3529 
Q 2884 3475 3122 3366 
z
" transform="scale(0.015625)"/>
      <path id="DejaVuSans-65" d="M 3597 1894 
L 3597 1613 
L 953 1613 
Q 991 1019 1311 708 
Q 1631 397 2203 397 
Q 2534 397 2845 478 
Q 3156 559 3463 722 
L 3463 178 
Q 3153 47 2828 -22 
Q 2503 -91 2169 -91 
Q 1331 -91 842 396 
Q 353 884 353 1716 
Q 353 2575 817 3079 
Q 1281 3584 2069 3584 
Q 2775 3584 3186 3129 
Q 3597 2675 3597 1894 
z
M 3022 2063 
Q 3016 2534 2758 2815 
Q 2500 3097 2075 3097 
Q 1594 3097 1305 2825 
Q 1016 2553 972 2059 
L 3022 2063 
z
" transform="scale(0.015625)"/>
      <path id="DejaVuSans-73" d="M 2834 3397 
L 2834 2853 
Q 2591 2978 2328 3040 
Q 2066 3103 1784 3103 
Q 1356 3103 1142 2972 
Q 928 2841 928 2578 
Q 928 2378 1081 2264 
Q 1234 2150 1697 2047 
L 1894 2003 
Q 2506 1872 2764 1633 
Q 3022 1394 3022 966 
Q 3022 478 2636 193 
Q 2250 -91 1575 -91 
Q 1294 -91 989 -36 
Q 684 19 347 128 
L 347 722 
Q 666 556 975 473 
Q 1284 391 1588 391 
Q 1994 391 2212 530 
Q 2431 669 2431 922 
Q 2431 1156 2273 1281 
Q 2116 1406 1581 1522 
L 1381 1569 
Q 847 1681 609 1914 
Q 372 2147 372 2553 
Q 372 3047 722 3315 
Q 1072 3584 1716 3584 
Q 2034 3584 2315 3537 
Q 2597 3491 2834 3397 
z
" transform="scale(0.015625)"/>
      <path id="DejaVuSans-20" transform="scale(0.015625)"/>
      <path id="DejaVuSans-6f" d="M 1959 3097 
Q 1497 3097 1228 2736 
Q 959 2375 959 1747 
Q 959 1119 1226 758 
Q 1494 397 1959 397 
Q 2419 397 2687 759 
Q 2956 1122 2956 1747 
Q 2956 2369 2687 2733 
Q 2419 3097 1959 3097 
z
M 1959 3584 
Q 2709 3584 3137 3096 
Q 3566 2609 3566 1747 
Q 3566 888 3137 398 
Q 2709 -91 1959 -91 
Q 1206 -91 779 398 
Q 353 888 353 1747 
Q 353 2609 779 3096 
Q 1206 3584 1959 3584 
z
" transform="scale(0.015625)"/>
      <path id="DejaVuSans-66" d="M 2375 4863 
L 2375 4384 
L 1825 4384 
Q 1516 4384 1395 4259 
Q 1275 4134 1275 3809 
L 1275 3500 
L 2222 3500 
L 2222 3053 
L 1275 3053 
L 1275 0 
L 697 0 
L 697 3053 
L 147 3053 
L 147 3500 
L 697 3500 
L 697 3744 
Q 697 4328 969 4595 
Q 1241 4863 1831 4863 
L 2375 4863 
z
" transform="scale(0.015625)"/>
      <path id="DejaVuSans-44" d="M 1259 4147 
L 1259 519 
L 2022 519 
Q 2988 519 3436 956 
Q 3884 1394 3884 2338 
Q 3884 3275 3436 3711 
Q 2988 4147 2022 4147 
L 1259 4147 
z
M 628 4666 
L 1925 4666 
Q 3281 4666 3915 4102 
Q 4550 3538 4550 2338 
Q 4550 1131 3912 565 
Q 3275 0 1925 0 
L 628 0 
L 628 4666 
z
" transform="scale(0.015625)"/>
      <path id="DejaVuSans-79" d="M 2059 -325 
Q 1816 -950 1584 -1140 
Q 1353 -1331 966 -1331 
L 506 -1331 
L 506 -850 
L 844 -850 
Q 1081 -850 1212 -737 
Q 1344 -625 1503 -206 
L 1606 56 
L 191 3500 
L 800 3500 
L 1894 763 
L 2988 3500 
L 3597 3500 
L 2059 -325 
z
" transform="scale(0.015625)"/>
      <path id="DejaVuSans-6e" d="M 3513 2113 
L 3513 0 
L 2938 0 
L 2938 2094 
Q 2938 2591 2744 2837 
Q 2550 3084 2163 3084 
Q 1697 3084 1428 2787 
Q 1159 2491 1159 1978 
L 1159 0 
L 581 0 
L 581 3500 
L 1159 3500 
L 1159 2956 
Q 1366 3272 1645 3428 
Q 1925 3584 2291 3584 
Q 2894 3584 3203 3211 
Q 3513 2838 3513 2113 
z
" transform="scale(0.015625)"/>
      <path id="DejaVuSans-6d" d="M 3328 2828 
Q 3544 3216 3844 3400 
Q 4144 3584 4550 3584 
Q 5097 3584 5394 3201 
Q 5691 2819 5691 2113 
L 5691 0 
L 5113 0 
L 5113 2094 
Q 5113 2597 4934 2840 
Q 4756 3084 4391 3084 
Q 3944 3084 3684 2787 
Q 3425 2491 3425 1978 
L 3425 0 
L 2847 0 
L 2847 2094 
Q 2847 2600 2669 2842 
Q 2491 3084 2119 3084 
Q 1678 3084 1418 2786 
Q 1159 2488 1159 1978 
L 1159 0 
L 581 0 
L 581 3500 
L 1159 3500 
L 1159 2956 
Q 1356 3278 1631 3431 
Q 1906 3584 2284 3584 
Q 2666 3584 2933 3390 
Q 3200 3197 3328 2828 
z
" transform="scale(0.015625)"/>
      <path id="DejaVuSans-69" d="M 603 3500 
L 1178 3500 
L 1178 0 
L 603 0 
L 603 3500 
z
M 603 4863 
L 1178 4863 
L 1178 4134 
L 603 4134 
L 603 4863 
z
" transform="scale(0.015625)"/>
      <path id="DejaVuSans-57" d="M 213 4666 
L 850 4666 
L 1831 722 
L 2809 4666 
L 3519 4666 
L 4500 722 
L 5478 4666 
L 6119 4666 
L 4947 0 
L 4153 0 
L 3169 4050 
L 2175 0 
L 1381 0 
L 213 4666 
z
" transform="scale(0.015625)"/>
      <path id="DejaVuSans-64" d="M 2906 2969 
L 2906 4863 
L 3481 4863 
L 3481 0 
L 2906 0 
L 2906 525 
Q 2725 213 2448 61 
Q 2172 -91 1784 -91 
Q 1150 -91 751 415 
Q 353 922 353 1747 
Q 353 2572 751 3078 
Q 1150 3584 1784 3584 
Q 2172 3584 2448 3432 
Q 2725 3281 2906 2969 
z
M 947 1747 
Q 947 1113 1208 752 
Q 1469 391 1925 391 
Q 2381 391 2643 752 
Q 2906 1113 2906 1747 
Q 2906 2381 2643 2742 
Q 2381 3103 1925 3103 
Q 1469 3103 1208 2742 
Q 947 2381 947 1747 
z
" transform="scale(0.015625)"/>
      <path id="DejaVuSans-77" d="M 269 3500 
L 844 3500 
L 1563 769 
L 2278 3500 
L 2956 3500 
L 3675 769 
L 4391 3500 
L 4966 3500 
L 4050 0 
L 3372 0 
L 2619 2869 
L 1863 0 
L 1184 0 
L 269 3500 
z
" transform="scale(0.015625)"/>
      <path id="DejaVuSans-41" d="M 2188 4044 
L 1331 1722 
L 3047 1722 
L 2188 4044 
z
M 1831 4666 
L 2547 4666 
L 4325 0 
L 3669 0 
L 3244 1197 
L 1141 1197 
L 716 0 
L 50 0 
L 1831 4666 
z
" transform="scale(0.015625)"/>
      <path id="DejaVuSans-70" d="M 1159 525 
L 1159 -1331 
L 581 -1331 
L 581 3500 
L 1159 3500 
L 1159 2969 
Q 1341 3281 1617 3432 
Q 1894 3584 2278 3584 
Q 2916 3584 3314 3078 
Q 3713 2572 3713 1747 
Q 3713 922 3314 415 
Q 2916 -91 2278 -91 
Q 1894 -91 1617 61 
Q 1341 213 1159 525 
z
M 3116 1747 
Q 3116 2381 2855 2742 
Q 2594 3103 2138 3103 
Q 1681 3103 1420 2742 
Q 1159 2381 1159 1747 
Q 1159 1113 1420 752 
Q 1681 391 2138 391 
Q 2594 391 2855 752 
Q 3116 1113 3116 1747 
z
" transform="scale(0.015625)"/>
      <path id="DejaVuSans-68" d="M 3513 2113 
L 3513 0 
L 2938 0 
L 2938 2094 
Q 2938 2591 2744 2837 
Q 2550 3084 2163 3084 
Q 1697 3084 1428 2787 
Q 1159 2491 1159 1978 
L 1159 0 
L 581 0 
L 581 4863 
L 1159 4863 
L 1159 2956 
Q 1366 3272 1645 3428 
Q 1925 3584 2291 3584 
Q 2894 3584 3203 3211 
Q 3513 2838 3513 2113 
z
" transform="scale(0.015625)"/>
      <path id="DejaVuSans-75" d="M 544 1381 
L 544 3500 
L 1119 3500 
L 1119 1403 
Q 1119 906 1312 657 
Q 1506 409 1894 409 
Q 2359 409 2629 706 
Q 2900 1003 2900 1516 
L 2900 3500 
L 3475 3500 
L 3475 0 
L 2900 0 
L 2900 538 
Q 2691 219 2414 64 
Q 2138 -91 1772 -91 
Q 1169 -91 856 284 
Q 544 659 544 1381 
z
M 1991 3584 
L 1991 3584 
z
" transform="scale(0.015625)"/>
      <path id="DejaVuSans-62" d="M 3116 1747 
Q 3116 2381 2855 2742 
Q 2594 3103 2138 3103 
Q 1681 3103 1420 2742 
Q 1159 2381 1159 1747 
Q 1159 1113 1420 752 
Q 1681 391 2138 391 
Q 2594 391 2855 752 
Q 3116 1113 3116 1747 
z
M 1159 2969 
Q 1341 3281 1617 3432 
Q 1894 3584 2278 3584 
Q 2916 3584 3314 3078 
Q 3713 2572 3713 1747 
Q 3713 922 3314 415 
Q 2916 -91 2278 -91 
Q 1894 -91 1617 61 
Q 1341 213 1159 525 
L 1159 0 
L 581 0 
L 581 4863 
L 1159 4863 
L 1159 2969 
z
" transform="scale(0.015625)"/>
      <path id="DejaVuSans-2c" d="M 750 794 
L 1409 794 
L 1409 256 
L 897 -744 
L 494 -744 
L 750 256 
L 750 794 
z
" transform="scale(0.015625)"/>
      <path id="DejaVuSans-67" d="M 2906 1791 
Q 2906 2416 2648 2759 
Q 2391 3103 1925 3103 
Q 1463 3103 1205 2759 
Q 947 2416 947 1791 
Q 947 1169 1205 825 
Q 1463 481 1925 481 
Q 2391 481 2648 825 
Q 2906 1169 2906 1791 
z
M 3481 434 
Q 3481 -459 3084 -895 
Q 2688 -1331 1869 -1331 
Q 1566 -1331 1297 -1286 
Q 1028 -1241 775 -1147 
L 775 -588 
Q 1028 -725 1275 -790 
Q 1522 -856 1778 -856 
Q 2344 -856 2625 -561 
Q 2906 -266 2906 331 
L 2906 616 
Q 2728 306 2450 153 
Q 2172 0 1784 0 
Q 1141 0 747 490 
Q 353 981 353 1791 
Q 353 2603 747 3093 
Q 1141 3584 1784 3584 
Q 2172 3584 2450 3431 
Q 2728 3278 2906 2969 
L 2906 3500 
L 3481 3500 
L 3481 434 
z
" transform="scale(0.015625)"/>
      <path id="DejaVuSans-74" d="M 1172 4494 
L 1172 3500 
L 2356 3500 
L 2356 3053 
L 1172 3053 
L 1172 1153 
Q 1172 725 1289 603 
Q 1406 481 1766 481 
L 2356 481 
L 2356 0 
L 1766 0 
Q 1100 0 847 248 
Q 594 497 594 1153 
L 594 3053 
L 172 3053 
L 172 3500 
L 594 3500 
L 594 4494 
L 1172 4494 
z
" transform="scale(0.015625)"/>
      <path id="DejaVuSans-6c" d="M 603 4863 
L 1178 4863 
L 1178 0 
L 603 0 
L 603 4863 
z
" transform="scale(0.015625)"/>
     </defs>
     <use xlink:href="#DejaVuSans-54"/>
     <use xlink:href="#DejaVuSans-72" x="46.333984"/>
     <use xlink:href="#DejaVuSans-61" x="87.447266"/>
     <use xlink:href="#DejaVuSans-63" x="148.726562"/>
     <use xlink:href="#DejaVuSans-65" x="203.707031"/>
     <use xlink:href="#DejaVuSans-73" x="265.230469"/>
     <use xlink:href="#DejaVuSans-20" x="317.330078"/>
     <use xlink:href="#DejaVuSans-6f" x="349.117188"/>
     <use xlink:href="#DejaVuSans-66" x="410.298828"/>
     <use xlink:href="#DejaVuSans-20" x="445.503906"/>
     <use xlink:href="#DejaVuSans-44" x="477.291016"/>
     <use xlink:href="#DejaVuSans-79" x="554.292969"/>
     <use xlink:href="#DejaVuSans-6e" x="613.472656"/>
     <use xlink:href="#DejaVuSans-61" x="676.851562"/>
     <use xlink:href="#DejaVuSans-6d" x="738.130859"/>
     <use xlink:href="#DejaVuSans-69" x="835.542969"/>
     <use xlink:href="#DejaVuSans-63" x="863.326172"/>
     <use xlink:href="#DejaVuSans-20" x="918.306641"/>
     <use xlink:href="#DejaVuSans-57" x="950.09375"/>
     <use xlink:href="#DejaVuSans-69" x="1046.720703"/>
     <use xlink:href="#DejaVuSans-6e" x="1074.503906"/>
     <use xlink:href="#DejaVuSans-64" x="1137.882812"/>
     <use xlink:href="#DejaVuSans-6f" x="1201.359375"/>
     <use xlink:href="#DejaVuSans-77" x="1262.541016"/>
     <use xlink:href="#DejaVuSans-20" x="1344.328125"/>
     <use xlink:href="#DejaVuSans-41" x="1376.115234"/>
     <use xlink:href="#DejaVuSans-70" x="1444.523438"/>
     <use xlink:href="#DejaVuSans-70" x="1508"/>
     <use xlink:href="#DejaVuSans-72" x="1571.476562"/>
     <use xlink:href="#DejaVuSans-6f" x="1610.339844"/>
     <use xlink:href="#DejaVuSans-61" x="1671.521484"/>
     <use xlink:href="#DejaVuSans-63" x="1732.800781"/>
     <use xlink:href="#DejaVuSans-68" x="1787.78125"/>
     <use xlink:href="#DejaVuSans-20" x="1851.160156"/>
     <use xlink:href="#DejaVuSans-66" x="1882.947266"/>
     <use xlink:href="#DejaVuSans-6f" x="1918.152344"/>
     <use xlink:href="#DejaVuSans-72" x="1979.333984"/>
     <use xlink:href="#DejaVuSans-20" x="2020.447266"/>
     <use xlink:href="#DejaVuSans-61" x="2052.234375"/>
     <use xlink:href="#DejaVuSans-20" x="2113.513672"/>
     <use xlink:href="#DejaVuSans-44" x="2145.300781"/>
     <use xlink:href="#DejaVuSans-75" x="2222.302734"/>
     <use xlink:href="#DejaVuSans-62" x="2285.681641"/>
     <use xlink:href="#DejaVuSans-69" x="2349.158203"/>
     <use xlink:href="#DejaVuSans-6e" x="2376.941406"/>
     <use xlink:href="#DejaVuSans-73" x="2440.320312"/>
     <use xlink:href="#DejaVuSans-20" x="2492.419922"/>
     <use xlink:href="#DejaVuSans-63" x="2524.207031"/>
     <use xlink:href="#DejaVuSans-61" x="2579.1875"/>
     <use xlink:href="#DejaVuSans-72" x="2640.466797"/>
     <use xlink:href="#DejaVuSans-2c" x="2681.580078"/>
     <use xlink:href="#DejaVuSans-20" x="2713.367188"/>
     <use xlink:href="#DejaVuSans-75" x="2745.154297"/>
     <use xlink:href="#DejaVuSans-73" x="2808.533203"/>
     <use xlink:href="#DejaVuSans-69" x="2860.632812"/>
     <use xlink:href="#DejaVuSans-6e" x="2888.416016"/>
     <use xlink:href="#DejaVuSans-67" x="2951.794922"/>
     <use xlink:href="#DejaVuSans-20" x="3015.271484"/>
     <use xlink:href="#DejaVuSans-72" x="3047.058594"/>
     <use xlink:href="#DejaVuSans-61" x="3088.171875"/>
     <use xlink:href="#DejaVuSans-6e" x="3149.451172"/>
     <use xlink:href="#DejaVuSans-64" x="3212.830078"/>
     <use xlink:href="#DejaVuSans-6f" x="3276.306641"/>
     <use xlink:href="#DejaVuSans-6d" x="3337.488281"/>
     <use xlink:href="#DejaVuSans-20" x="3434.900391"/>
     <use xlink:href="#DejaVuSans-63" x="3466.6875"/>
     <use xlink:href="#DejaVuSans-6f" x="3521.667969"/>
     <use xlink:href="#DejaVuSans-6e" x="3582.849609"/>
     <use xlink:href="#DejaVuSans-74" x="3646.228516"/>
     <use xlink:href="#DejaVuSans-72" x="3685.4375"/>
     <use xlink:href="#DejaVuSans-6f" x="3724.300781"/>
     <use xlink:href="#DejaVuSans-6c" x="3785.482422"/>
     <use xlink:href="#DejaVuSans-73" x="3813.265625"/>
    </g>
   </g>
  </g>
 </g>
 <defs>
  <clipPath id="p5c1bbc7f77">
   <rect x="28.942188" y="22.318125" width="443.52" height="443.52"/>
  </clipPath>
 </defs>
</svg>
