<?xml version="1.0" encoding="utf-8" standalone="no"?>
<!DOCTYPE svg PUBLIC "-//W3C//DTD SVG 1.1//EN"
  "http://www.w3.org/Graphics/SVG/1.1/DTD/svg11.dtd">
<svg xmlns:xlink="http://www.w3.org/1999/xlink" width="479.662187pt" height="489.71625pt" viewBox="0 0 479.662187 489.71625" xmlns="http://www.w3.org/2000/svg" version="1.1">
 <metadata>
  <rdf:RDF xmlns:dc="http://purl.org/dc/elements/1.1/" xmlns:cc="http://creativecommons.org/ns#" xmlns:rdf="http://www.w3.org/1999/02/22-rdf-syntax-ns#">
   <cc:Work>
    <dc:type rdf:resource="http://purl.org/dc/dcmitype/StillImage"/>
    <dc:date>2023-07-03T13:18:37.790804</dc:date>
    <dc:format>image/svg+xml</dc:format>
    <dc:creator>
     <cc:Agent>
      <dc:title>Matplotlib v3.7.1, https://matplotlib.org/</dc:title>
     </cc:Agent>
    </dc:creator>
   </cc:Work>
  </rdf:RDF>
 </metadata>
 <defs>
  <style type="text/css">*{stroke-linejoin: round; stroke-linecap: butt}</style>
 </defs>
 <g id="figure_1">
  <g id="patch_1">
   <path d="M 0 489.71625 
L 479.662187 489.71625 
L 479.662187 0 
L 0 0 
z
" style="fill: #ffffff"/>
  </g>
  <g id="axes_1">
   <g id="patch_2">
    <path d="M 28.942188 465.838125 
L 472.462188 465.838125 
L 472.462188 22.318125 
L 28.942188 22.318125 
z
" style="fill: #ffffff"/>
   </g>
   <g id="patch_3">
    <path d="M 161.998188 332.782125 
L 206.350188 332.782125 
L 206.350188 155.374125 
L 161.998188 155.374125 
z
" clip-path="url(#p10c271835d)"/>
   </g>
   <g id="patch_4">
    <path d="M 295.054188 199.726125 
L 339.406187 199.726125 
L 339.406187 111.022125 
L 295.054188 111.022125 
z
" clip-path="url(#p10c271835d)"/>
   </g>
   <g id="patch_5">
    <path d="M 295.054188 199.726125 
L 419.239788 199.726125 
L 419.239788 177.550125 
L 295.054188 177.550125 
z
" clip-path="url(#p10c271835d)"/>
   </g>
   <g id="patch_6">
    <path d="M 295.054188 310.606125 
L 419.239788 310.606125 
L 419.239788 288.430125 
L 295.054188 288.430125 
z
" clip-path="url(#p10c271835d)"/>
   </g>
   <g id="patch_7">
    <path d="M 397.063788 288.430125 
L 419.239788 288.430125 
L 419.239788 221.902125 
L 397.063788 221.902125 
z
" clip-path="url(#p10c271835d)"/>
   </g>
   <g id="matplotlib.axis_1">
    <g id="xtick_1">
     <g id="line2d_1">
      <defs>
       <path id="m6447ba1bed" d="M 0 0 
L 0 3.5 
" style="stroke: #000000; stroke-width: 0.8"/>
      </defs>
      <g>
       <use xlink:href="#m6447ba1bed" x="73.294188" y="465.838125" style="stroke: #000000; stroke-width: 0.8"/>
      </g>
     </g>
     <g id="text_1">
      <!-- −4 -->
      <g transform="translate(65.923094 480.436562) scale(0.1 -0.1)">
       <defs>
        <path id="DejaVuSans-2212" d="M 678 2272 
L 4684 2272 
L 4684 1741 
L 678 1741 
L 678 2272 
z
" transform="scale(0.015625)"/>
        <path id="DejaVuSans-34" d="M 2419 4116 
L 825 1625 
L 2419 1625 
L 2419 4116 
z
M 2253 4666 
L 3047 4666 
L 3047 1625 
L 3713 1625 
L 3713 1100 
L 3047 1100 
L 3047 0 
L 2419 0 
L 2419 1100 
L 313 1100 
L 313 1709 
L 2253 4666 
z
" transform="scale(0.015625)"/>
       </defs>
       <use xlink:href="#DejaVuSans-2212"/>
       <use xlink:href="#DejaVuSans-34" x="83.789062"/>
      </g>
     </g>
    </g>
    <g id="xtick_2">
     <g id="line2d_2">
      <g>
       <use xlink:href="#m6447ba1bed" x="161.998188" y="465.838125" style="stroke: #000000; stroke-width: 0.8"/>
      </g>
     </g>
     <g id="text_2">
      <!-- −2 -->
      <g transform="translate(154.627094 480.436562) scale(0.1 -0.1)">
       <defs>
        <path id="DejaVuSans-32" d="M 1228 531 
L 3431 531 
L 3431 0 
L 469 0 
L 469 531 
Q 828 903 1448 1529 
Q 2069 2156 2228 2338 
Q 2531 2678 2651 2914 
Q 2772 3150 2772 3378 
Q 2772 3750 2511 3984 
Q 2250 4219 1831 4219 
Q 1534 4219 1204 4116 
Q 875 4013 500 3803 
L 500 4441 
Q 881 4594 1212 4672 
Q 1544 4750 1819 4750 
Q 2544 4750 2975 4387 
Q 3406 4025 3406 3419 
Q 3406 3131 3298 2873 
Q 3191 2616 2906 2266 
Q 2828 2175 2409 1742 
Q 1991 1309 1228 531 
z
" transform="scale(0.015625)"/>
       </defs>
       <use xlink:href="#DejaVuSans-2212"/>
       <use xlink:href="#DejaVuSans-32" x="83.789062"/>
      </g>
     </g>
    </g>
    <g id="xtick_3">
     <g id="line2d_3">
      <g>
       <use xlink:href="#m6447ba1bed" x="250.702188" y="465.838125" style="stroke: #000000; stroke-width: 0.8"/>
      </g>
     </g>
     <g id="text_3">
      <!-- 0 -->
      <g transform="translate(247.520938 480.436562) scale(0.1 -0.1)">
       <defs>
        <path id="DejaVuSans-30" d="M 2034 4250 
Q 1547 4250 1301 3770 
Q 1056 3291 1056 2328 
Q 1056 1369 1301 889 
Q 1547 409 2034 409 
Q 2525 409 2770 889 
Q 3016 1369 3016 2328 
Q 3016 3291 2770 3770 
Q 2525 4250 2034 4250 
z
M 2034 4750 
Q 2819 4750 3233 4129 
Q 3647 3509 3647 2328 
Q 3647 1150 3233 529 
Q 2819 -91 2034 -91 
Q 1250 -91 836 529 
Q 422 1150 422 2328 
Q 422 3509 836 4129 
Q 1250 4750 2034 4750 
z
" transform="scale(0.015625)"/>
       </defs>
       <use xlink:href="#DejaVuSans-30"/>
      </g>
     </g>
    </g>
    <g id="xtick_4">
     <g id="line2d_4">
      <g>
       <use xlink:href="#m6447ba1bed" x="339.406188" y="465.838125" style="stroke: #000000; stroke-width: 0.8"/>
      </g>
     </g>
     <g id="text_4">
      <!-- 2 -->
      <g transform="translate(336.224938 480.436562) scale(0.1 -0.1)">
       <use xlink:href="#DejaVuSans-32"/>
      </g>
     </g>
    </g>
    <g id="xtick_5">
     <g id="line2d_5">
      <g>
       <use xlink:href="#m6447ba1bed" x="428.110188" y="465.838125" style="stroke: #000000; stroke-width: 0.8"/>
      </g>
     </g>
     <g id="text_5">
      <!-- 4 -->
      <g transform="translate(424.928938 480.436562) scale(0.1 -0.1)">
       <use xlink:href="#DejaVuSans-34"/>
      </g>
     </g>
    </g>
   </g>
   <g id="matplotlib.axis_2">
    <g id="ytick_1">
     <g id="line2d_6">
      <defs>
       <path id="mddb4dacc55" d="M 0 0 
L -3.5 0 
" style="stroke: #000000; stroke-width: 0.8"/>
      </defs>
      <g>
       <use xlink:href="#mddb4dacc55" x="28.942188" y="421.486125" style="stroke: #000000; stroke-width: 0.8"/>
      </g>
     </g>
     <g id="text_6">
      <!-- −4 -->
      <g transform="translate(7.2 425.285344) scale(0.1 -0.1)">
       <use xlink:href="#DejaVuSans-2212"/>
       <use xlink:href="#DejaVuSans-34" x="83.789062"/>
      </g>
     </g>
    </g>
    <g id="ytick_2">
     <g id="line2d_7">
      <g>
       <use xlink:href="#mddb4dacc55" x="28.942188" y="332.782125" style="stroke: #000000; stroke-width: 0.8"/>
      </g>
     </g>
     <g id="text_7">
      <!-- −2 -->
      <g transform="translate(7.2 336.581344) scale(0.1 -0.1)">
       <use xlink:href="#DejaVuSans-2212"/>
       <use xlink:href="#DejaVuSans-32" x="83.789062"/>
      </g>
     </g>
    </g>
    <g id="ytick_3">
     <g id="line2d_8">
      <g>
       <use xlink:href="#mddb4dacc55" x="28.942188" y="244.078125" style="stroke: #000000; stroke-width: 0.8"/>
      </g>
     </g>
     <g id="text_8">
      <!-- 0 -->
      <g transform="translate(15.579688 247.877344) scale(0.1 -0.1)">
       <use xlink:href="#DejaVuSans-30"/>
      </g>
     </g>
    </g>
    <g id="ytick_4">
     <g id="line2d_9">
      <g>
       <use xlink:href="#mddb4dacc55" x="28.942188" y="155.374125" style="stroke: #000000; stroke-width: 0.8"/>
      </g>
     </g>
     <g id="text_9">
      <!-- 2 -->
      <g transform="translate(15.579688 159.173344) scale(0.1 -0.1)">
       <use xlink:href="#DejaVuSans-32"/>
      </g>
     </g>
    </g>
    <g id="ytick_5">
     <g id="line2d_10">
      <g>
       <use xlink:href="#mddb4dacc55" x="28.942188" y="66.670125" style="stroke: #000000; stroke-width: 0.8"/>
      </g>
     </g>
     <g id="text_10">
      <!-- 4 -->
      <g transform="translate(15.579688 70.469344) scale(0.1 -0.1)">
       <use xlink:href="#DejaVuSans-34"/>
      </g>
     </g>
    </g>
   </g>
   <g id="PathCollection_1">
    <defs>
     <path id="m0ba75ae5d6" d="M 0 3 
C 0.795609 3 1.55874 2.683901 2.12132 2.12132 
C 2.683901 1.55874 3 0.795609 3 0 
C 3 -0.795609 2.683901 -1.55874 2.12132 -2.12132 
C 1.55874 -2.683901 0.795609 -3 0 -3 
C -0.795609 -3 -1.55874 -2.683901 -2.12132 -2.12132 
C -2.683901 -1.55874 -3 -0.795609 -3 0 
C -3 0.795609 -2.683901 1.55874 -2.12132 2.12132 
C -1.55874 2.683901 -0.795609 3 0 3 
z
" style="stroke: #ff0000"/>
    </defs>
    <g clip-path="url(#p10c271835d)">
     <use xlink:href="#m0ba75ae5d6" x="372.226668" y="164.244525" style="fill: #ff0000; stroke: #ff0000"/>
    </g>
   </g>
   <g id="line2d_11">
    <path d="M 457.58366 270.364403 
L 447.272328 270.921288 
L 437.36608 267.96325 
L 430.760803 261.903965 
L 425.80722 251.658571 
L 421.287729 241.27095 
L 422.087625 228.73909 
L 424.218825 217.321041 
L 426.060641 207.820711 
L 423.990918 196.20806 
L 421.855473 184.249818 
L 413.856906 174.052696 
L 407.1687 170.010349 
L 397.245157 164.653489 
L 386.30932 162.180798 
L 376.536423 157.315819 
L 375.727273 158.211352 
L 374.465992 158.624658 
L 375.441286 159.118278 
L 376.396599 159.397355 
L 375.507784 160.598341 
L 376.334943 161.579629 
L 376.342404 160.94194 
L 376.316196 160.355957 
L 375.515028 160.377613 
L 375.266813 161.552269 
L 373.015848 162.484685 
L 373.262897 161.449002 
L 372.870207 162.00657 
L 371.608663 162.759637 
L 371.577689 162.623008 
L 372.401251 162.084517 
L 371.823694 161.834507 
L 371.314573 162.698128 
L 371.962371 161.249048 
L 373.681208 159.904123 
L 371.845467 162.894714 
L 371.068153 164.295597 
L 370.253595 164.231562 
L 370.530523 165.709668 
L 370.2951 164.032146 
" clip-path="url(#p10c271835d)" style="fill: none; stroke-dasharray: 5.55,2.4; stroke-dashoffset: 0; stroke: #0000ff; stroke-width: 1.5"/>
   </g>
   <g id="line2d_12">
    <path d="M 432.978246 49.253539 
L 423.951133 54.004905 
L 415.274202 61.26603 
L 408.844359 68.804359 
L 399.860091 76.819658 
L 393.75325 86.291932 
L 390.05972 96.307935 
L 386.861425 107.589537 
L 382.114566 117.10855 
L 377.928024 129.148549 
L 375.179788 141.26075 
L 370.0077 149.961723 
L 375.855058 141.926403 
L 369.00505 145.679038 
L 365.172254 156.188587 
L 372.332417 147.983867 
L 382.941924 144.189275 
L 372.774153 144.77123 
L 382.229618 140.293091 
L 369.9097 141.03134 
L 381.720406 138.351799 
L 367.249972 139.015331 
L 376.263333 133.454991 
L 363.467046 134.610432 
L 352.777346 138.83948 
L 360.007787 129.095053 
L 350.163205 134.991288 
L 343.209069 143.708992 
L 343.53551 132.143874 
L 348.013613 123.462402 
L 357.551083 117.439723 
L 368.069554 115.323996 
L 379.456946 118.171104 
L 388.963989 126.208112 
L 394.90536 134.052814 
L 397.962176 144.185975 
L 395.917724 158.454297 
L 386.283912 167.333564 
L 396.626253 160.989795 
L 402.735006 154.051031 
L 399.744368 167.170324 
" clip-path="url(#p10c271835d)" style="fill: none; stroke-dasharray: 5.55,2.4; stroke-dashoffset: 0; stroke: #0000ff; stroke-width: 1.5"/>
   </g>
   <g id="line2d_13">
    <path d="M 326.794023 428.609843 
L 322.732267 419.127786 
L 323.438512 407.79735 
L 328.664634 397.835057 
L 336.338328 388.925976 
L 344.35864 378.31073 
L 352.411148 370.181761 
L 358.714082 361.76618 
L 368.110239 353.57662 
L 374.809454 346.312063 
L 382.084214 337.893925 
L 391.471296 333.519381 
L 400.270479 327.53916 
L 408.270251 322.133415 
L 414.469444 315.370382 
L 422.32124 306.770786 
L 426.014683 296.329071 
L 430.149204 285.377897 
L 431.256348 274.076408 
L 433.631151 261.643161 
L 436.097686 249.981563 
L 436.760075 237.472446 
L 435.175533 228.065381 
L 435.582669 216.411122 
L 435.909194 206.215789 
L 431.802818 196.783704 
L 427.676263 184.359216 
L 420.522391 179.37773 
L 409.88676 174.117497 
L 402.515057 164.977755 
L 390.961969 161.079327 
L 379.469879 159.875585 
L 380.457963 158.175624 
L 379.696821 159.497943 
L 381.032118 158.978074 
L 382.455065 159.955725 
L 370.209743 158.873803 
L 370.890447 160.62715 
L 372.049804 159.459004 
L 374.673497 160.436019 
L 373.715084 160.765084 
" clip-path="url(#p10c271835d)" style="fill: none; stroke-dasharray: 5.55,2.4; stroke-dashoffset: 0; stroke: #0000ff; stroke-width: 1.5"/>
   </g>
   <g id="line2d_14">
    <path d="M 133.972059 452.17149 
L 132.70902 440.978171 
L 136.702927 433.255045 
L 141.706873 421.449942 
L 150.500149 414.779869 
L 159.362646 408.914154 
L 168.920073 402.798236 
L 177.761493 395.746348 
L 185.51097 389.973771 
L 193.505487 381.226851 
L 203.603754 375.333571 
L 211.641107 371.044706 
L 217.994269 361.55769 
L 225.069989 351.560505 
L 235.92163 344.220529 
L 243.4707 337.695862 
L 254.145304 333.172985 
L 264.467989 327.729752 
L 272.488486 319.557927 
L 280.526967 311.335316 
L 286.444914 303.671833 
L 292.083168 294.986043 
L 302.230713 288.653758 
L 303.409951 289.932365 
L 305.449488 288.946382 
L 304.795 289.347755 
L 305.801925 288.738011 
L 307.22234 288.719742 
L 306.185912 287.077306 
L 314.621514 280.279688 
L 323.164903 276.722137 
L 334.395318 269.472567 
L 344.459369 264.76742 
L 353.757631 256.575287 
L 361.821793 249.046769 
L 370.548737 241.273712 
L 378.133751 233.855317 
L 389.885315 230.547344 
L 378.045968 233.9616 
L 368.331353 235.776997 
L 377.739 239.783461 
" clip-path="url(#p10c271835d)" style="fill: none; stroke-dasharray: 5.55,2.4; stroke-dashoffset: 0; stroke: #ff0000; stroke-width: 1.5"/>
   </g>
   <g id="line2d_15">
    <path d="M 94.829141 384.633761 
L 102.597053 377.612465 
L 111.832728 370.722463 
L 121.755868 365.114638 
L 131.742397 359.926053 
L 138.589538 351.15357 
L 147.523669 345.409831 
L 156.991139 341.776798 
L 167.502672 338.243663 
L 179.464252 336.441958 
L 189.479249 337.437338 
L 200.803112 335.568487 
L 211.323875 332.274576 
L 222.877423 329.991658 
L 234.259803 326.01534 
L 241.434763 320.046768 
L 251.299338 314.29123 
L 260.629137 308.417474 
L 267.212795 303.716646 
L 277.254255 296.911243 
L 285.63024 290.756803 
L 293.192432 285.064413 
L 303.092909 277.263525 
L 312.344875 275.212314 
L 321.971765 269.267203 
L 331.877466 263.882698 
L 342.682846 259.490635 
L 352.17939 256.145268 
L 360.574237 250.433455 
L 368.725915 245.081227 
L 379.226577 238.870655 
L 387.450272 230.063002 
L 396.466268 223.536185 
L 405.885252 215.731344 
L 414.756826 208.02523 
L 414.392481 207.330967 
L 413.641422 207.201208 
L 413.136709 207.186044 
L 405.991328 216.780654 
L 415.701971 208.338977 
L 421.710514 199.047398 
" clip-path="url(#p10c271835d)" style="fill: none; stroke-dasharray: 5.55,2.4; stroke-dashoffset: 0; stroke: #bfbf00; stroke-width: 1.5"/>
   </g>
   <g id="line2d_16">
    <path d="M 35.425909 249.954082 
L 45.629701 250.981894 
L 56.719922 252.475694 
L 66.039525 249.529917 
L 76.703367 245.008341 
L 86.076631 237.8109 
L 93.968877 232.817884 
L 98.475109 225.807502 
L 107.222648 219.655115 
L 115.655845 210.472898 
L 123.312466 202.451407 
L 131.630016 194.149971 
L 137.48226 184.860012 
L 143.839645 174.953974 
L 149.903243 167.131566 
L 157.952603 159.551683 
L 165.281188 152.794842 
L 174.177115 146.428477 
L 182.249207 141.578437 
L 192.72051 137.23769 
L 201.331821 132.415778 
L 212.027528 127.756398 
L 222.79273 123.786624 
L 234.397747 119.749064 
L 244.803492 114.369829 
L 256.551149 112.197761 
L 267.773357 108.658267 
L 278.268327 106.684713 
L 290.473137 104.37447 
L 302.87351 99.719075 
L 312.632946 98.964078 
L 323.304614 101.038831 
L 335.041159 106.947693 
L 344.747639 114.777528 
L 352.624299 124.520359 
L 359.219342 134.455006 
L 359.217157 146.178356 
L 360.861938 158.092804 
L 365.722437 165.818022 
L 365.700762 164.190606 
L 366.646244 164.794422 
" clip-path="url(#p10c271835d)" style="fill: none; stroke-dasharray: 5.55,2.4; stroke-dashoffset: 0; stroke: #0000ff; stroke-width: 1.5"/>
   </g>
   <g id="line2d_17">
    <path d="M 57.57685 225.854693 
L 67.86052 229.911584 
L 78.032817 230.610946 
L 88.328108 226.674263 
L 94.385402 219.516094 
L 101.905734 213.028022 
L 109.800557 204.536802 
L 118.82912 195.994702 
L 121.919636 186.329308 
L 126.71655 175.381665 
L 134.027933 167.038825 
L 141.040698 157.037334 
L 149.728866 149.714726 
L 159.736401 142.969449 
L 169.545524 137.489413 
L 179.458354 134.32353 
L 189.111729 130.017647 
L 197.900795 124.488636 
L 207.199732 122.148468 
L 219.359563 118.536964 
L 230.21563 114.317788 
L 239.936576 113.047285 
L 249.278662 109.567182 
L 259.821221 106.186111 
L 272.314797 103.98982 
L 283.275251 100.494256 
L 293.348567 98.865034 
L 304.036909 99.966116 
L 315.794071 100.007727 
L 327.168441 100.403011 
L 334.680017 105.694941 
L 341.318445 111.844876 
L 346.227165 121.779028 
L 352.078933 132.788952 
L 355.970782 143.049068 
L 362.498169 152.277863 
L 370.894154 159.981536 
L 371.764295 161.236696 
L 372.667851 161.543849 
L 370.742759 162.889028 
L 370.733143 163.105005 
" clip-path="url(#p10c271835d)" style="fill: none; stroke-dasharray: 5.55,2.4; stroke-dashoffset: 0; stroke: #0000ff; stroke-width: 1.5"/>
   </g>
   <g id="line2d_18">
    <path d="M 295.703257 426.39641 
L 305.575482 419.271652 
L 312.571458 414.254628 
L 319.924244 409.664759 
L 330.03384 403.869861 
L 337.458165 395.700232 
L 344.516058 386.521305 
L 351.417978 377.00093 
L 359.158669 368.787971 
L 369.338822 361.7033 
L 378.36896 353.64473 
L 384.281941 346.102439 
L 390.311508 337.795447 
L 401.123367 329.560496 
L 407.699902 322.713428 
L 414.363917 314.430758 
L 421.040586 305.645475 
L 426.703212 294.108906 
L 429.085161 284.902818 
L 429.693573 277.30633 
L 430.666722 266.541569 
L 431.80201 255.217217 
L 430.695133 245.047015 
L 429.60486 233.749827 
L 428.098531 221.760627 
L 427.541302 210.581535 
L 427.722985 200.745709 
L 425.89005 191.413342 
L 420.485574 182.157311 
L 415.060265 173.352959 
L 405.950144 167.819964 
L 394.478246 166.277853 
L 384.724411 168.919395 
L 375.327146 169.055853 
L 375.998485 168.507973 
L 375.699109 167.289707 
L 375.51011 166.995479 
L 374.972032 168.076061 
L 374.493085 169.304405 
L 374.960451 169.754168 
L 374.568387 170.451685 
" clip-path="url(#p10c271835d)" style="fill: none; stroke-dasharray: 5.55,2.4; stroke-dashoffset: 0; stroke: #0000ff; stroke-width: 1.5"/>
   </g>
   <g id="line2d_19">
    <path d="M 148.50875 219.049156 
L 155.707532 209.390766 
L 158.585263 198.745204 
L 158.386627 188.248483 
L 157.876088 179.499681 
L 159.005569 168.564726 
L 159.45845 157.527774 
L 164.940948 149.291196 
L 173.681759 143.996707 
L 182.741856 137.592891 
L 190.553752 132.4524 
L 198.096898 125.890997 
L 208.347613 120.261118 
L 217.764628 116.59562 
L 229.656356 115.620478 
L 238.927918 119.163277 
L 250.576761 116.830692 
L 261.153169 111.460327 
L 273.277797 107.365642 
L 282.881571 101.273676 
L 291.483129 95.024539 
L 298.596655 91.300067 
L 308.432642 90.564199 
L 317.887309 91.355183 
L 326.44586 96.587286 
L 337.875549 101.627768 
L 344.508051 109.820381 
L 352.171727 117.066306 
L 357.945838 125.189168 
L 364.459764 135.159693 
L 369.603628 142.913667 
L 366.143134 133.017188 
L 362.750536 144.111134 
L 365.747519 156.078955 
L 371.979882 165.125524 
L 372.379613 166.63359 
L 375.926389 167.691121 
L 375.736761 167.022505 
L 374.235841 168.712298 
L 375.262777 170.281249 
L 373.869301 169.480656 
" clip-path="url(#p10c271835d)" style="fill: none; stroke-dasharray: 5.55,2.4; stroke-dashoffset: 0; stroke: #0000ff; stroke-width: 1.5"/>
   </g>
   <g id="patch_8">
    <path d="M 28.942188 465.838125 
L 28.942188 22.318125 
" style="fill: none; stroke: #000000; stroke-width: 0.8; stroke-linejoin: miter; stroke-linecap: square"/>
   </g>
   <g id="patch_9">
    <path d="M 472.462188 465.838125 
L 472.462188 22.318125 
" style="fill: none; stroke: #000000; stroke-width: 0.8; stroke-linejoin: miter; stroke-linecap: square"/>
   </g>
   <g id="patch_10">
    <path d="M 28.942188 465.838125 
L 472.462188 465.838125 
" style="fill: none; stroke: #000000; stroke-width: 0.8; stroke-linejoin: miter; stroke-linecap: square"/>
   </g>
   <g id="patch_11">
    <path d="M 28.942188 22.318125 
L 472.462188 22.318125 
" style="fill: none; stroke: #000000; stroke-width: 0.8; stroke-linejoin: miter; stroke-linecap: square"/>
   </g>
   <g id="text_11">
    <!-- Traces of DWA, with perturbations -->
    <g transform="translate(148.59625 16.318125) scale(0.12 -0.12)">
     <defs>
      <path id="DejaVuSans-54" d="M -19 4666 
L 3928 4666 
L 3928 4134 
L 2272 4134 
L 2272 0 
L 1638 0 
L 1638 4134 
L -19 4134 
L -19 4666 
z
" transform="scale(0.015625)"/>
      <path id="DejaVuSans-72" d="M 2631 2963 
Q 2534 3019 2420 3045 
Q 2306 3072 2169 3072 
Q 1681 3072 1420 2755 
Q 1159 2438 1159 1844 
L 1159 0 
L 581 0 
L 581 3500 
L 1159 3500 
L 1159 2956 
Q 1341 3275 1631 3429 
Q 1922 3584 2338 3584 
Q 2397 3584 2469 3576 
Q 2541 3569 2628 3553 
L 2631 2963 
z
" transform="scale(0.015625)"/>
      <path id="DejaVuSans-61" d="M 2194 1759 
Q 1497 1759 1228 1600 
Q 959 1441 959 1056 
Q 959 750 1161 570 
Q 1363 391 1709 391 
Q 2188 391 2477 730 
Q 2766 1069 2766 1631 
L 2766 1759 
L 2194 1759 
z
M 3341 1997 
L 3341 0 
L 2766 0 
L 2766 531 
Q 2569 213 2275 61 
Q 1981 -91 1556 -91 
Q 1019 -91 701 211 
Q 384 513 384 1019 
Q 384 1609 779 1909 
Q 1175 2209 1959 2209 
L 2766 2209 
L 2766 2266 
Q 2766 2663 2505 2880 
Q 2244 3097 1772 3097 
Q 1472 3097 1187 3025 
Q 903 2953 641 2809 
L 641 3341 
Q 956 3463 1253 3523 
Q 1550 3584 1831 3584 
Q 2591 3584 2966 3190 
Q 3341 2797 3341 1997 
z
" transform="scale(0.015625)"/>
      <path id="DejaVuSans-63" d="M 3122 3366 
L 3122 2828 
Q 2878 2963 2633 3030 
Q 2388 3097 2138 3097 
Q 1578 3097 1268 2742 
Q 959 2388 959 1747 
Q 959 1106 1268 751 
Q 1578 397 2138 397 
Q 2388 397 2633 464 
Q 2878 531 3122 666 
L 3122 134 
Q 2881 22 2623 -34 
Q 2366 -91 2075 -91 
Q 1284 -91 818 406 
Q 353 903 353 1747 
Q 353 2603 823 3093 
Q 1294 3584 2113 3584 
Q 2378 3584 2631 3529 
Q 2884 3475 3122 3366 
z
" transform="scale(0.015625)"/>
      <path id="DejaVuSans-65" d="M 3597 1894 
L 3597 1613 
L 953 1613 
Q 991 1019 1311 708 
Q 1631 397 2203 397 
Q 2534 397 2845 478 
Q 3156 559 3463 722 
L 3463 178 
Q 3153 47 2828 -22 
Q 2503 -91 2169 -91 
Q 1331 -91 842 396 
Q 353 884 353 1716 
Q 353 2575 817 3079 
Q 1281 3584 2069 3584 
Q 2775 3584 3186 3129 
Q 3597 2675 3597 1894 
z
M 3022 2063 
Q 3016 2534 2758 2815 
Q 2500 3097 2075 3097 
Q 1594 3097 1305 2825 
Q 1016 2553 972 2059 
L 3022 2063 
z
" transform="scale(0.015625)"/>
      <path id="DejaVuSans-73" d="M 2834 3397 
L 2834 2853 
Q 2591 2978 2328 3040 
Q 2066 3103 1784 3103 
Q 1356 3103 1142 2972 
Q 928 2841 928 2578 
Q 928 2378 1081 2264 
Q 1234 2150 1697 2047 
L 1894 2003 
Q 2506 1872 2764 1633 
Q 3022 1394 3022 966 
Q 3022 478 2636 193 
Q 2250 -91 1575 -91 
Q 1294 -91 989 -36 
Q 684 19 347 128 
L 347 722 
Q 666 556 975 473 
Q 1284 391 1588 391 
Q 1994 391 2212 530 
Q 2431 669 2431 922 
Q 2431 1156 2273 1281 
Q 2116 1406 1581 1522 
L 1381 1569 
Q 847 1681 609 1914 
Q 372 2147 372 2553 
Q 372 3047 722 3315 
Q 1072 3584 1716 3584 
Q 2034 3584 2315 3537 
Q 2597 3491 2834 3397 
z
" transform="scale(0.015625)"/>
      <path id="DejaVuSans-20" transform="scale(0.015625)"/>
      <path id="DejaVuSans-6f" d="M 1959 3097 
Q 1497 3097 1228 2736 
Q 959 2375 959 1747 
Q 959 1119 1226 758 
Q 1494 397 1959 397 
Q 2419 397 2687 759 
Q 2956 1122 2956 1747 
Q 2956 2369 2687 2733 
Q 2419 3097 1959 3097 
z
M 1959 3584 
Q 2709 3584 3137 3096 
Q 3566 2609 3566 1747 
Q 3566 888 3137 398 
Q 2709 -91 1959 -91 
Q 1206 -91 779 398 
Q 353 888 353 1747 
Q 353 2609 779 3096 
Q 1206 3584 1959 3584 
z
" transform="scale(0.015625)"/>
      <path id="DejaVuSans-66" d="M 2375 4863 
L 2375 4384 
L 1825 4384 
Q 1516 4384 1395 4259 
Q 1275 4134 1275 3809 
L 1275 3500 
L 2222 3500 
L 2222 3053 
L 1275 3053 
L 1275 0 
L 697 0 
L 697 3053 
L 147 3053 
L 147 3500 
L 697 3500 
L 697 3744 
Q 697 4328 969 4595 
Q 1241 4863 1831 4863 
L 2375 4863 
z
" transform="scale(0.015625)"/>
      <path id="DejaVuSans-44" d="M 1259 4147 
L 1259 519 
L 2022 519 
Q 2988 519 3436 956 
Q 3884 1394 3884 2338 
Q 3884 3275 3436 3711 
Q 2988 4147 2022 4147 
L 1259 4147 
z
M 628 4666 
L 1925 4666 
Q 3281 4666 3915 4102 
Q 4550 3538 4550 2338 
Q 4550 1131 3912 565 
Q 3275 0 1925 0 
L 628 0 
L 628 4666 
z
" transform="scale(0.015625)"/>
      <path id="DejaVuSans-57" d="M 213 4666 
L 850 4666 
L 1831 722 
L 2809 4666 
L 3519 4666 
L 4500 722 
L 5478 4666 
L 6119 4666 
L 4947 0 
L 4153 0 
L 3169 4050 
L 2175 0 
L 1381 0 
L 213 4666 
z
" transform="scale(0.015625)"/>
      <path id="DejaVuSans-41" d="M 2188 4044 
L 1331 1722 
L 3047 1722 
L 2188 4044 
z
M 1831 4666 
L 2547 4666 
L 4325 0 
L 3669 0 
L 3244 1197 
L 1141 1197 
L 716 0 
L 50 0 
L 1831 4666 
z
" transform="scale(0.015625)"/>
      <path id="DejaVuSans-2c" d="M 750 794 
L 1409 794 
L 1409 256 
L 897 -744 
L 494 -744 
L 750 256 
L 750 794 
z
" transform="scale(0.015625)"/>
      <path id="DejaVuSans-77" d="M 269 3500 
L 844 3500 
L 1563 769 
L 2278 3500 
L 2956 3500 
L 3675 769 
L 4391 3500 
L 4966 3500 
L 4050 0 
L 3372 0 
L 2619 2869 
L 1863 0 
L 1184 0 
L 269 3500 
z
" transform="scale(0.015625)"/>
      <path id="DejaVuSans-69" d="M 603 3500 
L 1178 3500 
L 1178 0 
L 603 0 
L 603 3500 
z
M 603 4863 
L 1178 4863 
L 1178 4134 
L 603 4134 
L 603 4863 
z
" transform="scale(0.015625)"/>
      <path id="DejaVuSans-74" d="M 1172 4494 
L 1172 3500 
L 2356 3500 
L 2356 3053 
L 1172 3053 
L 1172 1153 
Q 1172 725 1289 603 
Q 1406 481 1766 481 
L 2356 481 
L 2356 0 
L 1766 0 
Q 1100 0 847 248 
Q 594 497 594 1153 
L 594 3053 
L 172 3053 
L 172 3500 
L 594 3500 
L 594 4494 
L 1172 4494 
z
" transform="scale(0.015625)"/>
      <path id="DejaVuSans-68" d="M 3513 2113 
L 3513 0 
L 2938 0 
L 2938 2094 
Q 2938 2591 2744 2837 
Q 2550 3084 2163 3084 
Q 1697 3084 1428 2787 
Q 1159 2491 1159 1978 
L 1159 0 
L 581 0 
L 581 4863 
L 1159 4863 
L 1159 2956 
Q 1366 3272 1645 3428 
Q 1925 3584 2291 3584 
Q 2894 3584 3203 3211 
Q 3513 2838 3513 2113 
z
" transform="scale(0.015625)"/>
      <path id="DejaVuSans-70" d="M 1159 525 
L 1159 -1331 
L 581 -1331 
L 581 3500 
L 1159 3500 
L 1159 2969 
Q 1341 3281 1617 3432 
Q 1894 3584 2278 3584 
Q 2916 3584 3314 3078 
Q 3713 2572 3713 1747 
Q 3713 922 3314 415 
Q 2916 -91 2278 -91 
Q 1894 -91 1617 61 
Q 1341 213 1159 525 
z
M 3116 1747 
Q 3116 2381 2855 2742 
Q 2594 3103 2138 3103 
Q 1681 3103 1420 2742 
Q 1159 2381 1159 1747 
Q 1159 1113 1420 752 
Q 1681 391 2138 391 
Q 2594 391 2855 752 
Q 3116 1113 3116 1747 
z
" transform="scale(0.015625)"/>
      <path id="DejaVuSans-75" d="M 544 1381 
L 544 3500 
L 1119 3500 
L 1119 1403 
Q 1119 906 1312 657 
Q 1506 409 1894 409 
Q 2359 409 2629 706 
Q 2900 1003 2900 1516 
L 2900 3500 
L 3475 3500 
L 3475 0 
L 2900 0 
L 2900 538 
Q 2691 219 2414 64 
Q 2138 -91 1772 -91 
Q 1169 -91 856 284 
Q 544 659 544 1381 
z
M 1991 3584 
L 1991 3584 
z
" transform="scale(0.015625)"/>
      <path id="DejaVuSans-62" d="M 3116 1747 
Q 3116 2381 2855 2742 
Q 2594 3103 2138 3103 
Q 1681 3103 1420 2742 
Q 1159 2381 1159 1747 
Q 1159 1113 1420 752 
Q 1681 391 2138 391 
Q 2594 391 2855 752 
Q 3116 1113 3116 1747 
z
M 1159 2969 
Q 1341 3281 1617 3432 
Q 1894 3584 2278 3584 
Q 2916 3584 3314 3078 
Q 3713 2572 3713 1747 
Q 3713 922 3314 415 
Q 2916 -91 2278 -91 
Q 1894 -91 1617 61 
Q 1341 213 1159 525 
L 1159 0 
L 581 0 
L 581 4863 
L 1159 4863 
L 1159 2969 
z
" transform="scale(0.015625)"/>
      <path id="DejaVuSans-6e" d="M 3513 2113 
L 3513 0 
L 2938 0 
L 2938 2094 
Q 2938 2591 2744 2837 
Q 2550 3084 2163 3084 
Q 1697 3084 1428 2787 
Q 1159 2491 1159 1978 
L 1159 0 
L 581 0 
L 581 3500 
L 1159 3500 
L 1159 2956 
Q 1366 3272 1645 3428 
Q 1925 3584 2291 3584 
Q 2894 3584 3203 3211 
Q 3513 2838 3513 2113 
z
" transform="scale(0.015625)"/>
     </defs>
     <use xlink:href="#DejaVuSans-54"/>
     <use xlink:href="#DejaVuSans-72" x="46.333984"/>
     <use xlink:href="#DejaVuSans-61" x="87.447266"/>
     <use xlink:href="#DejaVuSans-63" x="148.726562"/>
     <use xlink:href="#DejaVuSans-65" x="203.707031"/>
     <use xlink:href="#DejaVuSans-73" x="265.230469"/>
     <use xlink:href="#DejaVuSans-20" x="317.330078"/>
     <use xlink:href="#DejaVuSans-6f" x="349.117188"/>
     <use xlink:href="#DejaVuSans-66" x="410.298828"/>
     <use xlink:href="#DejaVuSans-20" x="445.503906"/>
     <use xlink:href="#DejaVuSans-44" x="477.291016"/>
     <use xlink:href="#DejaVuSans-57" x="554.292969"/>
     <use xlink:href="#DejaVuSans-41" x="647.669922"/>
     <use xlink:href="#DejaVuSans-2c" x="716.078125"/>
     <use xlink:href="#DejaVuSans-20" x="747.865234"/>
     <use xlink:href="#DejaVuSans-77" x="779.652344"/>
     <use xlink:href="#DejaVuSans-69" x="861.439453"/>
     <use xlink:href="#DejaVuSans-74" x="889.222656"/>
     <use xlink:href="#DejaVuSans-68" x="928.431641"/>
     <use xlink:href="#DejaVuSans-20" x="991.810547"/>
     <use xlink:href="#DejaVuSans-70" x="1023.597656"/>
     <use xlink:href="#DejaVuSans-65" x="1087.074219"/>
     <use xlink:href="#DejaVuSans-72" x="1148.597656"/>
     <use xlink:href="#DejaVuSans-74" x="1189.710938"/>
     <use xlink:href="#DejaVuSans-75" x="1228.919922"/>
     <use xlink:href="#DejaVuSans-72" x="1292.298828"/>
     <use xlink:href="#DejaVuSans-62" x="1333.412109"/>
     <use xlink:href="#DejaVuSans-61" x="1396.888672"/>
     <use xlink:href="#DejaVuSans-74" x="1458.167969"/>
     <use xlink:href="#DejaVuSans-69" x="1497.376953"/>
     <use xlink:href="#DejaVuSans-6f" x="1525.160156"/>
     <use xlink:href="#DejaVuSans-6e" x="1586.341797"/>
     <use xlink:href="#DejaVuSans-73" x="1649.720703"/>
    </g>
   </g>
  </g>
 </g>
 <defs>
  <clipPath id="p10c271835d">
   <rect x="28.942188" y="22.318125" width="443.52" height="443.52"/>
  </clipPath>
 </defs>
</svg>
