<?xml version="1.0" encoding="utf-8" standalone="no"?>
<!DOCTYPE svg PUBLIC "-//W3C//DTD SVG 1.1//EN"
  "http://www.w3.org/Graphics/SVG/1.1/DTD/svg11.dtd">
<svg xmlns:xlink="http://www.w3.org/1999/xlink" width="479.662187pt" height="489.71625pt" viewBox="0 0 479.662187 489.71625" xmlns="http://www.w3.org/2000/svg" version="1.1">
 <metadata>
  <rdf:RDF xmlns:dc="http://purl.org/dc/elements/1.1/" xmlns:cc="http://creativecommons.org/ns#" xmlns:rdf="http://www.w3.org/1999/02/22-rdf-syntax-ns#">
   <cc:Work>
    <dc:type rdf:resource="http://purl.org/dc/dcmitype/StillImage"/>
    <dc:date>2023-07-03T13:23:44.694299</dc:date>
    <dc:format>image/svg+xml</dc:format>
    <dc:creator>
     <cc:Agent>
      <dc:title>Matplotlib v3.7.1, https://matplotlib.org/</dc:title>
     </cc:Agent>
    </dc:creator>
   </cc:Work>
  </rdf:RDF>
 </metadata>
 <defs>
  <style type="text/css">*{stroke-linejoin: round; stroke-linecap: butt}</style>
 </defs>
 <g id="figure_1">
  <g id="patch_1">
   <path d="M 0 489.71625 
L 479.662187 489.71625 
L 479.662187 0 
L 0 0 
z
" style="fill: #ffffff"/>
  </g>
  <g id="axes_1">
   <g id="patch_2">
    <path d="M 28.942188 465.838125 
L 472.462188 465.838125 
L 472.462188 22.318125 
L 28.942188 22.318125 
z
" style="fill: #ffffff"/>
   </g>
   <g id="patch_3">
    <path d="M 161.998188 332.782125 
L 206.350188 332.782125 
L 206.350188 155.374125 
L 161.998188 155.374125 
z
" clip-path="url(#pb45541003f)"/>
   </g>
   <g id="patch_4">
    <path d="M 295.054188 199.726125 
L 339.406187 199.726125 
L 339.406187 111.022125 
L 295.054188 111.022125 
z
" clip-path="url(#pb45541003f)"/>
   </g>
   <g id="patch_5">
    <path d="M 295.054188 199.726125 
L 419.239788 199.726125 
L 419.239788 177.550125 
L 295.054188 177.550125 
z
" clip-path="url(#pb45541003f)"/>
   </g>
   <g id="patch_6">
    <path d="M 295.054188 310.606125 
L 419.239788 310.606125 
L 419.239788 288.430125 
L 295.054188 288.430125 
z
" clip-path="url(#pb45541003f)"/>
   </g>
   <g id="patch_7">
    <path d="M 397.063788 288.430125 
L 419.239788 288.430125 
L 419.239788 221.902125 
L 397.063788 221.902125 
z
" clip-path="url(#pb45541003f)"/>
   </g>
   <g id="matplotlib.axis_1">
    <g id="xtick_1">
     <g id="line2d_1">
      <defs>
       <path id="m188027fecd" d="M 0 0 
L 0 3.5 
" style="stroke: #000000; stroke-width: 0.8"/>
      </defs>
      <g>
       <use xlink:href="#m188027fecd" x="73.294188" y="465.838125" style="stroke: #000000; stroke-width: 0.8"/>
      </g>
     </g>
     <g id="text_1">
      <!-- −4 -->
      <g transform="translate(65.923094 480.436562) scale(0.1 -0.1)">
       <defs>
        <path id="DejaVuSans-2212" d="M 678 2272 
L 4684 2272 
L 4684 1741 
L 678 1741 
L 678 2272 
z
" transform="scale(0.015625)"/>
        <path id="DejaVuSans-34" d="M 2419 4116 
L 825 1625 
L 2419 1625 
L 2419 4116 
z
M 2253 4666 
L 3047 4666 
L 3047 1625 
L 3713 1625 
L 3713 1100 
L 3047 1100 
L 3047 0 
L 2419 0 
L 2419 1100 
L 313 1100 
L 313 1709 
L 2253 4666 
z
" transform="scale(0.015625)"/>
       </defs>
       <use xlink:href="#DejaVuSans-2212"/>
       <use xlink:href="#DejaVuSans-34" x="83.789062"/>
      </g>
     </g>
    </g>
    <g id="xtick_2">
     <g id="line2d_2">
      <g>
       <use xlink:href="#m188027fecd" x="161.998188" y="465.838125" style="stroke: #000000; stroke-width: 0.8"/>
      </g>
     </g>
     <g id="text_2">
      <!-- −2 -->
      <g transform="translate(154.627094 480.436562) scale(0.1 -0.1)">
       <defs>
        <path id="DejaVuSans-32" d="M 1228 531 
L 3431 531 
L 3431 0 
L 469 0 
L 469 531 
Q 828 903 1448 1529 
Q 2069 2156 2228 2338 
Q 2531 2678 2651 2914 
Q 2772 3150 2772 3378 
Q 2772 3750 2511 3984 
Q 2250 4219 1831 4219 
Q 1534 4219 1204 4116 
Q 875 4013 500 3803 
L 500 4441 
Q 881 4594 1212 4672 
Q 1544 4750 1819 4750 
Q 2544 4750 2975 4387 
Q 3406 4025 3406 3419 
Q 3406 3131 3298 2873 
Q 3191 2616 2906 2266 
Q 2828 2175 2409 1742 
Q 1991 1309 1228 531 
z
" transform="scale(0.015625)"/>
       </defs>
       <use xlink:href="#DejaVuSans-2212"/>
       <use xlink:href="#DejaVuSans-32" x="83.789062"/>
      </g>
     </g>
    </g>
    <g id="xtick_3">
     <g id="line2d_3">
      <g>
       <use xlink:href="#m188027fecd" x="250.702188" y="465.838125" style="stroke: #000000; stroke-width: 0.8"/>
      </g>
     </g>
     <g id="text_3">
      <!-- 0 -->
      <g transform="translate(247.520938 480.436562) scale(0.1 -0.1)">
       <defs>
        <path id="DejaVuSans-30" d="M 2034 4250 
Q 1547 4250 1301 3770 
Q 1056 3291 1056 2328 
Q 1056 1369 1301 889 
Q 1547 409 2034 409 
Q 2525 409 2770 889 
Q 3016 1369 3016 2328 
Q 3016 3291 2770 3770 
Q 2525 4250 2034 4250 
z
M 2034 4750 
Q 2819 4750 3233 4129 
Q 3647 3509 3647 2328 
Q 3647 1150 3233 529 
Q 2819 -91 2034 -91 
Q 1250 -91 836 529 
Q 422 1150 422 2328 
Q 422 3509 836 4129 
Q 1250 4750 2034 4750 
z
" transform="scale(0.015625)"/>
       </defs>
       <use xlink:href="#DejaVuSans-30"/>
      </g>
     </g>
    </g>
    <g id="xtick_4">
     <g id="line2d_4">
      <g>
       <use xlink:href="#m188027fecd" x="339.406188" y="465.838125" style="stroke: #000000; stroke-width: 0.8"/>
      </g>
     </g>
     <g id="text_4">
      <!-- 2 -->
      <g transform="translate(336.224938 480.436562) scale(0.1 -0.1)">
       <use xlink:href="#DejaVuSans-32"/>
      </g>
     </g>
    </g>
    <g id="xtick_5">
     <g id="line2d_5">
      <g>
       <use xlink:href="#m188027fecd" x="428.110188" y="465.838125" style="stroke: #000000; stroke-width: 0.8"/>
      </g>
     </g>
     <g id="text_5">
      <!-- 4 -->
      <g transform="translate(424.928938 480.436562) scale(0.1 -0.1)">
       <use xlink:href="#DejaVuSans-34"/>
      </g>
     </g>
    </g>
   </g>
   <g id="matplotlib.axis_2">
    <g id="ytick_1">
     <g id="line2d_6">
      <defs>
       <path id="m6cafe0b562" d="M 0 0 
L -3.5 0 
" style="stroke: #000000; stroke-width: 0.8"/>
      </defs>
      <g>
       <use xlink:href="#m6cafe0b562" x="28.942188" y="421.486125" style="stroke: #000000; stroke-width: 0.8"/>
      </g>
     </g>
     <g id="text_6">
      <!-- −4 -->
      <g transform="translate(7.2 425.285344) scale(0.1 -0.1)">
       <use xlink:href="#DejaVuSans-2212"/>
       <use xlink:href="#DejaVuSans-34" x="83.789062"/>
      </g>
     </g>
    </g>
    <g id="ytick_2">
     <g id="line2d_7">
      <g>
       <use xlink:href="#m6cafe0b562" x="28.942188" y="332.782125" style="stroke: #000000; stroke-width: 0.8"/>
      </g>
     </g>
     <g id="text_7">
      <!-- −2 -->
      <g transform="translate(7.2 336.581344) scale(0.1 -0.1)">
       <use xlink:href="#DejaVuSans-2212"/>
       <use xlink:href="#DejaVuSans-32" x="83.789062"/>
      </g>
     </g>
    </g>
    <g id="ytick_3">
     <g id="line2d_8">
      <g>
       <use xlink:href="#m6cafe0b562" x="28.942188" y="244.078125" style="stroke: #000000; stroke-width: 0.8"/>
      </g>
     </g>
     <g id="text_8">
      <!-- 0 -->
      <g transform="translate(15.579688 247.877344) scale(0.1 -0.1)">
       <use xlink:href="#DejaVuSans-30"/>
      </g>
     </g>
    </g>
    <g id="ytick_4">
     <g id="line2d_9">
      <g>
       <use xlink:href="#m6cafe0b562" x="28.942188" y="155.374125" style="stroke: #000000; stroke-width: 0.8"/>
      </g>
     </g>
     <g id="text_9">
      <!-- 2 -->
      <g transform="translate(15.579688 159.173344) scale(0.1 -0.1)">
       <use xlink:href="#DejaVuSans-32"/>
      </g>
     </g>
    </g>
    <g id="ytick_5">
     <g id="line2d_10">
      <g>
       <use xlink:href="#m6cafe0b562" x="28.942188" y="66.670125" style="stroke: #000000; stroke-width: 0.8"/>
      </g>
     </g>
     <g id="text_10">
      <!-- 4 -->
      <g transform="translate(15.579688 70.469344) scale(0.1 -0.1)">
       <use xlink:href="#DejaVuSans-34"/>
      </g>
     </g>
    </g>
   </g>
   <g id="PathCollection_1">
    <defs>
     <path id="m4fddf6675f" d="M 0 3 
C 0.795609 3 1.55874 2.683901 2.12132 2.12132 
C 2.683901 1.55874 3 0.795609 3 0 
C 3 -0.795609 2.683901 -1.55874 2.12132 -2.12132 
C 1.55874 -2.683901 0.795609 -3 0 -3 
C -0.795609 -3 -1.55874 -2.683901 -2.12132 -2.12132 
C -2.683901 -1.55874 -3 -0.795609 -3 0 
C -3 0.795609 -2.683901 1.55874 -2.12132 2.12132 
C -1.55874 2.683901 -0.795609 3 0 3 
z
" style="stroke: #ff0000"/>
    </defs>
    <g clip-path="url(#pb45541003f)">
     <use xlink:href="#m4fddf6675f" x="372.226668" y="164.244525" style="fill: #ff0000; stroke: #ff0000"/>
    </g>
   </g>
   <g id="line2d_11">
    <path d="M 457.58366 270.364403 
L 469.182106 271.163234 
L 478.899829 267.309076 
L 480.662187 265.812348 
M 480.662187 131.222486 
L 472.930922 131.635214 
L 461.258975 132.52386 
L 450.17688 132.897633 
L 438.22022 135.131338 
L 427.144794 136.297235 
L 418.386945 138.882228 
L 408.203213 141.399253 
L 398.498561 144.424065 
L 391.71847 150.639923 
L 381.517079 152.617821 
L 366.529242 150.086685 
L 377.483185 147.933316 
L 369.469338 153.959612 
L 379.910594 150.432603 
L 387.083901 141.668051 
L 390.066804 130.517281 
L 390.648361 141.222685 
L 384.976482 131.73424 
L 394.478389 140.288137 
L 387.973227 133.890865 
L 376.865471 128.217927 
L 366.098906 124.97859 
L 374.800898 127.765563 
" clip-path="url(#pb45541003f)" style="fill: none; stroke-dasharray: 5.55,2.4; stroke-dashoffset: 0; stroke: #0000ff; stroke-width: 1.5"/>
   </g>
   <g id="line2d_12">
    <path d="M 432.978246 49.253539 
L 423.062009 55.415604 
L 414.257737 63.36005 
L 405.297334 70.895551 
L 398.652001 78.889249 
L 393.515314 86.087155 
L 388.439978 98.737312 
L 383.54814 108.078712 
L 381.347671 118.244012 
L 380.311634 129.663476 
L 382.973916 140.774589 
L 386.282999 150.630593 
L 384.460565 160.072563 
L 386.84094 150.41623 
L 389.540985 138.980508 
L 389.82217 151.06612 
L 392.215949 139.490036 
L 395.822275 149.185132 
L 396.467583 139.208702 
L 394.267904 128.620866 
L 389.680971 120.151613 
L 392.800556 131.272873 
L 393.732578 140.909409 
L 392.722966 130.48217 
L 393.816617 141.010588 
L 386.276701 132.620863 
L 390.878521 142.655193 
L 384.213843 135.209433 
L 389.25235 144.530467 
L 386.194682 135.158792 
L 393.3365 141.588254 
L 386.649097 133.810223 
L 380.030535 125.653899 
L 390.846572 131.223364 
L 381.384036 127.244891 
L 392.877759 125.203106 
L 379.546887 124.463216 
L 370.405355 128.059863 
L 379.181943 121.049039 
L 388.623223 118.370337 
L 402.713242 119.103483 
" clip-path="url(#pb45541003f)" style="fill: none; stroke-dasharray: 5.55,2.4; stroke-dashoffset: 0; stroke: #bfbf00; stroke-width: 1.5"/>
   </g>
   <g id="line2d_13">
    <path d="M 326.794023 428.609843 
L 325.342103 417.026303 
L 327.213909 407.90608 
L 333.943221 397.798418 
L 341.931482 387.716123 
L 348.861403 380.443786 
L 355.536819 373.78329 
L 364.467987 368.923169 
L 373.595068 361.961972 
L 382.306616 353.507424 
L 394.379881 349.201236 
L 403.862705 344.144129 
L 412.867359 338.771801 
L 422.842126 333.262163 
L 431.321163 327.040342 
L 435.46734 316.577099 
L 439.2875 307.692492 
L 442.643166 297.373583 
L 450.95341 289.872588 
L 455.547236 278.275645 
L 457.828691 269.24001 
L 459.560194 257.423026 
L 463.532296 248.316281 
L 465.205401 236.571366 
L 462.044122 225.230597 
L 461.576288 213.072396 
L 458.791621 201.237035 
L 454.202755 191.946681 
L 450.34584 181.216744 
L 444.24991 171.803497 
L 437.41831 162.365795 
L 429.195215 154.852348 
L 419.255484 150.045833 
L 410.508819 145.915908 
L 399.984107 144.279999 
L 391.265185 138.541092 
L 380.240176 137.873715 
L 390.036304 144.961241 
L 386.296661 135.677083 
L 392.649721 143.56717 
L 388.829187 132.916255 
" clip-path="url(#pb45541003f)" style="fill: none; stroke-dasharray: 5.55,2.4; stroke-dashoffset: 0; stroke: #0000ff; stroke-width: 1.5"/>
   </g>
   <g id="line2d_14">
    <path d="M 133.972059 452.17149 
L 137.758917 461.736051 
L 143.215786 468.509376 
L 149.845762 477.685386 
L 158.32917 483.768876 
L 167.378207 486.648671 
L 176.200812 487.438348 
L 187.272982 490.71625 
M 190.421765 490.71625 
L 198.434532 490.448745 
L 200.359993 490.71625 
" clip-path="url(#pb45541003f)" style="fill: none; stroke-dasharray: 5.55,2.4; stroke-dashoffset: 0; stroke: #bfbf00; stroke-width: 1.5"/>
   </g>
   <g id="line2d_15">
    <path d="M 94.829141 384.633761 
L 101.893713 378.862199 
L 107.892564 371.754717 
L 108.557561 360.65987 
L 108.691584 349.076907 
L 110.050169 339.855613 
L 111.895667 329.155304 
L 112.111178 319.468445 
L 116.238162 309.02203 
L 114.732832 296.03913 
L 115.2496 285.364965 
L 115.54961 274.822934 
L 117.068378 265.029719 
L 117.248743 253.309033 
L 116.552948 241.385384 
L 117.078081 231.558987 
L 118.656293 220.572981 
L 120.283618 210.17768 
L 119.578047 200.105012 
L 122.004683 190.766729 
L 124.985495 180.737845 
L 128.166851 169.175932 
L 130.528956 158.752226 
L 136.511961 148.766129 
L 142.343507 138.176078 
L 150.468663 129.170671 
L 160.003169 124.220344 
L 169.07344 117.780136 
L 179.524943 111.909729 
L 189.289289 106.928086 
L 196.241397 97.617047 
L 206.176897 91.856552 
L 216.213465 88.350519 
L 225.474218 81.795465 
L 237.245417 78.940974 
L 248.715586 75.821898 
L 259.986007 75.566523 
L 269.795267 71.726478 
L 280.616554 69.53242 
L 291.076323 68.673788 
L 300.989158 67.85119 
" clip-path="url(#pb45541003f)" style="fill: none; stroke-dasharray: 5.55,2.4; stroke-dashoffset: 0; stroke: #bfbf00; stroke-width: 1.5"/>
   </g>
   <g id="line2d_16">
    <path d="M 35.425909 249.954082 
L 46.278154 252.24223 
L 56.983135 250.744363 
L 67.973443 249.114666 
L 77.053888 243.848528 
L 84.833929 235.746042 
L 93.605776 227.868671 
L 99.46847 219.981136 
L 105.102989 209.061947 
L 109.363072 198.611898 
L 113.833538 188.966374 
L 118.770982 179.877356 
L 123.485892 170.070366 
L 128.010801 159.572587 
L 135.032702 150.808989 
L 142.424755 144.297338 
L 151.575809 139.09604 
L 159.716332 135.501739 
L 167.057659 128.313154 
L 174.29679 122.35753 
L 183.86047 114.578572 
L 192.906445 107.604893 
L 202.803176 101.783275 
L 211.478696 95.617835 
L 222.309908 91.507991 
L 233.973936 90.368366 
L 245.338097 85.403622 
L 254.622205 80.165108 
L 264.223061 77.226793 
L 276.850311 76.991497 
L 288.232661 74.573044 
L 299.52428 72.942253 
L 312.517739 72.303818 
L 324.392332 73.201035 
L 337.073905 72.711395 
L 347.37065 77.713674 
L 357.434703 81.910872 
L 366.713039 86.749426 
L 374.899851 93.375611 
L 380.938412 101.368981 
L 384.651397 111.256254 
" clip-path="url(#pb45541003f)" style="fill: none; stroke-dasharray: 5.55,2.4; stroke-dashoffset: 0; stroke: #bfbf00; stroke-width: 1.5"/>
   </g>
   <g id="line2d_17">
    <path d="M 57.57685 225.854693 
L 68.739094 225.906203 
L 79.20506 225.444795 
L 88.501975 219.346382 
L 97.656388 212.636189 
L 105.341643 204.174336 
L 112.063216 194.349333 
L 117.759901 185.020008 
L 125.380998 174.791966 
L 130.928783 163.802061 
L 137.111839 154.245021 
L 142.931076 147.392474 
L 149.647409 139.125387 
L 158.77397 131.644425 
L 166.557282 125.948959 
L 176.081926 122.195419 
L 185.494678 119.95917 
L 196.471208 115.824528 
L 206.389048 110.371189 
L 214.518595 103.973084 
L 223.807018 98.777984 
L 234.3979 93.905613 
L 244.219643 86.766276 
L 254.680084 84.33056 
L 265.231326 79.756845 
L 275.890884 77.509485 
L 284.036601 75.315023 
L 294.933716 75.537864 
L 306.342456 72.594415 
L 317.181121 70.605455 
L 328.137781 69.611139 
L 340.802117 70.72928 
L 350.674373 75.85197 
L 360.0941 82.178249 
L 368.029355 90.722252 
L 373.589991 99.947615 
L 380.223244 110.769138 
L 384.44238 119.947938 
L 384.346391 131.103731 
L 386.117522 142.258356 
L 383.601914 150.838106 
" clip-path="url(#pb45541003f)" style="fill: none; stroke-dasharray: 5.55,2.4; stroke-dashoffset: 0; stroke: #0000ff; stroke-width: 1.5"/>
   </g>
   <g id="line2d_18">
    <path d="M 295.703257 426.39641 
L 304.492518 421.510326 
L 316.653305 417.654371 
L 324.856086 412.473988 
L 334.160612 407.027931 
L 339.735439 397.251098 
L 347.375491 388.8685 
L 356.366451 382.397734 
L 366.724417 377.43364 
L 378.803495 372.314033 
L 387.694334 367.275076 
L 396.956098 360.38143 
L 405.933915 356.3779 
L 415.465095 349.236504 
L 423.524307 342.115907 
L 429.076186 336.493031 
L 435.451568 328.183099 
L 441.696657 318.487626 
L 446.694453 309.212419 
L 452.115496 300.127135 
L 454.554161 287.373962 
L 455.66227 275.469411 
L 456.611754 263.900204 
L 458.054868 251.737002 
L 457.611304 240.581833 
L 456.730213 228.05045 
L 456.670785 217.710149 
L 456.681485 206.088093 
L 452.748329 195.452984 
L 448.20828 184.723426 
L 441.900252 177.881048 
L 437.065714 166.377205 
L 428.521911 159.270048 
L 422.576979 152.350042 
L 412.777755 148.843262 
L 401.884141 145.352937 
L 393.49931 141.419781 
L 383.99205 140.216782 
L 374.160102 134.073414 
L 379.795719 142.85091 
L 384.828682 153.783613 
" clip-path="url(#pb45541003f)" style="fill: none; stroke-dasharray: 5.55,2.4; stroke-dashoffset: 0; stroke: #0000ff; stroke-width: 1.5"/>
   </g>
   <g id="line2d_19">
    <path d="M 148.50875 219.049156 
L 155.473467 210.112803 
L 157.694063 198.379025 
L 158.235147 188.000926 
L 156.406773 176.014998 
L 157.249452 165.761743 
L 159.25658 154.23419 
L 163.716359 145.89627 
L 170.984315 136.626604 
L 180.847638 129.520547 
L 189.490419 124.507176 
L 199.331499 117.791406 
L 206.832472 112.820036 
L 216.413455 105.394717 
L 224.882523 101.202014 
L 235.482673 99.648115 
L 245.100854 95.349381 
L 256.240351 92.823388 
L 264.656422 87.093478 
L 272.965925 81.286268 
L 281.391597 77.301651 
L 293.694192 74.147087 
L 303.587719 73.773146 
L 314.441992 75.716313 
L 325.46084 79.325144 
L 336.624234 82.350904 
L 347.557816 88.78737 
L 355.543203 95.168858 
L 360.16736 104.671187 
L 364.454652 113.889015 
L 369.036832 124.404488 
L 376.966701 131.978611 
L 384.513363 140.140154 
L 392.247169 147.699846 
L 383.261806 141.000761 
L 373.64831 134.610125 
L 384.172165 138.717195 
L 392.693184 147.247717 
L 382.30007 144.139546 
L 373.327864 138.238846 
L 385.09393 142.38706 
" clip-path="url(#pb45541003f)" style="fill: none; stroke-dasharray: 5.55,2.4; stroke-dashoffset: 0; stroke: #0000ff; stroke-width: 1.5"/>
   </g>
   <g id="patch_8">
    <path d="M 28.942188 465.838125 
L 28.942188 22.318125 
" style="fill: none; stroke: #000000; stroke-width: 0.8; stroke-linejoin: miter; stroke-linecap: square"/>
   </g>
   <g id="patch_9">
    <path d="M 472.462188 465.838125 
L 472.462188 22.318125 
" style="fill: none; stroke: #000000; stroke-width: 0.8; stroke-linejoin: miter; stroke-linecap: square"/>
   </g>
   <g id="patch_10">
    <path d="M 28.942188 465.838125 
L 472.462188 465.838125 
" style="fill: none; stroke: #000000; stroke-width: 0.8; stroke-linejoin: miter; stroke-linecap: square"/>
   </g>
   <g id="patch_11">
    <path d="M 28.942188 22.318125 
L 472.462188 22.318125 
" style="fill: none; stroke: #000000; stroke-width: 0.8; stroke-linejoin: miter; stroke-linecap: square"/>
   </g>
   <g id="text_11">
    <!-- Traces of Robust DWA for a Dubins car, simulated perturbations -->
    <g transform="translate(59.298438 16.318125) scale(0.12 -0.12)">
     <defs>
      <path id="DejaVuSans-54" d="M -19 4666 
L 3928 4666 
L 3928 4134 
L 2272 4134 
L 2272 0 
L 1638 0 
L 1638 4134 
L -19 4134 
L -19 4666 
z
" transform="scale(0.015625)"/>
      <path id="DejaVuSans-72" d="M 2631 2963 
Q 2534 3019 2420 3045 
Q 2306 3072 2169 3072 
Q 1681 3072 1420 2755 
Q 1159 2438 1159 1844 
L 1159 0 
L 581 0 
L 581 3500 
L 1159 3500 
L 1159 2956 
Q 1341 3275 1631 3429 
Q 1922 3584 2338 3584 
Q 2397 3584 2469 3576 
Q 2541 3569 2628 3553 
L 2631 2963 
z
" transform="scale(0.015625)"/>
      <path id="DejaVuSans-61" d="M 2194 1759 
Q 1497 1759 1228 1600 
Q 959 1441 959 1056 
Q 959 750 1161 570 
Q 1363 391 1709 391 
Q 2188 391 2477 730 
Q 2766 1069 2766 1631 
L 2766 1759 
L 2194 1759 
z
M 3341 1997 
L 3341 0 
L 2766 0 
L 2766 531 
Q 2569 213 2275 61 
Q 1981 -91 1556 -91 
Q 1019 -91 701 211 
Q 384 513 384 1019 
Q 384 1609 779 1909 
Q 1175 2209 1959 2209 
L 2766 2209 
L 2766 2266 
Q 2766 2663 2505 2880 
Q 2244 3097 1772 3097 
Q 1472 3097 1187 3025 
Q 903 2953 641 2809 
L 641 3341 
Q 956 3463 1253 3523 
Q 1550 3584 1831 3584 
Q 2591 3584 2966 3190 
Q 3341 2797 3341 1997 
z
" transform="scale(0.015625)"/>
      <path id="DejaVuSans-63" d="M 3122 3366 
L 3122 2828 
Q 2878 2963 2633 3030 
Q 2388 3097 2138 3097 
Q 1578 3097 1268 2742 
Q 959 2388 959 1747 
Q 959 1106 1268 751 
Q 1578 397 2138 397 
Q 2388 397 2633 464 
Q 2878 531 3122 666 
L 3122 134 
Q 2881 22 2623 -34 
Q 2366 -91 2075 -91 
Q 1284 -91 818 406 
Q 353 903 353 1747 
Q 353 2603 823 3093 
Q 1294 3584 2113 3584 
Q 2378 3584 2631 3529 
Q 2884 3475 3122 3366 
z
" transform="scale(0.015625)"/>
      <path id="DejaVuSans-65" d="M 3597 1894 
L 3597 1613 
L 953 1613 
Q 991 1019 1311 708 
Q 1631 397 2203 397 
Q 2534 397 2845 478 
Q 3156 559 3463 722 
L 3463 178 
Q 3153 47 2828 -22 
Q 2503 -91 2169 -91 
Q 1331 -91 842 396 
Q 353 884 353 1716 
Q 353 2575 817 3079 
Q 1281 3584 2069 3584 
Q 2775 3584 3186 3129 
Q 3597 2675 3597 1894 
z
M 3022 2063 
Q 3016 2534 2758 2815 
Q 2500 3097 2075 3097 
Q 1594 3097 1305 2825 
Q 1016 2553 972 2059 
L 3022 2063 
z
" transform="scale(0.015625)"/>
      <path id="DejaVuSans-73" d="M 2834 3397 
L 2834 2853 
Q 2591 2978 2328 3040 
Q 2066 3103 1784 3103 
Q 1356 3103 1142 2972 
Q 928 2841 928 2578 
Q 928 2378 1081 2264 
Q 1234 2150 1697 2047 
L 1894 2003 
Q 2506 1872 2764 1633 
Q 3022 1394 3022 966 
Q 3022 478 2636 193 
Q 2250 -91 1575 -91 
Q 1294 -91 989 -36 
Q 684 19 347 128 
L 347 722 
Q 666 556 975 473 
Q 1284 391 1588 391 
Q 1994 391 2212 530 
Q 2431 669 2431 922 
Q 2431 1156 2273 1281 
Q 2116 1406 1581 1522 
L 1381 1569 
Q 847 1681 609 1914 
Q 372 2147 372 2553 
Q 372 3047 722 3315 
Q 1072 3584 1716 3584 
Q 2034 3584 2315 3537 
Q 2597 3491 2834 3397 
z
" transform="scale(0.015625)"/>
      <path id="DejaVuSans-20" transform="scale(0.015625)"/>
      <path id="DejaVuSans-6f" d="M 1959 3097 
Q 1497 3097 1228 2736 
Q 959 2375 959 1747 
Q 959 1119 1226 758 
Q 1494 397 1959 397 
Q 2419 397 2687 759 
Q 2956 1122 2956 1747 
Q 2956 2369 2687 2733 
Q 2419 3097 1959 3097 
z
M 1959 3584 
Q 2709 3584 3137 3096 
Q 3566 2609 3566 1747 
Q 3566 888 3137 398 
Q 2709 -91 1959 -91 
Q 1206 -91 779 398 
Q 353 888 353 1747 
Q 353 2609 779 3096 
Q 1206 3584 1959 3584 
z
" transform="scale(0.015625)"/>
      <path id="DejaVuSans-66" d="M 2375 4863 
L 2375 4384 
L 1825 4384 
Q 1516 4384 1395 4259 
Q 1275 4134 1275 3809 
L 1275 3500 
L 2222 3500 
L 2222 3053 
L 1275 3053 
L 1275 0 
L 697 0 
L 697 3053 
L 147 3053 
L 147 3500 
L 697 3500 
L 697 3744 
Q 697 4328 969 4595 
Q 1241 4863 1831 4863 
L 2375 4863 
z
" transform="scale(0.015625)"/>
      <path id="DejaVuSans-52" d="M 2841 2188 
Q 3044 2119 3236 1894 
Q 3428 1669 3622 1275 
L 4263 0 
L 3584 0 
L 2988 1197 
Q 2756 1666 2539 1819 
Q 2322 1972 1947 1972 
L 1259 1972 
L 1259 0 
L 628 0 
L 628 4666 
L 2053 4666 
Q 2853 4666 3247 4331 
Q 3641 3997 3641 3322 
Q 3641 2881 3436 2590 
Q 3231 2300 2841 2188 
z
M 1259 4147 
L 1259 2491 
L 2053 2491 
Q 2509 2491 2742 2702 
Q 2975 2913 2975 3322 
Q 2975 3731 2742 3939 
Q 2509 4147 2053 4147 
L 1259 4147 
z
" transform="scale(0.015625)"/>
      <path id="DejaVuSans-62" d="M 3116 1747 
Q 3116 2381 2855 2742 
Q 2594 3103 2138 3103 
Q 1681 3103 1420 2742 
Q 1159 2381 1159 1747 
Q 1159 1113 1420 752 
Q 1681 391 2138 391 
Q 2594 391 2855 752 
Q 3116 1113 3116 1747 
z
M 1159 2969 
Q 1341 3281 1617 3432 
Q 1894 3584 2278 3584 
Q 2916 3584 3314 3078 
Q 3713 2572 3713 1747 
Q 3713 922 3314 415 
Q 2916 -91 2278 -91 
Q 1894 -91 1617 61 
Q 1341 213 1159 525 
L 1159 0 
L 581 0 
L 581 4863 
L 1159 4863 
L 1159 2969 
z
" transform="scale(0.015625)"/>
      <path id="DejaVuSans-75" d="M 544 1381 
L 544 3500 
L 1119 3500 
L 1119 1403 
Q 1119 906 1312 657 
Q 1506 409 1894 409 
Q 2359 409 2629 706 
Q 2900 1003 2900 1516 
L 2900 3500 
L 3475 3500 
L 3475 0 
L 2900 0 
L 2900 538 
Q 2691 219 2414 64 
Q 2138 -91 1772 -91 
Q 1169 -91 856 284 
Q 544 659 544 1381 
z
M 1991 3584 
L 1991 3584 
z
" transform="scale(0.015625)"/>
      <path id="DejaVuSans-74" d="M 1172 4494 
L 1172 3500 
L 2356 3500 
L 2356 3053 
L 1172 3053 
L 1172 1153 
Q 1172 725 1289 603 
Q 1406 481 1766 481 
L 2356 481 
L 2356 0 
L 1766 0 
Q 1100 0 847 248 
Q 594 497 594 1153 
L 594 3053 
L 172 3053 
L 172 3500 
L 594 3500 
L 594 4494 
L 1172 4494 
z
" transform="scale(0.015625)"/>
      <path id="DejaVuSans-44" d="M 1259 4147 
L 1259 519 
L 2022 519 
Q 2988 519 3436 956 
Q 3884 1394 3884 2338 
Q 3884 3275 3436 3711 
Q 2988 4147 2022 4147 
L 1259 4147 
z
M 628 4666 
L 1925 4666 
Q 3281 4666 3915 4102 
Q 4550 3538 4550 2338 
Q 4550 1131 3912 565 
Q 3275 0 1925 0 
L 628 0 
L 628 4666 
z
" transform="scale(0.015625)"/>
      <path id="DejaVuSans-57" d="M 213 4666 
L 850 4666 
L 1831 722 
L 2809 4666 
L 3519 4666 
L 4500 722 
L 5478 4666 
L 6119 4666 
L 4947 0 
L 4153 0 
L 3169 4050 
L 2175 0 
L 1381 0 
L 213 4666 
z
" transform="scale(0.015625)"/>
      <path id="DejaVuSans-41" d="M 2188 4044 
L 1331 1722 
L 3047 1722 
L 2188 4044 
z
M 1831 4666 
L 2547 4666 
L 4325 0 
L 3669 0 
L 3244 1197 
L 1141 1197 
L 716 0 
L 50 0 
L 1831 4666 
z
" transform="scale(0.015625)"/>
      <path id="DejaVuSans-69" d="M 603 3500 
L 1178 3500 
L 1178 0 
L 603 0 
L 603 3500 
z
M 603 4863 
L 1178 4863 
L 1178 4134 
L 603 4134 
L 603 4863 
z
" transform="scale(0.015625)"/>
      <path id="DejaVuSans-6e" d="M 3513 2113 
L 3513 0 
L 2938 0 
L 2938 2094 
Q 2938 2591 2744 2837 
Q 2550 3084 2163 3084 
Q 1697 3084 1428 2787 
Q 1159 2491 1159 1978 
L 1159 0 
L 581 0 
L 581 3500 
L 1159 3500 
L 1159 2956 
Q 1366 3272 1645 3428 
Q 1925 3584 2291 3584 
Q 2894 3584 3203 3211 
Q 3513 2838 3513 2113 
z
" transform="scale(0.015625)"/>
      <path id="DejaVuSans-2c" d="M 750 794 
L 1409 794 
L 1409 256 
L 897 -744 
L 494 -744 
L 750 256 
L 750 794 
z
" transform="scale(0.015625)"/>
      <path id="DejaVuSans-6d" d="M 3328 2828 
Q 3544 3216 3844 3400 
Q 4144 3584 4550 3584 
Q 5097 3584 5394 3201 
Q 5691 2819 5691 2113 
L 5691 0 
L 5113 0 
L 5113 2094 
Q 5113 2597 4934 2840 
Q 4756 3084 4391 3084 
Q 3944 3084 3684 2787 
Q 3425 2491 3425 1978 
L 3425 0 
L 2847 0 
L 2847 2094 
Q 2847 2600 2669 2842 
Q 2491 3084 2119 3084 
Q 1678 3084 1418 2786 
Q 1159 2488 1159 1978 
L 1159 0 
L 581 0 
L 581 3500 
L 1159 3500 
L 1159 2956 
Q 1356 3278 1631 3431 
Q 1906 3584 2284 3584 
Q 2666 3584 2933 3390 
Q 3200 3197 3328 2828 
z
" transform="scale(0.015625)"/>
      <path id="DejaVuSans-6c" d="M 603 4863 
L 1178 4863 
L 1178 0 
L 603 0 
L 603 4863 
z
" transform="scale(0.015625)"/>
      <path id="DejaVuSans-64" d="M 2906 2969 
L 2906 4863 
L 3481 4863 
L 3481 0 
L 2906 0 
L 2906 525 
Q 2725 213 2448 61 
Q 2172 -91 1784 -91 
Q 1150 -91 751 415 
Q 353 922 353 1747 
Q 353 2572 751 3078 
Q 1150 3584 1784 3584 
Q 2172 3584 2448 3432 
Q 2725 3281 2906 2969 
z
M 947 1747 
Q 947 1113 1208 752 
Q 1469 391 1925 391 
Q 2381 391 2643 752 
Q 2906 1113 2906 1747 
Q 2906 2381 2643 2742 
Q 2381 3103 1925 3103 
Q 1469 3103 1208 2742 
Q 947 2381 947 1747 
z
" transform="scale(0.015625)"/>
      <path id="DejaVuSans-70" d="M 1159 525 
L 1159 -1331 
L 581 -1331 
L 581 3500 
L 1159 3500 
L 1159 2969 
Q 1341 3281 1617 3432 
Q 1894 3584 2278 3584 
Q 2916 3584 3314 3078 
Q 3713 2572 3713 1747 
Q 3713 922 3314 415 
Q 2916 -91 2278 -91 
Q 1894 -91 1617 61 
Q 1341 213 1159 525 
z
M 3116 1747 
Q 3116 2381 2855 2742 
Q 2594 3103 2138 3103 
Q 1681 3103 1420 2742 
Q 1159 2381 1159 1747 
Q 1159 1113 1420 752 
Q 1681 391 2138 391 
Q 2594 391 2855 752 
Q 3116 1113 3116 1747 
z
" transform="scale(0.015625)"/>
     </defs>
     <use xlink:href="#DejaVuSans-54"/>
     <use xlink:href="#DejaVuSans-72" x="46.333984"/>
     <use xlink:href="#DejaVuSans-61" x="87.447266"/>
     <use xlink:href="#DejaVuSans-63" x="148.726562"/>
     <use xlink:href="#DejaVuSans-65" x="203.707031"/>
     <use xlink:href="#DejaVuSans-73" x="265.230469"/>
     <use xlink:href="#DejaVuSans-20" x="317.330078"/>
     <use xlink:href="#DejaVuSans-6f" x="349.117188"/>
     <use xlink:href="#DejaVuSans-66" x="410.298828"/>
     <use xlink:href="#DejaVuSans-20" x="445.503906"/>
     <use xlink:href="#DejaVuSans-52" x="477.291016"/>
     <use xlink:href="#DejaVuSans-6f" x="542.273438"/>
     <use xlink:href="#DejaVuSans-62" x="603.455078"/>
     <use xlink:href="#DejaVuSans-75" x="666.931641"/>
     <use xlink:href="#DejaVuSans-73" x="730.310547"/>
     <use xlink:href="#DejaVuSans-74" x="782.410156"/>
     <use xlink:href="#DejaVuSans-20" x="821.619141"/>
     <use xlink:href="#DejaVuSans-44" x="853.40625"/>
     <use xlink:href="#DejaVuSans-57" x="930.408203"/>
     <use xlink:href="#DejaVuSans-41" x="1023.785156"/>
     <use xlink:href="#DejaVuSans-20" x="1092.193359"/>
     <use xlink:href="#DejaVuSans-66" x="1123.980469"/>
     <use xlink:href="#DejaVuSans-6f" x="1159.185547"/>
     <use xlink:href="#DejaVuSans-72" x="1220.367188"/>
     <use xlink:href="#DejaVuSans-20" x="1261.480469"/>
     <use xlink:href="#DejaVuSans-61" x="1293.267578"/>
     <use xlink:href="#DejaVuSans-20" x="1354.546875"/>
     <use xlink:href="#DejaVuSans-44" x="1386.333984"/>
     <use xlink:href="#DejaVuSans-75" x="1463.335938"/>
     <use xlink:href="#DejaVuSans-62" x="1526.714844"/>
     <use xlink:href="#DejaVuSans-69" x="1590.191406"/>
     <use xlink:href="#DejaVuSans-6e" x="1617.974609"/>
     <use xlink:href="#DejaVuSans-73" x="1681.353516"/>
     <use xlink:href="#DejaVuSans-20" x="1733.453125"/>
     <use xlink:href="#DejaVuSans-63" x="1765.240234"/>
     <use xlink:href="#DejaVuSans-61" x="1820.220703"/>
     <use xlink:href="#DejaVuSans-72" x="1881.5"/>
     <use xlink:href="#DejaVuSans-2c" x="1922.613281"/>
     <use xlink:href="#DejaVuSans-20" x="1954.400391"/>
     <use xlink:href="#DejaVuSans-73" x="1986.1875"/>
     <use xlink:href="#DejaVuSans-69" x="2038.287109"/>
     <use xlink:href="#DejaVuSans-6d" x="2066.070312"/>
     <use xlink:href="#DejaVuSans-75" x="2163.482422"/>
     <use xlink:href="#DejaVuSans-6c" x="2226.861328"/>
     <use xlink:href="#DejaVuSans-61" x="2254.644531"/>
     <use xlink:href="#DejaVuSans-74" x="2315.923828"/>
     <use xlink:href="#DejaVuSans-65" x="2355.132812"/>
     <use xlink:href="#DejaVuSans-64" x="2416.65625"/>
     <use xlink:href="#DejaVuSans-20" x="2480.132812"/>
     <use xlink:href="#DejaVuSans-70" x="2511.919922"/>
     <use xlink:href="#DejaVuSans-65" x="2575.396484"/>
     <use xlink:href="#DejaVuSans-72" x="2636.919922"/>
     <use xlink:href="#DejaVuSans-74" x="2678.033203"/>
     <use xlink:href="#DejaVuSans-75" x="2717.242188"/>
     <use xlink:href="#DejaVuSans-72" x="2780.621094"/>
     <use xlink:href="#DejaVuSans-62" x="2821.734375"/>
     <use xlink:href="#DejaVuSans-61" x="2885.210938"/>
     <use xlink:href="#DejaVuSans-74" x="2946.490234"/>
     <use xlink:href="#DejaVuSans-69" x="2985.699219"/>
     <use xlink:href="#DejaVuSans-6f" x="3013.482422"/>
     <use xlink:href="#DejaVuSans-6e" x="3074.664062"/>
     <use xlink:href="#DejaVuSans-73" x="3138.042969"/>
    </g>
   </g>
  </g>
 </g>
 <defs>
  <clipPath id="pb45541003f">
   <rect x="28.942188" y="22.318125" width="443.52" height="443.52"/>
  </clipPath>
 </defs>
</svg>
