<?xml version="1.0" encoding="utf-8" standalone="no"?>
<!DOCTYPE svg PUBLIC "-//W3C//DTD SVG 1.1//EN"
  "http://www.w3.org/Graphics/SVG/1.1/DTD/svg11.dtd">
<!-- Created with matplotlib (https://matplotlib.org/) -->
<svg height="481.07625pt" version="1.1" viewBox="0 0 471.022187 481.07625" width="471.022187pt" xmlns="http://www.w3.org/2000/svg" xmlns:xlink="http://www.w3.org/1999/xlink">
 <defs>
  <style type="text/css">
*{stroke-linecap:butt;stroke-linejoin:round;}
  </style>
 </defs>
 <g id="figure_1">
  <g id="patch_1">
   <path d="M 0 481.07625 
L 471.022187 481.07625 
L 471.022187 0 
L 0 0 
z
" style="fill:none;"/>
  </g>
  <g id="axes_1">
   <g id="patch_2">
    <path d="M 28.942188 457.198125 
L 463.822187 457.198125 
L 463.822187 22.318125 
L 28.942188 22.318125 
z
" style="fill:#ffffff;"/>
   </g>
   <g id="patch_3">
    <path clip-path="url(#pf545d90a35)" d="M 159.406187 326.734125 
L 202.894187 326.734125 
L 202.894187 152.782125 
L 159.406187 152.782125 
z
"/>
   </g>
   <g id="patch_4">
    <path clip-path="url(#pf545d90a35)" d="M 289.870187 196.270125 
L 333.358187 196.270125 
L 333.358187 109.294125 
L 289.870187 109.294125 
z
"/>
   </g>
   <g id="patch_5">
    <path clip-path="url(#pf545d90a35)" d="M 289.870187 196.270125 
L 411.636587 196.270125 
L 411.636587 174.526125 
L 289.870187 174.526125 
z
"/>
   </g>
   <g id="patch_6">
    <path clip-path="url(#pf545d90a35)" d="M 289.870187 304.990125 
L 411.636587 304.990125 
L 411.636587 283.246125 
L 289.870187 283.246125 
z
"/>
   </g>
   <g id="patch_7">
    <path clip-path="url(#pf545d90a35)" d="M 389.892587 283.246125 
L 411.636588 283.246125 
L 411.636588 218.014125 
L 389.892587 218.014125 
z
"/>
   </g>
   <g id="matplotlib.axis_1">
    <g id="xtick_1">
     <g id="line2d_1">
      <defs>
       <path d="M 0 0 
L 0 3.5 
" id="m0892700a37" style="stroke:#000000;stroke-width:0.8;"/>
      </defs>
      <g>
       <use style="stroke:#000000;stroke-width:0.8;" x="72.430187" xlink:href="#m0892700a37" y="457.198125"/>
      </g>
     </g>
     <g id="text_1">
      <!-- −4 -->
      <defs>
       <path d="M 10.59375 35.5 
L 73.1875 35.5 
L 73.1875 27.203125 
L 10.59375 27.203125 
z
" id="DejaVuSans-8722"/>
       <path d="M 37.796875 64.3125 
L 12.890625 25.390625 
L 37.796875 25.390625 
z
M 35.203125 72.90625 
L 47.609375 72.90625 
L 47.609375 25.390625 
L 58.015625 25.390625 
L 58.015625 17.1875 
L 47.609375 17.1875 
L 47.609375 0 
L 37.796875 0 
L 37.796875 17.1875 
L 4.890625 17.1875 
L 4.890625 26.703125 
z
" id="DejaVuSans-52"/>
      </defs>
      <g transform="translate(65.059094 471.796562)scale(0.1 -0.1)">
       <use xlink:href="#DejaVuSans-8722"/>
       <use x="83.789062" xlink:href="#DejaVuSans-52"/>
      </g>
     </g>
    </g>
    <g id="xtick_2">
     <g id="line2d_2">
      <g>
       <use style="stroke:#000000;stroke-width:0.8;" x="159.406187" xlink:href="#m0892700a37" y="457.198125"/>
      </g>
     </g>
     <g id="text_2">
      <!-- −2 -->
      <defs>
       <path d="M 19.1875 8.296875 
L 53.609375 8.296875 
L 53.609375 0 
L 7.328125 0 
L 7.328125 8.296875 
Q 12.9375 14.109375 22.625 23.890625 
Q 32.328125 33.6875 34.8125 36.53125 
Q 39.546875 41.84375 41.421875 45.53125 
Q 43.3125 49.21875 43.3125 52.78125 
Q 43.3125 58.59375 39.234375 62.25 
Q 35.15625 65.921875 28.609375 65.921875 
Q 23.96875 65.921875 18.8125 64.3125 
Q 13.671875 62.703125 7.8125 59.421875 
L 7.8125 69.390625 
Q 13.765625 71.78125 18.9375 73 
Q 24.125 74.21875 28.421875 74.21875 
Q 39.75 74.21875 46.484375 68.546875 
Q 53.21875 62.890625 53.21875 53.421875 
Q 53.21875 48.921875 51.53125 44.890625 
Q 49.859375 40.875 45.40625 35.40625 
Q 44.1875 33.984375 37.640625 27.21875 
Q 31.109375 20.453125 19.1875 8.296875 
z
" id="DejaVuSans-50"/>
      </defs>
      <g transform="translate(152.035094 471.796562)scale(0.1 -0.1)">
       <use xlink:href="#DejaVuSans-8722"/>
       <use x="83.789062" xlink:href="#DejaVuSans-50"/>
      </g>
     </g>
    </g>
    <g id="xtick_3">
     <g id="line2d_3">
      <g>
       <use style="stroke:#000000;stroke-width:0.8;" x="246.382187" xlink:href="#m0892700a37" y="457.198125"/>
      </g>
     </g>
     <g id="text_3">
      <!-- 0 -->
      <defs>
       <path d="M 31.78125 66.40625 
Q 24.171875 66.40625 20.328125 58.90625 
Q 16.5 51.421875 16.5 36.375 
Q 16.5 21.390625 20.328125 13.890625 
Q 24.171875 6.390625 31.78125 6.390625 
Q 39.453125 6.390625 43.28125 13.890625 
Q 47.125 21.390625 47.125 36.375 
Q 47.125 51.421875 43.28125 58.90625 
Q 39.453125 66.40625 31.78125 66.40625 
z
M 31.78125 74.21875 
Q 44.046875 74.21875 50.515625 64.515625 
Q 56.984375 54.828125 56.984375 36.375 
Q 56.984375 17.96875 50.515625 8.265625 
Q 44.046875 -1.421875 31.78125 -1.421875 
Q 19.53125 -1.421875 13.0625 8.265625 
Q 6.59375 17.96875 6.59375 36.375 
Q 6.59375 54.828125 13.0625 64.515625 
Q 19.53125 74.21875 31.78125 74.21875 
z
" id="DejaVuSans-48"/>
      </defs>
      <g transform="translate(243.200937 471.796562)scale(0.1 -0.1)">
       <use xlink:href="#DejaVuSans-48"/>
      </g>
     </g>
    </g>
    <g id="xtick_4">
     <g id="line2d_4">
      <g>
       <use style="stroke:#000000;stroke-width:0.8;" x="333.358187" xlink:href="#m0892700a37" y="457.198125"/>
      </g>
     </g>
     <g id="text_4">
      <!-- 2 -->
      <g transform="translate(330.176938 471.796562)scale(0.1 -0.1)">
       <use xlink:href="#DejaVuSans-50"/>
      </g>
     </g>
    </g>
    <g id="xtick_5">
     <g id="line2d_5">
      <g>
       <use style="stroke:#000000;stroke-width:0.8;" x="420.334187" xlink:href="#m0892700a37" y="457.198125"/>
      </g>
     </g>
     <g id="text_5">
      <!-- 4 -->
      <g transform="translate(417.152938 471.796562)scale(0.1 -0.1)">
       <use xlink:href="#DejaVuSans-52"/>
      </g>
     </g>
    </g>
   </g>
   <g id="matplotlib.axis_2">
    <g id="ytick_1">
     <g id="line2d_6">
      <defs>
       <path d="M 0 0 
L -3.5 0 
" id="m9bf57d84fb" style="stroke:#000000;stroke-width:0.8;"/>
      </defs>
      <g>
       <use style="stroke:#000000;stroke-width:0.8;" x="28.942188" xlink:href="#m9bf57d84fb" y="413.710125"/>
      </g>
     </g>
     <g id="text_6">
      <!-- −4 -->
      <g transform="translate(7.2 417.509344)scale(0.1 -0.1)">
       <use xlink:href="#DejaVuSans-8722"/>
       <use x="83.789062" xlink:href="#DejaVuSans-52"/>
      </g>
     </g>
    </g>
    <g id="ytick_2">
     <g id="line2d_7">
      <g>
       <use style="stroke:#000000;stroke-width:0.8;" x="28.942188" xlink:href="#m9bf57d84fb" y="326.734125"/>
      </g>
     </g>
     <g id="text_7">
      <!-- −2 -->
      <g transform="translate(7.2 330.533344)scale(0.1 -0.1)">
       <use xlink:href="#DejaVuSans-8722"/>
       <use x="83.789062" xlink:href="#DejaVuSans-50"/>
      </g>
     </g>
    </g>
    <g id="ytick_3">
     <g id="line2d_8">
      <g>
       <use style="stroke:#000000;stroke-width:0.8;" x="28.942188" xlink:href="#m9bf57d84fb" y="239.758125"/>
      </g>
     </g>
     <g id="text_8">
      <!-- 0 -->
      <g transform="translate(15.579688 243.557344)scale(0.1 -0.1)">
       <use xlink:href="#DejaVuSans-48"/>
      </g>
     </g>
    </g>
    <g id="ytick_4">
     <g id="line2d_9">
      <g>
       <use style="stroke:#000000;stroke-width:0.8;" x="28.942188" xlink:href="#m9bf57d84fb" y="152.782125"/>
      </g>
     </g>
     <g id="text_9">
      <!-- 2 -->
      <g transform="translate(15.579688 156.581344)scale(0.1 -0.1)">
       <use xlink:href="#DejaVuSans-50"/>
      </g>
     </g>
    </g>
    <g id="ytick_5">
     <g id="line2d_10">
      <g>
       <use style="stroke:#000000;stroke-width:0.8;" x="28.942188" xlink:href="#m9bf57d84fb" y="65.806125"/>
      </g>
     </g>
     <g id="text_10">
      <!-- 4 -->
      <g transform="translate(15.579688 69.605344)scale(0.1 -0.1)">
       <use xlink:href="#DejaVuSans-52"/>
      </g>
     </g>
    </g>
   </g>
   <g id="PathCollection_1">
    <defs>
     <path d="M 0 3 
C 0.795609 3 1.55874 2.683901 2.12132 2.12132 
C 2.683901 1.55874 3 0.795609 3 0 
C 3 -0.795609 2.683901 -1.55874 2.12132 -2.12132 
C 1.55874 -2.683901 0.795609 -3 0 -3 
C -0.795609 -3 -1.55874 -2.683901 -2.12132 -2.12132 
C -2.683901 -1.55874 -3 -0.795609 -3 0 
C -3 0.795609 -2.683901 1.55874 -2.12132 2.12132 
C -1.55874 2.683901 -0.795609 3 0 3 
z
" id="m5dc539aa66" style="stroke:#ff0000;"/>
    </defs>
    <g clip-path="url(#pf545d90a35)">
     <use style="fill:#ff0000;stroke:#ff0000;" x="365.539308" xlink:href="#m5dc539aa66" y="161.479725"/>
    </g>
   </g>
   <g id="line2d_11">
    <path clip-path="url(#pf545d90a35)" d="M 424.052709 272.500596 
L 421.228445 262.648525 
L 420.946542 253.381267 
L 426.940466 245.60404 
L 433.039484 234.176893 
L 434.935893 224.862256 
L 440.842352 212.276623 
L 443.77568 200.912027 
L 447.329015 193.339521 
L 442.543774 181.46096 
L 439.879638 168.821677 
L 430.912879 157.469167 
L 428.43892 153.725946 
L 421.138271 144.744746 
L 411.947313 139.744814 
L 403.042344 134.091838 
L 392.040675 130.543488 
L 379.690082 127.054578 
L 371.201735 124.877815 
L 382.242001 131.073536 
L 371.66552 127.217184 
L 383.015331 133.939031 
L 374.433915 126.034495 
L 384.025172 129.80193 
L 373.22132 124.165294 
L 379.78743 134.651679 
L 382.13564 144.968639 
L 373.29494 137.430481 
L 381.492636 144.51462 
L 370.707301 138.994264 
L 379.996958 144.210885 
L 371.232775 139.936663 
L 380.060309 143.682304 
L 371.25738 137.949672 
L 377.536839 144.755822 
L 374.81181 133.196273 
L 378.198954 147.365501 
L 370.314472 141.297947 
L 374.715315 150.239844 
L 368.093567 145.000786 
" style="fill:none;stroke:#0000ff;stroke-dasharray:5.55,2.4;stroke-dashoffset:0;stroke-width:1.5;"/>
   </g>
   <g id="line2d_12">
    <path clip-path="url(#pf545d90a35)" d="M 233.336793 392.32964 
L 238.420413 380.769919 
L 243.925902 371.868741 
L 254.259951 363.493748 
L 261.562315 358.759608 
L 272.495335 357.157415 
L 286.617268 356.346999 
L 298.917186 357.293034 
L 309.515773 355.286853 
L 317.94297 356.261999 
L 327.851088 355.009999 
L 341.599773 351.303177 
L 352.92666 351.778032 
L 367.92621 344.308825 
L 380.357331 342.292893 
L 390.856631 339.568776 
L 402.647607 338.345749 
L 413.706956 332.210864 
L 420.791835 325.48733 
L 425.41902 318.720617 
L 434.480856 311.631165 
L 432.898419 304.049351 
L 434.476245 293.036847 
L 432.622335 283.155351 
L 433.706178 272.059992 
L 436.421256 259.162589 
L 438.406984 249.751812 
L 439.787404 238.683367 
L 438.404448 226.716919 
L 437.807129 217.660283 
L 438.20188 206.255086 
L 436.065092 195.166654 
L 433.401475 185.117224 
L 428.795489 178.849376 
L 422.79009 166.873333 
L 418.297406 157.28403 
L 410.336365 157.529593 
L 396.332525 152.920277 
L 386.880478 143.09548 
L 376.290047 139.525838 
" style="fill:none;stroke:#0000ff;stroke-dasharray:5.55,2.4;stroke-dashoffset:0;stroke-width:1.5;"/>
   </g>
   <g id="line2d_13">
    <path clip-path="url(#pf545d90a35)" d="M 342.363068 115.988351 
L 335.785332 129.816652 
L 337.799953 139.320227 
L 347.087298 147.847858 
L 359.091886 153.280269 
L 360.478694 148.807398 
L 370.020428 154.404032 
L 367.287972 153.553554 
L 368.803208 151.161711 
L 366.067 151.775963 
L 365.527842 151.192684 
L 365.043467 153.378016 
L 362.231752 150.023548 
L 355.132729 144.172209 
L 360.837209 157.201285 
L 362.926362 157.532626 
L 362.258958 157.310084 
L 364.533515 156.781314 
L 364.01045 156.195093 
L 362.133983 152.552208 
L 362.121368 150.879657 
L 365.594257 157.715391 
L 363.41526 160.991943 
L 365.294901 159.854589 
L 368.068372 161.500257 
L 369.189643 162.71749 
L 371.109826 157.654165 
L 371.936437 163.763303 
L 368.974295 165.800096 
L 372.11248 160.653221 
L 369.313119 161.86902 
L 367.642132 165.62681 
L 369.579804 162.293121 
L 368.087175 164.88624 
L 370.705744 163.866755 
L 373.496197 165.783969 
L 370.992444 166.845059 
L 372.327331 170.283441 
L 369.425096 158.481836 
L 374.570259 160.3978 
" style="fill:none;stroke:#0000ff;stroke-dasharray:5.55,2.4;stroke-dashoffset:0;stroke-width:1.5;"/>
   </g>
   <g id="line2d_14">
    <path clip-path="url(#pf545d90a35)" d="M 71.871695 97.004404 
L 85.076797 99.165696 
L 98.777314 106.223693 
L 109.482837 102.20665 
L 120.962202 103.170993 
L 132.104603 104.662904 
L 144.3746 104.480618 
L 155.785875 101.804157 
L 164.022623 100.06243 
L 175.312457 95.933469 
L 188.329652 94.7417 
L 198.26861 97.921176 
L 205.384914 90.127337 
L 217.298466 83.778516 
L 233.695722 80.785096 
L 241.128488 76.988825 
L 252.711847 73.87291 
L 265.691774 74.134052 
L 278.830042 74.713521 
L 291.526477 76.226894 
L 298.463888 79.656217 
L 307.071851 82.332615 
L 321.06707 85.667965 
L 333.434343 92.246948 
L 346.346242 96.469021 
L 352.280666 105.365098 
L 360.44157 113.100877 
L 368.474007 122.576382 
L 373.09811 127.827702 
L 381.116429 131.848736 
L 369.39783 128.498937 
L 380.073487 132.492712 
L 386.853474 144.317123 
L 384.664084 132.443371 
L 386.874283 142.378079 
L 385.782362 131.392536 
L 389.901515 141.640716 
L 384.651246 135.04562 
L 371.769303 124.733035 
L 380.283652 136.174075 
" style="fill:none;stroke:#0000ff;stroke-dasharray:5.55,2.4;stroke-dashoffset:0;stroke-width:1.5;"/>
   </g>
   <g id="line2d_15">
    <path clip-path="url(#pf545d90a35)" d="M 402.747734 111.741284 
L 400.282904 123.026004 
L 394.812821 131.125121 
L 387.653787 138.52199 
L 381.846114 148.449099 
L 372.649503 154.655309 
L 371.582989 154.675956 
L 369.866528 155.388542 
L 369.147163 152.668164 
L 371.02341 151.793391 
L 378.83023 150.250141 
L 368.707467 150.657039 
L 378.475162 145.905282 
L 369.267927 147.831345 
L 381.618109 144.69485 
L 367.292055 148.883866 
L 361.480298 158.169558 
L 362.35182 159.65803 
L 357.066583 162.343532 
L 358.661551 161.052333 
L 358.313379 162.819457 
L 357.090324 166.32305 
L 358.598466 163.359629 
L 356.924829 168.286088 
L 364.423174 159.849939 
L 365.212262 160.492813 
L 367.245158 162.166479 
L 367.081817 166.554665 
L 365.06475 166.812314 
L 364.558588 170.487417 
L 367.925736 171.57847 
L 367.132982 167.963695 
L 366.130442 166.288082 
L 367.345479 164.212504 
L 369.279102 164.386783 
L 368.564608 163.025306 
L 367.091752 162.770843 
L 366.10199 162.741106 
L 363.961738 163.33964 
L 366.589849 161.045429 
" style="fill:none;stroke:#0000ff;stroke-dasharray:5.55,2.4;stroke-dashoffset:0;stroke-width:1.5;"/>
   </g>
   <g id="line2d_16">
    <path clip-path="url(#pf545d90a35)" d="M 41.67975 225.123237 
L 51.265165 222.378978 
L 61.41848 221.682333 
L 68.156679 216.23472 
L 77.770896 209.463058 
L 86.080312 200.359372 
L 91.480065 195.712383 
L 92.321002 189.511938 
L 100.792292 184.312916 
L 108.50574 172.912151 
L 115.885552 164.961588 
L 124.507077 156.498524 
L 128.636663 146.394939 
L 134.884865 135.932241 
L 141.074664 130.137694 
L 150.424295 124.413721 
L 158.185217 120.462211 
L 167.12033 114.841634 
L 172.895466 109.559123 
L 183.512846 105.522075 
L 190.919183 101.40696 
L 202.328129 97.499485 
L 213.803429 94.871552 
L 226.414102 90.857302 
L 236.605722 84.040217 
L 248.469121 80.555449 
L 259.061744 73.512063 
L 268.276732 68.997499 
L 281.373214 66.171073 
L 294.877004 59.064365 
L 303.123788 56.884392 
L 314.204364 54.17711 
L 328.724111 57.719619 
L 340.520213 64.354033 
L 350.456991 73.659022 
L 357.59542 83.868996 
L 357.192937 95.570203 
L 361.069042 107.443133 
L 360.032439 115.86535 
L 360.874068 123.49172 
" style="fill:none;stroke:#0000ff;stroke-dasharray:5.55,2.4;stroke-dashoffset:0;stroke-width:1.5;"/>
   </g>
   <g id="line2d_17">
    <path clip-path="url(#pf545d90a35)" d="M 256.191049 444.414905 
L 265.540924 450.615308 
L 274.646704 453.909535 
L 286.048358 454.48157 
L 291.38513 451.02194 
L 300.131991 448.81136 
L 309.397674 441.704459 
L 319.815943 433.050413 
L 327.519763 428.02431 
L 335.207805 418.833351 
L 343.431211 411.992432 
L 351.560878 402.123131 
L 359.34811 393.560374 
L 368.62903 384.8617 
L 376.127182 375.864813 
L 384.635911 371.975673 
L 394.577657 370.063064 
L 402.41556 364.740313 
L 409.210854 362.071138 
L 419.314693 352.696095 
L 426.280335 342.154342 
L 430.655965 337.064583 
L 432.692197 326.766494 
L 435.774197 314.076477 
L 443.103638 304.358661 
L 446.679151 292.310393 
L 447.765766 284.343488 
L 449.600322 277.300938 
L 453.513415 264.670476 
L 456.493869 249.077547 
L 453.321106 238.217034 
L 448.195162 226.84667 
L 447.40596 216.414116 
L 448.756522 208.03886 
L 445.317867 198.044527 
L 444.836077 186.935623 
L 442.060962 176.622211 
L 437.986907 169.901396 
L 432.743503 162.214072 
L 419.994429 158.727234 
" style="fill:none;stroke:#bfbf00;stroke-dasharray:5.55,2.4;stroke-dashoffset:0;stroke-width:1.5;"/>
   </g>
   <g id="line2d_18">
    <path clip-path="url(#pf545d90a35)" d="M 95.439201 222.492879 
L 89.989267 209.657034 
L 82.813311 201.231182 
L 77.90538 192.936789 
L 79.950134 181.53161 
L 79.988692 168.004137 
L 82.430142 155.220022 
L 86.734216 143.274856 
L 94.173508 134.859015 
L 107.408876 129.657147 
L 118.942696 123.318851 
L 122.618583 116.22017 
L 128.095256 109.774535 
L 143.131737 103.333002 
L 150.16041 99.921638 
L 157.69966 94.702205 
L 169.18077 92.401231 
L 180.686127 85.892585 
L 189.672107 86.323084 
L 197.821188 90.630716 
L 208.737418 89.950077 
L 220.493255 89.90888 
L 231.999367 90.175523 
L 243.564755 88.583516 
L 253.195769 84.335121 
L 265.054193 81.329112 
L 276.146017 82.075988 
L 287.471974 84.106233 
L 298.906001 82.84856 
L 312.635218 81.088151 
L 323.706505 82.789931 
L 332.781512 87.861051 
L 344.68476 100.143528 
L 356.036104 108.468761 
L 363.28656 116.419954 
L 366.573606 124.188061 
L 369.587945 133.9285 
L 373.183641 145.817883 
L 365.344167 139.825891 
L 371.216829 150.323245 
" style="fill:none;stroke:#0000ff;stroke-dasharray:5.55,2.4;stroke-dashoffset:0;stroke-width:1.5;"/>
   </g>
   <g id="patch_8">
    <path d="M 28.942188 457.198125 
L 28.942188 22.318125 
" style="fill:none;stroke:#000000;stroke-linecap:square;stroke-linejoin:miter;stroke-width:0.8;"/>
   </g>
   <g id="patch_9">
    <path d="M 463.822187 457.198125 
L 463.822187 22.318125 
" style="fill:none;stroke:#000000;stroke-linecap:square;stroke-linejoin:miter;stroke-width:0.8;"/>
   </g>
   <g id="patch_10">
    <path d="M 28.942187 457.198125 
L 463.822187 457.198125 
" style="fill:none;stroke:#000000;stroke-linecap:square;stroke-linejoin:miter;stroke-width:0.8;"/>
   </g>
   <g id="patch_11">
    <path d="M 28.942187 22.318125 
L 463.822187 22.318125 
" style="fill:none;stroke:#000000;stroke-linecap:square;stroke-linejoin:miter;stroke-width:0.8;"/>
   </g>
   <g id="text_11">
    <!-- Traces of Robust DWA for a Dubins car, simulated perturbations -->
    <defs>
     <path d="M -0.296875 72.90625 
L 61.375 72.90625 
L 61.375 64.59375 
L 35.5 64.59375 
L 35.5 0 
L 25.59375 0 
L 25.59375 64.59375 
L -0.296875 64.59375 
z
" id="DejaVuSans-84"/>
     <path d="M 41.109375 46.296875 
Q 39.59375 47.171875 37.8125 47.578125 
Q 36.03125 48 33.890625 48 
Q 26.265625 48 22.1875 43.046875 
Q 18.109375 38.09375 18.109375 28.8125 
L 18.109375 0 
L 9.078125 0 
L 9.078125 54.6875 
L 18.109375 54.6875 
L 18.109375 46.1875 
Q 20.953125 51.171875 25.484375 53.578125 
Q 30.03125 56 36.53125 56 
Q 37.453125 56 38.578125 55.875 
Q 39.703125 55.765625 41.0625 55.515625 
z
" id="DejaVuSans-114"/>
     <path d="M 34.28125 27.484375 
Q 23.390625 27.484375 19.1875 25 
Q 14.984375 22.515625 14.984375 16.5 
Q 14.984375 11.71875 18.140625 8.90625 
Q 21.296875 6.109375 26.703125 6.109375 
Q 34.1875 6.109375 38.703125 11.40625 
Q 43.21875 16.703125 43.21875 25.484375 
L 43.21875 27.484375 
z
M 52.203125 31.203125 
L 52.203125 0 
L 43.21875 0 
L 43.21875 8.296875 
Q 40.140625 3.328125 35.546875 0.953125 
Q 30.953125 -1.421875 24.3125 -1.421875 
Q 15.921875 -1.421875 10.953125 3.296875 
Q 6 8.015625 6 15.921875 
Q 6 25.140625 12.171875 29.828125 
Q 18.359375 34.515625 30.609375 34.515625 
L 43.21875 34.515625 
L 43.21875 35.40625 
Q 43.21875 41.609375 39.140625 45 
Q 35.0625 48.390625 27.6875 48.390625 
Q 23 48.390625 18.546875 47.265625 
Q 14.109375 46.140625 10.015625 43.890625 
L 10.015625 52.203125 
Q 14.9375 54.109375 19.578125 55.046875 
Q 24.21875 56 28.609375 56 
Q 40.484375 56 46.34375 49.84375 
Q 52.203125 43.703125 52.203125 31.203125 
z
" id="DejaVuSans-97"/>
     <path d="M 48.78125 52.59375 
L 48.78125 44.1875 
Q 44.96875 46.296875 41.140625 47.34375 
Q 37.3125 48.390625 33.40625 48.390625 
Q 24.65625 48.390625 19.8125 42.84375 
Q 14.984375 37.3125 14.984375 27.296875 
Q 14.984375 17.28125 19.8125 11.734375 
Q 24.65625 6.203125 33.40625 6.203125 
Q 37.3125 6.203125 41.140625 7.25 
Q 44.96875 8.296875 48.78125 10.40625 
L 48.78125 2.09375 
Q 45.015625 0.34375 40.984375 -0.53125 
Q 36.96875 -1.421875 32.421875 -1.421875 
Q 20.0625 -1.421875 12.78125 6.34375 
Q 5.515625 14.109375 5.515625 27.296875 
Q 5.515625 40.671875 12.859375 48.328125 
Q 20.21875 56 33.015625 56 
Q 37.15625 56 41.109375 55.140625 
Q 45.0625 54.296875 48.78125 52.59375 
z
" id="DejaVuSans-99"/>
     <path d="M 56.203125 29.59375 
L 56.203125 25.203125 
L 14.890625 25.203125 
Q 15.484375 15.921875 20.484375 11.0625 
Q 25.484375 6.203125 34.421875 6.203125 
Q 39.59375 6.203125 44.453125 7.46875 
Q 49.3125 8.734375 54.109375 11.28125 
L 54.109375 2.78125 
Q 49.265625 0.734375 44.1875 -0.34375 
Q 39.109375 -1.421875 33.890625 -1.421875 
Q 20.796875 -1.421875 13.15625 6.1875 
Q 5.515625 13.8125 5.515625 26.8125 
Q 5.515625 40.234375 12.765625 48.109375 
Q 20.015625 56 32.328125 56 
Q 43.359375 56 49.78125 48.890625 
Q 56.203125 41.796875 56.203125 29.59375 
z
M 47.21875 32.234375 
Q 47.125 39.59375 43.09375 43.984375 
Q 39.0625 48.390625 32.421875 48.390625 
Q 24.90625 48.390625 20.390625 44.140625 
Q 15.875 39.890625 15.1875 32.171875 
z
" id="DejaVuSans-101"/>
     <path d="M 44.28125 53.078125 
L 44.28125 44.578125 
Q 40.484375 46.53125 36.375 47.5 
Q 32.28125 48.484375 27.875 48.484375 
Q 21.1875 48.484375 17.84375 46.4375 
Q 14.5 44.390625 14.5 40.28125 
Q 14.5 37.15625 16.890625 35.375 
Q 19.28125 33.59375 26.515625 31.984375 
L 29.59375 31.296875 
Q 39.15625 29.25 43.1875 25.515625 
Q 47.21875 21.78125 47.21875 15.09375 
Q 47.21875 7.46875 41.1875 3.015625 
Q 35.15625 -1.421875 24.609375 -1.421875 
Q 20.21875 -1.421875 15.453125 -0.5625 
Q 10.6875 0.296875 5.421875 2 
L 5.421875 11.28125 
Q 10.40625 8.6875 15.234375 7.390625 
Q 20.0625 6.109375 24.8125 6.109375 
Q 31.15625 6.109375 34.5625 8.28125 
Q 37.984375 10.453125 37.984375 14.40625 
Q 37.984375 18.0625 35.515625 20.015625 
Q 33.0625 21.96875 24.703125 23.78125 
L 21.578125 24.515625 
Q 13.234375 26.265625 9.515625 29.90625 
Q 5.8125 33.546875 5.8125 39.890625 
Q 5.8125 47.609375 11.28125 51.796875 
Q 16.75 56 26.8125 56 
Q 31.78125 56 36.171875 55.265625 
Q 40.578125 54.546875 44.28125 53.078125 
z
" id="DejaVuSans-115"/>
     <path id="DejaVuSans-32"/>
     <path d="M 30.609375 48.390625 
Q 23.390625 48.390625 19.1875 42.75 
Q 14.984375 37.109375 14.984375 27.296875 
Q 14.984375 17.484375 19.15625 11.84375 
Q 23.34375 6.203125 30.609375 6.203125 
Q 37.796875 6.203125 41.984375 11.859375 
Q 46.1875 17.53125 46.1875 27.296875 
Q 46.1875 37.015625 41.984375 42.703125 
Q 37.796875 48.390625 30.609375 48.390625 
z
M 30.609375 56 
Q 42.328125 56 49.015625 48.375 
Q 55.71875 40.765625 55.71875 27.296875 
Q 55.71875 13.875 49.015625 6.21875 
Q 42.328125 -1.421875 30.609375 -1.421875 
Q 18.84375 -1.421875 12.171875 6.21875 
Q 5.515625 13.875 5.515625 27.296875 
Q 5.515625 40.765625 12.171875 48.375 
Q 18.84375 56 30.609375 56 
z
" id="DejaVuSans-111"/>
     <path d="M 37.109375 75.984375 
L 37.109375 68.5 
L 28.515625 68.5 
Q 23.6875 68.5 21.796875 66.546875 
Q 19.921875 64.59375 19.921875 59.515625 
L 19.921875 54.6875 
L 34.71875 54.6875 
L 34.71875 47.703125 
L 19.921875 47.703125 
L 19.921875 0 
L 10.890625 0 
L 10.890625 47.703125 
L 2.296875 47.703125 
L 2.296875 54.6875 
L 10.890625 54.6875 
L 10.890625 58.5 
Q 10.890625 67.625 15.140625 71.796875 
Q 19.390625 75.984375 28.609375 75.984375 
z
" id="DejaVuSans-102"/>
     <path d="M 44.390625 34.1875 
Q 47.5625 33.109375 50.5625 29.59375 
Q 53.5625 26.078125 56.59375 19.921875 
L 66.609375 0 
L 56 0 
L 46.6875 18.703125 
Q 43.0625 26.03125 39.671875 28.421875 
Q 36.28125 30.8125 30.421875 30.8125 
L 19.671875 30.8125 
L 19.671875 0 
L 9.8125 0 
L 9.8125 72.90625 
L 32.078125 72.90625 
Q 44.578125 72.90625 50.734375 67.671875 
Q 56.890625 62.453125 56.890625 51.90625 
Q 56.890625 45.015625 53.6875 40.46875 
Q 50.484375 35.9375 44.390625 34.1875 
z
M 19.671875 64.796875 
L 19.671875 38.921875 
L 32.078125 38.921875 
Q 39.203125 38.921875 42.84375 42.21875 
Q 46.484375 45.515625 46.484375 51.90625 
Q 46.484375 58.296875 42.84375 61.546875 
Q 39.203125 64.796875 32.078125 64.796875 
z
" id="DejaVuSans-82"/>
     <path d="M 48.6875 27.296875 
Q 48.6875 37.203125 44.609375 42.84375 
Q 40.53125 48.484375 33.40625 48.484375 
Q 26.265625 48.484375 22.1875 42.84375 
Q 18.109375 37.203125 18.109375 27.296875 
Q 18.109375 17.390625 22.1875 11.75 
Q 26.265625 6.109375 33.40625 6.109375 
Q 40.53125 6.109375 44.609375 11.75 
Q 48.6875 17.390625 48.6875 27.296875 
z
M 18.109375 46.390625 
Q 20.953125 51.265625 25.265625 53.625 
Q 29.59375 56 35.59375 56 
Q 45.5625 56 51.78125 48.09375 
Q 58.015625 40.1875 58.015625 27.296875 
Q 58.015625 14.40625 51.78125 6.484375 
Q 45.5625 -1.421875 35.59375 -1.421875 
Q 29.59375 -1.421875 25.265625 0.953125 
Q 20.953125 3.328125 18.109375 8.203125 
L 18.109375 0 
L 9.078125 0 
L 9.078125 75.984375 
L 18.109375 75.984375 
z
" id="DejaVuSans-98"/>
     <path d="M 8.5 21.578125 
L 8.5 54.6875 
L 17.484375 54.6875 
L 17.484375 21.921875 
Q 17.484375 14.15625 20.5 10.265625 
Q 23.53125 6.390625 29.59375 6.390625 
Q 36.859375 6.390625 41.078125 11.03125 
Q 45.3125 15.671875 45.3125 23.6875 
L 45.3125 54.6875 
L 54.296875 54.6875 
L 54.296875 0 
L 45.3125 0 
L 45.3125 8.40625 
Q 42.046875 3.421875 37.71875 1 
Q 33.40625 -1.421875 27.6875 -1.421875 
Q 18.265625 -1.421875 13.375 4.4375 
Q 8.5 10.296875 8.5 21.578125 
z
M 31.109375 56 
z
" id="DejaVuSans-117"/>
     <path d="M 18.3125 70.21875 
L 18.3125 54.6875 
L 36.8125 54.6875 
L 36.8125 47.703125 
L 18.3125 47.703125 
L 18.3125 18.015625 
Q 18.3125 11.328125 20.140625 9.421875 
Q 21.96875 7.515625 27.59375 7.515625 
L 36.8125 7.515625 
L 36.8125 0 
L 27.59375 0 
Q 17.1875 0 13.234375 3.875 
Q 9.28125 7.765625 9.28125 18.015625 
L 9.28125 47.703125 
L 2.6875 47.703125 
L 2.6875 54.6875 
L 9.28125 54.6875 
L 9.28125 70.21875 
z
" id="DejaVuSans-116"/>
     <path d="M 19.671875 64.796875 
L 19.671875 8.109375 
L 31.59375 8.109375 
Q 46.6875 8.109375 53.6875 14.9375 
Q 60.6875 21.78125 60.6875 36.53125 
Q 60.6875 51.171875 53.6875 57.984375 
Q 46.6875 64.796875 31.59375 64.796875 
z
M 9.8125 72.90625 
L 30.078125 72.90625 
Q 51.265625 72.90625 61.171875 64.09375 
Q 71.09375 55.28125 71.09375 36.53125 
Q 71.09375 17.671875 61.125 8.828125 
Q 51.171875 0 30.078125 0 
L 9.8125 0 
z
" id="DejaVuSans-68"/>
     <path d="M 3.328125 72.90625 
L 13.28125 72.90625 
L 28.609375 11.28125 
L 43.890625 72.90625 
L 54.984375 72.90625 
L 70.3125 11.28125 
L 85.59375 72.90625 
L 95.609375 72.90625 
L 77.296875 0 
L 64.890625 0 
L 49.515625 63.28125 
L 33.984375 0 
L 21.578125 0 
z
" id="DejaVuSans-87"/>
     <path d="M 34.1875 63.1875 
L 20.796875 26.90625 
L 47.609375 26.90625 
z
M 28.609375 72.90625 
L 39.796875 72.90625 
L 67.578125 0 
L 57.328125 0 
L 50.6875 18.703125 
L 17.828125 18.703125 
L 11.1875 0 
L 0.78125 0 
z
" id="DejaVuSans-65"/>
     <path d="M 9.421875 54.6875 
L 18.40625 54.6875 
L 18.40625 0 
L 9.421875 0 
z
M 9.421875 75.984375 
L 18.40625 75.984375 
L 18.40625 64.59375 
L 9.421875 64.59375 
z
" id="DejaVuSans-105"/>
     <path d="M 54.890625 33.015625 
L 54.890625 0 
L 45.90625 0 
L 45.90625 32.71875 
Q 45.90625 40.484375 42.875 44.328125 
Q 39.84375 48.1875 33.796875 48.1875 
Q 26.515625 48.1875 22.3125 43.546875 
Q 18.109375 38.921875 18.109375 30.90625 
L 18.109375 0 
L 9.078125 0 
L 9.078125 54.6875 
L 18.109375 54.6875 
L 18.109375 46.1875 
Q 21.34375 51.125 25.703125 53.5625 
Q 30.078125 56 35.796875 56 
Q 45.21875 56 50.046875 50.171875 
Q 54.890625 44.34375 54.890625 33.015625 
z
" id="DejaVuSans-110"/>
     <path d="M 11.71875 12.40625 
L 22.015625 12.40625 
L 22.015625 4 
L 14.015625 -11.625 
L 7.71875 -11.625 
L 11.71875 4 
z
" id="DejaVuSans-44"/>
     <path d="M 52 44.1875 
Q 55.375 50.25 60.0625 53.125 
Q 64.75 56 71.09375 56 
Q 79.640625 56 84.28125 50.015625 
Q 88.921875 44.046875 88.921875 33.015625 
L 88.921875 0 
L 79.890625 0 
L 79.890625 32.71875 
Q 79.890625 40.578125 77.09375 44.375 
Q 74.3125 48.1875 68.609375 48.1875 
Q 61.625 48.1875 57.5625 43.546875 
Q 53.515625 38.921875 53.515625 30.90625 
L 53.515625 0 
L 44.484375 0 
L 44.484375 32.71875 
Q 44.484375 40.625 41.703125 44.40625 
Q 38.921875 48.1875 33.109375 48.1875 
Q 26.21875 48.1875 22.15625 43.53125 
Q 18.109375 38.875 18.109375 30.90625 
L 18.109375 0 
L 9.078125 0 
L 9.078125 54.6875 
L 18.109375 54.6875 
L 18.109375 46.1875 
Q 21.1875 51.21875 25.484375 53.609375 
Q 29.78125 56 35.6875 56 
Q 41.65625 56 45.828125 52.96875 
Q 50 49.953125 52 44.1875 
z
" id="DejaVuSans-109"/>
     <path d="M 9.421875 75.984375 
L 18.40625 75.984375 
L 18.40625 0 
L 9.421875 0 
z
" id="DejaVuSans-108"/>
     <path d="M 45.40625 46.390625 
L 45.40625 75.984375 
L 54.390625 75.984375 
L 54.390625 0 
L 45.40625 0 
L 45.40625 8.203125 
Q 42.578125 3.328125 38.25 0.953125 
Q 33.9375 -1.421875 27.875 -1.421875 
Q 17.96875 -1.421875 11.734375 6.484375 
Q 5.515625 14.40625 5.515625 27.296875 
Q 5.515625 40.1875 11.734375 48.09375 
Q 17.96875 56 27.875 56 
Q 33.9375 56 38.25 53.625 
Q 42.578125 51.265625 45.40625 46.390625 
z
M 14.796875 27.296875 
Q 14.796875 17.390625 18.875 11.75 
Q 22.953125 6.109375 30.078125 6.109375 
Q 37.203125 6.109375 41.296875 11.75 
Q 45.40625 17.390625 45.40625 27.296875 
Q 45.40625 37.203125 41.296875 42.84375 
Q 37.203125 48.484375 30.078125 48.484375 
Q 22.953125 48.484375 18.875 42.84375 
Q 14.796875 37.203125 14.796875 27.296875 
z
" id="DejaVuSans-100"/>
     <path d="M 18.109375 8.203125 
L 18.109375 -20.796875 
L 9.078125 -20.796875 
L 9.078125 54.6875 
L 18.109375 54.6875 
L 18.109375 46.390625 
Q 20.953125 51.265625 25.265625 53.625 
Q 29.59375 56 35.59375 56 
Q 45.5625 56 51.78125 48.09375 
Q 58.015625 40.1875 58.015625 27.296875 
Q 58.015625 14.40625 51.78125 6.484375 
Q 45.5625 -1.421875 35.59375 -1.421875 
Q 29.59375 -1.421875 25.265625 0.953125 
Q 20.953125 3.328125 18.109375 8.203125 
z
M 48.6875 27.296875 
Q 48.6875 37.203125 44.609375 42.84375 
Q 40.53125 48.484375 33.40625 48.484375 
Q 26.265625 48.484375 22.1875 42.84375 
Q 18.109375 37.203125 18.109375 27.296875 
Q 18.109375 17.390625 22.1875 11.75 
Q 26.265625 6.109375 33.40625 6.109375 
Q 40.53125 6.109375 44.609375 11.75 
Q 48.6875 17.390625 48.6875 27.296875 
z
" id="DejaVuSans-112"/>
    </defs>
    <g transform="translate(53.515 16.318125)scale(0.12 -0.12)">
     <use xlink:href="#DejaVuSans-84"/>
     <use x="60.865234" xlink:href="#DejaVuSans-114"/>
     <use x="101.978516" xlink:href="#DejaVuSans-97"/>
     <use x="163.257812" xlink:href="#DejaVuSans-99"/>
     <use x="218.238281" xlink:href="#DejaVuSans-101"/>
     <use x="279.761719" xlink:href="#DejaVuSans-115"/>
     <use x="331.861328" xlink:href="#DejaVuSans-32"/>
     <use x="363.648438" xlink:href="#DejaVuSans-111"/>
     <use x="424.830078" xlink:href="#DejaVuSans-102"/>
     <use x="460.035156" xlink:href="#DejaVuSans-32"/>
     <use x="491.822266" xlink:href="#DejaVuSans-82"/>
     <use x="561.242188" xlink:href="#DejaVuSans-111"/>
     <use x="622.423828" xlink:href="#DejaVuSans-98"/>
     <use x="685.900391" xlink:href="#DejaVuSans-117"/>
     <use x="749.279297" xlink:href="#DejaVuSans-115"/>
     <use x="801.378906" xlink:href="#DejaVuSans-116"/>
     <use x="840.587891" xlink:href="#DejaVuSans-32"/>
     <use x="872.375" xlink:href="#DejaVuSans-68"/>
     <use x="949.376953" xlink:href="#DejaVuSans-87"/>
     <use x="1048.175781" xlink:href="#DejaVuSans-65"/>
     <use x="1116.583984" xlink:href="#DejaVuSans-32"/>
     <use x="1148.371094" xlink:href="#DejaVuSans-102"/>
     <use x="1183.576172" xlink:href="#DejaVuSans-111"/>
     <use x="1244.757812" xlink:href="#DejaVuSans-114"/>
     <use x="1285.871094" xlink:href="#DejaVuSans-32"/>
     <use x="1317.658203" xlink:href="#DejaVuSans-97"/>
     <use x="1378.9375" xlink:href="#DejaVuSans-32"/>
     <use x="1410.724609" xlink:href="#DejaVuSans-68"/>
     <use x="1487.726562" xlink:href="#DejaVuSans-117"/>
     <use x="1551.105469" xlink:href="#DejaVuSans-98"/>
     <use x="1614.582031" xlink:href="#DejaVuSans-105"/>
     <use x="1642.365234" xlink:href="#DejaVuSans-110"/>
     <use x="1705.744141" xlink:href="#DejaVuSans-115"/>
     <use x="1757.84375" xlink:href="#DejaVuSans-32"/>
     <use x="1789.630859" xlink:href="#DejaVuSans-99"/>
     <use x="1844.611328" xlink:href="#DejaVuSans-97"/>
     <use x="1905.890625" xlink:href="#DejaVuSans-114"/>
     <use x="1947.003906" xlink:href="#DejaVuSans-44"/>
     <use x="1978.791016" xlink:href="#DejaVuSans-32"/>
     <use x="2010.578125" xlink:href="#DejaVuSans-115"/>
     <use x="2062.677734" xlink:href="#DejaVuSans-105"/>
     <use x="2090.460938" xlink:href="#DejaVuSans-109"/>
     <use x="2187.873047" xlink:href="#DejaVuSans-117"/>
     <use x="2251.251953" xlink:href="#DejaVuSans-108"/>
     <use x="2279.035156" xlink:href="#DejaVuSans-97"/>
     <use x="2340.314453" xlink:href="#DejaVuSans-116"/>
     <use x="2379.523438" xlink:href="#DejaVuSans-101"/>
     <use x="2441.046875" xlink:href="#DejaVuSans-100"/>
     <use x="2504.523438" xlink:href="#DejaVuSans-32"/>
     <use x="2536.310547" xlink:href="#DejaVuSans-112"/>
     <use x="2599.787109" xlink:href="#DejaVuSans-101"/>
     <use x="2661.310547" xlink:href="#DejaVuSans-114"/>
     <use x="2702.423828" xlink:href="#DejaVuSans-116"/>
     <use x="2741.632812" xlink:href="#DejaVuSans-117"/>
     <use x="2805.011719" xlink:href="#DejaVuSans-114"/>
     <use x="2846.125" xlink:href="#DejaVuSans-98"/>
     <use x="2909.601562" xlink:href="#DejaVuSans-97"/>
     <use x="2970.880859" xlink:href="#DejaVuSans-116"/>
     <use x="3010.089844" xlink:href="#DejaVuSans-105"/>
     <use x="3037.873047" xlink:href="#DejaVuSans-111"/>
     <use x="3099.054688" xlink:href="#DejaVuSans-110"/>
     <use x="3162.433594" xlink:href="#DejaVuSans-115"/>
    </g>
   </g>
  </g>
 </g>
 <defs>
  <clipPath id="pf545d90a35">
   <rect height="434.88" width="434.88" x="28.942188" y="22.318125"/>
  </clipPath>
 </defs>
</svg>
